<svg width="744" height="1460" viewBox="0 0 744 1460" fill="none" xmlns="http://www.w3.org/2000/svg">
<g opacity="0.7">
<path d="M742.976 961.287H656.231V883.054H548.547V765.705H565.497V685.358H528.605V585.981H543.561V522.549V453.831M543.561 453.831H509.661M543.561 453.831V410.486H581.45V319.566H743.973" stroke="#547770" stroke-width="6"/>
<path d="M547.657 883.183H484.292V1035.94H453.6V1161.31H435.778V1279.31H484.292V1457.35" stroke="#547770" stroke-width="6"/>
<path d="M184.578 963.398H259.572V1039.39H279.57V1199.82H209.576V1397.19H259.572V1459.47" stroke="#547770" stroke-width="6"/>
<path d="M279.57 1094.28H344.069V1128.05H435.778V1161.82" stroke="#547770" stroke-width="6"/>
<path d="M260.572 0.817383V163.066H207.44V318.992H227.49V409.599H207.44V532.865H91.1518V585.543H0.928223" stroke="#547770" stroke-width="6"/>
<path d="M0.928223 1035.17H72.8904H182.833V995.103V945.547V891.773H203.821V797.933H229.808V680.896H203.821V586.001H91.8804V534.336M430.702 0.817383V122.071H483.674V322.404H509.661V454.203H430.702V556.478H317.262V524.846H207.819" stroke="#547770" stroke-width="6"/>
</g>
</svg>
