<svg width="448" height="59" viewBox="0 0 448 59" fill="none" xmlns="http://www.w3.org/2000/svg">
<path d="M12.048 34.944H28.708L34.692 48H46.796L41.288 34.944H46.864V0.399997H0.148V48H12.048V34.944ZM12.048 24.744V10.6H34.964V24.744H12.048ZM94.9756 10.6H55.3316V48H94.9756V10.6ZM84.1636 19.712V38.888H66.1436V19.712H84.1636ZM114.089 0.399997H103.277V48H114.089V0.399997ZM161.98 38.888H133.148V34.264H161.98V10.6H122.336V48H161.98V38.888ZM133.148 25.152V19.712H151.168V25.152H133.148ZM182.181 10.532H215.637V0.399997H170.281V48H215.637V37.868H182.181V29.232H202.989V19.1H182.181V10.532ZM262.983 0.399997H252.171V10.6H223.339V48H262.983V0.399997ZM234.151 38.888V19.712H252.171V38.888H234.151ZM282.097 0.399997H271.285V7.064H282.097V0.399997ZM282.097 10.6H271.285V48H282.097V10.6ZM301.155 10.6V3.8H290.343V48H314.279V38.888H301.155V19.712H313.803V10.6H301.155ZM361.53 10.6H321.886V48H361.53V10.6ZM350.718 19.712V38.888H332.698V19.712H350.718ZM401.18 10.6H369.832V48H380.644V19.712H401.18V10.6Z" fill="url(#paint0_linear_7_8228)"/>
<defs>
<linearGradient id="paint0_linear_7_8228" x1="-4" y1="65" x2="453" y2="65" gradientUnits="userSpaceOnUse">
<stop stop-color="#A34CE7"/>
<stop offset="0.520833" stop-color="#E056E2"/>
<stop offset="0.979167" stop-color="#E25678"/>
</linearGradient>
</defs>
</svg>
