<svg width="513" height="43" viewBox="0 0 513 43" fill="none" xmlns="http://www.w3.org/2000/svg">
<path d="M32.8554 18.4025H17.5046V25.0505H25.18V36.4125H8.19743V7.28223H25.18V13.3258H32.8554V0.694684H0.522036V43H32.8554V18.4025ZM67.7379 36.8355H47.5522V29.9458H67.7379V9.76011H40.3603V43H67.7379V36.8355ZM47.5522 23.7813V15.9246H60.546V23.7813H47.5522ZM102.619 9.76011H75.241V43H82.4329V15.9246H95.4266V43H102.619V9.76011ZM137.499 36.8355H117.314V29.9458H137.499V9.76011H110.122V43H137.499V36.8355ZM117.314 23.7813V15.9246H130.307V23.7813H117.314ZM172.38 22.6934H152.194V15.9246H172.38V9.76011H145.002V28.8579H165.188V36.8355H145.002V43H172.38V22.6934ZM187.075 0.694684H179.883V6.37569H187.075V0.694684ZM187.075 9.76011H179.883V43H187.075V9.76011ZM222.015 22.6934H201.83V15.9246H222.015V9.76011H194.638V28.8579H214.823V36.8355H194.638V43H222.015V22.6934ZM272.567 36.352H251.536V0.694684H243.86V43H272.567V36.352ZM278.446 15.9246H298.631V22.0891H278.446V43H305.823V9.76011H278.446V15.9246ZM298.631 28.2536V36.8355H285.638V28.2536H298.631ZM340.704 9.76011H313.326V43H320.518V15.9246H333.512V43H340.704V9.76011ZM375.585 0.694684H368.393V9.76011H348.207V43H375.585V0.694684ZM355.399 36.8355V15.9246H368.393V36.8355H355.399ZM428.494 31.2149V0.694684H397.429V43H405.105V31.2149H428.494ZM405.105 24.567V7.34266H420.818V24.567H405.105ZM443.161 0.694684H435.969V43H443.161V0.694684ZM450.724 15.9246H470.91V22.0891H450.724V43H478.102V9.76011H450.724V15.9246ZM470.91 28.2536V36.8355H457.916V28.2536H470.91ZM512.982 9.76011H485.605V43H492.797V15.9246H505.791V43H512.982V9.76011Z" fill="#27FFF9"/>
</svg>
