<svg width="542" height="34" viewBox="0 0 542 34" fill="none" xmlns="http://www.w3.org/2000/svg">
<path opacity="0.65" d="M5.39708 4.95896H19.9018V0.809331H0.562184V27.4583H19.9018V23.3087H5.39708V16.1896H14.9146V12.04H5.39708V4.95896ZM27.9726 27.4583H37.3378L42.2488 6.51983H37.4901L33.7973 23.5752H31.5512L27.8203 6.51983H23.0616L27.9726 27.4583ZM62.9045 23.5752H50.1891V19.2352H62.9045V6.51983H45.6588V27.4583H62.9045V23.5752ZM50.1891 15.3521V10.403H58.3742V15.3521H50.1891ZM81.0315 6.51983H67.6308V27.4583H72.1612V10.403H81.0315V6.51983ZM102.201 6.51983H97.6711V23.5752H89.486V6.51983H84.9557V27.4583H97.6711V33.1688H102.201V6.51983ZM124.173 6.51983H106.928V27.4583H124.173V6.51983ZM119.643 10.403V23.5752H111.458V10.403H119.643ZM146.145 6.51983H128.9V27.4583H133.43V10.403H141.615V27.4583H146.145V6.51983ZM168.118 23.5752H155.402V19.2352H168.118V6.51983H150.872V27.4583H168.118V23.5752ZM155.402 15.3521V10.403H163.587V15.3521H155.402ZM186.713 4.95896H197.144V9.90807H201.979V0.809331H181.878V27.4583H201.979V18.3596H197.144V23.3087H186.713V4.95896ZM206.713 10.403H219.428V14.2861H206.713V27.4583H223.959V6.51983H206.713V10.403ZM219.428 18.1693V23.5752H211.243V18.1693H219.428ZM245.931 6.51983H228.685V27.4583H233.215V10.403H241.4V27.4583H245.931V6.51983ZM259.691 27.4583H279.792V10.1365H276.861L279.602 0.809331H259.691V27.4583ZM274.957 14.3242V23.2706H264.526V14.3242H274.957ZM264.526 4.99703H273.549L272.102 10.1365H264.526V4.99703ZM284.526 27.4583H301.772V6.51983H297.241V23.5752H289.056V6.51983H284.526V27.4583ZM311.028 0.809331H306.498V4.38791H311.028V0.809331ZM311.028 6.51983H306.498V27.4583H311.028V6.51983ZM320.323 0.809331H315.792V27.4583H320.323V0.809331ZM342.332 0.809331H337.802V6.51983H325.087V27.4583H342.332V0.809331ZM329.617 23.5752V10.403H337.802V23.5752H329.617ZM374.443 27.4583H379.278V0.428631L367.704 11.5831L356.093 0.428631V27.4583H360.928V11.2405L367.704 18.017L374.443 11.2405V27.4583ZM401.259 23.5752H388.544V19.2352H401.259V6.51983H384.013V27.4583H401.259V23.5752ZM388.544 15.3521V10.403H396.729V15.3521H388.544ZM410.516 6.51983V2.71283H405.986V27.4583H415.96V23.5752H410.516V10.403H415.808V6.51983H410.516ZM420.076 10.403H432.791V14.2861H420.076V27.4583H437.322V6.51983H420.076V10.403ZM432.791 18.1693V23.5752H424.606V18.1693H432.791ZM445.665 27.4583H455.03L459.941 6.51983H455.182L451.489 23.5752H449.243L445.512 6.51983H440.754L445.665 27.4583ZM480.597 23.5752H467.881V19.2352H480.597V6.51983H463.351V27.4583H480.597V23.5752ZM467.881 15.3521V10.403H476.066V15.3521H467.881ZM498.724 6.51983H485.323V27.4583H489.853V10.403H498.724V6.51983ZM519.893 14.6668H507.178V10.403H519.893V6.51983H502.648V18.55H515.363V23.5752H502.648V27.4583H519.893V14.6668ZM541.865 23.5752H529.15V19.2352H541.865V6.51983H524.62V27.4583H541.865V23.5752ZM529.15 15.3521V10.403H537.335V15.3521H529.15Z" fill="white"/>
</svg>
