<svg width="478" height="59" viewBox="0 0 478 59" fill="none" xmlns="http://www.w3.org/2000/svg">
<path d="M0.148 37.868V48H46.864V17.944H12.048V10.532H46.864V0.399997H0.148V28.076H34.964V37.868H0.148ZM55.1324 58.2H65.9444V48H94.7764V10.6H55.1324V58.2ZM83.9644 19.712V38.888H65.9444V19.712H83.9644ZM103.078 19.712H131.91V24.064H103.078V48H142.722V10.6H103.078V19.712ZM131.91 33.176V38.888H113.89V33.176H131.91ZM179.855 19.712V24.744H190.667V10.6H151.023V48H190.667V33.856H179.855V38.888H161.835V19.712H179.855ZM238.612 38.888H209.78V34.264H238.612V10.6H198.968V48H238.612V38.888ZM209.78 25.152V19.712H227.8V25.152H209.78ZM258.814 10.532H292.27V0.399997H246.914V48H292.27V37.868H258.814V29.232H279.622V19.1H258.814V10.532ZM339.616 0.399997H328.804V10.6H299.972V48H339.616V0.399997ZM310.784 38.888V19.712H328.804V38.888H310.784ZM358.73 0.399997H347.918V7.064H358.73V0.399997ZM358.73 10.6H347.918V48H358.73V10.6ZM377.788 10.6V3.8H366.976V48H390.912V38.888H377.788V19.712H390.436V10.6H377.788ZM438.163 10.6H398.519V48H438.163V10.6ZM427.351 19.712V38.888H409.331V19.712H427.351ZM477.812 10.6H446.464V48H457.276V19.712H477.812V10.6Z" fill="url(#paint0_linear_7_7907)"/>
<defs>
<linearGradient id="paint0_linear_7_7907" x1="-4" y1="65" x2="481" y2="65" gradientUnits="userSpaceOnUse">
<stop stop-color="#A34CE7"/>
<stop offset="0.520833" stop-color="#E056E2"/>
<stop offset="0.979167" stop-color="#E25678"/>
</linearGradient>
</defs>
</svg>
