<svg width="965" height="1041" viewBox="0 0 965 1041" fill="none" xmlns="http://www.w3.org/2000/svg">
<path d="M906.947 914.474L909.265 917.627L896.334 927.132L894.016 923.979L888.024 928.383L890.342 931.537L874.257 943.361L871.939 940.207L865.947 944.612L868.265 947.765L864.796 950.316L836.976 912.469L833.822 914.788L824.549 902.172L821.395 904.49L805.167 882.413L802.013 884.732L799.695 881.578L796.541 883.896L794.222 880.742L787.915 885.379L785.596 882.225L782.443 884.543L780.124 881.39L764.355 892.981L762.037 889.827L758.883 892.146L756.564 888.992L753.411 891.31L751.092 888.156L747.938 890.475L745.62 887.321L742.466 889.639L740.148 886.485L736.994 888.803L734.676 885.65L731.522 887.968L729.204 884.814L726.05 887.132L723.731 883.979L720.578 886.297L718.259 883.143L715.105 885.461L712.787 882.307L709.949 884.394L714.585 890.702L711.431 893.02L713.75 896.174L710.596 898.492L712.914 901.646L709.76 903.964L712.079 907.118L708.925 909.437L711.243 912.59L708.089 914.909L710.407 918.063L707.254 920.381L709.572 923.535L706.418 925.853L708.736 929.007L705.583 931.325L707.901 934.479L704.747 936.797L707.065 939.951L703.911 942.27L706.23 945.423L703.076 947.742L705.394 950.896L702.24 953.214L704.559 956.368L691.943 965.641L694.262 968.795L691.108 971.113L693.426 974.267L683.964 981.222L686.283 984.376L683.129 986.694L685.447 989.848L675.986 996.803L678.304 999.957L674.835 1002.51L672.516 999.353L669.363 1001.67L667.044 998.518L663.89 1000.84L661.572 997.682L658.418 1000L656.1 996.846L652.946 999.165L650.628 996.011L638.012 1005.28L635.694 1002.13L632.54 1004.45L630.222 1001.29L627.068 1003.61L624.75 1000.46L621.596 1002.78L616.727 996.154L619.881 993.836L610.84 981.536L607.686 983.854L593.776 964.931L590.622 967.25L588.304 964.096L585.15 966.414L582.832 963.26L579.678 965.578L577.36 962.425L574.206 964.743L564.701 951.812L567.854 949.494L565.536 946.34L568.69 944.022L566.372 940.868L569.526 938.549L567.207 935.396L570.361 933.077L568.043 929.923L571.197 927.605L569.11 924.767L553.656 936.126L555.974 939.28L552.821 941.599L555.139 944.753L551.985 947.071L554.303 950.225L551.15 952.543L555.786 958.851L552.632 961.169L554.951 964.323L548.328 969.191L546.009 966.037L530.24 977.629L527.922 974.475L524.768 976.793L522.45 973.64L506.68 985.231L504.362 982.077L501.208 984.396L498.89 981.242L495.736 983.56L493.418 980.406L490.264 982.725L487.945 979.571L484.792 981.889L482.473 978.735L479.319 981.053L477.001 977.9L473.847 980.218L450.664 948.679L447.51 950.998L445.192 947.844L442.038 950.162L437.17 943.539L440.323 941.221L438.005 938.067L441.159 935.749L438.841 932.595L441.994 930.276L439.676 927.122L442.83 924.804L433.557 912.189L436.711 909.87L434.392 906.717L437.546 904.398L435.228 901.244L438.382 898.926L433.977 892.934L418.208 904.525L406.616 888.756L403.462 891.074L401.144 887.921L397.99 890.239L395.672 887.085L392.518 889.403L390.2 886.249L324.284 934.702L326.602 937.856L320.294 942.493L322.613 945.647L309.682 955.152L307.364 951.998L301.056 956.634L298.738 953.481L295.584 955.799L293.266 952.645L290.112 954.963L287.793 951.81L284.639 954.128L282.321 950.974L279.167 953.292L276.849 950.138L267.387 957.093L265.069 953.939L262.231 956.026L264.549 959.18L261.395 961.498L263.713 964.652L260.559 966.97L262.878 970.124L259.724 972.443L262.042 975.596L258.573 978.147L256.255 974.993L253.101 977.311L246.146 967.849L243.307 969.936L245.626 973.09L242.472 975.408L244.79 978.562L241.636 980.88L243.955 984.034L240.485 986.584L238.167 983.43L235.013 985.749L232.695 982.595L226.387 987.231L224.069 984.078L214.923 990.801L217.241 993.955L213.772 996.505L211.454 993.351L208.3 995.669L205.981 992.515L193.681 1001.56L196 1004.71L189.377 1009.58L187.058 1006.43L165.297 1022.42L167.615 1025.58L164.461 1027.89L166.779 1031.05L153.849 1040.55L139.939 1021.63L136.785 1023.95L134.467 1020.79L131.313 1023.11L128.994 1019.96L125.841 1022.28L120.972 1015.65L124.126 1013.34L122.039 1010.5L118.886 1012.82L116.567 1009.66L113.413 1011.98L111.095 1008.83L107.941 1011.14L105.623 1007.99L99.6305 1012.4L101.949 1015.55L98.7949 1017.87L101.113 1021.02L97.6441 1023.57L95.3258 1020.42L92.172 1022.74L89.8536 1019.58L86.6997 1021.9L84.3814 1018.75L81.2275 1021.06L78.9092 1017.91L75.7554 1020.23L73.4371 1017.08L70.2832 1019.39L67.9649 1016.24L64.8111 1018.56L62.4928 1015.4L59.3389 1017.72L57.0206 1014.57L53.8667 1016.89L51.5483 1013.73L48.3945 1016.05L46.0762 1012.9L42.9223 1015.22L40.604 1012.06L21.6809 1025.97L19.3626 1022.82L16.2087 1025.14L13.8904 1021.98L10.7366 1024.3L8.41827 1021.15L5.26438 1023.47L0.395912 1016.84L19.3191 1002.93L17.0008 999.778L20.1546 997.46L17.8363 994.306L20.9902 991.988L18.6719 988.834L21.8257 986.516L19.5073 983.362L22.6612 981.044L18.0246 974.736L21.1784 972.418L18.8601 969.264L22.014 966.945L19.6957 963.791L35.465 952.2L33.1467 949.046L36.3006 946.728L33.9822 943.574L37.136 941.256L34.8177 938.102L37.9716 935.783L35.6533 932.63L38.8071 930.311L36.4888 927.157L39.6427 924.839L37.3243 921.685L40.4781 919.367L38.1598 916.213L41.3137 913.895L38.9954 910.741L64.2263 892.194L61.908 889.04L65.0618 886.722L62.7435 883.568L65.8974 881.25L63.5791 878.096L66.7329 875.778L64.4145 872.624L67.5684 870.306L65.2501 867.152L68.404 864.833L66.0857 861.68L69.5548 859.13L71.8732 862.283L75.0271 859.965L77.3454 863.119L111.722 837.849L109.404 834.695L112.558 832.377L110.24 829.223L113.393 826.905L111.075 823.751L114.229 821.433L111.911 818.279L115.065 815.961L112.746 812.807L115.9 810.488L113.582 807.334L116.736 805.016L114.417 801.862L164.879 764.769L162.561 761.615L165.715 759.297L163.396 756.143L166.55 753.825L164.232 750.671L167.386 748.353L165.067 745.199L168.221 742.881L165.903 739.727L169.057 737.408L166.738 734.255L169.892 731.936L167.574 728.782L170.728 726.464L168.641 723.626L167.482 722.049L170.951 719.499L166.315 713.191L169.469 710.873L170.628 712.45L175.359 708.972L173.04 705.818L171.881 704.241L175.035 701.923L176.194 703.5L184.079 697.704L174.806 685.089L177.959 682.77L181.113 680.452L178.795 677.298L180.372 676.139L178.054 672.985L182.784 669.508L187.421 675.815L190.575 673.497L184.779 665.612L187.933 663.294L185.615 660.14L188.768 657.822L192.246 662.553L204.861 653.279L209.498 659.587L212.652 657.269L211.493 655.692L214.647 653.374L227.397 670.72L241.59 660.287L239.271 657.134L247.156 651.338L251.793 657.645L261.254 650.691L258.936 647.537L262.09 645.218L264.408 648.372L270.716 643.736L273.034 646.889L276.188 644.571L278.274 647.41L281.428 645.091L299.975 670.322L303.129 668.004L305.447 671.158L308.601 668.839L310.919 671.993L314.073 669.675L316.391 672.829L319.545 670.51L340.41 698.895L343.564 696.577L345.882 699.731L349.036 697.412L351.354 700.566L354.508 698.248L356.826 701.402L359.665 699.315L357.347 696.161L360.501 693.843L353.546 684.381L356.699 682.063L354.381 678.909L357.535 676.591L355.217 673.437L358.371 671.119L356.052 667.965L359.206 665.647L356.888 662.493L360.042 660.175L357.723 657.021L360.877 654.702L358.559 651.548L361.713 649.23L359.394 646.076L362.548 643.758L360.23 640.604L363.384 638.286L361.065 635.132L364.219 632.814L361.901 629.66L365.055 627.341L362.737 624.188L365.89 621.869L363.572 618.715L385.649 602.487L383.331 599.333L386.485 597.015L374.893 581.246L378.047 578.927L375.729 575.774L378.882 573.455L376.564 570.301L386.026 563.346L383.707 560.193L386.861 557.874L375.27 542.105L378.424 539.787L376.105 536.633L379.259 534.315L376.941 531.161L386.402 524.206L384.084 521.052L387.238 518.734L384.92 515.58L394.381 508.625L392.063 505.471L395.217 503.153L392.898 499.999L396.052 497.68L389.097 488.219L392.251 485.9L389.933 482.747L393.087 480.428L390.768 477.274L393.922 474.956L382.331 459.187L385.484 456.869L383.166 453.715L402.089 439.805L399.771 436.651L402.925 434.333L400.607 431.179L410.068 424.224L407.75 421.07L410.904 418.752L408.585 415.598L411.739 413.279L409.421 410.126L412.575 407.807L403.301 395.192L406.455 392.874L404.137 389.72L407.291 387.401L404.973 384.248L408.126 381.929L405.808 378.775L408.962 376.457L406.644 373.303L409.797 370.985L400.756 358.685L397.602 361.003L395.284 357.849L392.13 360.168L389.812 357.014L386.658 359.332L384.108 355.863L387.262 353.545L384.943 350.391L388.097 348.072L385.779 344.918L388.933 342.6L386.614 339.446L389.768 337.128L387.45 333.974L396.911 327.019L380.683 304.942L383.837 302.624L381.519 299.47L384.673 297.152L382.354 293.998L385.508 291.68L383.19 288.526L386.344 286.207L374.752 270.438L377.906 268.12L375.588 264.966L378.742 262.648L376.423 259.494L379.577 257.175L328.574 187.791L331.728 185.472L325.005 176.326L321.851 178.644L314.896 169.183L311.742 171.501L309.424 168.347L306.27 170.666L303.952 167.512L300.798 169.83L298.48 166.676L295.641 168.763L297.959 171.917L294.806 174.235L297.124 177.389L293.97 179.707L296.288 182.861L293.134 185.179L295.453 188.333L292.299 190.651L294.617 193.805L291.463 196.124L293.782 199.277L290.628 201.596L292.946 204.75L289.477 207.3L287.159 204.146L284.005 206.464L281.686 203.31L278.533 205.629L276.214 202.475L273.06 204.793L270.742 201.639L267.588 203.958L265.27 200.804L262.116 203.122L259.798 199.968L256.644 202.287L247.371 189.671L244.217 191.989L241.898 188.836L238.745 191.154L226.921 175.069L230.075 172.751L227.757 169.597L230.911 167.279L228.592 164.125L231.746 161.807L229.428 158.653L232.582 156.334L230.263 153.181L236.571 148.544L234.253 145.39L237.407 143.072L233.002 137.079L229.848 139.398L227.298 135.928L230.452 133.61L228.133 130.456L231.287 128.138L228.969 124.984L232.123 122.666L229.804 119.512L232.958 117.194L230.64 114.04L233.794 111.722L231.476 108.568L234.945 106.018L237.263 109.171L255.871 95.4933L253.553 92.3394L256.706 90.0211L254.388 86.8673L257.542 84.549L255.224 81.3951L258.378 79.0768L256.059 75.9229L259.213 73.6045L256.895 70.4507L260.049 68.1324L250.775 55.5169L253.929 53.1986L251.611 50.0448L254.765 47.7265L252.446 44.5726L255.6 42.2543L253.282 39.1005L256.436 36.7822L254.118 33.6283L257.271 31.31L254.953 28.1562L258.107 25.8379L255.789 22.684L258.942 20.3657L249.901 8.06549L253.055 5.74716L250.737 2.59336L254.206 0.0432803L256.524 3.19708L259.678 0.878771L268.951 13.4943L272.105 11.1759L274.423 14.3297L283.885 7.37479L288.521 13.6825L291.675 11.3642L293.994 14.5181L300.301 9.88144L302.62 13.0353L305.774 10.717L308.092 13.8708L311.246 11.5525L313.796 15.0217L310.327 17.5718L308.008 14.4179L304.854 16.7363L302.536 13.5824L296.544 17.9872L298.63 20.8258L301.784 18.5075L304.102 21.6614L307.256 19.343L309.575 22.4968L312.728 20.1785L315.047 23.3324L317.885 21.2459L315.567 18.092L318.721 15.7737L314.084 9.46598L317.238 7.14766L314.92 3.99386L318.389 1.44378L320.707 4.59757L323.861 2.27925L333.134 14.8947L336.288 12.5764L338.607 15.7302L341.76 13.4119L344.079 16.5658L347.233 14.2475L354.419 24.0243L350.95 26.5744L348.632 23.4206L345.478 25.7389L345.246 25.4236L343.16 22.585L340.321 24.6716L340.006 24.9034L339.774 24.588L337.688 21.7496L334.849 23.8361L334.534 24.0679L334.302 23.7525L332.215 20.914L329.377 23.0005L331.463 25.8391L338.418 35.3006L341.572 32.9823L343.89 36.1362L350.198 31.4995L359.471 44.1149L362.625 41.7966L365.175 45.2658L362.022 47.5841L366.426 53.5765L369.58 51.2582L371.667 54.0968L374.821 51.7784L379.457 58.0861L382.611 55.7678L387.248 62.0756L390.086 59.989L387.768 56.8351L394.391 51.9667L403.664 64.5822L406.818 62.2639L409.136 65.4177L415.444 60.7811L417.994 64.2503L411.687 68.8869L418.41 78.0332L421.564 75.7149L424.114 79.184L420.96 81.5023L427.915 90.9639L424.761 93.2822L426.847 96.1208L430.001 93.8025L432.32 96.9563L435.473 94.638L437.792 97.7918L440.946 95.4735L443.496 98.9427L440.342 101.261L444.747 107.253L447.901 104.935L450.219 108.089L453.373 105.771L455.691 108.925L458.845 106.606L461.163 109.76L464.317 107.442L466.635 110.596L469.789 108.277L472.108 111.431L475.261 109.113L477.58 112.267L480.418 110.18L478.1 107.026L481.569 104.476L483.887 107.63L487.041 105.312L489.36 108.466L492.513 106.147L495.064 109.616L491.91 111.935L493.996 114.773L497.15 112.455L499.468 115.609L505.461 111.204L503.142 108.05L506.296 105.732L503.978 102.578L507.132 100.26L504.814 97.1058L508.283 94.5557L510.601 97.7096L513.755 95.3912L518.623 102.014L515.469 104.333L517.788 107.486L514.634 109.805L516.72 112.643L519.874 110.325L522.193 113.479L525.347 111.161L527.665 114.314L530.819 111.996L533.137 115.15L536.291 112.832L538.609 115.985L541.448 113.899L539.129 110.745L542.598 108.195L544.917 111.349L548.071 109.03L550.389 112.184L553.543 109.866L560.498 119.328L563.652 117.009L565.97 120.163L575.432 113.208L577.75 116.362L580.904 114.044L583.222 117.198L586.376 114.879L588.926 118.348L585.772 120.667L597.132 136.121L600.286 133.802L605.154 140.425L601.685 142.976L599.367 139.822L593.374 144.227L595.693 147.38L592.539 149.699L594.625 152.537L597.779 150.219L600.329 153.688L597.175 156.006L601.58 161.999L604.734 159.68L607.052 162.834L609.891 160.748L607.573 157.594L610.726 155.276L608.408 152.122L611.877 149.572L614.196 152.726L617.35 150.407L619.668 153.561L622.822 151.243L625.372 154.712L622.218 157.03L626.623 163.023L629.461 160.936L627.143 157.782L630.297 155.464L627.979 152.31L644.063 140.487L646.381 143.641L649.535 141.322L651.854 144.476L654.692 142.39L652.374 139.236L658.997 134.367L661.315 137.521L664.154 135.435L659.517 129.127L672.133 119.854L669.814 116.7L672.968 114.381L670.65 111.228L673.804 108.909L671.485 105.755L674.954 103.205L677.273 106.359L683.265 101.954L673.992 89.3389L677.461 86.7888L679.779 89.9427L692.08 80.9012L689.761 77.7473L692.915 75.429L690.597 72.2752L697.22 67.4068L702.088 74.0299L698.934 76.3482L705.658 85.4944L708.811 83.1761L711.13 86.3299L713.968 84.2434L711.65 81.0895L714.804 78.7712L712.485 75.6173L715.639 73.299L711.235 67.3067L708.081 69.625L705.762 66.4711L702.608 68.7895L697.74 62.1664L700.894 59.8481L698.576 56.6942L701.729 54.3759L699.643 51.5374L696.489 53.8558L693.939 50.3865L697.093 48.0682L694.774 44.9143L697.928 42.596L695.61 39.4421L698.764 37.1238L696.446 33.97L709.061 24.6967L706.743 21.5428L710.212 18.9927L712.53 22.1466L715.369 20.0601L713.05 16.9062L729.135 5.08284L731.453 8.23674L734.607 5.91842L736.925 9.07227L743.233 4.43564L745.551 7.58949L748.705 5.27118L753.342 11.5789L756.496 9.26056L759.046 12.7298L755.892 15.0482L758.21 18.202L755.057 20.5203L757.143 23.3588L763.135 18.9539L760.817 15.8001L764.286 13.25L766.605 16.4038L769.759 14.0855L776.945 23.8625L773.476 26.4126L767.484 30.8174L772.12 37.1251L765.813 41.7618L768.131 44.9156L758.354 52.1023L756.036 48.9485L752.882 51.2668L750.564 48.113L738.263 57.1544L740.582 60.3083L737.428 62.6266L739.746 65.7805L736.592 68.0988L738.911 71.2526L735.757 73.5709L740.393 79.8787L737.24 82.197L743.963 91.3432L753.424 84.3882L755.743 87.5421L758.896 85.2238L761.447 88.693L758.293 91.0113L760.611 94.1652L757.457 96.4835L759.544 99.3219L768.69 92.5988L766.372 89.4449L769.525 87.1266L767.439 84.2882L764.285 86.6065L759.417 79.9834L762.571 77.6651L760.252 74.5112L763.406 72.1929L761.088 69.039L764.242 66.7207L761.923 63.5668L765.077 61.2485L762.759 58.0947L766.228 55.5446L768.778 59.0138L765.624 61.3322L767.711 64.1706L770.865 61.8523L773.183 65.0062L782.329 58.283L780.011 55.1291L783.165 52.8108L780.846 49.6569L787.154 45.0203L784.836 41.8665L807.228 25.4065L809.546 28.5603L812.7 26.242L817.569 32.8651L814.415 35.1834L816.733 38.3373L813.579 40.6556L815.666 43.4941L825.127 36.5391L827.678 40.0084L824.524 42.3267L826.842 45.4806L823.688 47.7989L825.775 50.6373L831.767 46.2325L829.449 43.0786L832.918 40.5285L835.236 43.6824L838.075 41.5958L835.756 38.442L838.91 36.1237L836.592 32.9698L843.215 28.1014L845.533 31.2553L848.687 28.9369L858.192 41.8678L855.038 44.1861L859.675 50.4938L853.367 55.1305L855.454 57.9689L858.608 55.6506L863.476 62.2737L860.322 64.592L862.641 67.7459L856.333 72.3825L858.651 75.5364L855.497 77.8547L859.902 83.847L863.056 81.5287L865.374 84.6825L868.528 82.3642L870.847 85.5181L886.616 73.9265L889.166 77.3957L886.012 79.7141L888.33 82.8679L885.177 85.1863L887.495 88.3401L884.341 90.6584L886.659 93.8123L883.505 96.1306L885.824 99.2844L882.67 101.603L894.262 117.372L891.108 119.69L893.426 122.844L890.272 125.163L892.59 128.316L889.437 130.635L891.755 133.789L888.601 136.107L890.919 139.261L887.766 141.579L890.084 144.733L886.93 147.051L889.248 150.205L886.094 152.523L888.413 155.677L885.259 157.996L887.577 161.149L884.423 163.468L886.742 166.622L874.126 175.895L876.445 179.049L873.291 181.367L875.609 184.521L872.455 186.839L874.773 189.993L859.004 201.585L861.322 204.738L858.169 207.057L860.487 210.211L857.333 212.529L859.651 215.683L856.498 218.001L863.452 227.463L860.299 229.781L862.617 232.935L859.463 235.253L861.781 238.407L858.628 240.725L860.946 243.879L857.477 246.429L855.158 243.275L852.005 245.594L849.686 242.44L846.532 244.758L844.214 241.604L841.06 243.923L838.742 240.769L835.588 243.087L833.27 239.933L830.431 242.02L832.749 245.174L829.596 247.492L831.914 250.646L828.76 252.964L831.078 256.118L827.925 258.436L830.243 261.59L827.089 263.909L829.407 267.062L825.938 269.612L823.62 266.459L817.627 270.863L831.537 289.787L828.383 292.105L830.702 295.259L827.233 297.809L824.914 294.655L822.076 296.742L824.394 299.895L821.24 302.214L823.559 305.368L820.405 307.686L822.723 310.84L819.569 313.158L821.887 316.312L818.734 318.63L823.138 324.623L826.292 322.304L828.611 325.458L831.764 323.14L834.083 326.294L837.237 323.975L839.555 327.129L842.709 324.811L845.027 327.965L848.181 325.646L857.686 338.577L854.532 340.896L856.85 344.049L853.697 346.368L858.333 352.675L855.179 354.994L861.902 364.14L865.056 361.822L867.375 364.975L870.529 362.657L873.079 366.126L869.925 368.445L872.243 371.599L869.089 373.917L871.408 377.071L868.254 379.389L870.572 382.543L857.957 391.816L860.275 394.97L857.121 397.288L859.439 400.442L856.286 402.761L858.604 405.914L851.981 410.783L849.663 407.629L843.355 412.266L841.036 409.112L834.729 413.748L832.41 410.594L823.264 417.318L825.582 420.472L818.959 425.34L816.641 422.186L813.487 424.504L811.169 421.351L802.023 428.074L804.341 431.228L801.187 433.546L803.505 436.7L800.352 439.018L802.438 441.857L805.592 439.538L807.91 442.692L811.064 440.374L813.382 443.528L816.536 441.209L818.855 444.363L822.008 442.045L824.327 445.199L827.481 442.88L832.117 449.188L835.271 446.87L839.908 453.177L843.062 450.859L850.248 460.636L847.095 462.954L853.818 472.101L856.972 469.782L859.29 472.936L862.444 470.618L864.762 473.772L867.916 471.453L870.234 474.607L873.388 472.289L875.706 475.443L878.86 473.124L881.179 476.278L884.332 473.96L886.651 477.114L889.805 474.796L892.123 477.949L895.277 475.631L897.595 478.785L903.903 474.148L906.221 477.302L909.375 474.984L914.243 481.607L911.09 483.925L913.408 487.079L910.254 489.397L914.891 495.705L911.737 498.023L914.055 501.177L910.901 503.496L913.22 506.65L910.066 508.968L912.384 512.122L905.761 516.99L903.443 513.836L900.289 516.155L897.97 513.001L885.67 522.042L901.899 544.119L895.276 548.988L892.957 545.834L889.803 548.152L887.485 544.998L884.331 547.317L882.013 544.163L878.859 546.481L876.541 543.327L873.387 545.645L871.069 542.492L867.915 544.81L865.596 541.656L862.443 543.974L860.124 540.82L856.97 543.139L854.652 539.985L851.813 542.071L854.132 545.225L850.978 547.544L853.296 550.698L850.142 553.016L854.547 559.008L857.701 556.69L860.019 559.844L863.173 557.525L870.128 566.987L873.282 564.669L875.6 567.822L878.754 565.504L881.073 568.658L884.226 566.34L886.777 569.809L883.623 572.127L885.941 575.281L882.787 577.599L885.105 580.753L881.952 583.072L884.27 586.225L881.116 588.544L883.434 591.698L880.281 594.016L882.599 597.17L879.445 599.488L881.763 602.642L878.609 604.96L880.928 608.114L877.774 610.432L880.092 613.586L876.938 615.905L879.257 619.059L876.103 621.377L878.421 624.531L875.267 626.849L877.586 630.003L864.97 639.276L867.288 642.43L864.135 644.748L866.453 647.902L863.299 650.22L865.386 653.059L868.539 650.741L875.494 660.202L888.11 650.929L890.428 654.083L893.582 651.764L895.9 654.918L899.054 652.6L901.372 655.754L907.68 651.117L909.998 654.271L913.152 651.953L915.471 655.107L928.086 645.833L930.404 648.987L933.558 646.669L938.427 653.292L935.273 655.61L937.591 658.764L934.437 661.083L936.756 664.236L905.217 687.42L907.535 690.573L904.381 692.892L920.61 714.969L917.456 717.287L919.774 720.441L916.62 722.759L918.939 725.913L915.785 728.231L918.103 731.385L914.949 733.704L917.268 736.857L914.114 739.176L916.432 742.33L913.278 744.648L915.596 747.802L912.443 750.12L914.761 753.274L911.607 755.592L913.925 758.746L910.772 761.064L913.09 764.218L909.936 766.537L912.254 769.69L909.1 772.009L911.419 775.163L908.265 777.481L910.583 780.635L907.429 782.953L928.062 811.022L931.216 808.704L933.535 811.858L936.688 809.54L964.74 847.701L961.586 850.02L963.904 853.173L960.751 855.492L963.069 858.646L959.915 860.964L962.233 864.118L949.303 873.623L946.984 870.469L943.83 872.787L941.512 869.633L938.358 871.952L922.13 849.875L918.976 852.193L916.658 849.039L913.504 851.358L906.549 841.896L903.395 844.214L901.077 841.06L897.923 843.379L886.332 827.609L883.178 829.928L880.859 826.774L877.705 829.092L873.069 822.785L870.23 824.871L872.549 828.025L869.395 830.343L876.35 839.805L873.196 842.123L875.514 845.277L872.36 847.595L900.18 885.442L897.026 887.76L899.345 890.914L896.191 893.232L910.101 912.155L906.947 914.474Z" fill="#298882"/>
</svg>
