<svg width="505" height="59" viewBox="0 0 505 59" fill="none" xmlns="http://www.w3.org/2000/svg">
<path d="M31.368 37.8H26.2L13.484 0.399997H0.904L16.884 48H40.548L56.596 0.399997H43.948L31.368 37.8ZM102.292 10.6H62.648V48H102.292V10.6ZM91.48 19.712V38.888H73.46V19.712H91.48ZM138.609 28.756L152.753 10.6H139.425L130.993 22.228L122.561 10.6H109.233L123.377 28.756L108.825 48H122.153L130.993 35.488L139.833 48H153.161L138.609 28.756ZM199.312 38.888H170.48V34.264H199.312V10.6H159.668V48H199.312V38.888ZM170.48 25.152V19.712H188.5V25.152H170.48ZM218.425 0.399997H207.613V48H218.425V0.399997ZM238.571 10.532H272.027V0.399997H226.671V48H272.027V37.868H238.571V29.232H259.379V19.1H238.571V10.532ZM319.374 0.399997H308.562V10.6H279.73V48H319.374V0.399997ZM290.542 38.888V19.712H308.562V38.888H290.542ZM338.487 0.399997H327.675V7.064H338.487V0.399997ZM338.487 10.6H327.675V48H338.487V10.6ZM357.546 10.6V3.8H346.734V48H370.67V38.888H357.546V19.712H370.194V10.6H357.546ZM417.921 10.6H378.277V48H417.921V10.6ZM407.109 19.712V38.888H389.089V19.712H407.109ZM457.57 10.6H426.222V48H437.034V19.712H457.57V10.6Z" fill="url(#paint0_linear_7_8531)"/>
<defs>
<linearGradient id="paint0_linear_7_8531" x1="-1" y1="65" x2="509" y2="65" gradientUnits="userSpaceOnUse">
<stop stop-color="#A34CE7"/>
<stop offset="0.520833" stop-color="#E056E2"/>
<stop offset="0.979167" stop-color="#E25678"/>
</linearGradient>
</defs>
</svg>
