<svg width="16" height="16" viewBox="0 0 16 16" fill="none" xmlns="http://www.w3.org/2000/svg">
<path d="M13.8931 6.96429C13.8931 6.88571 13.8289 6.82143 13.7503 6.82143H12.6789C12.6003 6.82143 12.536 6.88571 12.536 6.96429C12.536 9.46964 10.5056 11.5 8.00028 11.5C5.49492 11.5 3.46456 9.46964 3.46456 6.96429C3.46456 6.88571 3.40028 6.82143 3.32171 6.82143H2.25028C2.17171 6.82143 2.10742 6.88571 2.10742 6.96429C2.10742 9.97679 4.36814 12.4625 7.28599 12.8143V14.6429H4.69135C4.44671 14.6429 4.25028 14.8982 4.25028 15.2143V15.8571C4.25028 15.9357 4.30028 16 4.36099 16H11.6396C11.7003 16 11.7503 15.9357 11.7503 15.8571V15.2143C11.7503 14.8982 11.5539 14.6429 11.3092 14.6429H8.64314V12.8232C11.5949 12.5018 13.8931 10.0018 13.8931 6.96429ZM8.00028 10C9.67707 10 11.036 8.65714 11.036 7V3C11.036 1.34286 9.67707 0 8.00028 0C6.32349 0 4.96456 1.34286 4.96456 3V7C4.96456 8.65714 6.32349 10 8.00028 10ZM6.32171 3C6.32171 2.09643 7.06992 1.35714 8.00028 1.35714C8.93064 1.35714 9.67885 2.09643 9.67885 3V7C9.67885 7.90357 8.93064 8.64286 8.00028 8.64286C7.06992 8.64286 6.32171 7.90357 6.32171 7V3Z" fill="white" fill-opacity="0.9"/>
</svg>
