<svg width="16" height="16" viewBox="0 0 16 16" fill="none" xmlns="http://www.w3.org/2000/svg">
<path fill-rule="evenodd" clip-rule="evenodd" d="M8.40893 0.541814C8.03143 0.195755 7.53248 0.000147386 7.01023 0.000618439C6.48945 -0.012362 5.989 0.17951 5.61581 0.527399C5.24107 0.876738 5.02447 1.35476 5.00557 1.85561C5.00531 1.86244 5.0052 1.86928 5.00523 1.87612C5.00644 2.12443 5.05902 2.37043 5.16034 2.59891C5.24735 2.79513 5.36899 2.97539 5.52022 3.13103C4.30001 2.83328 3.10034 2.44738 1.93086 1.97522L1.84048 1.9378C1.82281 1.92766 1.80438 1.91842 1.78526 1.91017C1.50324 1.78848 1.18557 1.76855 0.889104 1.85499C0.593149 1.94127 0.342508 2.12631 0.176391 2.37177C0.171178 2.37947 0.166186 2.38731 0.16142 2.39527C0.0747682 2.54002 0.0219343 2.70073 0.00552036 2.86596C-0.0108925 3.03119 0.00936487 3.19828 0.0653329 3.35572C0.121315 3.51319 0.212077 3.65826 0.332751 3.77986C0.451893 3.89991 0.597456 3.99428 0.760178 4.05478L0.949001 4.12852C1.98333 4.5445 3.04128 4.89957 4.11739 5.19188C4.60442 7.15876 5.73828 9.10336 6.68479 10.1382V14.4956C6.68479 14.5066 6.68517 14.5176 6.68592 14.5285C6.7128 14.9205 6.88798 15.2923 7.18305 15.5672C7.47883 15.8427 7.87344 16 8.28821 16C8.70298 16 9.09759 15.8427 9.39337 15.5672C9.68844 15.2923 9.86362 14.9205 9.89049 14.5286C9.89125 14.5176 9.89162 14.5066 9.89162 14.4956V9.69015L14.4278 7.24872C14.611 7.15583 14.7714 7.02747 14.9002 6.87278C15.0309 6.71584 15.1263 6.53495 15.1818 6.34195C15.2373 6.14897 15.2519 5.94706 15.225 5.74866C15.1981 5.55024 15.1301 5.35846 15.0242 5.18552L15.0166 5.17343L15.0154 5.17165C14.7926 4.83307 14.4458 4.58441 14.0392 4.4829C13.8642 4.4392 13.6738 4.4121 13.4624 4.4692C13.3273 4.50573 13.198 4.57795 13.1137 4.62507L13.1086 4.62789C13.0935 4.63636 13.0798 4.64402 13.0674 4.65074L13.0664 4.65131L12.6182 4.89042L12.6175 4.8856C12.5897 4.69777 12.5157 4.51791 12.4004 4.36214C12.285 4.20626 12.131 4.07865 11.9504 3.99273C11.775 3.90933 11.5809 3.86831 11.3845 3.87417C10.1877 3.85887 8.99575 3.76147 7.81692 3.58358C8.0329 3.49283 8.23293 3.36609 8.40765 3.20771C8.59657 3.03652 8.74615 2.82913 8.84791 2.59983C8.94968 2.37052 9.00189 2.12342 9.00189 1.87418C9.00189 1.62495 8.94968 1.37785 8.84791 1.14853C8.74636 0.919712 8.59731 0.712805 8.40893 0.541814ZM6.35976 1.25013C6.53364 1.08804 6.75935 1.00529 6.98677 1.0121C6.99339 1.0123 7.00002 1.01238 7.00664 1.01234C7.15524 1.0115 7.30237 1.04508 7.43669 1.11052C7.52112 1.15165 7.60049 1.20537 7.67199 1.27103L7.67266 1.27164L7.67461 1.27341C7.75597 1.34711 7.82249 1.43838 7.86854 1.54214C7.91461 1.64595 7.93876 1.75912 7.93876 1.87418C7.93876 1.9686 7.9225 2.06174 7.89121 2.14948C7.88437 2.16867 7.87681 2.1876 7.86854 2.20622C7.8225 2.30997 7.75582 2.40139 7.67444 2.47511C7.48692 2.64513 7.24738 2.7356 7.00349 2.7356C6.76 2.7356 6.52086 2.64543 6.33349 2.47597C6.25233 2.4014 6.18596 2.30961 6.13982 2.20555C6.09483 2.10409 6.07036 1.99386 6.06845 1.88156C6.0804 1.63674 6.18744 1.41077 6.35976 1.25013ZM1.20053 2.82231C1.2355 2.81212 1.27194 2.81098 1.30721 2.81889C1.31855 2.82454 1.33017 2.82983 1.34203 2.83475L1.50897 2.90387L1.51337 2.90565C4.65066 4.17263 7.99837 4.84444 11.3842 4.88596C11.3948 4.88609 11.4054 4.88592 11.416 4.88545C11.4353 4.88459 11.4554 4.88835 11.4751 4.89771C11.4949 4.90715 11.5149 4.92263 11.5314 4.94494C11.548 4.96738 11.5601 4.99537 11.5647 5.0267C11.5688 5.05404 11.5668 5.08174 11.5594 5.10757C11.5426 5.14213 11.5181 5.16846 11.4915 5.18572C11.4627 5.20442 11.4314 5.21237 11.4016 5.21159H11.3831C10.4856 5.19678 9.60295 5.13644 8.71906 5.03921L8.71325 5.03863C8.61343 5.0287 8.51315 5.04236 8.42098 5.07773C8.32892 5.11306 8.24887 5.16848 8.18606 5.23752C8.1233 5.3065 8.0792 5.38738 8.05539 5.47304C8.0316 5.55865 8.0283 5.64822 8.0456 5.73507C8.05056 5.75997 8.05748 5.78448 8.06631 5.80839C8.20705 6.18992 8.50145 6.46754 8.80116 6.67924C9.09752 6.88858 9.45382 7.07049 9.78931 7.23831C9.87989 7.28754 9.98347 7.31445 10.0905 7.31445C10.2011 7.31445 10.3081 7.28568 10.4008 7.23322L13.5902 5.53169L13.5912 5.53113L13.5941 5.52957C13.6225 5.51414 13.6453 5.50153 13.6646 5.49086L13.6647 5.49079C13.6938 5.47473 13.7137 5.4637 13.7338 5.45329C13.7431 5.45521 13.7549 5.45785 13.7695 5.46149C13.9029 5.49481 14.0257 5.57776 14.1097 5.70159C14.141 5.75479 14.162 5.81479 14.1706 5.87815C14.1796 5.94424 14.1746 6.01138 14.1564 6.07498C14.1381 6.13854 14.1072 6.19615 14.0669 6.24455C14.0267 6.29288 13.9782 6.3307 13.9256 6.35697L13.9128 6.3636L9.09838 8.95478C8.93161 9.04454 8.8285 9.21276 8.8285 9.39509V14.4767C8.81514 14.6211 8.74933 14.7514 8.64966 14.8442C8.54754 14.9393 8.41798 14.9883 8.28821 14.9883C8.15844 14.9883 8.02887 14.9393 7.92675 14.8442C7.82709 14.7514 7.76128 14.6211 7.74792 14.4767V9.94385C7.74792 9.81538 7.69655 9.69171 7.60424 9.59796C6.73471 8.7149 5.54473 6.73147 5.10656 4.76609C5.09401 4.66813 5.05461 4.57309 4.98954 4.49169C4.90937 4.39138 4.79391 4.31693 4.6595 4.28576C3.53789 3.99242 2.43597 3.62829 1.36036 3.19558L1.15912 3.11685L1.14764 3.11266C1.1338 3.1076 1.11917 3.09881 1.10568 3.08522C1.09209 3.07153 1.08018 3.05343 1.07239 3.0315C1.06457 3.00952 1.06152 2.98538 1.06392 2.96118C1.06587 2.9416 1.07126 2.92327 1.07919 2.90706C1.1127 2.86331 1.15628 2.83522 1.20053 2.82231ZM10.0846 6.24209C10.0322 6.21528 9.9814 6.18895 9.93225 6.16295C10.0219 6.16895 10.1116 6.17455 10.2015 6.17974L10.0846 6.24209Z" fill="white"/>
</svg>
