<svg width="16" height="16" viewBox="0 0 16 16" fill="none" xmlns="http://www.w3.org/2000/svg">
<g clip-path="url(#clip0_5403_26802)">
<path d="M4 6.375C4 6.60233 4.09031 6.82035 4.25105 6.98109C4.4118 7.14184 4.62981 7.23214 4.85714 7.23214C5.08447 7.23214 5.30249 7.14184 5.46323 6.98109C5.62398 6.82035 5.71429 6.60233 5.71429 6.375C5.71429 6.14767 5.62398 5.92965 5.46323 5.76891C5.30249 5.60816 5.08447 5.51786 4.85714 5.51786C4.62981 5.51786 4.4118 5.60816 4.25105 5.76891C4.09031 5.92965 4 6.14767 4 6.375ZM10.2857 6.375C10.2857 6.60233 10.376 6.82035 10.5368 6.98109C10.6975 7.14184 10.9155 7.23214 11.1429 7.23214C11.3702 7.23214 11.5882 7.14184 11.7489 6.98109C11.9097 6.82035 12 6.60233 12 6.375C12 6.14767 11.9097 5.92965 11.7489 5.76891C11.5882 5.60816 11.3702 5.51786 11.1429 5.51786C10.9155 5.51786 10.6975 5.60816 10.5368 5.76891C10.376 5.92965 10.2857 6.14767 10.2857 6.375ZM8 0C3.58214 0 0 3.58214 0 8C0 12.4179 3.58214 16 8 16C12.4179 16 16 12.4179 16 8C16 3.58214 12.4179 0 8 0ZM12.6964 12.6964C12.0857 13.3071 11.375 13.7857 10.5839 14.1214C9.76786 14.4679 8.89821 14.6429 8 14.6429C7.10179 14.6429 6.23214 14.4679 5.41429 14.1214C4.62441 13.7878 3.90693 13.3039 3.30179 12.6964C2.69107 12.0857 2.2125 11.375 1.87679 10.5839C1.53214 9.76786 1.35714 8.89821 1.35714 8C1.35714 7.10179 1.53214 6.23214 1.87857 5.41429C2.21216 4.62441 2.69614 3.90693 3.30357 3.30179C3.91429 2.69107 4.625 2.2125 5.41607 1.87679C6.23214 1.53214 7.10179 1.35714 8 1.35714C8.89821 1.35714 9.76786 1.53214 10.5857 1.87857C11.3756 2.21216 12.0931 2.69614 12.6982 3.30357C13.3089 3.91429 13.7875 4.625 14.1232 5.41607C14.4679 6.23214 14.6429 7.10179 14.6429 8C14.6429 8.89821 14.4679 9.76786 14.1214 10.5857C13.7882 11.3753 13.3042 12.0922 12.6964 12.6964Z" fill="white" fill-opacity="0.9"/>
<path d="M10.8571 9.52503C10.7785 11.0304 9.52676 12.2322 7.99998 12.2322C6.47319 12.2322 5.22141 11.0304 5.14284 9.52503C5.14187 9.50568 5.14484 9.48633 5.15159 9.46817C5.15833 9.45 5.1687 9.4334 5.18207 9.41937C5.19543 9.40534 5.21151 9.39417 5.22932 9.38655C5.24714 9.37893 5.26632 9.37501 5.28569 9.37503L6.14462 9.37503C6.21962 9.37503 6.28391 9.43218 6.28926 9.50718C6.35534 10.3911 7.09819 11.0893 7.99998 11.0893C8.90176 11.0893 9.64284 10.3911 9.71069 9.50718C9.71605 9.43218 9.78034 9.37503 9.85534 9.37503L10.7143 9.37503C10.7336 9.37501 10.7528 9.37893 10.7706 9.38655C10.7885 9.39417 10.8045 9.40534 10.8179 9.41937C10.8313 9.4334 10.8416 9.45 10.8484 9.46817C10.8551 9.48633 10.8581 9.50568 10.8571 9.52503Z" fill="white" fill-opacity="0.9"/>
</g>
<defs>
<clipPath id="clip0_5403_26802">
<rect width="16" height="16" fill="white"/>
</clipPath>
</defs>
</svg>
