<svg width="16" height="17" viewBox="0 0 16 17" fill="none" xmlns="http://www.w3.org/2000/svg">
<path d="M15.0003 8.49833H14.0003C13.9217 8.49833 13.8574 8.56261 13.8574 8.64118V14.3555H2.14314V2.64118H7.85742C7.93599 2.64118 8.00028 2.5769 8.00028 2.49833V1.49833C8.00028 1.41975 7.93599 1.35547 7.85742 1.35547H1.42885C1.11278 1.35547 0.857422 1.61083 0.857422 1.9269V15.0698C0.857422 15.3858 1.11278 15.6412 1.42885 15.6412H14.5717C14.8878 15.6412 15.1431 15.3858 15.1431 15.0698V8.64118C15.1431 8.56261 15.0789 8.49833 15.0003 8.49833Z" fill="white" fill-opacity="0.45"/>
<path d="M5.21266 8.90725L5.17873 11.0305C5.17695 11.1894 5.30552 11.3198 5.46445 11.3198H5.47159L7.57873 11.268C7.61445 11.2662 7.65016 11.2519 7.67516 11.2269L15.1019 3.81618C15.1573 3.76083 15.1573 3.66975 15.1019 3.6144L12.8823 1.39654C12.8537 1.36797 12.818 1.35547 12.7805 1.35547C12.743 1.35547 12.7073 1.36975 12.6787 1.39654L5.25373 8.80725C5.22794 8.83423 5.21327 8.86994 5.21266 8.90725ZM6.34659 9.32868L12.7805 2.90904L13.5877 3.7144L7.15016 10.1376L6.33409 10.1573L6.34659 9.32868Z" fill="white" fill-opacity="0.45"/>
</svg>
