<svg width="16" height="17" viewBox="0 0 16 17" fill="none" xmlns="http://www.w3.org/2000/svg">
<path d="M14.187 12.9906C13.8501 12.1927 13.3613 11.468 12.7477 10.8567C12.136 10.2437 11.4113 9.75492 10.6138 9.41741C10.6066 9.41384 10.5995 9.41206 10.5923 9.40848C11.7048 8.60491 12.4281 7.29598 12.4281 5.8192C12.4281 3.37277 10.4459 1.39062 7.99949 1.39062C5.55306 1.39062 3.57092 3.37277 3.57092 5.8192C3.57092 7.29598 4.29413 8.60491 5.40663 9.41027C5.39949 9.41384 5.39234 9.41563 5.3852 9.4192C4.5852 9.7567 3.86734 10.2406 3.25127 10.8585C2.63825 11.4702 2.14949 12.1949 1.81199 12.9924C1.48042 13.7732 1.3016 14.6104 1.2852 15.4585C1.28472 15.4775 1.28807 15.4965 1.29503 15.5143C1.302 15.532 1.31245 15.5482 1.32576 15.5618C1.33907 15.5755 1.35498 15.5863 1.37255 15.5937C1.39012 15.6011 1.40899 15.6049 1.42806 15.6049H2.49949C2.57806 15.6049 2.64056 15.5424 2.64234 15.4656C2.67806 14.0871 3.23163 12.796 4.2102 11.8174C5.2227 10.8049 6.56734 10.2478 7.99949 10.2478C9.43163 10.2478 10.7763 10.8049 11.7888 11.8174C12.7673 12.796 13.3209 14.0871 13.3566 15.4656C13.3584 15.5442 13.4209 15.6049 13.4995 15.6049H14.5709C14.59 15.6049 14.6089 15.6011 14.6264 15.5937C14.644 15.5863 14.6599 15.5755 14.6732 15.5618C14.6865 15.5482 14.697 15.532 14.7039 15.5143C14.7109 15.4965 14.7142 15.4775 14.7138 15.4585C14.6959 14.6049 14.5191 13.7746 14.187 12.9906V12.9906ZM7.99949 8.89063C7.17984 8.89063 6.40841 8.57098 5.82806 7.99063C5.2477 7.41027 4.92806 6.63884 4.92806 5.8192C4.92806 4.99955 5.2477 4.22813 5.82806 3.64777C6.40841 3.06741 7.17984 2.74777 7.99949 2.74777C8.81913 2.74777 9.59056 3.06741 10.1709 3.64777C10.7513 4.22813 11.0709 4.99955 11.0709 5.8192C11.0709 6.63884 10.7513 7.41027 10.1709 7.99063C9.59056 8.57098 8.81913 8.89063 7.99949 8.89063Z" fill="white" fill-opacity="0.45"/>
</svg>
