<svg width="16" height="16" viewBox="0 0 16 16" fill="none" xmlns="http://www.w3.org/2000/svg">
<path d="M1 8.03587C1 8.43117 1.15703 8.81027 1.43655 9.08979C1.71606 9.3693 2.09517 9.52633 2.49046 9.52633C2.88576 9.52633 3.26486 9.3693 3.54438 9.08979C3.82389 8.81027 3.98092 8.43117 3.98092 8.03587C3.98092 7.84014 3.94237 7.64633 3.86747 7.4655C3.79257 7.28467 3.68278 7.12036 3.54438 6.98196C3.40598 6.84355 3.24167 6.73377 3.06084 6.65886C2.88001 6.58396 2.68619 6.54541 2.49046 6.54541C2.29473 6.54541 2.10092 6.58396 1.92009 6.65886C1.73926 6.73377 1.57495 6.84355 1.43655 6.98196C1.29814 7.12036 1.18836 7.28467 1.11345 7.4655C1.03855 7.64633 1 7.84014 1 8.03587Z" fill="white"/>
<path d="M6.48096 8.03587C6.48096 8.43117 6.63799 8.81027 6.9175 9.08979C7.19702 9.3693 7.57613 9.52633 7.97142 9.52633C8.36672 9.52633 8.74582 9.3693 9.02534 9.08979C9.30485 8.81027 9.46188 8.43117 9.46188 8.03587C9.46188 7.84014 9.42333 7.64633 9.34843 7.4655C9.27353 7.28467 9.16374 7.12036 9.02534 6.98196C8.88693 6.84355 8.72263 6.73377 8.5418 6.65886C8.36096 6.58396 8.16715 6.54541 7.97142 6.54541C7.77569 6.54541 7.58188 6.58396 7.40104 6.65886C7.22021 6.73377 7.05591 6.84355 6.9175 6.98196C6.7791 7.12036 6.66931 7.28467 6.59441 7.4655C6.51951 7.64633 6.48096 7.84014 6.48096 8.03587Z" fill="white"/>
<path d="M11.9618 8.03587C11.9618 8.43117 12.1188 8.81027 12.3983 9.08979C12.6779 9.3693 13.057 9.52633 13.4523 9.52633C13.8475 9.52633 14.2267 9.3693 14.5062 9.08979C14.7857 8.81027 14.9427 8.43117 14.9427 8.03587C14.9427 7.64058 14.7857 7.26147 14.5062 6.98196C14.2267 6.70244 13.8475 6.54541 13.4523 6.54541C13.057 6.54541 12.6779 6.70244 12.3983 6.98196C12.1188 7.26147 11.9618 7.64058 11.9618 8.03587Z" fill="white"/>
</svg>
