<svg width="18" height="16" viewBox="0 0 18 16" fill="none" xmlns="http://www.w3.org/2000/svg">
<path fill-rule="evenodd" clip-rule="evenodd" d="M9.28766 14.7235C8.67638 14.7235 8.02915 14.6516 7.41788 14.4718C6.45888 14.1978 5.5851 13.732 4.84293 13.1093C4.8339 13.1113 4.82489 13.1133 4.81591 13.1153C3.42629 13.423 1.03102 13.787 0.226412 12.2784C-0.169119 11.5593 -0.241034 10.3007 1.6647 8.25118C1.89319 7.99413 2.14436 7.73709 2.41822 7.49806C2.4483 7.00331 2.53247 6.50845 2.67151 6.02182C3.17491 4.25991 4.32555 2.78566 5.90767 1.88673C8.04199 0.680375 10.5355 0.746279 12.5385 1.83336C12.8926 1.73333 13.2296 1.65524 13.5666 1.59908C16.2993 1.02376 17.3781 1.77886 17.7736 2.46205C17.9068 2.70422 18.0033 3.00756 17.9999 3.38167C18.0059 4.12146 17.6199 5.14361 16.3353 6.52523L16.0549 6.80566C16.2032 7.76812 16.1429 8.76287 15.8679 9.72543C15.3644 11.4873 14.2138 12.9616 12.6317 13.8605C11.5889 14.4358 10.4383 14.7235 9.28766 14.7235ZM14.7023 8.04092C14.6848 8.45993 14.6182 8.88007 14.5015 9.29394C14.1059 10.6963 13.207 11.8469 11.9485 12.5661C10.69 13.2852 9.21574 13.465 7.81341 13.0695C7.39598 12.9517 7.00085 12.7894 6.63276 12.5862C9.39899 11.6234 12.4538 9.89704 14.7023 8.04092ZM16.4548 3.0209C16.153 2.85605 15.477 2.68241 14.0637 2.95834C14.5218 3.40605 14.9253 3.92554 15.2566 4.51162C15.3756 4.72107 15.4826 4.93556 15.5776 5.15418C16.5332 4.0167 16.6129 3.37695 16.5151 3.1812C16.4889 3.12895 16.4689 3.07519 16.4548 3.0209ZM14.4788 6.2746C14.3625 5.88971 14.2019 5.51561 13.9981 5.15885C13.5648 4.38749 12.9733 3.76518 12.2881 3.30743L11.8699 3.05461C10.2832 2.19068 8.30407 2.14152 6.62682 3.07332C5.36831 3.79247 4.46938 4.9431 4.07385 6.34544C3.64236 7.78373 3.82214 9.25798 4.54129 10.5165C4.73903 10.8625 4.9694 11.1814 5.22864 11.4701C8.60578 10.5165 11.8699 8.46919 14.4788 6.2746ZM1.62274 11.7136C1.90465 11.8671 2.52748 11.9869 3.65338 11.8183C3.52093 11.6314 3.3972 11.437 3.28278 11.2356C2.94956 10.6492 2.71022 10.0232 2.56658 9.3778C1.60788 10.4579 1.3963 11.1301 1.41869 11.4339C1.44474 11.4727 1.46704 11.5146 1.4849 11.5593C1.50514 11.6132 1.55069 11.6659 1.62274 11.7136Z" fill="white" fill-opacity="0.9"/>
</svg>
