<svg width="1536" height="1683" viewBox="0 0 1536 1683" fill="none" xmlns="http://www.w3.org/2000/svg">
<g opacity="0.35">
<path d="M899.5 599H1048V561.5H1123.5V487.5H1235V449.5" stroke="white" stroke-width="4"/>
<path d="M937.5 152V337H863.5L862 450H639.5V301H602V226.5H527.5V189H489.5V152H452.5V2H602V78H676.5V115H825.5V152H937.5ZM937.5 152H975V230H1049.5V187.5" stroke="white" stroke-width="4"/>
<path d="M1049 189.5L1161 189.5V301H1198V375.5H1235V450H1385V525H1459V600H1347.5V711H1385V748H1496.5V861H1422V898H1459.5V935H1496.5V1009.5H1459V1047" stroke="white" stroke-width="4"/>
<path d="M1161 189.5H1123V152H1160.5V77.5H1347V71H1385V77.5H1496.5V189H1465V226H1459V301H1384.5V412.5H1347.5V450H1235V375.5H1198V301H1161V189.5Z" stroke="white" stroke-width="4"/>
<path d="M862 449.5V562.5H899.5V1084H602L602 1236H713.5V1571.5" stroke="white" stroke-width="4"/>
<path d="M862 449.5V562.5H899.5V1084H602L602 1236H713.5V1571.5" stroke="white" stroke-width="4"/>
<path d="M601.5 1159L489.5 1158.5V1122H415V1159H303.5V1234H228.5V1346H191.5V1420.5H154V1457.5H116.5V1532H79V1607H2V1681H154V1644H229V1607H303.5V1569H378V1531.5H415.5L415 1495H527V1457.5H676V1495H713" stroke="white" stroke-width="4"/>
<path d="M1123.5 561.5V711H1235V1009.5H1161V1047H1461" stroke="white" stroke-width="4"/>
<path d="M897 1084H973.5V1196H1010.5H1049.5V1270.5H1086.5V1682.5" stroke="white" stroke-width="4"/>
<path d="M1161 1047.5V1270.5H1085.5" stroke="white" stroke-width="4"/>
<path d="M676.5 1084V1047H639.5V823.5H677V525H639.5V450" stroke="white" stroke-width="4"/>
<path d="M714 1569H751.399V1643.59H862.599V1606.69H899.999V1569.28H937.897V1606.19H1048.6V1681H1085" stroke="white" stroke-width="4"/>
<path d="M1459.44 1048V1122.38H1534V1345.53H1422.41V1419.91M1422.41 1419.91H1496.97V1494.29H1422.41V1419.91ZM1422.41 1419.91H1235.27V1494.29H1161.21V1606.12H1123.53V1681H1085" stroke="white" stroke-width="4"/>
</g>
</svg>
