<svg width="20" height="21" viewBox="0 0 20 21" fill="none" xmlns="http://www.w3.org/2000/svg">
<rect y="0.976562" width="20" height="20" rx="1" fill="#6692F4"/>
<path d="M11.4621 9.48429C12.4009 10.3243 13.2451 11.0861 13.9945 11.7697C14.3157 12.0579 14.6287 12.3441 14.9334 12.6282C15.2381 12.9124 15.5099 13.1677 15.7487 13.3941C15.9876 13.6206 16.179 13.81 16.3232 13.9624C16.4673 14.1148 16.5393 14.2033 16.5393 14.228V14.9692C16.5393 15.0021 16.4673 14.996 16.3232 14.9507C16.179 14.9054 15.9876 14.8354 15.7487 14.7407C15.5099 14.646 15.2381 14.5348 14.9334 14.4071C14.6287 14.2795 14.3157 14.1456 13.9945 14.0056C13.2451 13.6762 12.4009 13.2933 11.4621 12.8568V15.1916C11.6762 15.348 11.878 15.5004 12.0674 15.6486C12.2321 15.7722 12.3968 15.8937 12.5615 16.0131C12.7263 16.1325 12.8539 16.2251 12.9445 16.291C13.0516 16.3651 13.1133 16.4413 13.1298 16.5196C13.1463 16.5978 13.1545 16.6904 13.1545 16.7975V17.2175C13.1545 17.2834 13.0866 17.3266 12.9507 17.3472C12.8148 17.3678 12.6521 17.3328 12.4627 17.2422C12.3721 17.1928 12.2074 17.1187 11.9686 17.0199C11.7297 16.921 11.4744 16.814 11.2027 16.6987C10.9309 16.5834 10.6694 16.4763 10.4182 16.3775C10.167 16.2787 9.97968 16.2045 9.85614 16.1551C9.83967 16.1551 9.82526 16.1531 9.81291 16.149C9.80055 16.1448 9.78614 16.1428 9.76967 16.1428C9.7532 16.1428 9.73879 16.1448 9.72643 16.149C9.71408 16.1531 9.69967 16.1551 9.6832 16.1551C9.55966 16.2045 9.3723 16.2787 9.12112 16.3775C8.86993 16.4763 8.60845 16.5834 8.33667 16.6987C8.0649 16.814 7.8096 16.921 7.57076 17.0199C7.33193 17.1187 7.16722 17.1928 7.07663 17.2422C6.88721 17.3328 6.72455 17.3678 6.58867 17.3472C6.45278 17.3266 6.38484 17.2834 6.38484 17.2175V16.7975C6.38484 16.6904 6.39307 16.5978 6.40954 16.5196C6.42601 16.4413 6.48778 16.3651 6.59484 16.291C6.68543 16.2251 6.81309 16.1325 6.9778 16.0131C7.14251 15.8937 7.30722 15.7722 7.47194 15.6486C7.66135 15.5004 7.86313 15.348 8.07725 15.1916V12.8568C7.13016 13.2933 6.28189 13.6762 5.53245 14.0056C5.21126 14.1456 4.90037 14.2795 4.59977 14.4071C4.29917 14.5348 4.02945 14.646 3.79062 14.7407C3.55179 14.8354 3.36031 14.9054 3.21618 14.9507C3.07206 14.996 3 15.0021 3 14.9692V14.228C3 14.2033 3.07206 14.1148 3.21618 13.9624C3.36031 13.81 3.55179 13.6206 3.79062 13.3941C4.02945 13.1677 4.29917 12.9124 4.59977 12.6282C4.90037 12.3441 5.21126 12.0579 5.53245 11.7697C6.28189 11.0861 7.13016 10.3243 8.07725 9.48429V6.68006C8.07725 6.40005 8.11843 6.16328 8.20079 5.96974C8.28314 5.77621 8.38609 5.61767 8.50962 5.49414C8.63316 5.3706 8.76698 5.27589 8.91111 5.21001C9.05523 5.14412 9.19112 5.09471 9.31877 5.06177C9.44642 5.02882 9.55143 5.01029 9.63378 5.00618C9.71614 5.00206 9.76143 5 9.76967 5H9.8932C9.9838 5.00824 10.0929 5.02882 10.2206 5.06177C10.3482 5.09471 10.4841 5.14412 10.6282 5.21001C10.7724 5.27589 10.9062 5.3706 11.0297 5.49414C11.1533 5.61767 11.2562 5.77621 11.3386 5.96974C11.4209 6.16328 11.4621 6.40005 11.4621 6.68006V9.48429Z" fill="white"/>
</svg>
