<svg width="22" height="23" viewBox="0 0 22 23" fill="none" xmlns="http://www.w3.org/2000/svg">
<rect y="0.976562" width="22" height="22" rx="1" fill="#C85DDA"/>
<g clip-path="url(#clip0_3814_18948)">
<path d="M12.4621 10.4609C13.4009 11.3009 14.2451 12.0627 14.9945 12.7462C15.3157 13.0345 15.6287 13.3207 15.9334 13.6048C16.2381 13.8889 16.5099 14.1442 16.7487 14.3707C16.9876 14.5972 17.179 14.7866 17.3232 14.939C17.4673 15.0913 17.5393 15.1799 17.5393 15.2046V15.9458C17.5393 15.9787 17.4673 15.9725 17.3232 15.9272C17.179 15.8819 16.9876 15.8119 16.7487 15.7172C16.5099 15.6225 16.2381 15.5113 15.9334 15.3837C15.6287 15.256 15.3157 15.1222 14.9945 14.9822C14.2451 14.6528 13.4009 14.2698 12.4621 13.8333V16.1681C12.6762 16.3246 12.878 16.477 13.0674 16.6252C13.2321 16.7487 13.3968 16.8702 13.5615 16.9896C13.7263 17.109 13.8539 17.2017 13.9445 17.2676C14.0516 17.3417 14.1133 17.4179 14.1298 17.4961C14.1463 17.5744 14.1545 17.667 14.1545 17.7741V18.1941C14.1545 18.26 14.0866 18.3032 13.9507 18.3238C13.8148 18.3444 13.6521 18.3094 13.4627 18.2188C13.3721 18.1694 13.2074 18.0953 12.9686 17.9964C12.7297 17.8976 12.4744 17.7905 12.2027 17.6752C11.9309 17.5599 11.6694 17.4529 11.4182 17.3541C11.167 17.2552 10.9797 17.1811 10.8561 17.1317C10.8397 17.1317 10.8253 17.1296 10.8129 17.1255C10.8006 17.1214 10.7861 17.1193 10.7697 17.1193C10.7532 17.1193 10.7388 17.1214 10.7264 17.1255C10.7141 17.1296 10.6997 17.1317 10.6832 17.1317C10.5597 17.1811 10.3723 17.2552 10.1211 17.3541C9.86993 17.4529 9.60845 17.5599 9.33667 17.6752C9.0649 17.7905 8.8096 17.8976 8.57076 17.9964C8.33193 18.0953 8.16722 18.1694 8.07663 18.2188C7.88721 18.3094 7.72455 18.3444 7.58867 18.3238C7.45278 18.3032 7.38484 18.26 7.38484 18.1941V17.7741C7.38484 17.667 7.39307 17.5744 7.40954 17.4961C7.42601 17.4179 7.48778 17.3417 7.59484 17.2676C7.68543 17.2017 7.81309 17.109 7.9778 16.9896C8.14251 16.8702 8.30722 16.7487 8.47194 16.6252C8.66135 16.477 8.86313 16.3246 9.07725 16.1681V13.8333C8.13016 14.2698 7.28189 14.6528 6.53245 14.9822C6.21126 15.1222 5.90037 15.256 5.59977 15.3837C5.29917 15.5113 5.02945 15.6225 4.79062 15.7172C4.55179 15.8119 4.36031 15.8819 4.21618 15.9272C4.07206 15.9725 4 15.9787 4 15.9458V15.2046C4 15.1799 4.07206 15.0913 4.21618 14.939C4.36031 14.7866 4.55179 14.5972 4.79062 14.3707C5.02945 14.1442 5.29917 13.8889 5.59977 13.6048C5.90037 13.3207 6.21126 13.0345 6.53245 12.7462C7.28189 12.0627 8.13016 11.3009 9.07725 10.4609V7.65663C9.07725 7.37662 9.11843 7.13984 9.20079 6.94631C9.28314 6.75277 9.38609 6.59423 9.50962 6.4707C9.63316 6.34716 9.76698 6.25246 9.91111 6.18657C10.0552 6.12069 10.1911 6.07127 10.3188 6.03833C10.4464 6.00539 10.5514 5.98686 10.6338 5.98274C10.7161 5.97862 10.7614 5.97656 10.7697 5.97656H10.8932C10.9838 5.9848 11.0929 6.00539 11.2206 6.03833C11.3482 6.07127 11.4841 6.12069 11.6282 6.18657C11.7724 6.25246 11.9062 6.34716 12.0297 6.4707C12.1533 6.59423 12.2562 6.75277 12.3386 6.94631C12.4209 7.13984 12.4621 7.37662 12.4621 7.65663V10.4609Z" fill="white"/>
</g>
<defs>
<clipPath id="clip0_3814_18948">
<rect width="14" height="14" fill="white" transform="translate(4 4.97656)"/>
</clipPath>
</defs>
</svg>
