<svg width="26" height="26" viewBox="0 0 26 26" fill="none" xmlns="http://www.w3.org/2000/svg">
<g clip-path="url(#clip0_2604_60535)">
<path d="M16.8092 9.19103C16.4647 8.85526 16.0805 8.56276 15.6652 8.32003L13.7282 10.244C14.2155 10.401 14.6603 10.6678 15.0282 11.024C15.6593 11.6575 16.0136 12.5153 16.0136 13.4095C16.0136 14.3037 15.6593 15.1615 15.0282 15.795L8.35915 22.412C7.71446 22.9819 6.8767 23.2845 6.01664 23.258C5.15659 23.2315 4.33901 22.8781 3.73057 22.2696C3.12213 21.6612 2.76865 20.8436 2.74219 19.9835C2.71573 19.1235 3.01828 18.2857 3.58816 17.641L5.98016 15.236C5.6119 14.2034 5.46141 13.1057 5.53816 12.012L1.74216 15.808C0.695765 16.9432 0.128965 18.4391 0.160367 19.9827C0.191768 21.5263 0.818938 22.9979 1.91063 24.0896C3.00232 25.1812 4.47393 25.8084 6.0175 25.8398C7.56107 25.8712 9.05697 25.3044 10.1922 24.258L16.8092 17.641C17.9285 16.5198 18.5572 15.0003 18.5572 13.416C18.5572 11.8317 17.9285 10.3122 16.8092 9.19103Z" fill="white"/>
<path d="M24.2581 1.74203C23.1369 0.622699 21.6173 -0.00597763 20.0331 -0.00597763C18.4488 -0.00597763 16.9292 0.622699 15.8081 1.74203L9.19107 8.35903C8.07174 9.48021 7.44306 10.9997 7.44306 12.584C7.44306 14.1683 8.07174 15.6878 9.19107 16.809C9.53556 17.1448 9.91973 17.4373 10.3351 17.68L12.2721 15.743C11.7847 15.5861 11.3399 15.3192 10.9721 14.963C10.6576 14.6491 10.4081 14.2762 10.2379 13.8658C10.0677 13.4553 9.98011 13.0154 9.98011 12.571C9.98011 12.1267 10.0677 11.6867 10.2379 11.2763C10.4081 10.8658 10.6576 10.493 10.9721 10.179L17.5891 3.56203C18.2338 2.99215 19.0715 2.6896 19.9316 2.71606C20.7916 2.74252 21.6092 3.096 22.2177 3.70444C22.8261 4.31288 23.1796 5.13046 23.206 5.99051C23.2325 6.85057 22.9299 7.68834 22.3601 8.33303L20.0331 10.738C20.4027 11.7748 20.5532 12.8771 20.4751 13.975L24.2451 10.205C24.8021 9.65048 25.2444 8.99155 25.5465 8.26593C25.8487 7.54031 26.0049 6.76224 26.0061 5.97622C26.0073 5.1902 25.8535 4.41166 25.5536 3.68511C25.2536 2.95857 24.8134 2.29829 24.2581 1.74203Z" fill="white"/>
</g>
<defs>
<clipPath id="clip0_2604_60535">
<rect width="26" height="26" fill="white"/>
</clipPath>
</defs>
</svg>
