<svg width="20" height="21" viewBox="0 0 20 21" fill="none" xmlns="http://www.w3.org/2000/svg">
<path fill-rule="evenodd" clip-rule="evenodd" d="M17.9008 18.8262C17.9649 18.8771 18.0423 18.9036 18.1216 18.9036C18.1726 18.9036 18.2254 18.8903 18.2745 18.8677C18.3972 18.8073 18.4746 18.6846 18.4746 18.5487V5.82992C18.4746 5.72233 18.4255 5.6204 18.3425 5.55433L14.8089 2.72857C14.7773 2.70339 14.7424 2.68428 14.7059 2.6713C14.6789 2.6611 14.6496 2.65454 14.6182 2.65218C14.5402 2.64532 14.4603 2.6643 14.3917 2.7097L10.3484 5.40521L6.58239 2.89453C6.51782 2.75351 6.33821 2.6512 6.18052 2.6512C6.16929 2.6512 6.15795 2.65172 6.14654 2.65274C6.05601 2.64328 5.96292 2.66886 5.88798 2.72857L2.35436 5.55433C2.27131 5.6204 2.22223 5.72233 2.22223 5.82992V18.5487C2.22223 18.6846 2.29962 18.8092 2.42232 18.8677C2.54501 18.9262 2.69036 18.9111 2.79606 18.8262L6.12771 16.1608L10.1259 18.8257C10.1793 18.8744 10.2498 18.9036 10.3333 18.9036C10.3434 18.9036 10.3533 18.9031 10.363 18.9023C10.4265 18.8997 10.4895 18.88 10.5447 18.8431L14.5691 16.1608L17.9008 18.8262ZM10.6523 17.9214L14.2727 15.5078V3.63964L10.6523 6.05271V17.9214ZM10.0143 6.03257L6.60712 3.76273V15.6298L10.0143 17.9012V6.03257ZM5.75392 15.5545V3.73957L2.9282 5.99981V17.8144L5.75392 15.5545ZM14.9107 3.71518V15.5288L17.7686 17.8144V5.99981L14.9107 3.71518Z" fill="white"/>
<path d="M17.9008 18.8262L17.7967 18.9563L17.7971 18.9567L17.9008 18.8262ZM18.2745 18.8677L18.3444 19.0191L18.3481 19.0172L18.2745 18.8677ZM18.3425 5.55433L18.2384 5.6845L18.2387 5.68477L18.3425 5.55433ZM14.8089 2.72857L14.9129 2.59841L14.9127 2.59823L14.8089 2.72857ZM14.7059 2.6713L14.647 2.82725L14.6501 2.82835L14.7059 2.6713ZM14.6182 2.65218L14.6036 2.81822L14.6057 2.81838L14.6182 2.65218ZM14.3917 2.7097L14.2997 2.57071L14.2992 2.57102L14.3917 2.7097ZM10.3484 5.40521L10.256 5.54389L10.3484 5.60552L10.4409 5.54389L10.3484 5.40521ZM6.58239 2.89453L6.43086 2.96391L6.45056 3.00695L6.48994 3.0332L6.58239 2.89453ZM6.14654 2.65274L6.12922 2.8185L6.14526 2.82018L6.16132 2.81875L6.14654 2.65274ZM5.88798 2.72857L5.78411 2.59823L5.78389 2.59841L5.88798 2.72857ZM2.35436 5.55433L2.45812 5.68477L2.45845 5.6845L2.35436 5.55433ZM2.42232 18.8677L2.35057 19.0181L2.35057 19.0181L2.42232 18.8677ZM2.79606 18.8262L2.69195 18.696L2.69167 18.6962L2.79606 18.8262ZM6.12771 16.1608L6.22014 16.0222L6.11874 15.9546L6.02359 16.0307L6.12771 16.1608ZM10.1259 18.8257L10.2382 18.7025L10.2289 18.694L10.2183 18.687L10.1259 18.8257ZM10.363 18.9023L10.3561 18.7356L10.3487 18.7363L10.363 18.9023ZM10.5447 18.8431L10.4523 18.7045L10.4523 18.7045L10.5447 18.8431ZM14.5691 16.1608L14.6732 16.0307L14.5781 15.9546L14.4767 16.0222L14.5691 16.1608ZM10.6523 17.9214H10.4856V18.2328L10.7447 18.0601L10.6523 17.9214ZM14.2727 15.5078L14.3652 15.6464L14.4394 15.597V15.5078H14.2727ZM14.2727 3.63964H14.4394V3.32826L14.1803 3.50096L14.2727 3.63964ZM10.6523 6.05271L10.5598 5.91402L10.4856 5.9635V6.05271H10.6523ZM10.0143 6.03257H10.1809V5.94334L10.1067 5.89386L10.0143 6.03257ZM6.60712 3.76273L6.69953 3.62403L6.44046 3.45144V3.76273H6.60712ZM6.60712 15.6298H6.44046V15.719L6.51467 15.7684L6.60712 15.6298ZM10.0143 17.9012L9.92182 18.0399L10.1809 18.2126V17.9012H10.0143ZM5.75392 15.5545L5.85802 15.6847L5.92059 15.6347V15.5545H5.75392ZM5.75392 3.73957H5.92059V3.39283L5.64981 3.60941L5.75392 3.73957ZM2.9282 5.99981L2.82409 5.86966L2.76153 5.9197V5.99981H2.9282ZM2.9282 17.8144H2.76153V18.1611L3.03229 17.9446L2.9282 17.8144ZM14.9107 3.71518L15.0148 3.585L14.7441 3.36857V3.71518H14.9107ZM14.9107 15.5288H14.7441V15.6089L14.8066 15.659L14.9107 15.5288ZM17.7686 17.8144L17.6645 17.9446L17.9353 18.1611V17.8144H17.7686ZM17.7686 5.99981H17.9353V5.91967L17.8727 5.86963L17.7686 5.99981ZM18.1216 18.7369C18.0798 18.7369 18.039 18.7231 18.0044 18.6956L17.7971 18.9567C17.8909 19.0311 18.0048 19.0702 18.1216 19.0702V18.7369ZM18.2047 18.7164C18.1736 18.7307 18.1445 18.7369 18.1216 18.7369V19.0702C18.2006 19.0702 18.2772 19.05 18.3444 19.019L18.2047 18.7164ZM18.3079 18.5487C18.3079 18.62 18.2676 18.6853 18.2009 18.7182L18.3481 19.0172C18.5268 18.9293 18.6413 18.7492 18.6413 18.5487H18.3079ZM18.3079 5.82992V18.5487H18.6413V5.82992H18.3079ZM18.2387 5.68477C18.2817 5.71892 18.3079 5.77265 18.3079 5.82992H18.6413C18.6413 5.67201 18.5694 5.52188 18.4462 5.4239L18.2387 5.68477ZM14.7048 2.85874L18.2384 5.6845L18.4466 5.42417L14.9129 2.59841L14.7048 2.85874ZM14.6501 2.82835C14.6694 2.83521 14.688 2.84536 14.705 2.85891L14.9127 2.59823C14.8665 2.56141 14.8154 2.53334 14.7617 2.51426L14.6501 2.82835ZM14.6057 2.81838C14.6217 2.81958 14.6353 2.82281 14.647 2.82722L14.7648 2.51538C14.7225 2.4994 14.6775 2.4895 14.6307 2.48599L14.6057 2.81838ZM14.4837 2.84868C14.5201 2.82459 14.5623 2.81457 14.6036 2.81821L14.6328 2.48616C14.5182 2.47607 14.4005 2.50401 14.2997 2.57071L14.4837 2.84868ZM10.4409 5.54389L14.4841 2.84837L14.2992 2.57102L10.256 5.26654L10.4409 5.54389ZM6.48994 3.0332L10.256 5.54389L10.4409 5.26654L6.67484 2.75585L6.48994 3.0332ZM6.18052 2.81787C6.22528 2.81787 6.28052 2.83312 6.33122 2.86325C6.38228 2.8936 6.41591 2.93128 6.43086 2.96391L6.73393 2.82514C6.6843 2.71675 6.59584 2.63277 6.50153 2.57671C6.40686 2.52044 6.29345 2.48453 6.18052 2.48453V2.81787ZM6.16132 2.81875C6.16801 2.81815 6.17442 2.81787 6.18052 2.81787V2.48453C6.16416 2.48453 6.14788 2.48529 6.13176 2.48672L6.16132 2.81875ZM5.99185 2.85891C6.03193 2.82698 6.08131 2.81349 6.12922 2.8185L6.16386 2.48697C6.03071 2.47306 5.89391 2.51073 5.78411 2.59823L5.99185 2.85891ZM2.45845 5.6845L5.99207 2.85874L5.78389 2.59841L2.25027 5.42417L2.45845 5.6845ZM2.3889 5.82992C2.3889 5.77265 2.41518 5.71892 2.45812 5.68477L2.25061 5.4239C2.12744 5.52188 2.05556 5.67201 2.05556 5.82992H2.3889ZM2.3889 18.5487V5.82992H2.05556V18.5487H2.3889ZM2.49406 18.7173C2.43028 18.6868 2.3889 18.6214 2.3889 18.5487H2.05556C2.05556 18.7478 2.16896 18.9315 2.35057 19.0181L2.49406 18.7173ZM2.69167 18.6962C2.63734 18.7399 2.56071 18.749 2.49406 18.7173L2.35057 19.0181C2.52931 19.1034 2.74337 19.0823 2.90046 18.9561L2.69167 18.6962ZM6.02359 16.0307L2.69195 18.696L2.90018 18.9563L6.23182 16.291L6.02359 16.0307ZM10.2183 18.687L6.22014 16.0222L6.03527 16.2995L10.0335 18.9644L10.2183 18.687ZM10.3333 18.7369C10.2909 18.7369 10.2605 18.7229 10.2382 18.7025L10.0136 18.9488C10.098 19.0258 10.2088 19.0702 10.3333 19.0702V18.7369ZM10.3487 18.7363C10.3438 18.7367 10.3386 18.7369 10.3333 18.7369V19.0702C10.3481 19.0702 10.3627 19.0696 10.3773 19.0684L10.3487 18.7363ZM10.4523 18.7045C10.423 18.724 10.3897 18.7344 10.3561 18.7358L10.3698 19.0688C10.4632 19.065 10.556 19.036 10.6372 18.9818L10.4523 18.7045ZM14.4767 16.0222L10.4523 18.7045L10.6372 18.9818L14.6616 16.2995L14.4767 16.0222ZM18.0049 18.696L14.6732 16.0307L14.465 16.291L17.7967 18.9563L18.0049 18.696ZM10.7447 18.0601L14.3652 15.6464L14.1803 15.3691L10.5598 17.7827L10.7447 18.0601ZM14.4394 15.5078V3.63964H14.1061V15.5078H14.4394ZM14.1803 3.50096L10.5598 5.91402L10.7447 6.19139L14.3652 3.77833L14.1803 3.50096ZM10.4856 6.05271V17.9214H10.819V6.05271H10.4856ZM10.1067 5.89386L6.69953 3.62403L6.51472 3.90144L9.92186 6.17127L10.1067 5.89386ZM6.44046 3.76273V15.6298H6.77379V3.76273H6.44046ZM6.51467 15.7684L9.92182 18.0399L10.1067 17.7625L6.69957 15.4911L6.51467 15.7684ZM10.1809 17.9012V6.03257H9.8476V17.9012H10.1809ZM5.92059 15.5545V3.73957H5.58725V15.5545H5.92059ZM5.64981 3.60941L2.82409 5.86966L3.0323 6.12996L5.85803 3.86972L5.64981 3.60941ZM2.76153 5.99981V17.8144H3.09486V5.99981H2.76153ZM3.03229 17.9446L5.85802 15.6847L5.64982 15.4244L2.8241 17.6842L3.03229 17.9446ZM14.7441 3.71518V15.5288H15.0774V3.71518H14.7441ZM14.8066 15.659L17.6645 17.9446L17.8727 17.6842L15.0148 15.3987L14.8066 15.659ZM17.9353 17.8144V5.99981H17.602V17.8144H17.9353ZM17.8727 5.86963L15.0148 3.585L14.8067 3.84537L17.6646 6.12999L17.8727 5.86963Z" fill="white"/>
</svg>
