<svg width="48" height="18" viewBox="0 0 48 18" fill="none" xmlns="http://www.w3.org/2000/svg">
<path d="M8.11469 7.826H10.9007V6.58H11.6707L10.7747 9.59H12.3147V11.62H10.9007V10.374H8.11469V14H15.1007V7.21H14.1907L15.2127 4.2H8.11469V7.826ZM16.3315 14H23.3175V4.2H16.3315V14ZM19.1175 6.566H20.5315V11.634H19.1175V6.566ZM24.2989 6.384L25.6149 6.86L24.8449 7.952L26.0489 8.806L26.7909 7.784L27.5469 8.806L28.7509 7.966L27.9669 6.832L29.2549 6.356L28.8209 5.026L27.6449 5.39V4.06H25.9929V5.418L24.7329 5.026L24.2989 6.384ZM30.2358 7.826H33.0218V6.58H33.7918L32.8958 9.59H34.4358V11.62H33.0218V10.374H30.2358V14H37.2218V7.21H36.3118L37.3338 4.2H30.2358V7.826ZM38.4526 14H45.4386V4.2H38.4526V14ZM41.2386 6.566H42.6526V11.634H41.2386V6.566Z" fill="url(#paint0_linear_2710_12166)"/>
<path d="M8.11469 7.826H7.56469V8.376H8.11469V7.826ZM10.9007 7.826V8.376H11.4507V7.826H10.9007ZM10.9007 6.58V6.03H10.3507V6.58H10.9007ZM11.6707 6.58L12.1978 6.73692L12.4083 6.03H11.6707V6.58ZM10.7747 9.59L10.2475 9.43308L10.0371 10.14H10.7747V9.59ZM12.3147 9.59H12.8647V9.04H12.3147V9.59ZM12.3147 11.62V12.17H12.8647V11.62H12.3147ZM10.9007 11.62H10.3507V12.17H10.9007V11.62ZM10.9007 10.374H11.4507V9.824H10.9007V10.374ZM8.11469 10.374V9.824H7.56469V10.374H8.11469ZM8.11469 14H7.56469V14.55H8.11469V14ZM15.1007 14V14.55H15.6507V14H15.1007ZM15.1007 7.21H15.6507V6.66H15.1007V7.21ZM14.1907 7.21L13.6699 7.03317L13.4231 7.76H14.1907V7.21ZM15.2127 4.2L15.7335 4.37683L15.9803 3.65H15.2127V4.2ZM8.11469 4.2V3.65H7.56469V4.2H8.11469ZM8.11469 8.376H10.9007V7.276H8.11469V8.376ZM11.4507 7.826V6.58H10.3507V7.826H11.4507ZM10.9007 7.13H11.6707V6.03H10.9007V7.13ZM11.1435 6.42308L10.2475 9.43308L11.3018 9.74692L12.1978 6.73692L11.1435 6.42308ZM10.7747 10.14H12.3147V9.04H10.7747V10.14ZM11.7647 9.59V11.62H12.8647V9.59H11.7647ZM12.3147 11.07H10.9007V12.17H12.3147V11.07ZM11.4507 11.62V10.374H10.3507V11.62H11.4507ZM10.9007 9.824H8.11469V10.924H10.9007V9.824ZM7.56469 10.374V14H8.66469V10.374H7.56469ZM8.11469 14.55H15.1007V13.45H8.11469V14.55ZM15.6507 14V7.21H14.5507V14H15.6507ZM15.1007 6.66H14.1907V7.76H15.1007V6.66ZM14.7115 7.38683L15.7335 4.37683L14.6919 4.02317L13.6699 7.03317L14.7115 7.38683ZM15.2127 3.65H8.11469V4.75H15.2127V3.65ZM7.56469 4.2V7.826H8.66469V4.2H7.56469ZM16.3315 14H15.7815V14.55H16.3315V14ZM23.3175 14V14.55H23.8675V14H23.3175ZM23.3175 4.2H23.8675V3.65H23.3175V4.2ZM16.3315 4.2V3.65H15.7815V4.2H16.3315ZM19.1175 6.566V6.016H18.5675V6.566H19.1175ZM20.5315 6.566H21.0815V6.016H20.5315V6.566ZM20.5315 11.634V12.184H21.0815V11.634H20.5315ZM19.1175 11.634H18.5675V12.184H19.1175V11.634ZM16.3315 14.55H23.3175V13.45H16.3315V14.55ZM23.8675 14V4.2H22.7675V14H23.8675ZM23.3175 3.65H16.3315V4.75H23.3175V3.65ZM15.7815 4.2V14H16.8815V4.2H15.7815ZM19.1175 7.116H20.5315V6.016H19.1175V7.116ZM19.9815 6.566V11.634H21.0815V6.566H19.9815ZM20.5315 11.084H19.1175V12.184H20.5315V11.084ZM19.6675 11.634V6.566H18.5675V11.634H19.6675ZM24.2989 6.384L23.775 6.21657L23.6138 6.72106L24.1118 6.90121L24.2989 6.384ZM25.6149 6.86L26.0644 7.17695L26.4797 6.58793L25.802 6.34279L25.6149 6.86ZM24.8449 7.952L24.3954 7.63505L24.0793 8.08329L24.5267 8.40061L24.8449 7.952ZM26.0489 8.806L25.7307 9.25461L26.1744 9.56931L26.494 9.12913L26.0489 8.806ZM26.7909 7.784L27.2331 7.45691L26.7868 6.85356L26.3458 7.46087L26.7909 7.784ZM27.5469 8.806L27.1047 9.13309L27.4229 9.56316L27.8616 9.25707L27.5469 8.806ZM28.7509 7.966L29.0656 8.41707L29.5148 8.10371L29.2033 7.65322L28.7509 7.966ZM27.9669 6.832L27.7762 6.3161L27.1114 6.56179L27.5145 7.14477L27.9669 6.832ZM29.2549 6.356L29.4456 6.8719L29.9419 6.68846L29.7778 6.18538L29.2549 6.356ZM28.8209 5.026L29.3438 4.85538L29.1757 4.34043L28.6583 4.50059L28.8209 5.026ZM27.6449 5.39H27.0949V6.13598L27.8075 5.91541L27.6449 5.39ZM27.6449 4.06H28.1949V3.51H27.6449V4.06ZM25.9929 4.06V3.51H25.4429V4.06H25.9929ZM25.9929 5.418L25.8295 5.94317L26.5429 6.16511V5.418H25.9929ZM24.7329 5.026L24.8963 4.50083L24.3752 4.3387L24.209 4.85857L24.7329 5.026ZM24.1118 6.90121L25.4278 7.37721L25.802 6.34279L24.486 5.86679L24.1118 6.90121ZM25.1654 6.54305L24.3954 7.63505L25.2944 8.26895L26.0644 7.17695L25.1654 6.54305ZM24.5267 8.40061L25.7307 9.25461L26.3671 8.35739L25.1631 7.50339L24.5267 8.40061ZM26.494 9.12913L27.236 8.10713L26.3458 7.46087L25.6038 8.48287L26.494 9.12913ZM26.3487 8.11108L27.1047 9.13309L27.9891 8.47891L27.2331 7.45691L26.3487 8.11108ZM27.8616 9.25707L29.0656 8.41707L28.4362 7.51493L27.2322 8.35493L27.8616 9.25707ZM29.2033 7.65322L28.4193 6.51922L27.5145 7.14477L28.2985 8.27877L29.2033 7.65322ZM28.1576 7.3479L29.4456 6.8719L29.0642 5.8401L27.7762 6.3161L28.1576 7.3479ZM29.7778 6.18538L29.3438 4.85538L28.298 5.19662L28.732 6.52662L29.7778 6.18538ZM28.6583 4.50059L27.4823 4.86459L27.8075 5.91541L28.9835 5.55141L28.6583 4.50059ZM28.1949 5.39V4.06H27.0949V5.39H28.1949ZM27.6449 3.51H25.9929V4.61H27.6449V3.51ZM25.4429 4.06V5.418H26.5429V4.06H25.4429ZM26.1563 4.89283L24.8963 4.50083L24.5695 5.55117L25.8295 5.94317L26.1563 4.89283ZM24.209 4.85857L23.775 6.21657L24.8228 6.55143L25.2568 5.19343L24.209 4.85857ZM30.2358 7.826H29.6858V8.376H30.2358V7.826ZM33.0218 7.826V8.376H33.5718V7.826H33.0218ZM33.0218 6.58V6.03H32.4718V6.58H33.0218ZM33.7918 6.58L34.3189 6.73692L34.5294 6.03H33.7918V6.58ZM32.8958 9.59L32.3686 9.43308L32.1582 10.14H32.8958V9.59ZM34.4358 9.59H34.9858V9.04H34.4358V9.59ZM34.4358 11.62V12.17H34.9858V11.62H34.4358ZM33.0218 11.62H32.4718V12.17H33.0218V11.62ZM33.0218 10.374H33.5718V9.824H33.0218V10.374ZM30.2358 10.374V9.824H29.6858V10.374H30.2358ZM30.2358 14H29.6858V14.55H30.2358V14ZM37.2218 14V14.55H37.7718V14H37.2218ZM37.2218 7.21H37.7718V6.66H37.2218V7.21ZM36.3118 7.21L35.791 7.03317L35.5442 7.76H36.3118V7.21ZM37.3338 4.2L37.8546 4.37683L38.1014 3.65H37.3338V4.2ZM30.2358 4.2V3.65H29.6858V4.2H30.2358ZM30.2358 8.376H33.0218V7.276H30.2358V8.376ZM33.5718 7.826V6.58H32.4718V7.826H33.5718ZM33.0218 7.13H33.7918V6.03H33.0218V7.13ZM33.2646 6.42308L32.3686 9.43308L33.4229 9.74692L34.3189 6.73692L33.2646 6.42308ZM32.8958 10.14H34.4358V9.04H32.8958V10.14ZM33.8858 9.59V11.62H34.9858V9.59H33.8858ZM34.4358 11.07H33.0218V12.17H34.4358V11.07ZM33.5718 11.62V10.374H32.4718V11.62H33.5718ZM33.0218 9.824H30.2358V10.924H33.0218V9.824ZM29.6858 10.374V14H30.7858V10.374H29.6858ZM30.2358 14.55H37.2218V13.45H30.2358V14.55ZM37.7718 14V7.21H36.6718V14H37.7718ZM37.2218 6.66H36.3118V7.76H37.2218V6.66ZM36.8326 7.38683L37.8546 4.37683L36.813 4.02317L35.791 7.03317L36.8326 7.38683ZM37.3338 3.65H30.2358V4.75H37.3338V3.65ZM29.6858 4.2V7.826H30.7858V4.2H29.6858ZM38.4526 14H37.9026V14.55H38.4526V14ZM45.4386 14V14.55H45.9886V14H45.4386ZM45.4386 4.2H45.9886V3.65H45.4386V4.2ZM38.4526 4.2V3.65H37.9026V4.2H38.4526ZM41.2386 6.566V6.016H40.6886V6.566H41.2386ZM42.6526 6.566H43.2026V6.016H42.6526V6.566ZM42.6526 11.634V12.184H43.2026V11.634H42.6526ZM41.2386 11.634H40.6886V12.184H41.2386V11.634ZM38.4526 14.55H45.4386V13.45H38.4526V14.55ZM45.9886 14V4.2H44.8886V14H45.9886ZM45.4386 3.65H38.4526V4.75H45.4386V3.65ZM37.9026 4.2V14H39.0026V4.2H37.9026ZM41.2386 7.116H42.6526V6.016H41.2386V7.116ZM42.1026 6.566V11.634H43.2026V6.566H42.1026ZM42.6526 11.084H41.2386V12.184H42.6526V11.084ZM41.7886 11.634V6.566H40.6886V11.634H41.7886Z" fill="#77A0F1"/>
<defs>
<linearGradient id="paint0_linear_2710_12166" x1="7" y1="3.87649" x2="14.9764" y2="26.6985" gradientUnits="userSpaceOnUse">
<stop offset="0.094" stop-color="#B2D1FF"/>
<stop offset="0.941" stop-color="#99B4FF"/>
</linearGradient>
</defs>
</svg>
