<svg width="48" height="18" viewBox="0 0 48 18" fill="none" xmlns="http://www.w3.org/2000/svg">
<path d="M8.33344 14H15.3194V10.934H12.5334V11.634H11.1194V10.948L15.3194 8.274V4.2H8.33344V7.546H11.1194V6.566H12.5334V7.21L8.33344 9.87V14ZM16.4409 14H23.4269V4.2H16.4409V14ZM19.2269 6.566H20.6409V11.634H19.2269V6.566ZM24.4083 6.384L25.7243 6.86L24.9543 7.952L26.1583 8.806L26.9003 7.784L27.6563 8.806L28.8603 7.966L28.0763 6.832L29.3643 6.356L28.9303 5.026L27.7543 5.39V4.06H26.1023V5.418L24.8423 5.026L24.4083 6.384ZM30.3452 14H37.3312V10.934H34.5452V11.634H33.1312V10.948L37.3312 8.274V4.2H30.3452V7.546H33.1312V6.566H34.5452V7.21L30.3452 9.87V14ZM38.4526 14H45.4386V4.2H38.4526V14ZM41.2386 6.566H42.6526V11.634H41.2386V6.566Z" fill="url(#paint0_linear_2710_12163)"/>
<path d="M8.33344 14H7.78344V14.55H8.33344V14ZM15.3194 14V14.55H15.8694V14H15.3194ZM15.3194 10.934H15.8694V10.384H15.3194V10.934ZM12.5334 10.934V10.384H11.9834V10.934H12.5334ZM12.5334 11.634V12.184H13.0834V11.634H12.5334ZM11.1194 11.634H10.5694V12.184H11.1194V11.634ZM11.1194 10.948L10.8241 10.484L10.5694 10.6462V10.948H11.1194ZM15.3194 8.274L15.6148 8.73795L15.8694 8.57584V8.274H15.3194ZM15.3194 4.2H15.8694V3.65H15.3194V4.2ZM8.33344 4.2V3.65H7.78344V4.2H8.33344ZM8.33344 7.546H7.78344V8.096H8.33344V7.546ZM11.1194 7.546V8.096H11.6694V7.546H11.1194ZM11.1194 6.566V6.016H10.5694V6.566H11.1194ZM12.5334 6.566H13.0834V6.016H12.5334V6.566ZM12.5334 7.21L12.8277 7.67465L13.0834 7.51269V7.21H12.5334ZM8.33344 9.87L8.03916 9.40535L7.78344 9.56731V9.87H8.33344ZM8.33344 14.55H15.3194V13.45H8.33344V14.55ZM15.8694 14V10.934H14.7694V14H15.8694ZM15.3194 10.384H12.5334V11.484H15.3194V10.384ZM11.9834 10.934V11.634H13.0834V10.934H11.9834ZM12.5334 11.084H11.1194V12.184H12.5334V11.084ZM11.6694 11.634V10.948H10.5694V11.634H11.6694ZM11.4148 11.412L15.6148 8.73795L15.0241 7.81005L10.8241 10.484L11.4148 11.412ZM15.8694 8.274V4.2H14.7694V8.274H15.8694ZM15.3194 3.65H8.33344V4.75H15.3194V3.65ZM7.78344 4.2V7.546H8.88344V4.2H7.78344ZM8.33344 8.096H11.1194V6.996H8.33344V8.096ZM11.6694 7.546V6.566H10.5694V7.546H11.6694ZM11.1194 7.116H12.5334V6.016H11.1194V7.116ZM11.9834 6.566V7.21H13.0834V6.566H11.9834ZM12.2392 6.74535L8.03916 9.40535L8.62772 10.3347L12.8277 7.67465L12.2392 6.74535ZM7.78344 9.87V14H8.88344V9.87H7.78344ZM16.4409 14H15.8909V14.55H16.4409V14ZM23.4269 14V14.55H23.9769V14H23.4269ZM23.4269 4.2H23.9769V3.65H23.4269V4.2ZM16.4409 4.2V3.65H15.8909V4.2H16.4409ZM19.2269 6.566V6.016H18.6769V6.566H19.2269ZM20.6409 6.566H21.1909V6.016H20.6409V6.566ZM20.6409 11.634V12.184H21.1909V11.634H20.6409ZM19.2269 11.634H18.6769V12.184H19.2269V11.634ZM16.4409 14.55H23.4269V13.45H16.4409V14.55ZM23.9769 14V4.2H22.8769V14H23.9769ZM23.4269 3.65H16.4409V4.75H23.4269V3.65ZM15.8909 4.2V14H16.9909V4.2H15.8909ZM19.2269 7.116H20.6409V6.016H19.2269V7.116ZM20.0909 6.566V11.634H21.1909V6.566H20.0909ZM20.6409 11.084H19.2269V12.184H20.6409V11.084ZM19.7769 11.634V6.566H18.6769V11.634H19.7769ZM24.4083 6.384L23.8844 6.21657L23.7232 6.72106L24.2212 6.90121L24.4083 6.384ZM25.7243 6.86L26.1738 7.17695L26.5891 6.58793L25.9114 6.34279L25.7243 6.86ZM24.9543 7.952L24.5048 7.63505L24.1887 8.08329L24.6361 8.40061L24.9543 7.952ZM26.1583 8.806L25.8401 9.25461L26.2838 9.56931L26.6033 9.12913L26.1583 8.806ZM26.9003 7.784L27.3425 7.45691L26.8961 6.85356L26.4552 7.46087L26.9003 7.784ZM27.6563 8.806L27.2141 9.13309L27.5322 9.56316L27.971 9.25707L27.6563 8.806ZM28.8603 7.966L29.175 8.41707L29.6241 8.10371L29.3127 7.65322L28.8603 7.966ZM28.0763 6.832L27.8856 6.3161L27.2208 6.56179L27.6239 7.14477L28.0763 6.832ZM29.3643 6.356L29.5549 6.8719L30.0513 6.68846L29.8871 6.18538L29.3643 6.356ZM28.9303 5.026L29.4531 4.85538L29.2851 4.34043L28.7677 4.50059L28.9303 5.026ZM27.7543 5.39H27.2043V6.13598L27.9169 5.91541L27.7543 5.39ZM27.7543 4.06H28.3043V3.51H27.7543V4.06ZM26.1023 4.06V3.51H25.5523V4.06H26.1023ZM26.1023 5.418L25.9389 5.94317L26.6523 6.16511V5.418H26.1023ZM24.8423 5.026L25.0057 4.50083L24.4845 4.3387L24.3184 4.85857L24.8423 5.026ZM24.2212 6.90121L25.5372 7.37721L25.9114 6.34279L24.5954 5.86679L24.2212 6.90121ZM25.2748 6.54305L24.5048 7.63505L25.4038 8.26895L26.1738 7.17695L25.2748 6.54305ZM24.6361 8.40061L25.8401 9.25461L26.4765 8.35739L25.2725 7.50339L24.6361 8.40061ZM26.6033 9.12913L27.3454 8.10713L26.4552 7.46087L25.7132 8.48287L26.6033 9.12913ZM26.4581 8.11108L27.2141 9.13309L28.0985 8.47891L27.3425 7.45691L26.4581 8.11108ZM27.971 9.25707L29.175 8.41707L28.5456 7.51493L27.3416 8.35493L27.971 9.25707ZM29.3127 7.65322L28.5287 6.51922L27.6239 7.14477L28.4079 8.27877L29.3127 7.65322ZM28.2669 7.3479L29.5549 6.8719L29.1736 5.8401L27.8856 6.3161L28.2669 7.3479ZM29.8871 6.18538L29.4531 4.85538L28.4074 5.19662L28.8414 6.52662L29.8871 6.18538ZM28.7677 4.50059L27.5917 4.86459L27.9169 5.91541L29.0929 5.55141L28.7677 4.50059ZM28.3043 5.39V4.06H27.2043V5.39H28.3043ZM27.7543 3.51H26.1023V4.61H27.7543V3.51ZM25.5523 4.06V5.418H26.6523V4.06H25.5523ZM26.2657 4.89283L25.0057 4.50083L24.6789 5.55117L25.9389 5.94317L26.2657 4.89283ZM24.3184 4.85857L23.8844 6.21657L24.9322 6.55143L25.3662 5.19343L24.3184 4.85857ZM30.3452 14H29.7952V14.55H30.3452V14ZM37.3312 14V14.55H37.8812V14H37.3312ZM37.3312 10.934H37.8812V10.384H37.3312V10.934ZM34.5452 10.934V10.384H33.9952V10.934H34.5452ZM34.5452 11.634V12.184H35.0952V11.634H34.5452ZM33.1312 11.634H32.5812V12.184H33.1312V11.634ZM33.1312 10.948L32.8358 10.484L32.5812 10.6462V10.948H33.1312ZM37.3312 8.274L37.6265 8.73795L37.8812 8.57584V8.274H37.3312ZM37.3312 4.2H37.8812V3.65H37.3312V4.2ZM30.3452 4.2V3.65H29.7952V4.2H30.3452ZM30.3452 7.546H29.7952V8.096H30.3452V7.546ZM33.1312 7.546V8.096H33.6812V7.546H33.1312ZM33.1312 6.566V6.016H32.5812V6.566H33.1312ZM34.5452 6.566H35.0952V6.016H34.5452V6.566ZM34.5452 7.21L34.8394 7.67465L35.0952 7.51269V7.21H34.5452ZM30.3452 9.87L30.0509 9.40535L29.7952 9.56731V9.87H30.3452ZM30.3452 14.55H37.3312V13.45H30.3452V14.55ZM37.8812 14V10.934H36.7812V14H37.8812ZM37.3312 10.384H34.5452V11.484H37.3312V10.384ZM33.9952 10.934V11.634H35.0952V10.934H33.9952ZM34.5452 11.084H33.1312V12.184H34.5452V11.084ZM33.6812 11.634V10.948H32.5812V11.634H33.6812ZM33.4265 11.412L37.6265 8.73795L37.0358 7.81005L32.8358 10.484L33.4265 11.412ZM37.8812 8.274V4.2H36.7812V8.274H37.8812ZM37.3312 3.65H30.3452V4.75H37.3312V3.65ZM29.7952 4.2V7.546H30.8952V4.2H29.7952ZM30.3452 8.096H33.1312V6.996H30.3452V8.096ZM33.6812 7.546V6.566H32.5812V7.546H33.6812ZM33.1312 7.116H34.5452V6.016H33.1312V7.116ZM33.9952 6.566V7.21H35.0952V6.566H33.9952ZM34.2509 6.74535L30.0509 9.40535L30.6394 10.3347L34.8394 7.67465L34.2509 6.74535ZM29.7952 9.87V14H30.8952V9.87H29.7952ZM38.4526 14H37.9026V14.55H38.4526V14ZM45.4386 14V14.55H45.9886V14H45.4386ZM45.4386 4.2H45.9886V3.65H45.4386V4.2ZM38.4526 4.2V3.65H37.9026V4.2H38.4526ZM41.2386 6.566V6.016H40.6886V6.566H41.2386ZM42.6526 6.566H43.2026V6.016H42.6526V6.566ZM42.6526 11.634V12.184H43.2026V11.634H42.6526ZM41.2386 11.634H40.6886V12.184H41.2386V11.634ZM38.4526 14.55H45.4386V13.45H38.4526V14.55ZM45.9886 14V4.2H44.8886V14H45.9886ZM45.4386 3.65H38.4526V4.75H45.4386V3.65ZM37.9026 4.2V14H39.0026V4.2H37.9026ZM41.2386 7.116H42.6526V6.016H41.2386V7.116ZM42.1026 6.566V11.634H43.2026V6.566H42.1026ZM42.6526 11.084H41.2386V12.184H42.6526V11.084ZM41.7886 11.634V6.566H40.6886V11.634H41.7886Z" fill="#D6894B"/>
<defs>
<linearGradient id="paint0_linear_2710_12163" x1="20.764" y1="2.639" x2="42.137" y2="18.367" gradientUnits="userSpaceOnUse">
<stop offset="0.129" stop-color="#E0B17F"/>
<stop offset="0.941" stop-color="#D68F68"/>
</linearGradient>
</defs>
</svg>
