<svg width="48" height="18" viewBox="0 0 48 18" fill="none" xmlns="http://www.w3.org/2000/svg">
<path d="M13.334 11.62H12.2V4.2H8.434V6.58H9.414V11.62H8.28V14H13.334V11.62ZM14.1791 14H21.1651V4.2H14.1791V14ZM16.9651 6.566H18.3791V11.634H16.9651V6.566ZM22.1466 6.384L23.4626 6.86L22.6926 7.952L23.8966 8.806L24.6386 7.784L25.3946 8.806L26.5986 7.966L25.8146 6.832L27.1026 6.356L26.6686 5.026L25.4926 5.39V4.06H23.8406V5.418L22.5806 5.026L22.1466 6.384ZM32.8574 11.62H31.7234V4.2H27.9574V6.58H28.9374V11.62H27.8034V14H32.8574V11.62ZM33.7026 14H40.6886V4.2H33.7026V14ZM36.4886 6.566H37.9026V11.634H36.4886V6.566Z" fill="url(#paint0_linear_2710_12159)"/>
<path d="M13.334 11.62H13.884V11.07H13.334V11.62ZM12.2 11.62H11.65V12.17H12.2V11.62ZM12.2 4.2H12.75V3.65H12.2V4.2ZM8.434 4.2V3.65H7.884V4.2H8.434ZM8.434 6.58H7.884V7.13H8.434V6.58ZM9.414 6.58H9.964V6.03H9.414V6.58ZM9.414 11.62V12.17H9.964V11.62H9.414ZM8.28 11.62V11.07H7.73V11.62H8.28ZM8.28 14H7.73V14.55H8.28V14ZM13.334 14V14.55H13.884V14H13.334ZM13.334 11.07H12.2V12.17H13.334V11.07ZM12.75 11.62V4.2H11.65V11.62H12.75ZM12.2 3.65H8.434V4.75H12.2V3.65ZM7.884 4.2V6.58H8.984V4.2H7.884ZM8.434 7.13H9.414V6.03H8.434V7.13ZM8.864 6.58V11.62H9.964V6.58H8.864ZM9.414 11.07H8.28V12.17H9.414V11.07ZM7.73 11.62V14H8.83V11.62H7.73ZM8.28 14.55H13.334V13.45H8.28V14.55ZM13.884 14V11.62H12.784V14H13.884ZM14.1791 14H13.6291V14.55H14.1791V14ZM21.1651 14V14.55H21.7151V14H21.1651ZM21.1651 4.2H21.7151V3.65H21.1651V4.2ZM14.1791 4.2V3.65H13.6291V4.2H14.1791ZM16.9651 6.566V6.016H16.4151V6.566H16.9651ZM18.3791 6.566H18.9291V6.016H18.3791V6.566ZM18.3791 11.634V12.184H18.9291V11.634H18.3791ZM16.9651 11.634H16.4151V12.184H16.9651V11.634ZM14.1791 14.55H21.1651V13.45H14.1791V14.55ZM21.7151 14V4.2H20.6151V14H21.7151ZM21.1651 3.65H14.1791V4.75H21.1651V3.65ZM13.6291 4.2V14H14.7291V4.2H13.6291ZM16.9651 7.116H18.3791V6.016H16.9651V7.116ZM17.8291 6.566V11.634H18.9291V6.566H17.8291ZM18.3791 11.084H16.9651V12.184H18.3791V11.084ZM17.5151 11.634V6.566H16.4151V11.634H17.5151ZM22.1466 6.384L21.6227 6.21657L21.4614 6.72106L21.9595 6.90121L22.1466 6.384ZM23.4626 6.86L23.9121 7.17695L24.3274 6.58793L23.6496 6.34279L23.4626 6.86ZM22.6926 7.952L22.2431 7.63505L21.927 8.08329L22.3744 8.40061L22.6926 7.952ZM23.8966 8.806L23.5784 9.25461L24.022 9.56931L24.3416 9.12913L23.8966 8.806ZM24.6386 7.784L25.0807 7.45691L24.6344 6.85356L24.1935 7.46087L24.6386 7.784ZM25.3946 8.806L24.9524 9.13309L25.2705 9.56316L25.7093 9.25707L25.3946 8.806ZM26.5986 7.966L26.9133 8.41707L27.3624 8.10371L27.051 7.65322L26.5986 7.966ZM25.8146 6.832L25.6239 6.3161L24.9591 6.56179L25.3622 7.14477L25.8146 6.832ZM27.1026 6.356L27.2932 6.8719L27.7896 6.68846L27.6254 6.18538L27.1026 6.356ZM26.6686 5.026L27.1914 4.85538L27.0234 4.34043L26.5059 4.50059L26.6686 5.026ZM25.4926 5.39H24.9426V6.13598L25.6552 5.91541L25.4926 5.39ZM25.4926 4.06H26.0426V3.51H25.4926V4.06ZM23.8406 4.06V3.51H23.2906V4.06H23.8406ZM23.8406 5.418L23.6772 5.94317L24.3906 6.16511V5.418H23.8406ZM22.5806 5.026L22.7439 4.50083L22.2228 4.3387L22.0567 4.85857L22.5806 5.026ZM21.9595 6.90121L23.2755 7.37721L23.6496 6.34279L22.3336 5.86679L21.9595 6.90121ZM23.0131 6.54305L22.2431 7.63505L23.1421 8.26895L23.9121 7.17695L23.0131 6.54305ZM22.3744 8.40061L23.5784 9.25461L24.2148 8.35739L23.0108 7.50339L22.3744 8.40061ZM24.3416 9.12913L25.0836 8.10713L24.1935 7.46087L23.4515 8.48287L24.3416 9.12913ZM24.1964 8.11108L24.9524 9.13309L25.8367 8.47891L25.0807 7.45691L24.1964 8.11108ZM25.7093 9.25707L26.9133 8.41707L26.2839 7.51493L25.0799 8.35493L25.7093 9.25707ZM27.051 7.65322L26.267 6.51922L25.3622 7.14477L26.1462 8.27877L27.051 7.65322ZM26.0052 7.3479L27.2932 6.8719L26.9119 5.8401L25.6239 6.3161L26.0052 7.3479ZM27.6254 6.18538L27.1914 4.85538L26.1457 5.19662L26.5797 6.52662L27.6254 6.18538ZM26.5059 4.50059L25.3299 4.86459L25.6552 5.91541L26.8312 5.55141L26.5059 4.50059ZM26.0426 5.39V4.06H24.9426V5.39H26.0426ZM25.4926 3.51H23.8406V4.61H25.4926V3.51ZM23.2906 4.06V5.418H24.3906V4.06H23.2906ZM24.0039 4.89283L22.7439 4.50083L22.4172 5.55117L23.6772 5.94317L24.0039 4.89283ZM22.0567 4.85857L21.6227 6.21657L22.6705 6.55143L23.1045 5.19343L22.0567 4.85857ZM32.8574 11.62H33.4074V11.07H32.8574V11.62ZM31.7234 11.62H31.1734V12.17H31.7234V11.62ZM31.7234 4.2H32.2734V3.65H31.7234V4.2ZM27.9574 4.2V3.65H27.4074V4.2H27.9574ZM27.9574 6.58H27.4074V7.13H27.9574V6.58ZM28.9374 6.58H29.4874V6.03H28.9374V6.58ZM28.9374 11.62V12.17H29.4874V11.62H28.9374ZM27.8034 11.62V11.07H27.2534V11.62H27.8034ZM27.8034 14H27.2534V14.55H27.8034V14ZM32.8574 14V14.55H33.4074V14H32.8574ZM32.8574 11.07H31.7234V12.17H32.8574V11.07ZM32.2734 11.62V4.2H31.1734V11.62H32.2734ZM31.7234 3.65H27.9574V4.75H31.7234V3.65ZM27.4074 4.2V6.58H28.5074V4.2H27.4074ZM27.9574 7.13H28.9374V6.03H27.9574V7.13ZM28.3874 6.58V11.62H29.4874V6.58H28.3874ZM28.9374 11.07H27.8034V12.17H28.9374V11.07ZM27.2534 11.62V14H28.3534V11.62H27.2534ZM27.8034 14.55H32.8574V13.45H27.8034V14.55ZM33.4074 14V11.62H32.3074V14H33.4074ZM33.7026 14H33.1526V14.55H33.7026V14ZM40.6886 14V14.55H41.2386V14H40.6886ZM40.6886 4.2H41.2386V3.65H40.6886V4.2ZM33.7026 4.2V3.65H33.1526V4.2H33.7026ZM36.4886 6.566V6.016H35.9386V6.566H36.4886ZM37.9026 6.566H38.4526V6.016H37.9026V6.566ZM37.9026 11.634V12.184H38.4526V11.634H37.9026ZM36.4886 11.634H35.9386V12.184H36.4886V11.634ZM33.7026 14.55H40.6886V13.45H33.7026V14.55ZM41.2386 14V4.2H40.1386V14H41.2386ZM40.6886 3.65H33.7026V4.75H40.6886V3.65ZM33.1526 4.2V14H34.2526V4.2H33.1526ZM36.4886 7.116H37.9026V6.016H36.4886V7.116ZM37.3526 6.566V11.634H38.4526V6.566H37.3526ZM37.9026 11.084H36.4886V12.184H37.9026V11.084ZM37.0386 11.634V6.566H35.9386V11.634H37.0386Z" fill="#3EABC7"/>
<defs>
<linearGradient id="paint0_linear_2710_12159" x1="23.3112" y1="1.82536" x2="29.571" y2="14.5999" gradientUnits="userSpaceOnUse">
<stop offset="0.078" stop-color="#6DC7E0"/>
<stop offset="0.908" stop-color="#3BAAC6"/>
</linearGradient>
</defs>
</svg>
