<svg width="48" height="18" viewBox="0 0 48 18" fill="none" xmlns="http://www.w3.org/2000/svg">
<g filter="url(#filter0_d_2710_12168)">
<path d="M10.5198 9.03V4.2H7.73383V11.41H11.6538V14H14.4398V4.2H11.6538V9.03H10.5198ZM15.5541 14H22.5401V4.2H15.5541V14ZM18.3401 6.566H19.7541V11.634H18.3401V6.566ZM23.5216 6.384L24.8376 6.86L24.0676 7.952L25.2716 8.806L26.0136 7.784L26.7696 8.806L27.9736 7.966L27.1896 6.832L28.4776 6.356L28.0436 5.026L26.8676 5.39V4.06H25.2156V5.418L23.9556 5.026L23.5216 6.384ZM32.2444 9.03V4.2H29.4584V11.41H33.3784V14H36.1644V4.2H33.3784V9.03H32.2444ZM37.2788 14H44.2648V4.2H37.2788V14ZM40.0648 6.566H41.4788V11.634H40.0648V6.566Z" fill="url(#paint0_linear_2710_12168)"/>
<path d="M10.5198 9.03H10.1169V9.43297H10.5198V9.03ZM10.5198 4.2H10.9228V3.79703H10.5198V4.2ZM7.73383 4.2V3.79703H7.33086V4.2H7.73383ZM7.73383 11.41H7.33086V11.813H7.73383V11.41ZM11.6538 11.41H12.0568V11.007H11.6538V11.41ZM11.6538 14H11.2509V14.403H11.6538V14ZM14.4398 14V14.403H14.8428V14H14.4398ZM14.4398 4.2H14.8428V3.79703H14.4398V4.2ZM11.6538 4.2V3.79703H11.2509V4.2H11.6538ZM11.6538 9.03V9.43297H12.0568V9.03H11.6538ZM10.9228 9.03V4.2H10.1169V9.03H10.9228ZM10.5198 3.79703H7.73383V4.60297H10.5198V3.79703ZM7.33086 4.2V11.41H8.1368V4.2H7.33086ZM7.73383 11.813H11.6538V11.007H7.73383V11.813ZM11.2509 11.41V14H12.0568V11.41H11.2509ZM11.6538 14.403H14.4398V13.597H11.6538V14.403ZM14.8428 14V4.2H14.0369V14H14.8428ZM14.4398 3.79703H11.6538V4.60297H14.4398V3.79703ZM11.2509 4.2V9.03H12.0568V4.2H11.2509ZM11.6538 8.62703H10.5198V9.43297H11.6538V8.62703ZM15.5541 14H15.1512V14.403H15.5541V14ZM22.5401 14V14.403H22.9431V14H22.5401ZM22.5401 4.2H22.9431V3.79703H22.5401V4.2ZM15.5541 4.2V3.79703H15.1512V4.2H15.5541ZM18.3401 6.566V6.16303H17.9372V6.566H18.3401ZM19.7541 6.566H20.1571V6.16303H19.7541V6.566ZM19.7541 11.634V12.037H20.1571V11.634H19.7541ZM18.3401 11.634H17.9372V12.037H18.3401V11.634ZM15.5541 14.403H22.5401V13.597H15.5541V14.403ZM22.9431 14V4.2H22.1372V14H22.9431ZM22.5401 3.79703H15.5541V4.60297H22.5401V3.79703ZM15.1512 4.2V14H15.9571V4.2H15.1512ZM18.3401 6.96897H19.7541V6.16303H18.3401V6.96897ZM19.3512 6.566V11.634H20.1571V6.566H19.3512ZM19.7541 11.231H18.3401V12.037H19.7541V11.231ZM18.7431 11.634V6.566H17.9372V11.634H18.7431ZM23.5216 6.384L23.1377 6.26133L23.0196 6.63095L23.3845 6.76294L23.5216 6.384ZM24.8376 6.86L25.1669 7.09222L25.4712 6.66067L24.9746 6.48106L24.8376 6.86ZM24.0676 7.952L23.7382 7.71978L23.5067 8.04819L23.8344 8.28068L24.0676 7.952ZM25.2716 8.806L25.0384 9.13468L25.3635 9.36526L25.5977 9.04275L25.2716 8.806ZM26.0136 7.784L26.3375 7.54435L26.0105 7.10229L25.6875 7.54725L26.0136 7.784ZM26.7696 8.806L26.4456 9.04565L26.6787 9.36075L27.0001 9.13649L26.7696 8.806ZM27.9736 7.966L28.2041 8.29649L28.5332 8.06689L28.305 7.73684L27.9736 7.966ZM27.1896 6.832L27.0499 6.45402L26.5628 6.63402L26.8581 7.06116L27.1896 6.832ZM28.4776 6.356L28.6173 6.73398L28.9809 6.59958L28.8607 6.23099L28.4776 6.356ZM28.0436 5.026L28.4267 4.90099L28.3035 4.5237L27.9244 4.64105L28.0436 5.026ZM26.8676 5.39H26.4646V5.93656L26.9867 5.77495L26.8676 5.39ZM26.8676 4.06H27.2705V3.65703H26.8676V4.06ZM25.2156 4.06V3.65703H24.8126V4.06H25.2156ZM25.2156 5.418L25.0959 5.80278L25.6185 5.96539V5.418H25.2156ZM23.9556 5.026L24.0753 4.64122L23.6934 4.52243L23.5717 4.90333L23.9556 5.026ZM23.3845 6.76294L24.7005 7.23894L24.9746 6.48106L23.6586 6.00506L23.3845 6.76294ZM24.5082 6.62778L23.7382 7.71978L24.3969 8.18422L25.1669 7.09222L24.5082 6.62778ZM23.8344 8.28068L25.0384 9.13468L25.5047 8.47732L24.3007 7.62332L23.8344 8.28068ZM25.5977 9.04275L26.3397 8.02075L25.6875 7.54725L24.9455 8.56925L25.5977 9.04275ZM25.6896 8.02365L26.4456 9.04565L27.0935 8.56635L26.3375 7.54435L25.6896 8.02365ZM27.0001 9.13649L28.2041 8.29649L27.743 7.63551L26.539 8.47551L27.0001 9.13649ZM28.305 7.73684L27.521 6.60284L26.8581 7.06116L27.6421 8.19516L28.305 7.73684ZM27.3293 7.20998L28.6173 6.73398L28.3379 5.97802L27.0499 6.45402L27.3293 7.20998ZM28.8607 6.23099L28.4267 4.90099L27.6605 5.15101L28.0945 6.48101L28.8607 6.23099ZM27.9244 4.64105L26.7484 5.00505L26.9867 5.77495L28.1627 5.41095L27.9244 4.64105ZM27.2705 5.39V4.06H26.4646V5.39H27.2705ZM26.8676 3.65703H25.2156V4.46297H26.8676V3.65703ZM24.8126 4.06V5.418H25.6185V4.06H24.8126ZM25.3353 5.03322L24.0753 4.64122L23.8359 5.41078L25.0959 5.80278L25.3353 5.03322ZM23.5717 4.90333L23.1377 6.26133L23.9054 6.50667L24.3394 5.14867L23.5717 4.90333ZM32.2444 9.03H31.8415V9.43297H32.2444V9.03ZM32.2444 4.2H32.6474V3.79703H32.2444V4.2ZM29.4584 4.2V3.79703H29.0555V4.2H29.4584ZM29.4584 11.41H29.0555V11.813H29.4584V11.41ZM33.3784 11.41H33.7814V11.007H33.3784V11.41ZM33.3784 14H32.9755V14.403H33.3784V14ZM36.1644 14V14.403H36.5674V14H36.1644ZM36.1644 4.2H36.5674V3.79703H36.1644V4.2ZM33.3784 4.2V3.79703H32.9755V4.2H33.3784ZM33.3784 9.03V9.43297H33.7814V9.03H33.3784ZM32.6474 9.03V4.2H31.8415V9.03H32.6474ZM32.2444 3.79703H29.4584V4.60297H32.2444V3.79703ZM29.0555 4.2V11.41H29.8614V4.2H29.0555ZM29.4584 11.813H33.3784V11.007H29.4584V11.813ZM32.9755 11.41V14H33.7814V11.41H32.9755ZM33.3784 14.403H36.1644V13.597H33.3784V14.403ZM36.5674 14V4.2H35.7615V14H36.5674ZM36.1644 3.79703H33.3784V4.60297H36.1644V3.79703ZM32.9755 4.2V9.03H33.7814V4.2H32.9755ZM33.3784 8.62703H32.2444V9.43297H33.3784V8.62703ZM37.2787 14H36.8758V14.403H37.2787V14ZM44.2648 14V14.403H44.6677V14H44.2648ZM44.2648 4.2H44.6677V3.79703H44.2648V4.2ZM37.2787 4.2V3.79703H36.8758V4.2H37.2787ZM40.0648 6.566V6.16303H39.6618V6.566H40.0648ZM41.4787 6.566H41.8817V6.16303H41.4787V6.566ZM41.4787 11.634V12.037H41.8817V11.634H41.4787ZM40.0648 11.634H39.6618V12.037H40.0648V11.634ZM37.2787 14.403H44.2648V13.597H37.2787V14.403ZM44.6677 14V4.2H43.8618V14H44.6677ZM44.2648 3.79703H37.2787V4.60297H44.2648V3.79703ZM36.8758 4.2V14H37.6817V4.2H36.8758ZM40.0648 6.96897H41.4787V6.16303H40.0648V6.96897ZM41.0758 6.566V11.634H41.8817V6.566H41.0758ZM41.4787 11.231H40.0648V12.037H41.4787V11.231ZM40.4677 11.634V6.566H39.6618V11.634H40.4677Z" fill="#FFBC00"/>
</g>
<defs>
<filter id="filter0_d_2710_12168" x="6.21932" y="4.06" width="39.56" height="12.9691" filterUnits="userSpaceOnUse" color-interpolation-filters="sRGB">
<feFlood flood-opacity="0" result="BackgroundImageFix"/>
<feColorMatrix in="SourceAlpha" type="matrix" values="0 0 0 0 0 0 0 0 0 0 0 0 0 0 0 0 0 0 127 0" result="hardAlpha"/>
<feOffset dy="1.51456"/>
<feGaussianBlur stdDeviation="0.757282"/>
<feComposite in2="hardAlpha" operator="out"/>
<feColorMatrix type="matrix" values="0 0 0 0 0 0 0 0 0 0 0 0 0 0 0 0 0 0 0.25 0"/>
<feBlend mode="normal" in2="BackgroundImageFix" result="effect1_dropShadow_2710_12168"/>
<feBlend mode="normal" in="SourceGraphic" in2="effect1_dropShadow_2710_12168" result="shape"/>
</filter>
<linearGradient id="paint0_linear_2710_12168" x1="-0.638431" y1="-0.612779" x2="43.3349" y2="34.6759" gradientUnits="userSpaceOnUse">
<stop offset="0.074" stop-color="#FCFF57"/>
<stop offset="0.941" stop-color="#FFDB1F"/>
</linearGradient>
</defs>
</svg>
