<svg width="20" height="20" viewBox="0 0 20 20" fill="none" xmlns="http://www.w3.org/2000/svg">
<rect width="20" height="20" rx="1" fill="#35956E"/>
<path fill-rule="evenodd" clip-rule="evenodd" d="M9.5351 3H8.90155V3.63379H8.90137V3H8.26756V3.63377H8.26755V4.26758H8.90135V3.6338H8.90137V4.26759H9.53517V4.26758H10.1689V3.6338V3.63377V3H9.53535H9.5351ZM8.26755 4.26766H8.90135V4.90144V4.90146V5.53521V5.53524V6.16895H8.90138V6.80275H8.26758V6.16901H8.26755V5.53524V5.53521V4.90146V4.90144V4.26766ZM8.90155 4.26766H9.5351H9.53535H10.1689V4.90144V4.90146V5.53521V5.53524V6.16898V6.16901V6.80279H9.53535H9.5351H8.90155V6.16901V6.16898V5.53524V5.53521V4.90146V4.90144V4.26766ZM10.8029 3H10.1691V3.63377V3.6338V4.26758H10.8029V3.6338V3.63377V3ZM10.8029 4.26766H10.1691V4.90144V4.90146V5.53521V5.53524V6.16898V6.16901V6.80279H10.8029V6.16901V6.16898V5.53524V5.53521V4.90146V4.90144V4.26766ZM11.4366 3H10.8032V3.63377H10.8031V4.26758H11.4366H11.4369H12.0704V3.63377H12.0704V3H11.437H11.4366ZM10.8031 4.26766H11.4366H11.4369H12.0704V4.90144V4.90146V5.53521V5.53524V6.16901H12.0703V6.80275H11.4369V6.80279H10.8031V6.16901V6.16898V5.53524V5.53521V4.90146V4.90144V4.26766ZM8.90155 12.2958H9.5351H9.53535H10.1689V12.9296V12.9296V13.5634H10.1691V12.9296V12.9296V12.2958H10.8029V12.9296V12.9296V13.5634H10.8031V12.9296V12.9296V12.2958H11.4365V12.2958H12.0703V12.9296L11.4369 12.9296H12.0704V13.5634H12.0705L11.8702 18H8.47018L8.26972 13.5634H8.26755V12.9296H8.90135V13.5634H8.90155V12.9296V12.9296V12.2958ZM7 7.85916H7.6338V8.49294V8.49296V9.12671V9.12674V9.76051H7V9.12674V9.12671V8.49296V8.49294V7.85916ZM7.6338 7.22522H7V7.85902H7.6338V7.22522ZM7 9.7606H7.6338V10.3944V10.3944V11.0281V11.0282V11.6619V11.6619V12.2957H7V11.6619V11.6619V11.0282V11.0281V10.3944V10.3944V9.7606ZM7.634 7.22527H8.26755H8.26781H8.90135V7.85908H8.26781H8.26755H7.634V7.22527ZM8.26755 7.85916H7.634V8.49294V8.49296V9.12671V9.12674V9.76051H8.26755H8.26781H8.90135V9.12674V9.12671V8.49296V8.49294V7.85916H8.26781H8.26755ZM7.634 9.7606H8.26755H8.26781H8.90135V10.3944V10.3944V11.0281V11.0282V11.6619V11.6619V12.2957H8.26781H8.26755H7.634V11.6619V11.6619V11.0282V11.0281V10.3944V10.3944V9.7606ZM8.90138 12.2958H8.26758V12.9296H8.90138V12.2958ZM8.90155 7.22527H9.5351H9.53535H10.1689V7.85908H9.53535H9.5351H8.90155V7.22527ZM9.5351 7.85916H8.90155V8.49294V8.49296V9.12671V9.12674V9.76051H9.5351H9.53535H10.1689V9.12674V9.12671V8.49296V8.49294V7.85916H9.53535H9.5351ZM8.90155 9.7606H9.5351H9.53535H10.1689V10.3944V10.3944V11.0281V11.0282V11.6619V11.6619V12.2957H9.53535H9.5351H8.90155V11.6619V11.6619V11.0282V11.0281V10.3944V10.3944V9.7606ZM10.1691 7.22527H10.8029V7.85908H10.1691V7.22527ZM10.8029 7.85916H10.1691V8.49294V8.49296V9.12671V9.12674V9.76051H10.8029V9.12674V9.12671V8.49296V8.49294V7.85916ZM10.1691 9.7606H10.8029V10.3944V10.3944V11.0281V11.0282V11.6619V11.6619V12.2957H10.1691V11.6619V11.6619V11.0282V11.0281V10.3944V10.3944V9.7606ZM11.4366 7.22527H10.8031V7.85908H11.4366H11.4369H12.0704V7.22527H11.4369H11.4366ZM10.8031 7.85916H11.4366H11.4369H12.0704V8.49294V8.49296V9.12671V9.12674V9.76051H11.4369H11.4366H10.8031V9.12674V9.12671V8.49296V8.49294V7.85916ZM11.4366 9.7606H10.8031V10.3944V10.3944V11.0281V11.0282V11.6619V11.6619V12.2957H11.4366H11.4369H12.0704V11.6619V11.6619V11.0282V11.0281V10.3944V10.3944V9.7606H11.4369H11.4366ZM12.7045 7.85902H13.3379V7.22522H12.7041V7.22527H12.0706V7.85908H12.7045V7.85902ZM12.7042 7.85916H12.0706V8.49294V8.49296V9.12671V9.12674V9.76051H12.7042H12.7045H13.338V9.12674V9.12671V8.49296V8.49294V7.85916H12.7045H12.7042ZM12.0706 9.7606H12.7042H12.7045H13.338V10.3944V10.3944V11.0281V11.0282V11.6619V11.6619V12.2957H12.7045H12.7042H12.0706V11.6619V11.6619V11.0282V11.0281V10.3944V10.3944V9.7606Z" fill="white"/>
</svg>
