<svg width="21" height="21" viewBox="0 0 21 21" fill="none" xmlns="http://www.w3.org/2000/svg">
<path d="M19 0C20.1046 0 21 0.895431 21 2V19C21 20.1046 20.1046 21 19 21H10.5H2C0.89543 21 0 20.1046 0 19V2C0 0.89543 0.895431 0 2 0H10.5H19Z" fill="#FF5CD1"/>
<path d="M15.7273 15.3636H15.1818V8.81818C15.1818 8.21818 14.6909 7.72727 14.0909 7.72727H11.9091V15.3636H11.3636V6.09091C11.3636 5.49091 10.8727 5 10.2727 5H5.90909C5.30909 5 4.81819 5.4909 4.81819 6.0909V15.3636H4.27272C4.10909 15.3636 4 15.4727 4 15.6364V16.1818C4 16.3455 4.1091 16.4546 4.27273 16.4546H15.7273C15.8909 16.4546 16 16.3455 16 16.1818V15.6364C16 15.4727 15.8909 15.3636 15.7273 15.3636V15.3636ZM7.54545 12.9091C7.54545 13.0727 7.43636 13.1818 7.27273 13.1818H6.18182C6.01818 13.1818 5.90909 13.0727 5.90909 12.9091V12.3636C5.90909 12.2 6.01819 12.0909 6.18182 12.0909H7.27272C7.43636 12.0909 7.54545 12.2 7.54545 12.3636V12.9091ZM7.54545 10.7273C7.54545 10.8909 7.43636 11 7.27273 11H6.18182C6.01818 11 5.90909 10.8909 5.90909 10.7273V10.1818C5.90909 10.0182 6.01819 9.90909 6.18182 9.90909H7.27272C7.43636 9.90909 7.54545 10.0182 7.54545 10.1818V10.7273ZM7.54545 8.54545C7.54545 8.70909 7.43636 8.81818 7.27273 8.81818H6.18182C6.01818 8.81818 5.90909 8.70908 5.90909 8.54545V8C5.90909 7.83636 6.01819 7.72727 6.18182 7.72727H7.27272C7.43636 7.72727 7.54545 7.83637 7.54545 8V8.54545ZM10.2727 12.9091C10.2727 13.0727 10.1636 13.1818 10 13.1818H8.9091C8.74545 13.1818 8.63636 13.0727 8.63636 12.9091V12.3636C8.63636 12.2 8.74546 12.0909 8.90909 12.0909H10C10.1636 12.0909 10.2727 12.2 10.2727 12.3636V12.9091ZM10.2727 10.7273C10.2727 10.8909 10.1636 11 10 11H8.9091C8.74545 11 8.63636 10.8909 8.63636 10.7273V10.1818C8.63636 10.0182 8.74546 9.90909 8.90909 9.90909H10C10.1636 9.90909 10.2727 10.0182 10.2727 10.1818V10.7273ZM10.2727 8.54545C10.2727 8.70909 10.1636 8.81818 10 8.81818H8.9091C8.74545 8.81818 8.63636 8.70908 8.63636 8.54545V8C8.63636 7.83636 8.74546 7.72727 8.90909 7.72727H10C10.1636 7.72727 10.2727 7.83637 10.2727 8V8.54545ZM14.3636 12.9091C14.3636 13.0727 14.2546 13.1818 14.0909 13.1818H13C12.8364 13.1818 12.7273 13.0727 12.7273 12.9091V12.3636C12.7273 12.2 12.8364 12.0909 13 12.0909H14.0909C14.2546 12.0909 14.3636 12.2 14.3636 12.3636V12.9091H14.3636ZM14.3636 10.7273C14.3636 10.8909 14.2546 11 14.0909 11H13C12.8364 11 12.7273 10.8909 12.7273 10.7273V10.1818C12.7273 10.0182 12.8364 9.90909 13 9.90909H14.0909C14.2546 9.90909 14.3636 10.0182 14.3636 10.1818V10.7273H14.3636Z" fill="white"/>
</svg>
