<svg width="40" height="40" viewBox="0 0 40 40" fill="none" xmlns="http://www.w3.org/2000/svg">
<path d="M35.7813 34.2427C35.7813 34.9669 35.1883 35.5599 34.4629 35.5599H5.45239C4.727 35.5599 4.13403 34.9669 4.13403 34.2427V10.5071C4.13403 9.78096 4.727 9.18799 5.45239 9.18799H34.4629C35.1883 9.18799 35.7813 9.78096 35.7813 10.5071V34.2427Z" fill="#A89DB5"/>
<path d="M35.7813 32.9231C35.7813 33.6473 35.1883 34.2422 34.4629 34.2422H5.45239C4.727 34.2422 4.13403 33.6473 4.13403 32.9231V9.18795C4.13403 8.46177 4.727 7.8688 5.45239 7.8688H34.4629C35.1883 7.8688 35.7813 8.46177 35.7813 9.18795V32.9231Z" fill="#D2CCD9"/>
<path d="M35.847 31.6531C35.847 32.3792 35.254 32.9722 34.5286 32.9722H5.51807C4.79268 32.9722 4.19971 32.3792 4.19971 31.6531V7.91753C4.19971 7.19331 4.79268 6.60034 5.51807 6.60034H34.5286C35.254 6.60034 35.847 7.19331 35.847 7.91753V31.6531Z" fill="#F9F9FA"/>
<path d="M34.4629 6.55078H5.45239C4.727 6.55078 4.13403 7.14375 4.13403 7.86797V11.8238H35.7813V7.86797C35.7813 7.14375 35.1883 6.55078 34.4629 6.55078Z" fill="#FF2171"/>
<path d="M10.068 4.57349C9.70391 4.57349 9.4082 4.86724 9.4082 5.23208V9.18794C9.4082 9.55122 9.70351 9.84653 10.068 9.84653C10.432 9.84653 10.7277 9.55122 10.7277 9.18794V5.23247C10.7277 4.86724 10.432 4.57349 10.068 4.57349ZM16.6613 4.57349C16.2973 4.57349 16.0016 4.86724 16.0016 5.23208V9.18794C16.0016 9.55122 16.2969 9.84653 16.6613 9.84653C17.0254 9.84653 17.3199 9.55122 17.3199 9.18794V5.23247C17.3199 4.86724 17.0254 4.57349 16.6613 4.57349ZM23.2539 4.57349C22.8898 4.57349 22.5953 4.86724 22.5953 5.23208V9.18794C22.5953 9.55122 22.8898 9.84653 23.2539 9.84653C23.618 9.84653 23.9137 9.55122 23.9137 9.18794V5.23247C23.9137 4.86724 23.618 4.57349 23.2539 4.57349ZM29.8473 4.57349C29.4832 4.57349 29.1875 4.86724 29.1875 5.23208V9.18794C29.1875 9.55122 29.4828 9.84653 29.8473 9.84653C30.2113 9.84653 30.507 9.55122 30.507 9.18794V5.23247C30.507 4.86724 30.2117 4.57349 29.8473 4.57349Z" fill="#E6E9ED"/>
<path d="M10.2906 20.5816H13.0906C13.7506 20.5816 14.2906 20.0416 14.2906 19.3816C14.2906 18.7216 13.7506 18.1816 13.0906 18.1816H10.2906C9.63058 18.1816 9.09058 18.7216 9.09058 19.3816C9.09058 20.0416 9.63058 20.5816 10.2906 20.5816Z" fill="#FF2171"/>
<path d="M18.3997 20.5816H21.1997C21.8597 20.5816 22.3997 20.0416 22.3997 19.3816C22.3997 18.7216 21.8597 18.1816 21.1997 18.1816H18.3997C17.7397 18.1816 17.1997 18.7216 17.1997 19.3816C17.1997 20.0416 17.7397 20.5816 18.3997 20.5816Z" fill="#FF2171"/>
<path d="M26.5088 20.5816H29.3088C29.9688 20.5816 30.5088 20.0416 30.5088 19.3816C30.5088 18.7216 29.9688 18.1816 29.3088 18.1816H26.5088C25.8488 18.1816 25.3088 18.7216 25.3088 19.3816C25.3088 20.0416 25.8488 20.5816 26.5088 20.5816Z" fill="#FF2171"/>
<path d="M10.2906 25.7816H13.0906C13.7506 25.7816 14.2906 25.2416 14.2906 24.5816C14.2906 23.9216 13.7506 23.3816 13.0906 23.3816H10.2906C9.63058 23.3816 9.09058 23.9216 9.09058 24.5816C9.09058 25.2416 9.63058 25.7816 10.2906 25.7816Z" fill="#FF2171"/>
<path d="M18.3997 25.7816H21.1997C21.8597 25.7816 22.3997 25.2416 22.3997 24.5816C22.3997 23.9216 21.8597 23.3816 21.1997 23.3816H18.3997C17.7397 23.3816 17.1997 23.9216 17.1997 24.5816C17.1997 25.2416 17.7397 25.7816 18.3997 25.7816Z" fill="#FF2171"/>
<path d="M26.5088 25.7816H29.3088C29.9688 25.7816 30.5088 25.2416 30.5088 24.5816C30.5088 23.9216 29.9688 23.3816 29.3088 23.3816H26.5088C25.8488 23.3816 25.3088 23.9216 25.3088 24.5816C25.3088 25.2416 25.8488 25.7816 26.5088 25.7816Z" fill="#FF2171"/>
</svg>
