<svg width="46" height="46" viewBox="0 0 46 46" fill="none" xmlns="http://www.w3.org/2000/svg">
<g clip-path="url(#clip0_1797_51773)">
<path d="M38.555 38.9147C47.1464 30.3233 47.1464 16.3938 38.555 7.80232C29.9635 -0.789131 16.034 -0.789131 7.44255 7.80232C-1.1489 16.3938 -1.1489 30.3233 7.44255 38.9147C16.034 47.5062 29.9635 47.5062 38.555 38.9147Z" fill="#06C4FF"/>
<path d="M29.7823 39.1226C38.4887 35.3769 42.5102 25.2825 38.7645 16.5761C35.0188 7.86963 24.9244 3.84815 16.218 7.59383C7.51156 11.3395 3.49008 21.4339 7.23576 30.1403C10.9814 38.8468 21.0759 42.8682 29.7823 39.1226Z" fill="#F8F8F8"/>
<path d="M23 8.37909C22.4334 8.37909 21.9702 8.83846 21.9702 9.40884V11.8129C21.9702 12.3794 22.4296 12.8426 23 12.8426C23.5665 12.8426 24.0297 12.3833 24.0297 11.8129V9.40884C24.0297 8.83846 23.5704 8.37909 23 8.37909Z" fill="#9B8BB4"/>
<path d="M23 33.8779C22.4334 33.8779 21.9702 34.3373 21.9702 34.9077V37.3117C21.9702 37.8783 22.4296 38.3415 23 38.3415C23.5665 38.3415 24.0297 37.8821 24.0297 37.3117V34.9077C24.0297 34.3411 23.5704 33.8779 23 33.8779Z" fill="#9B8BB4"/>
<path d="M31.8926 15.9206L33.5923 14.221C33.9942 13.819 33.9942 13.1683 33.5923 12.7663C33.1903 12.3644 32.5396 12.3644 32.1376 12.7663L30.4379 14.466C30.036 14.8679 30.036 15.5187 30.4379 15.9206C30.8399 16.3226 31.4907 16.3226 31.8926 15.9206Z" fill="#9B8BB4"/>
<path d="M14.1073 30.7998L12.4077 32.4994C12.0057 32.9014 12.0057 33.5521 12.4077 33.9541C12.8096 34.356 13.4604 34.356 13.8623 33.9541L15.562 32.2544C15.964 31.8525 15.964 31.2017 15.562 30.7998C15.1601 30.3978 14.5093 30.3978 14.1073 30.7998Z" fill="#9B8BB4"/>
<path d="M36.9534 22.332H34.5455C33.9789 22.332 33.5157 22.7914 33.5157 23.3618C33.5157 23.9283 33.9751 24.3915 34.5455 24.3915H36.9534C37.5199 24.3915 37.9831 23.9322 37.9831 23.3618C37.9831 22.7914 37.5237 22.332 36.9534 22.332Z" fill="#9B8BB4"/>
<path d="M12.4804 23.3579C12.4804 22.7913 12.021 22.3281 11.4506 22.3281H9.0466C8.48004 22.3281 8.01685 22.7875 8.01685 23.3579C8.01685 23.9244 8.47622 24.3876 9.0466 24.3876H11.4506C12.021 24.3876 12.4804 23.9283 12.4804 23.3579Z" fill="#9B8BB4"/>
<path d="M31.8926 30.7998C31.4907 30.3978 30.8399 30.3978 30.4379 30.7998C30.036 31.2017 30.036 31.8525 30.4379 32.2544L32.1376 33.9541C32.5396 34.356 33.1903 34.356 33.5923 33.9541C33.9942 33.5521 33.9942 32.9014 33.5923 32.4994L31.8926 30.7998Z" fill="#9B8BB4"/>
<path d="M13.8586 12.7663C13.4566 12.3644 12.8058 12.3644 12.4039 12.7663C12.0019 13.1683 12.0019 13.819 12.4039 14.221L14.1035 15.9206C14.5055 16.3226 15.1563 16.3226 15.5582 15.9206C15.9602 15.5187 15.9602 14.8679 15.5582 14.466L13.8586 12.7663Z" fill="#9B8BB4"/>
<path d="M28.6618 17.696C28.2598 17.294 27.609 17.294 27.2071 17.696L23.6853 21.2178C23.2833 21.6198 23.2833 22.2706 23.6853 22.6725C23.8843 22.8716 24.1484 22.9749 24.4126 22.9749C24.6767 22.9749 24.937 22.8754 25.1399 22.6725L28.6618 19.1507C29.0637 18.7487 29.0637 18.0979 28.6618 17.696Z" fill="#3F216C"/>
<path d="M24.9982 23.3578C24.9982 24.4603 24.1025 25.3561 23 25.3561C21.8975 25.3561 21.0017 24.4603 21.0017 23.3578C21.0017 22.2553 21.8975 21.3596 23 21.3596C24.1025 21.3596 24.9982 22.2553 24.9982 23.3578Z" fill="#FF2171"/>
</g>
<defs>
<clipPath id="clip0_1797_51773">
<rect width="46" height="46" fill="white"/>
</clipPath>
</defs>
</svg>
