<svg width="19" height="19" viewBox="0 0 19 19" fill="none" xmlns="http://www.w3.org/2000/svg">
<g clip-path="url(#clip0_3814_21064)">
<path d="M9.99136 0.274414C14.9605 0.274414 18.9878 4.30175 18.9878 9.2709C18.9878 14.2401 14.9605 18.2674 9.99136 18.2674C5.02221 18.2674 0.994873 14.2401 0.994873 9.2709C0.994873 4.30175 5.02396 0.274414 9.99136 0.274414Z" fill="#F0B90B"/>
<path d="M9.99324 2.85596V11.8208L13.9327 9.45924L9.99324 2.85596ZM9.99324 15.6865L13.9327 10.0303L9.99324 12.413V15.6865ZM9.99324 2.85596V11.8208L6.052 9.45924L9.99324 2.85596Z" fill="white"/>
<path d="M9.99324 12.4129V15.6865L6.052 10.0303L9.99324 12.4129Z" fill="white"/>
</g>
<defs>
<clipPath id="clip0_3814_21064">
<rect width="18" height="18" fill="white" transform="translate(0.989624 0.267578)"/>
</clipPath>
</defs>
</svg>
