<svg width="16" height="16" viewBox="0 0 16 16" fill="none" xmlns="http://www.w3.org/2000/svg">
<g opacity="0.85">
<path d="M14 2.5H2C1.72391 2.5 1.5 2.72391 1.5 3V13C1.5 13.2761 1.72391 13.5 2 13.5H14C14.2761 13.5 14.5 13.2761 14.5 13V3C14.5 2.72391 14.2761 2.5 14 2.5ZM13.5 3.5V10.8752L9.95 8.21266C9.68484 8.01391 9.31531 8.01391 9.05016 8.21266L7.50984 9.36766L5.45625 7.72484C5.19891 7.51875 4.84266 7.50313 4.56859 7.6875L2.5 9.07844V3.5H13.5ZM2.5 12.5V10.2837L4.97437 8.62L7.49031 10.6325L9.5 9.125L13.5 12.125V12.5H2.5Z" fill="white"/>
<path d="M11 7.5C11.8272 7.5 12.5 6.82719 12.5 6C12.5 5.17281 11.8272 4.5 11 4.5C10.1728 4.5 9.5 5.17281 9.5 6C9.5 6.82719 10.1728 7.5 11 7.5ZM11 5.5C11.2756 5.5 11.5 5.72438 11.5 6C11.5 6.27562 11.2756 6.5 11 6.5C10.7244 6.5 10.5 6.27562 10.5 6C10.5 5.72438 10.7244 5.5 11 5.5Z" fill="white"/>
</g>
</svg>
