<svg width="20" height="20" viewBox="0 0 20 20" fill="none" xmlns="http://www.w3.org/2000/svg">
<path d="M6.045 10.565L5.455 9.97584L13.5767 1.85167C13.7333 1.69651 13.9449 1.60947 14.1654 1.60947C14.3859 1.60947 14.5975 1.69651 14.7542 1.85167C14.8319 1.92883 14.8936 2.02058 14.9357 2.12167C14.9778 2.22275 14.9995 2.33116 14.9996 2.44067C14.9997 2.55017 14.9781 2.65861 14.9361 2.75975C14.8942 2.86089 14.8326 2.95274 14.755 3.03001L7.81333 9.97418L14.755 16.9125C14.8326 16.9897 14.8942 17.0814 14.9363 17.1824C14.9783 17.2835 15 17.3918 15 17.5013C15 17.6107 14.9783 17.7191 14.9363 17.8201C14.8942 17.9211 14.8326 18.0129 14.755 18.09C14.5985 18.2456 14.3869 18.3332 14.1662 18.3335C13.9455 18.3338 13.7336 18.2469 13.5767 18.0917L6.07916 10.5975L6.045 10.5642L6.045 10.565Z" fill="white"/>
</svg>
