<svg width="82" height="82" viewBox="0 0 82 82" fill="none" xmlns="http://www.w3.org/2000/svg">
<path d="M53 34H51V30C51 24.48 46.52 20 41 20C35.48 20 31 24.48 31 30V34H29C26.79 34 25 35.79 25 38V57.9999C25 60.21 26.79 62 29 62H53C55.21 62 57 60.21 57 57.9999V38C57 35.79 55.21 34 53 34ZM41 51.9999C38.79 51.9999 37 50.2099 37 47.9999C37 45.7899 38.79 43.9999 41 43.9999C43.21 43.9999 45 45.7899 45 47.9999C45 50.21 43.21 51.9999 41 51.9999ZM47.2 34H34.8V30C34.8 26.58 37.58 23.8 41 23.8C44.42 23.8 47.2 26.58 47.2 30V34Z" fill="#B9B9B9"/>
<path d="M80 41C80 62.5391 62.5391 80 41 80C19.4609 80 2 62.5391 2 41C2 19.4609 19.4609 2 41 2C62.5391 2 80 19.4609 80 41Z" stroke="#B9B9B9" stroke-width="4"/>
</svg>
