<svg width="18" height="18" viewBox="0 0 18 18" fill="none" xmlns="http://www.w3.org/2000/svg">
<path d="M16.0241 11.4538V15.1312C16.0241 15.764 15.4897 16.2948 14.8605 16.2948L2.56279 16.3159C1.9335 16.3159 1.42022 15.8026 1.42022 15.1698L1.44131 2.87217C1.44131 2.24287 1.97568 1.7085 2.60498 1.7085H9.40772V0.35498H2.60498C1.16709 0.35498 0.0913086 1.81045 0.0913086 3.11123V15.1698C0.0913086 16.5339 1.19873 17.6448 2.56631 17.6448H14.6249C16.0663 17.6448 17.3776 16.446 17.3776 15.1312V11.4538H16.0241Z" fill="#06C4FF"/>
<path d="M6.06774 11.9649C6.02668 12.059 6 12.161 6 12.2711C6 12.6734 6.30641 13 6.68397 13C7.01424 13 7.27697 12.7456 7.34122 12.4132H7.3549C8.14829 8.09208 11.5009 4.75351 15.6621 4.25202L14.2135 5.79592C13.9461 6.08091 13.9461 6.54236 14.2135 6.82661C14.4809 7.11165 14.9138 7.11165 15.1805 6.82661L17.7994 4.03548C18.0669 3.75054 18.0669 3.28908 17.7994 3.00479L15.1805 0.213777C14.9131 -0.0712591 14.4802 -0.0712591 14.2135 0.213777C13.9461 0.49872 13.9461 0.960124 14.2135 1.24446L15.6566 2.7825C10.8888 3.28841 7.04094 7.05914 6.06774 11.9649Z" fill="#06C4FF"/>
</svg>
