<svg width="14" height="14" viewBox="0 0 14 14" fill="none" xmlns="http://www.w3.org/2000/svg">
<g clip-path="url(#clip0_1132_40859)">
<path d="M6.99727 -3.05176e-05C10.8622 -3.05176e-05 13.9945 3.13234 13.9945 6.99724C13.9945 10.8621 10.8622 13.9945 6.99727 13.9945C3.13237 13.9945 0 10.8621 0 6.99724C0 3.13234 3.13374 -3.05176e-05 6.99727 -3.05176e-05Z" fill="#FFCA0E"/>
<path d="M3.96002 4.288V10H4.89602V6.064H4.92802L6.60802 10H7.41602L9.09602 6.064H9.12802V10H10.064V4.288H8.96802L7.03202 8.768H7.00002L5.05602 4.288H3.96002Z" fill="white"/>
<path d="M3.96002 4.288V4.138H3.81002V4.288H3.96002ZM3.96002 10H3.81002V10.15H3.96002V10ZM4.89602 10V10.15H5.04602V10H4.89602ZM4.89602 6.064V5.914H4.74602V6.064H4.89602ZM4.92802 6.064L5.06598 6.00512L5.02709 5.914H4.92802V6.064ZM6.60802 10L6.47007 10.0589L6.50896 10.15H6.60802V10ZM7.41602 10V10.15H7.51509L7.55398 10.0589L7.41602 10ZM9.09602 6.064V5.914H8.99696L8.95807 6.00512L9.09602 6.064ZM9.12802 6.064H9.27802V5.914H9.12802V6.064ZM9.12802 10H8.97802V10.15H9.12802V10ZM10.064 10V10.15H10.214V10H10.064ZM10.064 4.288H10.214V4.138H10.064V4.288ZM8.96802 4.288V4.138H8.86944L8.83033 4.2285L8.96802 4.288ZM7.03202 8.768V8.918H7.13061L7.16972 8.8275L7.03202 8.768ZM7.00002 8.768L6.86242 8.82771L6.9016 8.918H7.00002V8.768ZM5.05602 4.288L5.19363 4.22829L5.15445 4.138H5.05602V4.288ZM3.81002 4.288V10H4.11002V4.288H3.81002ZM3.96002 10.15H4.89602V9.85H3.96002V10.15ZM5.04602 10V6.064H4.74602V10H5.04602ZM4.89602 6.214H4.92802V5.914H4.89602V6.214ZM4.79007 6.12288L6.47007 10.0589L6.74598 9.94112L5.06598 6.00512L4.79007 6.12288ZM6.60802 10.15H7.41602V9.85H6.60802V10.15ZM7.55398 10.0589L9.23398 6.12288L8.95807 6.00512L7.27807 9.94112L7.55398 10.0589ZM9.09602 6.214H9.12802V5.914H9.09602V6.214ZM8.97802 6.064V10H9.27802V6.064H8.97802ZM9.12802 10.15H10.064V9.85H9.12802V10.15ZM10.214 10V4.288H9.91402V10H10.214ZM10.064 4.138H8.96802V4.438H10.064V4.138ZM8.83033 4.2285L6.89433 8.7085L7.16972 8.8275L9.10572 4.3475L8.83033 4.2285ZM7.03202 8.618H7.00002V8.918H7.03202V8.618ZM7.13763 8.70829L5.19363 4.22829L4.91842 4.34771L6.86242 8.82771L7.13763 8.70829ZM5.05602 4.138H3.96002V4.438H5.05602V4.138Z" fill="white"/>
</g>
<defs>
<clipPath id="clip0_1132_40859">
<rect width="14" height="14" fill="white"/>
</clipPath>
</defs>
</svg>
