<svg width="35" height="50" viewBox="0 0 35 50" fill="none" xmlns="http://www.w3.org/2000/svg">
<path d="M22.2359 49.4258H12.4706C5.99337 49.4258 0.749924 44.1183 0.749924 37.5655V19.7692H12.5986V23.7207C12.5986 25.903 14.2223 27.6722 16.3813 27.6722H18.3367C20.4958 27.6722 22.2475 25.903 22.2475 23.7207V19.7692H34.0962V37.5597C34.0845 44.1125 28.7131 49.4258 22.2359 49.4258ZM20.2863 16.8012V22.7313C20.2863 24.3725 18.9769 25.6993 17.359 25.6993C15.7412 25.6993 14.426 24.3725 14.426 22.7313V16.8012C14.426 15.1659 15.6772 13.839 17.295 13.839C18.9129 13.839 20.2863 15.1659 20.2863 16.8012Z" fill="white"/>
<path d="M16.4395 11.8604L16.4977 0.122234V2.28882e-05H12.5928C6.2436 2.28882e-05 0.749901 4.20177 0.749901 11.8545V17.6625H12.5928V15.8119C12.5928 13.6295 14.2805 11.8604 16.4395 11.8604Z" fill="#06C4FF"/>
<path d="M18.4104 11.8603L18.3522 0.122226V1.52588e-05H22.2572C28.6063 1.52588e-05 34.1 4.20176 34.1 11.8545V17.6625H22.2572V15.8119C22.2572 13.6295 20.5695 11.8603 18.4104 11.8603Z" fill="white"/>
</svg>
