<svg width="23" height="34" viewBox="0 0 23 34" fill="none" xmlns="http://www.w3.org/2000/svg">
<path d="M14.4906 33.2839H7.98046C3.66232 33.2839 0.166687 29.7456 0.166687 25.377V13.5128H8.06581V16.1471C8.06581 17.602 9.14826 18.7815 10.5876 18.7815H11.8912C13.3306 18.7815 14.4984 17.602 14.4984 16.1471V13.5128H22.3975V25.3731C22.3898 29.7417 18.8088 33.2839 14.4906 33.2839ZM14.4906 10.8784C14.4906 9.41966 13.284 8.2441 11.8447 8.2441L11.8835 0.418691V0.329254C11.8835 0.329254 12.1049 0.337217 14.4092 0.337217C18.642 0.337217 22.3471 3.13838 22.3471 8.2441C22.3471 10.8668 22.3859 11.8135 22.3859 12.1161H14.4906V10.8784ZM13.1909 11.5341V15.4876C13.1909 16.5816 12.318 17.4662 11.2394 17.4662C10.1609 17.4662 9.28405 16.5816 9.28405 15.4876V11.5341C9.28405 10.4439 10.1182 9.55933 11.1968 9.55933C12.2753 9.55933 13.1909 10.4439 13.1909 11.5341Z" fill="#C4C4C4"/>
<path d="M10.6264 8.24023L10.6652 0.414817V0.332031C10.6652 0.332031 10.2842 0.333344 8.06193 0.333344C3.82915 0.333344 0.166687 3.13451 0.166687 8.23635V12.1083H8.06193V10.8746C8.06193 9.41967 9.18705 8.24023 10.6264 8.24023Z" fill="white"/>
</svg>
