<svg width="14" height="15" viewBox="0 0 14 15" fill="none" xmlns="http://www.w3.org/2000/svg">
<g clip-path="url(#clip0_5416_23849)">
<path d="M10.6804 9.39436C10.8385 10.1288 10.9779 10.7934 11.0988 11.3884C11.1545 11.6394 11.2057 11.8904 11.2521 12.1414C11.2986 12.3924 11.3428 12.6201 11.3846 12.8246C11.4264 13.0292 11.4613 13.2035 11.4892 13.3475C11.5171 13.4916 11.5357 13.5823 11.545 13.6195C11.5729 13.8054 11.531 13.9286 11.4195 13.989C11.3079 14.0494 11.1824 14.0796 11.043 14.0796C10.9965 14.0796 10.9291 14.0633 10.8408 14.0308C10.7525 13.9983 10.6851 13.9727 10.6386 13.9541L6.99915 11.8346C6.33912 12.225 5.73952 12.5736 5.20034 12.8804C4.96794 13.0106 4.73786 13.1407 4.5101 13.2709C4.28235 13.401 4.07551 13.5218 3.88959 13.6334C3.70366 13.745 3.5433 13.8379 3.40851 13.9123C3.27372 13.9867 3.18308 14.0331 3.1366 14.0517C3.04364 14.0982 2.94835 14.1145 2.85074 14.1005C2.75313 14.0866 2.66482 14.0517 2.5858 13.996C2.50678 13.9402 2.44868 13.8728 2.4115 13.7938C2.37431 13.7147 2.36502 13.6334 2.38361 13.5497C2.39291 13.5126 2.41615 13.4219 2.45333 13.2778C2.49052 13.1337 2.53235 12.9618 2.57883 12.7619C2.62531 12.562 2.67876 12.3412 2.73919 12.0995C2.79961 11.8578 2.86236 11.6115 2.92743 11.3605C3.06688 10.7841 3.22491 10.1334 3.40154 9.4083C2.85307 8.9342 2.36037 8.51122 1.92345 8.13938C1.73753 7.98134 1.55393 7.82563 1.37265 7.67225C1.19138 7.51886 1.0287 7.37942 0.884606 7.25392C0.740515 7.12842 0.62199 7.02616 0.529028 6.94715C0.436067 6.86813 0.384938 6.82397 0.375642 6.81468C0.264088 6.71242 0.168802 6.59854 0.089785 6.47304C0.0107677 6.34754 -0.0194448 6.21972 -0.000852463 6.08958C0.0177398 5.95943 0.0688687 5.85717 0.152534 5.7828C0.236199 5.70843 0.329161 5.66195 0.431419 5.64336L4.74018 5.25292L6.34377 1.51587C6.39955 1.36713 6.47856 1.23931 6.58082 1.1324C6.68308 1.0255 6.82252 0.972046 6.99915 0.972046C7.09211 0.972046 7.17345 0.992962 7.24317 1.03479C7.31289 1.07663 7.37099 1.12543 7.41748 1.18121C7.46396 1.23699 7.50346 1.29276 7.536 1.34854C7.56854 1.40432 7.5941 1.4508 7.61269 1.48798L9.17445 5.22503L13.4832 5.62942C13.6691 5.6759 13.7993 5.73167 13.8737 5.79675C13.948 5.86182 13.9852 5.96408 13.9852 6.10352C13.9852 6.23367 13.9457 6.34754 13.8667 6.44515C13.7877 6.54276 13.6877 6.66129 13.5669 6.80073L10.6804 9.39436Z" fill="currentColor"/>
</g>
<defs>
<clipPath id="clip0_5416_23849">
<rect width="14" height="14" fill="white" transform="translate(0 0.972168)"/>
</clipPath>
</defs>
</svg>
