<svg width="20" height="20" viewBox="0 0 20 20" fill="none" xmlns="http://www.w3.org/2000/svg">
<path d="M13.955 10.565L14.545 9.97584L6.42335 1.85167C6.26669 1.69651 6.0551 1.60947 5.8346 1.60947C5.6141 1.60947 5.40252 1.69651 5.24585 1.85167C5.16814 1.92883 5.10645 2.02058 5.06433 2.12167C5.02221 2.22275 5.00048 2.33116 5.00041 2.44067C5.00033 2.55017 5.0219 2.65861 5.06388 2.75975C5.10586 2.86089 5.16742 2.95274 5.24502 3.03001L12.1867 9.97418L5.24502 16.9125C5.16739 16.9897 5.10578 17.0814 5.06374 17.1824C5.0217 17.2835 5.00006 17.3918 5.00006 17.5013C5.00006 17.6107 5.0217 17.7191 5.06374 17.8201C5.10578 17.9211 5.16739 18.0129 5.24502 18.09C5.4015 18.2456 5.61314 18.3332 5.83384 18.3335C6.05455 18.3338 6.26643 18.2469 6.42335 18.0917L13.9209 10.5975L13.955 10.5642L13.955 10.565Z" fill="white"/>
</svg>
