<svg width="82" height="82" viewBox="0 0 82 82" fill="none" xmlns="http://www.w3.org/2000/svg">
<g clip-path="url(#clip0_1167_42528)">
<path fill-rule="evenodd" clip-rule="evenodd" d="M47.4508 0.506769C37.8114 -1.02271 27.9425 0.935885 19.6183 6.03043C18.451 6.74486 17.3247 7.51439 16.2427 8.3351C14.2001 9.88212 12.2948 11.6265 10.5571 13.5523C4.01958 20.7977 0.281695 30.137 0.0155074 39.8912C-0.234441 49.0502 2.59195 58.0109 8.01498 65.3548L8.03849 65.3358C11.7846 70.4091 16.6791 74.5875 22.3763 77.4965C25.4875 79.085 28.765 80.2577 32.1265 81.0048L32.1205 81.0271C41.0342 83.0043 50.373 81.9529 58.6453 78.0096C61.2047 76.7896 63.6132 75.3161 65.8399 73.6208C68.5222 71.5817 70.9581 69.2084 73.0827 66.544L73.0767 66.5396C75.2194 63.8488 77.0298 60.8804 78.4502 57.6934C81.0565 51.8459 82.2378 45.5145 81.9606 39.2087H81.9854C81.5887 30.0889 78.1558 21.3425 72.205 14.3744C65.8676 6.95348 57.0901 2.03625 47.4508 0.506769ZM19.4736 12.5957C13.7059 16.971 9.38299 23.0189 7.124 29.955C4.49633 38.0231 4.83365 46.7638 8.07532 54.6055C11.317 62.4473 17.2504 68.8756 24.8087 72.7349C32.367 76.5941 41.0544 77.6311 49.309 75.6593C54.1668 74.499 58.6871 72.3415 62.6032 69.3646C67.3305 65.7645 71.1152 61.0147 73.5655 55.5172C77.0198 47.7667 77.5955 39.0385 75.1889 30.9017C72.7823 22.7649 67.5513 15.7534 60.4365 11.1276C53.3216 6.50185 44.7896 4.56535 36.3743 5.66629C30.1966 6.47449 24.3794 8.8807 19.4736 12.5957Z" fill="#DFBFBF"/>
<path d="M55.3569 30.1723L56.0471 29.482L55.3569 28.7918L53.2082 26.6431L52.5179 25.9528L51.8276 26.6431L40.9999 37.4708L30.1722 26.6431L29.482 25.9528L28.7917 26.6431L26.643 28.7918L25.9527 29.482L26.643 30.1723L37.4707 41L26.643 51.8277L25.9527 52.518L26.643 53.2082L28.7917 55.3569L29.482 56.0472L30.1722 55.3569L40.9999 44.5292L51.8276 55.3569L52.5179 56.0472L53.2082 55.3569L55.3569 53.2082L56.0471 52.518L55.3569 51.8277L44.5292 41L55.3569 30.1723Z" fill="#DFBFBF" stroke="#DFBFBF" stroke-width="1.95238"/>
</g>
<defs>
<clipPath id="clip0_1167_42528">
<rect width="82" height="82" fill="white"/>
</clipPath>
</defs>
</svg>
