<svg width="15" height="15" viewBox="0 0 15 15" fill="none" xmlns="http://www.w3.org/2000/svg">
<g opacity="0.5">
<path d="M0.983293 7.50038C0.983293 3.90765 3.90714 0.983659 7.50002 0.983659C11.0929 0.983659 14.0167 3.90765 14.0167 7.50038C14.0167 11.0931 11.0929 14.0171 7.50002 14.0171C3.90714 14.0171 0.983293 11.0931 0.983293 7.50038Z" stroke="white" stroke-width="1.13333"/>
<path d="M6.79163 6.79169C6.79163 6.40051 7.10875 6.08339 7.49993 6.08339C7.89112 6.08339 8.20824 6.40051 8.20824 6.79169V11.0417C8.20824 11.4329 7.89112 11.75 7.49993 11.75C7.10875 11.75 6.79163 11.4329 6.79163 11.0417V6.79169ZM6.79163 3.95831C6.79163 3.56712 7.10875 3.25 7.49993 3.25C7.89112 3.25 8.20824 3.56712 8.20824 3.95831C8.20824 4.34949 7.89112 4.66661 7.49993 4.66661C7.10875 4.66661 6.79163 4.34949 6.79163 3.95831Z" fill="white"/>
</g>
</svg>
