<svg width="43" height="43" viewBox="0 0 43 43" fill="none" xmlns="http://www.w3.org/2000/svg">
<circle cx="21.5" cy="21.5" r="16.5" fill="white"/>
<g clip-path="url(#clip0_2032_56503)">
<path d="M21.3098 2.6637C10.8033 2.6637 2.2832 11.1838 2.2832 21.6902C2.2832 32.1967 10.8033 40.7168 21.3098 40.7168C31.8162 40.7168 40.3363 32.1967 40.3363 21.6902C40.3363 11.1838 31.82 2.6637 21.3098 2.6637ZM11.6709 22.3295L11.7508 22.2002L16.7015 14.4564C16.7738 14.346 16.9451 14.3574 16.9983 14.4792C17.8241 16.3324 18.5395 18.6384 18.2046 20.073C18.0638 20.6628 17.6719 21.4619 17.2305 22.2002C17.1734 22.3067 17.1125 22.4133 17.044 22.516C17.0136 22.5617 16.9603 22.5883 16.9032 22.5883H11.8155C11.6785 22.5883 11.5986 22.4399 11.6709 22.3295ZM33.7303 24.9933C33.7303 25.0656 33.6884 25.1264 33.6275 25.1531C33.2432 25.3167 31.9304 25.9217 31.3862 26.679C29.9935 28.6159 28.9318 31.3862 26.5535 31.3862H16.6368C13.1207 31.3862 10.2744 28.5284 10.2744 25.0009V24.8867C10.2744 24.7954 10.3505 24.7193 10.4456 24.7193H15.9709C16.0813 24.7193 16.1612 24.8182 16.1536 24.9286C16.1117 25.2863 16.1802 25.6554 16.3514 25.9902C16.6787 26.6562 17.3598 27.071 18.0943 27.071H20.8303V24.9362H18.1247C17.9877 24.9362 17.904 24.7764 17.9839 24.6622C18.0144 24.6165 18.0448 24.5709 18.0828 24.5176C18.3378 24.1523 18.7031 23.5891 19.0684 22.946C19.3158 22.5122 19.5555 22.0479 19.7496 21.5837C19.7876 21.5 19.8181 21.4125 19.8523 21.3287C19.9056 21.1803 19.9589 21.0395 19.9969 20.9025C20.035 20.7846 20.0692 20.6628 20.0997 20.5487C20.191 20.1529 20.229 19.7343 20.229 19.3005C20.229 19.1293 20.2214 18.9504 20.2062 18.783C20.1986 18.5965 20.1758 18.4101 20.1529 18.2236C20.1377 18.06 20.1073 17.8964 20.0768 17.7289C20.035 17.4816 19.9817 17.2342 19.9208 16.9869L19.898 16.8917C19.8523 16.7205 19.8105 16.5607 19.7572 16.3894C19.6012 15.8567 19.4261 15.3354 19.2359 14.8483C19.1674 14.6542 19.0913 14.4678 19.0113 14.2851C18.8972 14.0035 18.7792 13.7486 18.6727 13.5088C18.6156 13.3985 18.5699 13.2995 18.5243 13.1968C18.471 13.0826 18.4177 12.9685 18.3606 12.8581C18.3226 12.7744 18.2769 12.6945 18.2465 12.6184L17.9116 12.0019C17.8659 11.9182 17.9421 11.8155 18.0334 11.8421L20.1263 12.4091H20.1339C20.1377 12.4091 20.1377 12.4091 20.1415 12.4091L20.4155 12.489L20.7199 12.5727L20.8303 12.6032V11.3626C20.8303 10.7614 21.3098 10.2743 21.9072 10.2743C22.204 10.2743 22.4742 10.3961 22.6644 10.594C22.8585 10.7918 22.9803 11.062 22.9803 11.3626V13.2082L23.2048 13.2691C23.22 13.2767 23.239 13.2843 23.2543 13.2957C23.3075 13.3338 23.3875 13.3947 23.4864 13.4708C23.5663 13.5317 23.65 13.6078 23.749 13.6877C23.9506 13.8513 24.1942 14.0606 24.4567 14.3003C24.5252 14.3612 24.5937 14.4221 24.6584 14.4868C24.9971 14.8026 25.3776 15.1717 25.7429 15.5827C25.8457 15.7007 25.9446 15.8148 26.0474 15.9404C26.1463 16.066 26.2567 16.1878 26.348 16.3095C26.4736 16.4732 26.6029 16.6444 26.7209 16.8233C26.7742 16.907 26.8389 16.9945 26.8883 17.0782C27.0405 17.3027 27.1699 17.5348 27.2955 17.767C27.3488 17.8735 27.4021 17.9915 27.4477 18.1056C27.5885 18.4177 27.6989 18.7335 27.7674 19.0532C27.7902 19.1217 27.8054 19.194 27.813 19.2625V19.2777C27.8359 19.369 27.8435 19.4679 27.8511 19.5707C27.8815 19.8941 27.8663 20.2214 27.7978 20.5487C27.7674 20.6856 27.7293 20.815 27.6836 20.9558C27.6342 21.089 27.5885 21.226 27.5276 21.3592C27.4097 21.6294 27.2727 21.9033 27.109 22.1545C27.0558 22.2496 26.9911 22.3486 26.9302 22.4437C26.8617 22.5426 26.7894 22.6378 26.7285 22.7291C26.641 22.8471 26.5497 22.9688 26.4545 23.0792C26.3708 23.1933 26.2871 23.3075 26.192 23.4102C26.0626 23.5663 25.937 23.7109 25.8038 23.8517C25.7277 23.943 25.644 24.0381 25.5565 24.1218C25.4728 24.217 25.3852 24.3007 25.3091 24.3768C25.1759 24.51 25.0694 24.6089 24.9781 24.6964L24.7612 24.8905C24.7307 24.921 24.6889 24.9362 24.647 24.9362H22.9803V27.071H25.077C25.5451 27.071 25.9903 26.9073 26.3518 26.5991C26.4736 26.4925 27.0101 26.0283 27.6456 25.3281C27.6684 25.3015 27.6951 25.2863 27.7255 25.2787L33.5134 23.6043C33.6237 23.5739 33.7303 23.6538 33.7303 23.7679V24.9933Z" fill="#1C6ADB"/>
</g>
<defs>
<clipPath id="clip0_2032_56503">
<rect width="38.0531" height="38.0531" fill="white" transform="translate(2.2832 2.6637)"/>
</clipPath>
</defs>
</svg>
