<svg width="20" height="20" viewBox="0 0 20 20" fill="none" xmlns="http://www.w3.org/2000/svg">
<path d="M2.12455 10.7073L2.1889 10.6031L6.17538 4.36752C6.2336 4.27866 6.37148 4.28785 6.41438 4.3859C7.07931 5.87815 7.65537 7.73504 7.38572 8.89023C7.27235 9.36518 6.95674 10.0087 6.6013 10.6031C6.55533 10.6889 6.50631 10.7747 6.45115 10.8574C6.42664 10.8942 6.38374 10.9156 6.33778 10.9156H2.24099C2.13068 10.9156 2.06633 10.7961 2.12455 10.7073ZM19.8875 12.8522C19.8875 12.9104 19.8538 12.9594 19.8048 12.9809C19.4953 13.1127 18.4382 13.5999 18 14.2096C16.8785 15.7693 16.0236 18 14.1085 18H6.12329C3.292 18 1 15.6988 1 12.8583V12.7664C1 12.6929 1.06128 12.6316 1.13789 12.6316H5.58706C5.67592 12.6316 5.74027 12.7112 5.73414 12.8001C5.70043 13.0881 5.75559 13.3854 5.89348 13.655C6.15699 14.1912 6.70548 14.5252 7.29686 14.5252H9.5V12.8062H7.32138C7.21107 12.8062 7.14365 12.6775 7.208 12.5856C7.23252 12.5488 7.25703 12.5121 7.28767 12.4692C7.49297 12.175 7.78713 11.7215 8.08129 11.2037C8.28046 10.8544 8.4735 10.4805 8.62978 10.1067C8.66042 10.0393 8.68493 9.96882 8.71251 9.90141C8.75541 9.7819 8.79831 9.66853 8.82895 9.55822C8.85959 9.46323 8.88717 9.36518 8.91168 9.27325C8.98522 8.95458 9.01586 8.61752 9.01586 8.2682C9.01586 8.13032 9.00973 7.9863 8.99748 7.85148C8.99135 7.70133 8.97296 7.55119 8.95458 7.40105C8.94232 7.26929 8.91781 7.13753 8.89329 7.0027C8.85959 6.80353 8.81669 6.60436 8.76766 6.40519L8.74928 6.32859C8.71251 6.1907 8.6788 6.062 8.6359 5.92412C8.51027 5.49513 8.36932 5.07534 8.21611 4.68313C8.16096 4.52686 8.09967 4.37671 8.03533 4.22963C7.9434 4.00288 7.84841 3.79759 7.76262 3.60454C7.71665 3.51568 7.67988 3.43601 7.64311 3.35328C7.60022 3.26136 7.55732 3.16943 7.51135 3.08057C7.48071 3.01316 7.44394 2.94881 7.41943 2.88753L7.14978 2.39113C7.11301 2.32372 7.1743 2.24099 7.24784 2.26244L8.93313 2.719H8.93926C8.94232 2.719 8.94232 2.719 8.94539 2.719L9.16601 2.78335L9.41114 2.85076L9.5 2.87527V1.87635C9.5 1.39221 9.88608 1 10.3672 1C10.6062 1 10.8237 1.09805 10.9769 1.25739C11.1332 1.41673 11.2313 1.63428 11.2313 1.87635V3.36247L11.412 3.4115C11.4243 3.41763 11.4396 3.42376 11.4519 3.43295C11.4948 3.46359 11.5591 3.51262 11.6388 3.5739C11.7031 3.62293 11.7705 3.68421 11.8502 3.74856C12.0126 3.88032 12.2087 4.04885 12.4202 4.24189C12.4753 4.29092 12.5305 4.33994 12.5826 4.39203C12.8553 4.64636 13.1617 4.94358 13.4558 5.27451C13.5386 5.3695 13.6182 5.46143 13.701 5.56254C13.7806 5.66366 13.8695 5.76172 13.943 5.85977C14.0442 5.99153 14.1483 6.12942 14.2433 6.27343C14.2862 6.34084 14.3383 6.41132 14.3782 6.47873C14.5007 6.65952 14.6049 6.84643 14.706 7.03334C14.7489 7.11914 14.7918 7.21413 14.8286 7.30606C14.942 7.55732 15.0308 7.81164 15.086 8.06903C15.1044 8.12419 15.1166 8.18241 15.1227 8.23756V8.24982C15.1411 8.32336 15.1473 8.40303 15.1534 8.48576C15.1779 8.74622 15.1656 9.00973 15.1105 9.27325C15.086 9.38356 15.0553 9.48774 15.0186 9.60112C14.9787 9.70836 14.942 9.81867 14.8929 9.92592C14.7979 10.1435 14.6876 10.3641 14.5559 10.5663C14.513 10.6429 14.4609 10.7226 14.4119 10.7992C14.3567 10.8789 14.2985 10.9555 14.2495 11.029C14.179 11.124 14.1054 11.2221 14.0288 11.3109C13.9614 11.4028 13.894 11.4948 13.8174 11.5775C13.7132 11.7031 13.6121 11.8196 13.5049 11.9329C13.4436 12.0065 13.3762 12.0831 13.3057 12.1505C13.2383 12.2271 13.1678 12.2945 13.1065 12.3558C12.9993 12.463 12.9135 12.5427 12.8399 12.6132L12.6653 12.7695C12.6408 12.794 12.6071 12.8062 12.5734 12.8062H11.2313V14.5252H12.9196C13.2965 14.5252 13.655 14.3935 13.9461 14.1453C14.0442 14.0595 14.4762 13.6857 14.9879 13.1218C15.0063 13.1004 15.0278 13.0881 15.0523 13.082L19.7129 11.7338C19.8017 11.7093 19.8875 11.7736 19.8875 11.8655V12.8522Z" fill="white"/>
</svg>
