<svg width="16" height="17" viewBox="0 0 16 17" fill="none" xmlns="http://www.w3.org/2000/svg">
<g clip-path="url(#clip0_5416_22765)">
<path d="M8 0.972168C3.58214 0.972168 0 4.55431 0 8.97217C0 13.39 3.58214 16.9722 8 16.9722C12.4179 16.9722 16 13.39 16 8.97217C16 4.55431 12.4179 0.972168 8 0.972168ZM8 15.615C4.33214 15.615 1.35714 12.64 1.35714 8.97217C1.35714 5.30431 4.33214 2.32931 8 2.32931C11.6679 2.32931 14.6429 5.30431 14.6429 8.97217C14.6429 12.64 11.6679 15.615 8 15.615Z" fill="white" fill-opacity="0.45"/>
<path d="M9.99258 5.48411C9.45686 5.01447 8.74972 4.75732 7.99972 4.75732C7.24972 4.75732 6.54258 5.01625 6.00686 5.48411C5.44972 5.97161 5.14258 6.62697 5.14258 7.32875V7.46447C5.14258 7.54304 5.20686 7.60732 5.28544 7.60732H6.14258C6.22115 7.60732 6.28544 7.54304 6.28544 7.46447V7.32875C6.28544 6.54125 7.05508 5.90018 7.99972 5.90018C8.94436 5.90018 9.71401 6.54125 9.71401 7.32875C9.71401 7.88411 9.32115 8.39304 8.71222 8.62697C8.33365 8.77161 8.01222 9.02518 7.78186 9.35733C7.54794 9.69661 7.42651 10.1038 7.42651 10.5163V10.9002C7.42651 10.9788 7.49079 11.043 7.56936 11.043H8.42651C8.50508 11.043 8.56937 10.9788 8.56937 10.9002V10.4948C8.57029 10.3215 8.62343 10.1524 8.72186 10.0097C8.82029 9.86701 8.95943 9.75727 9.12115 9.69482C10.1747 9.28947 10.8551 8.3609 10.8551 7.32875C10.8569 6.62697 10.5497 5.97161 9.99258 5.48411ZM7.28544 12.9002C7.28544 13.0896 7.36069 13.2713 7.49465 13.4053C7.6286 13.5392 7.81028 13.6145 7.99972 13.6145C8.18916 13.6145 8.37084 13.5392 8.5048 13.4053C8.63875 13.2713 8.71401 13.0896 8.71401 12.9002C8.71401 12.7107 8.63875 12.5291 8.5048 12.3951C8.37084 12.2612 8.18916 12.1859 7.99972 12.1859C7.81028 12.1859 7.6286 12.2612 7.49465 12.3951C7.36069 12.5291 7.28544 12.7107 7.28544 12.9002Z" fill="white" fill-opacity="0.45"/>
</g>
<defs>
<clipPath id="clip0_5416_22765">
<rect width="16" height="16" fill="white" transform="translate(0 0.972168)"/>
</clipPath>
</defs>
</svg>
