<svg width="40" height="40" viewBox="0 0 40 40" fill="none" xmlns="http://www.w3.org/2000/svg">
<path d="M12.5 11.6667C14.341 11.6667 15.8334 10.1743 15.8334 8.33333C15.8334 6.49238 14.341 5 12.5 5C10.6591 5 9.16669 6.49238 9.16669 8.33333C9.16669 10.1743 10.6591 11.6667 12.5 11.6667Z" fill="#942EFF" stroke="#942EFF" stroke-width="1.3125" stroke-linecap="round" stroke-linejoin="round"/>
<path d="M27.5 11.6667C29.341 11.6667 30.8334 10.1743 30.8334 8.33333C30.8334 6.49238 29.341 5 27.5 5C25.6591 5 24.1667 6.49238 24.1667 8.33333C24.1667 10.1743 25.6591 11.6667 27.5 11.6667Z" fill="#942EFF" stroke="#942EFF" stroke-width="1.3125" stroke-linecap="round" stroke-linejoin="round"/>
<path d="M8.33331 16.6666L16.6666 16.6666L15 35L9.99998 35L8.33331 16.6666Z" fill="#942EFF" stroke="#942EFF" stroke-width="1.3125" stroke-linecap="round" stroke-linejoin="round"/>
<path d="M23.3333 16.6666L31.6666 16.6666L30 35L25 35L23.3333 16.6666Z" fill="#942EFF" stroke="#942EFF" stroke-width="1.3125" stroke-linecap="round" stroke-linejoin="round"/>
</svg>
