<svg width="22" height="22" viewBox="0 0 22 22" fill="none" xmlns="http://www.w3.org/2000/svg">
<path d="M15.6618 12.6328L15.3377 12.3582L15.2567 12.2923C15.1894 12.236 15.1194 12.1824 15.0549 12.1288L14.9629 12.0602L14.9436 12.0451L14.8283 11.9613C14.7692 11.9188 14.7088 11.8776 14.6484 11.8377L14.6072 11.8103C14.016 11.422 13.3672 11.1296 12.6847 10.9438C13.6762 10.5287 14.4933 9.78308 14.9972 8.83372C15.5012 7.88436 15.6609 6.78979 15.4492 5.73602C15.2375 4.68225 14.6674 3.73429 13.8359 3.05322C13.0044 2.37215 11.9627 2 10.8879 2C9.81309 2 8.77141 2.37215 7.93991 3.05322C7.10841 3.73429 6.53837 4.68225 6.32667 5.73602C6.11496 6.78979 6.27465 7.88436 6.7786 8.83372C7.28254 9.78308 8.09966 10.5287 9.09109 10.9438C8.41738 11.131 7.77674 11.4214 7.19196 11.8048L7.15213 11.8322C7.09034 11.8721 7.02992 11.9133 6.97225 11.9558L6.85552 12.041L6.83905 12.052L6.74567 12.1234C6.67701 12.1755 6.60835 12.2305 6.53557 12.2923L6.46416 12.3527L6.13734 12.6273L6.15382 12.6369C5.48955 13.2881 4.96211 14.0655 4.60249 14.9234C4.24287 15.7813 4.05833 16.7024 4.0597 17.6326V18.0679C4.06152 18.5784 4.26559 19.0674 4.62721 19.4277C4.98884 19.7881 5.47853 19.9904 5.98904 19.9904H15.8197C16.3291 19.9886 16.817 19.7855 17.1771 19.4253C17.5373 19.0652 17.7404 18.5772 17.7422 18.0679V17.6285C17.7424 16.6994 17.5571 15.7797 17.197 14.9232C16.8369 14.0668 16.3094 13.2909 15.6453 12.6411L15.6618 12.6328Z" fill="currentColor"/>
<path d="M5.99462 12.1303C6.06466 12.0713 6.13194 12.0191 6.19374 11.9697L6.29673 11.8914L6.31183 11.8804L6.43405 11.7912L6.62629 11.6538L6.66886 11.6264C7.08083 11.3558 7.51987 11.1289 7.97889 10.9494C7.23895 10.501 6.62691 9.86965 6.2017 9.11615C5.77648 8.36264 5.55242 7.51236 5.55108 6.64716C5.55108 6.53456 5.55108 6.42333 5.56344 6.31348C4.92765 6.52451 4.38052 6.94178 4.00884 7.4991C3.63715 8.05643 3.4622 8.72191 3.51172 9.38997C3.56124 10.058 3.8324 10.6904 4.2822 11.1869C4.73199 11.6833 5.33467 12.0154 5.99462 12.1303ZM5.8834 12.2237C5.23796 12.3173 4.621 12.5517 4.07627 12.9103L4.04881 12.9282C4.00898 12.9556 3.96916 12.9817 3.93071 13.0105L3.85381 13.0668C3.8291 13.0847 3.80438 13.1026 3.78103 13.1218C3.73572 13.1561 3.6904 13.1918 3.64371 13.2289L3.62861 13.2426L3.59016 13.2728C3.09068 13.7069 2.69023 14.2432 2.41589 14.8454C2.14155 15.4476 1.99973 16.1017 2 16.7635V17.0683C2 17.3666 2.11849 17.6527 2.3294 17.8636C2.43383 17.968 2.55781 18.0509 2.69426 18.1074C2.83071 18.1639 2.97696 18.193 3.12465 18.193H3.33887V17.8154C3.33893 15.9907 4.01278 14.2302 5.23113 12.8719L5.8834 12.2237ZM13.8452 10.9549C14.304 11.1347 14.7431 11.3616 15.1552 11.6319L15.1964 11.6593L15.39 11.7966L15.5109 11.8859L15.5273 11.8969L15.6303 11.9752C15.6935 12.0246 15.7594 12.0768 15.8294 12.1358C16.4894 12.0208 17.0921 11.6888 17.5419 11.1924C17.9917 10.6959 18.2628 10.0635 18.3124 9.39546C18.3619 8.7274 18.1869 8.06193 17.8152 7.5046C17.4435 6.94727 16.8964 6.53 16.2606 6.31897C16.2675 6.42882 16.273 6.54005 16.273 6.65266C16.2716 7.51785 16.0476 8.36814 15.6224 9.12164C15.1972 9.87514 14.5851 10.5065 13.8452 10.9549ZM18.2284 13.2701L18.1913 13.2399L18.1749 13.2261C18.1309 13.1891 18.087 13.1534 18.0375 13.119L17.9648 13.0641L17.8879 13.0078C17.8494 12.979 17.8096 12.9529 17.7684 12.9254L17.7423 12.9076C17.1975 12.5491 16.5806 12.3147 15.9352 12.221L16.5874 12.8664C17.8054 14.2249 18.4788 15.9853 18.4783 17.8099V18.1875H18.6926C18.991 18.1875 19.2772 18.069 19.4883 17.8582C19.6994 17.6473 19.8182 17.3612 19.8186 17.0628V16.7635C19.8195 16.1012 19.678 15.4465 19.4036 14.8438C19.1293 14.241 18.7285 13.7043 18.2284 13.2701Z" fill="currentColor"/>
</svg>
