<svg width="23" height="19" viewBox="0 0 23 19" fill="none" xmlns="http://www.w3.org/2000/svg">
<path d="M22.3313 9.31686L15.8603 1.56926C15.793 1.47974 15.7083 1.40484 15.6112 1.3491C15.5141 1.29337 15.4066 1.25798 15.2954 1.24508C15.1842 1.23217 15.0715 1.24203 14.9643 1.27406C14.857 1.30608 14.7573 1.35959 14.6714 1.43134C14.5854 1.50309 14.515 1.59157 14.4643 1.69141C14.4136 1.79125 14.3838 1.90035 14.3766 2.01208C14.3695 2.12381 14.3851 2.23584 14.4226 2.34133C14.4601 2.44683 14.5186 2.5436 14.5947 2.62575L19.9377 9.04172H1.88932C1.67041 9.04172 1.46047 9.12868 1.30568 9.28347C1.15089 9.43826 1.06393 9.6482 1.06393 9.86711C1.06393 10.086 1.15089 10.2959 1.30568 10.4507C1.46047 10.6055 1.67041 10.6925 1.88932 10.6925H19.9377L14.5892 17.1085C14.5131 17.1906 14.4546 17.2874 14.4171 17.3929C14.3797 17.4984 14.3641 17.6104 14.3713 17.7221C14.3784 17.8338 14.4083 17.9429 14.4589 18.0427C14.5096 18.1425 14.5801 18.231 14.666 18.3027C14.7519 18.3745 14.8516 18.428 14.9588 18.46C15.0661 18.492 15.1788 18.5019 15.29 18.489C15.4012 18.4761 15.5086 18.4407 15.6057 18.385C15.7028 18.3293 15.7875 18.2544 15.8548 18.1649L22.3313 10.4174C22.4666 10.266 22.5414 10.0701 22.5414 9.86711C22.5414 9.66408 22.4666 9.46818 22.3313 9.31686Z" fill="url(#paint0_linear_7_7948)" stroke="url(#paint1_linear_7_7948)" stroke-width="0.77683"/>
<defs>
<linearGradient id="paint0_linear_7_7948" x1="1.06393" y1="18.4945" x2="22.5414" y2="18.4945" gradientUnits="userSpaceOnUse">
<stop stop-color="#A34CE7"/>
<stop offset="0.520833" stop-color="#E056E2"/>
<stop offset="0.979167" stop-color="#E25678"/>
</linearGradient>
<linearGradient id="paint1_linear_7_7948" x1="1.06393" y1="18.4945" x2="22.5414" y2="18.4945" gradientUnits="userSpaceOnUse">
<stop stop-color="#A34CE7"/>
<stop offset="0.520833" stop-color="#E056E2"/>
<stop offset="0.979167" stop-color="#E25678"/>
</linearGradient>
</defs>
</svg>
