<svg width="40" height="40" viewBox="0 0 40 40" fill="none" xmlns="http://www.w3.org/2000/svg">
<path d="M6 10.5C6 8.025 8.025 6 10.5 6C12.975 6 15 8.025 15 10.5C15 12.975 12.975 15 10.5 15C8.025 15 6 12.975 6 10.5ZM28.5562 15C31.0312 15 33.0562 12.975 33.0562 10.5C33.0562 8.025 31.0312 6 28.5562 6C26.0812 6 24.0562 8.025 24.0562 10.5C24.0562 12.975 26.0531 15 28.5562 15ZM28.5562 17.25C26.0812 17.25 24.0562 19.275 24.0562 21.75V23.55L19.5281 26.1656L15.0281 23.55V21.75C15.0281 19.275 13.0031 17.25 10.5281 17.25C8.05313 17.25 6.02813 19.275 6.02813 21.75V31.875C6.02813 32.4937 6.53438 33 7.15313 33H13.9031C14.5219 33 15.0281 32.4937 15.0281 31.875V26.1656L18.9094 28.4156C18.9375 28.4156 18.9375 28.4438 18.9656 28.4438C19.3031 28.6406 19.725 28.6688 20.0906 28.4438L24.0562 26.1375V31.875C24.0562 32.4937 24.5625 33 25.1812 33H31.9312C32.55 33 33.0562 32.4937 33.0562 31.875V21.75C33.0562 19.275 31.0312 17.25 28.5562 17.25Z" fill="#9C42FF"/>
</svg>
