<svg width="40" height="40" viewBox="0 0 40 40" fill="none" xmlns="http://www.w3.org/2000/svg">
<g clip-path="url(#clip0_772_16713)">
<path d="M23.7454 23.0806C18.3926 25.0239 13.3653 26.8485 8.21826 28.7167C7.2692 23.3605 6.34107 18.093 5.36369 12.5672L9.59572 15.0105C11.0194 13.1306 12.2365 11.2804 13.6924 9.64918C16.7154 6.25698 20.3596 4.26537 25.1113 5.22261C31.9693 6.60204 37.0084 12.5695 37.1982 19.5532C37.2012 19.6496 37.1741 19.7512 37.143 19.9769C36.6991 18.8004 36.3667 17.7199 35.8959 16.6994C34.9737 14.6874 33.6079 13.0374 31.7158 11.8458C30.0093 10.7703 28.2934 10.8126 26.5634 11.7623C24.5385 12.871 23.0643 14.5729 21.7808 16.4209C20.8918 17.7029 20.198 19.1155 19.3679 20.5533L23.7454 23.0806Z" fill="#06C4FF"/>
</g>
<defs>
<clipPath id="clip0_772_16713">
<rect width="40" height="40" fill="white"/>
</clipPath>
</defs>
</svg>
