<svg width="18" height="18" viewBox="0 0 18 18" fill="none" xmlns="http://www.w3.org/2000/svg">
<g clip-path="url(#clip0_1143_45425)">
<path d="M9.04007 5.688C9.04038 4.96118 9.329 4.26417 9.8426 3.74989C10.3562 3.23561 11.0528 2.94607 11.7797 2.94479C12.5067 2.94575 13.2036 3.23515 13.7175 3.74946C14.2313 4.26377 14.5201 4.96097 14.5204 5.688C14.5198 6.41482 14.2309 7.11171 13.7171 7.62576C13.2032 8.13982 12.5065 8.42905 11.7797 8.43001C11.0531 8.42875 10.3566 8.13937 9.84302 7.62535C9.32944 7.11133 9.04068 6.41462 9.04005 5.688H9.04007ZM17.8901 1.66321C17.8901 0.801598 17.1904 0.100793 16.3577 0.100793H16.3564C16.3301 0.0995977 13.6241 0 11.5805 0C9.22845 0 9.01605 0.113994 8.76166 0.368402L5.12445 4.00799L0.456456 8.6796C0.16325 8.97492 -0.000895885 9.37444 3.67795e-06 9.79059C0.000903241 10.2067 0.166775 10.6056 0.461255 10.8996L7.09846 17.5404C7.39605 17.8368 7.78966 18 8.21085 18C8.63085 18 9.02205 17.838 9.31485 17.544L14.5097 12.348L17.6213 9.23281C17.8961 8.9592 18.1541 8.70001 17.8901 1.66321" fill="#FFEB36"/>
</g>
<defs>
<clipPath id="clip0_1143_45425">
<rect width="18" height="18" fill="white"/>
</clipPath>
</defs>
</svg>
