<svg width="21" height="21" viewBox="0 0 21 21" fill="none" xmlns="http://www.w3.org/2000/svg">
<path d="M18.5237 7.3196L20.2599 8.82889C20.5508 9.08165 20.5817 9.52223 20.3287 9.81294C20.1909 9.97169 19.9969 10.053 19.802 10.053C19.6397 10.053 19.4766 9.99665 19.3447 9.88174L10.5001 2.19346L1.65544 9.88174C1.52339 9.99667 1.36032 10.053 1.19805 10.053C1.00296 10.053 0.809128 9.97169 0.671158 9.81294C0.418374 9.52225 0.44914 9.08165 0.739961 8.82889L2.25132 7.51513L3.64323 6.3052L10.0423 0.742696L10.0437 0.741507C10.0515 0.73481 10.0593 0.728364 10.0673 0.722055L10.0709 0.719129C10.079 0.712821 10.0872 0.70674 10.0954 0.700843L10.0995 0.697917C10.1072 0.692523 10.115 0.687334 10.1228 0.682283L10.1292 0.678122C10.1359 0.673939 10.1426 0.669962 10.1494 0.666008L10.1599 0.659882C10.1642 0.6575 10.1685 0.655243 10.1728 0.652982L10.1755 0.651562C10.1808 0.648796 10.186 0.645984 10.1913 0.643356L10.2013 0.638647C10.2086 0.635173 10.2159 0.631744 10.2233 0.628544L10.2268 0.627104C10.3303 0.582942 10.4418 0.565205 10.5515 0.573319L10.554 0.573548C10.5641 0.574325 10.5743 0.575285 10.5844 0.576519L10.5928 0.577731C10.6009 0.578828 10.6091 0.579948 10.6172 0.58132L10.6289 0.58356L10.632 0.584148C10.6381 0.585271 10.6441 0.586396 10.6501 0.58772L10.6627 0.59076C10.6694 0.592383 10.6761 0.593937 10.6828 0.595743L10.6946 0.599217L10.6962 0.59968C10.7027 0.601536 10.7091 0.603389 10.7155 0.605457L10.7248 0.608703C10.7325 0.611332 10.7402 0.61396 10.7479 0.616863L10.7542 0.619401C10.7628 0.622784 10.7714 0.626258 10.78 0.629984L10.7831 0.631401C10.7927 0.635653 10.8022 0.640087 10.8116 0.644796L10.8118 0.644887C10.8632 0.670556 10.9119 0.702923 10.9567 0.741827L10.9578 0.742696L17.1294 6.10755L18.5237 7.3196Z" fill="#FFB801"/>
<path d="M17.9801 9.93459C17.5948 9.93459 17.2824 10.2469 17.2824 10.6323V17.5634C17.2824 18.4375 16.6809 19.1761 15.9688 19.1761H5.10761C4.39552 19.1761 3.79402 18.4375 3.79402 17.5634V10.6323C3.79402 10.2469 3.48162 9.93461 3.09635 9.93461C2.71106 9.93461 2.39868 10.2469 2.39868 10.6323V17.5634C2.39868 19.222 3.61394 20.5714 5.10763 20.5714H15.9688C17.4625 20.5714 18.6778 19.222 18.6778 17.5634V10.6323C18.6778 10.2469 18.3654 9.93459 17.9801 9.93459Z" fill="#FFB801"/>
<g clip-path="url(#clip0_1736_44780)">
<path d="M10.3743 7.57147C7.57036 7.57147 5.30505 9.83678 5.30505 12.6407C5.30505 15.4446 7.57036 17.7099 10.3743 17.7099C13.1782 17.7099 15.4435 15.4446 15.4435 12.6407C15.4435 9.83678 13.1782 7.57147 10.3743 7.57147ZM10.3743 17.2347C7.83967 17.2347 5.78029 15.1753 5.78029 12.6407C5.78029 10.1061 7.83967 8.04671 10.3743 8.04671C12.9089 8.04671 14.9683 10.1061 14.9683 12.6407C14.9683 15.1753 12.9089 17.2347 10.3743 17.2347Z" fill="#FFB801"/>
<path fill-rule="evenodd" clip-rule="evenodd" d="M6.25598 12.6407C6.25598 10.3595 8.09358 8.52192 10.3747 8.52192C12.6559 8.52192 14.4935 10.3595 14.4935 12.6407C14.4935 14.9218 12.6559 16.7594 10.3747 16.7594C8.09358 16.7594 6.25598 14.9218 6.25598 12.6407ZM10.6941 10.1435V9.42148H10.1782V10.1349C9.96832 10.1561 9.77859 10.2079 9.60902 10.2902C9.38046 10.399 9.20182 10.5543 9.07312 10.7562C8.94663 10.956 8.88339 11.1923 8.88339 11.4652C8.88339 11.7493 8.94219 11.9845 9.0598 12.1709C9.17963 12.3573 9.34717 12.5137 9.56242 12.6402C9.77766 12.7645 10.0284 12.8788 10.3147 12.9831C10.4989 13.0496 10.6453 13.1195 10.754 13.1928C10.865 13.266 10.9438 13.3492 10.9904 13.4424C11.0392 13.5356 11.0636 13.6454 11.0636 13.7719C11.0636 13.8962 11.037 14.0071 10.9837 14.1048C10.9327 14.2002 10.855 14.2745 10.7507 14.3278C10.6486 14.3811 10.5199 14.4077 10.3646 14.4077C10.2692 14.4077 10.1749 14.3944 10.0817 14.3677C9.98847 14.3411 9.90415 14.2956 9.8287 14.2313C9.75326 14.1647 9.69334 14.0759 9.64896 13.965C9.60458 13.854 9.58239 13.7142 9.58239 13.5456H8.70032C8.70032 13.8385 8.74803 14.0859 8.84345 14.2879C8.93886 14.4876 9.06646 14.6484 9.22623 14.7705C9.38822 14.8903 9.56796 14.9769 9.76546 15.0301C9.88229 15.0616 9.9999 15.0838 10.1183 15.0967V15.7491H10.6309V15.0967C10.8379 15.0751 11.0254 15.0274 11.1934 14.9536C11.4309 14.8493 11.615 14.6973 11.746 14.4976C11.8791 14.2978 11.9457 14.0537 11.9457 13.7653C11.9457 13.4834 11.8869 13.2504 11.7693 13.0663C11.6517 12.8821 11.4863 12.7268 11.2733 12.6003C11.0603 12.4716 10.8095 12.354 10.521 12.2474C10.328 12.172 10.176 12.0977 10.065 12.0244C9.9563 11.9512 9.87863 11.8702 9.83203 11.7814C9.78765 11.6905 9.76546 11.5851 9.76546 11.4652C9.76546 11.341 9.78654 11.2311 9.8287 11.1357C9.87308 11.0403 9.94187 10.9648 10.0351 10.9094C10.1305 10.8539 10.2514 10.8261 10.3979 10.8261C10.5 10.8261 10.5909 10.845 10.6708 10.8827C10.7529 10.9204 10.8228 10.977 10.8805 11.0525C10.9382 11.1257 10.9826 11.2156 11.0137 11.3221C11.0447 11.4286 11.0603 11.5507 11.0603 11.6882H11.939C11.939 11.4397 11.9024 11.2189 11.8292 11.0259C11.7582 10.8306 11.655 10.6664 11.5196 10.5332C11.3865 10.4001 11.2256 10.2991 11.037 10.2303C10.9306 10.1898 10.8164 10.1609 10.6941 10.1435Z" fill="#FFB801"/>
</g>
<defs>
<clipPath id="clip0_1736_44780">
<rect width="10.1384" height="10.1384" fill="white" transform="translate(5.3053 7.57147)"/>
</clipPath>
</defs>
</svg>
