<svg width="82" height="84" viewBox="0 0 82 84" fill="none" xmlns="http://www.w3.org/2000/svg">
<path fill-rule="evenodd" clip-rule="evenodd" d="M47.4508 1.50235C37.8115 -0.027475 27.9425 1.93156 19.6183 7.02725C18.4515 7.74155 17.3257 8.51092 16.2441 9.33144C14.2009 10.8791 12.2952 12.6241 10.5571 14.5508C4.01959 21.7978 0.281695 31.1392 0.0155074 40.8956C-0.234441 50.0567 2.59195 59.0194 8.015 66.3649L8.03851 66.3459C11.7847 71.4204 16.6791 75.5997 22.3764 78.5093C25.4875 80.0982 28.7651 81.2712 32.1265 82.0185L32.1206 82.0407C41.0343 84.0184 50.3731 82.9667 58.6454 79.0226C61.2053 77.8021 63.6143 76.3278 65.8414 74.6317C68.5233 72.5924 70.9587 70.2189 73.0829 67.5544L73.0769 67.55C75.2195 64.8586 77.0299 61.8895 78.4504 58.7018C81.0566 52.853 82.238 46.5202 81.9608 40.213H81.9856C81.5888 31.0911 78.1559 22.3428 72.2052 15.3731C65.8677 7.95051 57.0902 3.03217 47.4508 1.50235ZM19.4754 13.5927C13.7068 17.9691 9.38324 24.0188 7.12402 30.9572C4.49634 39.0271 4.83366 47.7698 8.07534 55.6133C11.317 63.4567 17.2504 69.8865 24.8087 73.7467C32.3671 77.6068 41.0545 78.644 49.3091 76.6718C54.1655 75.5115 58.6846 73.3544 62.6 70.3781C67.3288 66.777 71.1147 62.0252 73.5656 56.5251C77.02 48.7729 77.5956 40.0427 75.189 31.9041C72.7824 23.7655 67.5514 16.7524 60.4366 12.1256C53.3217 7.49877 44.7897 5.56184 36.3744 6.66302C30.1974 7.47131 24.3808 9.87758 19.4754 13.5927Z" fill="#BFBFDF"/>
<path d="M55.6686 32.2336L36.8769 51.7575L28.3352 42.883" stroke="#BFBFDF" stroke-width="7.6143" stroke-linecap="square"/>
</svg>
