<svg width="40" height="40" viewBox="0 0 40 40" fill="none" xmlns="http://www.w3.org/2000/svg">
<path d="M31.0735 8.00146C31.0735 7.86994 31.0476 7.73972 30.9973 7.61822C30.947 7.49671 30.8732 7.38631 30.7802 7.29332C30.6872 7.20033 30.5768 7.12656 30.4553 7.07623C30.3338 7.0259 30.2036 7 30.0721 7H14.5309V12.0938H31.0735V8.00146ZM6 8.00146V31.0721C6 31.2036 6.0259 31.3338 6.07623 31.4553C6.12656 31.5768 6.20033 31.6872 6.29332 31.7802C6.38631 31.8732 6.49671 31.947 6.61822 31.9973C6.73972 32.0476 6.86994 32.0735 7.00146 32.0735H12.5157V7H7.00146C6.86994 7 6.73972 7.0259 6.61822 7.07623C6.49671 7.12656 6.38631 7.20033 6.29332 7.29332C6.20033 7.38631 6.12656 7.49671 6.07623 7.61822C6.0259 7.73972 6 7.86994 6 8.00146ZM15.7302 30.8495C15.4151 30.4036 15.2661 29.8615 15.309 29.3172C15.3519 28.7729 15.584 28.2609 15.9651 27.8699C16.6068 27.3115 17.4399 27.0234 18.2895 27.0662H22.3571C22.5722 27.0665 22.7855 27.1041 22.9877 27.1775C23.1215 27.0469 23.2618 26.9231 23.408 26.8066C23.9775 26.3469 24.6797 26.0825 25.411 26.0524H27.7477C28.3311 25.6101 28.9664 25.2405 29.6393 24.952H29.7506C30.3812 24.7171 30.7892 24.5688 31.1106 24.4699V14.1462H14.5309V32.0735H17.9928L16.6204 31.5666C16.2556 31.4273 15.944 31.1763 15.7302 30.8495Z" fill="#9C42FF"/>
<path d="M30.3687 26.6458C29.654 26.9191 29.0052 27.3405 28.4647 27.8822H25.4109C25.0824 27.9176 24.7722 28.0512 24.5207 28.2655C24.1453 28.561 23.8411 28.937 23.6305 29.3658H29.0953C29.1544 29.357 29.2147 29.3609 29.2722 29.3773C29.3297 29.3937 29.3831 29.4221 29.4287 29.4607C29.4743 29.4993 29.5112 29.5472 29.5369 29.6012C29.5625 29.6552 29.5764 29.7141 29.5775 29.7738C29.5832 29.8353 29.5753 29.8973 29.5543 29.9554C29.5333 30.0135 29.4998 30.0663 29.4561 30.11C29.4125 30.1536 29.3597 30.1872 29.3016 30.2081C29.2435 30.2291 29.1815 30.237 29.12 30.2313H22.4807C22.0233 30.2313 22.1098 29.5018 22.2211 28.9949C22.2211 28.9621 22.2341 28.9307 22.2573 28.9075C22.2805 28.8843 22.3119 28.8713 22.3447 28.8713H18.2894C18.2894 28.8713 17.5229 28.8713 17.2756 29.1309C17.0283 29.3906 17.2756 29.7615 17.2756 29.7615L23.2844 32.0117L26.0538 33.0502H28.0938L29.936 32.0117L30.9869 31.4182L31.9018 30.8989V26.1389C31.6216 26.1913 31.348 26.2742 31.0858 26.3862L30.3687 26.6458ZM33.744 26.0524H32.7302V30.9237H34.0778V26.0524H33.744Z" fill="#9C42FF"/>
</svg>
