<svg width="122" height="29" viewBox="0 0 122 29" fill="none" xmlns="http://www.w3.org/2000/svg">
<path d="M29.351 18.2317V16.5553H27.2636V20.0232H35.9416V12.9723H29.351V10.3097H33.8543V11.6246H35.9416V8.51825H27.2636V14.7802H33.8543V18.2317H29.351ZM37.9853 22.4885H39.9412V20.0232H45.4307V10.9836H37.9853V22.4885ZM43.4748 12.66V18.3468H39.9412V12.66H43.4748ZM47.4711 12.66H52.9606V14.3365H47.4711V20.0232H54.9165V10.9836H47.4711V12.66ZM52.9606 16.0129V18.3468H49.427V16.0129H52.9606ZM62.4464 12.66V14.0078H64.4022V10.9836H56.9569V20.0232H64.4022V16.999H62.4464V18.3468H58.9127V12.66H62.4464ZM73.888 18.3468H68.3985V16.4731H73.888V10.9836H66.4427V20.0232H73.888V18.3468ZM68.3985 14.7967V12.66H71.9322V14.7967H68.3985ZM78.0158 10.3097H84.2778V8.51825H75.9285V20.0232H84.2778V18.2317H78.0158V15.1582H82.1247V13.3668H78.0158V10.3097ZM93.6461 8.51825H91.6903V10.9836H86.2008V20.0232H93.6461V8.51825ZM88.1566 18.3468V12.66H91.6903V18.3468H88.1566ZM97.6424 8.51825H95.6866V10.0632H97.6424V8.51825ZM97.6424 10.9836H95.6866V20.0232H97.6424V10.9836ZM101.655 10.9836V9.34004H99.6992V20.0232H104.005V18.3468H101.655V12.66H103.94V10.9836H101.655ZM113.228 10.9836H105.782V20.0232H113.228V10.9836ZM111.272 12.66V18.3468H107.738V12.66H111.272ZM121.053 10.9836H115.268V20.0232H117.224V12.66H121.053V10.9836Z" fill="white"/>
<g clip-path="url(#clip0_336_4365)">
<g clip-path="url(#clip1_336_4365)">
<path d="M0.598877 19.9808L6.47452 22.7726V28.382L0.598877 25.5821V19.9808Z" fill="#FF5CD1"/>
<path d="M12.3505 19.9808L6.47485 22.7726V28.382L12.3505 25.5821V19.9808Z" fill="#27FFF9"/>
<path d="M6.47498 17.1837L0.598999 19.981L6.46819 22.7784L12.351 19.981L6.47498 17.1837Z" fill="#FCEE21"/>
<path d="M0.599121 14.3824L6.47477 17.1728V22.7835L0.599121 19.9836V14.3824Z" fill="#FF5CD1"/>
<path d="M12.3506 14.3824L6.47498 17.1728V22.7835L12.3506 19.9836V14.3824Z" fill="#27FFF9"/>
<path d="M6.47486 11.5845L0.598877 14.3818L6.46806 17.1792L12.3508 14.3818L6.47486 11.5845Z" fill="#5C10BF"/>
<path d="M18.226 11.5803L12.3503 14.3707V19.9801L18.226 17.1802V11.5803Z" fill="#27FFF9"/>
<path d="M12.3513 8.78381L6.47534 11.5812L12.3445 14.3772L18.2273 11.5812L12.3513 8.78381Z" fill="#27FFF9"/>
<path d="M6.47534 5.98114L12.351 8.77292V14.3823L6.47534 11.5824V5.98114Z" fill="#932CFF"/>
<path d="M18.226 5.98047L12.3503 8.77225V14.3816L18.226 11.5817V5.98047Z" fill="#27FFF9"/>
<path d="M12.3513 3.1839L6.47534 5.98127L12.3445 8.77865L18.2273 5.98127L12.3513 3.1839Z" fill="#06C4FF"/>
<path d="M0.599121 3.17944L6.47477 5.96986V11.5806L0.599121 8.77931V3.17944Z" fill="#932CFF"/>
<path d="M6.47486 0.381958L0.598877 3.17933L6.46806 5.97671L12.3508 3.17933L6.47486 0.381958Z" fill="#06C4FF"/>
</g>
</g>
<defs>
<clipPath id="clip0_336_4365">
<rect width="18.2806" height="28.7266" fill="white" transform="translate(0 0.136719)"/>
</clipPath>
<clipPath id="clip1_336_4365">
<rect width="17.6278" height="28.0007" fill="white" transform="translate(0.598877 0.381958)"/>
</clipPath>
</defs>
</svg>
