<svg width="40" height="40" viewBox="0 0 40 40" fill="none" xmlns="http://www.w3.org/2000/svg">
<path d="M9.16669 28.9062L20 35L26.6667 31.25L30.8334 28.9062" stroke="#942EFF" stroke-width="1.3125" stroke-linecap="round" stroke-linejoin="round"/>
<path d="M33.3334 25L33.3334 12.5L22.9167 6.64062" stroke="#942EFF" stroke-width="1.3125" stroke-linecap="round" stroke-linejoin="round"/>
<path d="M17.0834 6.64062L6.66669 12.5L6.66669 25" stroke="#942EFF" stroke-width="1.3125" stroke-linecap="round" stroke-linejoin="round"/>
<path d="M17.5 15.625L15 17.0834L15 20L15 22.9167L17.5 24.375L20 25.8334L22.5 24.375L25 22.9167L25 20L25 17.0834L22.5 15.625L20 14.1667L17.5 15.625Z" fill="#942EFF" stroke="#942EFF" stroke-width="1.3125" stroke-linecap="round" stroke-linejoin="round"/>
<path d="M20 14.1666L20 8.33331" stroke="#942EFF" stroke-width="1.3125" stroke-linecap="round" stroke-linejoin="round"/>
<path d="M25 22.5L30.8333 25.8333" stroke="#942EFF" stroke-width="1.3125" stroke-linecap="round" stroke-linejoin="round"/>
<path d="M15 22.5L9.16669 25.8333" stroke="#942EFF" stroke-width="1.3125" stroke-linecap="round" stroke-linejoin="round"/>
<path d="M20 8.33331C21.3807 8.33331 22.5 7.21402 22.5 5.83331C22.5 4.4526 21.3807 3.33331 20 3.33331C18.6193 3.33331 17.5 4.4526 17.5 5.83331C17.5 7.21402 18.6193 8.33331 20 8.33331Z" fill="#942EFF" stroke="#942EFF" stroke-width="1.3125" stroke-linecap="round" stroke-linejoin="round"/>
<path d="M6.66669 30C8.0474 30 9.16669 28.8807 9.16669 27.5C9.16669 26.1193 8.0474 25 6.66669 25C5.28598 25 4.16669 26.1193 4.16669 27.5C4.16669 28.8807 5.28598 30 6.66669 30Z" fill="#942EFF" stroke="#942EFF" stroke-width="1.3125" stroke-linecap="round" stroke-linejoin="round"/>
<path d="M33.3333 30C34.714 30 35.8333 28.8807 35.8333 27.5C35.8333 26.1193 34.714 25 33.3333 25C31.9526 25 30.8333 26.1193 30.8333 27.5C30.8333 28.8807 31.9526 30 33.3333 30Z" fill="#942EFF" stroke="#942EFF" stroke-width="1.3125" stroke-linecap="round" stroke-linejoin="round"/>
</svg>
