<svg width="22" height="22" viewBox="0 0 22 22" fill="none" xmlns="http://www.w3.org/2000/svg">
<path d="M12.4222 18.9513L12.3201 18.857C12.0964 18.6391 11.9643 18.344 11.9508 18.032H11.1651V2.67132C11.1647 2.60079 11.1467 2.53148 11.1128 2.46965C11.0788 2.40782 11.03 2.35542 10.9707 2.3172C10.9114 2.27898 10.8436 2.25614 10.7732 2.25075C10.7029 2.24536 10.6324 2.25759 10.5679 2.28632L3.6458 5.17775C3.4944 5.24528 3.36609 5.35568 3.27672 5.49531C3.18736 5.63494 3.14085 5.7977 3.14295 5.96347V18.0242H2.47509C2.3977 18.0242 2.32107 18.0394 2.24958 18.069C2.17808 18.0987 2.11312 18.1421 2.0584 18.1968C2.00368 18.2515 1.96027 18.3165 1.93066 18.388C1.90105 18.4595 1.8858 18.5361 1.8858 18.6135C1.8858 18.6909 1.90105 18.7675 1.93066 18.839C1.96027 18.9105 2.00368 18.9754 2.0584 19.0302C2.11312 19.0849 2.17808 19.1283 2.24958 19.1579C2.32107 19.1875 2.3977 19.2028 2.47509 19.2028H12.8387L12.5715 19.022L12.4222 18.9513ZM15.7144 11.5813C15.9741 11.4182 16.2722 11.326 16.5787 11.3142C16.8073 11.3193 17.0322 11.3729 17.2387 11.4713L18.8101 12.147V8.55632C18.8115 8.38968 18.7639 8.2263 18.673 8.08657C18.5822 7.94685 18.4523 7.83696 18.2994 7.77061L12.3594 5.49989V13.1213C12.478 12.9855 12.6257 12.8781 12.7915 12.807L15.7144 11.5813ZM19.9729 14.0642C19.9877 14.056 20 14.0441 20.0085 14.0296C20.0171 14.0151 20.0216 13.9985 20.0216 13.9817C20.0216 13.9648 20.0171 13.9483 20.0085 13.9338C20 13.9193 19.9877 13.9073 19.9729 13.8992L18.8572 13.4278L16.7829 12.5713C16.7267 12.5419 16.6654 12.5233 16.6022 12.5163C16.476 12.5542 16.3546 12.607 16.2408 12.6735L13.2315 13.8913C13.219 13.8913 13.207 13.8963 13.1982 13.9051C13.1893 13.914 13.1844 13.926 13.1844 13.9385C13.1844 13.951 13.1893 13.963 13.1982 13.9718C13.207 13.9806 13.219 13.9856 13.2315 13.9856L16.5629 15.8556H16.7515L18.8572 14.677L19.9729 14.0642ZM20.1615 14.4492L18.8572 15.1563L16.8851 16.2406C16.8814 16.2493 16.8795 16.2587 16.8795 16.2681C16.8795 16.2776 16.8814 16.2869 16.8851 16.2956V19.8863C16.884 19.8942 16.8845 19.9022 16.8868 19.9098C16.889 19.9174 16.8929 19.9244 16.8981 19.9304C16.9034 19.9364 16.9098 19.9411 16.9171 19.9444C16.9243 19.9476 16.9322 19.9493 16.9401 19.9492L18.1815 19.2106L20.0908 18.0713L20.1929 18.0085V14.512C20.1959 14.4995 20.1943 14.4864 20.1886 14.4749C20.1828 14.4635 20.1733 14.4543 20.1615 14.4492ZM13.2158 14.4728C13.2079 14.4727 13.2 14.4743 13.1928 14.4775C13.1855 14.4808 13.1791 14.4856 13.1738 14.4915C13.1686 14.4975 13.1648 14.5045 13.1625 14.5121C13.1602 14.5197 13.1597 14.5278 13.1608 14.5356V17.9692C13.1571 17.9779 13.1552 17.9872 13.1552 17.9967C13.1552 18.0061 13.1571 18.0155 13.1608 18.0242L15.1408 19.2106L16.3979 19.9963C16.4059 19.9964 16.4137 19.9948 16.421 19.9915C16.4282 19.9883 16.4347 19.9835 16.4399 19.9775C16.4451 19.9716 16.449 19.9645 16.4513 19.9569C16.4535 19.9493 16.4541 19.9413 16.4529 19.9335V16.3113C16.4566 16.3026 16.4585 16.2933 16.4585 16.2838C16.4585 16.2744 16.4566 16.265 16.4529 16.2563L13.2158 14.4728ZM14.1979 16.1778C14.1723 16.1662 14.1496 16.1489 14.1319 16.127C14.1141 16.1052 14.1017 16.0796 14.0956 16.0521C14.0894 16.0246 14.0898 15.9961 14.0967 15.9688C14.1036 15.9415 14.1167 15.9162 14.1351 15.8949C14.1543 15.8647 14.1811 15.8401 14.2128 15.8236C14.2446 15.8071 14.2801 15.7991 14.3158 15.8006C14.3545 15.791 14.395 15.791 14.4337 15.8006L16.0051 16.6649C16.0279 16.6793 16.0475 16.698 16.063 16.7201C16.0785 16.7421 16.0895 16.767 16.0953 16.7932C16.1012 16.8195 16.1018 16.8467 16.0971 16.8732C16.0924 16.8998 16.0825 16.9251 16.0679 16.9478C16.0482 16.9774 16.0212 17.0015 15.9897 17.018C15.9581 17.0345 15.9228 17.0428 15.8872 17.042C15.8481 17.0469 15.8085 17.0469 15.7694 17.042L14.1979 16.1778Z" fill="currentColor"/>
</svg>
