<svg width="40" height="40" viewBox="0 0 40 40" fill="none" xmlns="http://www.w3.org/2000/svg">
<path d="M34.6905 31.2381H33.3095V14.6667C33.3095 13.1476 32.0667 11.9048 30.5476 11.9048H25.0238V31.2381H23.6429V7.76191C23.6429 6.24286 22.4 5 20.881 5H9.83333C8.31428 5 7.07145 6.24283 7.07145 7.76188V31.2381H5.69045C5.27619 31.2381 5 31.5143 5 31.9286V33.3095C5 33.7238 5.27622 34 5.69048 34H34.6905C35.1047 34 35.3809 33.7238 35.3809 33.3095V31.9286C35.3809 31.5143 35.1047 31.2381 34.6905 31.2381V31.2381ZM13.9762 25.0238C13.9762 25.4381 13.7 25.7143 13.2857 25.7143H10.5238C10.1095 25.7143 9.83333 25.4381 9.83333 25.0238V23.6428C9.83333 23.2286 10.1095 22.9524 10.5238 22.9524H13.2857C13.7 22.9524 13.9762 23.2286 13.9762 23.6428V25.0238ZM13.9762 19.5C13.9762 19.9143 13.7 20.1905 13.2857 20.1905H10.5238C10.1095 20.1905 9.83333 19.9143 9.83333 19.5V18.119C9.83333 17.7048 10.1095 17.4286 10.5238 17.4286H13.2857C13.7 17.4286 13.9762 17.7048 13.9762 18.119V19.5ZM13.9762 13.9762C13.9762 14.3905 13.7 14.6667 13.2857 14.6667H10.5238C10.1095 14.6667 9.83333 14.3904 9.83333 13.9762V12.5952C9.83333 12.1809 10.1095 11.9048 10.5238 11.9048H13.2857C13.7 11.9048 13.9762 12.181 13.9762 12.5952V13.9762ZM20.881 25.0238C20.881 25.4381 20.6047 25.7143 20.1905 25.7143H17.4286C17.0143 25.7143 16.7381 25.4381 16.7381 25.0238V23.6428C16.7381 23.2286 17.0143 22.9524 17.4286 22.9524H20.1905C20.6048 22.9524 20.881 23.2286 20.881 23.6428V25.0238ZM20.881 19.5C20.881 19.9143 20.6047 20.1905 20.1905 20.1905H17.4286C17.0143 20.1905 16.7381 19.9143 16.7381 19.5V18.119C16.7381 17.7048 17.0143 17.4286 17.4286 17.4286H20.1905C20.6048 17.4286 20.881 17.7048 20.881 18.119V19.5ZM20.881 13.9762C20.881 14.3905 20.6047 14.6667 20.1905 14.6667H17.4286C17.0143 14.6667 16.7381 14.3904 16.7381 13.9762V12.5952C16.7381 12.1809 17.0143 11.9048 17.4286 11.9048H20.1905C20.6048 11.9048 20.881 12.181 20.881 12.5952V13.9762ZM31.2381 25.0238C31.2381 25.4381 30.9619 25.7143 30.5476 25.7143H27.7857C27.3714 25.7143 27.0952 25.4381 27.0952 25.0238V23.6428C27.0952 23.2286 27.3714 22.9524 27.7857 22.9524H30.5476C30.9619 22.9524 31.2381 23.2286 31.2381 23.6428V25.0238H31.2381ZM31.2381 19.5C31.2381 19.9143 30.9619 20.1905 30.5476 20.1905H27.7857C27.3714 20.1905 27.0952 19.9143 27.0952 19.5V18.119C27.0952 17.7048 27.3714 17.4286 27.7857 17.4286H30.5476C30.9619 17.4286 31.2381 17.7048 31.2381 18.119V19.5H31.2381Z" fill="#9C42FF"/>
</svg>
