<svg width="15" height="16" viewBox="0 0 15 16" fill="none" xmlns="http://www.w3.org/2000/svg">
<path d="M13.1406 5.07789C13.1406 4.94829 13.1406 4.81599 13.1325 4.6891C13.7184 4.26521 14.2287 3.73332 14.6364 3.13393C14.0964 3.36883 13.5132 3.53622 12.9084 3.60102C13.5321 3.23113 14.0019 2.64524 14.226 1.95136C13.6482 2.29155 13.0002 2.54535 12.3225 2.67224C11.7744 2.08906 10.9968 1.72726 10.1329 1.72726C8.30231 1.72726 6.77954 3.37693 7.20343 5.41538C6.01062 5.35586 4.84368 5.046 3.77847 4.50595C2.71325 3.9659 1.7736 3.20774 1.02058 2.28075C0.758683 2.72354 0.612886 3.23383 0.612886 3.79272C0.613219 4.28641 0.735367 4.77239 0.968498 5.20756C1.20163 5.64274 1.53854 6.01367 1.94936 6.28746C1.46067 6.26856 0.993577 6.13086 0.596686 5.90677V5.94457C0.5953 6.63685 0.833626 7.30826 1.27117 7.84474C1.70872 8.38122 2.31851 8.74967 2.99693 8.8875C2.52174 9.009 2.10595 9.009 1.64426 8.9415C2.02225 10.1295 3.12923 10.9935 4.4468 11.0205C3.41812 11.825 2.12755 12.3002 0.723584 12.3002C0.47519 12.3002 0.242994 12.2894 0 12.2624C1.32837 13.1129 2.90513 13.607 4.60609 13.607C10.1221 13.607 13.1406 9.0414 13.1406 5.07789Z" fill="white"/>
</svg>
