<svg width="129" height="16" viewBox="0 0 129 16" fill="none" xmlns="http://www.w3.org/2000/svg">
<path fill-rule="evenodd" clip-rule="evenodd" d="M16.6153 0H13.5384L-6.10352e-05 16H3.07686L16.6153 0ZM22.1537 0H25.2306L11.6922 16H8.61525L22.1537 0ZM33.846 0H30.7691L17.2306 16H20.3076L33.846 0ZM39.3845 0H42.4614L28.9229 16H25.846L39.3845 0ZM51.0768 0H47.9999L34.4614 16H37.5383L51.0768 0ZM56.6152 0H59.6922L46.1537 16H43.0768L56.6152 0ZM68.3076 0H65.2306L51.6922 16H54.7691L68.3076 0ZM73.846 0H76.9229L63.3845 16H60.3076L73.846 0ZM85.5383 0H82.4614L68.9229 16H71.9999L85.5383 0ZM91.0768 0H94.1537L80.6152 16H77.5383L91.0768 0ZM102.769 0H99.6922L86.1537 16H89.2306L102.769 0ZM108.308 0H111.384L97.846 16H94.7691L108.308 0ZM120 0H116.923L103.384 16H106.461L120 0ZM128.615 0H125.538L112 16H115.077L128.615 0Z" fill="url(#paint0_linear_1_1748)"/>
<defs>
<linearGradient id="paint0_linear_1_1748" x1="119.385" y1="7.99985" x2="7.22956" y2="-19.3483" gradientUnits="userSpaceOnUse">
<stop stop-color="#06C4FF"/>
<stop offset="1" stop-color="#06C4FF" stop-opacity="0"/>
</linearGradient>
</defs>
</svg>
