<svg width="129" height="16" viewBox="0 0 129 16" fill="none" xmlns="http://www.w3.org/2000/svg">
<path fill-rule="evenodd" clip-rule="evenodd" d="M112 0H115.077L128.616 16H125.539L112 0ZM106.462 0H103.385L116.923 16H120L106.462 0ZM94.7695 0H97.8464L111.385 16H108.308L94.7695 0ZM89.231 0H86.1541L99.6925 16H102.769L89.231 0ZM77.5387 0H80.6156L94.1541 16H91.0772L77.5387 0ZM72.0002 0H68.9233L82.4618 16H85.5387L72.0002 0ZM60.3079 0H63.3848L76.9233 16H73.8464L60.3079 0ZM54.7695 0H51.6925L65.231 16H68.3079L54.7695 0ZM43.0771 0H46.1541L59.6925 16H56.6156L43.0771 0ZM37.5387 0H34.4618L48.0002 16H51.0772L37.5387 0ZM25.8464 0H28.9233L42.4618 16H39.3848L25.8464 0ZM20.3079 0H17.231L30.7695 16H33.8464L20.3079 0ZM8.61562 0H11.6925L25.231 16H22.1541L8.61562 0ZM0.000228882 0H3.07716L16.6156 16H13.5387L0.000228882 0Z" fill="url(#paint0_linear_1_1764)"/>
<defs>
<linearGradient id="paint0_linear_1_1764" x1="9.23088" y1="7.99985" x2="121.386" y2="-19.3483" gradientUnits="userSpaceOnUse">
<stop stop-color="#06C4FF"/>
<stop offset="1" stop-color="#06C4FF" stop-opacity="0"/>
</linearGradient>
</defs>
</svg>
