<svg width="200" height="200" viewBox="0 0 200 200" fill="none" xmlns="http://www.w3.org/2000/svg">
<g clip-path="url(#clip0_1146_41434)">
<path d="M99.961 0.0780945C155.174 0.0780945 199.922 44.8262 199.922 100.039C199.922 155.252 155.174 200 99.961 200C44.7482 200 1.52588e-05 155.252 1.52588e-05 100.039C1.52588e-05 44.8262 44.7677 0.0780945 99.961 0.0780945Z" fill="#26A69A"/>
<path d="M161.695 91.7025C161.695 84.8692 140.375 79.1878 112.105 77.8993V63.5494H153.104V40.5115H45.7439V63.5494H86.7435V77.9578C59.0004 79.344 38.2273 84.9668 38.2273 91.722C38.2273 98.4576 59.0004 104.1 86.7435 105.486V159.567H112.124V105.506C140.375 104.237 161.695 98.5357 161.695 91.7025ZM99.961 101.425C70.9293 101.425 44.3772 95.8219 44.3772 90.7263C44.3772 85.3182 62.1047 80.9254 86.7044 79.754V96.6615H112.085V79.715C137.271 80.8083 155.545 85.2401 155.545 90.7263C155.545 95.7243 128.68 101.425 99.961 101.425Z" fill="white"/>
</g>
<defs>
<clipPath id="clip0_1146_41434">
<rect width="200" height="200" fill="white"/>
</clipPath>
</defs>
</svg>
