<svg width="40" height="40" viewBox="0 0 40 40" fill="none" xmlns="http://www.w3.org/2000/svg">
<path d="M36.7076 21.5114C36.665 21.3979 36.5972 21.2956 36.5092 21.2123C36.4213 21.1289 36.3154 21.0666 36.1998 21.0301L27.9109 18.4839V7.95162C27.9146 7.83703 27.8914 7.72317 27.8431 7.61914C27.7949 7.51511 27.7229 7.4238 27.633 7.35252C27.5905 7.23908 27.5226 7.13681 27.4346 7.05343C27.3467 6.97005 27.2409 6.90775 27.1252 6.87124L17.8247 4.03548C17.6325 3.9805 17.4275 3.98962 17.241 4.06144L10.3755 7.19276C10.2277 7.2628 10.1034 7.37429 10.0179 7.51364C9.93231 7.65299 9.88918 7.81418 9.89372 7.97758V18.2802C9.88995 18.3321 9.89887 18.3842 9.91972 18.432L3.48214 21.3676C3.33428 21.4376 3.21001 21.5491 3.12446 21.6885C3.03891 21.8278 2.99578 21.989 3.00033 22.1524V32.429C2.9992 32.6054 3.05555 32.7774 3.16086 32.9189C3.26617 33.0605 3.41472 33.164 3.5841 33.2139L13.4164 36.0995C13.4904 36.1206 13.5674 36.1294 13.6443 36.1255H13.6703C13.7055 36.2184 13.7753 36.294 13.8652 36.3365C13.9551 36.3789 14.0579 36.3849 14.1521 36.3532L20.2858 33.4176L29.3844 36.1015C29.4584 36.1226 29.5354 36.1314 29.6123 36.1275H29.6383C29.6734 36.2204 29.7433 36.296 29.8332 36.3385C29.923 36.3809 30.0259 36.3869 30.1201 36.3552L36.7176 33.2159C36.7963 33.1734 36.8631 33.1118 36.9117 33.0368C36.9602 32.9617 36.9891 32.8756 36.9955 32.7865V22.1284C37.0097 22.009 36.9902 21.888 36.9394 21.779C36.8885 21.67 36.8083 21.5773 36.7076 21.5114ZM17.6508 5.63908L24.6202 7.78986L20.0079 9.89072L16.9151 8.99007L12.9626 7.77588L17.6508 5.63908ZM11.4931 9.08193L16.4353 10.5258L19.704 11.5383V20.0695L11.4931 17.6731V9.08193ZM12.8366 34.2443L4.62571 31.8479V23.2607L9.56785 24.7046L12.8366 25.7171V34.2483V34.2443ZM13.1145 24.0595L10.0237 23.1489L6.07117 21.9347L10.7594 19.8079L17.7148 21.9767L13.1145 24.0595ZM28.8006 34.2443L21.0215 31.9657V23.3786L25.5118 24.7066L28.7806 25.7191V34.2503L28.8006 34.2443ZM29.0785 24.0595L25.9877 23.1489L22.0331 21.9507L26.7114 19.8239L33.6808 21.9747L29.0785 24.0595Z" fill="#942EFF"/>
</svg>
