<svg width="22" height="22" viewBox="0 0 22 22" fill="none" xmlns="http://www.w3.org/2000/svg">
<path d="M14.8133 7.8997H16.4846C16.7925 7.8997 17.0417 8.14887 17.0417 8.4568C17.0417 8.76474 16.7925 9.01391 16.4846 9.01391H14.8133C14.5054 9.01391 14.2562 8.76474 14.2562 8.4568C14.2562 8.14887 14.5054 7.8997 14.8133 7.8997ZM14.8133 5.67128H17.5988C17.9067 5.67128 18.1558 5.92045 18.1558 6.2284C18.1558 6.53632 17.9067 6.78549 17.5988 6.78549H14.8133C14.5054 6.78549 14.2562 6.53632 14.2562 6.2284C14.2562 5.92045 14.5054 5.67128 14.8133 5.67128ZM8.12812 4H11.4707C12.3934 4 13.142 4.74806 13.142 5.6713V9.01391C13.142 9.93716 12.3934 10.6852 11.4707 10.6852H8.12812C7.20535 10.6852 6.4568 9.93716 6.4568 9.01391V5.67128C6.4568 4.74804 7.20535 4 8.12812 4ZM16.7626 12.5795L18.8201 10.522C19.0378 10.3044 19.3908 10.3044 19.608 10.522C19.8255 10.7396 19.8255 11.0921 19.608 11.3097L17.4883 13.4293C17.5616 13.6204 17.599 13.8232 17.5988 14.0278V17.9275H2V14.0278C2 13.1045 2.74864 12.3565 3.67133 12.3565H15.9275C16.2316 12.3565 16.5167 12.4376 16.7626 12.5795Z" fill="currentColor"/>
</svg>
