<svg width="40" height="40" viewBox="0 0 40 40" fill="none" xmlns="http://www.w3.org/2000/svg">
<path d="M19.6957 5C13.2467 5 8 10.2467 8 16.6957C8 20.9854 10.3826 24.9552 14.1163 26.9899L14.1165 31.9443C14.1165 33.9497 15.9478 35.5811 18.1987 35.5811H21.1927C23.4435 35.5811 25.2749 33.9497 25.2749 31.9443V26.9898C29.0087 24.9551 31.3914 20.9853 31.3914 16.6957C31.3914 10.2467 26.1447 5 19.6957 5ZM21.4039 33.4214H17.9874C17.4396 33.4214 16.9955 32.9773 16.9955 32.4296C16.9955 31.8818 17.4396 31.4377 17.9874 31.4377H21.4039C21.9516 31.4377 22.3957 31.8818 22.3957 32.4296C22.3957 32.9773 21.9516 33.4214 21.4039 33.4214ZM21.4039 30.2248H17.9874C17.4396 30.2248 16.9955 29.7807 16.9955 29.233C16.9955 28.6852 17.4396 28.2411 17.9874 28.2411H21.4039C21.9516 28.2411 22.3957 28.6852 22.3957 29.233C22.3957 29.7807 21.9516 30.2248 21.4039 30.2248ZM26.8438 17.5873C26.296 17.5873 25.8519 17.1432 25.8519 16.5955C25.852 16.2375 25.8214 15.8802 25.7604 15.5274C25.3994 13.4479 24.0196 11.714 22.0697 10.8892C21.565 10.6758 21.329 10.0938 21.5424 9.58931C21.7558 9.08482 22.3382 8.84898 22.8423 9.06207C25.4164 10.1508 27.238 12.4409 27.7149 15.1882C27.7953 15.653 27.8357 16.1238 27.8356 16.5955C27.8356 17.1432 27.3915 17.5873 26.8438 17.5873Z" fill="#942EFF"/>
</svg>
