<svg width="43" height="42" viewBox="0 0 43 42" fill="none" xmlns="http://www.w3.org/2000/svg">
<path d="M18.5 29.9515C18.5 30.7472 18.8161 31.5102 19.3787 32.0729C19.9413 32.6355 20.7044 32.9515 21.5 32.9515C22.2956 32.9515 23.0587 32.6355 23.6213 32.0729C24.1839 31.5102 24.5 30.7472 24.5 29.9515C24.5 29.1559 24.1839 28.3928 23.6213 27.8302C23.0587 27.2676 22.2956 26.9515 21.5 26.9515C20.7044 26.9515 19.9413 27.2676 19.3787 27.8302C18.8161 28.3928 18.5 29.1559 18.5 29.9515Z" fill="#DFBFBF"/>
<path d="M18.5 8H24.5L23.5 25H19.5L18.5 8Z" fill="#DFBFBF"/>
<path fill-rule="evenodd" clip-rule="evenodd" d="M24.804 0.259564C19.8668 -0.523828 14.812 0.479356 10.5484 3.08875C9.95246 3.45347 9.37745 3.84623 8.82493 4.26503C7.77662 5.05844 6.79891 5.95328 5.9073 6.94143C2.55881 10.6525 0.64428 15.436 0.50794 20.4321C0.379918 25.1233 1.82758 29.7129 4.60523 33.4744L4.61727 33.4647C6.53603 36.0632 9.04294 38.2033 11.9611 39.6933C13.5546 40.507 15.2333 41.1076 16.955 41.4903L16.952 41.5017C21.5175 42.5144 26.3008 41.9759 30.5378 39.9561C31.8477 39.3317 33.0805 38.5776 34.2203 37.7101C35.5952 36.6653 36.8437 35.449 37.9326 34.0835L37.9295 34.0812C39.027 32.7031 39.9543 31.1826 40.6818 29.5503C42.0167 26.5552 42.6218 23.3123 42.4798 20.0825H42.4925C42.2893 15.4114 40.531 10.9315 37.4831 7.36249C34.237 3.56154 29.7413 1.04296 24.804 0.259564ZM10.4788 6.44799C7.52238 8.68928 5.30652 11.7883 4.14888 15.3428C2.803 19.4753 2.97577 23.9522 4.63614 27.9687C6.29651 31.9852 9.33555 35.2778 13.2069 37.2544C17.0782 39.2311 21.5279 39.7623 25.7558 38.7523C28.2426 38.1583 30.5568 37.0541 32.5619 35.5306C34.9846 33.6864 36.9243 31.2527 38.1799 28.4356C39.9492 24.4659 40.244 19.9953 39.0114 15.8277C37.7787 11.6601 35.0994 8.06879 31.4553 5.6995C27.8111 3.33021 23.441 2.33835 19.1308 2.90224C15.9685 3.31595 12.9906 4.54716 10.4788 6.44799Z" fill="#DFBFBF"/>
</svg>
