<svg width="28" height="28" viewBox="0 0 28 28" fill="none" xmlns="http://www.w3.org/2000/svg">
<path d="M22.4466 14.5204L25.9047 17.6041C26.0915 17.7727 26.1144 18.0664 25.9544 18.2621L24.8871 19.5759C24.7281 19.7716 24.4469 19.7967 24.2601 19.628L21.9726 17.5875L17.8954 13.9499L13.9405 10.4205L9.98456 13.9499L5.9084 17.5875L3.62091 19.628C3.43508 19.7967 3.15388 19.7716 2.99389 19.5759L1.92664 18.2621C1.76665 18.0664 1.78951 17.7727 1.97632 17.6041L5.9084 14.0977L10.1048 10.3539L12.3407 8.35908C12.4788 8.21334 12.6209 8.0863 12.766 7.97804C12.9339 7.85311 13.1059 7.75527 13.2807 7.68445C13.4963 7.59698 13.7159 7.5491 13.9405 7.5491C14.1651 7.5491 14.3857 7.59701 14.6014 7.68445C14.7762 7.75527 14.9482 7.85311 15.1151 7.97804C15.2602 8.0863 15.4023 8.21334 15.5414 8.35908L17.7772 10.3539L19.7617 12.1247L22.4466 14.5204Z" fill="white"/>
<path d="M13.9912 11.7385L10.0353 15.2679L5.95911 18.9054V27.5466C5.95911 27.7798 6.0704 27.9693 6.20949 27.9693H12.3218V22.2037H15.6606V27.9693H21.7728C21.911 27.9693 22.0233 27.7798 22.0233 27.5466V18.9054L17.9471 15.2679L13.9912 11.7385Z" fill="white"/>
<path d="M13.9885 0C13.808 0 13.5222 0.145836 13.5222 0.326339V8.81099C13.5222 8.9915 13.808 9.13733 13.9885 9.13733C14.169 9.13733 14.4549 8.9915 14.4549 8.81099V0.326339C14.4549 0.145836 14.169 0 13.9885 0Z" fill="white"/>
<path d="M14.2366 0.0818695L18.5156 2.75678C18.7196 2.88425 18.7196 3.18204 18.5156 3.30849L14.2366 5.9834C14.0183 6.12006 13.7369 5.96301 13.7369 5.70704V0.358236C13.7369 0.102272 14.0194 -0.0537563 14.2366 0.0818695Z" fill="white"/>
</svg>
