<svg width="656" height="354" viewBox="0 0 656 354" fill="none" xmlns="http://www.w3.org/2000/svg">
<path d="M18.5086 0.577148H636.677V18.9792H655.089V353.612H0.0970459V18.9792H18.5086V0.577148Z" fill="#422A73" fill-opacity="0.33"/>
<path d="M18.9689 18.9792V1.03744H636.217V18.9792V19.4395H636.677H654.628V353.151H0.557335V19.4395H18.5086H18.9689V18.9792Z" stroke="#9E9DD9" stroke-opacity="0.4" stroke-width="0.920578"/>
<path d="M60.6757 43.4645V27.7332H46.2273V49.1156H50.8398V43.4645H60.6757ZM50.8398 39.4935V31.7042H56.0632V39.4935H50.8398ZM63.8571 35.9196H72.9598V38.4549H63.8571V49.1156H77.2058V32.3151H63.8571V35.9196ZM72.9598 42.0594V45.5111H68.103V42.0594H72.9598ZM90.616 32.3151H80.383V49.1156H84.629V35.9196H90.616V32.3151ZM102.343 35.9196V38.3022H106.589V32.3151H93.2399V49.1156H106.589V43.1285H102.343V45.5111H97.4858V35.9196H102.343ZM123.115 45.5111H114.012V42.7314H123.115V32.3151H109.766V49.1156H123.115V45.5111ZM114.012 39.1269V35.9196H118.869V39.1269H114.012ZM130.538 27.7332H126.292V49.1156H130.538V27.7332ZM140.205 31.7042H145.398V49.1156H150.011V31.7042H155.234V27.7332H140.205V31.7042ZM171.022 32.3151H166.776V45.5111H161.919V32.3151H157.673V49.1156H166.776V53.6975H171.022V32.3151ZM174.199 53.6975H178.445V49.1156H187.548V32.3151H174.199V53.6975ZM183.302 35.9196V45.5111H178.445V35.9196H183.302ZM204.074 45.5111H194.971V42.7314H204.074V32.3151H190.725V49.1156H204.074V45.5111ZM194.971 39.1269V35.9196H199.828V39.1269H194.971Z" fill="white"/>
<path d="M278.652 49.1156H283.264V27.7332H268.358V49.1156H272.97V42.9147H278.652V49.1156ZM272.97 38.9437V31.7042H278.652V38.9437H272.97ZM296.668 32.3152H286.435V49.1156H290.681V35.9196H296.668V32.3152ZM312.641 45.5111H303.538V42.7314H312.641V32.3152H299.292V49.1156H312.641V45.5111ZM303.538 39.127V35.9196H308.395V39.127H303.538ZM315.818 35.9196H324.921V38.455H315.818V49.1156H329.167V32.3152H315.818V35.9196ZM324.921 42.0594V45.5111H320.064V42.0594H324.921Z" fill="white"/>
<path d="M393.827 45.1751V49.1156H408.734V36.4389H398.44V31.6737H408.734V27.7332H393.827V40.3794H404.121V45.1751H393.827ZM411.905 49.1156H425.253V32.3152H421.007V45.5111H416.151V32.3152H411.905V49.1156ZM428.431 53.6975H432.677V49.1156H441.779V32.3152H428.431V53.6975ZM437.533 35.9196V45.5111H432.677V35.9196H437.533ZM444.957 53.6975H449.202V49.1156H458.305V32.3152H444.957V53.6975ZM454.059 35.9196V45.5111H449.202V35.9196H454.059ZM465.728 27.7332H461.483V49.1156H465.728V27.7332ZM482.259 32.3152H478.013V45.5111H473.156V32.3152H468.91V49.1156H478.013V53.6975H482.259V32.3152Z" fill="white"/>
<path d="M561.011 43.4645V27.7332H546.563V49.1156H551.175V43.4645H561.011ZM551.175 39.4935V31.7042H556.398V39.4935H551.175ZM574.425 32.3152H564.192V49.1156H568.438V35.9196H574.425V32.3152ZM581.295 27.7332H577.049V30.6657H581.295V27.7332ZM581.295 32.3152H577.049V49.1156H581.295V32.3152ZM593.58 35.9196V38.3022H597.826V32.3152H584.477V49.1156H597.826V43.1285H593.58V45.5111H588.723V35.9196H593.58ZM614.352 45.5111H605.249V42.7314H614.352V32.3152H601.003V49.1156H614.352V45.5111ZM605.249 39.127V35.9196H610.106V39.127H605.249Z" fill="white"/>
<path d="M273.331 124.486H270.032V105.853H263.923V108.602H266.886V124.486H263.587V127.235H273.331V124.486ZM276.374 127.235H290.945V105.853H276.374V127.235ZM279.52 108.571H287.798V124.516H279.52V108.571ZM294.197 109.885L296.824 110.74L295.144 113.062L297.038 114.436L298.657 112.206L300.306 114.436L302.2 113.092L300.489 110.679L303.055 109.824L302.353 107.655L299.909 108.449V105.792H297.526V108.51L294.899 107.655L294.197 109.885ZM315.183 124.486H311.884V105.853H305.775V108.602H308.738V124.486H305.439V127.235H315.183V124.486ZM318.226 127.235H332.797V105.853H318.226V127.235ZM321.372 108.571H329.65V124.516H321.372V108.571Z" fill="white"/>
<path d="M412.104 105.853V110.801H415.25V108.571H422.917L415.586 127.235H419.129L427.316 105.853H412.104ZM430.052 127.235H444.622V122.012H441.476V124.516H433.198V122.5L444.622 115.414V105.853H430.052V113.153H433.198V108.571H441.476V114.131L430.052 121.217V127.235ZM448.547 127.235H463.117V105.853H448.547V127.235ZM451.693 108.571H459.971V124.516H451.693V108.571Z" fill="white"/>
<path d="M534.374 127.235H548.944V105.853H534.374V127.235ZM537.52 108.571H545.798V124.516H537.52V108.571ZM555.404 127.235V123.875H552.38V127.235H555.404ZM558.835 127.235H573.405V122.012H570.259V124.516H561.981V122.5L573.405 115.414V105.853H558.835V113.153H561.981V108.571H570.259V114.131L558.835 121.217V127.235ZM577.33 127.235H591.9V105.853H577.33V127.235ZM580.476 108.571H588.754V124.516H580.476V108.571Z" fill="white"/>
<path d="M45.5979 121.955V128.222H66.3353V109.63H52.959V105.045H66.3353V98.7777H45.5979V115.898H58.9741V121.955H45.5979ZM76.8916 105.087V100.881H70.2035V128.222H81.3504V122.586H76.8916V110.724H81.3083V105.087H76.8916ZM84.704 110.724H97.0707V113.416H84.704V128.222H103.759V105.087H84.704V110.724ZM97.0707 119.052V122.586H91.3921V119.052H97.0707ZM126.68 105.087H107.625V128.222H114.314V110.724H119.992V128.222H126.68V105.087ZM149.602 98.7777H142.914V105.087H130.547V128.222H149.602V98.7777ZM137.235 122.586V110.724H142.914V122.586H137.235ZM153.468 110.724H165.835V113.416H153.468V128.222H172.523V105.087H153.468V110.724ZM165.835 119.052V122.586H160.156V119.052H165.835ZM190.902 105.087H176.39V128.222H183.078V110.724H190.902V105.087ZM213.231 98.7777H206.543V105.087H194.176V128.222H213.231V98.7777ZM200.864 122.586V110.724H206.543V122.586H200.864Z" fill="url(#paint0_linear_765_16407)"/>
<path d="M45.5979 121.955V120.666H44.3094V121.955H45.5979ZM45.5979 128.222H44.3094V129.511H45.5979V128.222ZM66.3353 128.222V129.511H67.6238V128.222H66.3353ZM66.3353 109.63H67.6238V108.342H66.3353V109.63ZM52.959 109.63H51.6705V110.919H52.959V109.63ZM52.959 105.045V103.757H51.6705V105.045H52.959ZM66.3353 105.045V106.334H67.6238V105.045H66.3353ZM66.3353 98.7777H67.6238V97.4892H66.3353V98.7777ZM45.5979 98.7777V97.4892H44.3094V98.7777H45.5979ZM45.5979 115.898H44.3094V117.186H45.5979V115.898ZM58.9741 115.898H60.2626V114.609H58.9741V115.898ZM58.9741 121.955V123.243H60.2626V121.955H58.9741ZM44.3094 121.955V128.222H46.8864V121.955H44.3094ZM45.5979 129.511H66.3353V126.934H45.5979V129.511ZM67.6238 128.222V109.63H65.0468V128.222H67.6238ZM66.3353 108.342H52.959V110.919H66.3353V108.342ZM54.2475 109.63V105.045H51.6705V109.63H54.2475ZM52.959 106.334H66.3353V103.757H52.959V106.334ZM67.6238 105.045V98.7777H65.0468V105.045H67.6238ZM66.3353 97.4892H45.5979V100.066H66.3353V97.4892ZM44.3094 98.7777V115.898H46.8864V98.7777H44.3094ZM45.5979 117.186H58.9741V114.609H45.5979V117.186ZM57.6856 115.898V121.955H60.2626V115.898H57.6856ZM58.9741 120.666H45.5979V123.243H58.9741V120.666ZM76.8916 105.087H75.6031V106.376H76.8916V105.087ZM76.8916 100.881H78.1801V99.5924H76.8916V100.881ZM70.2035 100.881V99.5924H68.915V100.881H70.2035ZM70.2035 128.222H68.915V129.511H70.2035V128.222ZM81.3504 128.222V129.511H82.6389V128.222H81.3504ZM81.3504 122.586H82.6389V121.297H81.3504V122.586ZM76.8916 122.586H75.6031V123.874H76.8916V122.586ZM76.8916 110.724V109.435H75.6031V110.724H76.8916ZM81.3083 110.724V112.012H82.5968V110.724H81.3083ZM81.3083 105.087H82.5968V103.799H81.3083V105.087ZM78.1801 105.087V100.881H75.6031V105.087H78.1801ZM76.8916 99.5924H70.2035V102.169H76.8916V99.5924ZM68.915 100.881V128.222H71.492V100.881H68.915ZM70.2035 129.511H81.3504V126.934H70.2035V129.511ZM82.6389 128.222V122.586H80.0619V128.222H82.6389ZM81.3504 121.297H76.8916V123.874H81.3504V121.297ZM78.1801 122.586V110.724H75.6031V122.586H78.1801ZM76.8916 112.012H81.3083V109.435H76.8916V112.012ZM82.5968 110.724V105.087H80.0198V110.724H82.5968ZM81.3083 103.799H76.8916V106.376H81.3083V103.799ZM84.704 110.724H83.4155V112.012H84.704V110.724ZM97.0707 110.724H98.3592V109.435H97.0707V110.724ZM97.0707 113.416V114.704H98.3592V113.416H97.0707ZM84.704 113.416V112.127H83.4155V113.416H84.704ZM84.704 128.222H83.4155V129.511H84.704V128.222ZM103.759 128.222V129.511H105.047V128.222H103.759ZM103.759 105.087H105.047V103.799H103.759V105.087ZM84.704 105.087V103.799H83.4155V105.087H84.704ZM97.0707 119.052H98.3592V117.764H97.0707V119.052ZM97.0707 122.586V123.874H98.3592V122.586H97.0707ZM91.3921 122.586H90.1036V123.874H91.3921V122.586ZM91.3921 119.052V117.764H90.1036V119.052H91.3921ZM84.704 112.012H97.0707V109.435H84.704V112.012ZM95.7822 110.724V113.416H98.3592V110.724H95.7822ZM97.0707 112.127H84.704V114.704H97.0707V112.127ZM83.4155 113.416V128.222H85.9925V113.416H83.4155ZM84.704 129.511H103.759V126.934H84.704V129.511ZM105.047 128.222V105.087H102.47V128.222H105.047ZM103.759 103.799H84.704V106.376H103.759V103.799ZM83.4155 105.087V110.724H85.9925V105.087H83.4155ZM95.7822 119.052V122.586H98.3592V119.052H95.7822ZM97.0707 121.297H91.3921V123.874H97.0707V121.297ZM92.6806 122.586V119.052H90.1036V122.586H92.6806ZM91.3921 120.341H97.0707V117.764H91.3921V120.341ZM126.68 105.087H127.969V103.799H126.68V105.087ZM107.625 105.087V103.799H106.337V105.087H107.625ZM107.625 128.222H106.337V129.511H107.625V128.222ZM114.314 128.222V129.511H115.602V128.222H114.314ZM114.314 110.724V109.435H113.025V110.724H114.314ZM119.992 110.724H121.281V109.435H119.992V110.724ZM119.992 128.222H118.704V129.511H119.992V128.222ZM126.68 128.222V129.511H127.969V128.222H126.68ZM126.68 103.799H107.625V106.376H126.68V103.799ZM106.337 105.087V128.222H108.914V105.087H106.337ZM107.625 129.511H114.314V126.934H107.625V129.511ZM115.602 128.222V110.724H113.025V128.222H115.602ZM114.314 112.012H119.992V109.435H114.314V112.012ZM118.704 110.724V128.222H121.281V110.724H118.704ZM119.992 129.511H126.68V126.934H119.992V129.511ZM127.969 128.222V105.087H125.392V128.222H127.969ZM149.602 98.7777H150.89V97.4892H149.602V98.7777ZM142.914 98.7777V97.4892H141.625V98.7777H142.914ZM142.914 105.087V106.376H144.202V105.087H142.914ZM130.547 105.087V103.799H129.258V105.087H130.547ZM130.547 128.222H129.258V129.511H130.547V128.222ZM149.602 128.222V129.511H150.89V128.222H149.602ZM137.235 122.586H135.946V123.874H137.235V122.586ZM137.235 110.724V109.435H135.946V110.724H137.235ZM142.914 110.724H144.202V109.435H142.914V110.724ZM142.914 122.586V123.874H144.202V122.586H142.914ZM149.602 97.4892H142.914V100.066H149.602V97.4892ZM141.625 98.7777V105.087H144.202V98.7777H141.625ZM142.914 103.799H130.547V106.376H142.914V103.799ZM129.258 105.087V128.222H131.835V105.087H129.258ZM130.547 129.511H149.602V126.934H130.547V129.511ZM150.89 128.222V98.7777H148.313V128.222H150.89ZM138.523 122.586V110.724H135.946V122.586H138.523ZM137.235 112.012H142.914V109.435H137.235V112.012ZM141.625 110.724V122.586H144.202V110.724H141.625ZM142.914 121.297H137.235V123.874H142.914V121.297ZM153.468 110.724H152.18V112.012H153.468V110.724ZM165.835 110.724H167.123V109.435H165.835V110.724ZM165.835 113.416V114.704H167.123V113.416H165.835ZM153.468 113.416V112.127H152.18V113.416H153.468ZM153.468 128.222H152.18V129.511H153.468V128.222ZM172.523 128.222V129.511H173.812V128.222H172.523ZM172.523 105.087H173.812V103.799H172.523V105.087ZM153.468 105.087V103.799H152.18V105.087H153.468ZM165.835 119.052H167.123V117.764H165.835V119.052ZM165.835 122.586V123.874H167.123V122.586H165.835ZM160.156 122.586H158.868V123.874H160.156V122.586ZM160.156 119.052V117.764H158.868V119.052H160.156ZM153.468 112.012H165.835V109.435H153.468V112.012ZM164.546 110.724V113.416H167.123V110.724H164.546ZM165.835 112.127H153.468V114.704H165.835V112.127ZM152.18 113.416V128.222H154.757V113.416H152.18ZM153.468 129.511H172.523V126.934H153.468V129.511ZM173.812 128.222V105.087H171.235V128.222H173.812ZM172.523 103.799H153.468V106.376H172.523V103.799ZM152.18 105.087V110.724H154.757V105.087H152.18ZM164.546 119.052V122.586H167.123V119.052H164.546ZM165.835 121.297H160.156V123.874H165.835V121.297ZM161.445 122.586V119.052H158.868V122.586H161.445ZM160.156 120.341H165.835V117.764H160.156V120.341ZM190.902 105.087H192.19V103.799H190.902V105.087ZM176.39 105.087V103.799H175.101V105.087H176.39ZM176.39 128.222H175.101V129.511H176.39V128.222ZM183.078 128.222V129.511H184.366V128.222H183.078ZM183.078 110.724V109.435H181.789V110.724H183.078ZM190.902 110.724V112.012H192.19V110.724H190.902ZM190.902 103.799H176.39V106.376H190.902V103.799ZM175.101 105.087V128.222H177.678V105.087H175.101ZM176.39 129.511H183.078V126.934H176.39V129.511ZM184.366 128.222V110.724H181.789V128.222H184.366ZM183.078 112.012H190.902V109.435H183.078V112.012ZM192.19 110.724V105.087H189.613V110.724H192.19ZM213.231 98.7777H214.52V97.4892H213.231V98.7777ZM206.543 98.7777V97.4892H205.255V98.7777H206.543ZM206.543 105.087V106.376H207.832V105.087H206.543ZM194.176 105.087V103.799H192.888V105.087H194.176ZM194.176 128.222H192.888V129.511H194.176V128.222ZM213.231 128.222V129.511H214.52V128.222H213.231ZM200.864 122.586H199.576V123.874H200.864V122.586ZM200.864 110.724V109.435H199.576V110.724H200.864ZM206.543 110.724H207.832V109.435H206.543V110.724ZM206.543 122.586V123.874H207.832V122.586H206.543ZM213.231 97.4892H206.543V100.066H213.231V97.4892ZM205.255 98.7777V105.087H207.832V98.7777H205.255ZM206.543 103.799H194.176V106.376H206.543V103.799ZM192.888 105.087V128.222H195.465V105.087H192.888ZM194.176 129.511H213.231V126.934H194.176V129.511ZM214.52 128.222V98.7777H211.943V128.222H214.52ZM202.153 122.586V110.724H199.576V122.586H202.153ZM200.864 112.012H206.543V109.435H200.864V112.012ZM205.255 110.724V122.586H207.832V110.724H205.255ZM206.543 121.297H200.864V123.874H206.543V121.297Z" fill="#3EABC7"/>
<path d="M257.716 188.326H272.286V183.103H269.14V185.608H260.862V183.592L272.286 176.505V166.944H257.716V174.245H260.862V169.663H269.14V175.222L257.716 182.309V188.326ZM276.21 188.326H290.781V166.944H276.21V188.326ZM279.357 169.663H287.635V185.608H279.357V169.663ZM294.033 170.976L296.66 171.831L294.98 174.153L296.874 175.528L298.493 173.298L300.142 175.528L302.036 174.184L300.326 171.77L302.892 170.915L302.189 168.746L299.745 169.541V166.883H297.363V169.602L294.736 168.746L294.033 170.976ZM306.13 188.326H320.701V183.103H317.554V185.608H309.276V183.592L320.701 176.505V166.944H306.13V174.245H309.276V169.663H317.554V175.222L306.13 182.309V188.326ZM324.625 188.326H339.196V166.944H324.625V188.326ZM327.771 169.663H336.049V185.608H327.771V169.663Z" fill="white"/>
<path d="M411.85 188.326H426.42V183.103H423.274V185.608H414.996V183.592L426.42 176.505V166.944H411.85V174.245H414.996V169.663H423.274V175.222L411.85 182.309V188.326ZM430.345 188.326H444.915V166.944H430.345V188.326ZM433.491 169.663H441.769V185.608H433.491V169.663ZM448.839 188.326H463.41V166.944H448.839V188.326ZM451.986 169.663H460.264V185.608H451.986V169.663Z" fill="white"/>
<path d="M534.135 188.326H548.706V166.944H534.135V188.326ZM537.282 169.663H545.56V185.608H537.282V169.663ZM555.165 188.326V184.966H552.141V188.326H555.165ZM558.596 188.326H573.411V174.428H572.189V166.944H559.818V174.428H558.596V188.326ZM570.265 177.177V185.577H561.742V177.177H570.265ZM562.964 169.693H569.012V174.428H562.964V169.693ZM577.33 188.326H591.9V166.944H577.33V188.326ZM580.476 169.663H588.754V185.608H580.476V169.663Z" fill="white"/>
<path d="M257.656 239.979H260.802V235.794H268.194L265.781 243.094H269.08V251.678H260.802V247.493H257.656V254.427H272.226V240.345H269.691L272.226 233.045H257.656V239.979ZM276.181 254.427H290.751V233.045H276.181V254.427ZM279.327 235.763H287.605V251.709H279.327V235.763ZM294.003 237.077L296.63 237.932L294.95 240.254L296.844 241.628L298.463 239.398L300.113 241.628L302.006 240.284L300.296 237.871L302.862 237.016L302.159 234.847L299.715 235.641V232.984H297.333V235.702L294.706 234.847L294.003 237.077ZM306.1 239.979H309.247V235.794H316.639L314.226 243.094H317.525V251.678H309.247V247.493H306.1V254.427H320.671V240.345H318.136L320.671 233.045H306.1V239.979ZM324.625 254.427H339.196V233.045H324.625V254.427ZM327.771 235.763H336.049V251.709H327.771V235.763Z" fill="white"/>
<path d="M423.685 240.529V235.794H431.963V238.268H435.109V233.045H420.539V254.427H435.109V240.529H423.685ZM431.963 243.278V251.678H423.685V243.278H431.963ZM439.034 254.427H453.604V233.045H439.034V254.427ZM442.18 235.763H450.458V251.709H442.18V235.763Z" fill="white"/>
<path d="M550.188 251.678H546.889V233.045H540.78V235.794H543.743V251.678H540.444V254.427H550.188V251.678ZM555.766 254.427V251.067H552.742V254.427H555.766ZM559.197 254.427H574.012V240.529H572.79V233.045H560.419V240.529H559.197V254.427ZM570.866 243.278V251.678H562.343V243.278H570.866ZM563.565 235.794H569.613V240.529H563.565V235.794ZM577.931 254.427H592.501V233.045H577.931V254.427ZM581.077 235.763H589.355V251.709H581.077V235.763Z" fill="white"/>
<path d="M64.0218 185.509H52.959V162.373H45.5979V191.818H64.0218V185.509ZM66.9584 174.32H79.3251V177.012H66.9584V191.818H86.0132V168.683H66.9584V174.32ZM79.3251 182.648V186.182H73.6465V182.648H79.3251ZM104.392 168.683H89.8798V191.818H96.5679V174.32H104.392V168.683ZM126.721 168.683H107.666V190.136H120.033V192.491H107.666V198.128H126.721V168.683ZM114.355 184.499V174.32H120.033V184.499H114.355ZM149.643 186.182H137.276V183.321H149.643V168.683H130.588V191.818H149.643V186.182ZM137.276 177.685V174.32H142.955V177.685H137.276Z" fill="url(#paint1_linear_765_16407)"/>
<path d="M64.0218 185.509H65.3103V184.22H64.0218V185.509ZM52.959 185.509H51.6705V186.797H52.959V185.509ZM52.959 162.373H54.2475V161.085H52.959V162.373ZM45.5979 162.373V161.085H44.3094V162.373H45.5979ZM45.5979 191.818H44.3094V193.107H45.5979V191.818ZM64.0218 191.818V193.107H65.3103V191.818H64.0218ZM64.0218 184.22H52.959V186.797H64.0218V184.22ZM54.2475 185.509V162.373H51.6705V185.509H54.2475ZM52.959 161.085H45.5979V163.662H52.959V161.085ZM44.3094 162.373V191.818H46.8864V162.373H44.3094ZM45.5979 193.107H64.0218V190.53H45.5979V193.107ZM65.3103 191.818V185.509H62.7333V191.818H65.3103ZM66.9584 174.32H65.6699V175.608H66.9584V174.32ZM79.3251 174.32H80.6136V173.031H79.3251V174.32ZM79.3251 177.012V178.3H80.6136V177.012H79.3251ZM66.9584 177.012V175.723H65.6699V177.012H66.9584ZM66.9584 191.818H65.6699V193.107H66.9584V191.818ZM86.0132 191.818V193.107H87.3017V191.818H86.0132ZM86.0132 168.683H87.3017V167.395H86.0132V168.683ZM66.9584 168.683V167.395H65.6699V168.683H66.9584ZM79.3251 182.648H80.6136V181.36H79.3251V182.648ZM79.3251 186.182V187.47H80.6136V186.182H79.3251ZM73.6465 186.182H72.358V187.47H73.6465V186.182ZM73.6465 182.648V181.36H72.358V182.648H73.6465ZM66.9584 175.608H79.3251V173.031H66.9584V175.608ZM78.0366 174.32V177.012H80.6136V174.32H78.0366ZM79.3251 175.723H66.9584V178.3H79.3251V175.723ZM65.6699 177.012V191.818H68.2469V177.012H65.6699ZM66.9584 193.107H86.0132V190.53H66.9584V193.107ZM87.3017 191.818V168.683H84.7247V191.818H87.3017ZM86.0132 167.395H66.9584V169.972H86.0132V167.395ZM65.6699 168.683V174.32H68.2469V168.683H65.6699ZM78.0366 182.648V186.182H80.6136V182.648H78.0366ZM79.3251 184.893H73.6465V187.47H79.3251V184.893ZM74.935 186.182V182.648H72.358V186.182H74.935ZM73.6465 183.937H79.3251V181.36H73.6465V183.937ZM104.392 168.683H105.68V167.395H104.392V168.683ZM89.8798 168.683V167.395H88.5913V168.683H89.8798ZM89.8798 191.818H88.5913V193.107H89.8798V191.818ZM96.5679 191.818V193.107H97.8564V191.818H96.5679ZM96.5679 174.32V173.031H95.2794V174.32H96.5679ZM104.392 174.32V175.608H105.68V174.32H104.392ZM104.392 167.395H89.8798V169.972H104.392V167.395ZM88.5913 168.683V191.818H91.1683V168.683H88.5913ZM89.8798 193.107H96.5679V190.53H89.8798V193.107ZM97.8564 191.818V174.32H95.2794V191.818H97.8564ZM96.5679 175.608H104.392V173.031H96.5679V175.608ZM105.68 174.32V168.683H103.103V174.32H105.68ZM126.721 168.683H128.01V167.395H126.721V168.683ZM107.666 168.683V167.395H106.378V168.683H107.666ZM107.666 190.136H106.378V191.424H107.666V190.136ZM120.033 190.136H121.322V188.847H120.033V190.136ZM120.033 192.491V193.78H121.322V192.491H120.033ZM107.666 192.491V191.203H106.378V192.491H107.666ZM107.666 198.128H106.378V199.416H107.666V198.128ZM126.721 198.128V199.416H128.01V198.128H126.721ZM114.355 184.499H113.066V185.787H114.355V184.499ZM114.355 174.32V173.031H113.066V174.32H114.355ZM120.033 174.32H121.322V173.031H120.033V174.32ZM120.033 184.499V185.787H121.322V184.499H120.033ZM126.721 167.395H107.666V169.972H126.721V167.395ZM106.378 168.683V190.136H108.955V168.683H106.378ZM107.666 191.424H120.033V188.847H107.666V191.424ZM118.745 190.136V192.491H121.322V190.136H118.745ZM120.033 191.203H107.666V193.78H120.033V191.203ZM106.378 192.491V198.128H108.955V192.491H106.378ZM107.666 199.416H126.721V196.839H107.666V199.416ZM128.01 198.128V168.683H125.433V198.128H128.01ZM115.643 184.499V174.32H113.066V184.499H115.643ZM114.355 175.608H120.033V173.031H114.355V175.608ZM118.745 174.32V184.499H121.322V174.32H118.745ZM120.033 183.21H114.355V185.787H120.033V183.21ZM149.643 186.182H150.931V184.893H149.643V186.182ZM137.276 186.182H135.988V187.47H137.276V186.182ZM137.276 183.321V182.033H135.988V183.321H137.276ZM149.643 183.321V184.61H150.931V183.321H149.643ZM149.643 168.683H150.931V167.395H149.643V168.683ZM130.588 168.683V167.395H129.299V168.683H130.588ZM130.588 191.818H129.299V193.107H130.588V191.818ZM149.643 191.818V193.107H150.931V191.818H149.643ZM137.276 177.685H135.988V178.973H137.276V177.685ZM137.276 174.32V173.031H135.988V174.32H137.276ZM142.955 174.32H144.243V173.031H142.955V174.32ZM142.955 177.685V178.973H144.243V177.685H142.955ZM149.643 184.893H137.276V187.47H149.643V184.893ZM138.565 186.182V183.321H135.988V186.182H138.565ZM137.276 184.61H149.643V182.033H137.276V184.61ZM150.931 183.321V168.683H148.354V183.321H150.931ZM149.643 167.395H130.588V169.972H149.643V167.395ZM129.299 168.683V191.818H131.876V168.683H129.299ZM130.588 193.107H149.643V190.53H130.588V193.107ZM150.931 191.818V186.182H148.354V191.818H150.931ZM138.565 177.685V174.32H135.988V177.685H138.565ZM137.276 175.608H142.955V173.031H137.276V175.608ZM141.666 174.32V177.685H144.243V174.32H141.666ZM142.955 176.396H137.276V178.973H142.955V176.396Z" fill="#77A0F1"/>
<path d="M53.4638 225.405H44.9669L50.6035 240.128L44.6725 254.85H53.2955L56.24 245.68L59.1003 254.85H67.7655L61.7924 240.128L67.471 225.405H58.9321L56.24 234.449L53.4638 225.405ZM83.4417 240.212H70.5282V245.848H83.4417V240.212ZM105.551 248.54H94.4887V225.405H87.1276V254.85H105.551V248.54ZM108.488 237.351H120.855V240.043H108.488V254.85H127.543V231.715H108.488V237.351ZM120.855 245.68V249.213H115.176V245.68H120.855ZM145.921 231.715H131.409V254.85H138.098V237.351H145.921V231.715ZM168.251 231.715H149.196V253.167H161.563V255.523H149.196V261.159H168.251V231.715ZM155.884 247.531V237.351H161.563V247.531H155.884ZM191.172 249.213H178.806V246.353H191.172V231.715H172.118V254.85H191.172V249.213ZM178.806 240.717V237.351H184.484V240.717H178.806Z" fill="url(#paint2_linear_765_16407)"/>
<path d="M53.4638 225.405L54.147 225.196L53.992 224.691H53.4638V225.405ZM44.9669 225.405V224.691H43.928L44.2995 225.661L44.9669 225.405ZM50.6035 240.128L51.2664 240.395L51.3713 240.134L51.2709 239.872L50.6035 240.128ZM44.6725 254.85L44.0096 254.583L43.6141 255.565H44.6725V254.85ZM53.2955 254.85V255.565H53.8167L53.976 255.068L53.2955 254.85ZM56.24 245.68L56.9223 245.467L56.2499 243.312L55.5595 245.462L56.24 245.68ZM59.1003 254.85L58.4181 255.063L58.5746 255.565H59.1003V254.85ZM67.7655 254.85V255.565H68.8267L68.4277 254.581L67.7655 254.85ZM61.7924 240.128L61.1256 239.87L61.0238 240.134L61.1302 240.396L61.7924 240.128ZM67.471 225.405L68.1378 225.663L68.5127 224.691H67.471V225.405ZM58.9321 225.405V224.691H58.3991L58.2471 225.201L58.9321 225.405ZM56.24 234.449L55.5568 234.659L56.2505 236.919L56.925 234.653L56.24 234.449ZM53.4638 224.691H44.9669V226.12H53.4638V224.691ZM44.2995 225.661L49.936 240.383L51.2709 239.872L45.6344 225.15L44.2995 225.661ZM49.9406 239.861L44.0096 254.583L45.3354 255.117L51.2664 240.395L49.9406 239.861ZM44.6725 255.565H53.2955V254.135H44.6725V255.565ZM53.976 255.068L56.9205 245.899L55.5595 245.462L52.6151 254.631L53.976 255.068ZM55.5577 245.893L58.4181 255.063L59.7826 254.637L56.9223 245.467L55.5577 245.893ZM59.1003 255.565H67.7655V254.135H59.1003V255.565ZM68.4277 254.581L62.4547 239.859L61.1302 240.396L67.1032 255.119L68.4277 254.581ZM62.4592 240.385L68.1378 225.663L66.8042 225.148L61.1256 239.87L62.4592 240.385ZM67.471 224.691H58.9321V226.12H67.471V224.691ZM58.2471 225.201L55.555 234.245L56.925 234.653L59.6171 225.609L58.2471 225.201ZM56.9232 234.239L54.147 225.196L52.7806 225.615L55.5568 234.659L56.9232 234.239ZM83.4417 240.212H84.1564V239.497H83.4417V240.212ZM70.5282 240.212V239.497H69.8135V240.212H70.5282ZM70.5282 245.848H69.8135V246.563H70.5282V245.848ZM83.4417 245.848V246.563H84.1564V245.848H83.4417ZM83.4417 239.497H70.5282V240.926H83.4417V239.497ZM69.8135 240.212V245.848H71.2429V240.212H69.8135ZM70.5282 246.563H83.4417V245.134H70.5282V246.563ZM84.1564 245.848V240.212H82.7271V245.848H84.1564ZM105.551 248.54H106.266V247.826H105.551V248.54ZM94.4887 248.54H93.774V249.255H94.4887V248.54ZM94.4887 225.405H95.2034V224.691H94.4887V225.405ZM87.1276 225.405V224.691H86.4129V225.405H87.1276ZM87.1276 254.85H86.4129V255.565H87.1276V254.85ZM105.551 254.85V255.565H106.266V254.85H105.551ZM105.551 247.826H94.4887V249.255H105.551V247.826ZM95.2034 248.54V225.405H93.774V248.54H95.2034ZM94.4887 224.691H87.1276V226.12H94.4887V224.691ZM86.4129 225.405V254.85H87.8422V225.405H86.4129ZM87.1276 255.565H105.551V254.135H87.1276V255.565ZM106.266 254.85V248.54H104.837V254.85H106.266ZM108.488 237.351H107.773V238.066H108.488V237.351ZM120.855 237.351H121.569V236.637H120.855V237.351ZM120.855 240.043V240.758H121.569V240.043H120.855ZM108.488 240.043V239.329H107.773V240.043H108.488ZM108.488 254.85H107.773V255.565H108.488V254.85ZM127.543 254.85V255.565H128.258V254.85H127.543ZM127.543 231.715H128.258V231H127.543V231.715ZM108.488 231.715V231H107.773V231.715H108.488ZM120.855 245.68H121.569V244.965H120.855V245.68ZM120.855 249.213V249.928H121.569V249.213H120.855ZM115.176 249.213H114.461V249.928H115.176V249.213ZM115.176 245.68V244.965H114.461V245.68H115.176ZM108.488 238.066H120.855V236.637H108.488V238.066ZM120.14 237.351V240.043H121.569V237.351H120.14ZM120.855 239.329H108.488V240.758H120.855V239.329ZM107.773 240.043V254.85H109.203V240.043H107.773ZM108.488 255.565H127.543V254.135H108.488V255.565ZM128.258 254.85V231.715H126.828V254.85H128.258ZM127.543 231H108.488V232.43H127.543V231ZM107.773 231.715V237.351H109.203V231.715H107.773ZM120.14 245.68V249.213H121.569V245.68H120.14ZM120.855 248.499H115.176V249.928H120.855V248.499ZM115.891 249.213V245.68H114.461V249.213H115.891ZM115.176 246.395H120.855V244.965H115.176V246.395ZM145.921 231.715H146.636V231H145.921V231.715ZM131.409 231.715V231H130.695V231.715H131.409ZM131.409 254.85H130.695V255.565H131.409V254.85ZM138.098 254.85V255.565H138.812V254.85H138.098ZM138.098 237.351V236.637H137.383V237.351H138.098ZM145.921 237.351V238.066H146.636V237.351H145.921ZM145.921 231H131.409V232.43H145.921V231ZM130.695 231.715V254.85H132.124V231.715H130.695ZM131.409 255.565H138.098V254.135H131.409V255.565ZM138.812 254.85V237.351H137.383V254.85H138.812ZM138.098 238.066H145.921V236.637H138.098V238.066ZM146.636 237.351V231.715H145.207V237.351H146.636ZM168.251 231.715H168.966V231H168.251V231.715ZM149.196 231.715V231H148.481V231.715H149.196ZM149.196 253.167H148.481V253.882H149.196V253.167ZM161.563 253.167H162.278V252.453H161.563V253.167ZM161.563 255.523V256.238H162.278V255.523H161.563ZM149.196 255.523V254.808H148.481V255.523H149.196ZM149.196 261.159H148.481V261.874H149.196V261.159ZM168.251 261.159V261.874H168.966V261.159H168.251ZM155.884 247.531H155.17V248.246H155.884V247.531ZM155.884 237.351V236.637H155.17V237.351H155.884ZM161.563 237.351H162.278V236.637H161.563V237.351ZM161.563 247.531V248.246H162.278V247.531H161.563ZM168.251 231H149.196V232.43H168.251V231ZM148.481 231.715V253.167H149.911V231.715H148.481ZM149.196 253.882H161.563V252.453H149.196V253.882ZM160.848 253.167V255.523H162.278V253.167H160.848ZM161.563 254.808H149.196V256.238H161.563V254.808ZM148.481 255.523V261.159H149.911V255.523H148.481ZM149.196 261.874H168.251V260.445H149.196V261.874ZM168.966 261.159V231.715H167.536V261.159H168.966ZM156.599 247.531V237.351H155.17V247.531H156.599ZM155.884 238.066H161.563V236.637H155.884V238.066ZM160.848 237.351V247.531H162.278V237.351H160.848ZM161.563 246.816H155.884V248.246H161.563V246.816ZM191.172 249.213H191.887V248.499H191.172V249.213ZM178.806 249.213H178.091V249.928H178.806V249.213ZM178.806 246.353V245.638H178.091V246.353H178.806ZM191.172 246.353V247.068H191.887V246.353H191.172ZM191.172 231.715H191.887V231H191.172V231.715ZM172.118 231.715V231H171.403V231.715H172.118ZM172.118 254.85H171.403V255.565H172.118V254.85ZM191.172 254.85V255.565H191.887V254.85H191.172ZM178.806 240.717H178.091V241.431H178.806V240.717ZM178.806 237.351V236.637H178.091V237.351H178.806ZM184.484 237.351H185.199V236.637H184.484V237.351ZM184.484 240.717V241.431H185.199V240.717H184.484ZM191.172 248.499H178.806V249.928H191.172V248.499ZM179.52 249.213V246.353H178.091V249.213H179.52ZM178.806 247.068H191.172V245.638H178.806V247.068ZM191.887 246.353V231.715H190.458V246.353H191.887ZM191.172 231H172.118V232.43H191.172V231ZM171.403 231.715V254.85H172.832V231.715H171.403ZM172.118 255.565H191.172V254.135H172.118V255.565ZM191.887 254.85V249.213H190.458V254.85H191.887ZM179.52 240.717V237.351H178.091V240.717H179.52ZM178.806 238.066H184.484V236.637H178.806V238.066ZM183.77 237.351V240.717H185.199V237.351H183.77ZM184.484 240.002H178.806V241.431H184.484V240.002Z" fill="url(#paint3_linear_765_16407)"/>
<path d="M63.5591 317.882H70.9202V288.017L58.2591 299.963L45.5979 288.017V317.882H52.959V304.421L58.2591 309.679L63.5591 304.421V317.882ZM93.8591 312.245H81.4923V309.385H93.8591V294.747H74.8042V317.882H93.8591V312.245ZM81.4923 303.748V300.383H87.1709V303.748H81.4923ZM116.78 294.747H97.7256V316.199H110.092V318.555H97.7256V324.191H116.78V294.747ZM104.414 310.563V300.383H110.092V310.563H104.414ZM120.647 300.383H133.014V303.075H120.647V317.882H139.702V294.747H120.647V300.383ZM133.014 308.712V312.245H127.335V308.712H133.014Z" fill="url(#paint4_linear_765_16407)"/>
<path d="M63.5591 317.882H62.8444V318.596H63.5591V317.882ZM70.9202 317.882V318.596H71.6349V317.882H70.9202ZM70.9202 288.017H71.6349V286.36L70.4298 287.497L70.9202 288.017ZM58.2591 299.963L57.7686 300.482L58.2591 300.945L58.7495 300.482L58.2591 299.963ZM45.5979 288.017L46.0884 287.497L44.8832 286.36V288.017H45.5979ZM45.5979 317.882H44.8832V318.596H45.5979V317.882ZM52.959 317.882V318.596H53.6737V317.882H52.959ZM52.959 304.421L53.4624 303.914L52.2444 302.706V304.421H52.959ZM58.2591 309.679L57.7557 310.187L58.2591 310.686L58.7624 310.187L58.2591 309.679ZM63.5591 304.421H64.2738V302.706L63.0557 303.914L63.5591 304.421ZM63.5591 318.596H70.9202V317.167H63.5591V318.596ZM71.6349 317.882V288.017H70.2055V317.882H71.6349ZM70.4298 287.497L57.7686 299.443L58.7495 300.482L71.4107 288.536L70.4298 287.497ZM58.7495 299.443L46.0884 287.497L45.1074 288.536L57.7686 300.482L58.7495 299.443ZM44.8832 288.017V317.882H46.3126V288.017H44.8832ZM45.5979 318.596H52.959V317.167H45.5979V318.596ZM53.6737 317.882V304.421H52.2444V317.882H53.6737ZM52.4557 304.929L57.7557 310.187L58.7624 309.172L53.4624 303.914L52.4557 304.929ZM58.7624 310.187L64.0624 304.929L63.0557 303.914L57.7557 309.172L58.7624 310.187ZM62.8444 304.421V317.882H64.2738V304.421H62.8444ZM93.8591 312.245H94.5737V311.531H93.8591V312.245ZM81.4923 312.245H80.7777V312.96H81.4923V312.245ZM81.4923 309.385V308.67H80.7777V309.385H81.4923ZM93.8591 309.385V310.1H94.5737V309.385H93.8591ZM93.8591 294.747H94.5737V294.032H93.8591V294.747ZM74.8042 294.747V294.032H74.0895V294.747H74.8042ZM74.8042 317.882H74.0895V318.596H74.8042V317.882ZM93.8591 317.882V318.596H94.5737V317.882H93.8591ZM81.4923 303.748H80.7777V304.463H81.4923V303.748ZM81.4923 300.383V299.669H80.7777V300.383H81.4923ZM87.1709 300.383H87.8856V299.669H87.1709V300.383ZM87.1709 303.748V304.463H87.8856V303.748H87.1709ZM93.8591 311.531H81.4923V312.96H93.8591V311.531ZM82.207 312.245V309.385H80.7777V312.245H82.207ZM81.4923 310.1H93.8591V308.67H81.4923V310.1ZM94.5737 309.385V294.747H93.1444V309.385H94.5737ZM93.8591 294.032H74.8042V295.461H93.8591V294.032ZM74.0895 294.747V317.882H75.5189V294.747H74.0895ZM74.8042 318.596H93.8591V317.167H74.8042V318.596ZM94.5737 317.882V312.245H93.1444V317.882H94.5737ZM82.207 303.748V300.383H80.7777V303.748H82.207ZM81.4923 301.098H87.1709V299.669H81.4923V301.098ZM86.4563 300.383V303.748H87.8856V300.383H86.4563ZM87.1709 303.034H81.4923V304.463H87.1709V303.034ZM116.78 294.747H117.495V294.032H116.78V294.747ZM97.7256 294.747V294.032H97.011V294.747H97.7256ZM97.7256 316.199H97.011V316.914H97.7256V316.199ZM110.092 316.199H110.807V315.485H110.092V316.199ZM110.092 318.555V319.269H110.807V318.555H110.092ZM97.7256 318.555V317.84H97.011V318.555H97.7256ZM97.7256 324.191H97.011V324.906H97.7256V324.191ZM116.78 324.191V324.906H117.495V324.191H116.78ZM104.414 310.563H103.699V311.277H104.414V310.563ZM104.414 300.383V299.669H103.699V300.383H104.414ZM110.092 300.383H110.807V299.669H110.092V300.383ZM110.092 310.563V311.277H110.807V310.563H110.092ZM116.78 294.032H97.7256V295.461H116.78V294.032ZM97.011 294.747V316.199H98.4403V294.747H97.011ZM97.7256 316.914H110.092V315.485H97.7256V316.914ZM109.378 316.199V318.555H110.807V316.199H109.378ZM110.092 317.84H97.7256V319.269H110.092V317.84ZM97.011 318.555V324.191H98.4403V318.555H97.011ZM97.7256 324.906H116.78V323.477H97.7256V324.906ZM117.495 324.191V294.747H116.066V324.191H117.495ZM105.128 310.563V300.383H103.699V310.563H105.128ZM104.414 301.098H110.092V299.669H104.414V301.098ZM109.378 300.383V310.563H110.807V300.383H109.378ZM110.092 309.848H104.414V311.277H110.092V309.848ZM120.647 300.383H119.932V301.098H120.647V300.383ZM133.014 300.383H133.728V299.669H133.014V300.383ZM133.014 303.075V303.79H133.728V303.075H133.014ZM120.647 303.075V302.361H119.932V303.075H120.647ZM120.647 317.882H119.932V318.596H120.647V317.882ZM139.702 317.882V318.596H140.417V317.882H139.702ZM139.702 294.747H140.417V294.032H139.702V294.747ZM120.647 294.747V294.032H119.932V294.747H120.647ZM133.014 308.712H133.728V307.997H133.014V308.712ZM133.014 312.245V312.96H133.728V312.245H133.014ZM127.335 312.245H126.62V312.96H127.335V312.245ZM127.335 308.712V307.997H126.62V308.712H127.335ZM120.647 301.098H133.014V299.669H120.647V301.098ZM132.299 300.383V303.075H133.728V300.383H132.299ZM133.014 302.361H120.647V303.79H133.014V302.361ZM119.932 303.075V317.882H121.362V303.075H119.932ZM120.647 318.596H139.702V317.167H120.647V318.596ZM140.417 317.882V294.747H138.987V317.882H140.417ZM139.702 294.032H120.647V295.461H139.702V294.032ZM119.932 294.747V300.383H121.362V294.747H119.932ZM132.299 308.712V312.245H133.728V308.712H132.299ZM133.014 311.531H127.335V312.96H133.014V311.531ZM128.05 312.245V308.712H126.62V312.245H128.05ZM127.335 309.427H133.014V307.997H127.335V309.427Z" fill="url(#paint5_linear_765_16407)"/>
<path d="M261.049 311.894V299.645H257.903V314.644H268.991V321.028H272.138V299.645H268.991V311.894H261.049ZM276.04 321.028H290.61V299.645H276.04V321.028ZM279.186 302.364H287.464V318.309H279.186V302.364ZM293.863 303.678L296.49 304.533L294.81 306.854L296.703 308.229L298.322 305.999L299.972 308.229L301.866 306.885L300.155 304.472L302.721 303.616L302.019 301.448L299.575 302.242V299.584H297.192V302.303L294.565 301.448L293.863 303.678ZM309.106 311.894V299.645H305.96V314.644H317.048V321.028H320.194V299.645H317.048V311.894H309.106ZM324.097 321.028H338.667V299.645H324.097V321.028ZM327.243 302.364H335.521V318.309H327.243V302.364Z" fill="white"/>
<path d="M420.539 321.028H435.109V315.804H431.963V318.309H423.685V316.293L435.109 309.206V299.645H420.539V306.946H423.685V302.364H431.963V307.923L420.539 315.01V321.028ZM439.034 321.028H453.604V299.645H439.034V321.028ZM442.18 302.364H450.458V318.309H442.18V302.364Z" fill="white"/>
<path d="M534.344 306.579H537.49V302.395H544.883L542.469 309.695H545.768V318.279H537.49V314.094H534.344V321.028H548.915V306.946H546.379L548.915 299.645H534.344V306.579ZM555.404 321.028V317.668H552.38V321.028H555.404ZM558.835 321.028H573.405V315.804H570.259V318.309H561.981V316.293L573.405 309.206V299.645H558.835V306.946H561.981V302.364H570.259V307.923L558.835 315.01V321.028ZM577.33 321.028H591.9V299.645H577.33V321.028ZM580.476 302.364H588.754V318.309H580.476V302.364Z" fill="white"/>
<rect x="0.0970459" y="70.6833" width="654.992" height="1.00152" fill="#9E9DD9" fill-opacity="0.4"/>
<path d="M599.585 127.65V125.358H613.844V127.65H599.585ZM601.283 118.229V115.937H612.146V118.229H601.283ZM600.151 109.742V107.45H613.278V109.742H600.151Z" fill="white"/>
<path d="M599.585 188.741V186.449H613.844V188.741H599.585ZM601.283 179.32V177.029H612.146V179.32H601.283ZM600.151 170.833V168.542H613.278V170.833H600.151Z" fill="white"/>
<path d="M599.585 254.842V252.55H613.844V254.842H599.585ZM601.283 245.421V243.129H612.146V245.421H601.283ZM600.151 236.934V234.642H613.278V236.934H600.151Z" fill="white"/>
<path d="M599.585 321.437V319.146H613.844V321.437H599.585ZM601.283 312.017V309.725H612.146V312.017H601.283ZM600.151 303.53V301.238H613.278V303.53H600.151Z" fill="white"/>
<defs>
<linearGradient id="paint0_linear_765_16407" x1="118.906" y1="91.7373" x2="139.02" y2="144.567" gradientUnits="userSpaceOnUse">
<stop offset="0.078" stop-color="#6DC7E0"/>
<stop offset="0.908" stop-color="#3BAAC6"/>
</linearGradient>
<linearGradient id="paint1_linear_765_16407" x1="43.663" y1="162.448" x2="69.1056" y2="229.644" gradientUnits="userSpaceOnUse">
<stop offset="0.094" stop-color="#B2D1FF"/>
<stop offset="0.941" stop-color="#99B4FF"/>
</linearGradient>
<linearGradient id="paint2_linear_765_16407" x1="13.5113" y1="212.012" x2="148.437" y2="354.483" gradientUnits="userSpaceOnUse">
<stop offset="0.074" stop-color="#F88F88"/>
<stop offset="0.941" stop-color="#ED3384"/>
</linearGradient>
<linearGradient id="paint3_linear_765_16407" x1="169.538" y1="257.323" x2="136.091" y2="183.682" gradientUnits="userSpaceOnUse">
<stop stop-color="#DD3064"/>
<stop offset="1" stop-color="#D20C4E"/>
</linearGradient>
<linearGradient id="paint4_linear_765_16407" x1="23.9639" y1="275.043" x2="150.284" y2="362.188" gradientUnits="userSpaceOnUse">
<stop offset="0.074" stop-color="#FCFF57"/>
<stop offset="0.941" stop-color="#FFDB1F"/>
</linearGradient>
<linearGradient id="paint5_linear_765_16407" x1="125.901" y1="320.354" x2="84.267" y2="260.466" gradientUnits="userSpaceOnUse">
<stop stop-color="#FFBC00"/>
<stop offset="0.841213" stop-color="#FFFDF7" stop-opacity="0.69"/>
<stop offset="1" stop-color="#FFBD01"/>
</linearGradient>
</defs>
</svg>
