<svg width="220" height="128" viewBox="0 0 220 128" fill="none" xmlns="http://www.w3.org/2000/svg">
<rect width="220" height="128" rx="4" fill="#3A106D"/>
<g clip-path="url(#clip0_1_1718)">
<path d="M98.5375 69.1863L103.645 52.9702H107.539L100.101 75.3472H97.037L91.7701 59.163L86.5031 75.3472H83.4065L75.9052 52.9702H79.8954L85.0026 69.1863L90.2699 52.9702H93.3662L98.5375 69.1863Z" fill="white"/>
<path fill-rule="evenodd" clip-rule="evenodd" d="M114.516 59.4185C118.729 59.4185 122.017 62.6744 122.017 66.8562C122.017 67.2711 121.985 67.9096 121.89 68.3884H110.015C110.398 70.9102 112.122 72.4424 114.644 72.4424C116.399 72.4424 117.995 71.6763 118.729 70.4633L121.57 72.2828C120.421 74.3896 117.804 75.6665 114.579 75.6665C110.079 75.6665 106.472 72.1232 106.472 67.4627C106.472 62.9298 110.015 59.4185 114.516 59.4185ZM114.324 62.3552C112.185 62.3552 110.685 63.6321 110.143 65.6751H118.282C118.091 63.7279 116.463 62.3552 114.324 62.3552Z" fill="white"/>
<path d="M125.135 75.3475H128.87V60.3444L135.414 75.3475H138.159L144.831 60.3444V75.3475H148.566V53.0024H144.735L137.074 69.857L129.636 53.0024H125.135V75.3475Z" fill="white"/>
<path fill-rule="evenodd" clip-rule="evenodd" d="M159.748 59.4185C163.962 59.4185 167.25 62.6744 167.25 66.8562C167.25 67.2711 167.218 67.9096 167.122 68.3884H155.247C155.63 70.9102 157.354 72.4424 159.876 72.4424C161.632 72.4424 163.227 71.6763 163.962 70.4633L166.803 72.2828C165.654 74.3896 163.036 75.6665 159.812 75.6665C155.311 75.6665 151.704 72.1232 151.704 67.4627C151.704 62.9298 155.247 59.4185 159.748 59.4185ZM159.557 62.3552C157.418 62.3552 155.917 63.6321 155.375 65.6751H163.515C163.323 63.7279 161.695 62.3552 159.557 62.3552Z" fill="white"/>
<path d="M177.997 72.0595C177.678 72.1553 177.167 72.2511 176.784 72.2511C175.22 72.2511 173.943 71.1657 173.943 69.3462V63.1215H178.029V59.7378H173.943V55.5562H170.407V69.8622C170.552 73.5035 172.933 75.5709 176.273 75.5709C176.944 75.5709 177.678 75.4432 178.189 75.1879L177.997 72.0595Z" fill="white"/>
<path fill-rule="evenodd" clip-rule="evenodd" d="M192.379 62.4829V59.7377H195.954V75.3473H192.379V72.602C191.262 74.5492 189.346 75.6665 186.857 75.6665C182.707 75.6665 179.387 72.0275 179.387 67.5265C179.387 63.0256 182.707 59.4185 186.857 59.4185C189.346 59.4185 191.262 60.5357 192.379 62.4829ZM182.867 67.5265C182.867 70.176 184.973 72.2828 187.623 72.2828C190.336 72.2828 192.379 70.2398 192.379 67.5265C192.379 64.8451 190.336 62.8021 187.623 62.8021C184.973 62.8021 182.867 64.9089 182.867 67.5265Z" fill="white"/>
<path d="M37.3633 52.3301C37.1432 52.1183 36.8495 52 36.544 52H24L49.2437 76.3046C49.7012 76.7447 50.4248 76.7447 50.8823 76.3046L62.7435 64.8951C62.9749 64.6723 63.1061 64.3647 63.1061 64.0434V52L50.0631 64.5464L37.3633 52.3301Z" fill="#26045D"/>
<path d="M49.7435 52.3301C49.9637 52.1183 50.2574 52 50.5628 52H63.107L37.8632 76.3046C37.4056 76.7447 36.6821 76.7447 36.2246 76.3046L24.3634 64.8951C24.1318 64.6723 24.0009 64.3647 24.0009 64.0434V52L37.0438 64.5464L49.7435 52.3301Z" fill="#7747FF"/>
</g>
<defs>
<clipPath id="clip0_1_1718">
<rect width="172" height="24.9035" fill="white" transform="translate(24 52)"/>
</clipPath>
</defs>
</svg>
