<svg width="574" height="41" viewBox="0 0 574 41" fill="none" xmlns="http://www.w3.org/2000/svg">
<path opacity="0.85" d="M7.56073 7.31706H22.8007V2.95706H2.48073V30.9571H22.8007V26.5971H7.56073V19.1171H17.5607V14.7571H7.56073V7.31706ZM31.2807 30.9571H41.1207L46.2807 8.95706H41.2807L37.4007 26.8771H35.0407L31.1207 8.95706H26.1207L31.2807 30.9571ZM67.9835 26.8771H54.6235V22.3171H67.9835V8.95706H49.8635V30.9571H67.9835V26.8771ZM54.6235 18.2371V13.0371H63.2235V18.2371H54.6235ZM87.0295 8.95706H72.9495V30.9571H77.7095V13.0371H87.0295V8.95706ZM109.273 8.95706H104.513V26.8771H95.9126V8.95706H91.1526V30.9571H104.513V36.9571H109.273V8.95706ZM132.359 8.95706H114.239V30.9571H132.359V8.95706ZM127.599 13.0371V26.8771H118.999V13.0371H127.599ZM155.444 8.95706H137.324V30.9571H142.084V13.0371H150.684V30.9571H155.444V8.95706ZM178.53 26.8771H165.17V22.3171H178.53V8.95706H160.41V30.9571H178.53V26.8771ZM165.17 18.2371V13.0371H173.77V18.2371H165.17ZM198.069 7.31706H209.029V12.5171H214.109V2.95706H192.989V30.9571H214.109V21.3971H209.029V26.5971H198.069V7.31706ZM219.082 13.0371H232.442V17.1171H219.082V30.9571H237.202V8.95706H219.082V13.0371ZM232.442 21.1971V26.8771H223.842V21.1971H232.442ZM260.288 8.95706H242.168V30.9571H246.928V13.0371H255.528V30.9571H260.288V8.95706ZM274.746 30.9571H295.866V12.7571H292.786L295.666 2.95706H274.746V30.9571ZM290.786 17.1571V26.5571H279.826V17.1571H290.786ZM279.826 7.35706H289.306L287.786 12.7571H279.826V7.35706ZM300.84 30.9571H318.96V8.95706H314.2V26.8771H305.6V8.95706H300.84V30.9571ZM328.686 2.95706H323.926V6.71706H328.686V2.95706ZM328.686 8.95706H323.926V30.9571H328.686V8.95706ZM338.452 2.95706H333.692V30.9571H338.452V2.95706ZM361.577 2.95706H356.817V8.95706H343.457V30.9571H361.577V2.95706ZM348.217 26.8771V13.0371H356.817V26.8771H348.217ZM395.315 30.9571H400.395V2.55706L388.235 14.2771L376.035 2.55706V30.9571H381.115V13.9171L388.235 21.0371L395.315 13.9171V30.9571ZM423.491 26.8771H410.131V22.3171H423.491V8.95706H405.371V30.9571H423.491V26.8771ZM410.131 18.2371V13.0371H418.731V18.2371H410.131ZM433.217 8.95706V4.95706H428.457V30.9571H438.937V26.8771H433.217V13.0371H438.777V8.95706H433.217ZM443.262 13.0371H456.622V17.1171H443.262V30.9571H461.382V8.95706H443.262V13.0371ZM456.622 21.1971V26.8771H448.022V21.1971H456.622ZM470.148 30.9571H479.988L485.148 8.95706H480.148L476.268 26.8771H473.908L469.988 8.95706H464.988L470.148 30.9571ZM506.851 26.8771H493.491V22.3171H506.851V8.95706H488.731V30.9571H506.851V26.8771ZM493.491 18.2371V13.0371H502.091V18.2371H493.491ZM525.897 8.95706H511.817V30.9571H516.577V13.0371H525.897V8.95706ZM548.14 17.5171H534.78V13.0371H548.14V8.95706H530.02V21.5971H543.38V26.8771H530.02V30.9571H548.14V17.5171ZM571.226 26.8771H557.866V22.3171H571.226V8.95706H553.106V30.9571H571.226V26.8771ZM557.866 18.2371V13.0371H566.466V18.2371H557.866Z" fill="white"/>
</svg>
