<svg width="71" height="71" viewBox="0 0 71 71" fill="none" xmlns="http://www.w3.org/2000/svg">
<g clip-path="url(#clip0_37_7873)">
<rect width="70.9314" height="70.9314" fill="#203957"/>
<rect opacity="0.85" x="10.0806" y="9.90552" width="51.9851" height="51.9851" fill="#294970"/>
<g filter="url(#filter0_d_37_7873)">
<path d="M52.7144 25.2737H51.9304V21.3537C51.9304 20.0601 50.9833 18.5282 49.8277 17.9511C49.8277 17.9511 45.6585 15.8657 35.4665 15.8657C25.2746 15.8657 21.1069 17.9511 21.1069 17.9511C19.9497 18.5266 19.0027 20.0585 19.0027 21.3537V25.2737H18.2187C16.9251 25.2737 15.8667 26.332 15.8667 27.6256V29.9776C15.8667 31.2712 16.9251 32.3296 18.2187 32.3296H19.0027V48.4015C19.0027 49.4207 19.6612 50.2909 20.5707 50.6155V51.9294C20.5707 53.6542 21.9819 55.0654 23.7066 55.0654C25.4314 55.0654 26.8426 53.6542 26.8426 51.9294V50.7535H44.0905V51.9294C44.0905 53.6542 45.5017 55.0654 47.2264 55.0654C48.9512 55.0654 50.3624 53.6542 50.3624 51.9294V50.6155C51.2719 50.2893 51.9304 49.4191 51.9304 48.4015V32.3296H52.7144C54.008 32.3296 55.0664 31.2712 55.0664 29.9776V27.6256C55.0664 26.332 54.008 25.2737 52.7144 25.2737ZM27.6266 19.7857C27.6266 19.3545 27.9794 19.0017 28.4106 19.0017H42.5225C42.9537 19.0017 43.3065 19.3545 43.3065 19.7857V21.3537C43.3065 21.7849 42.9537 22.1377 42.5225 22.1377H28.4106C28.2028 22.1373 28.0036 22.0545 27.8567 21.9076C27.7098 21.7607 27.627 21.5615 27.6266 21.3537V19.7857ZM24.0986 47.6175C23.8412 47.6175 23.5863 47.5669 23.3485 47.4684C23.1106 47.3699 22.8945 47.2255 22.7125 47.0435C22.5304 46.8615 22.386 46.6455 22.2875 46.4076C22.189 46.1698 22.1383 45.9149 22.1383 45.6575C22.1383 45.4001 22.189 45.1452 22.2875 44.9074C22.386 44.6695 22.5304 44.4534 22.7125 44.2714C22.8945 44.0894 23.1106 43.9451 23.3485 43.8466C23.5863 43.7481 23.8412 43.6975 24.0986 43.6975C24.6184 43.6976 25.1168 43.9041 25.4843 44.2717C25.8518 44.6393 26.0582 45.1377 26.0582 45.6575C26.0582 46.1772 25.8518 46.6757 25.4843 47.0433C25.1168 47.4108 24.6184 47.6174 24.0986 47.6175ZM46.8345 47.6175C46.577 47.6175 46.3221 47.5669 46.0843 47.4684C45.8464 47.3699 45.6303 47.2255 45.4483 47.0435C45.2662 46.8615 45.1218 46.6455 45.0233 46.4076C44.9248 46.1698 44.8741 45.9149 44.8741 45.6575C44.8741 45.4001 44.9248 45.1452 45.0233 44.9074C45.1218 44.6695 45.2662 44.4534 45.4483 44.2714C45.6303 44.0894 45.8464 43.9451 46.0843 43.8466C46.3221 43.7481 46.577 43.6975 46.8345 43.6975C47.3542 43.6976 47.8526 43.9041 48.2201 44.2717C48.5876 44.6393 48.7941 45.1377 48.7941 45.6575C48.7941 46.1772 48.5876 46.6757 48.2201 47.0433C47.8526 47.4108 47.3542 47.6174 46.8345 47.6175ZM48.7944 38.6015C48.7944 39.0327 48.4416 39.3855 48.0104 39.3855H22.9226C22.7148 39.3851 22.5157 39.3024 22.3687 39.1555C22.2218 39.0085 22.1391 38.8093 22.1386 38.6015V26.0576C22.1386 25.6264 22.4914 25.2737 22.9226 25.2737H48.0104C48.4416 25.2737 48.7944 25.6264 48.7944 26.0576V38.6015Z" fill="#18C8FF"/>
</g>
</g>
<defs>
<filter id="filter0_d_37_7873" x="15.8667" y="15.8657" width="39.8647" height="40.5297" filterUnits="userSpaceOnUse" color-interpolation-filters="sRGB">
<feFlood flood-opacity="0" result="BackgroundImageFix"/>
<feColorMatrix in="SourceAlpha" type="matrix" values="0 0 0 0 0 0 0 0 0 0 0 0 0 0 0 0 0 0 127 0" result="hardAlpha"/>
<feOffset dx="0.664982" dy="1.32996"/>
<feComposite in2="hardAlpha" operator="out"/>
<feColorMatrix type="matrix" values="0 0 0 0 0.0987848 0 0 0 0 0.234644 0 0 0 0 0.271094 0 0 0 1 0"/>
<feBlend mode="normal" in2="BackgroundImageFix" result="effect1_dropShadow_37_7873"/>
<feBlend mode="normal" in="SourceGraphic" in2="effect1_dropShadow_37_7873" result="shape"/>
</filter>
<clipPath id="clip0_37_7873">
<rect width="70.9314" height="70.9314" fill="white"/>
</clipPath>
</defs>
</svg>
