<svg width="71" height="71" viewBox="0 0 71 71" fill="none" xmlns="http://www.w3.org/2000/svg">
<rect width="70.9314" height="70.9314" fill="#203957"/>
<rect opacity="0.85" x="10.0806" y="9.90552" width="51.9851" height="51.9851" fill="#2B4C74"/>
<g filter="url(#filter0_d_37_7872)">
<path d="M57.1452 38.6461L53.0231 43.6841L54.7025 43.8368C54.7025 43.8368 49.5117 48.1115 44.779 48.4169C40.0463 48.7222 37.7563 42.4628 37.7563 42.4628V33.4553H44.0157V30.2493H38.0616V26.1272C39.3585 25.6732 40.4817 24.8265 41.2751 23.7047C42.0686 22.5829 42.4929 21.2418 42.489 19.8678C42.4734 18.0911 41.7607 16.3915 40.5043 15.1351C39.2479 13.8787 37.5483 13.1659 35.7716 13.1504H35.6189C33.8421 13.1659 32.1425 13.8787 30.8861 15.1351C29.6297 16.3915 28.917 18.0911 28.9015 19.8678C28.8759 21.2468 29.2917 22.5979 30.0882 23.7239C30.8846 24.85 32.0201 25.692 33.3289 26.1272V30.2493H27.3748V33.4553H33.6342V42.4628C33.6342 42.4628 31.3442 48.7222 26.6114 48.4169C21.8787 48.1115 16.5353 43.8368 16.5353 43.8368L18.2147 43.6841L13.9399 38.6461L12.5659 44.7528L14.3979 44.2948C14.3979 44.2948 18.062 50.5542 23.4054 52.9969C28.9015 55.4396 34.3975 58.493 35.4662 58.6457C36.5349 58.493 42.031 55.4396 47.5271 52.9969C52.8705 50.5542 56.5345 44.2948 56.5345 44.2948L58.3665 44.7528L57.1452 38.6461ZM35.6189 23.3792C35.136 23.3856 34.6566 23.2951 34.2092 23.1132C33.7618 22.9314 33.3554 22.6617 33.0138 22.3202C32.6723 21.9787 32.4027 21.5722 32.2208 21.1248C32.0389 20.6774 31.9485 20.1981 31.9548 19.7151C31.9679 18.7474 32.3581 17.823 33.0424 17.1387C33.7268 16.4544 34.6512 16.0641 35.6189 16.0511H35.7716C36.2527 16.0611 36.7272 16.1658 37.1679 16.3592C37.6086 16.5526 38.0069 16.8309 38.3401 17.1782C38.6732 17.5256 38.9347 17.9351 39.1096 18.3835C39.2845 18.8319 39.3693 19.3103 39.3593 19.7915C39.3493 20.2727 39.2446 20.7471 39.0512 21.1878C38.8578 21.6285 38.5795 22.0268 38.2321 22.36C37.8848 22.6931 37.4753 22.9546 37.0269 23.1295C36.5785 23.3044 36.1001 23.3892 35.6189 23.3792Z" fill="#18C8FF"/>
</g>
<defs>
<filter id="filter0_d_37_7872" x="12.5659" y="13.1504" width="46.4658" height="46.8253" filterUnits="userSpaceOnUse" color-interpolation-filters="sRGB">
<feFlood flood-opacity="0" result="BackgroundImageFix"/>
<feColorMatrix in="SourceAlpha" type="matrix" values="0 0 0 0 0 0 0 0 0 0 0 0 0 0 0 0 0 0 127 0" result="hardAlpha"/>
<feOffset dx="0.664982" dy="1.32996"/>
<feComposite in2="hardAlpha" operator="out"/>
<feColorMatrix type="matrix" values="0 0 0 0 0.0987848 0 0 0 0 0.234644 0 0 0 0 0.271094 0 0 0 1 0"/>
<feBlend mode="normal" in2="BackgroundImageFix" result="effect1_dropShadow_37_7872"/>
<feBlend mode="normal" in="SourceGraphic" in2="effect1_dropShadow_37_7872" result="shape"/>
</filter>
</defs>
</svg>
