<svg width="20" height="20" viewBox="0 0 20 20" fill="none" xmlns="http://www.w3.org/2000/svg">
<path d="M8.64706 12.1765V6.82353L13.2353 9.50918L8.64706 12.1765ZM19.1694 5.80418C19.1694 5.80418 18.9897 4.53094 18.4399 3.96965C17.7417 3.23324 16.9594 3.23018 16.6008 3.18735C14.0329 3 10.1803 3 10.1803 3H10.1726C10.1726 3 6.32006 3 3.75218 3.18735C3.39276 3.23018 2.61124 3.23324 1.91229 3.96965C1.36247 4.53094 1.18353 5.80494 1.18353 5.80494C1.18353 5.80494 1 7.29918 1 8.79418V10.1974C1 11.6932 1.18353 13.1889 1.18353 13.1889C1.18353 13.1889 1.36247 14.4622 1.91229 15.0235C2.61124 15.7599 3.52812 15.7362 3.93647 15.8134C5.40471 15.9564 10.1765 16 10.1765 16C10.1765 16 14.0329 15.9939 16.6008 15.8073C16.9602 15.7637 17.7417 15.7606 18.4399 15.0242C18.9905 14.4629 19.1694 13.1889 19.1694 13.1889C19.1694 13.1889 19.3529 11.6939 19.3529 10.1982V8.79571C19.3529 7.29994 19.1694 5.80418 19.1694 5.80418Z" fill="white"/>
</svg>
