<svg width="20" height="20" viewBox="0 0 20 20" fill="none" xmlns="http://www.w3.org/2000/svg">
<path d="M17.6131 6.45173C17.6131 6.28509 17.6131 6.11499 17.6026 5.95183C18.3561 5.40669 19.0124 4.72267 19.5367 3.95184C18.8422 4.25392 18.0922 4.4692 17.3145 4.55253C18.1165 4.07684 18.7207 3.32337 19.0089 2.43101C18.2658 2.86851 17.4325 3.1949 16.561 3.35809C15.8561 2.6081 14.8561 2.14282 13.745 2.14282C11.3909 2.14282 9.43256 4.26434 9.97769 6.88585C8.4437 6.8093 6.94299 6.41081 5.57309 5.71629C4.20319 5.02177 2.99476 4.04676 2.02636 2.85462C1.68956 3.42406 1.50206 4.08031 1.50206 4.79905C1.50249 5.43395 1.65957 6.05894 1.95938 6.61859C2.2592 7.17824 2.69247 7.65527 3.2208 8.00737C2.59233 7.98306 1.99164 7.80598 1.48122 7.51779V7.5664C1.47944 8.45669 1.78594 9.32015 2.34864 10.0101C2.91134 10.7 3.69554 11.1738 4.56801 11.3511C3.9569 11.5073 3.42218 11.5073 2.82844 11.4205C3.31454 12.9483 4.73815 14.0594 6.43258 14.0941C5.10967 15.1288 3.44996 15.74 1.64442 15.74C1.32498 15.74 1.02637 15.7261 0.713867 15.6913C2.42219 16.7851 4.44995 17.4205 6.63744 17.4205C13.7311 17.4205 17.6131 11.549 17.6131 6.45182V6.45173Z" fill="white"/>
</svg>
