<svg width="20" height="20" viewBox="0 0 20 20" fill="none" xmlns="http://www.w3.org/2000/svg">
<path fill-rule="evenodd" clip-rule="evenodd" d="M13.1671 15.4452C13.6349 16.0431 14.1982 16.715 14.1982 16.715C17.5983 16.6066 18.9405 14.413 18.985 14.3402C18.9857 14.339 18.9861 14.3383 18.9861 14.3384C18.9861 9.30007 16.733 5.21706 16.733 5.21706C14.4815 3.52555 12.337 3.57332 12.337 3.57332L12.118 3.82367C14.7779 4.6373 16.0149 5.81 16.0149 5.81C13.617 4.48917 10.8583 3.97358 8.14531 4.33919C8.06815 4.33919 8.00101 4.35031 7.92742 4.36251C7.91147 4.36515 7.89521 4.36784 7.87849 4.37048C7.33002 4.41825 6.00086 4.62248 4.32747 5.35706C3.74936 5.62223 3.40348 5.81 3.40348 5.81C3.40348 5.81 4.703 4.57472 7.51943 3.75943L7.36296 3.57167C7.36296 3.57167 5.22017 3.52391 2.96702 5.21542C2.96702 5.21542 0.713867 9.29842 0.713867 14.3367C0.713867 14.3367 2.02656 16.6047 5.48369 16.715C5.48369 16.715 6.06345 16.0085 6.53286 15.4155C4.54488 14.8209 3.79383 13.5692 3.79383 13.5692C3.79383 13.5692 3.9503 13.6779 4.23194 13.8327C4.24961 13.8536 4.2715 13.8704 4.29618 13.8821C4.31776 13.8968 4.33934 13.9075 4.36109 13.9182C4.38582 13.9305 4.41076 13.9428 4.43617 13.9612C4.80369 14.1641 5.18511 14.3408 5.57757 14.4899C6.32172 14.7848 7.09137 15.0109 7.87684 15.1652C10.0026 15.5733 12.2014 15.3453 14.1982 14.5097C14.7466 14.3054 15.356 14.0057 15.9984 13.584C15.9984 13.584 15.216 14.8654 13.1671 15.4452ZM5.32617 11.1475C5.32617 10.1922 6.02943 9.40991 6.92209 9.40991C7.8131 9.40991 8.53447 10.1906 8.51635 11.1475C8.51635 12.0994 7.8131 12.885 6.92209 12.885C6.0459 12.885 5.32617 12.0994 5.32617 11.1475ZM11.0379 11.1475C11.0379 10.1922 11.7411 9.40991 12.6338 9.40991C13.5248 9.40991 14.2264 10.1906 14.228 11.1475C14.228 12.0994 13.5248 12.885 12.6338 12.885C11.7576 12.885 11.0379 12.0994 11.0379 11.1475Z" fill="white"/>
</svg>
