<svg width="20" height="20" viewBox="0 0 20 20" fill="none" xmlns="http://www.w3.org/2000/svg">
<path d="M17.9765 3.57153H2.72902C2.40464 3.57153 2.14258 3.8336 2.14258 4.15798V15.8868C2.14258 16.2112 2.40464 16.4733 2.72902 16.4733H17.9765C18.3009 16.4733 18.563 16.2112 18.563 15.8868V4.15798C18.563 3.8336 18.3009 3.57153 17.9765 3.57153ZM16.4957 5.56727L10.7138 10.0664C10.5708 10.1782 10.3711 10.1782 10.2281 10.0664L4.44436 5.56727C4.42256 5.55044 4.40657 5.52722 4.39863 5.50084C4.39069 5.47447 4.3912 5.44628 4.40009 5.42021C4.40898 5.39415 4.42581 5.37152 4.44821 5.35549C4.47061 5.33947 4.49746 5.33085 4.525 5.33086H16.4151C16.4427 5.33085 16.4695 5.33947 16.4919 5.35549C16.5143 5.37152 16.5311 5.39415 16.54 5.42021C16.5489 5.44628 16.5494 5.47447 16.5415 5.50084C16.5335 5.52722 16.5175 5.55044 16.4957 5.56727Z" fill="white"/>
</svg>
