<svg width="13" height="17" viewBox="0 0 13 17" fill="none" xmlns="http://www.w3.org/2000/svg">
<path d="M12.5683 17V0.846153H7.97596V5.11538L0.360577 0.615384V17H4.95288V8.92308L7.97596 10.6538V17H12.5683Z" fill="url(#paint0_linear_3496_14190)"/>
<path d="M12.5683 17V18.0281H13.5964V17H12.5683ZM12.5683 0.846153H13.5964V-0.181936H12.5683V0.846153ZM7.97596 0.846153V-0.181936H6.94787V0.846153H7.97596ZM7.97596 5.11538L7.45294 6.00049L9.00405 6.91706V5.11538H7.97596ZM0.360577 0.615384L0.883596 -0.269725L-0.667511 -1.18629V0.615384H0.360577ZM0.360577 17H-0.667511V18.0281H0.360577V17ZM4.95288 17V18.0281H5.98097V17H4.95288ZM4.95288 8.92308L5.46369 8.03087L3.9248 7.14982V8.92308H4.95288ZM7.97596 10.6538H9.00405V10.0578L8.48677 9.76163L7.97596 10.6538ZM7.97596 17H6.94787V18.0281H7.97596V17ZM13.5964 17V0.846153H11.5402V17H13.5964ZM12.5683 -0.181936H7.97596V1.87424H12.5683V-0.181936ZM6.94787 0.846153V5.11538H9.00405V0.846153H6.94787ZM8.49898 4.23028L0.883596 -0.269725L-0.162442 1.50049L7.45294 6.00049L8.49898 4.23028ZM-0.667511 0.615384V17H1.38867V0.615384H-0.667511ZM0.360577 18.0281H4.95288V15.9719H0.360577V18.0281ZM5.98097 17V8.92308H3.9248V17H5.98097ZM4.44208 9.81529L7.46515 11.5461L8.48677 9.76163L5.46369 8.03087L4.44208 9.81529ZM6.94787 10.6538V17H9.00405V10.6538H6.94787ZM7.97596 18.0281H12.5683V15.9719H7.97596V18.0281Z" fill="#3EABC7"/>
<defs>
<linearGradient id="paint0_linear_3496_14190" x1="5.06192" y1="-2.45607" x2="16.8541" y2="2.47638" gradientUnits="userSpaceOnUse">
<stop offset="0.078" stop-color="#6DC7E0"/>
<stop offset="0.908" stop-color="#3BAAC6"/>
</linearGradient>
</defs>
</svg>
