<svg width="13" height="19" viewBox="0 0 13 19" fill="none" xmlns="http://www.w3.org/2000/svg">
<path d="M5.00094 13.4438L6.26136 13.4415L7.80218 18.0107L12.6214 18.0017L11.0806 13.4325L12.4152 13.43L12.3914 0.702192L0.0590452 0.725237L0.0913728 18.0251L5.00949 18.0159L5.00094 13.4438ZM4.99309 9.24243L4.98501 4.91745L7.48114 4.91279L7.48922 9.23776L4.99309 9.24243Z" fill="url(#paint0_linear_3496_14197)"/>
<path d="M5.00094 13.4438L4.99959 12.7218L4.2776 12.7232L4.27895 13.4452L5.00094 13.4438ZM6.26136 13.4415L6.9455 13.2108L6.77951 12.7185L6.26002 12.7195L6.26136 13.4415ZM7.80218 18.0107L7.11804 18.2414L7.28404 18.7337L7.80353 18.7327L7.80218 18.0107ZM12.6214 18.0017L12.6228 18.7237L13.6262 18.7218L13.3056 17.771L12.6214 18.0017ZM11.0806 13.4325L11.0793 12.7105L10.0759 12.7124L10.3965 13.6632L11.0806 13.4325ZM12.4152 13.43L12.4165 14.152L13.1385 14.1506L13.1372 13.4286L12.4152 13.43ZM12.3914 0.702192L13.1134 0.700843L13.112 -0.0211475L12.3901 -0.0197983L12.3914 0.702192ZM0.0590452 0.725237L0.057696 0.00324665L-0.664295 0.00459581L-0.662946 0.726586L0.0590452 0.725237ZM0.0913728 18.0251L-0.630618 18.0265L-0.629269 18.7485L0.0927219 18.7471L0.0913728 18.0251ZM5.00949 18.0159L5.01084 18.7379L5.73283 18.7366L5.73148 18.0146L5.00949 18.0159ZM4.99309 9.24243L4.2711 9.24378L4.27245 9.96577L4.99444 9.96442L4.99309 9.24243ZM4.98501 4.91745L4.98366 4.19546L4.26167 4.19681L4.26302 4.9188L4.98501 4.91745ZM7.48114 4.91279L8.20313 4.91144L8.20178 4.18945L7.47979 4.1908L7.48114 4.91279ZM7.48922 9.23776L7.49057 9.95975L8.21256 9.9584L8.21121 9.23641L7.48922 9.23776ZM5.00229 14.1658L6.26271 14.1635L6.26002 12.7195L4.99959 12.7218L5.00229 14.1658ZM5.57722 13.6722L7.11804 18.2414L8.48633 17.78L6.9455 13.2108L5.57722 13.6722ZM7.80353 18.7327L12.6228 18.7237L12.6201 17.2797L7.80084 17.2887L7.80353 18.7327ZM13.3056 17.771L11.7648 13.2018L10.3965 13.6632L11.9373 18.2324L13.3056 17.771ZM11.082 14.1545L12.4165 14.152L12.4138 12.708L11.0793 12.7105L11.082 14.1545ZM13.1372 13.4286L13.1134 0.700843L11.6694 0.703541L11.6932 13.4313L13.1372 13.4286ZM12.3901 -0.0197983L0.057696 0.00324665L0.0603943 1.44723L12.3928 1.42418L12.3901 -0.0197983ZM-0.662946 0.726586L-0.630618 18.0265L0.813364 18.0238L0.781036 0.723888L-0.662946 0.726586ZM0.0927219 18.7471L5.01084 18.7379L5.00814 17.294L0.0900236 17.3031L0.0927219 18.7471ZM5.73148 18.0146L5.72293 13.4425L4.27895 13.4452L4.2875 18.0173L5.73148 18.0146ZM5.71508 9.24108L5.707 4.9161L4.26302 4.9188L4.2711 9.24378L5.71508 9.24108ZM4.98636 5.63944L7.48249 5.63478L7.47979 4.1908L4.98366 4.19546L4.98636 5.63944ZM6.75915 4.91414L6.76723 9.23911L8.21121 9.23641L8.20313 4.91144L6.75915 4.91414ZM7.48787 8.51577L4.99174 8.52043L4.99444 9.96442L7.49057 9.95975L7.48787 8.51577Z" fill="#D6894B"/>
<defs>
<linearGradient id="paint0_linear_3496_14197" x1="3.79263" y1="-1.62646" x2="16.1576" y2="0.309683" gradientUnits="userSpaceOnUse">
<stop offset="0.129" stop-color="#E0B17F"/>
<stop offset="0.941" stop-color="#D68F68"/>
</linearGradient>
</defs>
</svg>
