<svg width="20" height="20" viewBox="0 0 20 20" fill="none" xmlns="http://www.w3.org/2000/svg">
<g opacity="0.8" clip-path="url(#clip0_4101_20407)">
<path d="M10.5534 0.641583L19.3587 4.99947C19.5512 5.09463 19.7133 5.24173 19.8266 5.42416C19.9399 5.60659 20 5.81707 20 6.03184C20 6.2466 19.9399 6.45709 19.8266 6.63952C19.7133 6.82195 19.5512 6.96905 19.3587 7.06421L10.5534 11.4221C10.3945 11.5008 10.2197 11.5417 10.0424 11.5417C9.86508 11.5417 9.69019 11.5008 9.53131 11.4221L0.726064 7.06421C0.533532 6.96905 0.371447 6.82195 0.258117 6.63952C0.144788 6.45709 0.0847309 6.2466 0.0847309 6.03184C0.0847309 5.81707 0.144788 5.60659 0.258117 5.42416C0.371447 5.24173 0.533532 5.09463 0.726064 4.99947L9.53131 0.641583C9.69019 0.562906 9.86508 0.521973 10.0424 0.521973C10.2197 0.521973 10.3945 0.562906 10.5534 0.641583ZM17.8681 8.64631L19.2734 9.34104C19.4659 9.4362 19.628 9.58331 19.7414 9.76573C19.8547 9.94816 19.9147 10.1586 19.9147 10.3734C19.9147 10.5882 19.8547 10.7987 19.7414 10.9811C19.628 11.1635 19.4659 11.3106 19.2734 11.4058L10.4682 15.7637C10.3093 15.8423 10.1344 15.8833 9.9571 15.8833C9.77982 15.8833 9.60492 15.8423 9.44605 15.7637L0.640801 11.4058C0.448409 11.3106 0.286459 11.1635 0.17323 10.9811C0.0600005 10.7987 0 10.5883 0 10.3737C0 10.159 0.0600005 9.94862 0.17323 9.76625C0.286459 9.58388 0.448409 9.43678 0.640801 9.34157L2.04606 8.64631L9.44605 12.3084C9.76816 12.4679 10.146 12.4679 10.4682 12.3084L17.8681 8.64631V8.64631ZM17.8681 13.241L19.2734 13.9358C19.4659 14.0309 19.628 14.178 19.7414 14.3605C19.8547 14.5429 19.9147 14.7534 19.9147 14.9681C19.9147 15.1829 19.8547 15.3934 19.7414 15.5758C19.628 15.7582 19.4659 15.9054 19.2734 16.0005L10.4682 20.3584C10.3093 20.4371 10.1344 20.478 9.9571 20.478C9.77982 20.478 9.60492 20.4371 9.44605 20.3584L0.640801 16.0005C0.448409 15.9053 0.286459 15.7582 0.17323 15.5758C0.0600005 15.3935 0 15.1831 0 14.9684C0 14.7537 0.0600005 14.5434 0.17323 14.361C0.286459 14.1786 0.448409 14.0315 0.640801 13.9363L2.04606 13.241L9.44605 16.9031C9.76816 17.0626 10.146 17.0626 10.4682 16.9031L17.8681 13.241V13.241Z" fill="white"/>
</g>
<defs>
<clipPath id="clip0_4101_20407">
<rect width="20" height="20" fill="white"/>
</clipPath>
</defs>
</svg>
