<svg width="20" height="20" viewBox="0 0 20 20" fill="none" xmlns="http://www.w3.org/2000/svg">
<g opacity="0.8">
<path d="M15.6652 9.96033C14.7466 10.5794 13.6476 10.939 12.4649 10.939C11.2858 10.939 10.1903 10.5817 9.27532 9.96741C6.79673 11.1796 5.0846 13.756 5.0846 16.7381C5.0846 19.8935 19.8677 19.8499 19.8677 16.7381C19.8665 13.749 18.1508 11.169 15.6652 9.96033ZM7.49597 5.05032C7.49597 2.26162 9.71986 0 12.4649 0C15.21 0 17.4339 2.26044 17.4339 5.05032C17.4339 7.83903 15.21 10.0983 12.4649 10.0983C9.71986 10.0983 7.49597 7.83903 7.49597 5.05032ZM4.20848 16.9999C4.20848 17.1154 4.22617 17.2251 4.26037 17.3336C2.39376 17.0306 1 16.4327 1 15.5318C1 12.9507 2.48102 10.7209 4.62708 9.67144C5.37585 10.1749 6.26729 10.4792 7.2283 10.511C5.3841 12.0522 4.20848 14.3869 4.20848 16.9999ZM6.66938 5.05032C6.66938 3.76858 7.07265 2.58235 7.75774 1.61544C7.63747 1.60483 7.51837 1.60011 7.3981 1.60011C5.13884 1.60011 3.30761 3.46082 3.30761 5.75664C3.30761 8.05246 5.13766 9.91316 7.39692 9.91316C7.90514 9.91316 8.39213 9.81883 8.84021 9.6455C7.5172 8.56657 6.66938 6.90985 6.66938 5.05032Z" fill="white"/>
</g>
</svg>
