<svg width="20" height="20" viewBox="0 0 20 20" fill="none" xmlns="http://www.w3.org/2000/svg">
<g opacity="0.8">
<path d="M6.46315 2C6.65698 2 6.84528 2.06465 6.99823 2.18372L9.84598 4.40049C9.99893 4.51955 10.1872 4.58421 10.381 4.58421H18.1344C18.6155 4.58421 19.0055 4.97422 19.0055 5.45529V17.4024C19.0055 17.8834 18.6155 18.2734 18.1344 18.2734H0.871084C0.390008 18.2734 0 17.8834 0 17.4024V2.87108C0 2.39001 0.390008 2 0.871084 2H6.46315ZM9.76204 7.20388C9.59416 7.06373 9.34448 7.08624 9.20435 7.2541L6.05154 11.0312C5.99212 11.1024 5.95956 11.1922 5.95956 11.285C5.95956 11.5036 6.13685 11.6809 6.35551 11.6809H8.0235L8.02352 14.2546C8.02352 15.0746 8.68829 15.7394 9.50832 15.7394C10.3284 15.7394 10.9931 15.0746 10.9931 14.2546V11.6809H12.6611C12.7539 11.6809 12.8437 11.6484 12.9149 11.5889C13.0827 11.4488 13.1052 11.1991 12.9651 11.0312L9.81229 7.2541C9.79708 7.23589 9.78026 7.21908 9.76204 7.20388Z" fill="white"/>
</g>
</svg>
