<svg width="20" height="20" viewBox="0 0 20 20" fill="none" xmlns="http://www.w3.org/2000/svg">
<g opacity="0.8" clip-path="url(#clip0_4101_19405)">
<path d="M12.367 10.1528C12.383 10.487 12.331 10.8209 12.2142 11.1344C12.0974 11.4479 11.9181 11.7343 11.6873 11.9765C11.4565 12.2186 11.1789 12.4114 10.8714 12.5431C10.5638 12.6748 10.2328 12.7428 9.89825 12.7428C9.56371 12.7428 9.23266 12.6748 8.92514 12.5431C8.61762 12.4114 8.34004 12.2186 8.10922 11.9765C7.8784 11.7343 7.69914 11.4479 7.5823 11.1344C7.46546 10.8209 7.41347 10.487 7.42949 10.1528C7.42803 9.94198 7.45666 9.73201 7.51452 9.52926H-0.0419922V16.5132C-0.0381054 16.6101 -0.0286417 16.7066 -0.0136482 16.8023V17.9077C-0.0136482 18.2084 0.105801 18.4968 0.318423 18.7094C0.531044 18.9221 0.81942 19.0415 1.12011 19.0415H18.6934C18.9941 19.0415 19.2825 18.9221 19.4951 18.7094C19.7077 18.4968 19.8272 18.2084 19.8272 17.9077V9.52926H12.282C12.3381 9.73238 12.3667 9.9421 12.367 10.1528ZM19.8045 4.81848V3.68472C19.8045 3.38403 19.685 3.09565 19.4724 2.88303C19.2598 2.67041 18.9714 2.55096 18.6707 2.55096H13.6255V0.85032C13.6255 0.624801 13.5359 0.408519 13.3764 0.249053C13.217 0.0895868 13.0007 0 12.7752 0H6.99299C6.76747 0 6.55119 0.0895868 6.39172 0.249053C6.23226 0.408519 6.14267 0.624801 6.14267 0.85032V2.55096H1.12011C0.81942 2.55096 0.531044 2.67041 0.318423 2.88303C0.105801 3.09565 -0.0136482 3.38403 -0.0136482 3.68472V8.28212H19.8272V5.10192C19.8249 5.00709 19.8174 4.91246 19.8045 4.81848ZM12.435 2.55096H7.39548V1.85937C7.39548 1.70902 7.4552 1.56483 7.56151 1.45852C7.66782 1.35221 7.81201 1.29249 7.96236 1.29249H11.8455C11.9199 1.29249 11.9936 1.30715 12.0624 1.33564C12.1312 1.36413 12.1937 1.40588 12.2463 1.45852C12.299 1.51116 12.3407 1.57365 12.3692 1.64243C12.3977 1.71121 12.4124 1.78492 12.4124 1.85937L12.435 2.55096Z" fill="white"/>
</g>
<defs>
<clipPath id="clip0_4101_19405">
<rect width="20" height="20" fill="white"/>
</clipPath>
</defs>
</svg>
