<svg width="20" height="20" viewBox="0 0 20 20" fill="none" xmlns="http://www.w3.org/2000/svg">
<g opacity="0.8">
<path d="M18.3431 18.5453C17.9646 18.5342 17.6658 18.2262 17.6658 17.8477L17.6844 8.10459H18.4767C18.9368 8.10459 19.0129 7.88008 18.6548 7.60547L10.1196 1.09834C10.0343 1.0334 9.92295 1 9.81162 1C9.68916 1 9.56484 1.03896 9.47207 1.11689L1.38965 7.85596C1.03896 8.14912 1.13174 8.39404 1.58633 8.40332L2.38047 8.42002L2.41201 17.8439C2.41387 18.2299 2.10029 18.5435 1.71621 18.5435H1.70693C1.31729 18.5435 1 18.8626 1 19.2541V19.2634C1.00557 19.6623 1.32842 19.9852 1.72549 19.9852L18.3579 20H18.3598C18.7476 20 19.063 19.6827 19.063 19.2912V19.2819C19.0611 18.883 18.742 18.5564 18.3431 18.5453ZM11.2478 11.5558L9.05088 11.5446C9.01006 11.5446 8.97666 11.5112 8.97666 11.4704V9.52031C8.97666 9.47949 9.01006 9.44609 9.05088 9.44609L11.2478 9.47207C11.2886 9.47207 11.322 9.50547 11.322 9.54629V11.4815C11.322 11.5224 11.2886 11.5558 11.2478 11.5558ZM11.322 13.2721V17.8885L9.05088 17.8755C9.01006 17.8755 8.97666 17.8421 8.97666 17.8013V13.2721C8.97666 13.2313 9.01006 13.1979 9.05088 13.1979H11.2478C11.2886 13.1979 11.322 13.2313 11.322 13.2721ZM11.2478 7.80215L9.05088 7.79287C9.01006 7.79287 8.97666 7.75947 8.97666 7.71865V5.7667C8.97666 5.72588 9.01006 5.69248 9.05088 5.69248L11.2478 5.71846C11.2886 5.71846 11.322 5.75186 11.322 5.79268V7.72793C11.322 7.76875 11.2886 7.80215 11.2478 7.80215ZM6.86514 9.54629V11.4815C6.86514 11.5224 6.83174 11.5558 6.79092 11.5558L4.59404 11.5465C4.55322 11.5465 4.51982 11.5131 4.51982 11.4723V9.52031C4.51982 9.47949 4.55322 9.44609 4.59404 9.44609H4.5959L6.79277 9.47207C6.83359 9.47207 6.86514 9.50547 6.86514 9.54629ZM4.51982 13.2721C4.51982 13.2313 4.55322 13.1979 4.59404 13.1979L6.79092 13.2201C6.83174 13.2201 6.86514 13.2535 6.86514 13.2943V15.2352C6.86514 15.276 6.83174 15.3094 6.79092 15.3094L4.59404 15.302C4.55322 15.302 4.51982 15.2686 4.51982 15.2277V13.2721ZM13.1997 15.2259V13.1979L15.4727 13.2201C15.5135 13.2201 15.5469 13.2535 15.5469 13.2943V15.2333C15.5469 15.2741 15.5135 15.3075 15.4727 15.3075L13.2758 15.2982C13.2331 15.3001 13.1997 15.2667 13.1997 15.2259ZM15.545 11.4815C15.545 11.5224 15.5116 11.5558 15.4708 11.5558L13.2739 11.5446C13.2331 11.5446 13.1997 11.5112 13.1997 11.4704V9.52031C13.1997 9.47949 13.2331 9.44609 13.2739 9.44609L15.4708 9.47207C15.5116 9.47207 15.545 9.50547 15.545 9.54629V11.4815Z" fill="white"/>
</g>
</svg>
