<svg width="22" height="14" viewBox="0 0 22 14" fill="none" xmlns="http://www.w3.org/2000/svg">
<path d="M0.0382813 10.62V14H10.0183V5.22H4.01828V3.38H10.0183V-9.53674e-07H0.0382813V8.6H6.03828V10.62H0.0382813ZM15.6003 10.3H16.6203L17.8603 14H21.7603L20.5203 10.3H21.6003V-9.53674e-07H11.6203V14H15.6003V10.3ZM15.6003 6.9V3.4H17.6203V6.9H15.6003Z" fill="url(#paint0_linear_3496_14186)"/>
<path d="M0.0382813 10.62V10.0263H-0.555397V10.62H0.0382813ZM0.0382813 14H-0.555397V14.5937H0.0382813V14ZM10.0183 14V14.5937H10.612V14H10.0183ZM10.0183 5.22H10.612V4.62632H10.0183V5.22ZM4.01828 5.22H3.4246V5.81368H4.01828V5.22ZM4.01828 3.38V2.78632H3.4246V3.38H4.01828ZM10.0183 3.38V3.97368H10.612V3.38H10.0183ZM10.0183 -9.53674e-07H10.612V-0.593679H10.0183V-9.53674e-07ZM0.0382813 -9.53674e-07V-0.593679H-0.555397V-9.53674e-07H0.0382813ZM0.0382813 8.6H-0.555397V9.19368H0.0382813V8.6ZM6.03828 8.6H6.63196V8.00632H6.03828V8.6ZM6.03828 10.62V11.2137H6.63196V10.62H6.03828ZM-0.555397 10.62V14H0.63196V10.62H-0.555397ZM0.0382813 14.5937H10.0183V13.4063H0.0382813V14.5937ZM10.612 14V5.22H9.4246V14H10.612ZM10.0183 4.62632H4.01828V5.81368H10.0183V4.62632ZM4.61196 5.22V3.38H3.4246V5.22H4.61196ZM4.01828 3.97368H10.0183V2.78632H4.01828V3.97368ZM10.612 3.38V-9.53674e-07H9.4246V3.38H10.612ZM10.0183 -0.593679H0.0382813V0.593678H10.0183V-0.593679ZM-0.555397 -9.53674e-07V8.6H0.63196V-9.53674e-07H-0.555397ZM0.0382813 9.19368H6.03828V8.00632H0.0382813V9.19368ZM5.4446 8.6V10.62H6.63196V8.6H5.4446ZM6.03828 10.0263H0.0382813V11.2137H6.03828V10.0263ZM15.6003 10.3V9.70632H15.0066V10.3H15.6003ZM16.6203 10.3L17.1832 10.1114L17.0475 9.70632H16.6203V10.3ZM17.8603 14L17.2974 14.1887L17.4331 14.5937H17.8603V14ZM21.7603 14V14.5937H22.5854L22.3232 13.8113L21.7603 14ZM20.5203 10.3V9.70632H19.6952L19.9574 10.4887L20.5203 10.3ZM21.6003 10.3V10.8937H22.194V10.3H21.6003ZM21.6003 -9.53674e-07H22.194V-0.593679H21.6003V-9.53674e-07ZM11.6203 -9.53674e-07V-0.593679H11.0266V-9.53674e-07H11.6203ZM11.6203 14H11.0266V14.5937H11.6203V14ZM15.6003 14V14.5937H16.194V14H15.6003ZM15.6003 6.9H15.0066V7.49368H15.6003V6.9ZM15.6003 3.4V2.80632H15.0066V3.4H15.6003ZM17.6203 3.4H18.214V2.80632H17.6203V3.4ZM17.6203 6.9V7.49368H18.214V6.9H17.6203ZM15.6003 10.8937H16.6203V9.70632H15.6003V10.8937ZM16.0574 10.4887L17.2974 14.1887L18.4232 13.8113L17.1832 10.1114L16.0574 10.4887ZM17.8603 14.5937H21.7603V13.4063H17.8603V14.5937ZM22.3232 13.8113L21.0832 10.1114L19.9574 10.4887L21.1974 14.1887L22.3232 13.8113ZM20.5203 10.8937H21.6003V9.70632H20.5203V10.8937ZM22.194 10.3V-9.53674e-07H21.0066V10.3H22.194ZM21.6003 -0.593679H11.6203V0.593678H21.6003V-0.593679ZM11.0266 -9.53674e-07V14H12.214V-9.53674e-07H11.0266ZM11.6203 14.5937H15.6003V13.4063H11.6203V14.5937ZM16.194 14V10.3H15.0066V14H16.194ZM16.194 6.9V3.4H15.0066V6.9H16.194ZM15.6003 3.99368H17.6203V2.80632H15.6003V3.99368ZM17.0266 3.4V6.9H18.214V3.4H17.0266ZM17.6203 6.30632H15.6003V7.49368H17.6203V6.30632Z" fill="#77A0F1"/>
<defs>
<linearGradient id="paint0_linear_3496_14186" x1="-1.5" y1="0.252126" x2="16.4002" y2="22.3142" gradientUnits="userSpaceOnUse">
<stop offset="0.094" stop-color="#B2D1FF"/>
<stop offset="0.941" stop-color="#99B4FF"/>
</linearGradient>
</defs>
</svg>
