<svg width="356" height="22" viewBox="0 0 356 22" fill="none" xmlns="http://www.w3.org/2000/svg">
<path opacity="0.55" d="M3.71512 3.25589H13.2202V0.536584H0.54676V18H13.2202V15.2807H3.71512V10.6155H9.95206V7.89617H3.71512V3.25589ZM18.5091 18H24.6463L27.8645 4.27875H24.7461L22.3261 15.4553H20.8542L18.4093 4.27875H15.2909L18.5091 18ZM41.4004 15.4553H33.0679V12.6113H41.4004V4.27875H30.0991V18H41.4004V15.4553ZM33.0679 10.0666V6.82341H38.4316V10.0666H33.0679ZM53.2793 4.27875H44.4977V18H47.4664V6.82341H53.2793V4.27875ZM67.1521 4.27875H64.1834V15.4553H58.8196V4.27875H55.8508V18H64.1834V21.7422H67.1521V4.27875ZM81.5507 4.27875H70.2494V18H81.5507V4.27875ZM78.5819 6.82341V15.4553H73.2181V6.82341H78.5819ZM95.9492 4.27875H84.6479V18H87.6167V6.82341H92.9805V18H95.9492V4.27875ZM110.348 15.4553H102.015V12.6113H110.348V4.27875H99.0465V18H110.348V15.4553ZM102.015 10.0666V6.82341H107.379V10.0666H102.015ZM122.534 3.25589H129.369V6.49909H132.538V0.536584H119.365V18H132.538V12.0375H129.369V15.2807H122.534V3.25589ZM135.64 6.82341H143.972V9.36808H135.64V18H146.941V4.27875H135.64V6.82341ZM143.972 11.9128V15.4553H138.608V11.9128H143.972ZM161.34 4.27875H150.038V18H153.007V6.82341H158.371V18H161.34V4.27875ZM170.357 18H183.529V6.64878H181.608L183.405 0.536584H170.357V18ZM180.361 9.39303V15.2557H173.525V9.39303H180.361ZM173.525 3.28084H179.438L178.49 6.64878H173.525V3.28084ZM186.632 18H197.933V4.27875H194.964V15.4553H189.6V4.27875H186.632V18ZM203.999 0.536584H201.03V2.88167H203.999V0.536584ZM203.999 4.27875H201.03V18H203.999V4.27875ZM210.09 0.536584H207.121V18H210.09V0.536584ZM224.513 0.536584H221.544V4.27875H213.212V18H224.513V0.536584ZM216.18 15.4553V6.82341H221.544V15.4553H216.18ZM245.555 18H248.724V0.287107L241.139 7.59679L233.53 0.287107V18H236.699V7.37226L241.139 11.813L245.555 7.37226V18ZM263.128 15.4553H254.796V12.6113H263.128V4.27875H251.827V18H263.128V15.4553ZM254.796 10.0666V6.82341H260.16V10.0666H254.796ZM269.194 4.27875V1.78397H266.226V18H272.762V15.4553H269.194V6.82341H272.662V4.27875H269.194ZM275.459 6.82341H283.792V9.36808H275.459V18H286.76V4.27875H275.459V6.82341ZM283.792 11.9128V15.4553H278.428V11.9128H283.792ZM292.228 18H298.365L301.583 4.27875H298.465L296.045 15.4553H294.573L292.128 4.27875H289.009L292.228 18ZM315.119 15.4553H306.786V12.6113H315.119V4.27875H303.818V18H315.119V15.4553ZM306.786 10.0666V6.82341H312.15V10.0666H306.786ZM326.998 4.27875H318.216V18H321.185V6.82341H326.998V4.27875ZM340.871 9.61756H332.538V6.82341H340.871V4.27875H329.569V12.1622H337.902V15.4553H329.569V18H340.871V9.61756ZM355.269 15.4553H346.937V12.6113H355.269V4.27875H343.968V18H355.269V15.4553ZM346.937 10.0666V6.82341H352.3V10.0666H346.937Z" fill="white"/>
</svg>
