<svg width="20" height="20" viewBox="0 0 20 20" fill="none" xmlns="http://www.w3.org/2000/svg">
<g opacity="0.8">
<path d="M17.8785 17.5994C17.8785 18.5331 17.4116 18.9999 16.5816 18.9999H2.99079C2.21269 18.9999 1.74583 18.585 1.69395 17.8069C1.64208 16.0432 1.69395 11.1152 1.69395 9.40336C2.31643 9.29961 2.99079 9.29961 3.5614 9.04024C4.08013 8.78088 4.49512 8.26214 5.01385 7.84716C5.48072 8.67713 6.25882 9.29961 7.40003 9.29961C8.48938 9.29961 9.26748 8.729 9.83809 7.74341C11.1349 9.87022 13.573 9.76647 14.6623 7.84716C15.1292 8.26214 15.5442 8.78088 16.0629 9.04024C16.5816 9.29961 17.256 9.29961 17.9303 9.40336V9.92209C17.8785 11.4264 17.9303 16.095 17.8785 17.5994Z" fill="white"/>
<path d="M17.6192 7.74355C16.2705 8.00292 15.233 7.32856 14.6105 5.77236C14.1955 7.0692 13.4174 7.8473 12.0687 7.79542C10.8756 7.74355 10.1494 7.01732 9.73441 5.82423C9.26755 7.17294 8.43757 7.89917 7.08886 7.79542C5.99952 7.74355 5.32517 7.12107 4.80643 5.82423C4.70268 6.03173 4.65081 6.23922 4.59894 6.39484C4.13208 7.32856 3.19835 7.89917 2.16089 7.8473C1.12342 7.74355 0.293441 7.0692 0.0340734 6.03173C-0.0178001 5.72049 -0.0178002 5.35737 0.0859467 5.04613C0.500934 3.80117 1.22716 2.65995 1.64215 1.41499C1.7459 1.10375 1.95339 1 2.26463 1H17.1004C17.4636 1 17.6192 1.10375 17.7748 1.46686C18.1898 2.60808 18.7604 3.64555 19.2791 4.68302C20.0054 5.87611 18.9679 7.53606 17.6192 7.74355Z" fill="white"/>
</g>
</svg>
