<svg width="20" height="20" viewBox="0 0 20 20" fill="none" xmlns="http://www.w3.org/2000/svg">
<g opacity="0.8">
<path d="M8.55765 0.331876C8.93467 0.114453 9.36223 0 9.79745 0C10.2327 0 10.6602 0.114453 11.0373 0.331876L17.3524 3.94041C17.73 4.15791 18.0437 4.47097 18.262 4.84811C18.4803 5.22526 18.5955 5.65322 18.596 6.08897V13.3092C18.596 14.1952 18.1227 15.0132 17.3546 15.4557L17.3524 15.4578L11.0373 19.0663C10.6602 19.2837 10.2327 19.3982 9.79745 19.3982C9.36223 19.3982 8.93467 19.2837 8.55765 19.0663L2.24352 15.4578C1.86592 15.2403 1.55223 14.9272 1.33395 14.5501C1.11567 14.1729 1.00049 13.745 1 13.3092V6.08897C1 5.20302 1.47428 4.38497 2.24139 3.94253L2.24352 3.94041L8.55765 0.331876ZM17.8172 4.8115C17.7726 4.73459 17.7133 4.6672 17.6427 4.6132C17.572 4.55921 17.4915 4.51965 17.4056 4.49679C17.3196 4.47393 17.2301 4.46822 17.1419 4.47998C17.0538 4.49175 16.9689 4.52075 16.892 4.56535L9.80329 8.66407L2.71461 4.56641C2.55928 4.47636 2.37453 4.45171 2.20102 4.49787C2.02751 4.54403 1.87945 4.65723 1.7894 4.81257C1.69935 4.9679 1.6747 5.15264 1.72086 5.32615C1.76702 5.49966 1.88022 5.64773 2.03556 5.73778L9.11999 9.83438V18.4499C9.11999 18.8106 9.42344 19.1035 9.79798 19.1035C9.97424 19.1063 10.1444 19.0391 10.2712 18.9165C10.3979 18.794 10.4708 18.6261 10.4739 18.4499V9.83968L17.57 5.73671C17.7088 5.6563 17.8147 5.52914 17.8685 5.37795C17.9223 5.22675 17.9207 5.06134 17.8639 4.91124L17.8172 4.8115Z" fill="white"/>
</g>
</svg>
