<svg width="20" height="20" viewBox="0 0 20 20" fill="none" xmlns="http://www.w3.org/2000/svg">
<g opacity="0.8">
<path d="M13.0544 15.5645C13.0544 15.3443 12.8962 15.1647 12.6995 15.1647H7.71781C7.5211 15.1647 7.36289 15.3443 7.36289 15.5645V17.1659H3.80514V18.3675H16.6122V17.1659H13.0544V15.5645ZM18.2007 1H2.19946C1.53665 1 1 1.53665 1 2.19946V13.4008C1 14.0615 1.53665 14.6002 2.19946 14.6002H18.2007C18.8636 14.6002 19.4023 14.0636 19.4023 13.4008V2.19946C19.4023 1.53665 18.8657 1 18.2007 1ZM6.31951 12.2206H4.15579V9.79815H6.31951V12.2206ZM9.35129 12.2206H7.18757V7.85678H9.35129V12.2206ZM12.8128 12.2206H10.6491V3.9826H12.8128V12.2206ZM16.2722 12.2206H14.1085V5.91755H16.2722V12.2206Z" fill="white"/>
</g>
</svg>
