<svg width="1152" height="1264" viewBox="0 0 1152 1264" fill="none" xmlns="http://www.w3.org/2000/svg">
    <path d="M869.512 56.5984H1121.45V141.747H1093.9V224.891H1037.8V309.037H1009.26V337.086H1037.8V392.182H1093.9V449.281H1009.26V533.428H1037.8V561.477H1121.45V645.122H1066.35V673.672H1093.4V701.72H1121.45V757.818H1093.4V841.964H1150V1010.26H1066.86V1065.85H1121.45V1121.95H1064.35V1065.85H924.107V1121.95H869.011V1207.1H840.963V1261.69H786.868V1207.1H700.719V1179.05H672.67V1207.1H645.122V1235.15H560.475V1179.05H532.927V1122.95H504.377V1093.9H392.683V1122.95H308.036V1150.5H279.987V1178.55H223.889V1207.1H167.291V1235.15H112.195V1262.7H0V1207.1H55.5967V1151H83.6455V1094.4H111.694V1066.35H140.244V1010.26H167.291V925.61H223.889V870.514H308.036V842.465H364.133V870.514H447.779V813.916H504.377V785.867H475.828V617.574H504.377V392.683H476.328V224.891H448.28V168.794H392.182V140.745H364.133V112.195H336.585V0H448.78V56.0976H504.377V84.6472H617.073V112.696H729.268V168.794H784.865V140.745H841.463V112.696H869.512V56.5984Z" fill="#223330" />
</svg>