<svg width="2092" height="1663" viewBox="0 0 2092 1663" fill="none" xmlns="http://www.w3.org/2000/svg">
<path d="M1401.95 1190.47L1404.27 1193.63L1391.33 1203.13L1389.02 1199.98L1383.02 1204.38L1385.34 1207.54L1369.26 1219.36L1366.94 1216.21L1360.95 1220.61L1363.26 1223.77L1359.8 1226.32L1331.98 1188.47L1328.82 1190.79L1319.55 1178.17L1316.4 1180.49L1300.17 1158.41L1297.01 1160.73L1294.69 1157.58L1291.54 1159.9L1289.22 1156.74L1282.91 1161.38L1280.6 1158.23L1277.44 1160.54L1275.12 1157.39L1259.35 1168.98L1257.04 1165.83L1253.88 1168.15L1251.56 1164.99L1248.41 1167.31L1246.09 1164.16L1242.94 1166.47L1240.62 1163.32L1237.47 1165.64L1235.15 1162.49L1231.99 1164.8L1229.68 1161.65L1226.52 1163.97L1224.2 1160.81L1221.05 1163.13L1218.73 1159.98L1215.58 1162.3L1213.26 1159.14L1210.11 1161.46L1207.79 1158.31L1204.95 1160.39L1209.59 1166.7L1206.43 1169.02L1208.75 1172.17L1205.6 1174.49L1207.91 1177.65L1204.76 1179.96L1207.08 1183.12L1203.92 1185.44L1206.24 1188.59L1203.09 1190.91L1205.41 1194.06L1202.25 1196.38L1204.57 1199.53L1201.42 1201.85L1203.74 1205.01L1200.58 1207.33L1202.9 1210.48L1199.75 1212.8L1202.07 1215.95L1198.91 1218.27L1201.23 1221.42L1198.08 1223.74L1200.39 1226.9L1197.24 1229.21L1199.56 1232.37L1186.94 1241.64L1189.26 1244.79L1186.11 1247.11L1188.43 1250.27L1178.96 1257.22L1181.28 1260.38L1178.13 1262.69L1180.45 1265.85L1170.99 1272.8L1173.3 1275.96L1169.83 1278.51L1167.52 1275.35L1164.36 1277.67L1162.04 1274.52L1158.89 1276.84L1156.57 1273.68L1153.42 1276L1151.1 1272.85L1147.95 1275.16L1145.63 1272.01L1133.01 1281.28L1130.69 1278.13L1127.54 1280.45L1125.22 1277.29L1122.07 1279.61L1119.75 1276.46L1116.6 1278.78L1111.73 1272.15L1114.88 1269.84L1105.84 1257.54L1102.69 1259.85L1088.78 1240.93L1085.62 1243.25L1083.3 1240.1L1080.15 1242.41L1077.83 1239.26L1074.68 1241.58L1072.36 1238.42L1069.21 1240.74L1059.7 1227.81L1062.85 1225.49L1060.54 1222.34L1063.69 1220.02L1061.37 1216.87L1064.53 1214.55L1062.21 1211.4L1065.36 1209.08L1063.04 1205.92L1066.2 1203.61L1064.11 1200.77L1048.66 1212.13L1050.97 1215.28L1047.82 1217.6L1050.14 1220.75L1046.99 1223.07L1049.3 1226.22L1046.15 1228.54L1050.79 1234.85L1047.63 1237.17L1049.95 1240.32L1043.33 1245.19L1041.01 1242.04L1025.24 1253.63L1022.92 1250.48L1019.77 1252.79L1017.45 1249.64L1001.68 1261.23L999.362 1258.08L996.208 1260.4L993.89 1257.24L990.736 1259.56L988.418 1256.41L985.264 1258.72L982.945 1255.57L979.792 1257.89L977.473 1254.74L974.319 1257.05L972.001 1253.9L968.847 1256.22L945.664 1224.68L942.51 1227L940.192 1223.84L937.038 1226.16L932.17 1219.54L935.323 1217.22L933.005 1214.07L936.159 1211.75L933.841 1208.59L936.994 1206.28L934.676 1203.12L937.83 1200.8L928.557 1188.19L931.711 1185.87L929.392 1182.72L932.546 1180.4L930.228 1177.24L933.382 1174.93L928.977 1168.93L913.208 1180.53L901.616 1164.76L898.462 1167.07L896.144 1163.92L892.99 1166.24L890.672 1163.08L887.518 1165.4L885.2 1162.25L819.284 1210.7L821.602 1213.86L815.294 1218.49L817.613 1221.65L804.682 1231.15L802.364 1228L796.056 1232.63L793.738 1229.48L790.584 1231.8L788.266 1228.65L785.112 1230.96L782.793 1227.81L779.639 1230.13L777.321 1226.97L774.167 1229.29L771.849 1226.14L762.387 1233.09L760.069 1229.94L757.231 1232.03L759.549 1235.18L756.395 1237.5L758.713 1240.65L755.559 1242.97L757.878 1246.12L754.724 1248.44L757.042 1251.6L753.573 1254.15L751.255 1250.99L748.101 1253.31L741.146 1243.85L738.307 1245.94L740.626 1249.09L737.472 1251.41L739.79 1254.56L736.636 1256.88L738.955 1260.03L735.485 1262.58L733.167 1259.43L730.013 1261.75L727.695 1258.59L721.387 1263.23L719.069 1260.08L709.923 1266.8L712.241 1269.95L708.772 1272.5L706.454 1269.35L703.3 1271.67L700.981 1268.52L688.681 1277.56L691 1280.71L684.377 1285.58L682.058 1282.43L660.297 1298.42L662.615 1301.58L659.461 1303.89L661.779 1307.05L648.849 1316.55L634.939 1297.63L631.785 1299.95L629.467 1296.79L626.313 1299.11L623.994 1295.96L620.841 1298.28L615.972 1291.65L619.126 1289.34L617.039 1286.5L613.886 1288.82L611.567 1285.66L608.413 1287.98L606.095 1284.83L602.941 1287.14L600.623 1283.99L594.63 1288.4L596.949 1291.55L593.795 1293.87L596.113 1297.02L592.644 1299.57L590.326 1296.42L587.172 1298.74L584.854 1295.58L581.7 1297.9L579.381 1294.75L576.228 1297.06L573.909 1293.91L570.755 1296.23L568.437 1293.08L565.283 1295.39L562.965 1292.24L559.811 1294.56L557.493 1291.4L554.339 1293.72L552.021 1290.57L548.867 1292.89L546.548 1289.73L543.395 1292.05L541.076 1288.9L537.922 1291.22L535.604 1288.06L516.681 1301.97L514.363 1298.82L511.209 1301.14L508.89 1297.98L505.737 1300.3L503.418 1297.15L500.264 1299.47L495.396 1292.84L514.319 1278.93L512.001 1275.78L515.155 1273.46L512.836 1270.31L515.99 1267.99L513.672 1264.83L516.826 1262.52L514.507 1259.36L517.661 1257.04L513.025 1250.74L516.178 1248.42L513.86 1245.26L517.014 1242.95L514.696 1239.79L530.465 1228.2L528.147 1225.05L531.301 1222.73L528.982 1219.57L532.136 1217.26L529.818 1214.1L532.972 1211.78L530.653 1208.63L533.807 1206.31L531.489 1203.16L534.643 1200.84L532.324 1197.69L535.478 1195.37L533.16 1192.21L536.314 1189.89L533.995 1186.74L559.226 1168.19L556.908 1165.04L560.062 1162.72L557.743 1159.57L560.897 1157.25L558.579 1154.1L561.733 1151.78L559.415 1148.62L562.568 1146.31L560.25 1143.15L563.404 1140.83L561.086 1137.68L564.555 1135.13L566.873 1138.28L570.027 1135.97L572.345 1139.12L606.722 1113.85L604.404 1110.7L607.558 1108.38L605.24 1105.22L608.393 1102.9L606.075 1099.75L609.229 1097.43L606.911 1094.28L610.065 1091.96L607.746 1088.81L610.9 1086.49L608.582 1083.33L611.736 1081.02L609.417 1077.86L659.879 1040.77L657.561 1037.62L660.715 1035.3L658.396 1032.14L661.55 1029.82L659.232 1026.67L662.386 1024.35L660.067 1021.2L663.221 1018.88L660.903 1015.73L664.057 1013.41L661.738 1010.25L664.892 1007.94L662.574 1004.78L665.728 1002.46L663.641 999.626L662.482 998.049L665.951 995.499L661.315 989.191L664.469 986.873L665.628 988.45L670.359 984.972L668.04 981.818L666.881 980.241L670.035 977.923L671.194 979.5L679.079 973.704L669.806 961.089L672.959 958.77L676.113 956.452L673.795 953.298L675.372 952.139L673.054 948.985L677.784 945.508L682.421 951.815L685.575 949.497L679.779 941.612L682.933 939.294L680.615 936.14L683.768 933.822L687.246 938.553L699.861 929.279L704.498 935.587L707.652 933.269L706.493 931.692L709.647 929.374L722.397 946.72L736.59 936.287L734.271 933.134L742.156 927.338L746.793 933.645L756.254 926.691L753.936 923.537L757.09 921.218L759.408 924.372L765.716 919.736L768.034 922.889L771.188 920.571L773.274 923.41L776.428 921.091L794.975 946.322L798.129 944.004L800.447 947.158L803.601 944.839L805.919 947.993L809.073 945.675L811.391 948.829L814.545 946.51L835.41 974.895L838.564 972.577L840.882 975.731L844.036 973.412L846.354 976.566L849.508 974.248L851.826 977.402L854.665 975.315L852.347 972.161L855.501 969.843L848.546 960.381L851.699 958.063L849.381 954.909L852.535 952.591L850.217 949.437L853.371 947.119L851.052 943.965L854.206 941.647L851.888 938.493L855.042 936.175L852.723 933.021L855.877 930.702L853.559 927.548L856.713 925.23L854.394 922.076L857.548 919.758L855.23 916.604L858.384 914.286L856.065 911.132L859.219 908.814L856.901 905.66L860.055 903.341L857.737 900.188L860.89 897.869L858.572 894.715L880.649 878.487L878.331 875.333L881.485 873.015L869.893 857.246L873.047 854.927L870.729 851.774L873.882 849.455L871.564 846.301L881.026 839.346L878.707 836.193L881.861 833.874L870.27 818.105L873.424 815.787L871.105 812.633L874.259 810.315L871.941 807.161L881.402 800.206L879.084 797.052L882.238 794.734L879.92 791.58L889.381 784.625L887.063 781.471L890.217 779.153L887.898 775.999L891.052 773.68L884.097 764.219L887.251 761.9L884.933 758.747L888.087 756.428L885.768 753.274L888.922 750.956L877.331 735.187L880.484 732.869L878.166 729.715L897.089 715.805L894.771 712.651L897.925 710.333L895.607 707.179L905.068 700.224L902.75 697.07L905.904 694.752L903.585 691.598L906.739 689.279L904.421 686.126L907.575 683.807L898.301 671.192L901.455 668.874L899.137 665.72L902.291 663.401L899.973 660.248L903.126 657.929L900.808 654.775L903.962 652.457L901.644 649.303L904.797 646.985L895.756 634.685L892.602 637.003L890.284 633.849L887.13 636.168L884.812 633.014L881.658 635.332L879.108 631.863L882.262 629.545L879.943 626.391L883.097 624.072L880.779 620.918L883.933 618.6L881.614 615.446L884.768 613.128L882.45 609.974L891.911 603.019L875.683 580.942L878.837 578.624L876.519 575.47L879.673 573.152L877.354 569.998L880.508 567.68L878.19 564.526L881.344 562.207L869.752 546.438L872.906 544.12L870.588 540.966L873.742 538.648L871.423 535.494L874.577 533.175L823.574 463.791L826.728 461.472L820.005 452.326L816.851 454.644L809.896 445.183L806.742 447.501L804.424 444.347L801.27 446.666L798.952 443.512L795.798 445.83L793.48 442.676L790.641 444.763L792.959 447.917L789.806 450.235L792.124 453.389L788.97 455.707L791.288 458.861L788.134 461.179L790.453 464.333L787.299 466.651L789.617 469.805L786.463 472.124L788.782 475.277L785.628 477.596L787.946 480.75L784.477 483.3L782.159 480.146L779.005 482.464L776.686 479.31L773.533 481.629L771.214 478.475L768.06 480.793L765.742 477.639L762.588 479.958L760.27 476.804L757.116 479.122L754.798 475.968L751.644 478.287L742.371 465.671L739.217 467.989L736.898 464.836L733.745 467.154L721.921 451.069L725.075 448.751L722.757 445.597L725.911 443.279L723.592 440.125L726.746 437.807L724.428 434.653L727.582 432.334L725.263 429.181L731.571 424.544L729.253 421.39L732.407 419.072L728.002 413.079L724.848 415.398L722.298 411.928L725.452 409.61L723.133 406.456L726.287 404.138L723.969 400.984L727.123 398.666L724.804 395.512L727.958 393.194L725.64 390.04L728.794 387.722L726.476 384.568L729.945 382.018L732.263 385.171L750.871 371.493L748.553 368.339L751.706 366.021L749.388 362.867L752.542 360.549L750.224 357.395L753.378 355.077L751.059 351.923L754.213 349.605L751.895 346.451L755.049 344.132L745.775 331.517L748.929 329.199L746.611 326.045L749.765 323.727L747.446 320.573L750.6 318.254L748.282 315.101L751.436 312.782L749.118 309.628L752.271 307.31L749.953 304.156L753.107 301.838L750.789 298.684L753.942 296.366L744.901 284.065L748.055 281.747L745.737 278.593L749.206 276.043L751.524 279.197L754.678 276.879L763.951 289.494L767.105 287.176L769.423 290.33L778.885 283.375L783.521 289.682L786.675 287.364L788.994 290.518L795.301 285.881L797.62 289.035L800.774 286.717L803.092 289.871L806.246 287.553L808.796 291.022L805.327 293.572L803.008 290.418L799.854 292.736L797.536 289.582L791.544 293.987L793.63 296.826L796.784 294.507L799.102 297.661L802.256 295.343L804.575 298.497L807.728 296.179L810.047 299.332L812.885 297.246L810.567 294.092L813.721 291.774L809.084 285.466L812.238 283.148L809.92 279.994L813.389 277.444L815.707 280.598L818.861 278.279L828.134 290.895L831.288 288.576L833.607 291.73L836.76 289.412L839.079 292.566L842.233 290.247L849.419 300.024L845.95 302.574L843.632 299.421L840.478 301.739L840.246 301.424L838.16 298.585L835.321 300.672L835.006 300.903L834.774 300.588L832.688 297.75L829.849 299.836L829.534 300.068L829.302 299.753L827.215 296.914L824.377 299.001L826.463 301.839L833.418 311.301L836.572 308.982L838.89 312.136L845.198 307.5L854.471 320.115L857.625 317.797L860.175 321.266L857.022 323.584L861.426 329.577L864.58 327.258L866.667 330.097L869.821 327.778L874.457 334.086L877.611 331.768L882.248 338.076L885.086 335.989L882.768 332.835L889.391 327.967L898.664 340.582L901.818 338.264L904.136 341.418L910.444 336.781L912.994 340.25L906.687 344.887L913.41 354.033L916.564 351.715L919.114 355.184L915.96 357.502L922.915 366.964L919.761 369.282L921.847 372.121L925.001 369.802L927.32 372.956L930.473 370.638L932.792 373.792L935.946 371.474L938.496 374.943L935.342 377.261L939.747 383.253L942.901 380.935L945.219 384.089L948.373 381.771L950.691 384.925L953.845 382.606L956.163 385.76L959.317 383.442L961.635 386.596L964.789 384.277L967.108 387.431L970.261 385.113L972.58 388.267L975.418 386.18L973.1 383.026L976.569 380.476L978.887 383.63L982.041 381.312L984.36 384.466L987.513 382.147L990.064 385.616L986.91 387.935L988.996 390.773L992.15 388.455L994.468 391.609L1000.46 387.204L998.142 384.05L1001.3 381.732L998.978 378.578L1002.13 376.26L999.814 373.106L1003.28 370.556L1005.6 373.71L1008.75 371.391L1013.62 378.014L1010.47 380.333L1012.79 383.486L1009.63 385.805L1011.72 388.643L1014.87 386.325L1017.19 389.479L1020.35 387.161L1022.66 390.314L1025.82 387.996L1028.14 391.15L1031.29 388.832L1033.61 391.985L1036.45 389.899L1034.13 386.745L1037.6 384.195L1039.92 387.349L1043.07 385.03L1045.39 388.184L1048.54 385.866L1055.5 395.328L1058.65 393.009L1060.97 396.163L1070.43 389.208L1072.75 392.362L1075.9 390.044L1078.22 393.198L1081.38 390.879L1083.93 394.348L1080.77 396.667L1092.13 412.121L1095.29 409.802L1100.15 416.425L1096.69 418.976L1094.37 415.822L1088.37 420.227L1090.69 423.38L1087.54 425.699L1089.63 428.537L1092.78 426.219L1095.33 429.688L1092.18 432.006L1096.58 437.999L1099.73 435.68L1102.05 438.834L1104.89 436.748L1102.57 433.594L1105.73 431.276L1103.41 428.122L1106.88 425.572L1109.2 428.726L1112.35 426.407L1114.67 429.561L1117.82 427.243L1120.37 430.712L1117.22 433.03L1121.62 439.023L1124.46 436.936L1122.14 433.782L1125.3 431.464L1122.98 428.31L1139.06 416.487L1141.38 419.641L1144.54 417.322L1146.85 420.476L1149.69 418.39L1147.37 415.236L1154 410.367L1156.32 413.521L1159.15 411.435L1154.52 405.127L1167.13 395.854L1164.81 392.7L1167.97 390.381L1165.65 387.228L1168.8 384.909L1166.49 381.755L1169.95 379.205L1172.27 382.359L1178.27 377.954L1168.99 365.339L1172.46 362.789L1174.78 365.943L1187.08 356.901L1184.76 353.747L1187.92 351.429L1185.6 348.275L1192.22 343.407L1197.09 350.03L1193.93 352.348L1200.66 361.494L1203.81 359.176L1206.13 362.33L1208.97 360.243L1206.65 357.09L1209.8 354.771L1207.49 351.617L1210.64 349.299L1206.23 343.307L1203.08 345.625L1200.76 342.471L1197.61 344.789L1192.74 338.166L1195.89 335.848L1193.58 332.694L1196.73 330.376L1194.64 327.537L1191.49 329.856L1188.94 326.386L1192.09 324.068L1189.77 320.914L1192.93 318.596L1190.61 315.442L1193.76 313.124L1191.45 309.97L1204.06 300.697L1201.74 297.543L1205.21 294.993L1207.53 298.147L1210.37 296.06L1208.05 292.906L1224.13 281.083L1226.45 284.237L1229.61 281.918L1231.93 285.072L1238.23 280.436L1240.55 283.589L1243.71 281.271L1248.34 287.579L1251.5 285.261L1254.05 288.73L1250.89 291.048L1253.21 294.202L1250.06 296.52L1252.14 299.359L1258.14 294.954L1255.82 291.8L1259.29 289.25L1261.6 292.404L1264.76 290.086L1271.95 299.862L1268.48 302.413L1262.48 306.817L1267.12 313.125L1260.81 317.762L1263.13 320.916L1253.35 328.102L1251.04 324.948L1247.88 327.267L1245.56 324.113L1233.26 333.154L1235.58 336.308L1232.43 338.627L1234.75 341.78L1231.59 344.099L1233.91 347.253L1230.76 349.571L1235.39 355.879L1232.24 358.197L1238.96 367.343L1248.42 360.388L1250.74 363.542L1253.9 361.224L1256.45 364.693L1253.29 367.011L1255.61 370.165L1252.46 372.484L1254.54 375.322L1263.69 368.599L1261.37 365.445L1264.53 363.127L1262.44 360.288L1259.29 362.606L1254.42 355.983L1257.57 353.665L1255.25 350.511L1258.41 348.193L1256.09 345.039L1259.24 342.721L1256.92 339.567L1260.08 337.249L1257.76 334.095L1261.23 331.545L1263.78 335.014L1260.62 337.332L1262.71 340.171L1265.86 337.852L1268.18 341.006L1277.33 334.283L1275.01 331.129L1278.16 328.811L1275.85 325.657L1282.15 321.02L1279.84 317.866L1302.23 301.406L1304.55 304.56L1307.7 302.242L1312.57 308.865L1309.41 311.183L1311.73 314.337L1308.58 316.656L1310.67 319.494L1320.13 312.539L1322.68 316.008L1319.52 318.327L1321.84 321.481L1318.69 323.799L1320.77 326.637L1326.77 322.232L1324.45 319.079L1327.92 316.529L1330.24 319.682L1333.07 317.596L1330.76 314.442L1333.91 312.124L1331.59 308.97L1338.22 304.101L1340.53 307.255L1343.69 304.937L1353.19 317.868L1350.04 320.186L1354.68 326.494L1348.37 331.13L1350.45 333.969L1353.61 331.651L1358.48 338.274L1355.32 340.592L1357.64 343.746L1351.33 348.382L1353.65 351.536L1350.5 353.855L1354.9 359.847L1358.06 357.529L1360.37 360.683L1363.53 358.364L1365.85 361.518L1381.62 349.927L1384.17 353.396L1381.01 355.714L1383.33 358.868L1380.18 361.186L1382.49 364.34L1379.34 366.658L1381.66 369.812L1378.51 372.131L1380.82 375.284L1377.67 377.603L1389.26 393.372L1386.11 395.69L1388.43 398.844L1385.27 401.163L1387.59 404.316L1384.44 406.635L1386.75 409.789L1383.6 412.107L1385.92 415.261L1382.77 417.579L1385.08 420.733L1381.93 423.051L1384.25 426.205L1381.09 428.523L1383.41 431.677L1380.26 433.996L1382.58 437.149L1379.42 439.468L1381.74 442.622L1369.13 451.895L1371.44 455.049L1368.29 457.367L1370.61 460.521L1367.46 462.839L1369.77 465.993L1354 477.585L1356.32 480.738L1353.17 483.057L1355.49 486.211L1352.33 488.529L1354.65 491.683L1351.5 494.001L1358.45 503.463L1355.3 505.781L1357.62 508.935L1354.46 511.253L1356.78 514.407L1353.63 516.725L1355.95 519.879L1352.48 522.429L1350.16 519.275L1347 521.594L1344.69 518.44L1341.53 520.758L1339.21 517.604L1336.06 519.923L1333.74 516.769L1330.59 519.087L1328.27 515.933L1325.43 518.02L1327.75 521.174L1324.6 523.492L1326.91 526.646L1323.76 528.964L1326.08 532.118L1322.92 534.436L1325.24 537.59L1322.09 539.909L1324.41 543.062L1320.94 545.612L1318.62 542.459L1312.63 546.863L1326.54 565.787L1323.38 568.105L1325.7 571.259L1322.23 573.809L1319.91 570.655L1317.08 572.742L1319.39 575.895L1316.24 578.214L1318.56 581.368L1315.4 583.686L1317.72 586.84L1314.57 589.158L1316.89 592.312L1313.73 594.63L1318.14 600.623L1321.29 598.304L1323.61 601.458L1326.76 599.14L1329.08 602.294L1332.24 599.975L1334.55 603.129L1337.71 600.811L1340.03 603.965L1343.18 601.646L1352.69 614.577L1349.53 616.896L1351.85 620.049L1348.7 622.368L1353.33 628.675L1350.18 630.994L1356.9 640.14L1360.06 637.822L1362.37 640.975L1365.53 638.657L1368.08 642.126L1364.92 644.445L1367.24 647.599L1364.09 649.917L1366.41 653.071L1363.25 655.389L1365.57 658.543L1352.96 667.816L1355.27 670.97L1352.12 673.288L1354.44 676.442L1351.29 678.761L1353.6 681.914L1346.98 686.783L1344.66 683.629L1338.35 688.266L1336.04 685.112L1329.73 689.748L1327.41 686.594L1318.26 693.318L1320.58 696.472L1313.96 701.34L1311.64 698.186L1308.49 700.504L1306.17 697.351L1297.02 704.074L1299.34 707.228L1296.19 709.546L1298.51 712.7L1295.35 715.018L1297.44 717.857L1300.59 715.538L1302.91 718.692L1306.06 716.374L1308.38 719.528L1311.54 717.209L1313.85 720.363L1317.01 718.045L1319.33 721.199L1322.48 718.88L1327.12 725.188L1330.27 722.87L1334.91 729.177L1338.06 726.859L1345.25 736.636L1342.09 738.954L1348.82 748.101L1351.97 745.782L1354.29 748.936L1357.44 746.618L1359.76 749.772L1362.92 747.453L1365.23 750.607L1368.39 748.289L1370.71 751.443L1373.86 749.124L1376.18 752.278L1379.33 749.96L1381.65 753.114L1384.8 750.796L1387.12 753.949L1390.28 751.631L1392.6 754.785L1398.9 750.148L1401.22 753.302L1404.37 750.984L1409.24 757.607L1406.09 759.925L1408.41 763.079L1405.25 765.397L1409.89 771.705L1406.74 774.023L1409.06 777.177L1405.9 779.496L1408.22 782.65L1405.07 784.968L1407.38 788.122L1400.76 792.99L1398.44 789.836L1395.29 792.155L1392.97 789.001L1380.67 798.042L1396.9 820.119L1390.28 824.988L1387.96 821.834L1384.8 824.152L1382.49 820.998L1379.33 823.317L1377.01 820.163L1373.86 822.481L1371.54 819.327L1368.39 821.645L1366.07 818.492L1362.91 820.81L1360.6 817.656L1357.44 819.974L1355.12 816.82L1351.97 819.139L1349.65 815.985L1346.81 818.071L1349.13 821.225L1345.98 823.544L1348.3 826.698L1345.14 829.016L1349.55 835.008L1352.7 832.69L1355.02 835.844L1358.17 833.525L1365.13 842.987L1368.28 840.669L1370.6 843.822L1373.75 841.504L1376.07 844.658L1379.23 842.34L1381.78 845.809L1378.62 848.127L1380.94 851.281L1377.79 853.599L1380.11 856.753L1376.95 859.072L1379.27 862.225L1376.12 864.544L1378.43 867.698L1375.28 870.016L1377.6 873.17L1374.44 875.488L1376.76 878.642L1373.61 880.96L1375.93 884.114L1372.77 886.432L1375.09 889.586L1371.94 891.905L1374.26 895.059L1371.1 897.377L1373.42 900.531L1370.27 902.849L1372.59 906.003L1359.97 915.276L1362.29 918.43L1359.13 920.748L1361.45 923.902L1358.3 926.22L1360.39 929.059L1363.54 926.741L1370.49 936.202L1383.11 926.929L1385.43 930.083L1388.58 927.764L1390.9 930.918L1394.05 928.6L1396.37 931.754L1402.68 927.117L1405 930.271L1408.15 927.953L1410.47 931.107L1423.09 921.833L1425.4 924.987L1428.56 922.669L1433.43 929.292L1430.27 931.61L1432.59 934.764L1429.44 937.083L1431.76 940.236L1400.22 963.42L1402.54 966.573L1399.38 968.892L1415.61 990.969L1412.46 993.287L1414.77 996.441L1411.62 998.759L1413.94 1001.91L1410.78 1004.23L1413.1 1007.39L1409.95 1009.7L1412.27 1012.86L1409.11 1015.18L1411.43 1018.33L1408.28 1020.65L1410.6 1023.8L1407.44 1026.12L1409.76 1029.27L1406.61 1031.59L1408.93 1034.75L1405.77 1037.06L1408.09 1040.22L1404.94 1042.54L1407.25 1045.69L1404.1 1048.01L1406.42 1051.16L1403.26 1053.48L1405.58 1056.63L1402.43 1058.95L1423.06 1087.02L1426.22 1084.7L1428.53 1087.86L1431.69 1085.54L1459.74 1123.7L1456.59 1126.02L1458.9 1129.17L1455.75 1131.49L1458.07 1134.65L1454.92 1136.96L1457.23 1140.12L1444.3 1149.62L1441.98 1146.47L1438.83 1148.79L1436.51 1145.63L1433.36 1147.95L1417.13 1125.87L1413.98 1128.19L1411.66 1125.04L1408.5 1127.36L1401.55 1117.9L1398.4 1120.21L1396.08 1117.06L1392.92 1119.38L1381.33 1103.61L1378.18 1105.93L1375.86 1102.77L1372.71 1105.09L1368.07 1098.78L1365.23 1100.87L1367.55 1104.02L1364.39 1106.34L1371.35 1115.8L1368.2 1118.12L1370.51 1121.28L1367.36 1123.6L1395.18 1161.44L1392.03 1163.76L1394.34 1166.91L1391.19 1169.23L1405.1 1188.16L1401.95 1190.47Z" fill="#298882"/>
<path d="M244.445 791.11L216.806 799.557L213.09 787.396L205.351 789.761L209.067 801.923L203.54 803.612L206.58 813.562L198.842 815.927L195.801 805.977L186.956 808.68L188.308 813.103L183.885 814.454L180.169 802.293L172.43 804.658L174.795 812.397L161.528 816.452L160.177 812.029L150.227 815.07L151.578 819.493L144.945 821.52L147.986 831.47L144.669 832.484L146.696 839.117L136.746 842.158L138.774 848.791L133.246 850.481L134.597 854.903L140.125 853.214L153.392 849.159L157.447 862.426L149.708 864.791L153.086 875.846L133.186 881.928L134.876 887.456L124.926 890.497L127.629 899.342L118.784 902.045L117.095 896.517L111.567 898.206L123.055 935.795L117.527 937.485L120.906 948.54L117.59 949.554L124.009 970.56L138.382 966.167L141.76 977.223L136.233 978.912L138.598 986.651L156.287 981.245L160.004 993.406L166.637 991.379L169.002 999.118L164.58 1000.47L163.228 996.047L148.856 1000.44L153.586 1015.92L156.903 1014.9L159.606 1023.75L156.289 1024.76L154.938 1020.34L149.41 1022.03L151.437 1028.66L145.91 1030.35L147.261 1034.77L158.317 1031.4L160.682 1039.13L155.154 1040.82L154.141 1037.51L148.613 1039.2L150.64 1045.83L142.901 1048.19L145.266 1055.93L188.383 1042.76L190.073 1048.28L198.917 1045.58L202.972 1058.85L208.499 1057.16L211.54 1067.11L219.279 1064.74L223.334 1078.01L220.017 1079.02L223.058 1088.97L236.325 1084.92L237.339 1088.24L257.239 1082.15L254.874 1074.41L267.035 1070.7L268.386 1075.12L272.809 1073.77L269.768 1063.82L274.19 1062.47L275.879 1068L279.196 1066.98L276.155 1057.03L280.577 1055.68L277.874 1046.84L283.402 1045.15L278.672 1029.67L268.721 1032.71L267.708 1029.39L272.13 1028.04L270.779 1023.62L276.306 1021.93L270.224 1002.03L277.963 999.664L279.991 1006.3L287.73 1003.93L282.999 988.454L295.16 984.738L296.512 989.16L311.99 984.429L310.638 980.007L318.377 977.642L323.108 993.12L340.796 987.714L338.769 981.08L349.825 977.701L347.122 968.857L354.861 966.492L345.738 936.642L341.316 937.993L337.599 925.832L345.338 923.467L339.594 904.672L347.333 902.307L341.926 884.618L347.454 882.929L345.089 875.19L338.456 877.217L336.428 870.584L318.739 875.99L317.726 872.673L321.042 871.66L315.636 853.971L320.059 852.619L316.004 839.352L314.99 836.036L290.668 843.469L286.951 831.308L274.79 835.025L270.735 821.758L255.258 826.488L244.445 791.11Z" fill="#298882"/>
<path d="M601.032 549.91L628.342 540.452L632.503 552.469L640.15 549.821L638.821 545.983L644.283 544.091L641.451 535.913L653.467 531.752L641.362 496.795L633.715 499.443L631.964 494.386L643.98 490.225L631.356 453.771L637.014 451.811L634.258 443.853L655.047 436.654L651.75 427.134L656.983 425.322L654.717 418.778L645.232 422.062L642.941 415.448L654.753 411.357L651.972 403.325L649.644 404.131L644.877 390.366L654.709 386.961L652.604 380.883L686.468 369.156L677.981 344.647L671.427 346.917L668.779 339.27L673.148 337.757L674.661 342.126L688.863 337.208L683.566 321.915L680.289 323.05L677.263 314.311L680.54 313.176L682.053 317.545L687.515 315.654L685.245 309.099L690.707 307.208L689.194 302.838L678.27 306.621L675.622 298.975L681.084 297.083L682.219 300.36L687.681 298.469L685.411 291.914L693.058 289.266L690.41 281.62L647.807 296.373L645.915 290.911L637.176 293.937L632.637 280.829L627.175 282.72L623.77 272.889L616.123 275.537L611.584 262.428L614.861 261.293L611.456 251.461L598.348 256.001L597.213 252.724L577.55 259.533L580.198 267.18L568.181 271.341L566.668 266.971L562.299 268.485L565.703 278.316L561.334 279.829L559.442 274.367L556.165 275.502L559.57 285.334L555.2 286.847L558.226 295.586L552.764 297.478L558.06 312.771L567.892 309.366L569.027 312.644L564.657 314.157L566.17 318.526L560.708 320.418L567.518 340.081L559.871 342.729L557.601 336.175L549.954 338.823L555.251 354.116L543.234 358.277L541.721 353.908L526.428 359.204L527.941 363.574L520.294 366.222L514.998 350.928L497.52 356.981L499.789 363.535L488.865 367.318L491.892 376.057L484.245 378.705L494.459 408.2L498.828 406.687L502.99 418.703L495.343 421.351L501.774 439.922L494.127 442.57L500.18 460.048L494.718 461.94L497.366 469.586L503.92 467.317L506.19 473.871L523.668 467.818L524.803 471.095L521.526 472.23L527.579 489.709L523.209 491.222L527.748 504.331L528.883 507.608L552.916 499.285L557.077 511.302L569.094 507.14L573.633 520.249L588.927 514.953L601.032 549.91Z" fill="#298882"/>
<path d="M1662.43 495.264H1646.25V480H1633.37V490.5L1603.87 490.5H1596.37V495.264H1598.85V500.615H1586.14V539.193H1580.15V547.615H1558.15V557.69H1552.61V564.615H1562.65V571.615H1550.15V580.115H1552.61V594.683H1542.21V601.115H1506.37V627.052H1513.31V635.145H1508.68V630.52H1493.65V646.705H1497.12V655.953H1493.65V651.329H1487.87V658.265H1482.09V662.89H1493.65V670.982H1487.87V667.514H1482.09V674.45H1474V682.542H1519.09V688.322H1528.33V702.195H1534.11V712.599H1542.21V726.472H1538.74V736.876H1552.61V740.344H1573.42V732.252H1586.14V736.876H1590.76V726.472H1595.38V732.252H1598.85V721.848H1603.48V712.599H1609.26V696.415H1598.85V692.947H1603.48V688.322H1609.26V667.514H1617.35V674.45H1625.44V658.265H1638.16V662.89H1654.34V658.265H1662.43V674.45H1680.93V667.514H1692.49V658.265H1700.58V627.052H1695.96V614.336H1704.05V594.683H1712.14V576.187H1717.92V568.094H1710.99V561.158H1692.49V557.69H1695.96V539.193H1700.58V525.321V521.853H1675.15V509.136H1662.43V495.264Z" fill="#298882"/>
<path d="M1496.39 1307.76L1506.57 1299.14L1510.36 1303.62L1513.22 1301.2L1509.42 1296.72L1511.46 1295L1508.36 1291.33L1511.21 1288.92L1514.31 1292.59L1517.57 1289.83L1516.19 1288.2L1517.82 1286.82L1521.61 1291.3L1524.46 1288.89L1522.05 1286.03L1526.94 1281.9L1528.32 1283.53L1531.98 1280.42L1530.6 1278.79L1533.05 1276.72L1529.94 1273.06L1531.16 1272.02L1529.1 1269.58L1532.76 1266.48L1530.69 1264.03L1532.73 1262.31L1531.35 1260.68L1529.31 1262.4L1524.43 1266.54L1520.29 1261.65L1523.14 1259.24L1519.69 1255.17L1527.02 1248.96L1525.3 1246.92L1528.96 1243.82L1526.2 1240.56L1529.46 1237.8L1531.19 1239.84L1533.22 1238.12L1521.5 1224.27L1523.54 1222.54L1520.09 1218.47L1521.31 1217.44L1514.76 1209.7L1509.46 1214.18L1506.01 1210.11L1508.05 1208.38L1505.64 1205.53L1499.12 1211.05L1495.33 1206.57L1492.88 1208.64L1490.47 1205.79L1492.1 1204.41L1493.48 1206.04L1498.77 1201.56L1493.95 1195.85L1492.72 1196.89L1489.97 1193.63L1491.19 1192.59L1492.57 1194.22L1494.6 1192.5L1492.53 1190.06L1494.57 1188.33L1493.19 1186.7L1489.12 1190.15L1486.7 1187.3L1488.74 1185.58L1489.78 1186.8L1491.81 1185.07L1489.74 1182.63L1492.59 1180.22L1490.18 1177.37L1474.3 1190.81L1472.57 1188.78L1469.31 1191.54L1465.18 1186.65L1463.14 1188.37L1460.04 1184.71L1457.18 1187.12L1453.05 1182.23L1454.27 1181.2L1451.17 1177.53L1446.28 1181.67L1445.24 1180.45L1437.91 1186.66L1440.33 1189.51L1435.85 1193.3L1434.47 1191.67L1432.84 1193.05L1435.94 1196.72L1434.31 1198.09L1432.59 1196.06L1431.37 1197.09L1434.47 1200.76L1432.84 1202.14L1435.6 1205.4L1433.56 1207.12L1438.39 1212.82L1442.05 1209.72L1443.09 1210.94L1441.46 1212.32L1442.84 1213.95L1440.8 1215.67L1447.01 1223L1444.16 1225.42L1442.09 1222.97L1439.24 1225.39L1444.07 1231.09L1439.59 1234.88L1438.21 1233.25L1432.5 1238.08L1433.88 1239.71L1431.03 1242.12L1426.21 1236.42L1419.69 1241.94L1421.76 1244.38L1417.68 1247.83L1420.44 1251.09L1417.59 1253.5L1426.9 1264.5L1428.53 1263.12L1432.32 1267.6L1429.47 1270.02L1435.34 1276.94L1432.48 1279.35L1438 1285.87L1435.97 1287.59L1438.38 1290.45L1440.82 1288.38L1442.89 1290.82L1449.41 1285.3L1450.44 1286.52L1449.22 1287.56L1454.74 1294.08L1453.11 1295.46L1457.25 1300.34L1458.28 1301.56L1467.24 1293.98L1471.03 1298.46L1475.51 1294.67L1479.65 1299.55L1485.35 1294.73L1496.39 1307.76Z" fill="#298882"/>
<path d="M1230.63 1382.85L1227.76 1387.52L1225.69 1386.25L1224.89 1387.56L1226.96 1388.83L1226.39 1389.76L1228.09 1390.8L1227.29 1392.11L1225.59 1391.07L1224.67 1392.57L1225.43 1393.03L1224.97 1393.77L1222.9 1392.5L1222.1 1393.81L1223.42 1394.62L1222.04 1396.86L1221.29 1396.4L1220.26 1398.08L1221.01 1398.54L1220.33 1399.66L1222.02 1400.7L1221.68 1401.26L1222.81 1401.96L1221.78 1403.64L1222.91 1404.33L1222.34 1405.26L1223.09 1405.72L1223.66 1404.79L1225.03 1402.55L1227.3 1403.93L1226.49 1405.24L1228.38 1406.4L1226.32 1409.76L1227.26 1410.34L1226.23 1412.02L1227.74 1412.94L1226.82 1414.43L1225.88 1413.86L1225.31 1414.79L1231.71 1418.71L1231.14 1419.65L1233.02 1420.8L1232.68 1421.36L1231.72 1422.93L1233.82 1424.22L1234.78 1422.65L1237.08 1424.06L1240.77 1418.03L1243.15 1419.49L1244.95 1416.55L1247.03 1417.82L1247.83 1416.51L1254.42 1420.55L1257.05 1416.26L1255.54 1415.33L1257.26 1412.53L1255.95 1411.73L1257.67 1408.93L1263.88 1412.73L1264.45 1411.79L1261.06 1409.72L1261.86 1408.41L1262.99 1409.1L1263.79 1407.79L1261.15 1406.18L1262.41 1404.12L1263.17 1404.59L1264.77 1401.97L1264.01 1401.51L1264.82 1400.2L1267.45 1401.82L1269.28 1398.83L1268.15 1398.14L1269.3 1396.27L1267.79 1395.34L1268.59 1394.04L1263.51 1390.92L1263.05 1391.67L1260.98 1390.4L1261.78 1389.09L1258.58 1387.13L1259.38 1385.82L1256.36 1383.97L1256.94 1383.04L1255.62 1382.23L1254.93 1383.35L1253.8 1382.66L1251.97 1385.65L1251.4 1385.3L1251.75 1384.74L1248.73 1382.9L1249.19 1382.15L1246.93 1380.76L1246.37 1380.42L1243.85 1384.53L1241.78 1383.26L1240.52 1385.31L1238.26 1383.93L1236.65 1386.54L1230.63 1382.85Z" fill="#298882"/>
<path d="M190.626 703.851L187.765 708.521L185.693 707.252L184.891 708.56L186.963 709.829L186.391 710.763L188.087 711.802L187.285 713.109L185.59 712.071L184.674 713.565L185.428 714.027L184.97 714.774L182.898 713.505L182.097 714.812L183.416 715.62L182.042 717.862L181.289 717.4L180.259 719.081L181.012 719.543L180.325 720.664L182.021 721.702L181.677 722.263L182.808 722.955L181.778 724.637L182.908 725.329L182.335 726.263L183.089 726.725L183.661 725.791L185.035 723.549L187.295 724.934L186.494 726.242L188.378 727.396L186.317 730.758L187.259 731.335L186.229 733.016L187.736 733.94L186.821 735.434L185.879 734.857L185.307 735.791L191.711 739.715L191.139 740.649L193.023 741.803L192.679 742.363L191.721 743.928L193.823 745.216L194.781 743.651L197.078 745.058L200.771 739.031L203.153 740.49L204.954 737.551L207.026 738.821L207.827 737.513L214.42 741.552L217.051 737.258L215.544 736.334L217.262 733.53L215.952 732.728L217.669 729.925L223.877 733.729L224.449 732.795L221.058 730.718L221.859 729.41L222.99 730.102L223.791 728.795L221.154 727.179L222.413 725.124L223.166 725.586L224.768 722.97L224.015 722.509L224.816 721.201L227.453 722.817L229.284 719.828L228.154 719.136L229.299 717.267L227.792 716.344L228.593 715.037L223.507 711.921L223.049 712.668L220.977 711.398L221.778 710.091L218.576 708.129L219.377 706.821L216.363 704.975L216.935 704.041L215.617 703.233L214.93 704.354L213.8 703.661L211.969 706.65L211.404 706.304L211.747 705.743L208.733 703.897L209.191 703.15L206.93 701.765L206.365 701.419L203.847 705.528L201.775 704.259L200.516 706.314L198.256 704.929L196.654 707.544L190.626 703.851Z" fill="#298882"/>
<path d="M1932.75 252.677L1922.58 269.276L1915.22 264.764L1912.37 269.411L1919.74 273.923L1917.7 277.243L1923.73 280.935L1920.88 285.582L1914.86 281.891L1911.6 287.202L1914.28 288.843L1912.65 291.499L1905.29 286.987L1902.44 291.635L1907.13 294.506L1902.25 302.473L1899.57 300.833L1895.91 306.808L1898.58 308.449L1896.14 312.433L1902.17 316.124L1900.95 318.116L1904.97 320.577L1901.31 326.553L1905.32 329.014L1903.29 332.334L1905.97 333.974L1908 330.655L1912.88 322.687L1920.92 327.609L1918.07 332.257L1924.76 336.359L1917.44 348.31L1920.79 350.361L1917.13 356.336L1922.48 359.618L1919.23 364.929L1915.88 362.878L1913.85 366.198L1936.61 380.144L1934.58 383.464L1941.27 387.566L1940.05 389.558L1936.65 395.119L1944.12 399.696L1947.52 394.135L1955.69 399.136L1968.81 377.712L1977.28 382.9L1983.68 372.454L1991.04 376.966L1993.89 372.319L2017.32 386.675L2026.68 371.411L2021.32 368.129L2027.43 358.163L2022.77 355.309L2028.87 345.35L2050.93 358.869L2052.97 355.549L2040.92 348.166L2043.76 343.518L2047.78 345.979L2050.63 341.331L2041.26 335.589L2045.73 328.285L2048.41 329.926L2054.1 320.631L2051.43 318.99L2054.27 314.342L2063.65 320.085L2070.15 309.462L2066.14 307.001L2070.21 300.361L2064.85 297.08L2067.7 292.432L2049.62 281.357L2047.99 284.013L2040.63 279.501L2043.48 274.853L2032.09 267.88L2034.94 263.233L2024.23 256.67L2026.26 253.35L2021.58 250.479L2019.14 254.463L2015.12 252.001L2008.61 262.625L2006.6 261.394L2007.82 259.402L1997.11 252.839L1998.74 250.184L1990.7 245.262L1988.7 244.031L1979.75 258.638L1972.38 254.126L1967.91 261.429L1959.87 256.507L1954.18 265.803L1932.75 252.677Z" fill="#298882"/>
<path d="M1725.63 769.851L1722.76 774.521L1720.69 773.252L1719.89 774.56L1721.96 775.829L1721.39 776.763L1723.09 777.802L1722.29 779.109L1720.59 778.071L1719.67 779.565L1720.43 780.027L1719.97 780.774L1717.9 779.505L1717.1 780.812L1718.42 781.62L1717.04 783.862L1716.29 783.4L1715.26 785.081L1716.01 785.543L1715.33 786.664L1717.02 787.702L1716.68 788.263L1717.81 788.955L1716.78 790.637L1717.91 791.329L1717.34 792.263L1718.09 792.725L1718.66 791.791L1720.03 789.549L1722.3 790.934L1721.49 792.242L1723.38 793.396L1721.32 796.758L1722.26 797.335L1721.23 799.016L1722.74 799.94L1721.82 801.434L1720.88 800.857L1720.31 801.791L1726.71 805.715L1726.14 806.649L1728.02 807.803L1727.68 808.363L1726.72 809.928L1728.82 811.216L1729.78 809.651L1732.08 811.058L1735.77 805.031L1738.15 806.49L1739.95 803.551L1742.03 804.821L1742.83 803.513L1749.42 807.552L1752.05 803.258L1750.54 802.334L1752.26 799.53L1750.95 798.728L1752.67 795.925L1758.88 799.729L1759.45 798.795L1756.06 796.718L1756.86 795.41L1757.99 796.102L1758.79 794.795L1756.15 793.179L1757.41 791.124L1758.17 791.586L1759.77 788.97L1759.01 788.509L1759.82 787.201L1762.45 788.817L1764.28 785.828L1763.15 785.136L1764.3 783.267L1762.79 782.344L1763.59 781.037L1758.51 777.921L1758.05 778.668L1755.98 777.398L1756.78 776.091L1753.58 774.129L1754.38 772.821L1751.36 770.975L1751.94 770.041L1750.62 769.233L1749.93 770.354L1748.8 769.661L1746.97 772.65L1746.4 772.304L1746.75 771.743L1743.73 769.897L1744.19 769.15L1741.93 767.765L1741.37 767.419L1738.85 771.528L1736.78 770.259L1735.52 772.314L1733.26 770.929L1731.65 773.544L1725.63 769.851Z" fill="#298882"/>
<path d="M669.599 576.978L672.62 592.999L665.512 594.339L666.357 598.825L673.466 597.485L674.07 600.689L679.886 599.593L680.732 604.079L674.916 605.175L675.882 610.302L678.467 609.815L678.95 612.378L671.842 613.719L672.688 618.205L677.211 617.352L678.661 625.042L676.076 625.529L677.164 631.297L679.749 630.81L680.474 634.655L686.289 633.558L686.652 635.481L690.529 634.75L691.617 640.517L695.494 639.786L696.098 642.991L698.683 642.503L698.079 639.299L696.629 631.609L704.383 630.147L705.229 634.633L711.691 633.415L713.866 644.95L717.097 644.341L718.185 650.108L723.354 649.134L724.321 654.261L721.09 654.87L721.694 658.074L743.665 653.932L744.269 657.136L750.731 655.918L751.094 657.84L752.106 663.208L759.317 661.848L758.305 656.481L766.184 654.995L762.285 634.317L770.459 632.776L768.558 622.693L775.666 621.353L774.82 616.867L797.438 612.603L794.66 597.87L789.49 598.844L787.677 589.225L783.181 590.073L781.369 580.46L802.666 576.445L802.062 573.24L790.43 575.433L789.584 570.947L793.462 570.216L792.616 565.73L783.569 567.436L782.24 560.387L784.825 559.899L783.133 550.927L780.548 551.415L779.703 546.929L788.75 545.223L786.816 534.969L782.939 535.7L781.731 529.292L776.561 530.266L775.715 525.781L758.268 529.07L758.751 531.633L751.643 532.974L750.797 528.488L739.811 530.559L738.965 526.073L728.626 528.022L728.022 524.818L723.498 525.671L724.223 529.516L720.346 530.247L722.279 540.501L720.341 540.866L719.978 538.943L709.639 540.893L709.156 538.329L701.401 539.791L699.462 540.157L702.12 554.256L695.012 555.596L696.341 562.645L688.587 564.107L690.278 573.079L669.599 576.978Z" fill="#298882"/>
<path d="M24.8863 863.123L34.4793 865.592L33.3835 869.849L36.0696 870.54L37.1653 866.284L39.0839 866.778L39.9804 863.296L42.6664 863.987L41.7699 867.469L44.8397 868.26L45.2381 866.712L46.773 867.107L45.6772 871.363L48.3633 872.055L49.0605 869.346L53.6652 870.532L53.2667 872.079L56.7202 872.969L57.1186 871.421L59.4209 872.014L60.3174 868.531L61.4686 868.828L62.0662 866.506L65.5197 867.395L66.1174 865.073L68.036 865.567L68.4344 864.02L66.5158 863.526L61.9112 862.34L63.1065 857.697L65.7926 858.389L66.7887 854.519L73.6956 856.298L74.1936 854.363L77.6471 855.252L78.444 852.157L81.5137 852.947L81.0157 854.882L82.9343 855.375L86.321 842.22L88.2396 842.714L89.2357 838.845L90.3869 839.141L93.6008 839.968L94.7123 835.651L91.4984 834.823L92.713 830.106L80.3315 826.918L81.5915 822.024L75.5544 820.47L76.6502 816.214L73.9641 815.522L77.4505 801.98L68.6289 799.709L67.832 802.804L62.0724 801.321L61.3793 804.014L55.6235 802.532L58.9065 789.78L56.9879 789.286L55.1949 796.25L52.5089 795.559L53.1065 793.237L50.4205 792.546L49.0259 797.963L44.8051 796.876L45.2035 795.328L39.8314 793.945L39.433 795.493L36.747 794.802L38.1415 789.385L32.002 787.804L31.4044 790.126L27.5672 789.138L26.7703 792.233L24.0843 791.542L21.3948 801.989L22.9297 802.384L21.8339 806.64L19.1479 805.949L17.4545 812.526L14.7685 811.835L13.1747 818.026L11.2561 817.532L10.5589 820.24L12.8612 820.833L12.2635 823.154L18.403 824.735L18.1042 825.896L16.953 825.599L15.3592 831.79L13.8244 831.395L12.629 836.038L12.3302 837.199L20.772 839.372L19.6763 843.629L23.8972 844.715L22.7018 849.358L28.0739 850.741L24.8863 863.123Z" fill="#298882"/>
<path d="M932.626 349.851L929.765 354.521L927.693 353.252L926.891 354.56L928.963 355.829L928.391 356.763L930.087 357.802L929.285 359.109L927.59 358.071L926.674 359.565L927.428 360.027L926.97 360.774L924.898 359.505L924.097 360.812L925.416 361.62L924.042 363.862L923.289 363.4L922.259 365.081L923.012 365.543L922.325 366.664L924.021 367.702L923.677 368.263L924.808 368.955L923.778 370.637L924.908 371.329L924.335 372.263L925.089 372.725L925.661 371.791L927.035 369.549L929.295 370.934L928.494 372.242L930.378 373.396L928.317 376.758L929.259 377.335L928.229 379.016L929.736 379.94L928.821 381.434L927.879 380.857L927.307 381.791L933.711 385.715L933.139 386.649L935.023 387.803L934.679 388.363L933.721 389.928L935.823 391.216L936.781 389.651L939.078 391.058L942.771 385.031L945.153 386.49L946.954 383.551L949.026 384.821L949.827 383.513L956.42 387.552L959.051 383.258L957.544 382.334L959.262 379.53L957.952 378.728L959.669 375.925L965.877 379.729L966.449 378.795L963.058 376.718L963.859 375.41L964.99 376.102L965.791 374.795L963.154 373.179L964.413 371.124L965.166 371.586L966.768 368.97L966.015 368.509L966.816 367.201L969.453 368.817L971.284 365.828L970.154 365.136L971.299 363.267L969.792 362.344L970.593 361.037L965.507 357.921L965.049 358.668L962.977 357.398L963.778 356.091L960.576 354.129L961.377 352.821L958.363 350.975L958.935 350.041L957.617 349.233L956.93 350.354L955.8 349.661L953.969 352.65L953.404 352.304L953.747 351.743L950.733 349.897L951.191 349.15L948.93 347.765L948.365 347.419L945.847 351.528L943.775 350.259L942.516 352.314L940.256 350.929L938.654 353.544L932.626 349.851Z" fill="#298882"/>
<path fill-rule="evenodd" clip-rule="evenodd" d="M1261.65 1240.24L1270.4 1239.99L1270.72 1251.27L1275.61 1251.13L1275.73 1255.37L1279.58 1255.26L1279.69 1259.14L1287.39 1258.92L1287.42 1259.98L1287.54 1264.21L1286.14 1264.25L1286.3 1269.89L1285.25 1269.92L1285.28 1270.98L1290.87 1270.82L1290.93 1272.93L1293.03 1272.87L1293.1 1275.34L1291.35 1275.39L1291.51 1281.03L1289.96 1281.08L1290.28 1292.24L1295.18 1292.1L1295.3 1296.33L1299.15 1296.22L1299.26 1300.1L1306.95 1299.88L1306.98 1300.94L1307.1 1305.17L1305.7 1305.21L1305.86 1310.86L1304.81 1310.89L1304.84 1311.94L1310.44 1311.78L1310.5 1313.9L1312.6 1313.84L1312.67 1316.31L1310.92 1316.36L1311.08 1322L1308.63 1322.07L1308.8 1328.07L1306.35 1328.13L1306.46 1332.01L1307.86 1331.97L1308.13 1341.5L1305.68 1341.57L1305.76 1344.39L1302.27 1344.49L1302.33 1346.6L1296.73 1346.76L1296.59 1341.82L1294.14 1341.89L1294.18 1343.3L1289.29 1343.44L1289.25 1342.03L1285.4 1342.14L1285.54 1347.08L1283.09 1347.15L1283.03 1345.03L1280.58 1345.1L1280.76 1351.45L1279.02 1351.5L1278.69 1339.88L1273.44 1340.03L1273.51 1342.48L1268.26 1342.63L1268.34 1345.45L1260.3 1345.68L1259.95 1333.34L1257.5 1333.41L1257.39 1329.53L1251.89 1329.68L1251.76 1325.22L1240.48 1325.54L1240.36 1321.24L1237.43 1321.33L1237.31 1317.39L1240.24 1317.31L1241.29 1317.28L1241.19 1313.75L1242.94 1313.7L1242.68 1304.66L1240.74 1304.71L1240.39 1292.37L1237.94 1292.44L1237.83 1288.56L1232.32 1288.72L1232.2 1284.26L1220.91 1284.58L1220.79 1280.28L1217.86 1280.36L1217.75 1276.43L1220.68 1276.34L1221.73 1276.31L1221.63 1272.79L1223.38 1272.74L1223.04 1260.75L1224.78 1260.7L1224.83 1262.46L1227.63 1262.38L1227.55 1259.56L1230.7 1259.47L1230.65 1257.71L1236.94 1257.53L1236.84 1254L1239.29 1253.93L1239.17 1249.7L1234.98 1249.82L1233.23 1249.87L1233.19 1248.46L1234.94 1248.41L1234.88 1246.29L1238.02 1246.2L1237.96 1244.09L1239.01 1244.06L1238.92 1240.88L1241.02 1240.82L1240.98 1239.41L1244.13 1239.32L1244.17 1240.73L1248.36 1240.61L1248.29 1238.15L1250.74 1238.08L1250.85 1241.96L1252.25 1241.92L1252.21 1240.51L1255.01 1240.43L1255.1 1243.6L1257.55 1243.53L1257.46 1240.36L1259.21 1240.31L1259.1 1236.43L1261.54 1236.36L1261.65 1240.24Z" fill="#298882"/>
<path d="M1159.46 340.219L1157.88 344.968L1160.67 345.897L1165.97 329.977L1169.88 331.278L1171 327.927L1175.47 329.414L1180.95 312.935L1172.57 310.146L1174.15 305.398L1168.29 303.445L1169.12 300.932L1164.1 299.258L1167.26 289.762L1158.04 286.694L1159.43 282.504L1146.59 278.228L1143.98 286.049L1139.79 284.654L1137.84 290.52L1134.21 289.311L1131.79 296.573L1129.28 295.737L1126.95 302.719L1120.25 300.488L1119.23 303.561L1121.74 304.397L1120.63 307.749L1116.44 306.355L1115.41 309.427L1129.94 314.261L1128.82 317.613L1137.2 320.402L1135.9 324.312L1148.75 328.588L1147.82 331.381L1151.17 332.497L1149.68 336.966L1159.46 340.219Z" fill="#298882"/>
<path d="M877.551 337.981L873.867 341.368L875.859 343.535L888.211 332.178L891.001 335.212L893.601 332.821L896.789 336.288L909.574 324.533L903.597 318.032L907.281 314.645L903.097 310.094L905.047 308.301L901.461 304.4L908.829 297.626L902.254 290.475L905.504 287.487L896.339 277.518L890.272 283.097L887.283 279.847L882.732 284.031L880.142 281.214L874.508 286.394L872.715 284.444L867.297 289.425L862.516 284.224L860.132 286.415L861.925 288.366L859.325 290.757L856.336 287.506L853.952 289.698L864.313 300.966L861.712 303.357L867.69 309.858L864.656 312.647L873.821 322.616L871.654 324.608L874.045 327.208L870.578 330.396L877.551 337.981Z" fill="#298882"/>
<path d="M1706.16 723.592L1713.76 721.876L1712.75 717.407L1687.28 723.16L1685.86 716.903L1680.5 718.114L1678.89 710.964L1652.52 716.918L1655.55 730.326L1647.95 732.042L1650.07 741.427L1646.05 742.335L1647.86 750.38L1632.67 753.811L1636 768.56L1629.29 770.074L1633.94 790.632L1646.45 787.806L1647.97 794.51L1657.35 792.39L1658.66 798.2L1670.28 795.576L1671.19 799.598L1682.36 797.075L1684.79 807.801L1689.7 806.691L1688.79 802.668L1694.16 801.457L1695.67 808.161L1700.59 807.051L1695.34 783.811L1700.7 782.6L1697.67 769.193L1703.93 767.78L1699.29 747.221L1703.76 746.212L1702.55 740.849L1709.7 739.234L1706.16 723.592Z" fill="#298882"/>
<path d="M1128.43 406.411L1127.25 414.109L1131.78 414.805L1135.75 388.992L1142.09 389.967L1142.92 384.533L1150.17 385.646L1154.27 358.928L1140.69 356.84L1141.87 349.141L1132.36 347.68L1132.99 343.604L1124.83 342.351L1127.2 326.954L1112.26 324.657L1113.3 317.865L1092.47 314.663L1090.52 327.343L1083.73 326.299L1082.27 335.809L1076.38 334.904L1074.57 346.679L1070.49 346.052L1068.75 357.374L1057.89 355.703L1057.12 360.685L1061.2 361.311L1060.36 366.745L1053.57 365.701L1052.8 370.683L1076.35 374.302L1075.52 379.736L1089.1 381.824L1088.13 388.164L1108.96 391.365L1108.26 395.894L1113.7 396.729L1112.58 403.975L1128.43 406.411Z" fill="#298882"/>
</svg>
