<svg xmlns="http://www.w3.org/2000/svg" width="1152" height="1264" viewBox="0 0 1152 1264" fill="none"><line x1="198" y1="1068" x2="288" y2="1068" stroke="#142623" stroke-width="8"></line><line x1="220" y1="1008" x2="288" y2="1008" stroke="#142623" stroke-width="8"></line><line x1="280" y1="928" x2="1016" y2="928" stroke="#142623" stroke-width="8"></line><line x1="532" y1="648" x2="760" y2="648" stroke="#142623" stroke-width="8"></line><line x1="812" y1="648" x2="982" y2="648" stroke="#142623" stroke-width="8"></line><line x1="532" y1="480" x2="983" y2="480" stroke="#142623" stroke-width="8"></line><line x1="724" y1="340" x2="792" y2="340" stroke="#142623" stroke-width="8"></line><line x1="724" y1="280" x2="792" y2="280" stroke="#142623" stroke-width="8"></line><line x1="500" y1="140" x2="568" y2="140" stroke="#142623" stroke-width="8"></line><line x1="500" y1="200" x2="568" y2="200" stroke="#142623" stroke-width="8"></line><line x1="504" y1="228" x2="539" y2="228" stroke="#142623" stroke-width="8"></line><line x1="564" y1="172" x2="1044" y2="172" stroke="#142623" stroke-width="8"></line><line x1="976" y1="112" x2="1044" y2="112" stroke="#142623" stroke-width="8"></line><line x1="916" y1="420" x2="1011" y2="420" stroke="#142623" stroke-width="8"></line><line x1="584" y1="980" x2="652" y2="980" stroke="#142623" stroke-width="8"></line><line x1="584" y1="1040" x2="652" y2="1040" stroke="#142623" stroke-width="8"></line><line x1="948" y1="988" x2="1016" y2="988" stroke="#142623" stroke-width="8"></line><line x1="752" y1="676" x2="820" y2="676" stroke="#142623" stroke-width="8"></line><line x1="752" y1="616" x2="846" y2="616" stroke="#142623" stroke-width="8"></line><line x1="532" y1="540" x2="600" y2="540" stroke="#142623" stroke-width="8"></line><line x1="224" y1="1072" x2="224" y2="1004" stroke="#142623" stroke-width="8"></line><line x1="284" y1="1072" x2="284" y2="924" stroke="#142623" stroke-width="8"></line><line x1="588" y1="1044" x2="588" y2="976" stroke="#142623" stroke-width="8"></line><line x1="648" y1="1044" x2="648" y2="926" stroke="#142623" stroke-width="8"></line><line x1="952" y1="992" x2="952" y2="924" stroke="#142623" stroke-width="8"></line><line x1="1012" y1="992" x2="1012" y2="924" stroke="#142623" stroke-width="8"></line><line x1="980" y1="932" x2="980" y2="110" stroke="#142623" stroke-width="8"></line><line x1="536" y1="932" x2="536" y2="199" stroke="#142623" stroke-width="8"></line><line x1="920" y1="484" x2="920" y2="417" stroke="#142623" stroke-width="8"></line><line x1="596" y1="544" x2="596" y2="477" stroke="#142623" stroke-width="8"></line><line x1="728" y1="344" x2="728" y2="277" stroke="#142623" stroke-width="8"></line><line x1="504" y1="204" x2="504" y2="137" stroke="#142623" stroke-width="8"></line><line x1="564" y1="204" x2="564" y2="115" stroke="#142623" stroke-width="8"></line><line x1="1040" y1="176" x2="1040" y2="109" stroke="#142623" stroke-width="8"></line><line x1="788" y1="618" x2="788" y2="171" stroke="#142623" stroke-width="8"></line><line x1="756" y1="680" x2="756" y2="590" stroke="#142623" stroke-width="8"></line><line x1="816" y1="680" x2="816" y2="613" stroke="#142623" stroke-width="8"></line><line x1="784" y1="932" x2="784" y2="674" stroke="#142623" stroke-width="8"></line><line x1="478" y1="144" x2="478" y2="57" stroke="#142623" stroke-width="4"></line><line x1="926" y1="956" x2="926" y2="439" stroke="#142623" stroke-width="4"></line><line x1="818" y1="680" x2="818" y2="532" stroke="#142623" stroke-width="4"></line><line x1="534" y1="144" x2="534" y2="84" stroke="#142623" stroke-width="4"></line><line x1="422" y1="168" x2="422" y2="0" stroke="#142623" stroke-width="4"></line><line x1="702" y1="620" x2="702" y2="327" stroke="#142623" stroke-width="4"></line><line x1="338" y1="1124" x2="338" y2="840" stroke="#142623" stroke-width="4"></line><line x1="314" y1="1068" x2="314" y2="1036" stroke="#142623" stroke-width="4"></line><line x1="228" y1="870" x2="1151" y2="870" stroke="#142623" stroke-width="4"></line><line x1="310" y1="1040" x2="310" y2="841" stroke="#142623" stroke-width="4"></line><line x1="478" y1="1096" x2="478" y2="812" stroke="#142623" stroke-width="4"></line><line x1="954" y1="392" x2="954" y2="163" stroke="#142623" stroke-width="4"></line><line x1="1066" y1="144" x2="1066" y2="56" stroke="#142623" stroke-width="4"></line><line x1="366" y1="144" x2="366" y2="0" stroke="#142623" stroke-width="4"></line><line x1="450" y1="228" x2="450" y2="0" stroke="#142623" stroke-width="4"></line><line x1="600" y1="506" x2="1010" y2="506" stroke="#142623" stroke-width="4"></line><line x1="1122" y1="1124" x2="1122" y2="1064" stroke="#142623" stroke-width="4"></line><line x1="508" y1="534" x2="1040" y2="534" stroke="#142623" stroke-width="4"></line><line x1="1150" y1="1008" x2="1150" y2="840" stroke="#142623" stroke-width="4"></line><line x1="506" y1="1124" x2="506" y2="56" stroke="#142623" stroke-width="4"></line><line x1="288" y1="1038" x2="1066" y2="1038" stroke="#142623" stroke-width="4"></line><line x1="508" y1="450" x2="923" y2="450" stroke="#142623" stroke-width="4"></line><line x1="1094" y1="144" x2="1094" y2="56" stroke="#142623" stroke-width="4"></line><line x1="112" y1="1066" x2="621" y2="1066" stroke="#142623" stroke-width="4"></line><line x1="1068" y1="1122" x2="1120" y2="1122" stroke="#142623" stroke-width="4"></line><line x1="564" y1="1234" x2="647" y2="1234" stroke="#142623" stroke-width="4"></line><line x1="698" y1="644" x2="698" y2="616" stroke="#142623" stroke-width="4"></line><line x1="480" y1="282" x2="1037" y2="282" stroke="#142623" stroke-width="4"></line><line x1="562" y1="476" x2="562" y2="84" stroke="#142623" stroke-width="4"></line><line x1="226" y1="1004" x2="226" y2="868" stroke="#142623" stroke-width="4"></line><line x1="1122" y1="648" x2="1122" y2="560" stroke="#142623" stroke-width="4"></line><line x1="1122" y1="144" x2="1122" y2="56" stroke="#142623" stroke-width="4"></line><line x1="926" y1="416" x2="926" y2="56" stroke="#142623" stroke-width="4"></line><line x1="508" y1="422" x2="1096" y2="422" stroke="#142623" stroke-width="4"></line><line x1="368" y1="142" x2="732" y2="142" stroke="#142623" stroke-width="4"></line><line x1="702" y1="1208" x2="702" y2="633" stroke="#142623" stroke-width="4"></line><line x1="646" y1="1236" x2="646" y2="112" stroke="#142623" stroke-width="4"></line><line x1="2" y1="1264" x2="2" y2="1204" stroke="#142623" stroke-width="4"></line><line x1="674" y1="1208" x2="674" y2="1029" stroke="#142623" stroke-width="4"></line><line x1="254" y1="1180" x2="254" y2="1064" stroke="#142623" stroke-width="4"></line><line x1="226" y1="1208" x2="226" y2="1064" stroke="#142623" stroke-width="4"></line><line x1="480" y1="730" x2="1092" y2="730" stroke="#142623" stroke-width="4"></line><line x1="142" y1="1236" x2="142" y2="1008" stroke="#142623" stroke-width="4"></line><line x1="1094" y1="648" x2="1094" y2="560" stroke="#142623" stroke-width="4"></line><line x1="86" y1="1264" x2="86" y2="1092" stroke="#142623" stroke-width="4"></line><line x1="30" y1="1264" x2="30" y2="1204" stroke="#142623" stroke-width="4"></line><line x1="114" y1="1264" x2="114" y2="1064" stroke="#142623" stroke-width="4"></line><line x1="758" y1="680" x2="758" y2="318" stroke="#142623" stroke-width="4"></line><line x1="340" y1="58" x2="508" y2="58" stroke="#142623" stroke-width="4"></line><line x1="340" y1="86" x2="620" y2="86" stroke="#142623" stroke-width="4"></line><line x1="1066" y1="452" x2="1066" y2="393" stroke="#142623" stroke-width="4"></line><line x1="590" y1="476" x2="590" y2="85" stroke="#142623" stroke-width="4"></line><line x1="536" y1="1150" x2="870" y2="1150" stroke="#142623" stroke-width="4"></line><line x1="1038" y1="312" x2="1038" y2="52" stroke="#142623" stroke-width="4"></line><line x1="508" y1="1122" x2="928" y2="1122" stroke="#142623" stroke-width="4"></line><line x1="844" y1="114" x2="1123" y2="114" stroke="#142623" stroke-width="4"></line><line x1="872" y1="86" x2="983" y2="86" stroke="#142623" stroke-width="4"></line><line x1="872" y1="58" x2="1011" y2="58" stroke="#142623" stroke-width="4"></line><line x1="476" y1="618" x2="1123" y2="618" stroke="#142623" stroke-width="4"></line><line x1="228" y1="898" x2="1149" y2="898" stroke="#142623" stroke-width="4"></line><line x1="480" y1="674" x2="725" y2="674" stroke="#142623" stroke-width="4"></line><line x1="480" y1="702" x2="728" y2="702" stroke="#142623" stroke-width="4"></line><line x1="1066" y1="228" x2="1066" y2="150" stroke="#142623" stroke-width="4"></line><line x1="1122" y1="1008" x2="1122" y2="840" stroke="#142623" stroke-width="4"></line><line x1="448" y1="226" x2="760" y2="226" stroke="#142623" stroke-width="4"></line><line x1="562" y1="1236" x2="562" y2="542" stroke="#142623" stroke-width="4"></line><line x1="674" y1="964" x2="674" y2="114" stroke="#142623" stroke-width="4"></line><line x1="618" y1="1234" x2="618" y2="1041" stroke="#142623" stroke-width="4"></line><line x1="58" y1="1264" x2="58" y2="1148" stroke="#142623" stroke-width="4"></line><line x1="1094" y1="224" x2="1094" y2="171" stroke="#142623" stroke-width="4"></line><line x1="1122" y1="758" x2="1122" y2="700" stroke="#142623" stroke-width="4"></line><line x1="282" y1="1180" x2="282" y2="870" stroke="#142623" stroke-width="4"></line><line x1="452" y1="198" x2="988" y2="198" stroke="#142623" stroke-width="4"></line><line x1="288" y1="982" x2="949" y2="982" stroke="#142623" stroke-width="4"></line><line x1="4" y1="1206" x2="228" y2="1206" stroke="#142623" stroke-width="4"></line><line x1="60" y1="1178" x2="284" y2="1178" stroke="#142623" stroke-width="4"></line><line x1="60" y1="1150" x2="312" y2="1150" stroke="#142623" stroke-width="4"></line><line x1="84" y1="1122" x2="392" y2="1122" stroke="#142623" stroke-width="4"></line><line x1="254" y1="1004" x2="254" y2="869" stroke="#142623" stroke-width="4"></line><line x1="702" y1="324" x2="702" y2="114" stroke="#142623" stroke-width="4"></line><line x1="340" y1="114" x2="732" y2="114" stroke="#142623" stroke-width="4"></line><line x1="172" y1="954" x2="645" y2="954" stroke="#142623" stroke-width="4"></line><line x1="478" y1="392" x2="478" y2="161" stroke="#142623" stroke-width="4"></line><line x1="534" y1="1180" x2="534" y2="916" stroke="#142623" stroke-width="4"></line><line x1="788" y1="1234" x2="842" y2="1234" stroke="#142623" stroke-width="4"></line><line x1="758" y1="284" x2="758" y2="172" stroke="#142623" stroke-width="4"></line><line x1="898" y1="422" x2="898" y2="57" stroke="#142623" stroke-width="4"></line><line x1="788" y1="142" x2="1010" y2="142" stroke="#142623" stroke-width="4"></line><line x1="310" y1="1152" x2="310" y2="1052" stroke="#142623" stroke-width="4"></line><line x1="618" y1="984" x2="618" y2="535" stroke="#142623" stroke-width="4"></line><line x1="590" y1="1236" x2="590" y2="543" stroke="#142623" stroke-width="4"></line><line x1="730" y1="1208" x2="730" y2="706" stroke="#142623" stroke-width="4"></line><line x1="480" y1="310" x2="732" y2="310" stroke="#142623" stroke-width="4"></line><line x1="308" y1="842" x2="368" y2="842" stroke="#142623" stroke-width="4"></line><line x1="758" y1="1204" x2="758" y2="705" stroke="#142623" stroke-width="4"></line><line x1="476" y1="394" x2="948" y2="394" stroke="#142623" stroke-width="4"></line><line x1="786" y1="1264" x2="786" y2="932" stroke="#142623" stroke-width="4"></line><line x1="814" y1="1264" x2="814" y2="678" stroke="#142623" stroke-width="4"></line><line x1="480" y1="366" x2="760" y2="366" stroke="#142623" stroke-width="4"></line><line x1="480" y1="338" x2="1039" y2="338" stroke="#142623" stroke-width="4"></line><line x1="842" y1="1262" x2="842" y2="665" stroke="#142623" stroke-width="4"></line><line x1="870" y1="1208" x2="870" y2="56" stroke="#142623" stroke-width="4"></line><line x1="898" y1="1124" x2="898" y2="444" stroke="#142623" stroke-width="4"></line><line x1="926" y1="1124" x2="926" y2="961" stroke="#142623" stroke-width="4"></line><line x1="954" y1="1064" x2="954" y2="987" stroke="#142623" stroke-width="4"></line><line x1="982" y1="1064" x2="982" y2="987" stroke="#142623" stroke-width="4"></line><line x1="1010" y1="1064" x2="1010" y2="149" stroke="#142623" stroke-width="4"></line><line x1="1038" y1="1064" x2="1038" y2="963" stroke="#142623" stroke-width="4"></line><line x1="1066" y1="1124" x2="1066" y2="561" stroke="#142623" stroke-width="4"></line><line x1="1094" y1="1124" x2="1094" y2="1064" stroke="#142623" stroke-width="4"></line><line x1="422" y1="1092" x2="422" y2="868" stroke="#142623" stroke-width="4"></line><line x1="394" y1="168" x2="394" y2="0" stroke="#142623" stroke-width="4"></line><line x1="588" y1="590" x2="760" y2="590" stroke="#142623" stroke-width="4"></line><line x1="4" y1="1262" x2="116" y2="1262" stroke="#142623" stroke-width="4"></line><line x1="338" y1="116" x2="338" y2="0" stroke="#142623" stroke-width="4"></line><line x1="4" y1="1234" x2="172" y2="1234" stroke="#142623" stroke-width="4"></line><line x1="392" y1="170" x2="523" y2="170" stroke="#142623" stroke-width="4"></line><line x1="480" y1="646" x2="532" y2="646" stroke="#142623" stroke-width="4"></line><line x1="340" y1="30" x2="451" y2="30" stroke="#142623" stroke-width="4"></line><line x1="394" y1="1124" x2="394" y2="868" stroke="#142623" stroke-width="4"></line><line x1="842" y1="588" x2="842" y2="112" stroke="#142623" stroke-width="4"></line><line x1="478" y1="788" x2="478" y2="617" stroke="#142623" stroke-width="4"></line><line x1="564" y1="1206" x2="676" y2="1206" stroke="#142623" stroke-width="4"></line><line x1="788" y1="1262" x2="844" y2="1262" stroke="#142623" stroke-width="4"></line><line x1="88" y1="1094" x2="200" y2="1094" stroke="#142623" stroke-width="4"></line><line x1="1010" y1="114" x2="1010" y2="54" stroke="#142623" stroke-width="4"></line><line x1="1038" y1="956" x2="1038" y2="533" stroke="#142623" stroke-width="4"></line><line x1="366" y1="1124" x2="366" y2="840" stroke="#142623" stroke-width="4"></line><line x1="1008" y1="54" x2="1040" y2="54" stroke="#142623" stroke-width="4"></line><line x1="170" y1="1236" x2="170" y2="924" stroke="#142623" stroke-width="4"></line><line x1="536" y1="1178" x2="870" y2="1178" stroke="#142623" stroke-width="4"></line><line x1="562" y1="562" x2="784" y2="562" stroke="#142623" stroke-width="4"></line><line x1="198" y1="1040" x2="198" y2="925" stroke="#142623" stroke-width="4"></line><line x1="982" y1="116" x2="982" y2="58" stroke="#142623" stroke-width="4"></line><line x1="954" y1="144" x2="954" y2="56" stroke="#142623" stroke-width="4"></line><line x1="340" y1="2" x2="452" y2="2" stroke="#142623" stroke-width="4"></line><line x1="814" y1="284" x2="814" y2="140" stroke="#142623" stroke-width="4"></line><line x1="198" y1="1208" x2="198" y2="1065" stroke="#142623" stroke-width="4"></line><line x1="726" y1="708" x2="726" y2="588" stroke="#142623" stroke-width="4"></line><line x1="618" y1="508" x2="618" y2="84" stroke="#142623" stroke-width="4"></line><line x1="452" y1="842" x2="1064" y2="842" stroke="#142623" stroke-width="4"></line><line x1="1038" y1="452" x2="1038" y2="336" stroke="#142623" stroke-width="4"></line><line x1="450" y1="1092" x2="450" y2="812" stroke="#142623" stroke-width="4"></line><line x1="480" y1="758" x2="1124" y2="758" stroke="#142623" stroke-width="4"></line><line x1="480" y1="786" x2="1092" y2="786" stroke="#142623" stroke-width="4"></line><line x1="252" y1="1094" x2="927" y2="1094" stroke="#142623" stroke-width="4"></line><line x1="1094" y1="1008" x2="1094" y2="672" stroke="#142623" stroke-width="4"></line><line x1="452" y1="814" x2="1064" y2="814" stroke="#142623" stroke-width="4"></line><line x1="814" y1="536" x2="814" y2="301" stroke="#142623" stroke-width="4"></line><line x1="846" y1="680" x2="846" y2="584" stroke="#142623" stroke-width="4"></line><line x1="954" y1="900" x2="954" y2="478" stroke="#142623" stroke-width="4"></line><line x1="1094" y1="452" x2="1094" y2="392" stroke="#142623" stroke-width="4"></line><line x1="480" y1="254" x2="731" y2="254" stroke="#142623" stroke-width="4"></line><line x1="172" y1="926" x2="284" y2="926" stroke="#142623" stroke-width="4"></line><line x1="922" y1="984" x2="922" y2="952" stroke="#142623" stroke-width="4"></line><line x1="1042" y1="984" x2="1042" y2="952" stroke="#142623" stroke-width="4"></line><line x1="890" y1="452" x2="890" y2="420" stroke="#142623" stroke-width="4"></line><line x1="950" y1="420" x2="950" y2="388" stroke="#142623" stroke-width="4"></line><line x1="818" y1="312" x2="818" y2="280" stroke="#142623" stroke-width="4"></line><line x1="730" y1="592" x2="730" y2="112" stroke="#142623" stroke-width="4"></line><line x1="786" y1="172" x2="786" y2="140" stroke="#142623" stroke-width="4"></line><line x1="474" y1="170" x2="474" y2="142" stroke="#142623" stroke-width="4"></line><line x1="282" y1="1180" x2="282" y2="870" stroke="#142623" stroke-width="4"></line><line x1="594" y1="172" x2="594" y2="112" stroke="#142623" stroke-width="4"></line><line x1="140" y1="1010" x2="605" y2="1010" stroke="#142623" stroke-width="4"></line><line x1="562" y1="476" x2="562" y2="84" stroke="#142623" stroke-width="4"></line><line x1="140" y1="1038" x2="229" y2="1038" stroke="#142623" stroke-width="4"></line><line x1="506" y1="478" x2="534" y2="478" stroke="#142623" stroke-width="4"></line><line x1="506" y1="506" x2="534" y2="506" stroke="#142623" stroke-width="4"></line><line x1="506" y1="562" x2="534" y2="562" stroke="#142623" stroke-width="4"></line><line x1="534" y1="562" x2="562" y2="562" stroke="#142623" stroke-width="4"></line><line x1="532" y1="590" x2="560" y2="590" stroke="#142623" stroke-width="4"></line><line x1="506" y1="590" x2="534" y2="590" stroke="#142623" stroke-width="4"></line><line x1="562" y1="570" x2="590" y2="570" stroke="#142623" stroke-width="4"></line><line x1="562" y1="598" x2="590" y2="598" stroke="#142623" stroke-width="4"></line><line x1="788" y1="558" x2="816" y2="558" stroke="#142623" stroke-width="4"></line><line x1="1094" y1="730" x2="1122" y2="730" stroke="#142623" stroke-width="4"></line><line x1="818" y1="678" x2="846" y2="678" stroke="#142623" stroke-width="4"></line><line x1="842" y1="678" x2="870" y2="678" stroke="#142623" stroke-width="4"></line><line x1="726" y1="678" x2="754" y2="678" stroke="#142623" stroke-width="4"></line><line x1="954" y1="1018" x2="982" y2="1018" stroke="#142623" stroke-width="4"></line><line x1="1066" y1="842" x2="1094" y2="842" stroke="#142623" stroke-width="4"></line><line x1="1066" y1="814" x2="1094" y2="814" stroke="#142623" stroke-width="4"></line><line x1="950" y1="928" x2="950" y2="896" stroke="#142623" stroke-width="4"></line><line x1="558" y1="1040" x2="558" y2="1008" stroke="#142623" stroke-width="4"></line><line x1="194" y1="1070" x2="194" y2="1038" stroke="#142623" stroke-width="4"></line><line x1="626" y1="536" x2="626" y2="504" stroke="#142623" stroke-width="4"></line><line x1="698" y1="342" x2="698" y2="310" stroke="#142623" stroke-width="4"></line><line x1="950" y1="174" x2="950" y2="142" stroke="#142623" stroke-width="4"></line><line x1="1070" y1="172" x2="1070" y2="140" stroke="#142623" stroke-width="4"></line><line x1="644" y1="1066" x2="1122" y2="1066" stroke="#142623" stroke-width="4"></line><line x1="618" y1="1070" x2="646" y2="1070" stroke="#142623" stroke-width="4"></line><line x1="1066" y1="1094" x2="1094" y2="1094" stroke="#142623" stroke-width="4"></line><line x1="1094" y1="1094" x2="1122" y2="1094" stroke="#142623" stroke-width="4"></line><line x1="758" y1="370" x2="786" y2="370" stroke="#142623" stroke-width="4"></line><line x1="926" y1="510" x2="954" y2="510" stroke="#142623" stroke-width="4"></line><line x1="982" y1="478" x2="1010" y2="478" stroke="#142623" stroke-width="4"></line><line x1="1010" y1="394" x2="1095" y2="394" stroke="#142623" stroke-width="4"></line><line x1="950" y1="390" x2="978" y2="390" stroke="#142623" stroke-width="4"></line><line x1="980" y1="390" x2="1008" y2="390" stroke="#142623" stroke-width="4"></line><line x1="982" y1="202" x2="1010" y2="202" stroke="#142623" stroke-width="4"></line><line x1="756" y1="222" x2="784" y2="222" stroke="#142623" stroke-width="4"></line><line x1="756" y1="250" x2="784" y2="250" stroke="#142623" stroke-width="4"></line><line x1="728" y1="250" x2="756" y2="250" stroke="#142623" stroke-width="4"></line><line x1="1008" y1="82" x2="1036" y2="82" stroke="#142623" stroke-width="4"></line><line x1="982" y1="82" x2="1010" y2="82" stroke="#142623" stroke-width="4"></line><line x1="652" y1="1010" x2="1152" y2="1010" stroke="#142623" stroke-width="4"></line><line x1="648" y1="954" x2="953" y2="954" stroke="#142623" stroke-width="4"></line><line x1="870" y1="702" x2="1123" y2="702" stroke="#142623" stroke-width="4"></line><line x1="870" y1="674" x2="1096" y2="674" stroke="#142623" stroke-width="4"></line><line x1="846" y1="590" x2="1121" y2="590" stroke="#142623" stroke-width="4"></line><line x1="816" y1="562" x2="1122" y2="562" stroke="#142623" stroke-width="4"></line><line x1="792" y1="366" x2="1036" y2="366" stroke="#142623" stroke-width="4"></line><line x1="792" y1="310" x2="1036" y2="310" stroke="#142623" stroke-width="4"></line><line x1="792" y1="254" x2="1036" y2="254" stroke="#142623" stroke-width="4"></line><line x1="792" y1="226" x2="1096" y2="226" stroke="#142623" stroke-width="4"></line><line x1="1038" y1="58" x2="1122" y2="58" stroke="#142623" stroke-width="4"></line><line x1="1038" y1="86" x2="1122" y2="86" stroke="#142623" stroke-width="4"></line><line x1="1040" y1="142" x2="1124" y2="142" stroke="#142623" stroke-width="4"></line><line x1="1010" y1="198" x2="1094" y2="198" stroke="#142623" stroke-width="4"></line><line x1="1038" y1="170" x2="1100" y2="170" stroke="#142623" stroke-width="4"></line><line x1="1098" y1="172" x2="1098" y2="140" stroke="#142623" stroke-width="4"></line><line x1="678" y1="1040" x2="678" y2="952" stroke="#142623" stroke-width="4"></line><line x1="724" y1="706" x2="870" y2="706" stroke="#142623" stroke-width="4"></line><line x1="756" y1="586" x2="846" y2="586" stroke="#142623" stroke-width="4"></line><line x1="976" y1="646" x2="1123" y2="646" stroke="#142623" stroke-width="4"></line><line x1="1120" y1="842" x2="1148" y2="842" stroke="#142623" stroke-width="4"></line><line x1="1094" y1="842" x2="1122" y2="842" stroke="#142623" stroke-width="4"></line><line x1="618" y1="950" x2="646" y2="950" stroke="#142623" stroke-width="4"></line><line x1="590" y1="950" x2="618" y2="950" stroke="#142623" stroke-width="4"></line><line x1="982" y1="450" x2="1095" y2="450" stroke="#142623" stroke-width="4"></line><line x1="754" y1="708" x2="754" y2="676" stroke="#142623" stroke-width="4"></line><line x1="196" y1="1098" x2="255" y2="1098" stroke="#142623" stroke-width="4"></line><line x1="168" y1="982" x2="227" y2="982" stroke="#142623" stroke-width="4"></line><line x1="224" y1="978" x2="283" y2="978" stroke="#142623" stroke-width="4"></line><line x1="1016" y1="926" x2="1148" y2="926" stroke="#142623" stroke-width="4"></line><line x1="1016" y1="982" x2="1148" y2="982" stroke="#142623" stroke-width="4"></line><line x1="1016" y1="954" x2="1148" y2="954" stroke="#142623" stroke-width="4"></line><line x1="700" y1="1206" x2="870" y2="1206" stroke="#142623" stroke-width="4"></line></svg>