<svg width="20" height="21" viewBox="0 0 20 21" fill="none" xmlns="http://www.w3.org/2000/svg">
<path d="M15.8258 1.99998H4.77824C3.79918 1.99998 3 2.77799 3 3.73799V16.264C3 17.222 3.79714 18.002 4.77824 18.002H15.8238C16.8029 18.002 17.6 17.224 17.6 16.264V3.73799C17.6 2.77799 16.8049 1.99998 15.8258 1.99998ZM16.6005 16.262C16.6005 16.682 16.251 17.022 15.8258 17.022H4.77824C4.35107 17.022 4.00358 16.68 4.00358 16.262V3.73799C4.00358 3.31998 4.35107 2.97998 4.77824 2.97998H15.8238C16.251 2.97998 16.5985 3.32198 16.5985 3.73799V16.262H16.6005Z" fill="white"/>
<path d="M6.03404 7.05694C5.77205 7.05694 5.56006 6.84494 5.56006 6.58293V6.55094C5.56006 6.28895 5.77205 6.07693 6.03406 6.07693C6.29607 6.07693 6.50807 6.28895 6.50807 6.55094V6.58293C6.50807 6.84494 6.29406 7.05695 6.03404 7.05695V7.05694ZM6.03404 9.73094C5.77205 9.73094 5.56006 9.94293 5.56006 10.2049V10.2349C5.56006 10.4969 5.77205 10.7089 6.03406 10.7089C6.29607 10.7089 6.50807 10.4969 6.50807 10.2349V10.2049C6.50807 9.94293 6.29406 9.73094 6.03404 9.73094ZM6.03404 13.3869C5.77205 13.3869 5.56006 13.5989 5.56006 13.8609V13.8909C5.56006 14.1529 5.77205 14.3649 6.03406 14.3649C6.29607 14.3649 6.50807 14.1529 6.50807 13.8909V13.8609C6.50807 13.5989 6.29406 13.3869 6.03404 13.3869ZM13.9661 7.05694H7.74604C7.48404 7.05694 7.27203 6.84494 7.27203 6.58293V6.55094C7.27203 6.28895 7.48404 6.07693 7.74605 6.07693H13.966C14.228 6.07693 14.44 6.28895 14.44 6.55094V6.58293C14.442 6.84494 14.228 7.05695 13.966 7.05695L13.9661 7.05694ZM13.9661 9.73094H7.74604C7.48404 9.73094 7.27203 9.94293 7.27203 10.2049V10.2349C7.27203 10.4969 7.48404 10.7089 7.74605 10.7089H13.966C14.228 10.7089 14.44 10.4969 14.44 10.2349V10.2049C14.442 9.94293 14.228 9.73094 13.966 9.73094H13.9661ZM13.9661 13.3869H7.74604C7.48404 13.3869 7.27203 13.5989 7.27203 13.8609V13.8909C7.27203 14.1529 7.48404 14.3649 7.74605 14.3649H13.966C14.228 14.3649 14.44 14.1529 14.44 13.8909V13.8609C14.442 13.5989 14.228 13.3869 13.966 13.3869H13.9661Z" fill="white"/>
</svg>
