<svg width="20" height="21" viewBox="0 0 20 21" fill="none" xmlns="http://www.w3.org/2000/svg">
<path d="M15.9825 3.18064C16.0371 3.12412 16.1024 3.07903 16.1746 3.04802C16.2468 3.017 16.3245 3.00067 16.403 2.99999C16.4816 2.99931 16.5596 3.01428 16.6323 3.04404C16.705 3.0738 16.7711 3.11774 16.8267 3.17331C16.8822 3.22888 16.9262 3.29495 16.9559 3.36769C16.9857 3.44042 17.0007 3.51835 17 3.59693C16.9993 3.67551 16.983 3.75317 16.952 3.82537C16.9209 3.89758 16.8758 3.96288 16.8193 4.01748L8.45042 12.3866C8.33943 12.4976 8.18888 12.5599 8.03191 12.5599C7.87494 12.5599 7.72439 12.4976 7.6134 12.3866C7.5024 12.2756 7.44004 12.125 7.44004 11.9681C7.44004 11.8111 7.5024 11.6605 7.6134 11.5495L15.9825 3.18084V3.18064ZM15.8091 9.31997C15.8091 9.16301 15.8714 9.01248 15.9824 8.90149C16.0934 8.7905 16.2439 8.72815 16.4009 8.72815C16.5579 8.72815 16.7084 8.7905 16.8194 8.90149C16.9304 9.01248 16.9927 9.16301 16.9927 9.31997V15.83C16.9927 17.0284 16.0212 18 14.8227 18H4.17C2.97157 18 2 17.0284 2 15.83V5.17724C2 3.97881 2.97157 3.00724 4.17 3.00724H10.4827C10.6397 3.00724 10.7902 3.06959 10.9012 3.18058C11.0122 3.29157 11.0745 3.4421 11.0745 3.59906C11.0745 3.75602 11.0122 3.90655 10.9012 4.01754C10.7902 4.12853 10.6397 4.19088 10.4827 4.19088H4.17C3.9084 4.19088 3.65751 4.2948 3.47254 4.47978C3.28756 4.66476 3.18364 4.91564 3.18364 5.17724V15.83C3.18364 16.0916 3.28756 16.3425 3.47254 16.5274C3.65751 16.7124 3.9084 16.8163 4.17 16.8163H14.8227C15.0843 16.8163 15.3352 16.7124 15.5202 16.5274C15.7052 16.3425 15.8091 16.0916 15.8091 15.83V9.31997Z" fill="white"/>
</svg>
