<svg width="20" height="21" viewBox="0 0 20 21" fill="none" xmlns="http://www.w3.org/2000/svg">
<g clip-path="url(#clip0_1522_42225)">
<path d="M5.5 3.8198C5.5 3.36857 5.0139 3.09273 4.65121 3.36117C2.4361 5.00062 1 7.63261 1 10.6C1 13.6171 2.48461 16.2874 4.76315 17.9204C5.07993 18.1474 5.5 17.9084 5.5 17.5187C5.5 17.3536 5.41881 17.1997 5.28678 17.1007C3.33967 15.6394 2.08002 13.3118 2.08002 10.69C2.08002 8.08312 3.32537 5.76709 5.2536 4.30439C5.40586 4.18889 5.5 4.01092 5.5 3.8198Z" fill="white"/>
<path d="M14.5 17.6189C14.5 17.4683 14.5761 17.3286 14.6991 17.2419C16.7562 15.7921 18.1 13.398 18.1 10.69C18.1 7.99733 16.7714 5.61498 14.7339 4.16278C14.5897 4.05998 14.5 3.89567 14.5 3.71854C14.5 3.31229 14.9378 3.06337 15.267 3.30137C17.5285 4.93619 19 7.59626 19 10.6C19 13.653 17.4798 16.351 15.1551 17.9783C14.8723 18.1762 14.5 17.9641 14.5 17.6189Z" fill="white"/>
<path d="M6.8501 3.3L10.0001 1.5L13.1501 3.3" stroke="white" stroke-linecap="round"/>
<path d="M13.1499 17L9.9999 18.8L6.8499 17" stroke="white" stroke-linecap="round" stroke-linejoin="round"/>
<path fill-rule="evenodd" clip-rule="evenodd" d="M10.0377 5.05194C10.2851 5.05194 10.4856 5.2525 10.4856 5.4999V5.96887H12.1858L12.1859 6.86478H10.4856V9.6037H10.7854C12.0348 9.6037 13.0476 10.6165 13.0476 11.8659C13.0476 13.1153 12.0348 14.1281 10.7854 14.1281H10.486L10.4856 14.6037C10.4856 14.8511 10.2851 15.0517 10.0377 15.0517C9.79028 15.0517 9.58972 14.8511 9.58972 14.6037V14.1281H7.76177L7.7617 13.2321H9.58972V10.4996H9.17274C9.14472 10.4996 9.1173 10.497 9.09071 10.4921C7.87442 10.4544 6.90002 9.4565 6.90002 8.23105C6.90002 6.98168 7.91283 5.96887 9.1622 5.96887H9.58972V5.4999C9.58972 5.2525 9.79028 5.05194 10.0377 5.05194ZM9.58972 9.6037H9.23799C9.21335 9.5995 9.18803 9.59731 9.1622 9.59731C8.40763 9.59731 7.79594 8.98562 7.79594 8.23105C7.79594 7.47647 8.40763 6.86478 9.1622 6.86478H9.58972V9.6037ZM10.4856 10.4996V13.2321H10.7854C11.54 13.2321 12.1516 12.6205 12.1516 11.8659C12.1516 11.1113 11.54 10.4996 10.7854 10.4996H10.4856Z" fill="white"/>
<path d="M7.76177 14.1281C7.51437 14.1281 7.31372 13.9275 7.31372 13.6801C7.31372 13.4327 7.5143 13.2321 7.7617 13.2321L7.76177 14.1281Z" fill="white"/>
<path d="M12.1858 5.96887C12.4332 5.96887 12.6339 6.16943 12.6339 6.41683C12.6339 6.66423 12.4333 6.86478 12.1859 6.86478L12.1858 5.96887Z" fill="white"/>
<path d="M12.1858 5.96887C12.4332 5.96887 12.6339 6.16943 12.6339 6.41683C12.6339 6.66423 12.4333 6.86478 12.1859 6.86478M12.1858 5.96887H10.4856V5.4999C10.4856 5.2525 10.2851 5.05194 10.0377 5.05194C9.79028 5.05194 9.58972 5.2525 9.58972 5.4999V5.96887H9.1622C7.91283 5.96887 6.90002 6.98168 6.90002 8.23105C6.90002 9.4565 7.87442 10.4544 9.09071 10.4921C9.1173 10.497 9.14472 10.4996 9.17274 10.4996H9.58972V13.2321H7.7617M12.1858 5.96887L12.1859 6.86478M12.1859 6.86478H10.4856V9.6037H10.7854C12.0348 9.6037 13.0476 10.6165 13.0476 11.8659C13.0476 13.1153 12.0348 14.1281 10.7854 14.1281H10.486L10.4856 14.6037C10.4856 14.8511 10.2851 15.0517 10.0377 15.0517C9.79028 15.0517 9.58972 14.8511 9.58972 14.6037V14.1281H7.76177M7.76177 14.1281C7.51437 14.1281 7.31372 13.9275 7.31372 13.6801C7.31372 13.4327 7.5143 13.2321 7.7617 13.2321M7.76177 14.1281L7.7617 13.2321M9.23799 9.6037H9.58972V6.86478H9.1622C8.40763 6.86478 7.79594 7.47647 7.79594 8.23105C7.79594 8.98562 8.40763 9.59731 9.1622 9.59731C9.18803 9.59731 9.21335 9.5995 9.23799 9.6037ZM10.4856 13.2321V10.4996H10.7854C11.54 10.4996 12.1516 11.1113 12.1516 11.8659C12.1516 12.6205 11.54 13.2321 10.7854 13.2321H10.4856Z" stroke="white" stroke-width="0.1" stroke-linecap="round" stroke-linejoin="round"/>
</g>
<defs>
<clipPath id="clip0_1522_42225">
<rect width="20" height="20" fill="white" transform="translate(0 0.210938)"/>
</clipPath>
</defs>
</svg>
