<svg width="20" height="21" viewBox="0 0 20 21" fill="none" xmlns="http://www.w3.org/2000/svg">
<path d="M17.0243 3.48528H2.77962C2.44796 3.48528 2.17896 3.75028 2.17896 4.0766V7.52543C2.17896 7.85244 2.44812 8.11678 2.77962 8.11678C3.11112 8.11678 3.38028 7.85244 3.38028 7.52543V4.66793H16.4236V7.52543C16.4236 7.85244 16.6928 8.11678 17.0243 8.11678C17.3558 8.11678 17.625 7.85244 17.625 7.52543V4.0766C17.625 3.74961 17.3558 3.48528 17.0243 3.48528ZM12.493 13.0253L10.5306 15.3671V6.93543C10.5306 6.60844 10.2615 6.34277 9.92995 6.34277C9.59829 6.34277 9.32929 6.60826 9.32929 6.93543V15.3896L7.34812 13.0253C7.11263 12.7918 6.73062 12.7918 6.49513 13.0253C6.25962 13.2578 6.25962 13.6356 6.49513 13.8686L9.46378 17.4114C9.58929 17.5356 9.75577 17.5889 9.92028 17.5799C10.085 17.5888 10.2518 17.5356 10.3775 17.4114L13.3461 13.8686C13.5816 13.6356 13.5816 13.2576 13.3461 13.0253C13.1105 12.7916 12.7284 12.7916 12.493 13.0253V13.0253Z" fill="white"/>
</svg>
