<svg width="1947" height="1504" viewBox="0 0 1947 1504" fill="none" xmlns="http://www.w3.org/2000/svg">
<path fill-rule="evenodd" clip-rule="evenodd" d="M201.45 645.581L201.369 648.036L198.892 648.116V650.08H197.538H194.006V652.502H190.557H187.025V654.924H174.544V652.502H171.011H169.657V650.08H167.214V649.113V645.581H164.77V641.846V638.314H162.327V632.503V628.97H159.914L159.939 626.066H160.743H164.275V622.534V621.762H165.007H168.539V618.229V617.497H170.085V618.229V621.762H173.617H182.147H185.68V618.229V617.497H186.412H189.945V613.965V613.192H191.49V613.965V617.497H195.022H195.755V618.229V621.762H199.287H204.325V622.534V626.066H207.857H208.629V627.612H207.857H204.325V631.145V635.41V639.634V643.979V645.581H201.45ZM202.425 653.612V651.594V651.536C203.254 651.509 204.868 651.536 204.868 651.536C204.868 651.536 204.834 650.129 204.868 649.113H204.908H206.962H207.857V645.581V643.979V639.634V635.41V634.677V631.145H208.629H211.39H212.162V627.612V626.066V622.534H211.39H208.629H207.857V621.762V619.002V618.229H204.325H202.819H199.287V617.497V614.697V613.965H198.554H195.755H195.022V613.192V610.432V609.659H191.49H189.945H186.412V610.432V613.192V613.965H185.68H182.88H182.147V614.697V617.497V618.229H178.615H177.15H173.617V617.497V614.697V613.965H170.085H168.539H165.007V614.697V617.497V618.229H164.275H161.474H160.743V619.002V621.762V622.534H157.21H156.437L156.382 628.97L156.352 632.503H158.795V632.524V636.035V638.314V641.846H161.238V645.378V645.581V649.113H163.681V650.08V652.646V653.612H166.125V656.034H167.479H169.657H171.011V658.457H174.544H187.025H190.557V656.034H194.006H194.09H197.538V653.612H198.892H201.071H202.425ZM301.473 972.727V970.685H305.006V972.727H311.778V962.266H309.677H306.144V958.734V947.182V943.649H309.677H314.908H318.44V947.182V949.624H341.149V947.182V943.649H344.682H347.185V941.604V938.072H350.717H355.947H359.48V941.604V955.6H370.521V953.156V949.624H374.053H382.189V941.604V938.072H385.721H393.857V930.052V926.52H397.39H399.893V915.658H397.39H393.857V912.125V898.528H391.756H388.224V894.996V886.577H385.721H382.189V883.045V871.891V868.358H385.721H388.224V863.472H385.721H382.189V859.939V848.785V845.253H385.721H388.224V811.286H379.686H376.153V807.754V805.708H371.147V807.754V811.286H367.615H362.385H358.852V807.754V805.708H356.349H352.817V802.176V765.075H342.179V767.121V770.653H338.646H321.345H317.813V767.121V759.1H303.642H300.11V755.568V753.523H298.009H294.477V749.991V747.548H265.732V749.991V753.523H262.2H256.969H253.437V749.991V747.548H250.934H247.402V744.015V735.995H245.301H241.768V732.462V730.418H239.266H235.733V726.886V724.443H233.633H230.101V720.91V718.467H227.598H224.065V714.935V706.914H219.06V709.756V720.91V724.443H215.527H213.024V740.881H215.527H219.06V744.413V749.991V753.523H215.527H207.391V755.568V759.1H203.859H174.89H171.357V755.568V730.418H168.854H160.316V732.462V735.995H156.784H148.648V744.015V747.548H145.116H143.015V755.568V759.1H139.483H131.347V761.543V765.075H127.815H125.312V767.121V770.653H121.78H108.011V781.514H110.111H113.643V785.046V787.489H127.815H131.347V791.022V793.067H145.116H148.648V796.599V819.306V822.838H145.116H143.015V830.859V833.7V834.391V837.232V842.81V846.342H139.483H136.98V848.386V851.919H133.447H128.217H124.685V848.386V846.342H122.182H118.649V842.81V840.367H108.011V854.362V857.894H104.479H101.976V862.781H116.146H119.679V866.313V868.358H127.815H131.347V871.891V877.467V881H127.815H125.312V883.045V886.577H121.78H113.643V894.996V898.528H110.111H108.011V920.544H110.111H113.643V924.077V926.544H115.478H119.01V930.076V943.578H123.359H126.891V947.11V953.977V957.509H123.359H119.01V958.684H123.359H126.891V962.216V966.254C127.459 966.235 128.056 966.195 128.722 966.149H128.723C129.42 966.102 130.194 966.049 131.09 966.011L134.773 965.855V969.54V976.864V980.397H131.24H126.891V996.22H131.24H134.773V999.752V1011.78H138.658H142.19V1015.32V1022.18V1025.71H138.658H134.773V1037.29V1040.82H131.24H126.891L126.891 1041.87V1041.87V1049.78H131.24H134.773V1053.31V1057.1H138.658H142.19V1060.63V1072.67H144.861V1068.42V1064.88H148.393H161.838H165.37V1068.42V1072.67H169.719H173.252V1076.2V1079.99H174.995V1076.2V1072.67H178.528H188.726H188.727L190.294 1072.67V1068.42V1064.88H193.827H204.488H204.49L205.593 1064.88V1060.63V1057.1H209.126H216.08H219.612V1060.63V1064.88H223.497H227.03V1068.42V1072.67H231.379H234.911V1076.2V1079.99H239.26H242.792V1083.52V1095.55H274.67V1091.3V1087.77H278.203H282.088V1083.52V1079.99H285.62H289.969V1068.42V1064.88H293.501H297.387V1060.63V1057.1H300.919H306.144V1052.76V1022.87V1020.03V1019.34V1016.5V1002.51H298.009H294.477V998.973V993.791V990.259H298.009H300.11V976.259V972.727H301.473ZM309.677 1057.1V1060.63H306.144H304.451H300.919V1064.17V1064.88V1068.42H297.387H297.034H293.501V1071.95V1079.99V1083.52H289.969H289.153H285.62V1087.05V1087.77V1091.3H282.088H281.735H278.203V1094.84V1095.55V1099.09H274.67H242.792H239.26V1095.55V1087.05V1083.52H235.727H234.911H231.379V1079.99V1079.73V1076.2H227.846H227.03H223.497V1072.67V1071.95V1068.42H219.965H219.612H216.08V1064.88V1064.17V1060.63H212.658H212.547H209.126V1064.17L209.125 1064.88L209.126 1068.42H205.593H204.49H197.359H193.827V1071.95V1072.67V1076.2H190.294L189.658 1076.2L188.727 1076.2H182.06H178.528V1079.73V1079.99V1083.52H174.995H173.252H169.719V1079.99V1079.73V1076.2H166.187H165.37H161.838V1072.67V1071.95V1068.42H158.306H151.926H148.393V1071.95V1072.67V1076.2H144.861H142.19H138.658V1072.67V1064.17V1060.63H135.125H134.773H131.24V1057.1V1056.84V1053.31H127.708H126.891H123.359V1049.78V1041.87V1040.82V1037.29L126.891 1037.29L127.708 1037.29H131.24V1033.76V1025.71V1022.18H134.773H135.125H138.658V1018.85V1018.65V1015.32H135.125H134.773H131.24V1011.78V1003.28V999.752H127.708H126.891H123.359V996.22V980.397V976.864H126.891H127.708H131.24V973.332V973.076V969.54C130.57 969.569 129.921 969.613 129.284 969.657C128.753 969.694 128.229 969.73 127.708 969.755C126.287 969.825 124.879 969.819 123.359 969.54V965.749V962.216H119.826H119.01H115.478V958.684V957.509V953.977H119.01H119.826H123.359V950.643V950.444V947.11H119.826H119.01H115.478V943.578V933.608V930.076H113.643H111.945H110.111V927.609V926.544V924.077H108.011H106.579H104.479V920.544V898.528V894.996H106.579H108.011H110.111V891.463V886.577V883.045H113.643H118.247H121.78V881V879.512V877.467H124.283H125.312H127.815V875.423V873.935V871.891H124.283H119.679H116.146V869.845V868.358V866.313H112.614H101.976H98.4434V862.781V857.894V854.362H100.946H101.976H104.479V850.83V840.367V836.834H108.011H118.649H122.182V839.277V840.367V842.81H124.685H125.714H128.217V844.854V846.342V848.386H129.915H131.749H133.447V846.342V844.854V842.81H135.95H136.98H139.483V840.765V839.277V837.232H136.98H135.95H133.447V834.391V833.7V830.859H135.95H136.98H139.483V827.326V822.838V819.306H141.584H143.015H145.116V815.773V800.132V796.599H141.584H131.347H127.815V794.554V793.067V791.022H124.283H113.643H110.111V788.579V787.489V785.046H108.011H106.579H104.479V781.514V770.653V767.121H108.011H118.247H121.78V765.075V763.588V761.543H124.283H125.312H127.815V759.1V758.011V755.568H131.347H135.95H139.483V752.035V747.548V744.015H141.584H143.015H145.116V740.483V735.995V732.462H148.648H153.251H156.784V730.418V728.93V726.886H160.316H165.322H168.854V724.443V723.353V720.91H172.387H177.393H180.925V723.751V724.443V727.284H178.422H177.393H174.89V730.816V752.035V755.568H178.422H200.326H203.859V753.523V752.035V749.991H207.391H211.995H215.527V747.946V746.459V744.413H213.024H211.995H209.492V740.881V724.443V720.91H211.995H213.024H215.527V717.378V713.288V709.756H213.024H211.995H209.492V706.914V706.224V703.382H213.024H224.065H227.598V706.914V711.402V714.935H230.101H231.13H233.633V717.378V718.467V720.91H235.733H237.165H239.266V723.353V724.443V726.886H241.768H242.798H245.301V728.93V730.418V732.462H247.402H248.833H250.934V735.995V740.483V744.015H253.437H254.467H256.969V746.459V747.548V749.991H258.668H260.502H262.2V747.548V746.459V744.015H265.732H294.477H298.009V746.459V747.548V749.991H300.11H301.541H303.642V752.035V753.523V755.568H307.175H317.813H321.345V759.1V763.588V767.121H324.878H335.114H338.646V765.075V763.588V761.543H342.179H352.817H356.349V765.075V798.644V802.176H358.852H359.882H362.385V804.221V805.708V807.754H364.083H365.917H367.615V805.708V804.221V802.176H371.147H376.153H379.686V804.221V805.708V807.754H383.218H388.224H391.756V811.286V845.253V848.785H389.253H388.224H385.721V852.318V856.407V859.939H388.224H389.253H391.756V863.472V868.358V871.891H389.253H388.224H385.721V875.423V879.512V883.045H388.224H389.253H391.756V886.577V891.463V894.996H393.857H395.289H397.39V898.528V908.593V912.125H399.893H400.922H403.425V915.658V926.52V930.052H400.922H399.893H397.39V933.584V938.072V941.604H393.857H389.253H385.721V945.137V949.624V953.156H382.189H377.586H374.053V955.6V956.689V959.132H370.521H359.48H355.947V955.6V945.137V941.604H354.249H352.415H350.717V943.649V945.137V947.182H348.214H347.185H344.682V949.624V950.714V953.156H341.149H318.44H314.908V950.714V949.624V947.182H313.209H311.376H309.677V950.714V955.202V958.734H311.778H313.209H315.31V962.266V972.727V976.259H311.778H307.175H303.642V979.791V990.259V993.791H301.541H300.11H298.009V995.441V997.323V998.973H301.541H306.144H309.677V1002.51V1012.96V1016.5H311.778H313.209H315.31V1019.34V1020.03V1022.87H313.209H311.778H309.677V1026.4V1052.76V1057.1ZM36.0853 746.21C36.0003 746.278 36.0024 746.41 36.0042 746.517C36.0043 746.526 36.0045 746.535 36.0046 746.543C36.0047 746.551 36.0047 746.559 36.0046 746.567C36.0032 746.786 36.0036 747.004 36.0041 747.223C36.0042 747.287 36.0044 747.351 36.0045 747.416C36.0045 747.458 36.0045 747.501 36.0045 747.544V747.915V751.447H34.451H32.4722H30.9186V749.689V747.915V746.157H27.3863H24.128H20.5956V747.915V749.689V751.447H18.9917H17.0633H15.4593V753.155V754.98V756.687H13.805H11.9269H10.2726V760.219V763.633V767.165H8.6687H6.74025H5.13632V768.872V770.697V772.404H3.53238H1.60393H0V774.214V775.937V777.746H1.60393H3.53238H5.13632V781.279V798.703V814.232L12.5526 814.284V817.824V821.356H14.8105H16.0849H18.3429V824.888V824.896V828.428H21.5658H21.8752H25.0982V831.961V831.968V835.5H28.6306H58.2377H61.7701V831.968V831.961V828.428H64.028H65.3024H67.5604V824.896V817.816V814.284H70.7833H71.0927H74.3157V810.752V803.672V800.14H77.5387H77.8481H81.0711V796.608V796.6V793.068H77.8481H77.5387H74.3157V790.538V789.535V787.006H77.5387H77.8481H81.0711V783.474V768.315V764.78C81.0711 764.78 79.4826 764.854 77.5387 764.857C76.5031 764.859 75.3666 764.841 74.3157 764.78V762.25V758.718H72.1099V755.185V754.98V751.447H68.5775H65.2689H61.7365V753.155V754.98V756.687H60.1829H58.2042H56.6505V754.98V753.155V751.447H55.0467H53.1182H51.5143V747.915V744.45V740.917H47.9819H44.7237H41.1913V742.624V744.45V746.157H37.6589H36.5082C36.4828 746.157 36.4546 746.155 36.4249 746.154C36.3086 746.149 36.169 746.142 36.0853 746.21ZM44.7237 744.45V746.157V749.689H41.1913H39.5369V751.447V754.98H36.0045H30.9186H27.3863V751.447V749.689H24.128V751.447V754.98H20.5956H18.9917V756.687V760.219H15.4593H13.805V767.165V770.697H10.2726H8.6687V772.404V774.214V775.937V777.746V798.703V810.724L12.5773 810.752L16.0849 810.776V814.284V817.824H18.3429H21.8752V821.356V824.896H25.0982H28.6306V828.428V831.968H58.2377V828.428V824.896H61.7701H64.028V814.284V810.752H67.5604H70.7833V800.14V796.608H74.3157H77.5387V796.6H74.3157H70.7833V793.068V787.006V783.474H74.3157H77.5387V768.39C76.4562 768.391 75.2478 768.372 74.1111 768.306L70.7833 768.113V764.78V762.25H68.5775V758.718V754.98H65.2689V756.687V760.219H61.7365H56.6505H53.1182V756.687V754.98H51.5143H47.9819V751.447V744.45H44.7237ZM39.5369 746.591C39.5373 746.532 39.5364 746.48 39.5362 746.466L39.536 746.463C39.5361 746.476 39.5363 746.523 39.5329 746.591L39.5369 746.591ZM36.2479 749.682C36.2385 749.682 36.2365 749.682 36.2441 749.682L36.2479 749.682Z" fill="#0049FF"/>
</svg>
