<svg width="1947" height="1504" viewBox="0 0 1947 1504" fill="none" xmlns="http://www.w3.org/2000/svg">
<path d="M776.932 1330.72H781.758V1326.86H784.653V1322.03H788.514V1319.14H793.339V1314.31H803.956V1308.52H809.746V1297.9H814.572V1290.56H819.398V1296.74H836.912V1291.45H847.239V1286.01H852.926V1280.77H857.865V1275.83H868.64V1270.3H872.695V1273.77H881.166V1277.64H885.027V1273.77H891.783V1276.67H895.643V1283.43H925.562V1279.89H932.318V1276.67H939.074V1273.77H941.969V1270.3H945.83V1267.98H963.202V1270.3H968.028V1253.43H990.229V1202.72H996.219V1210.59H1003.29V1205.19H1016.55V1210.59H1025.57V1183.97H1030.59V1163.56H1025.57V1148.24H1021.41V1132.34H1025.57V1127.34H1021.41V1122.99H1015.1V1116.6H1010.26V1101.77H1001.74V1067.92H994.853V1061.53H981.575V1056.94H967.396V1052.84H957.807V1043.25H951.988V1027.18H946.988V1021.61H941.497V1017.02H936.17V995.466H931.416V984.818H925.699V974.374H920.729V963.426H916.048V969.62H905.387V967.78H900.241V978.274H895.32V986.71H885.529V978.274H860.364V985.989H865.956V999.226H862.893V994.191H841.929V989.143H836.586V979.278H831.448V973.42H825.899V962.939H815.931V957.903H789.727V952.971H784.029V942.238H779.043V936.712H770.861V941.539H767.905V915.792H739.148V925.736H728.493V931.419H725.998V925.736H712.866V936.391H707.184V942.073H689.062V931.419H683.38V925.736H675.93V931.419H667.753V925.736H660.304V931.419H654.621V936.391H644.677V942.073H638.995V947.045H634.022V962.672H628.34V973.619H634.022V988.954H628.34V1043.26H607.066V1048.23H602.094V1069.55H597.122V1074.52H591.44V1080.2H580.785V1085.74H576.185V1090.4H565.159V1095.83H560.186V1100.8H554.504V1106.48H544.56V1113.93H549.532V1127.08H547.037V1117.14H538.877V1132.76H533.905V1164.02H528.223V1169.7H518.279V1174.67H512.596V1185.33H496.97V1190.3H491.287V1195.98H488.792V1190.3H475.661V1211.61H470.688V1219.05H475.661V1222.26H470.688V1232.92H465.006V1237.88H460.034V1242.86H455.062V1248.55H444.407V1253.52H438.725V1290.45H433.753V1311.76H428.781V1316.73H423.098V1322.41H418.126V1332.36H412.443V1345.49H418.126V1348.69H412.443V1381.83H407.471V1386.81H396.816V1392.49H391.844V1404.07M393.774 1404.07H388.037V1407.93H384.123V1434.84H388.037V1438.75H391.951V1442.66L428.153 1442.66C428.956 1442.66 431.088 1442.66 431.088 1442.66V1438.75C432.827 1438.75 434.568 1438.77 436.307 1438.75C437.036 1438.74 438.916 1438.75 438.916 1438.75V1434.84H447.07C447.923 1434.83 450.331 1434.84 450.331 1434.84V1430.92H458.485C459.338 1430.92 461.746 1430.92 461.746 1430.92V1427.01L468.089 1427.01V1423.42H475.591V1419.51H483.418V1415.59H491.246V1411.68H502.661V1407.76L512.486 1407.76V1404.17H530.75V1407.76H539.23V1404.17H547.057V1400.26H550.126V1404.07H561.707V1396.35H566.533V1404.07H572.324V1408.89H577.149V1414.68H580.045V1426.26H583.905V1431.09H587.766V1434.95H600.313V1431.09H604.173V1426.26H615.755V1422.4H630.232V1427.23H635.057V1422.4H649.534V1418.54H658.22V1414.68H662.081V1409.86H669.802V1406H673.663V1402.14H677.523V1397.31H681.384V1393.45H685.244V1389.59H689.105V1384.76H695.861V1380.9H700.686V1376.08H712.268V1373.18H715.163V1376.08H722.884V1372.22H732.536V1368.36H739.291V1364.5H743.152V1360.64H750.873V1355.81H754.734V1350.98H758.594V1348.09H762.455V1343.26H766.315V1339.4H774.036V1335.54H777.897V1328.79" stroke="#0049FF" stroke-width="3.53238"/>
</svg>
