<svg width="1947" height="1504" viewBox="0 0 1947 1504" fill="none" xmlns="http://www.w3.org/2000/svg">
<path fill-rule="evenodd" clip-rule="evenodd" d="M1738.77 681.467V680.804V679.701H1740.06V679.673V678.713V676.168V675.181H1741.28H1743.6H1744.81V671.649V669.494V665.961H1748.34H1750.59H1754.12V664.612V662.429V661.08H1752.9H1750.59H1749.37V660.274V657.548V656.741H1752.9H1759.89H1763.42V655.573V653.209V652.041H1766.96H1769.21H1772.74V651.054V648.509V647.521H1773.76H1776.27H1777.3V643.989V637.314V633.782H1778.51H1780.83H1782.04V630.249V628.094V624.562H1783.08H1785.58H1786.61V621.03V618.694V615.161H1785.58H1783.08H1782.04V611.629V595.553V592.02H1780.83H1778.51H1777.3V591.214V588.488V587.681H1778.51H1780.83H1782.04V586.513V584.149V582.981H1785.58H1787.82H1791.35V579.449V572.593V569.061H1790.14H1787.82H1786.61V567.893V565.528V564.36H1783.08H1780.83H1777.3V563.373V560.828V559.841H1773.76H1766.96H1763.42V558.673V556.308V555.141H1759.89H1748.16H1744.63V556.308V558.673V559.841H1743.41H1741.1H1739.88V560.828V563.373V564.36H1738.85H1736.35H1735.32V565.528V567.893V569.061H1731.78H1729.54H1726.01V570.048V572.593V573.58H1724.98H1722.48H1721.44V574.748V577.113V578.281L1717.91 578.278L1697.45 578.264V575.965H1694.77V575.171V572.433V571.639H1692.61V568.107V564.532V561.14V561H1692.4H1689.08H1689H1688.03H1684.5V557.608H1688.03H1688.87H1689H1692.4V557.468V554.075V544.148V540.615H1695.93H1698.11L1699.07 536.692H1703.03L1703.84 533.757L1704.56 531.193L1704.83 530.224H1703.03L1703.03 529.723L1703.01 527.661L1703.03 527.661L1704.83 527.661H1706.55H1709.21H1713.35H1716.89V526.673V524.128V523.141H1720.42H1736.35H1739.88V524.128V526.673V527.661H1743.41H1745.66H1749.19V531.193V533.348V536.881H1750.4H1752.72H1753.94V538.049V540.413V541.582H1757.47H1759.71H1763.24V545.114V547.269V550.802H1764.28H1766.77H1767.81V551.789V554.334V555.321H1771.34H1787.64H1791.17V556.489V558.854V560.022H1792.2H1794.7H1795.73V561.009V563.554V564.541H1799.27H1810.81H1814.35V565.709V568.074V569.242H1817.88H1819.28H1820.75H1824.28V569.465V572.774V572.997H1825.36H1827.81H1828.89V576.529V582.605V586.138H1832.42H1834.01H1837.54V587.176V589.67V590.709H1839.2H1841.07H1842.73V587.176V586.709H1846.26L1851.96 586.709C1852.1 586.708 1852.26 586.707 1852.45 586.706C1852.63 586.706 1852.83 586.705 1853.04 586.705C1854.54 586.703 1856.57 586.709 1856.57 586.709C1856.57 586.709 1856.56 584.634 1856.56 583.176C1856.56 582.758 1856.57 582.391 1856.57 582.138C1856.9 582.135 1857.27 582.132 1857.65 582.131C1859.29 582.125 1861.18 582.138 1861.18 582.138C1861.18 582.138 1861.17 580.307 1861.17 578.606C1861.18 578.248 1861.18 577.896 1861.18 577.568H1861.69H1865.22V576.529V574.035V572.997H1866.3H1868.75H1869.83V569.465V568.998C1870.16 568.994 1870.53 568.991 1870.91 568.99C1872.58 568.984 1874.44 568.998 1874.44 568.998C1874.44 568.998 1874.43 567.139 1874.44 565.465C1874.44 565.206 1874.44 564.951 1874.44 564.708C1874.44 564.613 1874.44 564.519 1874.44 564.427C1875.03 564.413 1875.62 564.406 1876.16 564.403C1877.79 564.395 1879.06 564.427 1879.06 564.427H1879.69V560.895V560.022V526.493V522.96H1878.66H1876.16H1875.13V519.428V512.572V509.04H1873.91H1871.6H1870.38V508.234V505.508V504.701H1871.6H1873.91H1875.13V503.533V501.169V500.001H1876.16H1878.66H1879.69V499.014V496.469V495.481H1880.9H1883.23H1884.43V494.133V491.949V490.6H1883.23H1880.9H1879.69V489.613V487.068V486.081H1878.66H1876.16H1875.13V485.093V482.548V481.561H1876.16H1878.66H1879.69V480.574V478.029V477.041H1880.9H1883.23H1884.43V473.509V466.472V462.94H1883.23H1880.9H1879.69V462.133V459.407V458.601H1880.9H1883.23H1884.43V457.433V455.068V453.9H1885.47H1887.97H1889V450.368V448.032V444.5H1885.47H1883.23H1879.69V440.967V438.812V435.28H1878.48H1876.16H1874.95V436.448V438.812V439.98H1873.91H1871.41H1870.38V438.812V436.448V435.28H1866.85H1860.05H1856.52V431.747V429.773V426.241H1857.54H1860.05H1861.07V422.708V420.553V417.021H1862.29H1864.61H1865.82V416.034V413.488V412.501H1866.85H1869.35H1870.38V411.333V408.969V407.801H1871.6H1873.91H1875.13V406.633V404.268V403.1H1871.6H1864.61H1861.07V401.933V399.568V398.4H1860.05H1857.54H1856.52V397.413V394.868V393.881H1852.98H1836.68H1833.15V392.712V390.348V389.179H1832.12H1829.62H1828.59V385.647V374.453V370.92H1827.37H1825.06H1823.84V369.752V367.388V366.22H1822.63H1820.31H1819.09V367.388V369.752V370.92H1818.07H1815.56H1814.54V369.752V367.388V366.22H1811H1808.57H1805.04V367.388V369.752V370.92H1801.51H1799.45H1795.92V369.752V367.388V366.22H1794.88H1792.38H1791.35V365.233V362.688V361.7H1787.82H1785.58H1782.04V360.532V358.168V357H1780.65H1778.51H1777.11V358.168V360.532V361.7H1773.58H1762.04H1758.5V362.688V365.233V366.22H1757.65H1754.97H1754.12V365.233V362.688V361.7H1750.59H1743.41H1739.88V362.868V365.233V366.401H1741.1H1743.41H1744.63V367.388V369.933V370.92H1741.1H1738.85H1735.32V371.907V374.453V375.44H1734.29H1731.78H1730.76V376.789V378.972V380.321H1731.78H1734.29H1735.32V381.127V383.853V384.66H1734.29H1731.78H1730.76V385.647V388.192V389.179H1729.72H1727.23H1726.19V388.192V385.647V384.66H1722.66H1720.24H1716.7V385.647V388.192V389.179H1715.67H1713.17H1712.14V392.712V408.969V412.501H1715.67H1727.23H1730.76V413.308V416.034V416.84H1729.54H1727.23H1726.01V420.372V427.228V430.76H1724.98H1722.48H1721.44V434.293V436.629V440.161H1722.48H1724.98H1726.01V440.967V443.693V444.5H1722.48H1720.42H1716.89V443.513V440.967V439.98H1713.35H1710.92H1707.39V440.967V443.513V444.5H1703.86H1701.62H1698.08V448.032V454.888V458.42H1697.05H1694.55H1693.52V461.952V464.289V467.822H1694.55H1697.05H1698.08V468.628V471.354V472.16H1694.55H1692.31H1688.78V473.509V475.693V477.041H1689.99H1692.31H1693.52V480.574V487.249V490.781H1697.05H1699.3H1702.83V491.768V494.313V495.301H1699.3H1697.05H1693.52V496.288V498.833V499.82H1692.31H1689.99H1688.78V500.988V503.352V504.52H1687.74H1685.25H1684.21V505.508V508.053V509.04H1683.19H1680.68H1679.65V508.053V505.508V504.52H1678.44H1676.12H1674.91V505.508V508.053V509.04H1671.37H1669.31H1665.78V508.053V505.508V504.52H1664.38H1662.25H1660.85V508.053V510.208V513.74H1660H1657.32H1656.47V512.572V510.208V509.04H1652.93H1650.51H1646.98V512.572V523.947V527.48H1643.45H1636.46H1632.93V531.012V537.869V541.401H1631.89H1629.39H1628.36V542.569V544.933V546.101H1631.89H1634.14H1637.67V549.634V556.489V560.022H1638.7H1641.21H1642.23V560.828V563.554V564.36H1641.21H1638.7H1637.67V565.528V567.893V569.061H1636.64H1634.14H1633.11V567.893V565.528V564.36H1631.89H1629.58H1628.36V567.893V570.048V573.58H1627.15H1624.83H1623.62V574.929V577.113V578.461H1624.83H1627.15H1628.36V579.268V581.994V582.8H1627.15H1624.83H1623.62V586.333V593.188V596.721H1620.09H1608.53H1605V597.888V600.253V601.421H1606.22H1608.53H1609.75V604.953V617.262V620.794H1613.28H1616.53H1620.06V621.926V624.327V625.458H1623.59H1650.88H1654.41V624.327V621.926V620.794H1657.94H1659.31H1662.85V621.926V624.327V625.458H1666.38H1668.35H1671.88V628.99V639.997V643.53H1673.17H1675.42H1676.71V644.661V647.062V648.193H1679.2H1680.24H1682.73C1682.73 648.193 1682.71 646.661 1682.72 644.661C1682.72 644.297 1682.73 643.918 1682.73 643.53H1691.85H1695.39V647.062V653.405V656.938H1696.67H1698.92H1700.21V658.069V660.47V661.601H1701.5H1703.74H1705.03V662.732V665.134V666.265H1706.32H1708.56H1709.85V667.396V669.797V670.928H1713.38H1720.18H1723.71V674.461V680.804V684.336H1725H1727.24H1728.53V685.468V687.869V689H1730.42H1732.06H1733.95V687.869V685.468V684.336H1735.24H1737.49H1738.77V683.233V681.467ZM1736.53 676.168H1735.24V677.934H1730.76V680.804H1730.42H1728.53H1727.24V670.928V667.396H1723.71H1713.38V666.265V662.732H1709.85H1708.56V661.601V658.069H1705.03H1703.74V656.938V653.405H1700.21H1698.92V643.53V639.997H1695.39H1682.73H1680.24H1679.24H1676.71H1675.42V625.458V621.926H1671.88H1666.38V620.794V617.262H1662.85H1654.41H1650.88V620.794V621.926H1623.59V620.794V617.262H1620.06H1613.28V601.421V600.253H1623.62H1627.15V596.721V586.333H1628.36H1631.89V582.8V578.461V577.113V574.929V573.58V572.593H1633.11H1637.67H1641.21V569.061V567.893H1642.23H1645.76V564.36V560.022V556.489H1642.23H1641.21V546.101V542.569H1637.67H1636.46V541.401V531.012H1646.98H1650.51V527.48V512.572H1652.93V513.74V517.273H1656.47H1660.85H1664.38V513.74V512.572H1665.78H1674.91H1676.12H1678.44H1679.65H1684.21H1687.74V509.04V508.053H1688.78H1692.31V504.52V503.352H1693.52H1697.05V499.82V498.833H1702.83H1706.36V495.301V490.781V487.249H1702.83H1697.05V477.041V475.693H1698.08H1701.62V472.16V467.822V464.289H1698.08H1697.05V461.952H1698.08H1701.62V458.42V448.032H1707.39H1710.92V444.5V443.513H1713.35V444.5V448.032H1716.89H1726.01H1729.54V444.5V440.161V436.629H1726.01H1724.98V434.293H1726.01H1729.54V430.76V420.372H1730.76H1734.29V416.84V412.501V408.969H1730.76H1715.67V392.712H1716.7H1720.24V389.179V388.192H1722.66V389.179V392.712H1726.19H1730.76H1734.29V389.179V388.192H1735.32H1738.85V384.66V380.321V378.972V376.789V375.44V374.453H1744.63H1748.16V370.92V366.401V365.233H1750.59V366.22V369.752H1754.12H1758.5H1762.04V366.22V365.233H1777.11H1778.51H1780.65H1782.04H1787.82V366.22V369.752H1791.35H1792.38V370.92V374.453H1795.92H1805.04H1808.57V370.92V369.752H1811V370.92V374.453H1814.54H1819.09H1820.31H1822.63H1823.84H1825.06V389.179V392.712H1828.59H1829.62V393.881V397.413H1833.15H1852.98V398.4V401.933H1856.52H1857.54V403.1V406.633H1861.07H1866.85V407.801V408.969H1865.82H1862.29V412.501V413.488H1861.07H1857.54V417.021V422.708H1856.52H1852.98V426.241V435.28V438.812H1856.52H1866.85V439.98V443.513H1870.38H1874.95H1876.16V444.5V448.032H1879.69H1885.47V450.368H1884.43H1880.9V453.9V455.068H1879.69H1876.16V458.601V462.94V466.472H1879.69H1880.9V473.509H1879.69H1876.16V477.041V478.029H1875.13H1871.6V481.561V486.081V489.613H1875.13H1876.16V490.6V491.949V494.133V495.481V496.469H1875.13H1871.6V500.001V501.169H1870.38H1866.85V504.701V509.04V512.572H1870.38H1871.6V522.96V526.493H1875.13H1876.16V560.022V560.871C1875.59 560.873 1874.98 560.881 1874.36 560.896L1870.95 560.978L1870.91 564.385C1870.91 564.72 1870.91 565.085 1870.9 565.457C1870.52 565.459 1870.14 565.461 1869.79 565.466L1866.3 565.507V568.998V569.465H1865.22H1861.69V572.997V574.035H1861.18H1857.69L1857.65 577.525C1857.65 577.866 1857.64 578.23 1857.64 578.598C1857.25 578.6 1856.87 578.602 1856.53 578.606L1853.08 578.647L1853.04 582.095C1853.03 582.362 1853.03 582.744 1853.03 583.173C1852.61 583.173 1852.23 583.174 1851.94 583.176L1851.93 583.176L1842.73 583.177L1841.07 583.177V582.605H1837.54H1832.42V572.997V569.465H1828.89H1827.81V569.242V565.709H1824.28H1819.28H1817.88V564.541V561.009H1814.35H1799.27V560.022V556.489H1795.73H1794.7V555.321V551.789H1791.17H1771.34V550.802V547.269H1767.81H1766.77V541.582V538.049H1763.24H1757.47V536.881V533.348H1753.94H1752.72V527.661V524.128H1749.19H1743.41V523.141V519.609H1739.88H1716.89H1713.35V523.141V524.128H1703.01H1699.46L1699.48 527.68L1699.5 530.244L1699.51 533.159H1699.07H1696.29L1695.63 535.858L1695.34 537.083H1692.4H1688.87V540.615V554.075H1684.5H1680.97V557.608V561V564.532H1684.5H1689H1689.08V571.639V575.171H1691.24V575.965V579.498H1693.91V581.794L1697.44 581.797L1721.44 581.813L1724.98 581.815V578.281V577.113H1726.01H1729.54V573.58V572.593H1735.32H1738.85V569.061V567.893H1739.88H1743.41V564.36V563.373H1744.63H1748.16V559.841V558.673H1759.89V559.841V563.373H1763.42H1773.76V564.36V567.893H1777.3H1783.08V569.061V572.593H1786.61H1787.82V579.449H1782.04H1778.51V582.981V584.149H1777.3H1773.76V587.681V592.02V595.553H1777.3H1778.51V615.161V618.694H1782.04H1783.08V621.03H1782.04H1778.51V624.562V630.249H1777.3H1773.76V633.782V643.989H1772.74H1769.21V647.521V648.509H1763.42H1759.89V652.041V653.209H1749.37H1745.84V656.741V661.08V662.429H1744.81H1741.28V665.961V671.649H1740.06H1736.53V675.181V676.168ZM1794.42 719.447L1794.46 722.937C1794.47 723.301 1794.47 723.748 1794.47 724.22C1794.9 724.222 1795.33 724.225 1795.76 724.23L1799.25 724.271V727.762V728.415H1800.5H1804.03V731.947V733.198H1820.9V731.947V728.415H1824.43H1869.89H1873.38L1873.42 731.905C1873.43 732.268 1873.43 732.715 1873.43 733.188C1873.86 733.19 1874.29 733.193 1874.72 733.198L1878.17 733.239L1878.21 736.689C1878.21 737.022 1878.21 737.481 1878.22 737.981H1895.67V736.73V733.198H1899.2H1909.43L1909.43 726.59L1909.43 726.579C1909.43 726.253 1909.42 725.809 1909.42 725.322C1908.91 725.321 1908.45 725.319 1908.13 725.315L1904.64 725.273V721.783V718.925H1902.49H1898.95V715.393V710.291H1898.17H1894.64V706.759V701.657H1893.85H1890.32V698.125V697.34H1885.22H1881.69V693.808V693.023H1876.58H1873.05V689.491V688.706H1868.04H1864.51V685.174V684.389H1863.72H1860.19V680.857V680.072H1859.41H1855.88V676.54V675.755H1842.14H1838.61V672.223V671.529H1837.82H1834.29V667.996V667.211H1833.51H1829.97V663.679V662.894H1829.19H1825.65V659.362V654.26H1824.87H1821.34V650.728V641.309H1820.55H1817.02V637.777V636.992H1815.45V637.777V638.651V641.309V642.184V646.411V649.943H1811.92H1811.14V655.045V658.577H1807.61H1806.82V663.679V667.211H1803.28H1802.5V667.996V671.529H1798.97H1798.18V677.415H1798.97H1802.5V680.947V689.491V693.023H1798.97H1798.18V693.808V697.34H1794.65H1789.55V698.125V701.657H1786.02H1785.24V703.317H1786.02H1789.55V706.849V707.634H1790.27V711.166V719.447H1790.93H1794.42ZM1781.7 701.657V698.125H1782.48H1785.24H1786.02V697.34V694.592V693.808H1789.55H1791.12H1794.65V693.023V690.275V689.491H1795.44H1798.18H1798.97V685.958V684.48V680.947H1798.18H1795.44H1794.65V677.415V671.529V667.996H1795.44H1798.18H1798.97V667.211V664.464V663.679H1799.75H1802.5H1803.28V660.147V658.577V655.045H1804.07H1806.82H1807.61V651.513V649.943V646.411H1808.39H1811.14H1811.92V645.716V642.879V642.184H1811.14H1808.39H1807.61V641.309V638.651V637.777H1808.39H1811.14H1811.92V636.992V634.245V633.46H1815.45H1817.02H1820.55V634.245V636.992V637.777H1821.34H1824.08H1824.87V641.309V647.196V650.728H1825.65H1828.41H1829.19V654.26V655.83V659.362H1829.97H1832.72H1833.51V660.147V662.894V663.679H1834.29H1837.04H1837.82V664.464V667.211V667.996H1838.61H1841.35H1842.14V668.69V671.529V672.223H1845.67H1855.88H1859.41V673.007V675.755V676.54H1860.19H1862.94H1863.72V677.324V680.072V680.857H1864.51H1867.25H1868.04V681.641V684.389V685.174H1871.58H1873.05H1876.58V685.958V688.706V689.491H1880.12H1881.69H1885.22V690.275V693.023V693.808H1888.75H1890.32H1893.85V694.592V697.34V698.125H1894.64H1897.38H1898.17V701.657V703.226V706.759H1898.95H1901.71H1902.49V710.291V711.86V715.393H1904.64H1906.02H1906.81H1908.18V718.925V721.783C1908.47 721.787 1908.92 721.789 1909.43 721.789C1910.94 721.791 1912.96 721.783 1912.96 721.783C1912.96 721.783 1912.96 723.776 1912.96 725.316C1912.96 725.804 1912.96 726.247 1912.96 726.566L1912.96 733.198V736.73H1909.43H1902.74H1899.2V737.981V740.263V741.513H1895.67H1878.21H1874.68C1874.68 741.513 1874.69 739.52 1874.68 737.981C1874.68 737.492 1874.68 737.049 1874.68 736.73C1874.27 736.725 1873.84 736.722 1873.42 736.72C1871.6 736.713 1869.89 736.73 1869.89 736.73C1869.89 736.73 1869.9 734.794 1869.9 733.198C1869.9 732.733 1869.9 732.298 1869.89 731.947H1827.96H1824.43V733.198V735.48V736.73H1820.9H1804.03H1800.5V735.48V733.198V731.947H1799.25H1796.97H1795.72V728.415V727.762C1795.53 727.76 1795.35 727.758 1795.16 727.757C1794.98 727.755 1794.79 727.754 1794.61 727.753L1794.46 727.752C1792.64 727.745 1790.93 727.762 1790.93 727.762C1790.93 727.762 1790.94 725.827 1790.94 724.229C1790.94 723.766 1790.93 723.33 1790.93 722.979H1790.27H1786.74V719.447V714.699V711.166H1786.02V710.382V707.634V706.849H1785.24H1782.48H1781.7V703.317V701.657ZM1901.03 672.965V672.564V670.191V669.433H1899.49V669.032H1901.03H1902.33V665.9V665.499V651.272V647.74C1902.33 647.74 1900.28 647.753 1899.49 647.74V643.82V640.287H1902.33V636.755V635.303V631.77H1905.17V628.238V622.528V618.995H1902.33V615.463V614.543V611.011H1905.17V607.478V606.026V602.494H1902.33V601.768V598.961V598.235H1900.28H1898.8H1896.75V596.578H1893.21H1891.6H1888.07V597.337V600.111V600.869H1884.54H1883.02H1879.49V601.627V604.401V605.16H1875.96H1874.53H1871V606.22H1867.47H1866.04H1862.5V605.16H1858.97H1853.17H1849.63V601.627V595.82V592.287H1848.79H1846.1H1845.26V593.046V595.82V596.578H1844.49H1841.72H1840.96V597.337V600.111V600.869H1837.43H1835.91H1832.38V601.627V604.401V605.16H1831.71H1828.85H1828.18V604.401V601.627V600.869H1824.64H1823.04H1819.51V601.627V604.401V605.16H1818.75H1815.98H1815.22V605.918V608.692V609.451H1814.55H1811.68H1811.01V610.12V612.983V613.652H1810.26H1807.48H1806.73V614.5V617.185V618.032H1807.48H1810.26H1811.01V618.791V621.565V622.323H1814.55H1815.98H1819.51V623.081V625.855V626.614H1823.04H1824.56H1828.09V627.372V630.146V630.905H1828.85H1831.63H1832.38V634.437V653.117V656.649H1833.14H1835.91H1836.67V657.408V660.182V660.94H1840.21H1841.72H1845.26V661.699V664.473V665.231H1848.79H1854.59H1858.12V665.989V668.763V669.522H1861.66H1863.17H1866.71V670.191V673.054V673.724H1867.47H1870.24H1871V674.482V677.256V678.014H1871.67H1874.53H1875.2V678.773V681.547V682.305H1875.96H1878.74H1879.49V683.064V685.838V686.596H1883.02H1884.63H1888.16V685.838V683.064V682.305H1891.7H1892.45H1893.12H1896.65V678.773V677.256V673.724H1897.5H1900.19H1901.03V672.965ZM1895.96 665.499H1898.8V651.26L1895.96 651.21V647.74V640.287V636.755H1898.8V631.77V628.238H1901.64V622.528H1898.8V618.995V611.011V607.478H1901.64V606.026H1898.8V602.494V601.768H1896.75H1893.21V600.111H1891.6V600.869V604.401H1888.07H1883.02V605.16V608.692H1879.49H1874.53V609.752H1871H1862.5H1858.97V608.692H1849.63H1846.1V605.16V600.111H1845.26H1844.49V600.869V604.401H1840.96H1835.91V605.16V608.692H1832.38H1828.18H1824.64V605.16V604.401H1823.04V605.16V608.692H1819.51H1818.75V609.451V612.983H1815.22H1814.55V613.652V614.5V617.185V618.032V618.791H1819.51H1823.04V622.323V623.081H1828.09H1831.63V626.614V627.372H1832.38H1835.91V630.905V653.117H1836.67H1840.21V656.649V657.408H1845.26H1848.79V660.94V661.699H1858.12H1861.66V665.231V665.989H1866.71H1870.24V669.522V670.191H1871H1874.53V673.724V674.482H1875.2H1878.74V678.014V678.773H1879.49H1883.02V682.305V683.064H1884.63V682.305V678.773H1888.16H1892.45H1893.12V673.724V670.191H1895.96V669.433V669.032V665.499Z" fill="#0049FF"/>
</svg>
