<svg width="1947" height="1504" viewBox="0 0 1947 1504" fill="none" xmlns="http://www.w3.org/2000/svg">
<path fill-rule="evenodd" clip-rule="evenodd" d="M1474.54 480.085V509.563H1505.71V515.247H1511.39V520.219H1516.36V538.323H1511.39V541.529H1516.36V557.156H1527.02V562.13H1537.67V580.234H1531.99V590.889H1527.02V596.572H1522.04V612.2H1516.36V622.855H1490.09V627.827H1474.45V631.685H1479.38V669.137H1490.04V674.819H1500.69V679.791H1505.66V695.418H1511.34V701.101H1531.94V706.072H1568.88V711.756H1572.09V706.072H1590.19V751.168H1585.21V753.663H1590.19V761.112H1563.91V766.794H1558.94V774.972H1563.91V784.917H1568.88V790.599H1574.56V803.731H1540.12V798.048H1521.73V816.88H1526.97V821.853H1537.62V827.535H1540.12V821.853H1548.28V827.535H1553.26V856.293H1548.28V861.265H1531.98V879.118H1531.99V883.207H1537.67V888.89H1542.64V911.967H1537.67V917.65H1527.02V928.305H1508.81V924.082H1502.81V919.586H1493.16V917.65H1437.52V922.622H1408.76V911.967H1382.48V906.994H1371.82V901.312H1366.85V896.34H1361.17V891.366H1356.2V885.684H1351.23V875.029H1345.55V865.084H1340.57V854.429H1334.89V843.773H1329.92V830.642H1334.89V810.041H1340.57V799.386H1345.55V764.925H1340.57V730.482H1345.55V704.199H1351.23V675.421H1345.55V669.738H1340.57V664.765H1329.92V659.756C1328.51 659.649 1327.38 659.314 1326.5 658.737C1325.42 658.03 1324.82 657.026 1324.5 655.896C1324.19 654.792 1324.13 653.538 1324.14 652.267C1324.15 651.69 1324.17 651.092 1324.19 650.491L1324.19 650.292C1324.2 649.909 1324.22 649.524 1324.22 649.137H1319.26V643.455H1314.29V633.51H1303.63V627.827H1297.95V622.855H1292.98V601.544H1288.01V577.757H1292.98V562.13H1297.95V551.474H1303.63V538.789H1256.03V533.34H1234.55V527.779H1224.8V517.8H1214.93V516.915H1214.93V505.377H1219.9V499.695H1225.58V489.438H1235.95V484.068H1241.21V468.441H1246.18V462.759H1251.87V457.787H1256.84V447.132H1262.52V442.266H1263.46L1294.89 442.266V447.238H1299.86V456.893H1310.52V461.865H1316.2V467.547H1326.14V472.519H1336.79V478.202H1368.76V483.174H1378.36V473.519H1383.33V468.547H1388.31V462.865H1393.99V457.893H1404.64V452.921H1426.3V462.865H1456.5V452.21H1474.59V457.182H1479.57V462.154H1485.25V470.313H1479.57V475.285H1474.59V480.085H1474.54Z" stroke="#0049FF" stroke-width="3.53312"/>
</svg>
