<svg width="1947" height="1504" viewBox="0 0 1947 1504" fill="none" xmlns="http://www.w3.org/2000/svg">
<path d="M1360.61 93.3653H1363.06V88.4883H1381.47V93.3653H1391.2V101.368H1386.34V108.693H1394.34V103.816H1399.2V98.9389H1407.18V103.816H1412.05V116.696H1407.18V121.573H1401.63V124.717H1407.18V136.901H1401.63V142.474H1396.76V147.351H1391.2V152.925H1383.91V147.351H1375.9V152.925H1371.05V157.802H1365.48V191.601H1371.05V196.478H1373.48V191.601H1391.2V206.929H1394.34V202.052H1399.2V194.031H1394.34V188.457H1388.77V176.273H1394.34V155.372H1401.63V160.249H1407.18V165.823H1409.63V160.249H1416.08V145.431H1421.64V134.815H1433.22V129.989H1437.08V124.717H1442.87V118.407H1447.7V113.582H1455.38V119.309H1458.51V114.432H1465.8V134.637H1468.94V129.76H1481.09V134.637H1489.09V119.309L1513.82 119.599V130.05H1518.69V153.381H1513.82V155.828H1524.25V173.585H1518.69V181.607H1524.25V186.484H1533.98V192.057H1537.12V186.484H1541.98V181.607H1553.37V186.222L1558.89 186.194C1558.89 186.194 1558.93 192.158 1558.94 193.327L1558.94 194.196H1553.37V217.545H1558.94V227.996H1563.8V250.63H1558.94V276.409H1553.37V306.557H1548.52V311.434H1542.95V316.311H1538.08V337.212H1527.66V343.491H1522.79V359.514H1517.24V366.84H1522.79V372.413H1527.66V379.719H1522.79V400.62H1486.65V411.072H1481.09V431.276H1471.36V441.727H1456.64V461.436H1427.63V451.682H1403.89V457.559H1393.47V462.436H1387.91V468.009H1383.05V472.886H1378.18V482.337H1369.33V477.46H1337.05V471.886H1326.62V467.009H1316.89V461.436H1311.34V456.559H1299.91V444.108H1295.05V439.231H1265.16V432.095H1265.16V427.98H1254.67V423.103H1249.11V406.044H1254.67V397.325H1249.11V391.752H1244.24V381.301H1238.68V349.61H1244.24V318.257H1249.11V302.93H1254.67V272.444H1254.69V255.456H1258.9V249.883H1264.46V245.005H1269.32V240.128H1274.19V224.572H1279.76V219.695H1284.62V212.503H1291.47V209.359H1284.62V202.052H1291.47V191.601H1296.34V186.028H1301.2V170.7H1317.18V168.253H1311.63V152.925H1306.76V124.717H1311.63V119.144H1322.05V108.693H1332.47V98.9389H1337.34V93.3653H1347.77V88.4883H1360.61V93.3653Z" stroke="#0049FF" stroke-width="3.53312"/>
<path d="M1238.71 106.393V103H1252.57V106.393H1262.81V109.786H1272.86V119.766H1276.28V123.159H1279.69V126.552H1283.11V130.144H1279.69V133.338H1283.11V140.124H1286.52V147.11H1283.11V157.09H1272.86V160.483H1269.44V167.269H1262.81V174.055H1255.78V163.876H1252.37V157.09H1248.95V153.697H1242.12V150.503H1237.51C1237.39 150.503 1237.26 150.51 1237.12 150.518C1236.6 150.546 1235.98 150.579 1235.62 150.298C1235.23 149.992 1235.26 149.332 1235.28 148.817C1235.29 148.705 1235.29 148.6 1235.29 148.507V143.717H1231.88V140.324H1228.67V136.931H1225.25V133.538H1218.42V130.144H1208.18V126.552H1211.59V123.159H1215.01V119.766H1225.25V116.373H1228.67V109.786H1235.29V106.393H1238.71Z" stroke="#0049FF" stroke-width="3.53312"/>
<path d="M1137.51 191.802H1144.87V194.886H1152.24V198.587H1159.6V205.989H1163.28V213.391H1166.97V217.092H1174.33V220.794H1181.69V228.196H1185.38V235.598H1203.79V239.299H1211.15V243H1218.51V239.299H1222.2V235.598H1225.88V220.794H1233.24V217.092H1244.29V202.288H1241.48V195.985H1244.87V185.955H1248.26V182.345H1244.87V175.524H1241.48V172.115H1238.1V168.705H1234.71V165.295H1231.52V161.885H1217.97V158.474H1211.19V155.265H1214.58V152.056H1217.97V141.625H1207.8V138.215H1204.41V131.395H1201.03V127.985H1191.07V124.575H1184.09V127.985H1180.9V124.575H1177.32V134.805H1173.93V138.215H1167.15V141.625H1163.77V145.035H1160.57V148.445H1157.19V151.855H1153.8V158.474H1150.41V161.885H1147.02V168.905H1150.62V165.495H1160.57V168.705H1153.8V172.115H1140.45V168.705H1133.48V185.955H1137.51V191.802Z" stroke="#0049FF" stroke-width="3.53312"/>
</svg>
