<svg width="1947" height="1504" viewBox="0 0 1947 1504" fill="none" xmlns="http://www.w3.org/2000/svg">
<path d="M591.186 414.499V412.733H589.419V414.499H591.186ZM591.186 450.477V452.244H592.952V450.477H591.186ZM596.934 414.499V416.266H598.701V414.499H596.934ZM596.934 408.775V407.009H595.167V408.775H596.934ZM601.861 408.775V410.542H603.628V408.775H601.861ZM601.861 403.869V402.103H600.095V403.869H601.861ZM612.537 403.869V405.636H614.303V403.869H612.537ZM612.537 398.146V396.379H610.77V398.146H612.537ZM617.464 398.146V399.912H619.23V398.146H617.464ZM617.464 393.24V391.473H615.697V393.24H617.464ZM623.212 393.24V395.006H624.979V393.24H623.212ZM623.212 367.074H624.979V365.307H623.212V367.074ZM612.537 367.074H610.77V368.841H612.537V367.074ZM612.537 361.35H614.303V359.584H612.537V361.35ZM601.861 361.35H600.095V363.117H601.861V361.35ZM601.861 357.653H603.628V355.886H601.861V357.653ZM600.746 357.653H598.98V359.419H600.746V357.653ZM600.746 352.112V350.345H598.98V352.112H600.746ZM601.861 352.112V353.878H603.628V352.112H601.861ZM601.861 346.632L601.804 344.866L600.095 344.922V346.632H601.861ZM607.609 346.632L607.582 348.398L609.376 348.426V346.632H607.609ZM607.609 340.908V339.142H605.843V340.908H607.609ZM633.887 340.908V342.675H635.654V340.908H633.887ZM633.887 336.002V334.236H632.121V336.002H633.887ZM638.815 336.002V337.769H640.581V336.002H638.815ZM638.815 325.372V323.606H637.048V325.372H638.815ZM643.742 325.372V327.139H645.508V325.372H643.742ZM643.742 315.56L643.684 313.795L641.975 313.851V315.56H643.742ZM649.49 315.56L649.434 317.326L651.257 317.383V315.56H649.49ZM649.49 299.207V297.44H647.723V299.207H649.49ZM654.417 299.207V300.973H656.184V299.207H654.417ZM654.417 214.986H656.184V213.22H654.417V214.986ZM650.374 214.986V213.219L650.368 213.22L650.374 214.986ZM644.549 215.007H642.783V216.78L644.556 216.773L644.549 215.007ZM644.549 209.465H646.316V207.698H644.549V209.465ZM638.818 209.465V207.698H637.052V209.465H638.818ZM638.818 215.007V216.773H640.585V215.007H638.818ZM611.39 215.007V213.24H609.623V215.007H611.39ZM611.39 220.342V222.109H613.156V220.342H611.39ZM595.219 220.342H593.453V222.109H595.219V220.342ZM595.219 215.007H596.986V213.24H595.219V215.007ZM578.845 215.007H577.078V216.773H578.845V215.007ZM578.845 209.465H580.611V207.698H578.845V209.465ZM573.318 209.465H571.551V211.231H573.318V209.465ZM573.318 203.923H575.084V202.156H573.318V203.923ZM567.791 203.923H566.024V205.689H567.791V203.923ZM567.791 198.382H569.558V196.615H567.791V198.382ZM562.264 198.382V196.615H560.498V198.382H562.264ZM562.264 203.923V205.689H564.031V203.923H562.264ZM556.943 203.923H555.176V205.689H556.943V203.923ZM556.943 176.42H558.709V174.653H556.943V176.42ZM529.31 176.42V174.653H527.544V176.42H529.31ZM529.31 181.962V183.728H531.077V181.962H529.31ZM512.934 181.962V180.195H511.168V181.962H512.934ZM512.934 187.503V189.27H514.701V187.503H512.934ZM507.408 187.503V185.736H505.642V187.503H507.408ZM507.408 198.382V200.148H509.175V198.382H507.408ZM502.086 198.382H500.32V200.148H502.086V198.382ZM502.086 193.045H503.853V191.278H502.086V193.045ZM491.033 193.045V191.278H489.266V193.045H491.033ZM491.033 203.923V205.689H492.799V203.923H491.033ZM485.507 203.923V202.156H483.74V203.923H485.507ZM485.507 231.426V233.193H487.273V231.426H485.507ZM479.98 231.426V229.66H478.214V231.426H479.98ZM479.98 237.173H478.214V238.939H479.98V237.173ZM485.507 237.173H487.273V235.406H485.507V237.173ZM485.507 253.593H483.74V255.359H485.507V253.593ZM491.033 253.593H492.799V251.826H491.033V253.593ZM491.033 270.012H489.266V271.779H491.033V270.012ZM501.882 270.012H503.648V268.246H501.882V270.012ZM501.882 275.554H500.115V277.321H501.882V275.554ZM507.613 275.554V277.321H509.38V275.554H507.613ZM507.613 270.012V268.246H505.846V270.012H507.613ZM518.666 270.012V271.779H520.432V270.012H518.666ZM518.666 264.471V262.705H516.899V264.471H518.666ZM529.515 264.471V266.238H531.281V264.471H529.515ZM529.515 259.135V257.368H527.748V259.135H529.515ZM535.041 259.135V260.901H536.808V259.135H535.041ZM535.041 253.593V251.826H533.275V253.593H535.041ZM556.738 253.593H558.505V251.826H556.738V253.593ZM556.738 259.135H554.972V260.901H556.738V259.135ZM567.587 259.135H569.353V257.368H567.587V259.135ZM567.587 264.471H565.82V266.238H567.587V264.471ZM573.113 264.471H574.88V262.705H573.113V264.471ZM573.113 270.012H571.347V271.779H573.113V270.012ZM578.64 270.012H580.407V268.246H578.64V270.012ZM578.64 302.852V304.618H580.407V302.852H578.64ZM573.113 302.852V301.085H571.347V302.852H573.113ZM573.113 308.188V309.955H574.88V308.188H573.113ZM567.587 308.188V306.422H565.82V308.188H567.587ZM567.587 319.271V321.038H569.353V319.271H567.587ZM562.264 319.271V317.505H560.498V319.271H562.264ZM562.264 324.813V326.58H564.031V324.813H562.264ZM556.738 324.813V323.047H554.972V324.813H556.738ZM556.738 335.692V337.459H558.505V335.692H556.738ZM551.212 335.692V333.925H549.445V335.692H551.212ZM551.212 352.112V353.878H552.978V352.112H551.212ZM545.685 352.112V350.345H543.918V352.112H545.685ZM545.685 357.653V359.419H547.451V357.653H545.685ZM540.363 357.653V355.886H538.596V357.653H540.363ZM540.363 363.195V364.961H542.129V363.195H540.363ZM507.613 363.195H505.846V364.961H507.613V363.195ZM507.613 357.653H509.38V355.886H507.613V357.653ZM502.086 357.653H500.32V359.419H502.086V357.653ZM502.086 341.233H503.853V339.467H502.086V341.233ZM496.764 341.233H494.997V343H496.764V341.233ZM496.764 325.019V323.252H494.997V325.019H496.764ZM502.086 325.019V326.785H503.853V325.019H502.086ZM502.086 291.769H503.853V290.002H502.086V291.769ZM496.764 291.769H494.997V293.535H496.764V291.769ZM496.764 286.227H498.53V284.46H496.764V286.227ZM491.238 286.227H489.472V287.993H491.238V286.227ZM491.238 280.891H493.005V279.124H491.238V280.891ZM485.711 280.891H483.945V282.658H485.711V280.891ZM485.711 275.349H487.478V273.582H485.711V275.349ZM479.98 275.349V273.582H478.214V275.349H479.98ZM479.98 291.769V293.535H481.747V291.769H479.98ZM474.658 291.769V290.002H472.891V291.769H474.658ZM474.658 297.311V299.077H476.424V297.311H474.658ZM452.756 297.311V295.544H450.99V297.311H452.756ZM452.756 308.188V309.955H454.523V308.188H452.756ZM447.434 308.188H445.667V309.955H447.434V308.188ZM447.434 297.311H449.201V295.544H447.434V297.311ZM441.908 297.311H440.142V299.077H441.908V297.311ZM441.908 291.769H443.675V290.002H441.908V291.769ZM430.855 291.769V290.002H429.088V291.769H430.855ZM430.855 297.311V299.077H432.621V297.311H430.855ZM414.274 297.311V295.544H412.508V297.311H414.274ZM414.274 301.21H412.508L412.508 301.217L414.274 301.21ZM414.274 303.057L412.508 303.055L412.505 304.825L414.276 304.824L414.274 303.057ZM416.117 303.057L416.113 304.824H416.117V303.057ZM419.801 303.057H421.568V301.291H419.801V303.057ZM419.801 308.188V309.955H421.568V308.188H419.801ZM408.953 308.188V306.422H407.186V308.188H408.953ZM408.953 324.813V326.58H410.72V324.813H408.953ZM403.426 324.813V323.047H401.66V324.813H403.426ZM403.426 341.439H401.66V343.205H403.426V341.439ZM408.953 341.439H410.72V339.672H408.953V341.439ZM408.953 357.858H407.186V359.625H408.953V357.858ZM414.274 357.858H416.041V356.092H414.274V357.858ZM414.274 361.553H412.508L412.508 361.559L414.274 361.553ZM414.274 363.399L412.508 363.397L412.506 365.17L414.278 365.166L414.274 363.399ZM415.912 363.399L415.926 361.633L415.923 361.633L415.912 363.399ZM418.545 363.402L418.541 361.636H418.541L418.545 363.402ZM419.801 363.4H421.568V361.634H419.801V363.4ZM419.801 374.073V375.839H421.568V374.073H419.801ZM414.274 374.073V372.306H412.505L412.508 374.075L414.274 374.073ZM414.274 375.92L412.508 375.914V375.92H414.274ZM414.274 379.82H412.508V381.586H414.274V379.82ZM419.801 379.82H421.568V378.053H419.801V379.82ZM419.801 385.361H418.035V387.128H419.801V385.361ZM430.855 385.361H432.621V383.594H430.855V385.361ZM430.855 396.034V397.801H432.621V396.034H430.855ZM419.801 396.034V394.268H418.035V396.034H419.801ZM419.801 401.576V403.343H421.568V401.576H419.801ZM408.953 401.576V399.81H407.186V401.576H408.953ZM408.953 412.659V414.426H410.72V412.659H408.953ZM403.426 412.659V410.893H401.66V412.659H403.426ZM403.426 429.284H401.66V431.051H403.426V429.284ZM408.953 429.284H410.72V427.518H408.953V429.284ZM408.953 440.162L410.719 440.2L410.72 440.181V440.162H408.953ZM408.819 446.422L407.053 446.384L407.015 448.189H408.819V446.422ZM412.981 446.422H414.748V444.656H412.981V446.422ZM412.981 451.294H411.215V453.061H412.981V451.294ZM435.177 451.294H436.944V449.528H435.177V451.294ZM435.177 455.47H433.411V457.237H435.177V455.47ZM440.033 455.47H441.799V453.703H440.033V455.47ZM440.033 464.518H438.266V466.284H440.033V464.518ZM444.195 464.518H445.961V462.751H444.195V464.518ZM444.195 473.566H442.428V475.332H444.195V473.566ZM448.356 473.566H450.123V471.799H448.356V473.566ZM448.356 482.613H446.59V484.38H448.356V482.613ZM457.374 482.613H459.14V480.847H457.374V482.613ZM457.374 486.789H455.607V488.556H457.374V486.789ZM489.281 486.789V488.556H491.047V486.789H489.281ZM489.281 482.613V480.847H487.514V482.613H489.281ZM492.749 482.613H494.516V480.847H492.749V482.613ZM492.749 486.789H490.983V488.556H492.749V486.789ZM497.605 486.789H499.371V485.023H497.605V486.789ZM497.605 490.965H495.838V492.732H497.605V490.965ZM501.766 490.965H503.533V489.199H501.766V490.965ZM501.766 495.837H500V497.604H501.766V495.837ZM506.622 495.837H508.388V494.071H506.622V495.837ZM506.622 509.061H504.855V510.827H506.622V509.061ZM510.784 509.061H512.55V507.294H510.784V509.061ZM510.784 522.285H509.017V524.051H510.784V522.285ZM514.945 522.285H516.712V520.518H514.945V522.285ZM514.945 527.156H513.179V528.923H514.945V527.156ZM519.801 527.156H521.567V525.39H519.801V527.156ZM519.801 531.332H518.034V533.099H519.801V531.332ZM551.014 531.332V533.099H552.781V531.332H551.014ZM551.014 527.156V525.39H549.248V527.156H551.014ZM560.032 527.156V528.923H561.798V527.156H560.032ZM560.032 522.285V520.518H558.265V522.285H560.032ZM573.113 522.285H574.88V520.518H573.113V522.285ZM573.113 528.008H571.347V529.775H573.113V528.008ZM589.693 528.008V529.775H591.459V528.008H589.693ZM589.693 522.466V520.699H587.926V522.466H589.693ZM595.219 522.466V524.233H596.986V522.466H595.219ZM595.219 516.925H596.986V515.158H595.219V516.925ZM589.693 516.925H587.926V518.692H589.693V516.925ZM589.693 506.046V504.28H587.926V506.046H589.693ZM595.407 506.046V507.813H597.174V506.046H595.407ZM595.407 504.885V503.118H593.641V504.885H595.407ZM599.569 504.885H601.335V503.118H599.569V504.885ZM599.569 509.061H597.802V510.827H599.569V509.061ZM613.442 509.061V510.827H615.208V509.061H613.442ZM613.442 504.885V503.118H611.675V504.885H613.442ZM617.603 504.885V506.652H619.37V504.885H617.603ZM617.603 489.421H619.37V487.655H617.603V489.421ZM595.219 489.421H593.453V491.188H595.219V489.421ZM595.219 473.002H596.986V471.235H595.219V473.002ZM589.693 473.002H587.926V474.768H589.693V473.002ZM589.693 450.477V448.71H587.926V450.477H589.693ZM690.986 534.202L690.974 535.968H690.986L690.986 534.202ZM688.793 534.2L688.79 532.434H688.79L688.793 534.2ZM698.825 534.202H700.592V532.436L698.826 532.436L698.825 534.202ZM698.825 537.891H697.059V539.657H698.825V537.891ZM706.665 537.891H708.432V536.124H706.665V537.891ZM706.665 541.579H704.899V543.345H706.665V541.579ZM710.354 541.579H712.121V539.812H710.354V541.579ZM710.354 553.105H708.588V554.871H710.354V553.105ZM714.505 553.105H716.272V551.338H714.505V553.105ZM714.505 560.942H712.738V562.709H714.505V560.942ZM718.194 560.942H719.961V559.176H718.194V560.942ZM718.194 564.63H716.428V566.397H718.194V564.63ZM721.884 564.63H723.65V562.864H721.884V564.63ZM721.884 568.319H720.117V570.085H721.884V568.319ZM729.723 568.319H731.49V566.552H729.723V568.319ZM729.723 572.468H727.957V574.234H729.723V572.468ZM733.413 572.468H735.179V570.701H733.413V572.468ZM733.413 576.156H731.646V577.923H733.413V576.156ZM737.102 576.156H738.868V574.39H737.102V576.156ZM737.102 579.844H735.335V581.611H737.102V579.844ZM749.092 579.844V581.611H750.859V579.844H749.092ZM749.092 576.156V574.39H747.326V576.156H749.092ZM752.781 576.156V577.923H754.548V576.156H752.781ZM752.781 572.468V570.701H751.015V572.468H752.781ZM756.471 572.468V574.234H758.237V572.468H756.471ZM756.471 564.63V562.864H754.704V564.63H756.471ZM760.621 564.63V566.397H762.388V564.63H760.621ZM760.621 541.579V539.812H758.855V541.579H760.621ZM764.31 541.579V543.345H766.077V541.579H764.31ZM764.31 537.891V536.124H762.544V537.891H764.31ZM768 537.891V539.657H769.766V537.891H768ZM768 534.202L767.993 532.436L766.233 532.442V534.202H768ZM772.15 534.202L772.147 535.969L773.922 535.973L773.917 534.197L772.15 534.202ZM772.15 530.053V528.286H770.39L770.384 530.047L772.15 530.053ZM779.529 530.053V531.82H781.295V530.053H779.529ZM779.529 526.365V524.598H777.762V526.365H779.529ZM786.907 526.365H788.674V524.598H786.907V526.365ZM786.907 530.053H785.141V531.82H786.907V530.053ZM798.898 530.053V531.82H800.664V530.053H798.898ZM798.898 526.365V524.598H797.131V526.365H798.898ZM802.587 526.365V528.131H804.353V526.365H802.587ZM802.587 522.677V520.91H800.82V522.677H802.587ZM810.427 522.677V524.443H812.2L812.193 522.669L810.427 522.677ZM810.427 518.988V517.222H808.681L808.66 518.967L810.427 518.988ZM814.116 518.988V520.755H815.883V518.988H814.116ZM814.116 499.164H815.883V497.397H814.116V499.164ZM810.427 499.164H808.66V500.931H810.427V499.164ZM810.427 495.476H812.193V493.709H810.427V495.476ZM806.276 495.476H804.51V497.242H806.276V495.476ZM806.276 491.787H808.043V490.021H806.276V491.787ZM802.587 491.787H800.82V493.554H802.587V491.787ZM802.587 487.638H804.353V485.872H802.587V487.638ZM798.898 487.638H797.131V489.405H798.898V487.638ZM798.898 483.95H800.664V482.183H798.898V483.95ZM797.635 483.95V482.183H795.868V483.95H797.635ZM797.635 485.153V486.919H799.402V485.153H797.635ZM793.045 485.153H791.278V486.919H793.045V485.153ZM793.045 480.569H794.811V478.803H793.045V480.569ZM788.351 480.569H786.584V482.336H788.351V480.569ZM788.351 475.884H790.118V474.117H788.351V475.884ZM783.76 475.884H781.993V477.651H783.76V475.884ZM783.76 462.134V460.368H781.993V462.134H783.76ZM793.045 462.134V463.901H794.811V462.134H793.045ZM793.045 448.181H794.811V446.415H793.045V448.181ZM788.351 448.181H786.584V449.948H788.351V448.181ZM788.351 443.598H790.118V441.831H788.351V443.598ZM783.76 443.598H781.993V445.365H783.76V443.598ZM783.76 429.848V428.082H781.993V429.848H783.76ZM788.351 429.848V431.615H790.118V429.848H788.351ZM788.351 420.58V418.813H786.584V420.58H788.351ZM793.045 420.58V422.346H794.811V420.58H793.045ZM793.045 415.793H794.811V414.026H793.045V415.793ZM788.351 415.793H786.584V417.559H788.351V415.793ZM788.351 411.21H790.118V409.443H788.351V411.21ZM783.76 411.21H781.993V412.976H783.76V411.21ZM783.76 406.626H785.526V404.859H783.76V406.626ZM779.066 406.626H777.3V408.392H779.066V406.626ZM779.066 401.941H780.833V400.175H779.066V401.941ZM774.475 401.941H772.708V403.708H774.475V401.941ZM774.475 397.358H776.242V395.591H774.475V397.358ZM760.498 397.358V395.591H758.731V397.358H760.498ZM760.498 401.941V403.708H762.264V401.941H760.498ZM746.724 401.941H744.957V403.708H746.724V401.941ZM746.724 397.358H748.49V395.591H746.724V397.358ZM737.44 397.358H735.673V399.124H737.44V397.358ZM737.44 392.775H739.206V391.008H737.44V392.775ZM732.849 392.775H731.082V394.541H732.849V392.775ZM732.849 388.089H734.615V386.323H732.849V388.089ZM718.769 388.089V386.323H717.002V388.089H718.769ZM718.769 392.775V394.541H720.535V392.775H718.769ZM714.178 392.775V391.008H712.411V392.775H714.178ZM714.178 402.042H712.411V403.809H714.178V402.042ZM718.769 402.042H720.535V400.276H718.769V402.042ZM718.769 406.626V408.392H720.535V406.626H718.769ZM714.178 406.626V404.859H712.411V406.626H714.178ZM714.178 411.21V412.976H715.944V411.21H714.178ZM700.404 411.21H698.637V412.976H700.404V411.21ZM700.404 401.941H702.17V400.175H700.404V401.941ZM691.018 401.941V400.175H689.251V401.941H691.018ZM691.018 406.626V408.392H692.784V406.626H691.018ZM686.426 406.626V404.859H684.66V406.626H686.426ZM686.426 411.21V412.976H688.193V411.21H686.426ZM681.733 411.21V409.443H679.966V411.21H681.733ZM681.733 415.793V417.559H683.499V415.793H681.733ZM677.143 415.793V414.026H675.376V415.793H677.143ZM677.143 420.477V422.244H678.909V420.477H677.143ZM672.551 420.477V418.711H670.785V420.477H672.551ZM672.551 434.329V436.096H674.318V434.329H672.551ZM667.858 434.329V432.563H666.091V434.329H667.858ZM667.858 448.181V449.948H669.624V448.181H667.858ZM663.266 448.181V446.415H661.5V448.181H663.266ZM663.266 452.866V454.632H665.033V452.866H663.266ZM649.391 452.866V451.099H647.625V452.866H649.391ZM649.391 457.45V459.216H651.158V457.45H649.391ZM644.698 457.45V455.683H642.931V457.45H644.698ZM644.698 462.033V463.8H646.464V462.033H644.698ZM640.106 462.033V460.266H638.34V462.033H640.106ZM640.106 471.403H638.34V473.17H640.106V471.403ZM644.698 471.403H646.464V469.637H644.698V471.403ZM644.698 480.672H642.931V482.438H644.698V480.672ZM658.573 480.672H660.339V478.905H658.573V480.672ZM658.573 489.838V491.605H660.339V489.838H658.573ZM653.632 489.838V488.072H651.865V489.838H653.632ZM653.632 495.476V497.242H655.398V495.476H653.632ZM649.02 495.476V493.709H647.253V495.476H649.02ZM649.02 499.164V500.931H650.786V499.164H649.02ZM645.331 499.164V497.397H643.564V499.164H645.331ZM645.331 518.988H643.564V520.755H645.331V518.988ZM649.02 518.988L650.786 518.967L650.765 517.222H649.02V518.988ZM649.022 521.614L647.256 521.609V521.609L649.022 521.614ZM649.02 522.676H647.253V524.443H649.02V522.676ZM650.116 522.675L650.113 520.908H650.113L650.116 522.675ZM652.709 522.676L652.697 524.443H652.709L652.709 522.676ZM660.549 522.677H662.316V520.91L660.549 520.91L660.549 522.677ZM660.549 526.365H658.782V528.131H660.549V526.365ZM663.266 526.365V528.131H665.033V526.365H663.266ZM663.266 522.226V520.46H661.5V522.226H663.266ZM667.858 522.226H669.624V520.46H667.858V522.226ZM667.858 531.495H666.091V533.262H667.858V531.495ZM687.298 531.495L689.065 531.495L689.065 529.728H687.298V531.495ZM687.296 534.202H685.53V535.968H687.296V534.202ZM589.419 414.499V450.477H592.952V414.499H589.419ZM596.934 412.733H591.186V416.266H596.934V412.733ZM595.167 408.775V414.499H598.701V408.775H595.167ZM601.861 407.009H596.934V410.542H601.861V407.009ZM600.095 403.869V408.775H603.628V403.869H600.095ZM612.537 402.103H601.861V405.636H612.537V402.103ZM610.77 398.146V403.869H614.303V398.146H610.77ZM617.464 396.379H612.537V399.912H617.464V396.379ZM615.697 393.24V398.146H619.23V393.24H615.697ZM623.212 391.473H617.464V395.006H623.212V391.473ZM621.445 367.074V393.24H624.979V367.074H621.445ZM612.537 368.841H623.212V365.307H612.537V368.841ZM610.77 361.35V367.074H614.303V361.35H610.77ZM601.861 363.117H612.537V359.584H601.861V363.117ZM600.095 357.653V361.35H603.628V357.653H600.095ZM600.746 359.419H601.861V355.886H600.746V359.419ZM598.98 352.112V357.653H602.513V352.112H598.98ZM601.861 350.345H600.746V353.878H601.861V350.345ZM600.095 351.538V352.112H603.628V351.538H600.095ZM600.095 346.632V351.538H603.628V346.632H600.095ZM607.609 346.632C607.637 344.866 607.637 344.866 607.637 344.866C607.637 344.866 607.637 344.866 607.637 344.866C607.637 344.866 607.637 344.866 607.636 344.866C607.636 344.866 607.635 344.866 607.634 344.866C607.632 344.866 607.629 344.866 607.625 344.866C607.618 344.865 607.606 344.865 607.592 344.865C607.562 344.865 607.519 344.864 607.464 344.863C607.353 344.862 607.193 344.859 606.995 344.857C606.599 344.852 606.052 344.847 605.446 344.843C604.244 344.835 602.775 344.835 601.804 344.866L601.919 348.398C602.813 348.368 604.218 348.368 605.424 348.376C606.021 348.38 606.561 348.385 606.952 348.39C607.148 348.392 607.305 348.394 607.414 348.396C607.469 348.397 607.511 348.397 607.539 348.398C607.553 348.398 607.564 348.398 607.571 348.398C607.575 348.398 607.578 348.398 607.579 348.398C607.58 348.398 607.581 348.398 607.581 348.398C607.581 348.398 607.582 348.398 607.582 348.398C607.582 348.398 607.582 348.398 607.582 348.398C607.582 348.398 607.582 348.398 607.609 346.632ZM605.843 340.908V346.632H609.376V340.908H605.843ZM633.887 339.142H607.609V342.675H633.887V339.142ZM632.121 336.002V340.908H635.654V336.002H632.121ZM638.815 334.236H633.887V337.769H638.815V334.236ZM637.048 325.372V336.002H640.581V325.372H637.048ZM643.742 323.606H638.815V327.139H643.742V323.606ZM641.975 315.56V325.372H645.508V315.56H641.975ZM649.49 315.56C649.545 313.795 649.545 313.795 649.545 313.795C649.545 313.795 649.545 313.795 649.545 313.795C649.545 313.795 649.545 313.795 649.544 313.795C649.544 313.795 649.543 313.795 649.542 313.795C649.541 313.794 649.538 313.794 649.535 313.794C649.529 313.794 649.52 313.794 649.508 313.794C649.485 313.793 649.451 313.792 649.407 313.791C649.318 313.788 649.19 313.785 649.028 313.781C648.703 313.774 648.241 313.765 647.691 313.759C646.592 313.748 645.127 313.747 643.684 313.795L643.799 317.326C645.172 317.281 646.582 317.281 647.653 317.292C648.187 317.298 648.635 317.306 648.948 317.313C649.104 317.317 649.227 317.32 649.31 317.322C649.352 317.324 649.383 317.324 649.404 317.325C649.415 317.325 649.423 317.326 649.428 317.326C649.43 317.326 649.432 317.326 649.433 317.326C649.434 317.326 649.434 317.326 649.434 317.326C649.434 317.326 649.435 317.326 649.435 317.326H649.435C649.435 317.326 649.434 317.326 649.49 315.56ZM647.723 299.207V315.56H651.257V299.207H647.723ZM654.417 297.44H649.49V300.973H654.417V297.44ZM652.651 214.986V299.207H656.184V214.986H652.651ZM650.374 216.753H654.417V213.22H650.374V216.753ZM644.556 216.773L650.381 216.753L650.368 213.22L644.543 213.24L644.556 216.773ZM642.783 209.465V215.007H646.316V209.465H642.783ZM638.818 211.231H644.549V207.698H638.818V211.231ZM640.585 215.007V209.465H637.052V215.007H640.585ZM611.39 216.773H638.818V213.24H611.39V216.773ZM613.156 220.342V215.007H609.623V220.342H613.156ZM595.219 222.109H611.39V218.576H595.219V222.109ZM593.453 215.007V220.342H596.986V215.007H593.453ZM578.845 216.773H595.219V213.24H578.845V216.773ZM577.078 209.465V215.007H580.611V209.465H577.078ZM573.318 211.231H578.845V207.698H573.318V211.231ZM571.551 203.923V209.465H575.084V203.923H571.551ZM567.791 205.689H573.318V202.156H567.791V205.689ZM566.024 198.382V203.923H569.558V198.382H566.024ZM562.264 200.148H567.791V196.615H562.264V200.148ZM564.031 203.923V198.382H560.498V203.923H564.031ZM556.943 205.689H562.264V202.156H556.943V205.689ZM555.176 176.42V203.923H558.709V176.42H555.176ZM529.31 178.186H556.943V174.653H529.31V178.186ZM531.077 181.962V176.42H527.544V181.962H531.077ZM512.934 183.728H529.31V180.195H512.934V183.728ZM514.701 187.503V181.962H511.168V187.503H514.701ZM507.408 189.27H512.934V185.736H507.408V189.27ZM509.175 198.382V187.503H505.642V198.382H509.175ZM502.086 200.148H507.408V196.615H502.086V200.148ZM500.32 193.045V198.382H503.853V193.045H500.32ZM491.033 194.812H502.086V191.278H491.033V194.812ZM492.799 203.923V193.045H489.266V203.923H492.799ZM485.507 205.689H491.033V202.156H485.507V205.689ZM487.273 231.426V203.923H483.74V231.426H487.273ZM479.98 233.193H485.507V229.66H479.98V233.193ZM481.747 237.173V231.426H478.214V237.173H481.747ZM485.507 235.406H479.98V238.939H485.507V235.406ZM487.273 253.593V237.173H483.74V253.593H487.273ZM491.033 251.826H485.507V255.359H491.033V251.826ZM492.799 270.012V253.593H489.266V270.012H492.799ZM501.882 268.246H491.033V271.779H501.882V268.246ZM503.648 275.554V270.012H500.115V275.554H503.648ZM507.613 273.788H501.882V277.321H507.613V273.788ZM505.846 270.012V275.554H509.38V270.012H505.846ZM518.666 268.246H507.613V271.779H518.666V268.246ZM516.899 264.471V270.012H520.432V264.471H516.899ZM529.515 262.705H518.666V266.238H529.515V262.705ZM527.748 259.135V264.471H531.281V259.135H527.748ZM535.041 257.368H529.515V260.901H535.041V257.368ZM533.275 253.593V259.135H536.808V253.593H533.275ZM556.738 251.826H535.041V255.359H556.738V251.826ZM558.505 259.135V253.593H554.972V259.135H558.505ZM567.587 257.368H556.738V260.901H567.587V257.368ZM569.353 264.471V259.135H565.82V264.471H569.353ZM573.113 262.705H567.587V266.238H573.113V262.705ZM574.88 270.012V264.471H571.347V270.012H574.88ZM578.64 268.246H573.113V271.779H578.64V268.246ZM580.407 302.852V270.012H576.874V302.852H580.407ZM573.113 304.618H578.64V301.085H573.113V304.618ZM574.88 308.188V302.852H571.347V308.188H574.88ZM567.587 309.955H573.113V306.422H567.587V309.955ZM569.353 319.271V308.188H565.82V319.271H569.353ZM562.264 321.038H567.587V317.505H562.264V321.038ZM564.031 324.813V319.271H560.498V324.813H564.031ZM556.738 326.58H562.264V323.047H556.738V326.58ZM558.505 335.692V324.813H554.972V335.692H558.505ZM551.212 337.459H556.738V333.925H551.212V337.459ZM552.978 352.112V335.692H549.445V352.112H552.978ZM545.685 353.878H551.212V350.345H545.685V353.878ZM547.451 357.653V352.112H543.918V357.653H547.451ZM540.363 359.419H545.685V355.886H540.363V359.419ZM542.129 363.195V357.653H538.596V363.195H542.129ZM507.613 364.961H540.363V361.428H507.613V364.961ZM505.846 357.653V363.195H509.38V357.653H505.846ZM502.086 359.419H507.613V355.886H502.086V359.419ZM500.32 341.233V357.653H503.853V341.233H500.32ZM496.764 343H502.086V339.467H496.764V343ZM494.997 325.019V341.233H498.53V325.019H494.997ZM502.086 323.252H496.764V326.785H502.086V323.252ZM500.32 291.769V325.019H503.853V291.769H500.32ZM496.764 293.535H502.086V290.002H496.764V293.535ZM494.997 286.227V291.769H498.53V286.227H494.997ZM491.238 287.993H496.764V284.46H491.238V287.993ZM489.472 280.891V286.227H493.005V280.891H489.472ZM485.711 282.658H491.238V279.124H485.711V282.658ZM483.945 275.349V280.891H487.478V275.349H483.945ZM479.98 277.115H485.711V273.582H479.98V277.115ZM481.747 291.769V275.349H478.214V291.769H481.747ZM474.658 293.535H479.98V290.002H474.658V293.535ZM476.424 297.311V291.769H472.891V297.311H476.424ZM452.756 299.077H474.658V295.544H452.756V299.077ZM454.523 308.188V297.311H450.99V308.188H454.523ZM447.434 309.955H452.756V306.422H447.434V309.955ZM445.667 297.311V308.188H449.201V297.311H445.667ZM441.908 299.077H447.434V295.544H441.908V299.077ZM440.142 291.769V297.311H443.675V291.769H440.142ZM430.855 293.535H441.908V290.002H430.855V293.535ZM432.621 297.311V291.769H429.088V297.311H432.621ZM414.274 299.077H430.855V295.544H414.274V299.077ZM416.041 301.21V297.311H412.508V301.21H416.041ZM414.274 303.057C416.041 303.059 416.041 303.059 416.041 303.059C416.041 303.059 416.041 303.059 416.041 303.059C416.041 303.059 416.041 303.059 416.041 303.059C416.041 303.059 416.041 303.059 416.041 303.058C416.041 303.058 416.041 303.057 416.041 303.056C416.041 303.053 416.041 303.049 416.041 303.044C416.041 303.034 416.041 303.019 416.041 303C416.041 302.962 416.041 302.907 416.041 302.84C416.041 302.706 416.041 302.521 416.042 302.321C416.042 301.922 416.042 301.456 416.041 301.204L412.508 301.217C412.509 301.46 412.509 301.918 412.508 302.319C412.508 302.518 412.508 302.702 412.508 302.836C412.508 302.904 412.508 302.958 412.508 302.996C412.508 303.015 412.508 303.03 412.508 303.04C412.508 303.045 412.508 303.048 412.508 303.051C412.508 303.052 412.508 303.053 412.508 303.054C412.508 303.054 412.508 303.054 412.508 303.055C412.508 303.055 412.508 303.055 412.508 303.055C412.508 303.055 412.508 303.055 412.508 303.055C412.508 303.055 412.508 303.055 414.274 303.057ZM416.12 301.291C415.889 301.29 415.426 301.29 415.023 301.29C414.822 301.29 414.634 301.29 414.497 301.29C414.428 301.29 414.373 301.29 414.334 301.291C414.314 301.291 414.299 301.291 414.289 301.291C414.284 301.291 414.28 301.291 414.277 301.291C414.276 301.291 414.275 301.291 414.274 301.291C414.274 301.291 414.274 301.291 414.273 301.291C414.273 301.291 414.273 301.291 414.273 301.291C414.273 301.291 414.273 301.291 414.273 301.291C414.273 301.291 414.273 301.291 414.274 303.057C414.276 304.824 414.276 304.824 414.276 304.824C414.276 304.824 414.276 304.824 414.276 304.824C414.276 304.824 414.276 304.824 414.276 304.824C414.276 304.824 414.276 304.824 414.277 304.824C414.277 304.824 414.278 304.824 414.279 304.824C414.282 304.824 414.286 304.824 414.291 304.824C414.301 304.824 414.316 304.824 414.336 304.824C414.375 304.824 414.43 304.824 414.499 304.824C414.636 304.823 414.823 304.823 415.024 304.823C415.428 304.823 415.887 304.823 416.113 304.824L416.12 301.291ZM419.801 301.291H416.117V304.824H419.801V301.291ZM421.568 308.188V303.057H418.035V308.188H421.568ZM408.953 309.955H419.801V306.422H408.953V309.955ZM410.72 324.813V308.188H407.186V324.813H410.72ZM403.426 326.58H408.953V323.047H403.426V326.58ZM405.193 341.439V324.813H401.66V341.439H405.193ZM408.953 339.672H403.426V343.205H408.953V339.672ZM410.72 357.858V341.439H407.186V357.858H410.72ZM414.274 356.092H408.953V359.625H414.274V356.092ZM416.041 361.553V357.858H412.508V361.553H416.041ZM414.274 363.399C416.041 363.402 416.041 363.402 416.041 363.402C416.041 363.402 416.041 363.402 416.041 363.402C416.041 363.402 416.041 363.401 416.041 363.401C416.041 363.401 416.041 363.401 416.041 363.401C416.041 363.4 416.041 363.399 416.041 363.398C416.041 363.395 416.041 363.391 416.041 363.386C416.041 363.376 416.041 363.36 416.041 363.341C416.041 363.302 416.041 363.246 416.041 363.177C416.041 363.04 416.041 362.852 416.042 362.649C416.042 362.246 416.042 361.78 416.041 361.546L412.508 361.559C412.509 361.784 412.509 362.242 412.508 362.647C412.508 362.849 412.508 363.036 412.508 363.174C412.508 363.242 412.508 363.298 412.508 363.337C412.508 363.356 412.508 363.371 412.508 363.381C412.508 363.387 412.508 363.391 412.508 363.393C412.508 363.394 412.508 363.395 412.508 363.396C412.508 363.396 412.508 363.397 412.508 363.397C412.508 363.397 412.508 363.397 412.508 363.397C412.508 363.397 412.508 363.397 412.508 363.397C412.508 363.397 412.508 363.397 414.274 363.399ZM415.923 361.633C415.689 361.631 415.274 361.631 414.922 361.632C414.745 361.632 414.582 361.632 414.464 361.632C414.404 361.633 414.356 361.633 414.323 361.633C414.306 361.633 414.293 361.633 414.284 361.633C414.28 361.633 414.276 361.633 414.274 361.633C414.273 361.633 414.272 361.633 414.271 361.633C414.271 361.633 414.271 361.633 414.271 361.633C414.271 361.633 414.27 361.633 414.27 361.633C414.27 361.633 414.27 361.633 414.27 361.633C414.27 361.633 414.27 361.633 414.274 363.399C414.278 365.166 414.278 365.166 414.278 365.166C414.278 365.166 414.278 365.166 414.278 365.166C414.278 365.166 414.279 365.166 414.279 365.166C414.279 365.166 414.279 365.166 414.279 365.166C414.28 365.166 414.281 365.166 414.282 365.166C414.284 365.166 414.287 365.166 414.292 365.166C414.3 365.166 414.313 365.166 414.33 365.166C414.363 365.166 414.411 365.166 414.47 365.166C414.588 365.165 414.75 365.165 414.925 365.165C415.28 365.165 415.683 365.165 415.902 365.166L415.923 361.633ZM418.541 361.636C417.662 361.637 416.793 361.639 415.926 361.633L415.899 365.166C416.786 365.173 417.673 365.171 418.549 365.169L418.541 361.636ZM419.801 361.634C419.38 361.634 418.959 361.635 418.541 361.636L418.549 365.169C418.968 365.168 419.385 365.167 419.801 365.167V361.634ZM421.568 374.073V363.4H418.035V374.073H421.568ZM416.117 375.839H419.801V372.306H416.117V375.839ZM414.274 375.839H416.117V372.306H414.274V375.839ZM416.041 375.927C416.042 375.674 416.042 375.208 416.042 374.809C416.041 374.609 416.041 374.424 416.041 374.29C416.041 374.222 416.041 374.167 416.041 374.129C416.041 374.11 416.041 374.096 416.041 374.086C416.041 374.081 416.041 374.077 416.041 374.074C416.041 374.073 416.041 374.072 416.041 374.071C416.041 374.071 416.041 374.071 416.041 374.07C416.041 374.07 416.041 374.07 416.041 374.07C416.041 374.07 416.041 374.07 416.041 374.07C416.041 374.07 416.041 374.07 414.274 374.073C412.508 374.075 412.508 374.075 412.508 374.075C412.508 374.075 412.508 374.075 412.508 374.075C412.508 374.075 412.508 374.075 412.508 374.075C412.508 374.075 412.508 374.076 412.508 374.076C412.508 374.076 412.508 374.077 412.508 374.079C412.508 374.081 412.508 374.085 412.508 374.09C412.508 374.1 412.508 374.115 412.508 374.134C412.508 374.172 412.508 374.226 412.508 374.293C412.508 374.427 412.508 374.611 412.508 374.811C412.509 375.212 412.509 375.67 412.508 375.914L416.041 375.927ZM416.041 379.82V375.92H412.508V379.82H416.041ZM419.801 378.053H414.274V381.586H419.801V378.053ZM421.568 385.361V379.82H418.035V385.361H421.568ZM430.855 383.594H419.801V387.128H430.855V383.594ZM432.621 396.034V385.361H429.088V396.034H432.621ZM419.801 397.801H430.855V394.268H419.801V397.801ZM421.568 401.576V396.034H418.035V401.576H421.568ZM408.953 403.343H419.801V399.81H408.953V403.343ZM410.72 412.659V401.576H407.186V412.659H410.72ZM403.426 414.426H408.953V410.893H403.426V414.426ZM405.193 429.284V412.659H401.66V429.284H405.193ZM408.953 427.518H403.426V431.051H408.953V427.518ZM410.72 440.162V429.284H407.186V440.162H410.72ZM410.585 446.46L410.719 440.2L407.187 440.124L407.053 446.384L410.585 446.46ZM412.981 444.656H408.819V448.189H412.981V444.656ZM414.748 451.294V446.422H411.215V451.294H414.748ZM435.177 449.528H412.981V453.061H435.177V449.528ZM436.944 455.47V451.294H433.411V455.47H436.944ZM440.033 453.703H435.177V457.237H440.033V453.703ZM441.799 464.518V455.47H438.266V464.518H441.799ZM444.195 462.751H440.033V466.284H444.195V462.751ZM445.961 473.566V464.518H442.428V473.566H445.961ZM448.356 471.799H444.195V475.332H448.356V471.799ZM450.123 482.613V473.566H446.59V482.613H450.123ZM457.374 480.847H448.356V484.38H457.374V480.847ZM459.14 486.789V482.613H455.607V486.789H459.14ZM489.281 485.023H457.374V488.556H489.281V485.023ZM487.514 482.613V486.789H491.047V482.613H487.514ZM492.749 480.847H489.281V484.38H492.749V480.847ZM494.516 486.789V482.613H490.983V486.789H494.516ZM497.605 485.023H492.749V488.556H497.605V485.023ZM499.371 490.965V486.789H495.838V490.965H499.371ZM501.766 489.199H497.605V492.732H501.766V489.199ZM503.533 495.837V490.965H500V495.837H503.533ZM506.622 494.071H501.766V497.604H506.622V494.071ZM508.388 509.061V495.837H504.855V509.061H508.388ZM510.784 507.294H506.622V510.827H510.784V507.294ZM512.55 522.285V509.061H509.017V522.285H512.55ZM514.945 520.518H510.784V524.051H514.945V520.518ZM516.712 527.156V522.285H513.179V527.156H516.712ZM519.801 525.39H514.945V528.923H519.801V525.39ZM521.567 531.332V527.156H518.034V531.332H521.567ZM551.014 529.566H519.801V533.099H551.014V529.566ZM549.248 527.156V531.332H552.781V527.156H549.248ZM560.032 525.39H551.014V528.923H560.032V525.39ZM558.265 522.285V527.156H561.798V522.285H558.265ZM569.049 520.518H560.032V524.051H569.049V520.518ZM573.113 520.518H569.049V524.051H573.113V520.518ZM574.88 522.466V522.285H571.347V522.466H574.88ZM574.88 528.008V522.466H571.347V528.008H574.88ZM589.693 526.241H573.113V529.775H589.693V526.241ZM587.926 522.466V528.008H591.459V522.466H587.926ZM595.219 520.699H589.693V524.233H595.219V520.699ZM593.453 516.925V522.466H596.986V516.925H593.453ZM589.693 518.692H595.219V515.158H589.693V518.692ZM587.926 506.046V516.925H591.459V506.046H587.926ZM595.407 504.28H589.693V507.813H595.407V504.28ZM593.641 504.885V506.046H597.174V504.885H593.641ZM599.569 503.118H595.407V506.652H599.569V503.118ZM601.335 509.061V504.885H597.802V509.061H601.335ZM613.442 507.294H599.569V510.827H613.442V507.294ZM611.675 504.885V509.061H615.208V504.885H611.675ZM617.603 503.118H613.442V506.652H617.603V503.118ZM615.837 490.269V504.885H619.37V490.269H615.837ZM615.837 489.421V490.269H619.37V489.421H615.837ZM600.746 491.188H617.603V487.655H600.746V491.188ZM595.219 491.188H600.746V487.655H595.219V491.188ZM593.453 473.002V489.421H596.986V473.002H593.453ZM589.693 474.768H595.219V471.235H589.693V474.768ZM587.926 450.477V473.002H591.459V450.477H587.926ZM591.186 448.71H589.693V452.244H591.186V448.71ZM690.998 532.435C690.333 532.431 689.615 532.432 688.79 532.434L688.797 535.967C689.625 535.965 690.327 535.964 690.974 535.968L690.998 532.435ZM698.826 532.436L690.986 532.435L690.986 535.968L698.825 535.969L698.826 532.436ZM700.592 537.891V534.202H697.059V537.891H700.592ZM706.665 536.124H698.825V539.657H706.665V536.124ZM708.432 541.579V537.891H704.899V541.579H708.432ZM710.354 539.812H706.665V543.345H710.354V539.812ZM712.121 553.105V541.579H708.588V553.105H712.121ZM714.505 551.338H710.354V554.871H714.505V551.338ZM716.272 560.942V553.105H712.738V560.942H716.272ZM718.194 559.176H714.505V562.709H718.194V559.176ZM719.961 564.63V560.942H716.428V564.63H719.961ZM721.884 562.864H718.194V566.397H721.884V562.864ZM723.65 568.319V564.63H720.117V568.319H723.65ZM729.723 566.552H721.884V570.085H729.723V566.552ZM731.49 572.468V568.319H727.957V572.468H731.49ZM733.413 570.701H729.723V574.234H733.413V570.701ZM735.179 576.156V572.468H731.646V576.156H735.179ZM737.102 574.39H733.413V577.923H737.102V574.39ZM738.868 579.844V576.156H735.335V579.844H738.868ZM749.092 578.078H737.102V581.611H749.092V578.078ZM747.326 576.156V579.844H750.859V576.156H747.326ZM752.781 574.39H749.092V577.923H752.781V574.39ZM751.015 572.468V576.156H754.548V572.468H751.015ZM756.471 570.701H752.781V574.234H756.471V570.701ZM754.704 564.63V572.468H758.237V564.63H754.704ZM760.621 562.864H756.471V566.397H760.621V562.864ZM758.855 541.579V564.63H762.388V541.579H758.855ZM764.31 539.812H760.621V543.345H764.31V539.812ZM762.544 537.891V541.579H766.077V537.891H762.544ZM768 536.124H764.31V539.657H768V536.124ZM766.233 534.202V537.891H769.766V534.202H766.233ZM772.15 534.202C772.154 532.436 772.154 532.436 772.154 532.436C772.154 532.436 772.154 532.436 772.154 532.436C772.154 532.436 772.154 532.436 772.153 532.436C772.153 532.436 772.153 532.436 772.152 532.436C772.151 532.436 772.149 532.436 772.146 532.436C772.141 532.436 772.134 532.436 772.124 532.436C772.104 532.436 772.076 532.436 772.038 532.436C771.964 532.435 771.855 532.435 771.721 532.435C771.451 532.435 771.076 532.434 770.653 532.434C769.807 532.433 768.766 532.433 767.993 532.436L768.006 535.969C768.771 535.966 769.805 535.966 770.65 535.967C771.072 535.967 771.446 535.968 771.715 535.968C771.849 535.968 771.957 535.969 772.032 535.969C772.069 535.969 772.098 535.969 772.117 535.969C772.127 535.969 772.134 535.969 772.139 535.969C772.142 535.969 772.143 535.969 772.145 535.969C772.145 535.969 772.146 535.969 772.146 535.969C772.146 535.969 772.146 535.969 772.146 535.969C772.146 535.969 772.146 535.969 772.147 535.969C772.147 535.969 772.147 535.969 772.15 534.202ZM770.384 530.047C770.38 530.97 770.38 532.011 770.381 532.819C770.382 533.224 770.382 533.571 770.383 533.816C770.383 533.939 770.383 534.037 770.383 534.104C770.383 534.137 770.384 534.163 770.384 534.181C770.384 534.189 770.384 534.196 770.384 534.201C770.384 534.203 770.384 534.204 770.384 534.206C770.384 534.206 770.384 534.207 770.384 534.207C770.384 534.207 770.384 534.207 770.384 534.207C770.384 534.207 770.384 534.207 770.384 534.207C770.384 534.207 770.384 534.207 772.15 534.202C773.917 534.197 773.917 534.197 773.917 534.197C773.917 534.197 773.917 534.197 773.917 534.197C773.917 534.197 773.917 534.197 773.917 534.197C773.917 534.197 773.917 534.196 773.917 534.196C773.917 534.195 773.917 534.193 773.917 534.191C773.917 534.186 773.917 534.18 773.917 534.171C773.917 534.154 773.917 534.128 773.917 534.095C773.916 534.029 773.916 533.931 773.916 533.809C773.915 533.564 773.915 533.219 773.914 532.816C773.914 532.009 773.914 530.975 773.917 530.059L770.384 530.047ZM779.529 528.286H772.15V531.82H779.529V528.286ZM777.762 526.365V530.053H781.295V526.365H777.762ZM786.907 524.598H779.529V528.131H786.907V524.598ZM788.674 530.053V526.365H785.141V530.053H788.674ZM798.898 528.286H786.907V531.82H798.898V528.286ZM797.131 526.365V530.053H800.664V526.365H797.131ZM802.587 524.598H798.898V528.131H802.587V524.598ZM800.82 522.677V526.365H804.353V522.677H800.82ZM810.427 520.91H802.587V524.443H810.427V520.91ZM808.66 518.967C808.655 519.44 808.655 520.375 808.656 521.179C808.657 521.584 808.658 521.96 808.659 522.235C808.659 522.372 808.659 522.484 808.66 522.562C808.66 522.601 808.66 522.631 808.66 522.652C808.66 522.662 808.66 522.67 808.66 522.675C808.66 522.678 808.66 522.68 808.66 522.682C808.66 522.682 808.66 522.683 808.66 522.683C808.66 522.683 808.66 522.683 808.66 522.683C808.66 522.684 808.66 522.684 808.66 522.684C808.66 522.684 808.66 522.684 810.427 522.677C812.193 522.669 812.193 522.669 812.193 522.669C812.193 522.669 812.193 522.669 812.193 522.669C812.193 522.669 812.193 522.669 812.193 522.669C812.193 522.669 812.193 522.668 812.193 522.668C812.193 522.666 812.193 522.664 812.193 522.662C812.193 522.656 812.193 522.649 812.193 522.638C812.193 522.618 812.193 522.588 812.193 522.549C812.193 522.472 812.192 522.36 812.192 522.224C812.191 521.95 812.19 521.576 812.189 521.173C812.188 520.362 812.188 519.453 812.193 519.01L808.66 518.967ZM814.116 517.222H810.427V520.755H814.116V517.222ZM812.349 499.164V518.988H815.883V499.164H812.349ZM810.427 500.931H814.116V497.397H810.427V500.931ZM808.66 495.476V499.164H812.193V495.476H808.66ZM806.276 497.242H810.427V493.709H806.276V497.242ZM804.51 491.787V495.476H808.043V491.787H804.51ZM802.587 493.554H806.276V490.021H802.587V493.554ZM800.82 487.638V491.787H804.353V487.638H800.82ZM798.898 489.405H802.587V485.872H798.898V489.405ZM797.131 483.95V487.638H800.664V483.95H797.131ZM797.635 485.716H798.898V482.183H797.635V485.716ZM799.402 485.153V483.95H795.868V485.153H799.402ZM793.045 486.919H797.635V483.386H793.045V486.919ZM791.278 480.569V485.153H794.811V480.569H791.278ZM788.351 482.336H793.045V478.803H788.351V482.336ZM786.584 475.884V480.569H790.118V475.884H786.584ZM783.76 477.651H788.351V474.117H783.76V477.651ZM781.993 462.134V475.884H785.526V462.134H781.993ZM793.045 460.368H783.76V463.901H793.045V460.368ZM791.278 448.181V462.134H794.811V448.181H791.278ZM788.351 449.948H793.045V446.415H788.351V449.948ZM786.584 443.598V448.181H790.118V443.598H786.584ZM783.76 445.365H788.351V441.831H783.76V445.365ZM781.993 429.848V443.598H785.526V429.848H781.993ZM788.351 428.082H783.76V431.615H788.351V428.082ZM786.584 420.58V429.848H790.118V420.58H786.584ZM793.045 418.813H788.351V422.346H793.045V418.813ZM791.278 417.117V420.58H794.811V417.117H791.278ZM791.278 415.793V417.117H794.811V415.793H791.278ZM791.616 417.559H793.045V414.026H791.616V417.559ZM788.351 417.559H791.616V414.026H788.351V417.559ZM786.584 411.21V415.793H790.118V411.21H786.584ZM783.76 412.976H788.351V409.443H783.76V412.976ZM781.993 406.626V411.21H785.526V406.626H781.993ZM779.066 408.392H783.76V404.859H779.066V408.392ZM777.3 401.941V406.626H780.833V401.941H777.3ZM774.475 403.708H779.066V400.175H774.475V403.708ZM772.708 397.358V401.941H776.242V397.358H772.708ZM760.498 399.124H774.475V395.591H760.498V399.124ZM762.264 401.941V397.358H758.731V401.941H762.264ZM746.724 403.708H760.498V400.175H746.724V403.708ZM744.957 397.358V401.941H748.49V397.358H744.957ZM737.44 399.124H746.724V395.591H737.44V399.124ZM735.673 392.775V397.358H739.206V392.775H735.673ZM732.849 394.541H737.44V391.008H732.849V394.541ZM731.082 388.089V392.775H734.615V388.089H731.082ZM718.769 389.856H732.849V386.323H718.769V389.856ZM720.535 392.775V388.089H717.002V392.775H720.535ZM714.178 394.541H718.769V391.008H714.178V394.541ZM715.944 402.042V392.775H712.411V402.042H715.944ZM718.769 400.276H714.178V403.809H718.769V400.276ZM720.535 406.626V402.042H717.002V406.626H720.535ZM714.178 408.392H718.769V404.859H714.178V408.392ZM715.944 411.21V406.626H712.411V411.21H715.944ZM700.404 412.976H714.178V409.443H700.404V412.976ZM698.637 401.941V411.21H702.17V401.941H698.637ZM691.018 403.708H700.404V400.175H691.018V403.708ZM692.784 406.626V401.941H689.251V406.626H692.784ZM686.426 408.392H691.018V404.859H686.426V408.392ZM688.193 411.21V406.626H684.66V411.21H688.193ZM681.733 412.976H686.426V409.443H681.733V412.976ZM683.499 415.793V411.21H679.966V415.793H683.499ZM677.143 417.559H681.733V414.026H677.143V417.559ZM678.909 420.477V415.793H675.376V420.477H678.909ZM672.551 422.244H677.143V418.711H672.551V422.244ZM674.318 434.329V420.477H670.785V434.329H674.318ZM667.858 436.096H672.551V432.563H667.858V436.096ZM669.624 448.181V434.329H666.091V448.181H669.624ZM663.266 449.948H667.858V446.415H663.266V449.948ZM665.033 452.866V448.181H661.5V452.866H665.033ZM649.391 454.632H663.266V451.099H649.391V454.632ZM651.158 457.45V452.866H647.625V457.45H651.158ZM644.698 459.216H649.391V455.683H644.698V459.216ZM646.464 462.033V457.45H642.931V462.033H646.464ZM640.106 463.8H644.698V460.266H640.106V463.8ZM641.873 471.403V462.033H638.34V471.403H641.873ZM644.698 469.637H640.106V473.17H644.698V469.637ZM646.464 480.672V471.403H642.931V480.672H646.464ZM658.573 478.905H644.698V482.438H658.573V478.905ZM660.339 489.838V480.672H656.806V489.838H660.339ZM653.982 491.605H658.573V488.072H653.982V491.605ZM653.632 491.605H653.982V488.072H653.632V491.605ZM655.398 495.476V489.838H651.865V495.476H655.398ZM649.02 497.242H653.632V493.709H649.02V497.242ZM650.786 499.164V495.476H647.253V499.164H650.786ZM645.331 500.931H649.02V497.397H645.331V500.931ZM647.097 518.988V499.164H643.564V518.988H647.097ZM649.02 517.222H645.331V520.755H649.02V517.222ZM650.789 521.619C650.791 520.711 650.794 519.62 650.786 518.967L647.254 519.01C647.261 519.629 647.258 520.688 647.256 521.609L650.789 521.619ZM650.786 522.676C650.786 522.39 650.788 522.022 650.789 521.619L647.256 521.609C647.254 522.01 647.253 522.384 647.253 522.676H650.786ZM650.113 520.908C649.71 520.909 649.334 520.909 649.02 520.909V524.443C649.337 524.443 649.718 524.442 650.12 524.441L650.113 520.908ZM652.721 520.91C652.009 520.905 650.997 520.907 650.113 520.908L650.12 524.441C651.009 524.44 652.003 524.438 652.697 524.443L652.721 520.91ZM660.549 520.91L652.709 520.909L652.709 524.443L660.549 524.443L660.549 520.91ZM662.316 526.365V522.677H658.782V526.365H662.316ZM663.266 524.598H660.549V528.131H663.266V524.598ZM661.5 522.226V526.365H665.033V522.226H661.5ZM667.858 520.46H663.266V523.993H667.858V520.46ZM669.624 531.495V522.226H666.091V531.495H669.624ZM681.835 529.728H667.858V533.262H681.835V529.728ZM687.298 529.728H681.835V533.262H687.298V529.728ZM689.063 534.202C689.063 533.548 689.064 532.481 689.065 531.495L685.531 531.495C685.531 532.454 685.53 533.567 685.53 534.202H689.063ZM688.79 532.434C688.331 532.434 687.837 532.435 687.296 532.435V535.968C687.84 535.968 688.337 535.968 688.797 535.967L688.79 532.434Z" fill="#0049FF"/>
</svg>
