<svg width="1947" height="1504" viewBox="0 0 1947 1504" fill="none" xmlns="http://www.w3.org/2000/svg">
<path fill-rule="evenodd" clip-rule="evenodd" d="M1351.52 1087.59H1353.29H1369.58H1371.35V1089.35V1093.04H1385.19H1386.96V1094.81V1098.12H1400.81H1402.57V1099.89V1103.05H1406.57H1408.33V1104.81V1108.73H1411.49H1413.26V1110.5V1124.5H1416.42H1418.19V1126.26V1140.11H1422.18H1423.95V1141.88V1156.41H1427.41V1157.29H1429.09V1161.24H1433.01H1434.77V1163V1166.21H1469.94H1471.7V1167.97V1171.89H1496.22H1497.99V1173.65V1176.86H1516.82H1518.59V1178.63V1182.55H1532.45H1534.21V1184.32V1187.51H1538.13H1539.89V1189.28V1192.49H1543.1H1544.87V1194.25V1198.17H1548.79H1550.55V1199.94V1203.15H1553.75H1555.52V1204.91V1213.8H1559.44H1561.21V1215.57V1219.48H1564.41H1566.18V1221.25V1229.42H1569.39H1571.15V1231.19V1235.1H1575.07H1576.83V1236.87V1242.56V1244.33H1575.07H1571.15V1250.73H1575.07H1576.83V1252.5V1261.39H1580.04H1581.8V1263.16V1266.36H1585.72H1587.48V1268.13V1284.46V1286.23H1585.72H1581.8V1290.15V1291.92H1580.04H1561.24L1561.25 1292.16L1561.25 1292.36L1561.25 1292.36C1561.27 1292.96 1561.29 1293.57 1561.3 1294.15C1561.31 1295.44 1561.25 1296.8 1560.9 1298.03C1560.54 1299.31 1559.83 1300.52 1558.54 1301.37C1557.7 1301.92 1556.68 1302.27 1555.52 1302.44V1305.78V1307.54H1553.75H1550.55V1310.75V1312.51H1548.79H1544.87V1316.43V1318.19H1543.1H1537.42H1535.65V1316.43V1312.51H1534.21V1321.4V1323.17H1532.45H1521.79H1520.03V1321.4V1318.19H1516.11H1514.34V1316.43V1307.54H1511.13H1509.37V1305.78V1302.57H1505.45H1503.69V1300.8V1291.92H1500.48H1498.71V1290.15V1286.23H1495.51H1493.74V1284.46V1281.26H1489.83H1488.06V1279.49V1276.28H1479.18H1477.41V1274.52V1265.63H1469.23H1467.46V1263.86V1259.95H1463.55H1461.78V1258.18V1254.98H1458.58H1456.81V1253.21V1244.33H1452.89H1451.12V1242.56V1239.35H1437.26H1435.5V1237.59V1233.66H1432.29H1430.53V1231.9V1207.39H1426.61H1424.85V1205.62V1202.41H1421.64H1419.87V1200.65V1196.73H1415.96H1414.19V1194.97V1191.76H1410.99H1409.22V1190V1184.32V1182.55H1410.99H1414.19V1181.11H1410.99H1409.22V1179.34V1176.14H1397.84V1182.55H1401.04H1402.81V1184.32V1198.17H1406.72H1408.49V1199.94V1203.15H1411.69H1413.46V1204.91V1213.8H1416.67H1418.43V1215.57V1226.93V1228.7H1416.67H1413.46V1242.56V1244.33H1411.69H1402.81V1248.24V1250.01H1401.04H1379.73H1377.96V1248.24V1244.33H1353.45H1351.68V1242.56V1239.35H1350.24V1242.56V1244.33H1348.48H1342.8H1341.03V1242.56V1239.35H1328.94V1240.08H1332.85H1334.62V1241.84V1253.21V1254.98H1332.85H1328.94V1290.15V1291.92H1327.17H1323.97V1327.08V1328.85H1322.2H1318.99V1337.73V1339.5H1317.23H1308.33V1347.68V1349.44H1306.57H1302.65V1350.88H1306.57H1308.33V1352.65V1358.34V1360.11H1306.57H1297.68V1379.64V1381.41H1295.91H1287.03V1390.3V1392.06H1285.26H1263.95H1262.18V1390.3V1386.38H1245.12V1390.3V1392.06H1243.35H1239.44V1395.27V1397.04H1237.67H1231.99H1230.22V1395.27V1392.06H1205.7H1203.94V1390.3V1375.73H1200.73H1198.96V1373.96V1365.79H1190.08H1188.31V1364.02V1360.11H1184.4H1182.63V1358.34V1355.13H1179.43H1177.66V1353.37V1349.44H1174.45H1172.69V1347.68V1344.47H1148.18H1146.41V1342.71V1339.5H1142.49H1140.72V1337.73V1333.82H1137.51H1135.75V1332.05V1310.75V1308.98H1137.51H1140.72V1281.26H1137.51H1135.75V1279.49V1276.28H1134.31V1281.99H1138.23H1140V1283.76V1295.11V1296.88H1138.23H1134.31V1300.8V1302.57H1132.54H1129.34V1310.75V1312.51H1127.57H1123.66V1329.58H1127.57H1129.34V1331.35V1337.73V1339.5H1127.57H1123.66V1347.68V1349.44H1121.89H1108.03V1353.37V1355.13H1106.26H1097.38V1358.34V1360.11H1095.61H1084.95H1083.18V1358.34V1355.13H1081.75V1358.34V1360.11H1079.99H1076.78V1364.02V1365.79H1075.01H1066.12V1368.99V1370.76H1064.35H1052.99H1051.23V1368.99V1365.79H1016.06H1014.29V1364.02V1360.11H1011.08H1009.32V1358.34V1349.44H1005.4H1003.64V1347.68V1344.47H1000.43H998.663V1342.71V1339.5H995.457H993.69V1337.73V1328.85H989.777H988.011V1327.08V1323.17H974.143H972.377V1321.4V1286.23H969.179H967.413L967.413 1284.46L967.413 1253.39L967.413 1251.63H969.179H988.423V1202.75V1200.98H990.19H996.334H998.1V1202.75V1208.81H1001.49V1205.19V1203.43H1003.26H1016.73H1018.49V1205.19V1208.86L1027.56 1209.1H1043.09H1044.86V1210.86V1213.99H1077.17V1210.86V1209.1H1078.93H1093.08V1205.79V1204.03H1094.84H1116.7H1118.46V1205.79V1209.1H1121.77H1123.53V1210.86V1213.99H1127.19H1128.95V1215.76V1219.76H1138.03H1139.79V1221.53V1224.48H1142.92H1144.69V1226.25V1229.73H1164.25H1166.02V1231.49V1235.32H1177.35V1231.49V1229.73H1179.11H1182.42V1226.25V1224.48H1184.18H1193.26V1221.53V1219.76H1195.02H1198.67V1207.56H1195.02H1193.26V1205.79V1192H1189.88H1188.11V1190.23V1158.17V1156.41H1189.88H1203.73V1147.49V1145.72H1205.49H1208.73V1141.65V1139.88H1210.5H1214.49V1136.8V1135.03H1216.26H1225.1V1131.72V1129.95H1226.87H1235.03V1126.11V1124.35H1236.8H1245.64V1121.19V1119.42H1247.41H1256.4V1115.43V1113.66H1258.17H1300.06V1110.58V1108.81H1301.82H1319.54V1104.97V1103.2H1321.3H1330.22V1099.89V1098.12H1331.99H1340.83V1094.81V1093.04H1342.6H1351.52V1089.35V1087.59ZM1425.55 1159.94H1422.18H1420.41V1158.17V1143.64H1416.42H1414.65V1141.88V1128.03H1411.49H1409.73V1126.26V1112.27H1406.57H1404.8V1110.5V1106.58H1400.81H1399.04V1104.81V1101.65H1385.19H1383.43V1099.89V1096.58H1369.58H1367.81V1094.81V1091.12H1355.05V1094.81V1096.58H1353.29H1344.37V1099.89V1101.66H1342.6H1333.76V1104.97V1106.73H1331.99H1323.07V1110.58V1112.34H1321.3H1303.59V1115.43V1117.19H1301.82H1259.93V1121.19V1122.95H1258.17H1249.17V1126.11V1127.88H1247.41H1238.56V1131.72V1133.49H1236.8H1228.63V1136.8V1138.57H1226.87H1218.02V1141.65V1143.42H1216.26H1212.26V1147.49V1149.25H1210.5H1207.26V1158.17V1159.94H1205.49H1191.65V1188.47H1195.02H1196.79V1190.23V1204.03H1200.44H1202.21V1205.79V1221.53V1223.29H1200.44H1196.79V1226.25V1228.01H1195.02H1185.95V1231.49V1233.26H1184.18H1180.88V1237.09V1238.85H1179.11H1164.25H1162.48V1237.09V1233.26H1142.92H1141.16V1231.49V1228.01H1138.03H1136.26V1226.25V1223.29H1127.19H1125.42V1221.53V1217.52H1121.77H1120V1215.76V1212.63H1116.7H1114.93V1210.86V1207.56H1096.61V1210.86V1212.63H1094.84H1080.7V1215.76V1217.52H1078.93H1043.09H1041.33V1215.76V1212.63H1027.53H1027.51L1027.49 1212.63L1016.68 1212.34L1014.96 1212.3V1210.58V1206.96H1005.03V1210.58V1212.35H1003.26H996.334H994.567V1210.58V1204.52H991.957V1253.39V1255.16H990.19H970.946L970.946 1282.7H974.143H975.91V1284.46V1319.63H989.777H991.544V1321.4V1325.31H995.457H997.224V1327.08V1335.97H1000.43H1002.2V1337.73V1340.94H1005.4H1007.17V1342.71V1345.91H1011.08H1012.85V1347.68V1356.57H1016.06H1017.82V1358.34V1362.25H1052.99H1054.76V1364.02V1367.23H1062.59V1364.02V1362.25H1064.35H1073.25V1358.34V1356.57H1075.01H1078.22V1353.37V1351.6H1079.99H1084.95H1086.72V1353.37V1356.57H1093.85V1353.37V1351.6H1095.61H1104.5V1347.68V1345.91H1106.26H1120.12V1337.73V1335.97H1121.89H1125.8V1333.11H1121.89H1120.12V1331.35V1310.75V1308.98H1121.89H1125.8V1300.8V1299.04H1127.57H1130.78V1295.11V1293.35H1132.54H1136.46V1285.52H1132.54H1130.78V1283.76V1274.52V1272.75H1132.54H1137.51H1139.28V1274.52V1277.72H1142.49H1144.25V1279.49V1310.75V1312.51H1142.49H1139.28V1330.29H1142.49H1144.25V1332.05V1335.97H1148.18H1149.94V1337.73V1340.94H1174.45H1176.22V1342.71V1345.91H1179.43H1181.19V1347.68V1351.6H1184.4H1186.17V1353.37V1356.57H1190.08H1191.85V1358.34V1362.25H1200.73H1202.5V1364.02V1372.2H1205.7H1207.47V1373.96V1388.53H1231.99H1233.76V1390.3V1393.5H1235.9V1390.3V1388.53H1237.67H1241.58V1384.62V1382.85H1243.35H1263.95H1265.71V1384.62V1388.53H1283.49V1379.64V1377.88H1285.26H1294.15V1358.34V1356.57H1295.91H1304.8V1354.42H1300.89H1299.12V1352.65V1347.68V1345.91H1300.89H1304.8V1337.73V1335.97H1306.57H1315.46V1327.08V1325.31H1317.23H1320.43V1290.15V1288.38H1322.2H1325.41V1253.21V1251.44H1327.17H1331.09V1243.61H1327.17H1325.41V1241.84V1237.59V1235.82H1327.17H1342.8H1344.56V1237.59V1240.79H1346.71V1237.59V1235.82H1348.48H1353.45H1355.22V1237.59V1240.79H1379.73H1381.49V1242.56V1246.47H1399.27V1242.56V1240.79H1401.04H1409.93V1226.93V1225.17H1411.69H1414.9V1217.33H1411.69H1409.93V1215.57V1206.68H1406.72H1404.95V1204.91V1201.71H1401.04H1399.27V1199.94V1186.08H1396.07H1394.3V1184.32V1174.37V1172.6H1396.07H1410.99H1412.75V1174.37V1177.58H1415.96H1417.73V1179.34V1184.32V1186.08H1415.96H1412.75V1188.23H1415.96H1417.73V1190V1193.2H1421.64H1423.41V1194.97V1198.88H1426.61H1428.38V1200.65V1203.85H1432.29H1434.06V1205.62V1230.13H1437.26H1439.03V1231.9V1235.82H1452.89H1454.66V1237.59V1240.79H1458.58H1460.34V1242.56V1251.44H1463.55H1465.32V1253.21V1256.42H1469.23H1471V1258.18V1262.1H1479.18H1480.94V1263.86V1272.75H1489.83H1491.6V1274.52V1277.72H1495.51H1497.27V1279.49V1282.7H1500.48H1502.25V1284.46V1288.38H1505.45H1507.22V1290.15V1299.04H1511.13H1512.9V1300.8V1304.01H1516.11H1517.87V1305.78V1314.66H1521.79H1523.56V1316.43V1319.63H1530.68V1310.75V1308.98H1532.45H1537.42H1539.19V1310.75V1314.66H1541.33V1310.75V1308.98H1543.1H1547.02V1305.78V1304.01H1548.79H1551.99V1300.8V1299.06L1553.73 1299.04C1555.28 1299.02 1556.13 1298.72 1556.6 1298.41C1557.03 1298.13 1557.31 1297.73 1557.5 1297.06C1557.71 1296.34 1557.77 1295.41 1557.76 1294.18C1557.76 1293.64 1557.74 1293.07 1557.72 1292.46L1557.71 1292.27C1557.69 1291.6 1557.67 1290.88 1557.67 1290.15V1288.38H1559.44H1578.27V1284.46V1282.7H1580.04H1583.95V1269.9H1580.04H1578.27V1268.13V1264.92H1575.07H1573.3V1263.16V1254.26H1569.39H1567.62V1252.5V1242.56V1240.79H1569.39H1573.3V1238.64H1569.39H1567.62V1236.87V1232.96H1564.41H1562.65V1231.19V1223.01H1559.44H1557.67V1221.25V1217.33H1553.75H1551.99V1215.57V1206.68H1548.79H1547.02V1204.91V1201.71H1543.1H1541.33V1199.94V1196.02H1538.13H1536.36V1194.25V1191.05H1532.45H1530.68V1189.28V1186.08H1516.82H1515.06V1184.32V1180.39H1496.22H1494.46V1178.63V1175.42H1469.94H1468.17V1173.65V1169.74H1433.01H1431.24V1167.97V1164.77H1427.32H1425.55V1163V1159.94ZM1338.99 1422.05V1424.21H1337.86H1335.46H1334.33V1426.23V1427.74V1429.76H1331.76H1330.8H1328.22V1430.69V1433.3V1434.23H1328.03H1324.69H1324.5V1434.41V1437.76V1437.94H1324.31H1320.97H1320.77V1438.13V1441.48V1441.66H1319.84H1317.24H1316.3V1445.19V1445.56V1449.1H1316.11H1312.77H1312.58V1452.63V1461.92V1465.45H1312.77H1316.11H1316.3V1468.99V1469.36V1472.89H1317.24H1319.84H1320.77V1473.07V1476.42V1476.61H1320.97H1324.31H1324.5V1476.79V1480.14V1480.32H1324.69H1328.03H1328.22V1481.25V1483.86V1484.78H1328.42H1331.76H1331.95V1488.32V1488.69V1492.22H1332.14H1335.48H1335.67V1492.4V1495.75V1495.94H1336.61H1339.21H1340.14V1496.12V1499.47V1499.65H1343.68H1344.06H1347.6V1499.84V1503.19V1503.37H1351.13H1355.98H1359.52V1503.19V1499.84V1499.65H1363.05H1363.43H1366.97V1499.47V1496.12V1495.94H1367.16H1370.5H1370.69V1495.75V1492.4V1492.22H1374.22H1375.35H1378.89V1492.03L1378.89 1488.69V1488.5H1379.08H1382.42H1382.61V1488.32V1484.97V1484.78H1382.8H1386.14H1386.34V1483.86V1481.25V1480.32H1386.53H1389.87H1390.06V1476.79V1476.42V1472.89H1390.25H1393.59H1393.79V1469.36V1464.52V1460.99H1393.98H1397.32H1397.51V1460.81V1457.46V1457.27H1397.32H1393.98H1393.79V1453.74V1452.63V1449.1H1393.59H1390.25H1390.06V1448.91V1445.56V1445.38H1389.87H1386.53H1386.34V1445.19V1441.85V1441.66H1386.14H1382.8H1382.61V1438.13V1429.58V1426.05H1382.42H1379.08H1378.89V1425.86V1422.51V1422.33H1377.95H1375.35H1374.42V1422.14V1418.8V1418.61H1374.22H1370.88H1370.69V1418.43V1415.08V1414.89H1370.5H1367.16H1366.97V1414.71V1411.36V1411.18H1366.77H1363.43H1363.24V1407.64V1406.53V1403H1362.3H1359.71H1358.77V1403.18V1406.53V1406.72H1358.58H1355.24H1355.05V1407.64V1410.25V1411.18H1351.51H1351.13H1347.6V1411.36V1414.71V1414.89H1347.4H1344.06H1343.87V1415.08V1418.43V1418.61L1342.52 1418.59L1340.34 1418.55L1338.99 1418.52V1420.68V1422.05ZM1342.52 1422.12V1424.21V1427.74H1338.99H1337.86V1429.76V1433.3H1334.33H1331.76V1434.23V1437.76H1328.22H1328.03V1437.94V1441.48H1324.5H1324.31V1441.66V1445.19H1320.77H1319.84V1449.1V1452.63H1316.3H1316.11V1461.92H1316.3H1319.84V1465.45V1469.36H1320.77H1324.31V1472.89V1473.07H1324.5H1328.03V1476.61V1476.79H1328.22H1331.76V1480.32V1481.25H1331.95H1335.48V1484.78V1488.69H1335.67H1339.21V1492.22V1492.4H1340.14H1343.68V1495.94V1496.12H1347.6H1351.13V1499.65V1499.84H1355.98V1499.65V1496.12H1359.52H1363.43V1495.94V1492.4H1366.97H1367.16V1492.22V1488.69H1370.69H1375.35V1488.5V1484.97H1378.89H1379.08V1484.78V1481.25H1382.61H1382.8V1480.32V1476.79H1386.34H1386.53V1472.89V1469.36H1390.06H1390.25V1460.99V1460.81V1457.46V1457.27V1452.63H1390.06H1386.53V1449.1V1448.91H1386.34H1382.8V1445.38V1445.19H1382.61H1379.08V1441.66V1429.58H1378.89H1375.35V1426.05V1425.86H1374.42H1370.88V1422.33V1422.14H1370.69H1367.16V1418.61V1418.43H1366.97H1363.43V1414.89V1414.71H1363.24H1359.71V1411.18V1410.25H1358.77H1358.58V1411.18V1414.71H1355.05H1351.13V1414.89V1418.43H1347.6H1347.4V1418.61V1422.21L1343.8 1422.14L1342.52 1422.12ZM1191.3 1447.27H1187.76V1449.25H1185.15V1436.07H1187.76V1441.56V1445.09H1191.3H1192.6V1447.27H1191.3ZM1181.62 1432.54V1436.07V1449.25V1452.78H1185.15H1187.76H1191.3V1450.8H1192.6H1194.83H1196.14V1447.27V1445.09V1441.56H1194.83H1192.6H1191.3V1438.03V1436.07V1432.54H1187.76H1185.15H1181.62ZM1584.11 1336.07V1339.6V1343.94H1584.43H1587.96V1347.47V1347.79H1587.99H1591.52V1351.33V1351.36H1591.54H1595.07V1354.89V1354.92H1595.09H1598.62V1358.45V1358.48H1598.64H1602.18V1362.02V1362.05H1602.49H1606.03V1365.58V1365.91H1606.05H1609.58V1369.44V1369.47H1616.71H1620.24V1373V1373.03H1620.56H1624.09V1376.56V1376.59H1631.22H1634.75V1380.13V1380.16H1634.77H1635.09H1638.3H1638.62H1642.17H1645.7V1383.69V1384.02H1649.6V1380.13V1376.59H1653.13H1656.7V1376.56V1373.03H1660.23H1660.55V1373V1369.47H1664.08H1667.66V1369.44V1365.91H1671.19H1674.76V1365.58V1362.05H1678.3H1678.32V1362.02V1358.48H1681.85H1682.17V1356.17V1352.64H1685.7H1689.25H1692.83V1351.36H1696.36H1700.23V1348V1344.46H1703.76H1707.02H1707.34V1340.01H1706.4V1338.8L1703.88 1338.79V1336.45H1703.76H1700.23V1332.92V1332.89H1699.91H1696.38V1329.36V1329.33H1696.36H1692.83V1325.79V1325.76H1692.81H1689.27V1322.23V1321.9H1689.25H1685.72V1318.37V1314.78H1685.7H1682.17V1311.25V1300.56V1297.03H1685.7H1685.72V1293.43V1289.9H1689.25H1689.27V1286.01V1282.48H1692.81H1692.83V1278.56H1689.61V1275.03V1272.45V1268.92H1693.15H1693.76V1263.26H1688.91H1685.37V1259.73V1259.11H1672.11H1668.58V1255.58V1238.09H1667.96H1664.43V1234.55V1221.29H1654.53V1221.91V1225.45H1651H1650.38V1226.15V1229.69H1646.85H1646.14V1230.31V1233.85H1642.61H1641.99V1234.55V1238.09H1638.46H1633.6V1238.71V1242.24H1630.06H1609.12H1605.59V1238.71V1238.09H1600.01V1238.79V1252.14H1600.64H1604.17V1255.67V1256.29H1604.88H1608.41V1259.82V1264.68H1609.03H1612.56V1268.21V1280.76V1284.3H1609.03H1604.17V1289.15V1292.69H1600.64H1600.01V1298.25H1600.64H1604.17V1301.79V1318.49V1322.02H1600.64H1592.33H1588.8V1318.49V1313.63H1583.94H1580.41V1310.1V1309.48H1578.99V1319.29H1579.7H1583.23V1322.82V1336.07H1584.11ZM1697.3 1271.49V1272.45H1696.68H1696.36H1693.76H1693.15V1275.03H1696.36V1275.98V1278.56V1282.48V1286.01H1696.34H1692.83H1692.81V1289.54V1289.9V1293.43H1692.78H1689.27H1689.25V1296.97V1297.03V1300.56H1689.23H1685.72H1685.7V1304.09V1307.71V1311.25H1685.72H1689.23H1689.25V1314.78V1314.84V1318.37H1689.27H1692.78H1692.81V1318.7V1321.9V1322.23H1692.83H1696.34H1696.36V1322.26V1325.76V1325.79H1696.38H1699.89H1699.91V1325.82V1329.33V1329.36H1700.23H1703.44H1703.76V1329.39V1332.89V1332.92H1703.88H1707.29H1707.41V1335.27L1708.98 1335.28H1709.93V1336.48H1710.87V1340.01V1347.79V1351.33H1710.55H1707.34H1707.29H1707.02V1348H1703.76V1351.33V1351.36V1351.53V1354.86V1354.89H1700.23H1699.89H1696.36V1356.17H1692.83H1689.25H1689.23H1685.7V1358.48V1359.71V1362.02H1685.38H1682.17H1681.85V1362.05V1365.55V1365.58H1681.83H1678.32H1678.3V1365.91V1369.11V1369.44H1674.76H1674.72H1671.19V1369.47V1372.97V1373H1667.66H1667.62H1664.08V1373.03V1376.53V1376.56H1663.77H1660.55H1660.23V1376.59V1380.1V1380.13H1656.7H1656.66H1653.13V1383.66V1384.02V1387.55H1649.6H1645.7H1642.17V1387.22V1384.02V1383.69H1642.15H1638.64H1638.62V1384.02V1387.22V1387.55H1638.3H1635.09H1634.77V1387.22V1384.02V1383.69H1634.75H1631.24H1631.22V1383.66V1380.16V1380.13H1627.68H1624.09H1620.56V1380.1V1376.59V1376.56H1620.24H1617.02H1616.71V1376.53V1373.03V1373H1613.17H1609.58H1606.05V1372.97V1369.47V1369.44H1606.03H1602.52H1602.49V1369.11V1365.91V1365.58H1602.18H1598.96H1598.64V1365.55V1362.05V1362.02H1598.62H1595.11H1595.09V1361.98V1358.48V1358.45H1595.07H1591.56H1591.54V1358.42V1354.92V1354.89H1591.52H1588.01H1587.99V1354.86V1351.36V1351.33H1587.96H1584.45H1584.43V1351V1347.79V1347.47H1584.11H1580.9H1580.58V1343.94V1343.14V1339.6H1579.7V1336.07V1326.35V1322.82H1578.99H1576.16H1575.46V1319.29V1309.48V1305.95H1578.99H1580.41H1583.94V1306.57V1309.48V1310.1H1587.47H1588.8H1592.33V1313.63V1314.96V1318.49H1595.86H1597.11H1600.64V1314.96V1305.32V1301.79H1600.01H1597.11H1596.48V1298.25V1292.69V1289.15H1597.11H1600.01H1600.64V1285.62V1284.3V1280.76H1604.17H1605.5H1609.03V1277.23V1271.74V1268.21H1608.41H1605.5H1604.88V1264.68V1263.35V1259.82H1604.17H1601.35H1600.64V1259.2V1256.29V1255.67H1600.01H1597.11H1596.48V1252.14V1242.32V1238.79H1595.78H1592.95H1592.25V1238.09V1235.25V1234.55H1595.78H1605.59H1609.12V1235.17V1238.09V1238.71H1612.65H1626.53H1630.06V1238.09V1235.17V1234.55H1633.6H1634.92H1638.46V1233.85V1231.02V1230.31H1639.08H1641.99H1642.61V1229.69V1226.78V1226.15H1643.32H1646.14H1646.85V1225.45V1222.62V1221.91H1647.47H1650.38H1651V1221.29V1218.38V1217.76H1654.53H1664.43H1667.96V1221.29V1231.02V1234.55H1668.58H1671.49H1672.11V1238.09V1252.05V1255.58H1675.65H1685.37H1688.91V1256.2V1259.11V1259.73H1692.44H1693.76H1697.3V1263.26V1268.92V1271.49ZM1493.27 1426.26V1429.65V1430.94V1434.33H1493.11H1489.87H1489.72V1435.27V1437.73V1438.66H1486.33H1482.04C1482.03 1439.09 1482.02 1439.63 1482.02 1440.19C1482.02 1441.79 1482.04 1443.59 1482.04 1443.59H1481.73H1478.65H1478.34V1445V1446.98V1448.39C1478.34 1448.39 1476.95 1448.37 1474.94 1448.35C1471.97 1448.32 1467.63 1448.29 1464.4 1448.32C1462.99 1448.33 1461.79 1448.35 1461.01 1448.39V1447.85V1444.99V1444.45H1457.62H1456.29H1452.9V1443.51V1441.06V1440.12H1451.96H1449.5H1448.57V1436.72L1448.57 1435.83V1432.44H1447.43H1445.17H1444.04V1429.04V1420.82V1415.98V1412.59H1440.64H1434.94H1434.2H1430.81V1412.24V1408.85H1427.41H1418.25H1414.86V1405.69H1411.46H1409.19H1405.8V1402.3V1401.64V1398.25H1405.06H1402.4H1401.66V1397.9V1394.86V1394.51H1400.25H1398.27H1396.86V1391.11V1377.38L1400.8 1377.18V1369.74V1366.35H1399.27H1397.4H1395.88V1362.95V1361.08V1357.68H1395.14H1392.48H1391.74V1357.34V1354.29V1353.94H1390.21H1388.35H1386.82V1350.55V1350.24L1386.08 1350.24L1383.43 1350.24L1382.68 1350.24V1349.89V1346.5H1381.94H1379.29H1378.55V1346.15V1343.1V1342.76H1377.53L1375.16 1342.76L1374.14 1342.76L1374.14 1339.36L1374.14 1332.41H1374.45H1377.84V1331.56V1329.02V1328.16H1375.81H1374.45H1372.42V1324.77V1317.96V1314.56H1373.5H1375.81H1376.9V1311.17V1300.04V1296.64H1377.89H1380.29H1381.28V1295.54V1293.25V1292.14H1384.68H1386.84H1390.24V1291.03V1288.75V1287.63H1393.63H1395.8H1399.19V1286.52V1284.24V1283.13H1400.18H1402.59H1403.58V1282.21V1279.74V1278.82H1400.18H1398.11H1394.71V1275.43V1273.11V1269.72H1395.8H1398.11H1399.19V1268.6V1266.32V1265.21H1400.18H1402.59H1403.58V1264.1V1261.82V1260.71H1406.97H1413.61H1417.01V1259.69V1257.31V1256.3H1420.4H1422.57H1425.96V1257.31V1259.69V1260.71H1426.96H1429.36H1430.36V1259.69V1257.31V1256.3H1433.75H1436.01H1439.4V1257.31V1259.69V1260.71H1442.8H1449.35H1452.74V1264.1V1275.33V1278.72H1456.14H1458.3H1461.7V1279.74V1282.11V1283.13H1462.79H1465.09H1466.18V1284.24V1286.52V1287.63H1469.57H1476.13H1479.52V1291.03V1297.85V1301.24H1478.43H1476.13H1475.04V1302.16V1304.64V1305.55H1478.43H1480.6H1483.99V1306.66V1308.95V1310.05H1485.08H1487.39H1488.48V1313.45V1315.76V1319.15H1487.39H1485.08H1483.99V1322.55V1333.59V1336.99H1485.08H1487.39H1488.48V1340.38V1342.59V1345.99H1491.87H1493.95H1497.34V1347.1V1349.38V1350.5H1500.74H1502.9H1506.3V1353.89V1365.02V1368.42H1509.69H1511.86H1515.26V1371.81V1383.04V1386.43H1514.17H1511.86H1510.77V1389.82V1392.04V1395.43H1509.69H1507.38H1506.3V1396.36V1398.82V1399.75H1507.38H1509.69H1510.77V1403.15V1414.46V1417.85H1509.69H1507.38H1506.3V1418.87V1421.25V1422.26H1505.21H1502.9H1501.82V1422.87V1425.66V1426.26H1498.42H1496.66H1493.27ZM1489.87 1426.26V1430.94H1489.72H1486.33V1434.33V1435.27H1482.04H1478.74L1478.65 1438.57C1478.64 1439.03 1478.63 1439.61 1478.63 1440.19H1478.34H1474.94V1443.59V1444.96C1473.81 1444.95 1472.49 1444.93 1471.11 1444.93C1468.88 1444.91 1466.45 1444.91 1464.4 1444.92V1444.45V1441.06H1461.01H1456.29V1440.12V1436.72H1452.9H1451.96V1432.44V1429.04H1448.57H1447.43V1420.82V1412.59V1409.19H1444.04H1434.94H1434.2V1408.85V1405.45H1430.81H1418.25L1418.25 1402.3H1414.86H1409.19V1398.25V1394.86H1405.8H1405.06V1394.51V1391.11H1401.66H1400.25V1380.6L1400.97 1380.57L1404.19 1380.41V1377.18V1366.35V1362.95H1400.8H1399.27V1357.68V1354.29H1395.88H1395.14V1353.94V1350.55H1391.74H1390.21V1350.24V1346.85L1386.82 1346.85H1386.08V1346.5V1343.1H1382.68H1381.94V1342.76V1339.36L1378.55 1339.36L1377.53 1339.36L1377.53 1335.81H1377.84H1381.24V1332.41V1328.16V1324.77H1377.84H1375.81V1317.96H1376.9H1380.29V1314.56V1300.04H1381.28H1384.68V1296.64V1295.54H1390.24H1393.63V1292.14V1291.03H1399.19H1402.59V1287.63V1286.52H1403.58H1406.97V1283.13V1278.82V1275.43H1403.58H1398.11V1273.11H1399.19H1402.59V1269.72V1268.6H1403.58H1406.97V1265.21V1264.1H1417.01H1420.4V1260.71V1259.69H1422.57V1260.71V1264.1H1425.96H1430.36H1433.75V1260.71V1259.69H1436.01V1260.71V1264.1H1439.4H1449.35V1278.72V1282.11H1452.74H1458.3V1283.13V1286.52H1461.7H1462.79V1287.63V1291.03H1466.18H1476.13V1297.85H1475.04H1471.64V1301.24V1305.55V1308.95H1475.04H1480.6V1310.05V1313.45H1483.99H1485.08V1315.76H1483.99H1480.6V1319.15V1336.99V1340.38H1483.99H1485.08V1345.99V1349.38H1488.48H1493.95V1350.5V1353.89H1497.34H1502.9V1368.42V1371.81H1506.3H1511.86V1383.04H1510.77H1507.38V1386.43V1392.04H1506.3H1502.9V1395.43V1399.75V1403.15H1506.3H1507.38V1414.46H1506.3H1502.9V1417.85V1418.87H1501.82H1498.42V1422.26V1422.87H1493.27H1489.87V1426.26Z" fill="#0049FF"/>
</svg>
