<svg width="1947" height="1504" viewBox="0 0 1947 1504" fill="none" xmlns="http://www.w3.org/2000/svg">
<path d="M731.198 89.6824V84H742.564V89.6824H747.536V100.337H763.163V94.6546H773.817V100.337H789.444V94.6546H795.126V100.337H810.043V94.6546H815.725V89.6824H826.379V94.6546H832.062V100.337H847.688V105.309H858.343V110.281H863.315V116.674H842.006V110.992H832.062V115.964H837.034V126.618H847.688V131.59H852.661V126.618H863.315V136.562H873.97V147.217H879.652V152.9H895.282V157.872H905.934V162.844H910.191V157.872H921.559V162.844H932.212V168.526H936.478V162.844C938.2 162.85 940.921 162.442 942.14 163.982C943.315 165.466 942.873 168.192 942.873 169.947V184.153H952.81V194.807H958.498V205.462H969.15V210.434H973.408V205.462H979.096V221.089H1000.4V226.061H1025.97V221.089H1047.99V226.771H1042.31V231.744H1057.94V210.434H1067.88V205.462H1074.28V226.061H1079.25V231.744H1104.82V226.061H1126.83V236.716H1141.75V231.744H1158.09V236.716H1163.77V242.398H1168.75V247.37H1174.42V258.025H1184.37V269.389H1174.42V278.322H1184.37V284.306H1190.06V289.278H1194.08V278.322H1216.34V284.306H1220.59V278.624H1226.28V273.905H1231.25V268.679H1253.28V300.643H1247.59V316.269H1242.61V348.233H1238.93V361V364.15V374.804V379.776H1244.61V390.431H1249.59V396.113H1255.28V406.768H1249.59V422.394H1255.28V427.366H1265.93V432.339V446.704H1256.25V457.359H1251.28V462.33H1245.59V468.013H1240.61V483.64H1235.36V489.009H1224.99V499.267H1219.31V504.949H1214.34V514.603H1209.94V508.921H1200V503.949H1184.37H1178.69V498.267H1168.04V491.101H1142.47V498.267H1137.49V503.949H1121.15V508.921H1115.47V503.949H1079.25V508.921H1074.28V514.603H1068.59V519.576H1063.62V530.23H1058.64V555.801H1063.62V560.773H1068.59V567.166H1063.62V577.11H1052.96V582.792H1047.99V593.447H1042.31V598.419H1037.34C1037.29 602.895 1036.13 604.048 1031.66 604.101V614.046H1021.71V619.728H1016.03V655.954H1021.71V665.898H1026.69V671.58H1037.34V676.552H1042.31V692.889H1037.34V703.544H1031.66V709.227H1026.69V734.797H1037.34V751.135H1031.66V756.107H1005.37V761.789H1000.4V772.444H989.749V782.388H984.776V793.043H979.096V814.352H974.123V825.006H969.15V834.951H974.123V866.914H963.471V898.167H958.498V908.822H952.81V914.504H947.837V919.476H937.185V930.131H932.212V935.103H926.532V940.785H921.559V945.757H915.88V951.44H910.907V956.412H905.934V967.067H900.255V977.717H895.282V986.178H885.434V977.717H874.019H868.312H862.605V960.674H868.287V956.412H862.605V950.73H868.287V924.448H873.259V897.457H878.942V893.195H873.259V887.513H878.942V881.83H888.887V876.858H894.566V871.176H905.219V866.914H899.539V851.287H894.566V845.605H888.887V834.951H894.566V824.296H899.539V813.642H905.219V809.38C900.749 809.33 899.592 808.172 899.539 803.697H894.566V793.043H888.887C888.887 787.331 887.383 781.763 894.566 781.678V771.734H899.539V766.051H905.219V750.424H915.164V746.163H910.191V739.769H915.164V729.826H910.191V698.572H905.219V687.917H899.539V676.552H905.219V671.58H910.191V665.898H915.164V660.926H920.853V650.271H925.826V639.617H931.505V623.99H936.478V611.046H931.505V601.101C926.576 601.043 925.834 599.422 925.826 594.709H931.505V558.483H925.826V553.511H910.191V547.829H905.219V515.865H910.191V510.893H915.164V500.949H910.191V495.267H905.219V490.294H899.539V457.62H905.219V453.359H899.539V448.387H894.566V442.704H888.887V426.366H894.566V416.422H888.887V405.768H883.914V400.795H878.942H872.647V386.499H853.371V358.887H846.978V348.233H842.006V342.551H836.324V337.578H831.352V321.952C826.876 321.899 825.723 320.746 825.669 316.269H820.697V311.297H815.725V306.325C811.939 306.325 808.146 306.393 804.36 306.322C802.948 306.295 801.103 306.42 800.118 305.187C799.167 303.999 799.404 302.054 799.388 300.643H790.154V321.952H784.472V353.205H768.135V348.233H741.853V342.551H731.198V337.578H726.226V332.606C722.441 332.606 714.862 332.603 714.862 332.603L709.889 332.606V326.924H704.917V321.952H699.945V289.278H704.917V278.624H709.889V263.707H699.945V236.716H704.917V221.089H720.544V216.117H726.226V210.434H731.198V199.779H736.881V163.554H731.198V126.618H736.881V106.019H731.198V95.3649H726.226V89.6824H731.198Z" stroke="#0049FF" stroke-width="3.53312"/>
</svg>
