<svg width="72" height="72" viewBox="0 0 72 72" fill="none" xmlns="http://www.w3.org/2000/svg">
<path d="M14 50.2764L28.6667 57.2959V71.3998L14 64.3598V50.2764Z" fill="#FF5CD1"/>
<path d="M43.3346 50.2764L28.668 57.2959V71.3998L43.3346 64.3598V50.2764Z" fill="#27FFF9"/>
<path d="M28.6667 43.2437L14 50.2768L28.6497 57.31L43.3333 50.2768L28.6667 43.2437Z" fill="#FCEE21"/>
<path d="M14 36.2002L28.6667 43.2163V57.3236L14 50.2836V36.2002Z" fill="#FF5CD1"/>
<path d="M43.3346 36.2002L28.668 43.2163V57.3236L43.3346 50.2836V36.2002Z" fill="#27FFF9"/>
<path d="M28.6667 29.1665L14 36.1997L28.6497 43.2328L43.3333 36.1997L28.6667 29.1665Z" fill="#5C10BF"/>
<path d="M57.9987 29.1567L43.332 36.1728V50.2767L57.9987 43.2367V29.1567Z" fill="#27FFF9"/>
<path d="M43.3346 22.123L28.668 29.1562L43.3177 36.186L58.0013 29.1562L43.3346 22.123Z" fill="#27FFF9"/>
<path d="M28.668 15.0767L43.3346 22.0962V36.2001L28.668 29.1601V15.0767Z" fill="#932CFF"/>
<path d="M57.9987 15.0767L43.332 22.0962V36.2001L57.9987 29.1601V15.0767Z" fill="#27FFF9"/>
<path d="M43.3346 8.04346L28.668 15.0766L43.3177 22.1098L58.0013 15.0766L43.3346 8.04346Z" fill="#06C4FF"/>
<path d="M14 8.0332L28.6667 15.0493V29.1566L14 22.1132V8.0332Z" fill="#932CFF"/>
<path d="M28.6667 1L14 8.03317L28.6497 15.0663L43.3333 8.03317L28.6667 1Z" fill="#06C4FF"/>
</svg>
