<svg width="241" height="40" viewBox="0 0 241 40" fill="none" xmlns="http://www.w3.org/2000/svg">
<g clip-path="url(#clip0_6046_35612)">
<path d="M6.50391 27.4263L14.2681 31.1422V38.6085L6.50391 34.8817V27.4263Z" fill="#FF5CD1"/>
<path d="M22.034 27.426L14.2698 31.142V38.6082L22.034 34.8814V27.426Z" fill="#27FFF9"/>
<path d="M14.2681 23.7031L6.50391 27.4263L14.2591 31.1495L22.0323 27.4263L14.2681 23.7031Z" fill="#FCEE21"/>
<path d="M6.50391 19.9744L14.2681 23.6885V31.1566L6.50391 27.4298V19.9744Z" fill="#FF5CD1"/>
<path d="M22.034 19.9744L14.2698 23.6885V35.8557L22.034 32.1289V19.9744Z" fill="#27FFF9"/>
<path d="M14.2681 16.2512L6.50391 19.9744L14.2591 23.6976L22.0323 19.9744L14.2681 16.2512Z" fill="#5C10BF"/>
<path d="M29.796 13.3193L22.0319 17.0335V19.9744L21.6284 20.2769L21.0234 27.9906L22.0319 27.4262L29.796 23.6994V13.3193Z" fill="#27FFF9"/>
<path d="M22.034 12.5227L14.2698 16.2459L22.025 19.9673L29.7981 16.2459L22.034 12.5227Z" fill="#27FFF9"/>
<path d="M14.2698 8.79224L22.034 12.5082V19.9745L14.2698 16.2477V8.79224Z" fill="#932CFF"/>
<path d="M29.8013 8.79224L22.0371 12.5082V19.9745L29.8013 16.2477V8.79224Z" fill="#27FFF9"/>
<path d="M22.034 5.06885L14.2698 8.79204L22.025 12.5152L29.7981 8.79204L22.034 5.06885Z" fill="#06C4FF"/>
<path d="M6.50391 5.06348L14.2681 8.77762V16.2457L6.50391 12.5171V5.06348Z" fill="#932CFF"/>
<path d="M14.2683 1.34033L6.50415 5.06352L22.0733 12.4696L29.5781 8.71721L14.2683 1.34033Z" fill="#06C4FF"/>
<path fill-rule="evenodd" clip-rule="evenodd" d="M42.0898 10.6836H54.0629H61.0323V19.297L57.9586 22.3707H49.0592V29.5903H42.0898V10.6836ZM52.9549 18.1891L54.0629 17.0811V15.4013H49.0592V18.1891H52.9549ZM71.3249 10.6836V24.8725H80.2242V29.5903H64.3555V24.8725V10.6836H71.3249ZM126.939 10.7907H138.912H145.882V19.4398L142.808 22.5135H133.909V25.0153H145.882V29.7331H126.939V10.7907ZM137.805 18.2961L138.912 17.1882V15.5084H133.909V18.2961H137.805ZM118.038 10.6836V18.1891H111.104V10.6836H104.992V18.1891V22.3707H111.104V29.5903H118.038V22.3707H123.899H124.185V10.6836H118.038ZM102.205 13.7573L99.1308 10.6836H82.7617V29.5903H89.7311V22.3707H95.2351V29.5903H102.205V13.7573ZM89.7311 18.1891V15.4013H94.1272L95.2351 16.5093V18.1891H89.7311ZM165.644 10.7908L168.61 13.7573L168.575 15.4013V22.3707H165.501L168.575 29.5903H161.677L158.603 22.3707H156.637V29.5903H149.668V10.6836H165.537L165.644 10.7908ZM156.637 18.1891H161.712V16.5093L160.605 15.4013H156.637V18.1891Z" fill="#4A5057"/>
<path d="M228.461 10.7192H216.488V29.6259H235.43V24.9082H223.457V22.4064H232.357L235.43 19.3327V10.7192H228.461ZM228.461 17.1168L227.353 18.2247H223.457V15.437H228.461V17.1168Z" fill="#4A5057"/>
<path d="M210.237 10.7192H206.342H201.338H194.369V15.4727V29.6617H201.338V15.4727H205.234L206.342 16.5807V29.6617H213.311V15.4727V13.7929L210.237 10.7192Z" fill="#4A5057"/>
<path d="M188.148 29.6258L191.221 26.5521V26.4806V10.6833H172.279V25.4084V29.59H179.248L188.148 29.6258ZM184.395 25.4441H179.248V18.9394H177.783V16.8664L179.248 15.4368H184.395V25.4441Z" fill="#4A5057"/>
</g>
<defs>
<clipPath id="clip0_6046_35612">
<rect width="240" height="40" fill="white" transform="translate(0.5)"/>
</clipPath>
</defs>
</svg>
