<svg width="240" height="40" viewBox="0 0 240 40" fill="none" xmlns="http://www.w3.org/2000/svg">
<g clip-path="url(#clip0_6046_35219)">
<path d="M9.328 27.4263L17.0922 31.1422V38.6085L9.328 34.8817V27.4263Z" fill="#FF5CD1"/>
<path d="M24.8581 27.426L17.0939 31.142V38.6082L24.8581 34.8814V27.426Z" fill="#27FFF9"/>
<path d="M17.0922 23.7031L9.328 27.4263L17.0832 31.1495L24.8564 27.4263L17.0922 23.7031Z" fill="#FCEE21"/>
<path d="M9.328 19.9744L17.0922 23.6885V31.1566L9.328 27.4298V19.9744Z" fill="#FF5CD1"/>
<path d="M24.8581 19.9744L17.0939 23.6885V35.8557L24.8581 32.1289V19.9744Z" fill="#27FFF9"/>
<path d="M17.0922 16.2512L9.328 19.9744L17.0832 23.6976L24.8564 19.9744L17.0922 16.2512Z" fill="#5C10BF"/>
<path d="M32.6201 13.3193L24.856 17.0335V19.9744L24.4525 20.2769L23.8475 27.9906L24.856 27.4262L32.6201 23.6994V13.3193Z" fill="#27FFF9"/>
<path d="M24.8581 12.5227L17.0939 16.2459L24.8491 19.9673L32.6222 16.2459L24.8581 12.5227Z" fill="#27FFF9"/>
<path d="M17.0939 8.79224L24.8581 12.5082V19.9745L17.0939 16.2477V8.79224Z" fill="#932CFF"/>
<path d="M32.6254 8.79224L24.8612 12.5082V19.9745L32.6254 16.2477V8.79224Z" fill="#27FFF9"/>
<path d="M24.8581 5.06885L17.0939 8.79204L24.8491 12.5152L32.6222 8.79204L24.8581 5.06885Z" fill="#06C4FF"/>
<path d="M9.328 5.06348L17.0922 8.77762V16.2457L9.328 12.5171V5.06348Z" fill="#932CFF"/>
<path d="M17.0924 1.34033L9.32825 5.06352L24.8974 12.4696L32.4022 8.71721L17.0924 1.34033Z" fill="#06C4FF"/>
<path fill-rule="evenodd" clip-rule="evenodd" d="M44.9141 10.6836H56.8871H63.8565V19.297L60.7828 22.3707H51.8834V29.5903H44.9141V10.6836ZM55.7791 18.1891L56.8871 17.0811V15.4013H51.8834V18.1891H55.7791ZM74.1491 10.6836V24.8725H83.0484V29.5903H67.1797V24.8725V10.6836H74.1491ZM129.764 10.7907H141.737H148.706V19.4398L145.632 22.5135H136.733V25.0153H148.706V29.7331H129.764V10.7907ZM140.629 18.2961L141.737 17.1882V15.5084H136.733V18.2961H140.629ZM120.862 10.6836V18.1891H113.928V10.6836H107.816V18.1891V22.3707H113.928V29.5903H120.862V22.3707H126.723H127.009V10.6836H120.862ZM105.029 13.7573L101.955 10.6836H85.5859V29.5903H92.5553V22.3707H98.0594V29.5903H105.029V13.7573ZM92.5553 18.1891V15.4013H96.9514L98.0594 16.5093V18.1891H92.5553ZM168.468 10.7908L171.435 13.7573L171.399 15.4013V22.3707H168.325L171.399 29.5903H164.501L161.427 22.3707H159.462V29.5903H152.492V10.6836H168.361L168.468 10.7908ZM159.462 18.1891H164.537V16.5093L163.429 15.4013H159.462V18.1891Z" fill="white"/>
<path d="M231.285 10.7192H219.312V29.6259H238.254V24.9082H226.281V22.4064H235.181L238.254 19.3327V10.7192H231.285ZM231.285 17.1168L230.177 18.2247H226.281V15.437H231.285V17.1168Z" fill="white"/>
<path d="M213.062 10.7192H209.166H204.162H197.193V15.4727V29.6617H204.162V15.4727H208.058L209.166 16.5807V29.6617H216.135V15.4727V13.7929L213.062 10.7192Z" fill="white"/>
<path d="M190.972 29.6258L194.045 26.5521V26.4806V10.6833H175.103V25.4084V29.59H182.072L190.972 29.6258ZM187.219 25.4441H182.072V18.9394H180.607V16.8664L182.072 15.4368H187.219V25.4441Z" fill="white"/>
</g>
<defs>
<clipPath id="clip0_6046_35219">
<rect width="240" height="40" fill="white"/>
</clipPath>
</defs>
</svg>
