<svg width="16" height="16" viewBox="0 0 16 16" fill="none" xmlns="http://www.w3.org/2000/svg">
<g opacity="0.85">
<path d="M15.0545 5.86852L5.87145 15.05C5.59024 15.3306 5.20921 15.4882 4.81195 15.4882C4.4147 15.4882 4.03366 15.3306 3.75245 15.05L0.926951 12.226C0.646355 11.9448 0.48877 11.5638 0.48877 11.1665C0.48877 10.7693 0.646355 10.3882 0.926951 10.107L10.11 0.924021C10.3912 0.643425 10.7722 0.48584 11.1695 0.48584C11.5667 0.48584 11.9477 0.643425 12.229 0.924021L15.0545 3.75002C15.3349 4.03121 15.4924 4.41214 15.4924 4.80927C15.4924 5.2064 15.3349 5.58733 15.0545 5.86852ZM14.3545 4.45602L11.528 1.62502C11.4342 1.53129 11.307 1.47863 11.1745 1.47863C11.0419 1.47863 10.9147 1.53129 10.821 1.62502L10.1135 2.33252L11.528 3.75002L10.8205 4.45602L9.40645 3.04052L9.67846 2.76802L7.85945 4.58902L8.34595 4.10002L9.75996 5.51552L9.05295 6.22352L7.63845 4.81002L5.98845 6.46002L6.57795 5.87002L7.99195 7.28552L7.28495 7.99552L5.87095 6.58002L4.14995 8.30452L4.80995 7.64152L6.22395 9.05702L5.51745 9.76502L4.10295 8.35002L1.62795 10.8275C1.58139 10.874 1.54444 10.9291 1.51924 10.9899C1.49403 11.0506 1.48106 11.1158 1.48106 11.1815C1.48106 11.2473 1.49403 11.3124 1.51924 11.3732C1.54444 11.4339 1.58139 11.4891 1.62795 11.5355L4.45645 14.367C4.55022 14.4608 4.67737 14.5134 4.80995 14.5134C4.94253 14.5134 5.06969 14.4608 5.16345 14.367L14.356 5.16702C14.403 5.12052 14.4403 5.06516 14.4658 5.00414C14.4912 4.94311 14.5044 4.87765 14.5044 4.81152C14.5044 4.7454 14.4912 4.67993 14.4658 4.6189C14.4403 4.55788 14.403 4.50252 14.356 4.45602H14.3545ZM2.33545 10.119L3.04245 9.41102L4.45645 10.8265L3.74995 11.5345L2.33545 10.119Z" fill="white"/>
</g>
</svg>
