<svg width="16" height="16" viewBox="0 0 16 16" fill="none" xmlns="http://www.w3.org/2000/svg">
<g opacity="0.85">
<path d="M10.8664 0.000499984H2.52066C1.94768 0.000499984 1.48169 0.465486 1.48169 1.03697V14.963C1.48169 15.535 1.94768 15.9995 2.52016 15.9995H13.4798C14.0523 15.9995 14.5183 15.5345 14.5183 14.962V3.82138L10.8664 0V0.000499984ZM10.6664 1.07797L13.3173 3.85188H10.8154C10.7334 3.85188 10.6664 3.78488 10.6664 3.70288V1.07797ZM13.4798 15.111H2.52016C2.43766 15.111 2.37066 15.0445 2.37066 14.963V1.03697C2.37066 0.95547 2.43816 0.888972 2.52066 0.888972H9.77744V3.70288C9.77744 4.27537 10.2429 4.74085 10.8154 4.74085H13.6293V14.9625C13.6293 15.0445 13.5618 15.111 13.4798 15.111V15.111Z" fill="white"/>
<path d="M11.4073 7.40778H4.59256C4.34707 7.40778 4.14807 7.60677 4.14807 7.85226C4.14807 8.09775 4.34707 8.29674 4.59256 8.29674H11.4073C11.6528 8.29674 11.8518 8.09775 11.8518 7.85226C11.8518 7.60677 11.6528 7.40778 11.4073 7.40778V7.40778Z" fill="white"/>
<path d="M9.03692 10.0742H4.59256C4.34707 10.0742 4.14807 10.2731 4.14807 10.5186C4.14807 10.7641 4.34707 10.9631 4.59256 10.9631H9.03692C9.28241 10.9631 9.48141 10.7641 9.48141 10.5186C9.48141 10.2731 9.28241 10.0742 9.03692 10.0742Z" fill="white"/>
</g>
</svg>
