<svg width="16" height="16" viewBox="0 0 16 16" fill="none" xmlns="http://www.w3.org/2000/svg">
<g opacity="0.85">
<path d="M3.42941 4.73882H3.71765C3.85477 4.73882 4.12941 4.73882 4.12941 4.73882C4.12941 4.73882 4.12941 4.437 4.12941 4.32706V4.03882C4.12941 3.92888 4.12941 3.62706 4.12941 3.62706C4.12941 3.62706 3.85477 3.62706 3.71765 3.62706H3.42941C3.29229 3.62706 3.01765 3.62706 3.01765 3.62706C3.01765 3.62706 3.01765 3.92888 3.01765 4.03882V4.32706C3.01765 4.45004 3.01765 4.73882 3.01765 4.73882C3.01765 4.73882 3.32601 4.73882 3.42941 4.73882ZM14.4647 5.69412H8.82353V1.82353C8.82353 1.37059 8.45294 1 8 1H1.82353C1.37059 1 1 1.37059 1 1.82353V14.1765C1 14.6294 1.37059 15 1.82353 15H8.24706H8.28824C8.37059 15 8.57647 15 8.78235 15H14.4235C14.7118 15 14.9588 14.7529 14.9588 14.4647V6.22941C15 5.94118 14.7529 5.69412 14.4647 5.69412ZM8 14.1765H1.82353V1.82353H8V14.1765ZM14.1765 14.1765H8.82353V6.51765H14.1765V14.1765Z" fill="white"/>
<path d="M3.71765 4.73882H3.42941H3.01765V4.32706V4.03882V3.62706H3.42941H3.71765H4.12941V4.03882V4.32706V4.73882H3.71765Z" fill="white"/>
<path d="M6.18 4.73882H5.89177H5.48V4.32706V4.03882V3.62706H5.89177H6.18H6.59177V4.03882V4.32706V4.73882H6.18Z" fill="white"/>
<path d="M3.71765 6.74H3.42941H3.01765V6.32824V6.04V5.62824H3.42941H3.71765H4.12941V6.04V6.32824V6.74H3.71765Z" fill="white"/>
<path d="M6.18 6.74H5.89177H5.48V6.32824V6.04V5.62824H5.89177H6.18H6.59177V6.04V6.32824V6.74H6.18Z" fill="white"/>
<path d="M3.71765 8.74118H3.42941H3.01765V8.32941V8.04118V7.62941H3.42941H3.71765H4.12941V8.04118V8.32941V8.74118H3.71765Z" fill="white"/>
<path d="M6.18 8.74118H5.89177H5.48V8.32941V8.04118V7.62941H5.89177H6.18H6.59177V8.04118V8.32941V8.74118H6.18Z" fill="white"/>
<path d="M3.71765 10.7424H3.42941H3.01765V10.3306V10.0424V9.63059H3.42941H3.71765H4.12941V10.0424V10.3306V10.7424H3.71765Z" fill="white"/>
<path d="M6.18 10.7424H5.89177H5.48V10.3306V10.0424V9.63059H5.89177H6.18H6.59177V10.0424V10.3306V10.7424H6.18Z" fill="white"/>
<path d="M3.71765 12.7806H3.42941H3.01765V12.3688V12.0806V11.6688H3.42941H3.71765H4.12941V12.0806V12.3688V12.7806H3.71765Z" fill="white"/>
<path d="M6.18 12.7806H5.89177H5.48V12.3688V12.0806V11.6688H5.89177H6.18H6.59177V12.0806V12.3688V12.7806H6.18Z" fill="white"/>
<path d="M10.3306 8.74118H10.0424H9.63059V8.32941V8.04118V7.62941H10.0424H10.3306H10.7424V8.04118V8.32941V8.74118H10.3306Z" fill="white"/>
<path d="M12.7929 8.74118H12.5047H12.0929V8.32941V8.04118V7.62941H12.5047H12.7929H13.2047V8.04118V8.32941V8.74118H12.7929Z" fill="white"/>
<path d="M10.3306 10.7424H10.0424H9.63059V10.3306V10.0424V9.63059H10.0424H10.3306H10.7424V10.0424V10.3306V10.7424H10.3306Z" fill="white"/>
<path d="M12.7929 10.7424H12.5047H12.0929V10.3306V10.0424V9.63059H12.5047H12.7929H13.2047V10.0424V10.3306V10.7424H12.7929Z" fill="white"/>
<path d="M10.3306 12.7806H10.0424H9.63059V12.3688V12.0806V11.6688H10.0424H10.3306H10.7424V12.0806V12.3688V12.7806H10.3306Z" fill="white"/>
<path d="M12.7929 12.7806H12.5047H12.0929V12.3688V12.0806V11.6688H12.5047H12.7929H13.2047V12.0806V12.3688V12.7806H12.7929Z" fill="white"/>
</g>
</svg>
