<svg width="1948" height="1504" viewBox="0 0 1948 1504" fill="none" xmlns="http://www.w3.org/2000/svg">
<mask id="path-1-outside-1_2058_57588" maskUnits="userSpaceOnUse" x="0" y="608.659" width="406" height="492" fill="black">
<rect fill="white" y="608.659" width="406" height="492"/>
<path fill-rule="evenodd" clip-rule="evenodd" d="M203.425 653.612V651.536C204.254 651.509 205.868 651.536 205.868 651.536C205.868 651.536 205.834 650.129 205.868 649.113H208.857V631.145H213.162V622.534H208.857V618.229H200.287V613.965H196.022V609.659H187.412V613.965H183.147V618.229H174.617V613.965H166.007V618.229H161.743V622.534H157.437L157.352 632.503H159.795V641.846H162.238V649.113H164.681V653.612H167.125V656.034H172.011V658.457H191.557V656.034H198.538V653.612H203.425ZM202.45 645.581L202.369 648.036L199.892 648.116V650.08H195.006V652.502H188.025V654.924H175.544V652.502H170.657V650.08H168.214V645.581H165.77V638.314H163.327V628.97H160.914L160.939 626.066H165.275V621.762H169.539V617.497H171.085V621.762H186.68V617.497H190.945V613.192H192.49V617.497H196.755V621.762H205.325V626.066H209.629V627.612H205.325V645.581H202.45Z"/>
<path fill-rule="evenodd" clip-rule="evenodd" d="M310.677 1060.63H301.919V1068.42H294.501V1083.52H286.62V1091.3H279.203V1099.09H240.26V1083.52H232.379V1076.2H224.497V1068.42H217.08V1060.63H210.126V1068.42H194.827V1076.2H179.528V1083.52H170.719V1076.2H162.838V1068.42H149.393V1076.2H139.658V1060.63H132.24V1053.31H124.359V1037.29H132.24V1022.18H139.658V1015.32H132.24V999.752H124.359V976.864H132.24V969.54C131.57 969.569 130.921 969.613 130.284 969.657C129.753 969.694 129.229 969.73 128.708 969.755C127.287 969.825 125.879 969.819 124.359 969.54V962.216H116.478V953.977H124.359V947.11H116.478V930.076H111.111V924.077H105.479V894.996H111.111V883.045H122.78V877.467H128.815V871.891H117.146V866.313H99.4434V854.362H105.479V836.834H123.182V842.81H129.217V848.386H134.447V842.81H140.483V837.232H134.447V830.859H140.483V819.306H146.116V796.599H128.815V791.022H111.111V785.046H105.479V767.121H122.78V761.543H128.815V755.568H140.483V744.015H146.116V732.462H157.784V726.886H169.854V720.91H181.925V727.284H175.89V755.568H204.859V749.991H216.527V744.413H210.492V720.91H216.527V709.756H210.492V703.382H228.598V714.935H234.633V720.91H240.266V726.886H246.301V732.462H251.934V744.015H257.969V749.991H263.2V744.015H299.009V749.991H304.642V755.568H322.345V767.121H339.646V761.543H357.349V802.176H363.385V807.754H368.615V802.176H380.686V807.754H392.756V848.785H386.721V859.939H392.756V871.891H386.721V883.045H392.756V894.996H398.39V912.125H404.425V930.052H398.39V941.604H386.721V953.156H375.053V959.132H356.947V941.604H351.717V947.182H345.682V953.156H315.908V947.182H310.677V958.734H316.31V976.259H304.642V993.791H299.009V998.973H310.677V1016.5H316.31V1022.87H310.677V1060.63ZM302.473 972.727V970.685H306.006V972.727H312.778V962.266H307.144V943.649H319.44V949.624H342.149V943.649H348.185V938.072H360.48V955.6H371.521V949.624H383.189V938.072H394.857V926.52H400.893V915.658H394.857V898.528H389.224V886.577H383.189V868.358H389.224V863.472H383.189V845.253H389.224V811.286H377.153V805.708H372.147V811.286H359.852V805.708H353.817V765.075H343.179V770.653H318.813V759.1H301.11V753.523H295.477V747.548H266.732V753.523H254.437V747.548H248.402V735.995H242.768V730.418H236.733V724.443H231.101V718.467H225.065V706.914H220.06V724.443H214.024V740.881H220.06V753.523H208.391V759.1H172.357V730.418H161.316V735.995H149.648V747.548H144.015V759.1H132.347V765.075H126.312V770.653H109.011V781.514H114.643V787.489H132.347V793.067H149.648V822.838H144.015V846.342H137.98V851.919H125.685V846.342H119.649V840.367H109.011V857.894H102.976V862.781H120.679V868.358H132.347V881H126.312V886.577H114.643V898.528H109.011V920.544H114.643V926.544H120.01V943.578H127.891V957.509H120.01V958.684H127.891V966.254C128.459 966.235 129.056 966.195 129.722 966.149C130.42 966.102 131.194 966.049 132.09 966.011L135.773 965.855V980.397H127.891V996.22H135.773V1011.78H143.19V1025.71H135.773V1040.82H127.891L127.891 1049.78H135.773V1057.1H143.19V1072.67H145.861V1064.88H166.37V1072.67H174.252V1079.99H175.995V1072.67L191.294 1072.67V1064.88L206.593 1064.88V1057.1H220.612V1064.88H228.03V1072.67H235.911V1079.99H243.792V1095.55H275.67V1087.77H283.088V1079.99H290.969V1064.88H298.387V1057.1H307.144V1002.51H295.477V990.259H301.11V972.727H302.473Z"/>
<path fill-rule="evenodd" clip-rule="evenodd" d="M37.0853 746.21C37.0003 746.278 37.0024 746.41 37.0042 746.517C37.0043 746.526 37.0045 746.535 37.0046 746.543C37.0047 746.551 37.0047 746.559 37.0046 746.567C37.0032 746.786 37.0036 747.004 37.0041 747.223C37.0042 747.287 37.0044 747.351 37.0045 747.416C37.0045 747.458 37.0045 747.501 37.0045 747.544V751.447H31.9186V746.157H21.5956V751.447H16.4593V756.687H11.2726V767.165H6.13632V772.404H1V777.746H6.13632V814.232L13.5526 814.284V821.356H19.3429V828.428H26.0982V835.5H62.7701V828.428H68.5604V814.284H75.3157V800.14H82.0711V793.068H75.3157V787.006H82.0711V764.78C82.0711 764.78 80.4826 764.854 78.5387 764.857C77.5031 764.859 76.3666 764.841 75.3157 764.78V758.718H73.1099V751.447H62.7365V756.687H57.6505V751.447H52.5143V740.917H42.1913V746.157H37.5082C37.4828 746.157 37.4546 746.155 37.4249 746.154C37.3086 746.149 37.169 746.142 37.0853 746.21ZM45.7237 744.45V749.689H40.5369V754.98H28.3863V749.689H25.128V754.98H19.9917V760.219H14.805V770.697H9.6687V810.724L17.0849 810.776V817.824H22.8752V824.896H29.6306V831.968H59.2377V824.896H65.028V810.752H71.7833V796.608H78.5387V796.6H71.7833V783.474H78.5387V768.39C77.4562 768.391 76.2478 768.372 75.1111 768.306L71.7833 768.113V762.25H69.5775V754.98H66.2689V760.219H54.1182V754.98H48.9819V744.45H45.7237ZM40.5369 746.591C40.5373 746.532 40.5364 746.48 40.5362 746.466L40.536 746.463C40.5361 746.476 40.5363 746.523 40.5329 746.591L40.5369 746.591ZM37.2479 749.682C37.2385 749.682 37.2365 749.682 37.2441 749.682L37.2479 749.682Z"/>
</mask>
<path fill-rule="evenodd" clip-rule="evenodd" d="M203.425 653.612V651.536C204.254 651.509 205.868 651.536 205.868 651.536C205.868 651.536 205.834 650.129 205.868 649.113H208.857V631.145H213.162V622.534H208.857V618.229H200.287V613.965H196.022V609.659H187.412V613.965H183.147V618.229H174.617V613.965H166.007V618.229H161.743V622.534H157.437L157.352 632.503H159.795V641.846H162.238V649.113H164.681V653.612H167.125V656.034H172.011V658.457H191.557V656.034H198.538V653.612H203.425ZM202.45 645.581L202.369 648.036L199.892 648.116V650.08H195.006V652.502H188.025V654.924H175.544V652.502H170.657V650.08H168.214V645.581H165.77V638.314H163.327V628.97H160.914L160.939 626.066H165.275V621.762H169.539V617.497H171.085V621.762H186.68V617.497H190.945V613.192H192.49V617.497H196.755V621.762H205.325V626.066H209.629V627.612H205.325V645.581H202.45Z" fill="#89E4FF"/>
<path fill-rule="evenodd" clip-rule="evenodd" d="M310.677 1060.63H301.919V1068.42H294.501V1083.52H286.62V1091.3H279.203V1099.09H240.26V1083.52H232.379V1076.2H224.497V1068.42H217.08V1060.63H210.126V1068.42H194.827V1076.2H179.528V1083.52H170.719V1076.2H162.838V1068.42H149.393V1076.2H139.658V1060.63H132.24V1053.31H124.359V1037.29H132.24V1022.18H139.658V1015.32H132.24V999.752H124.359V976.864H132.24V969.54C131.57 969.569 130.921 969.613 130.284 969.657C129.753 969.694 129.229 969.73 128.708 969.755C127.287 969.825 125.879 969.819 124.359 969.54V962.216H116.478V953.977H124.359V947.11H116.478V930.076H111.111V924.077H105.479V894.996H111.111V883.045H122.78V877.467H128.815V871.891H117.146V866.313H99.4434V854.362H105.479V836.834H123.182V842.81H129.217V848.386H134.447V842.81H140.483V837.232H134.447V830.859H140.483V819.306H146.116V796.599H128.815V791.022H111.111V785.046H105.479V767.121H122.78V761.543H128.815V755.568H140.483V744.015H146.116V732.462H157.784V726.886H169.854V720.91H181.925V727.284H175.89V755.568H204.859V749.991H216.527V744.413H210.492V720.91H216.527V709.756H210.492V703.382H228.598V714.935H234.633V720.91H240.266V726.886H246.301V732.462H251.934V744.015H257.969V749.991H263.2V744.015H299.009V749.991H304.642V755.568H322.345V767.121H339.646V761.543H357.349V802.176H363.385V807.754H368.615V802.176H380.686V807.754H392.756V848.785H386.721V859.939H392.756V871.891H386.721V883.045H392.756V894.996H398.39V912.125H404.425V930.052H398.39V941.604H386.721V953.156H375.053V959.132H356.947V941.604H351.717V947.182H345.682V953.156H315.908V947.182H310.677V958.734H316.31V976.259H304.642V993.791H299.009V998.973H310.677V1016.5H316.31V1022.87H310.677V1060.63ZM302.473 972.727V970.685H306.006V972.727H312.778V962.266H307.144V943.649H319.44V949.624H342.149V943.649H348.185V938.072H360.48V955.6H371.521V949.624H383.189V938.072H394.857V926.52H400.893V915.658H394.857V898.528H389.224V886.577H383.189V868.358H389.224V863.472H383.189V845.253H389.224V811.286H377.153V805.708H372.147V811.286H359.852V805.708H353.817V765.075H343.179V770.653H318.813V759.1H301.11V753.523H295.477V747.548H266.732V753.523H254.437V747.548H248.402V735.995H242.768V730.418H236.733V724.443H231.101V718.467H225.065V706.914H220.06V724.443H214.024V740.881H220.06V753.523H208.391V759.1H172.357V730.418H161.316V735.995H149.648V747.548H144.015V759.1H132.347V765.075H126.312V770.653H109.011V781.514H114.643V787.489H132.347V793.067H149.648V822.838H144.015V846.342H137.98V851.919H125.685V846.342H119.649V840.367H109.011V857.894H102.976V862.781H120.679V868.358H132.347V881H126.312V886.577H114.643V898.528H109.011V920.544H114.643V926.544H120.01V943.578H127.891V957.509H120.01V958.684H127.891V966.254C128.459 966.235 129.056 966.195 129.722 966.149C130.42 966.102 131.194 966.049 132.09 966.011L135.773 965.855V980.397H127.891V996.22H135.773V1011.78H143.19V1025.71H135.773V1040.82H127.891L127.891 1049.78H135.773V1057.1H143.19V1072.67H145.861V1064.88H166.37V1072.67H174.252V1079.99H175.995V1072.67L191.294 1072.67V1064.88L206.593 1064.88V1057.1H220.612V1064.88H228.03V1072.67H235.911V1079.99H243.792V1095.55H275.67V1087.77H283.088V1079.99H290.969V1064.88H298.387V1057.1H307.144V1002.51H295.477V990.259H301.11V972.727H302.473Z" fill="#89E4FF"/>
<path fill-rule="evenodd" clip-rule="evenodd" d="M37.0853 746.21C37.0003 746.278 37.0024 746.41 37.0042 746.517C37.0043 746.526 37.0045 746.535 37.0046 746.543C37.0047 746.551 37.0047 746.559 37.0046 746.567C37.0032 746.786 37.0036 747.004 37.0041 747.223C37.0042 747.287 37.0044 747.351 37.0045 747.416C37.0045 747.458 37.0045 747.501 37.0045 747.544V751.447H31.9186V746.157H21.5956V751.447H16.4593V756.687H11.2726V767.165H6.13632V772.404H1V777.746H6.13632V814.232L13.5526 814.284V821.356H19.3429V828.428H26.0982V835.5H62.7701V828.428H68.5604V814.284H75.3157V800.14H82.0711V793.068H75.3157V787.006H82.0711V764.78C82.0711 764.78 80.4826 764.854 78.5387 764.857C77.5031 764.859 76.3666 764.841 75.3157 764.78V758.718H73.1099V751.447H62.7365V756.687H57.6505V751.447H52.5143V740.917H42.1913V746.157H37.5082C37.4828 746.157 37.4546 746.155 37.4249 746.154C37.3086 746.149 37.169 746.142 37.0853 746.21ZM45.7237 744.45V749.689H40.5369V754.98H28.3863V749.689H25.128V754.98H19.9917V760.219H14.805V770.697H9.6687V810.724L17.0849 810.776V817.824H22.8752V824.896H29.6306V831.968H59.2377V824.896H65.028V810.752H71.7833V796.608H78.5387V796.6H71.7833V783.474H78.5387V768.39C77.4562 768.391 76.2478 768.372 75.1111 768.306L71.7833 768.113V762.25H69.5775V754.98H66.2689V760.219H54.1182V754.98H48.9819V744.45H45.7237ZM40.5369 746.591C40.5373 746.532 40.5364 746.48 40.5362 746.466L40.536 746.463C40.5361 746.476 40.5363 746.523 40.5329 746.591L40.5369 746.591ZM37.2479 749.682C37.2385 749.682 37.2365 749.682 37.2441 749.682L37.2479 749.682Z" fill="#89E4FF"/>
<path fill-rule="evenodd" clip-rule="evenodd" d="M203.425 653.612V651.536C204.254 651.509 205.868 651.536 205.868 651.536C205.868 651.536 205.834 650.129 205.868 649.113H208.857V631.145H213.162V622.534H208.857V618.229H200.287V613.965H196.022V609.659H187.412V613.965H183.147V618.229H174.617V613.965H166.007V618.229H161.743V622.534H157.437L157.352 632.503H159.795V641.846H162.238V649.113H164.681V653.612H167.125V656.034H172.011V658.457H191.557V656.034H198.538V653.612H203.425ZM202.45 645.581L202.369 648.036L199.892 648.116V650.08H195.006V652.502H188.025V654.924H175.544V652.502H170.657V650.08H168.214V645.581H165.77V638.314H163.327V628.97H160.914L160.939 626.066H165.275V621.762H169.539V617.497H171.085V621.762H186.68V617.497H190.945V613.192H192.49V617.497H196.755V621.762H205.325V626.066H209.629V627.612H205.325V645.581H202.45Z" stroke="#89E4FF" stroke-width="2" mask="url(#path-1-outside-1_2058_57588)"/>
<path fill-rule="evenodd" clip-rule="evenodd" d="M310.677 1060.63H301.919V1068.42H294.501V1083.52H286.62V1091.3H279.203V1099.09H240.26V1083.52H232.379V1076.2H224.497V1068.42H217.08V1060.63H210.126V1068.42H194.827V1076.2H179.528V1083.52H170.719V1076.2H162.838V1068.42H149.393V1076.2H139.658V1060.63H132.24V1053.31H124.359V1037.29H132.24V1022.18H139.658V1015.32H132.24V999.752H124.359V976.864H132.24V969.54C131.57 969.569 130.921 969.613 130.284 969.657C129.753 969.694 129.229 969.73 128.708 969.755C127.287 969.825 125.879 969.819 124.359 969.54V962.216H116.478V953.977H124.359V947.11H116.478V930.076H111.111V924.077H105.479V894.996H111.111V883.045H122.78V877.467H128.815V871.891H117.146V866.313H99.4434V854.362H105.479V836.834H123.182V842.81H129.217V848.386H134.447V842.81H140.483V837.232H134.447V830.859H140.483V819.306H146.116V796.599H128.815V791.022H111.111V785.046H105.479V767.121H122.78V761.543H128.815V755.568H140.483V744.015H146.116V732.462H157.784V726.886H169.854V720.91H181.925V727.284H175.89V755.568H204.859V749.991H216.527V744.413H210.492V720.91H216.527V709.756H210.492V703.382H228.598V714.935H234.633V720.91H240.266V726.886H246.301V732.462H251.934V744.015H257.969V749.991H263.2V744.015H299.009V749.991H304.642V755.568H322.345V767.121H339.646V761.543H357.349V802.176H363.385V807.754H368.615V802.176H380.686V807.754H392.756V848.785H386.721V859.939H392.756V871.891H386.721V883.045H392.756V894.996H398.39V912.125H404.425V930.052H398.39V941.604H386.721V953.156H375.053V959.132H356.947V941.604H351.717V947.182H345.682V953.156H315.908V947.182H310.677V958.734H316.31V976.259H304.642V993.791H299.009V998.973H310.677V1016.5H316.31V1022.87H310.677V1060.63ZM302.473 972.727V970.685H306.006V972.727H312.778V962.266H307.144V943.649H319.44V949.624H342.149V943.649H348.185V938.072H360.48V955.6H371.521V949.624H383.189V938.072H394.857V926.52H400.893V915.658H394.857V898.528H389.224V886.577H383.189V868.358H389.224V863.472H383.189V845.253H389.224V811.286H377.153V805.708H372.147V811.286H359.852V805.708H353.817V765.075H343.179V770.653H318.813V759.1H301.11V753.523H295.477V747.548H266.732V753.523H254.437V747.548H248.402V735.995H242.768V730.418H236.733V724.443H231.101V718.467H225.065V706.914H220.06V724.443H214.024V740.881H220.06V753.523H208.391V759.1H172.357V730.418H161.316V735.995H149.648V747.548H144.015V759.1H132.347V765.075H126.312V770.653H109.011V781.514H114.643V787.489H132.347V793.067H149.648V822.838H144.015V846.342H137.98V851.919H125.685V846.342H119.649V840.367H109.011V857.894H102.976V862.781H120.679V868.358H132.347V881H126.312V886.577H114.643V898.528H109.011V920.544H114.643V926.544H120.01V943.578H127.891V957.509H120.01V958.684H127.891V966.254C128.459 966.235 129.056 966.195 129.722 966.149C130.42 966.102 131.194 966.049 132.09 966.011L135.773 965.855V980.397H127.891V996.22H135.773V1011.78H143.19V1025.71H135.773V1040.82H127.891L127.891 1049.78H135.773V1057.1H143.19V1072.67H145.861V1064.88H166.37V1072.67H174.252V1079.99H175.995V1072.67L191.294 1072.67V1064.88L206.593 1064.88V1057.1H220.612V1064.88H228.03V1072.67H235.911V1079.99H243.792V1095.55H275.67V1087.77H283.088V1079.99H290.969V1064.88H298.387V1057.1H307.144V1002.51H295.477V990.259H301.11V972.727H302.473Z" stroke="#89E4FF" stroke-width="2" mask="url(#path-1-outside-1_2058_57588)"/>
<path fill-rule="evenodd" clip-rule="evenodd" d="M37.0853 746.21C37.0003 746.278 37.0024 746.41 37.0042 746.517C37.0043 746.526 37.0045 746.535 37.0046 746.543C37.0047 746.551 37.0047 746.559 37.0046 746.567C37.0032 746.786 37.0036 747.004 37.0041 747.223C37.0042 747.287 37.0044 747.351 37.0045 747.416C37.0045 747.458 37.0045 747.501 37.0045 747.544V751.447H31.9186V746.157H21.5956V751.447H16.4593V756.687H11.2726V767.165H6.13632V772.404H1V777.746H6.13632V814.232L13.5526 814.284V821.356H19.3429V828.428H26.0982V835.5H62.7701V828.428H68.5604V814.284H75.3157V800.14H82.0711V793.068H75.3157V787.006H82.0711V764.78C82.0711 764.78 80.4826 764.854 78.5387 764.857C77.5031 764.859 76.3666 764.841 75.3157 764.78V758.718H73.1099V751.447H62.7365V756.687H57.6505V751.447H52.5143V740.917H42.1913V746.157H37.5082C37.4828 746.157 37.4546 746.155 37.4249 746.154C37.3086 746.149 37.169 746.142 37.0853 746.21ZM45.7237 744.45V749.689H40.5369V754.98H28.3863V749.689H25.128V754.98H19.9917V760.219H14.805V770.697H9.6687V810.724L17.0849 810.776V817.824H22.8752V824.896H29.6306V831.968H59.2377V824.896H65.028V810.752H71.7833V796.608H78.5387V796.6H71.7833V783.474H78.5387V768.39C77.4562 768.391 76.2478 768.372 75.1111 768.306L71.7833 768.113V762.25H69.5775V754.98H66.2689V760.219H54.1182V754.98H48.9819V744.45H45.7237ZM40.5369 746.591C40.5373 746.532 40.5364 746.48 40.5362 746.466L40.536 746.463C40.5361 746.476 40.5363 746.523 40.5329 746.591L40.5369 746.591ZM37.2479 749.682C37.2385 749.682 37.2365 749.682 37.2441 749.682L37.2479 749.682Z" stroke="#89E4FF" stroke-width="2" mask="url(#path-1-outside-1_2058_57588)"/>
</svg>
