<svg width="1947" height="1504" viewBox="0 0 1947 1504" fill="none" xmlns="http://www.w3.org/2000/svg">
<path fill-rule="evenodd" clip-rule="evenodd" d="M1014.65 778.192H1026.94V782.839H1031.73V790.607H1026.94V806.483H1022.25V812.097H1016.41V817.518H1011.82L1011.82 851.832H1016.41V863.611L1011.82 864.737V872.349H1016.41V883.68H1022.25V898.729H1026.94V904.559H1029.97V895.621H1025.18V880.295H1020.48V872.349H1025.18V853.599H1020.48V819.698H1025.18V814.754H1048.7V819.698H1053.53V825.383H1059.01V862.035H1064.05V869.88L1059.01 869.88V885.446L1053.53 885.446V888.755H1062.29V882.596H1066.88V872.349H1080.24V868.113H1086.26V863.16H1100.06V868.113H1106.08V876.4H1100.97V882.039H1095.18V890.351H1100.97V900.136H1106.08V921.456H1121.71V927.131H1135.56V916.005H1154.02V921.456H1160.96V916.005H1180.16V921.456H1189.89V954.12H1210.49V959.093H1221.15V974.717H1226.83V980.405H1231.8V985.37H1236.78V990.342H1252.06V985.37H1283.31V980.405H1305.67V985.37H1320.25V980.405H1325.22V974.717H1330.9V969.747H1335.87V964.065H1352.2V954.12H1357.18V948.438H1362.15V943.466H1367.84V937.784H1383.46V910.73H1383.68V909.642H1410.85V920.298H1436.07V915.325H1495.24V917.262H1504.9V921.757H1510.89V925.98H1511.01V925.885H1527.51V935.119H1538.17V940.802H1546.35V935.119H1598.91V930.147H1603.88V925.175H1612.04V930.147H1621.99V953.933H1617.02V958.905H1612.04V963.877H1601.38V969.56H1595.7V974.536H1590.73V980.216H1580.08V993.368H1585.76V998.341H1590.73V1004.02H1595.7V1014.67H1601.38V1022.12H1595.7V1047.52H1595.26V1048.34H1585.87V1056.68H1590.85V1090.41H1585.87V1109.25H1590.85V1119.9H1595.82V1124.87H1601.5V1130.56H1606.47V1140.51H1622.1V1146.18H1627.78V1151.16H1632.76V1156.84H1638.44V1166.78H1643.41V1172.46H1648.38V1177.43H1654.06V1216.85H1643.41V1222.54H1627.61C1627.28 1222.54 1626.91 1222.55 1626.5 1222.57C1626.4 1222.57 1626.29 1222.58 1626.19 1222.58C1625.66 1222.61 1625.08 1222.63 1624.5 1222.61C1623.38 1222.57 1622.08 1222.38 1621.1 1221.61L1621.1 1221.61C1620.13 1220.84 1619.8 1219.71 1619.68 1218.72C1619.61 1218.1 1619.61 1217.43 1619.61 1216.85H1614.65V1211.87H1609.68V1206.19H1604V1195.54H1588.37V1190.57H1583.4V1185.6H1567.06V1179.92H1562.09V1174.94H1557.11V1169.26H1546.46V1164.28H1535.81V1159.31H1512V1164.28H1472.59V1159.31H1446.31V1153.61H1427.47V1158.75H1425.71V1158.75H1420.57V1142.45H1414.81V1126.84H1409.88V1111.07H1404.96V1105.39H1399.2V1100.46H1383.58V1095.38H1367.97V1089.93H1353.44V1095.38H1342.76V1100.46H1332.14V1105.54H1321.46V1111.15H1301.98V1116H1258.32V1121.76H1247.56V1126.69H1236.95V1132.29H1227.02V1137.37H1216.41V1142.22H1210.65V1148.06H1205.65V1158.75H1190.04V1189.04H1195.18V1204.6H1200.6V1222.1H1195.18V1226.82H1184.34V1232.07H1179.27V1237.66H1162.64V1232.07H1141.31V1226.82H1136.42V1222.1H1125.58V1216.33H1120.16V1211.44H1115.09V1206.37H1095V1211.44H1079.09V1216.33H1041.48V1211.44L1025.67 1211.44V1183.86H1030.46V1163.51H1025.67V1147.85H1021.44V1132.22H1025.67V1127.42H1021.44V1122.91H1015.12V1116.75H1010.36V1101.56H1001.65V1067.9H994.723V1061.74H981.626V1056.82H967.479V1052.81H957.597V1043.04H951.957V1027.06H947.023V1021.42H941.618V1016.96H935.979V995.341H931.514V984.689H925.489V974.104H920.705V963.321H915.849V969.701H913.556V969.703H904.843V957.282H909.816V952.31H914.789V946.627H920.468V941.655H925.441V935.973H931.121V931.001H936.094V920.346H946.746V915.374H951.719V909.692H957.407V899.037H962.38V867.784H973.032V836.777L977.528 836.778V830.272H983.336V819.698H988.176V803.554H993.791V798.714H998.437V792.713H1003.66V788.841H1009.09V782.839H1014.65V778.192Z" stroke="#89E4FF" stroke-width="5.5"/>
</svg>
