<svg width="1947" height="1504" viewBox="0 0 1947 1504" fill="none" xmlns="http://www.w3.org/2000/svg">
<mask id="path-1-outside-1_2058_57604" maskUnits="userSpaceOnUse" x="1604" y="356" width="310" height="387" fill="black">
<rect fill="white" x="1604" y="356" width="310" height="387"/>
<path fill-rule="evenodd" clip-rule="evenodd" d="M1738.77 679.701H1740.06V675.181H1744.81V665.961H1754.12V661.08H1749.37V656.741H1763.42V652.041H1772.74V647.521H1777.3V633.782H1782.04V624.562H1786.61V615.161H1782.04V592.02H1777.3V587.681H1782.04V582.981H1791.35V569.061H1786.61V564.36H1777.3V559.841H1763.42V555.141H1744.63V559.841H1739.88V564.36H1735.32V569.061H1726.01V573.58H1721.44V578.281L1697.45 578.264V575.965H1694.77V571.639H1692.61V561H1684.5V557.608H1692.4V540.615H1698.11L1699.07 536.692H1703.03L1704.83 530.224H1703.03L1703.01 527.661L1703.03 527.661L1716.89 527.661V523.141H1739.88V527.661H1749.19V536.881H1753.94V541.582H1763.24V550.802H1767.81V555.321H1791.17V560.022H1795.73V564.541H1814.35V569.242H1824.28V572.997H1828.89V586.138H1837.54V590.709H1842.73V586.709L1851.96 586.709C1852.1 586.708 1852.26 586.707 1852.45 586.706C1852.63 586.706 1852.83 586.705 1853.04 586.705C1854.54 586.703 1856.57 586.709 1856.57 586.709C1856.57 586.709 1856.56 584.634 1856.56 583.176C1856.56 582.758 1856.57 582.391 1856.57 582.138C1856.9 582.135 1857.27 582.132 1857.65 582.131C1859.29 582.125 1861.18 582.138 1861.18 582.138C1861.18 582.138 1861.17 580.307 1861.17 578.606C1861.18 578.248 1861.18 577.896 1861.18 577.568H1865.22V572.997H1869.83V568.998C1870.16 568.994 1870.53 568.991 1870.91 568.99C1872.58 568.984 1874.44 568.998 1874.44 568.998C1874.44 568.998 1874.43 567.139 1874.44 565.465C1874.44 565.206 1874.44 564.951 1874.44 564.708C1874.44 564.613 1874.44 564.519 1874.44 564.427C1875.03 564.413 1875.62 564.406 1876.16 564.403C1877.79 564.395 1879.06 564.427 1879.06 564.427H1879.69V522.96H1875.13V509.04H1870.38V504.701H1875.13V500.001H1879.69V495.481H1884.43V490.6H1879.69V486.081H1875.13V481.561H1879.69V477.041H1884.43V462.94H1879.69V458.601H1884.43V453.9H1889V444.5H1879.69V435.28H1874.95V439.98H1870.38V435.28H1856.52V426.241H1861.07V417.021H1865.82V412.501H1870.38V407.801H1875.13V403.1H1861.07V398.4H1856.52V393.881H1833.15V389.179H1828.59V370.92H1823.84V366.22H1819.09V370.92H1814.54V366.22H1805.04V370.92H1795.92V366.22H1791.35V361.7H1782.04V357H1777.11V361.7H1758.5V366.22H1754.12V361.7H1739.88V366.401H1744.63V370.92H1735.32V375.44H1730.76V380.321H1735.32V384.66H1730.76V389.179H1726.19V384.66H1716.7V389.179H1712.14V412.501H1730.76V416.84H1726.01V430.76H1721.44V440.161H1726.01V444.5H1716.89V439.98H1707.39V444.5H1698.08V458.42H1693.52V467.822H1698.08V472.16H1688.78V477.041H1693.52V490.781H1702.83V495.301H1693.52V499.82H1688.78V504.52H1684.21V509.04H1679.65V504.52H1674.91V509.04H1665.78V504.52H1660.85V513.74H1656.47V509.04H1646.98V527.48H1632.93V541.401H1628.36V546.101H1637.67V560.022H1642.23V564.36H1637.67V569.061H1633.11V564.36H1628.36V573.58H1623.62V578.461H1628.36V582.8H1623.62V596.721H1605V601.421H1609.75V620.794H1620.06V625.458H1654.41V620.794H1662.85V625.458H1671.88V643.53H1676.71V648.193H1682.73C1682.73 648.193 1682.71 646.661 1682.72 644.661C1682.72 644.297 1682.73 643.918 1682.73 643.53H1695.39V656.938H1700.21V661.601H1705.03V666.265H1709.85V670.928H1723.71V684.336H1728.53V689H1733.95V684.336H1738.77V679.701ZM1736.53 676.168H1735.24V677.934H1730.76V680.804H1727.24V667.396H1713.38V662.732H1708.56V658.069H1703.74V653.405H1698.92V639.997H1675.42V621.926H1666.38V617.262H1650.88V621.926H1623.59V617.262H1613.28V600.253H1627.15V586.333H1631.89V572.593H1641.21V567.893H1645.76V556.489H1641.21V542.569H1636.46V531.012H1650.51V512.572H1652.93V517.273H1664.38V512.572H1687.74V508.053H1692.31V503.352H1697.05V498.833H1706.36V487.249H1697.05V475.693H1701.62V464.289H1697.05V461.952H1701.62V448.032H1710.92V443.513H1713.35V448.032H1729.54V436.629H1724.98V434.293H1729.54V420.372H1734.29V408.969H1715.67V392.712H1720.24V388.192H1722.66V392.712H1734.29V388.192H1738.85V374.453H1748.16V365.233H1750.59V369.752H1762.04V365.233H1787.82V369.752H1792.38V374.453H1808.57V369.752H1811V374.453H1825.06V392.712H1829.62V397.413H1852.98V401.933H1857.54V406.633H1866.85V408.969H1862.29V413.488H1857.54V422.708H1852.98V438.812H1866.85V443.513H1876.16V448.032H1885.47V450.368H1880.9V455.068H1876.16V466.472H1880.9V473.509H1876.16V478.029H1871.6V489.613H1876.16V496.469H1871.6V501.169H1866.85V512.572H1871.6V526.493H1876.16V560.871C1875.59 560.873 1874.98 560.881 1874.36 560.896L1870.95 560.978L1870.91 564.385C1870.91 564.72 1870.91 565.085 1870.9 565.457C1870.52 565.459 1870.14 565.461 1869.79 565.466L1866.3 565.507V569.465H1861.69V574.035H1857.69L1857.65 577.525C1857.65 577.866 1857.64 578.23 1857.64 578.598C1857.25 578.6 1856.87 578.602 1856.53 578.606L1853.08 578.647L1853.04 582.095C1853.03 582.362 1853.03 582.744 1853.03 583.173C1852.61 583.173 1852.23 583.174 1851.94 583.176L1851.93 583.176L1841.07 583.177V582.605H1832.42V569.465H1827.81V565.709H1817.88V561.009H1799.27V556.489H1794.7V551.789H1771.34V547.269H1766.77V538.049H1757.47V533.348H1752.72V524.128H1743.41V519.609H1713.35V524.128H1699.46L1699.51 533.159H1696.29L1695.34 537.083H1688.87V554.075H1680.97V564.532H1689.08V575.171H1691.24V579.498H1693.91V581.794L1724.98 581.815V577.113H1729.54V572.593H1738.85V567.893H1743.41V563.373H1748.16V558.673H1759.89V563.373H1773.76V567.893H1783.08V572.593H1787.82V579.449H1778.51V584.149H1773.76V595.553H1778.51V618.694H1783.08V621.03H1778.51V630.249H1773.76V643.989H1769.21V648.509H1759.89V653.209H1745.84V662.429H1741.28V671.649H1736.53V676.168Z"/>
<path fill-rule="evenodd" clip-rule="evenodd" d="M1781.7 698.125H1786.02V693.808H1794.65V689.491H1798.97V680.947H1794.65V667.996H1798.97V663.679H1803.28V655.045H1807.61V646.411H1811.92V642.184H1807.61V637.777H1811.92V633.46H1820.55V637.777H1824.87V650.728H1829.19V659.362H1833.51V663.679H1837.82V667.996H1842.14V672.223H1859.41V676.54H1863.72V680.857H1868.04V685.174H1876.58V689.491H1885.22V693.808H1893.85V698.125H1898.17V706.759H1902.49V715.393H1908.18V721.783C1908.47 721.787 1908.92 721.789 1909.43 721.789C1910.94 721.791 1912.96 721.783 1912.96 721.783C1912.96 721.783 1912.96 723.776 1912.96 725.316C1912.96 725.804 1912.96 726.247 1912.96 726.566L1912.96 736.73H1899.2V741.513H1874.68C1874.68 741.513 1874.69 739.52 1874.68 737.981C1874.68 737.492 1874.68 737.049 1874.68 736.73C1874.27 736.725 1873.84 736.722 1873.42 736.72C1871.6 736.713 1869.89 736.73 1869.89 736.73C1869.89 736.73 1869.9 734.794 1869.9 733.198C1869.9 732.733 1869.9 732.298 1869.89 731.947H1824.43V736.73H1800.5V731.947H1795.72V727.762C1795.53 727.76 1795.35 727.758 1795.16 727.757C1794.98 727.755 1794.79 727.754 1794.61 727.753L1794.46 727.752C1792.64 727.745 1790.93 727.762 1790.93 727.762C1790.93 727.762 1790.94 725.827 1790.94 724.229C1790.94 723.766 1790.93 723.33 1790.93 722.979H1786.74V711.166H1786.02V706.849H1781.7V698.125ZM1794.42 719.447L1794.46 722.937C1794.47 723.301 1794.47 723.748 1794.47 724.22C1794.9 724.222 1795.33 724.225 1795.76 724.23L1799.25 724.271V728.415H1804.03V733.198H1820.9V728.415H1873.38L1873.42 731.905C1873.43 732.268 1873.43 732.715 1873.43 733.188C1873.86 733.19 1874.29 733.193 1874.72 733.198L1878.17 733.239L1878.21 736.689C1878.21 737.022 1878.21 737.481 1878.22 737.981H1895.67V733.198H1909.43L1909.43 726.59L1909.43 726.579C1909.43 726.253 1909.42 725.809 1909.42 725.322C1908.91 725.321 1908.45 725.319 1908.13 725.315L1904.64 725.273V718.925H1898.95V710.291H1894.64V701.657H1890.32V697.34H1881.69V693.023H1873.05V688.706H1864.51V684.389H1860.19V680.072H1855.88V675.755H1838.61V671.529H1834.29V667.211H1829.97V662.894H1825.65V654.26H1821.34V641.309H1817.02V636.992H1815.45V649.943H1811.14V658.577H1806.82V667.211H1802.5V671.529H1798.18V677.415H1802.5V693.023H1798.18V697.34H1789.55V701.657H1785.24V703.317H1789.55V707.634H1790.27V719.447H1794.42Z"/>
<path fill-rule="evenodd" clip-rule="evenodd" d="M1901.03 669.433H1899.49V669.032H1902.33V647.74C1902.33 647.74 1900.28 647.753 1899.49 647.74V640.287H1902.33V631.77H1905.17V618.995H1902.33V611.011H1905.17V602.494H1902.33V598.235H1896.75V596.578H1888.07V600.869H1879.49V605.16H1871V606.22H1862.5V605.16H1849.63V592.287H1845.26V596.578H1840.96V600.869H1832.38V605.16H1828.18V600.869H1819.51V605.16H1815.22V609.451H1811.01V613.652H1806.73V618.032H1811.01V622.323H1819.51V626.614H1828.09V630.905H1832.38V656.649H1836.67V660.94H1845.26V665.231H1858.12V669.522H1866.71V673.724H1871V678.014H1875.2V682.305H1879.49V686.596H1888.16V682.305H1896.65V673.724H1901.03V669.433ZM1895.96 665.499H1898.8V651.26L1895.96 651.21V636.755H1898.8V628.238H1901.64V622.528H1898.8V607.478H1901.64V606.026H1898.8V601.768H1893.21V600.111H1891.6V604.401H1883.02V608.692H1874.53V609.752H1858.97V608.692H1846.1V600.111H1844.49V604.401H1835.91V608.692H1824.64V604.401H1823.04V608.692H1818.75V612.983H1814.55V618.791H1823.04V623.081H1831.63V627.372H1835.91V653.117H1840.21V657.408H1848.79V661.699H1861.66V665.989H1870.24V670.191H1874.53V674.482H1878.74V678.773H1883.02V683.064H1884.63V678.773H1893.12V670.191H1895.96V665.499Z"/>
</mask>
<path fill-rule="evenodd" clip-rule="evenodd" d="M1738.77 679.701H1740.06V675.181H1744.81V665.961H1754.12V661.08H1749.37V656.741H1763.42V652.041H1772.74V647.521H1777.3V633.782H1782.04V624.562H1786.61V615.161H1782.04V592.02H1777.3V587.681H1782.04V582.981H1791.35V569.061H1786.61V564.36H1777.3V559.841H1763.42V555.141H1744.63V559.841H1739.88V564.36H1735.32V569.061H1726.01V573.58H1721.44V578.281L1697.45 578.264V575.965H1694.77V571.639H1692.61V561H1684.5V557.608H1692.4V540.615H1698.11L1699.07 536.692H1703.03L1704.83 530.224H1703.03L1703.01 527.661L1703.03 527.661L1716.89 527.661V523.141H1739.88V527.661H1749.19V536.881H1753.94V541.582H1763.24V550.802H1767.81V555.321H1791.17V560.022H1795.73V564.541H1814.35V569.242H1824.28V572.997H1828.89V586.138H1837.54V590.709H1842.73V586.709L1851.96 586.709C1852.1 586.708 1852.26 586.707 1852.45 586.706C1852.63 586.706 1852.83 586.705 1853.04 586.705C1854.54 586.703 1856.57 586.709 1856.57 586.709C1856.57 586.709 1856.56 584.634 1856.56 583.176C1856.56 582.758 1856.57 582.391 1856.57 582.138C1856.9 582.135 1857.27 582.132 1857.65 582.131C1859.29 582.125 1861.18 582.138 1861.18 582.138C1861.18 582.138 1861.17 580.307 1861.17 578.606C1861.18 578.248 1861.18 577.896 1861.18 577.568H1865.22V572.997H1869.83V568.998C1870.16 568.994 1870.53 568.991 1870.91 568.99C1872.58 568.984 1874.44 568.998 1874.44 568.998C1874.44 568.998 1874.43 567.139 1874.44 565.465C1874.44 565.206 1874.44 564.951 1874.44 564.708C1874.44 564.613 1874.44 564.519 1874.44 564.427C1875.03 564.413 1875.62 564.406 1876.16 564.403C1877.79 564.395 1879.06 564.427 1879.06 564.427H1879.69V522.96H1875.13V509.04H1870.38V504.701H1875.13V500.001H1879.69V495.481H1884.43V490.6H1879.69V486.081H1875.13V481.561H1879.69V477.041H1884.43V462.94H1879.69V458.601H1884.43V453.9H1889V444.5H1879.69V435.28H1874.95V439.98H1870.38V435.28H1856.52V426.241H1861.07V417.021H1865.82V412.501H1870.38V407.801H1875.13V403.1H1861.07V398.4H1856.52V393.881H1833.15V389.179H1828.59V370.92H1823.84V366.22H1819.09V370.92H1814.54V366.22H1805.04V370.92H1795.92V366.22H1791.35V361.7H1782.04V357H1777.11V361.7H1758.5V366.22H1754.12V361.7H1739.88V366.401H1744.63V370.92H1735.32V375.44H1730.76V380.321H1735.32V384.66H1730.76V389.179H1726.19V384.66H1716.7V389.179H1712.14V412.501H1730.76V416.84H1726.01V430.76H1721.44V440.161H1726.01V444.5H1716.89V439.98H1707.39V444.5H1698.08V458.42H1693.52V467.822H1698.08V472.16H1688.78V477.041H1693.52V490.781H1702.83V495.301H1693.52V499.82H1688.78V504.52H1684.21V509.04H1679.65V504.52H1674.91V509.04H1665.78V504.52H1660.85V513.74H1656.47V509.04H1646.98V527.48H1632.93V541.401H1628.36V546.101H1637.67V560.022H1642.23V564.36H1637.67V569.061H1633.11V564.36H1628.36V573.58H1623.62V578.461H1628.36V582.8H1623.62V596.721H1605V601.421H1609.75V620.794H1620.06V625.458H1654.41V620.794H1662.85V625.458H1671.88V643.53H1676.71V648.193H1682.73C1682.73 648.193 1682.71 646.661 1682.72 644.661C1682.72 644.297 1682.73 643.918 1682.73 643.53H1695.39V656.938H1700.21V661.601H1705.03V666.265H1709.85V670.928H1723.71V684.336H1728.53V689H1733.95V684.336H1738.77V679.701ZM1736.53 676.168H1735.24V677.934H1730.76V680.804H1727.24V667.396H1713.38V662.732H1708.56V658.069H1703.74V653.405H1698.92V639.997H1675.42V621.926H1666.38V617.262H1650.88V621.926H1623.59V617.262H1613.28V600.253H1627.15V586.333H1631.89V572.593H1641.21V567.893H1645.76V556.489H1641.21V542.569H1636.46V531.012H1650.51V512.572H1652.93V517.273H1664.38V512.572H1687.74V508.053H1692.31V503.352H1697.05V498.833H1706.36V487.249H1697.05V475.693H1701.62V464.289H1697.05V461.952H1701.62V448.032H1710.92V443.513H1713.35V448.032H1729.54V436.629H1724.98V434.293H1729.54V420.372H1734.29V408.969H1715.67V392.712H1720.24V388.192H1722.66V392.712H1734.29V388.192H1738.85V374.453H1748.16V365.233H1750.59V369.752H1762.04V365.233H1787.82V369.752H1792.38V374.453H1808.57V369.752H1811V374.453H1825.06V392.712H1829.62V397.413H1852.98V401.933H1857.54V406.633H1866.85V408.969H1862.29V413.488H1857.54V422.708H1852.98V438.812H1866.85V443.513H1876.16V448.032H1885.47V450.368H1880.9V455.068H1876.16V466.472H1880.9V473.509H1876.16V478.029H1871.6V489.613H1876.16V496.469H1871.6V501.169H1866.85V512.572H1871.6V526.493H1876.16V560.871C1875.59 560.873 1874.98 560.881 1874.36 560.896L1870.95 560.978L1870.91 564.385C1870.91 564.72 1870.91 565.085 1870.9 565.457C1870.52 565.459 1870.14 565.461 1869.79 565.466L1866.3 565.507V569.465H1861.69V574.035H1857.69L1857.65 577.525C1857.65 577.866 1857.64 578.23 1857.64 578.598C1857.25 578.6 1856.87 578.602 1856.53 578.606L1853.08 578.647L1853.04 582.095C1853.03 582.362 1853.03 582.744 1853.03 583.173C1852.61 583.173 1852.23 583.174 1851.94 583.176L1851.93 583.176L1841.07 583.177V582.605H1832.42V569.465H1827.81V565.709H1817.88V561.009H1799.27V556.489H1794.7V551.789H1771.34V547.269H1766.77V538.049H1757.47V533.348H1752.72V524.128H1743.41V519.609H1713.35V524.128H1699.46L1699.51 533.159H1696.29L1695.34 537.083H1688.87V554.075H1680.97V564.532H1689.08V575.171H1691.24V579.498H1693.91V581.794L1724.98 581.815V577.113H1729.54V572.593H1738.85V567.893H1743.41V563.373H1748.16V558.673H1759.89V563.373H1773.76V567.893H1783.08V572.593H1787.82V579.449H1778.51V584.149H1773.76V595.553H1778.51V618.694H1783.08V621.03H1778.51V630.249H1773.76V643.989H1769.21V648.509H1759.89V653.209H1745.84V662.429H1741.28V671.649H1736.53V676.168Z" fill="#89E4FF"/>
<path fill-rule="evenodd" clip-rule="evenodd" d="M1781.7 698.125H1786.02V693.808H1794.65V689.491H1798.97V680.947H1794.65V667.996H1798.97V663.679H1803.28V655.045H1807.61V646.411H1811.92V642.184H1807.61V637.777H1811.92V633.46H1820.55V637.777H1824.87V650.728H1829.19V659.362H1833.51V663.679H1837.82V667.996H1842.14V672.223H1859.41V676.54H1863.72V680.857H1868.04V685.174H1876.58V689.491H1885.22V693.808H1893.85V698.125H1898.17V706.759H1902.49V715.393H1908.18V721.783C1908.47 721.787 1908.92 721.789 1909.43 721.789C1910.94 721.791 1912.96 721.783 1912.96 721.783C1912.96 721.783 1912.96 723.776 1912.96 725.316C1912.96 725.804 1912.96 726.247 1912.96 726.566L1912.96 736.73H1899.2V741.513H1874.68C1874.68 741.513 1874.69 739.52 1874.68 737.981C1874.68 737.492 1874.68 737.049 1874.68 736.73C1874.27 736.725 1873.84 736.722 1873.42 736.72C1871.6 736.713 1869.89 736.73 1869.89 736.73C1869.89 736.73 1869.9 734.794 1869.9 733.198C1869.9 732.733 1869.9 732.298 1869.89 731.947H1824.43V736.73H1800.5V731.947H1795.72V727.762C1795.53 727.76 1795.35 727.758 1795.16 727.757C1794.98 727.755 1794.79 727.754 1794.61 727.753L1794.46 727.752C1792.64 727.745 1790.93 727.762 1790.93 727.762C1790.93 727.762 1790.94 725.827 1790.94 724.229C1790.94 723.766 1790.93 723.33 1790.93 722.979H1786.74V711.166H1786.02V706.849H1781.7V698.125ZM1794.42 719.447L1794.46 722.937C1794.47 723.301 1794.47 723.748 1794.47 724.22C1794.9 724.222 1795.33 724.225 1795.76 724.23L1799.25 724.271V728.415H1804.03V733.198H1820.9V728.415H1873.38L1873.42 731.905C1873.43 732.268 1873.43 732.715 1873.43 733.188C1873.86 733.19 1874.29 733.193 1874.72 733.198L1878.17 733.239L1878.21 736.689C1878.21 737.022 1878.21 737.481 1878.22 737.981H1895.67V733.198H1909.43L1909.43 726.59L1909.43 726.579C1909.43 726.253 1909.42 725.809 1909.42 725.322C1908.91 725.321 1908.45 725.319 1908.13 725.315L1904.64 725.273V718.925H1898.95V710.291H1894.64V701.657H1890.32V697.34H1881.69V693.023H1873.05V688.706H1864.51V684.389H1860.19V680.072H1855.88V675.755H1838.61V671.529H1834.29V667.211H1829.97V662.894H1825.65V654.26H1821.34V641.309H1817.02V636.992H1815.45V649.943H1811.14V658.577H1806.82V667.211H1802.5V671.529H1798.18V677.415H1802.5V693.023H1798.18V697.34H1789.55V701.657H1785.24V703.317H1789.55V707.634H1790.27V719.447H1794.42Z" fill="#89E4FF"/>
<path fill-rule="evenodd" clip-rule="evenodd" d="M1901.03 669.433H1899.49V669.032H1902.33V647.74C1902.33 647.74 1900.28 647.753 1899.49 647.74V640.287H1902.33V631.77H1905.17V618.995H1902.33V611.011H1905.17V602.494H1902.33V598.235H1896.75V596.578H1888.07V600.869H1879.49V605.16H1871V606.22H1862.5V605.16H1849.63V592.287H1845.26V596.578H1840.96V600.869H1832.38V605.16H1828.18V600.869H1819.51V605.16H1815.22V609.451H1811.01V613.652H1806.73V618.032H1811.01V622.323H1819.51V626.614H1828.09V630.905H1832.38V656.649H1836.67V660.94H1845.26V665.231H1858.12V669.522H1866.71V673.724H1871V678.014H1875.2V682.305H1879.49V686.596H1888.16V682.305H1896.65V673.724H1901.03V669.433ZM1895.96 665.499H1898.8V651.26L1895.96 651.21V636.755H1898.8V628.238H1901.64V622.528H1898.8V607.478H1901.64V606.026H1898.8V601.768H1893.21V600.111H1891.6V604.401H1883.02V608.692H1874.53V609.752H1858.97V608.692H1846.1V600.111H1844.49V604.401H1835.91V608.692H1824.64V604.401H1823.04V608.692H1818.75V612.983H1814.55V618.791H1823.04V623.081H1831.63V627.372H1835.91V653.117H1840.21V657.408H1848.79V661.699H1861.66V665.989H1870.24V670.191H1874.53V674.482H1878.74V678.773H1883.02V683.064H1884.63V678.773H1893.12V670.191H1895.96V665.499Z" fill="#89E4FF"/>
<path fill-rule="evenodd" clip-rule="evenodd" d="M1738.77 679.701H1740.06V675.181H1744.81V665.961H1754.12V661.08H1749.37V656.741H1763.42V652.041H1772.74V647.521H1777.3V633.782H1782.04V624.562H1786.61V615.161H1782.04V592.02H1777.3V587.681H1782.04V582.981H1791.35V569.061H1786.61V564.36H1777.3V559.841H1763.42V555.141H1744.63V559.841H1739.88V564.36H1735.32V569.061H1726.01V573.58H1721.44V578.281L1697.45 578.264V575.965H1694.77V571.639H1692.61V561H1684.5V557.608H1692.4V540.615H1698.11L1699.07 536.692H1703.03L1704.83 530.224H1703.03L1703.01 527.661L1703.03 527.661L1716.89 527.661V523.141H1739.88V527.661H1749.19V536.881H1753.94V541.582H1763.24V550.802H1767.81V555.321H1791.17V560.022H1795.73V564.541H1814.35V569.242H1824.28V572.997H1828.89V586.138H1837.54V590.709H1842.73V586.709L1851.96 586.709C1852.1 586.708 1852.26 586.707 1852.45 586.706C1852.63 586.706 1852.83 586.705 1853.04 586.705C1854.54 586.703 1856.57 586.709 1856.57 586.709C1856.57 586.709 1856.56 584.634 1856.56 583.176C1856.56 582.758 1856.57 582.391 1856.57 582.138C1856.9 582.135 1857.27 582.132 1857.65 582.131C1859.29 582.125 1861.18 582.138 1861.18 582.138C1861.18 582.138 1861.17 580.307 1861.17 578.606C1861.18 578.248 1861.18 577.896 1861.18 577.568H1865.22V572.997H1869.83V568.998C1870.16 568.994 1870.53 568.991 1870.91 568.99C1872.58 568.984 1874.44 568.998 1874.44 568.998C1874.44 568.998 1874.43 567.139 1874.44 565.465C1874.44 565.206 1874.44 564.951 1874.44 564.708C1874.44 564.613 1874.44 564.519 1874.44 564.427C1875.03 564.413 1875.62 564.406 1876.16 564.403C1877.79 564.395 1879.06 564.427 1879.06 564.427H1879.69V522.96H1875.13V509.04H1870.38V504.701H1875.13V500.001H1879.69V495.481H1884.43V490.6H1879.69V486.081H1875.13V481.561H1879.69V477.041H1884.43V462.94H1879.69V458.601H1884.43V453.9H1889V444.5H1879.69V435.28H1874.95V439.98H1870.38V435.28H1856.52V426.241H1861.07V417.021H1865.82V412.501H1870.38V407.801H1875.13V403.1H1861.07V398.4H1856.52V393.881H1833.15V389.179H1828.59V370.92H1823.84V366.22H1819.09V370.92H1814.54V366.22H1805.04V370.92H1795.92V366.22H1791.35V361.7H1782.04V357H1777.11V361.7H1758.5V366.22H1754.12V361.7H1739.88V366.401H1744.63V370.92H1735.32V375.44H1730.76V380.321H1735.32V384.66H1730.76V389.179H1726.19V384.66H1716.7V389.179H1712.14V412.501H1730.76V416.84H1726.01V430.76H1721.44V440.161H1726.01V444.5H1716.89V439.98H1707.39V444.5H1698.08V458.42H1693.52V467.822H1698.08V472.16H1688.78V477.041H1693.52V490.781H1702.83V495.301H1693.52V499.82H1688.78V504.52H1684.21V509.04H1679.65V504.52H1674.91V509.04H1665.78V504.52H1660.85V513.74H1656.47V509.04H1646.98V527.48H1632.93V541.401H1628.36V546.101H1637.67V560.022H1642.23V564.36H1637.67V569.061H1633.11V564.36H1628.36V573.58H1623.62V578.461H1628.36V582.8H1623.62V596.721H1605V601.421H1609.75V620.794H1620.06V625.458H1654.41V620.794H1662.85V625.458H1671.88V643.53H1676.71V648.193H1682.73C1682.73 648.193 1682.71 646.661 1682.72 644.661C1682.72 644.297 1682.73 643.918 1682.73 643.53H1695.39V656.938H1700.21V661.601H1705.03V666.265H1709.85V670.928H1723.71V684.336H1728.53V689H1733.95V684.336H1738.77V679.701ZM1736.53 676.168H1735.24V677.934H1730.76V680.804H1727.24V667.396H1713.38V662.732H1708.56V658.069H1703.74V653.405H1698.92V639.997H1675.42V621.926H1666.38V617.262H1650.88V621.926H1623.59V617.262H1613.28V600.253H1627.15V586.333H1631.89V572.593H1641.21V567.893H1645.76V556.489H1641.21V542.569H1636.46V531.012H1650.51V512.572H1652.93V517.273H1664.38V512.572H1687.74V508.053H1692.31V503.352H1697.05V498.833H1706.36V487.249H1697.05V475.693H1701.62V464.289H1697.05V461.952H1701.62V448.032H1710.92V443.513H1713.35V448.032H1729.54V436.629H1724.98V434.293H1729.54V420.372H1734.29V408.969H1715.67V392.712H1720.24V388.192H1722.66V392.712H1734.29V388.192H1738.85V374.453H1748.16V365.233H1750.59V369.752H1762.04V365.233H1787.82V369.752H1792.38V374.453H1808.57V369.752H1811V374.453H1825.06V392.712H1829.62V397.413H1852.98V401.933H1857.54V406.633H1866.85V408.969H1862.29V413.488H1857.54V422.708H1852.98V438.812H1866.85V443.513H1876.16V448.032H1885.47V450.368H1880.9V455.068H1876.16V466.472H1880.9V473.509H1876.16V478.029H1871.6V489.613H1876.16V496.469H1871.6V501.169H1866.85V512.572H1871.6V526.493H1876.16V560.871C1875.59 560.873 1874.98 560.881 1874.36 560.896L1870.95 560.978L1870.91 564.385C1870.91 564.72 1870.91 565.085 1870.9 565.457C1870.52 565.459 1870.14 565.461 1869.79 565.466L1866.3 565.507V569.465H1861.69V574.035H1857.69L1857.65 577.525C1857.65 577.866 1857.64 578.23 1857.64 578.598C1857.25 578.6 1856.87 578.602 1856.53 578.606L1853.08 578.647L1853.04 582.095C1853.03 582.362 1853.03 582.744 1853.03 583.173C1852.61 583.173 1852.23 583.174 1851.94 583.176L1851.93 583.176L1841.07 583.177V582.605H1832.42V569.465H1827.81V565.709H1817.88V561.009H1799.27V556.489H1794.7V551.789H1771.34V547.269H1766.77V538.049H1757.47V533.348H1752.72V524.128H1743.41V519.609H1713.35V524.128H1699.46L1699.51 533.159H1696.29L1695.34 537.083H1688.87V554.075H1680.97V564.532H1689.08V575.171H1691.24V579.498H1693.91V581.794L1724.98 581.815V577.113H1729.54V572.593H1738.85V567.893H1743.41V563.373H1748.16V558.673H1759.89V563.373H1773.76V567.893H1783.08V572.593H1787.82V579.449H1778.51V584.149H1773.76V595.553H1778.51V618.694H1783.08V621.03H1778.51V630.249H1773.76V643.989H1769.21V648.509H1759.89V653.209H1745.84V662.429H1741.28V671.649H1736.53V676.168Z" stroke="#89E4FF" stroke-width="2" mask="url(#path-1-outside-1_2058_57604)"/>
<path fill-rule="evenodd" clip-rule="evenodd" d="M1781.7 698.125H1786.02V693.808H1794.65V689.491H1798.97V680.947H1794.65V667.996H1798.97V663.679H1803.28V655.045H1807.61V646.411H1811.92V642.184H1807.61V637.777H1811.92V633.46H1820.55V637.777H1824.87V650.728H1829.19V659.362H1833.51V663.679H1837.82V667.996H1842.14V672.223H1859.41V676.54H1863.72V680.857H1868.04V685.174H1876.58V689.491H1885.22V693.808H1893.85V698.125H1898.17V706.759H1902.49V715.393H1908.18V721.783C1908.47 721.787 1908.92 721.789 1909.43 721.789C1910.94 721.791 1912.96 721.783 1912.96 721.783C1912.96 721.783 1912.96 723.776 1912.96 725.316C1912.96 725.804 1912.96 726.247 1912.96 726.566L1912.96 736.73H1899.2V741.513H1874.68C1874.68 741.513 1874.69 739.52 1874.68 737.981C1874.68 737.492 1874.68 737.049 1874.68 736.73C1874.27 736.725 1873.84 736.722 1873.42 736.72C1871.6 736.713 1869.89 736.73 1869.89 736.73C1869.89 736.73 1869.9 734.794 1869.9 733.198C1869.9 732.733 1869.9 732.298 1869.89 731.947H1824.43V736.73H1800.5V731.947H1795.72V727.762C1795.53 727.76 1795.35 727.758 1795.16 727.757C1794.98 727.755 1794.79 727.754 1794.61 727.753L1794.46 727.752C1792.64 727.745 1790.93 727.762 1790.93 727.762C1790.93 727.762 1790.94 725.827 1790.94 724.229C1790.94 723.766 1790.93 723.33 1790.93 722.979H1786.74V711.166H1786.02V706.849H1781.7V698.125ZM1794.42 719.447L1794.46 722.937C1794.47 723.301 1794.47 723.748 1794.47 724.22C1794.9 724.222 1795.33 724.225 1795.76 724.23L1799.25 724.271V728.415H1804.03V733.198H1820.9V728.415H1873.38L1873.42 731.905C1873.43 732.268 1873.43 732.715 1873.43 733.188C1873.86 733.19 1874.29 733.193 1874.72 733.198L1878.17 733.239L1878.21 736.689C1878.21 737.022 1878.21 737.481 1878.22 737.981H1895.67V733.198H1909.43L1909.43 726.59L1909.43 726.579C1909.43 726.253 1909.42 725.809 1909.42 725.322C1908.91 725.321 1908.45 725.319 1908.13 725.315L1904.64 725.273V718.925H1898.95V710.291H1894.64V701.657H1890.32V697.34H1881.69V693.023H1873.05V688.706H1864.51V684.389H1860.19V680.072H1855.88V675.755H1838.61V671.529H1834.29V667.211H1829.97V662.894H1825.65V654.26H1821.34V641.309H1817.02V636.992H1815.45V649.943H1811.14V658.577H1806.82V667.211H1802.5V671.529H1798.18V677.415H1802.5V693.023H1798.18V697.34H1789.55V701.657H1785.24V703.317H1789.55V707.634H1790.27V719.447H1794.42Z" stroke="#89E4FF" stroke-width="2" mask="url(#path-1-outside-1_2058_57604)"/>
<path fill-rule="evenodd" clip-rule="evenodd" d="M1901.03 669.433H1899.49V669.032H1902.33V647.74C1902.33 647.74 1900.28 647.753 1899.49 647.74V640.287H1902.33V631.77H1905.17V618.995H1902.33V611.011H1905.17V602.494H1902.33V598.235H1896.75V596.578H1888.07V600.869H1879.49V605.16H1871V606.22H1862.5V605.16H1849.63V592.287H1845.26V596.578H1840.96V600.869H1832.38V605.16H1828.18V600.869H1819.51V605.16H1815.22V609.451H1811.01V613.652H1806.73V618.032H1811.01V622.323H1819.51V626.614H1828.09V630.905H1832.38V656.649H1836.67V660.94H1845.26V665.231H1858.12V669.522H1866.71V673.724H1871V678.014H1875.2V682.305H1879.49V686.596H1888.16V682.305H1896.65V673.724H1901.03V669.433ZM1895.96 665.499H1898.8V651.26L1895.96 651.21V636.755H1898.8V628.238H1901.64V622.528H1898.8V607.478H1901.64V606.026H1898.8V601.768H1893.21V600.111H1891.6V604.401H1883.02V608.692H1874.53V609.752H1858.97V608.692H1846.1V600.111H1844.49V604.401H1835.91V608.692H1824.64V604.401H1823.04V608.692H1818.75V612.983H1814.55V618.791H1823.04V623.081H1831.63V627.372H1835.91V653.117H1840.21V657.408H1848.79V661.699H1861.66V665.989H1870.24V670.191H1874.53V674.482H1878.74V678.773H1883.02V683.064H1884.63V678.773H1893.12V670.191H1895.96V665.499Z" stroke="#89E4FF" stroke-width="2" mask="url(#path-1-outside-1_2058_57604)"/>
</svg>
