<svg width="1947" height="1504" viewBox="0 0 1947 1504" fill="none" xmlns="http://www.w3.org/2000/svg">
<path d="M1011.66 817.843L1011.67 852.157H1016.25V863.936L1011.67 865.061V872.673H1016.25V884.004H1022.09V899.054H1026.79V904.884H1029.81V895.945H1025.02V880.62H1020.32V872.673H1025.02V853.923H1020.32V820.022H1025.02V815.079H1048.54V820.022H1053.37V825.708H1058.86V862.36H1063.9V870.205L1058.86 870.205V885.771L1053.37 885.771V889.079H1062.13V882.92H1066.72V872.673H1080.08V868.438H1086.1V863.485H1099.9V868.438H1105.92V876.725H1100.81V882.364H1095.02V890.676H1100.81V900.46H1105.92V921.781H1121.55V927.455H1135.41V916.329H1153.86V921.781H1160.81V916.329H1180.01V921.781H1189.74V954.445H1210.33V959.417H1220.99V975.042H1226.67V980.73H1231.65V985.694H1236.62V990.667H1251.9V985.694H1283.15V980.73H1305.52V985.694H1320.09V980.73H1325.06V975.042H1330.74V970.072H1335.72V964.389H1352.05V954.445H1357.02V948.762H1361.99V943.79H1367.68V938.108H1382.32V906.319H1371.67V900.636H1366.69V895.664H1361.01V890.691H1356.04V885.008H1351.07V874.354H1345.39V864.408H1340.42V853.753H1334.74V843.098H1329.76V829.966H1334.74V809.366H1340.42V798.71H1345.39V764.249H1340.42V729.806H1345.39V703.524H1351.07V674.745H1345.39V669.062H1340.42V664.09H1329.76V659.311H1323.99C1323.99 659.311 1324.06 650.93 1324.07 649.66C1324.08 649.277 1324.06 648.849 1324.07 648.462H1319.1V642.779H1314.13V632.835H1303.48V627.151H1297.8V622.179H1292.82V600.868H1287.85V577.081H1292.82V561.454H1297.8V550.798H1303.48V538.113H1255.87V532.665H1234.39V527.104H1224.64V515.555H1209.78V509.873H1199.84V504.901H1178.53V499.219H1167.88V492.053H1142.31V499.219H1137.34V504.901H1121V509.873H1115.32V504.901H1079.09V509.873H1074.12V515.555H1068.43V520.528H1063.46V531.182H1058.49V556.753H1063.46V561.725H1068.43V568.118H1063.46V578.062H1052.81V583.744H1047.83V594.399H1042.16V599.371H1037.18C1037.13 603.847 1035.97 605 1031.5 605.053V614.998H1021.56V620.68H1015.87V656.906H1021.56V666.85H1026.53V672.532H1037.18V677.504H1042.16V693.842H1037.18V704.497H1031.5V710.179H1026.53V735.75H1037.18V752.087H1031.5V757.059H1005.22V762.741H1000.24V773.396H989.591V783.34H984.618V793.995H978.939V815.304H973.966V825.958H968.993V835.903H977.371V830.596H983.179V820.022H988.019V803.879H993.634V799.039H998.28V793.037H1003.51V789.165H1008.93V783.164H1014.49V778.517H1026.79V783.164H1031.58V790.932H1026.79V806.807H1022.09V812.422H1016.25V817.843H1011.66Z" stroke="#89E4FF" stroke-width="5.5"/>
</svg>
