<svg width="1947" height="1504" viewBox="0 0 1947 1504" fill="none" xmlns="http://www.w3.org/2000/svg">
<path d="M591.186 450.477V414.499H596.934V408.775H601.861V403.869H612.537V398.146H617.464V393.24H623.212V367.074H612.537V361.35H601.861V357.653H600.746V352.112H601.861V346.632C603.726 346.571 607.609 346.632 607.609 346.632V340.908H633.887V336.002H638.815V325.372H643.742V315.56C646.558 315.468 649.49 315.56 649.49 315.56V299.207H654.417V214.986H650.374L644.549 215.007V209.465H638.818V215.007H611.39V220.342H595.219V215.007H578.845V209.465H573.318V203.923H567.791V198.382H562.264V203.923H556.943V176.42H529.31V181.962H512.934V187.503H507.408V198.382H502.086V193.045H491.033V203.923H485.507V231.426H479.98V237.173H485.507V253.593H491.033V270.012H501.882V275.554H507.613V270.012H518.666V264.471H529.515V259.135H535.041V253.593H556.738V259.135H567.587V264.471H573.113V270.012H578.64V302.852H573.113V308.188H567.587V319.271H562.264V324.813H556.738V335.692H551.212V352.112H545.685V357.653H540.363V363.195H507.613V357.653H502.086V341.233H496.764V325.019H502.086V291.769H496.764V286.227H491.238V280.891H485.711V275.349H479.98V291.769H474.658V297.311H452.756V308.188H447.434V297.311H441.908V291.769H430.855V297.311H414.274V301.21C414.276 301.706 414.274 303.057 414.274 303.057C414.274 303.057 415.659 303.056 416.117 303.057H419.801V308.188H408.953V324.813H403.426V341.439H408.953V357.858H414.274V361.553C414.276 362.012 414.274 363.399 414.274 363.399C414.274 363.399 415.46 363.397 415.912 363.399C416.789 363.406 417.667 363.404 418.545 363.402C418.964 363.401 419.382 363.4 419.801 363.4V374.073H414.274C414.274 374.073 414.276 375.423 414.274 375.92V379.82H419.801V385.361H430.855V396.034H419.801V401.576H408.953V412.659H403.426V429.284H408.953V440.162L408.819 446.422H412.981V451.294H435.177V455.47H440.033V464.518H444.195V473.566H448.356V482.613H457.374V486.789H489.281V482.613H492.749V486.789H497.605V490.965H501.766V495.837H506.622V509.061H510.784V522.285H514.945V527.156H519.801V531.332H551.014V527.156H560.032V522.285H573.113V528.008H589.693V522.466H595.219V516.925H589.693V506.046H595.407V504.885H599.569V509.061H613.442V504.885H617.603V489.421H595.219V473.002H589.693V450.477H591.186Z" stroke="#89E4FF" stroke-width="5.5"/>
<path d="M688.793 534.2C689.62 534.199 690.33 534.197 690.986 534.202L698.825 534.202V537.891H706.665V541.579H710.354V553.105H714.505V560.942H718.194V564.63H721.884V568.319H729.723V572.468H733.413V576.156H737.102V579.844H749.092V576.156H752.781V572.468H756.471V564.63H760.621V541.579H764.31V537.891H768V534.202C769.537 534.197 772.15 534.202 772.15 534.202C772.15 534.202 772.144 531.892 772.15 530.053H779.529V526.365H786.907V530.053H798.898V526.365H802.587V522.677H810.427C810.427 522.677 810.416 519.905 810.427 518.988H814.116V499.164H810.427V495.476H806.276V491.787H802.587V487.638H798.898V483.95H797.635V485.153H793.045V480.569H788.351V475.884H783.76V462.134H793.045V448.181H788.351V443.598H783.76V429.848H788.351V420.58H793.045V415.793H788.351V411.21H783.76V406.626H779.066V401.941H774.475V397.358H760.498V401.941H746.724V397.358H737.44V392.775H732.849V388.089H718.769V392.775H714.178V402.042H718.769V406.626H714.178V411.21H700.404V401.941H691.018V406.626H686.426V411.21H681.733V415.793H677.143V420.477H672.551V434.329H667.858V448.181H663.266V452.866H649.391V457.45H644.698V462.033H640.106V471.403H644.698V480.672H658.573V489.838H653.632V495.476H649.02V499.164H645.331V518.988H649.02C649.028 519.625 649.025 520.699 649.022 521.614C649.021 522.016 649.02 522.387 649.02 522.676C649.335 522.676 649.714 522.675 650.116 522.675C651.003 522.673 652.006 522.671 652.709 522.676L660.549 522.677V526.365H663.266V522.226H667.858V531.495H687.298C687.298 532.468 687.296 533.558 687.296 534.202C687.838 534.202 688.334 534.201 688.793 534.2Z" stroke="#89E4FF" stroke-width="5.5"/>
</svg>
