<svg width="1947" height="1505" viewBox="0 0 1947 1505" fill="none" xmlns="http://www.w3.org/2000/svg">
<mask id="path-1-outside-1_2058_57602" maskUnits="userSpaceOnUse" x="966.413" y="1086.59" width="746" height="418" fill="black">
<rect fill="white" x="966.413" y="1086.59" width="746" height="418"/>
<path fill-rule="evenodd" clip-rule="evenodd" d="M1351.52 1087.59H1371.35V1093.04H1386.96V1098.12H1402.57V1103.05H1408.33V1108.73H1413.26V1124.5H1418.19V1140.11H1423.95V1156.41H1427.41V1157.29H1429.09V1161.24H1434.77V1166.21H1471.7V1171.89H1497.99V1176.86H1518.59V1182.55H1534.21V1187.51H1539.89V1192.49H1544.87V1198.17H1550.55V1203.15H1555.52V1213.8H1561.21V1219.48H1566.18V1229.42H1571.15V1235.1H1576.83V1244.33H1571.15V1250.73H1576.83V1261.39H1581.8V1266.36H1587.48V1286.23H1581.8V1291.92H1561.24L1561.25 1292.36L1561.25 1292.36C1561.27 1292.96 1561.29 1293.57 1561.3 1294.15C1561.31 1295.44 1561.25 1296.8 1560.9 1298.03C1560.54 1299.31 1559.83 1300.52 1558.54 1301.37C1557.7 1301.92 1556.68 1302.27 1555.52 1302.44V1307.54H1550.55V1312.51H1544.87V1318.19H1535.65V1312.51H1534.21V1323.17H1520.03V1318.19H1514.34V1307.54H1509.37V1302.57H1503.69V1291.92H1498.71V1286.23H1493.74V1281.26H1488.06V1276.28H1477.41V1265.63H1467.46V1259.95H1461.78V1254.98H1456.81V1244.33H1451.12V1239.35H1435.5V1233.66H1430.53V1207.39H1424.85V1202.41H1419.87V1196.73H1414.19V1191.76H1409.22V1182.55H1414.19V1181.11H1409.22V1176.14H1397.84V1182.55H1402.81V1198.17H1408.49V1203.15H1413.46V1213.8H1418.43V1228.7H1413.46V1244.33H1402.81V1250.01H1377.96V1244.33H1351.68V1239.35H1350.24V1244.33H1341.03V1239.35H1328.94V1240.08H1334.62V1254.98H1328.94V1291.92H1323.97V1328.85H1318.99V1339.5H1308.33V1349.44H1302.65V1350.88H1308.33V1360.11H1297.68V1381.41H1287.03V1392.06H1262.18V1386.38H1245.12V1392.06H1239.44V1397.04H1230.22V1392.06H1203.94V1375.73H1198.96V1365.79H1188.31V1360.11H1182.63V1355.13H1177.66V1349.44H1172.69V1344.47H1146.41V1339.5H1140.72V1333.82H1135.75V1308.98H1140.72V1281.26H1135.75V1276.28H1134.31V1281.99H1140V1296.88H1134.31V1302.57H1129.34V1312.51H1123.66V1329.58H1129.34V1339.5H1123.66V1349.44H1108.03V1355.13H1097.38V1360.11H1083.18V1355.13H1081.75V1360.11H1076.78V1365.79H1066.12V1370.76H1051.23V1365.79H1014.29V1360.11H1009.32V1349.44H1003.64V1344.47H998.663V1339.5H993.69V1328.85H988.011V1323.17H972.377V1286.23H967.413L967.413 1251.63H988.423V1200.98H998.1V1208.81H1001.49V1203.43H1018.49V1208.86L1027.56 1209.1H1044.86V1213.99H1077.17V1209.1H1093.08V1204.03H1118.46V1209.1H1123.53V1213.99H1128.95V1219.76H1139.79V1224.48H1144.69V1229.73H1166.02V1235.32H1177.35V1229.73H1182.42V1224.48H1193.26V1219.76H1198.67V1207.56H1193.26V1192H1188.11V1156.41H1203.73V1145.72H1208.73V1139.88H1214.49V1135.03H1225.1V1129.95H1235.03V1124.35H1245.64V1119.42H1256.4V1113.66H1300.06V1108.81H1319.54V1103.2H1330.22V1098.12H1340.83V1093.04H1351.52V1087.59ZM1425.55 1159.94H1420.41V1143.64H1414.65V1128.03H1409.73V1112.27H1404.8V1106.58H1399.04V1101.65H1383.43V1096.58H1367.81V1091.12H1355.05V1096.58H1344.37V1101.66H1333.76V1106.73H1323.07V1112.34H1303.59V1117.19H1259.93V1122.95H1249.17V1127.88H1238.56V1133.49H1228.63V1138.57H1218.02V1143.42H1212.26V1149.25H1207.26V1159.94H1191.65V1188.47H1196.79V1204.03H1202.21V1223.29H1196.79V1228.01H1185.95V1233.26H1180.88V1238.85H1162.48V1233.26H1141.16V1228.01H1136.26V1223.29H1125.42V1217.52H1120V1212.63H1114.93V1207.56H1096.61V1212.63H1080.7V1217.52H1041.33V1212.63H1027.51L1014.96 1212.3V1206.96H1005.03V1212.35H994.567V1204.52H991.957V1255.16H970.946L970.946 1282.7H975.91V1319.63H991.544V1325.31H997.224V1335.97H1002.2V1340.94H1007.17V1345.91H1012.85V1356.57H1017.82V1362.25H1054.76V1367.23H1062.59V1362.25H1073.25V1356.57H1078.22V1351.6H1086.72V1356.57H1093.85V1351.6H1104.5V1345.91H1120.12V1335.97H1125.8V1333.11H1120.12V1308.98H1125.8V1299.04H1130.78V1293.35H1136.46V1285.52H1130.78V1272.75H1139.28V1277.72H1144.25V1312.51H1139.28V1330.29H1144.25V1335.97H1149.94V1340.94H1176.22V1345.91H1181.19V1351.6H1186.17V1356.57H1191.85V1362.25H1202.5V1372.2H1207.47V1388.53H1233.76V1393.5H1235.9V1388.53H1241.58V1382.85H1265.71V1388.53H1283.49V1377.88H1294.15V1356.57H1304.8V1354.42H1299.12V1345.91H1304.8V1335.97H1315.46V1325.31H1320.43V1288.38H1325.41V1251.44H1331.09V1243.61H1325.41V1235.82H1344.56V1240.79H1346.71V1235.82H1355.22V1240.79H1381.49V1246.47H1399.27V1240.79H1409.93V1225.17H1414.9V1217.33H1409.93V1206.68H1404.95V1201.71H1399.27V1186.08H1394.3V1172.6H1412.75V1177.58H1417.73V1186.08H1412.75V1188.23H1417.73V1193.2H1423.41V1198.88H1428.38V1203.85H1434.06V1230.13H1439.03V1235.82H1454.66V1240.79H1460.34V1251.44H1465.32V1256.42H1471V1262.1H1480.94V1272.75H1491.6V1277.72H1497.27V1282.7H1502.25V1288.38H1507.22V1299.04H1512.9V1304.01H1517.87V1314.66H1523.56V1319.63H1530.68V1308.98H1539.19V1314.66H1541.33V1308.98H1547.02V1304.01H1551.99V1299.06L1553.73 1299.04C1555.28 1299.02 1556.13 1298.72 1556.6 1298.41C1557.03 1298.13 1557.31 1297.73 1557.5 1297.06C1557.71 1296.34 1557.77 1295.41 1557.76 1294.18C1557.76 1293.64 1557.74 1293.07 1557.72 1292.46L1557.71 1292.27C1557.69 1291.6 1557.67 1290.88 1557.67 1290.15V1288.38H1578.27V1282.7H1583.95V1269.9H1578.27V1264.92H1573.3V1254.26H1567.62V1240.79H1573.3V1238.64H1567.62V1232.96H1562.65V1223.01H1557.67V1217.33H1551.99V1206.68H1547.02V1201.71H1541.33V1196.02H1536.36V1191.05H1530.68V1186.08H1515.06V1180.39H1494.46V1175.42H1468.17V1169.74H1431.24V1164.77H1425.55V1159.94Z"/>
<path fill-rule="evenodd" clip-rule="evenodd" d="M1338.99 1424.21H1334.33V1429.76H1328.22V1434.23H1324.5V1437.94H1320.77V1441.66H1316.3V1449.1H1312.58V1465.45H1316.3V1472.89H1320.77V1476.61H1324.5V1480.32H1328.22V1484.78H1331.95V1492.22H1335.67V1495.94H1340.14V1499.65H1347.6V1503.37H1359.52V1499.65H1366.97V1495.94H1370.69V1492.22H1378.89L1378.89 1488.5H1382.61V1484.78H1386.34V1480.32H1390.06V1472.89H1393.79V1460.99H1397.51V1457.27H1393.79V1449.1H1390.06V1445.38H1386.34V1441.66H1382.61V1426.05H1378.89V1422.33H1374.42V1418.61H1370.69V1414.89H1366.97V1411.18H1363.24V1403H1358.77V1406.72H1355.05V1411.18H1347.6V1414.89H1343.87V1418.61L1338.99 1418.52V1424.21ZM1342.52 1422.12V1427.74H1337.86V1433.3H1331.76V1437.76H1328.03V1441.48H1324.31V1445.19H1319.84V1452.63H1316.11V1461.92H1319.84V1469.36H1324.31V1473.07H1328.03V1476.79H1331.76V1481.25H1335.48V1488.69H1339.21V1492.4H1343.68V1496.12H1351.13V1499.84H1355.98V1496.12H1363.43V1492.4H1367.16V1488.69H1375.35V1484.97H1379.08V1481.25H1382.8V1476.79H1386.53V1469.36H1390.25V1452.63H1386.53V1448.91H1382.8V1445.19H1379.08V1429.58H1375.35V1425.86H1370.88V1422.14H1367.16V1418.43H1363.43V1414.71H1359.71V1410.25H1358.58V1414.71H1351.13V1418.43H1347.4V1422.21L1342.52 1422.12Z"/>
<path fill-rule="evenodd" clip-rule="evenodd" d="M1181.62 1432.54V1452.78H1191.3V1450.8H1196.14V1441.56H1191.3V1432.54H1181.62ZM1187.76 1447.27V1449.25H1185.15V1436.07H1187.76V1445.09H1192.6V1447.27H1187.76Z"/>
<path fill-rule="evenodd" clip-rule="evenodd" d="M1697.3 1272.45H1693.15V1275.03H1696.36V1286.01H1692.81V1293.43H1689.25V1300.56H1685.7V1311.25H1689.25V1318.37H1692.81V1322.23H1696.36V1325.79H1699.91V1329.36H1703.76V1332.92H1707.41V1335.27L1708.98 1335.28H1709.93V1336.48H1710.87V1351.33H1707.02V1348H1703.76V1354.89H1696.36V1356.17H1685.7V1362.02H1681.85V1365.58H1678.3V1369.44H1671.19V1373H1664.08V1376.56H1660.23V1380.13H1653.13V1387.55H1642.17V1383.69H1638.62V1387.55H1634.77V1383.69H1631.22V1380.13H1620.56V1376.56H1616.71V1373H1606.05V1369.44H1602.49V1365.58H1598.64V1362.02H1595.09V1358.45H1591.54V1354.89H1587.99V1351.33H1584.43V1347.47H1580.58V1339.6H1579.7V1322.82H1575.46V1305.95H1583.94V1310.1H1592.33V1318.49H1600.64V1301.79H1596.48V1289.15H1600.64V1280.76H1609.03V1268.21H1604.88V1259.82H1600.64V1255.67H1596.48V1238.79H1592.25V1234.55H1609.12V1238.71H1630.06V1234.55H1638.46V1230.31H1642.61V1226.15H1646.85V1221.91H1651V1217.76H1667.96V1234.55H1672.11V1255.58H1688.91V1259.73H1697.3V1272.45ZM1584.11 1336.07V1343.94H1587.96V1347.79H1591.52V1351.36H1595.07V1354.92H1598.62V1358.48H1602.18V1362.05H1606.03V1365.91H1609.58V1369.47H1620.24V1373.03H1624.09V1376.59H1634.75V1380.16H1645.7V1384.02H1649.6V1376.59H1656.7V1373.03H1660.55V1369.47H1667.66V1365.91H1674.76V1362.05H1678.32V1358.48H1682.17V1352.64H1692.83V1351.36H1700.23V1344.46H1707.34V1340.01H1706.4V1338.8L1703.88 1338.79V1336.45H1700.23V1332.89H1696.38V1329.33H1692.83V1325.76H1689.27V1321.9H1685.72V1314.78H1682.17V1297.03H1685.72V1289.9H1689.27V1282.48H1692.83V1278.56H1689.61V1268.92H1693.76V1263.26H1685.37V1259.11H1668.58V1238.09H1664.43V1221.29H1654.53V1225.45H1650.38V1229.69H1646.14V1233.85H1641.99V1238.09H1633.6V1242.24H1605.59V1238.09H1600.01V1252.14H1604.17V1256.29H1608.41V1264.68H1612.56V1284.3H1604.17V1292.69H1600.01V1298.25H1604.17V1322.02H1588.8V1313.63H1580.41V1309.48H1578.99V1319.29H1583.23V1336.07H1584.11Z"/>
<path fill-rule="evenodd" clip-rule="evenodd" d="M1493.27 1426.26V1434.33H1489.72V1438.66H1482.04C1482.03 1439.09 1482.02 1439.63 1482.02 1440.19C1482.02 1441.79 1482.04 1443.59 1482.04 1443.59H1478.34V1448.39C1478.34 1448.39 1476.95 1448.37 1474.94 1448.35C1471.97 1448.32 1467.63 1448.29 1464.4 1448.32C1462.99 1448.33 1461.79 1448.35 1461.01 1448.39V1444.45H1452.9V1440.12H1448.57L1448.57 1432.44H1444.04V1412.59H1430.81V1408.85H1414.86V1405.69H1405.8V1398.25H1401.66V1394.51H1396.86V1377.38L1400.8 1377.18V1366.35H1395.88V1357.68H1391.74V1353.94H1386.82V1350.24L1382.68 1350.24V1346.5H1378.55V1342.76L1374.14 1342.76L1374.14 1332.41H1377.84V1328.16H1372.42V1314.56H1376.9V1296.64H1381.28V1292.14H1390.24V1287.63H1399.19V1283.13H1403.58V1278.82H1394.71V1269.72H1399.19V1265.21H1403.58V1260.71H1417.01V1256.3H1425.96V1260.71H1430.36V1256.3H1439.4V1260.71H1452.74V1278.72H1461.7V1283.13H1466.18V1287.63H1479.52V1301.24H1475.04V1305.55H1483.99V1310.05H1488.48V1319.15H1483.99V1336.99H1488.48V1345.99H1497.34V1350.5H1506.3V1368.42H1515.26V1386.43H1510.77V1395.43H1506.3V1399.75H1510.77V1417.85H1506.3V1422.26H1501.82V1426.26H1493.27ZM1489.87 1430.94H1486.33V1435.27H1478.74L1478.65 1438.57C1478.64 1439.03 1478.63 1439.61 1478.63 1440.19H1474.94V1444.96C1473.81 1444.95 1472.49 1444.93 1471.11 1444.93C1468.88 1444.91 1466.45 1444.91 1464.4 1444.92V1441.06H1456.29V1436.72H1451.96V1429.04H1447.43V1409.19H1434.2V1405.45H1418.25L1418.25 1402.3H1409.19V1394.86H1405.06V1391.11H1400.25V1380.6L1404.19 1380.41V1362.95H1399.27V1354.29H1395.14V1350.55H1390.21V1346.85L1386.08 1346.85V1343.1H1381.94V1339.36L1377.53 1339.36L1377.53 1335.81H1381.24V1324.77H1375.81V1317.96H1380.29V1300.04H1384.68V1295.54H1393.63V1291.03H1402.59V1286.52H1406.97V1275.43H1398.11V1273.11H1402.59V1268.6H1406.97V1264.1H1420.4V1259.69H1422.57V1264.1H1433.75V1259.69H1436.01V1264.1H1449.35V1282.11H1458.3V1286.52H1462.79V1291.03H1476.13V1297.85H1471.64V1308.95H1480.6V1313.45H1485.08V1315.76H1480.6V1340.38H1485.08V1349.38H1493.95V1353.89H1502.9V1371.81H1511.86V1383.04H1507.38V1392.04H1502.9V1403.15H1507.38V1414.46H1502.9V1418.87H1498.42V1422.87H1489.87V1430.94Z"/>
</mask>
<path fill-rule="evenodd" clip-rule="evenodd" d="M1351.52 1087.59H1371.35V1093.04H1386.96V1098.12H1402.57V1103.05H1408.33V1108.73H1413.26V1124.5H1418.19V1140.11H1423.95V1156.41H1427.41V1157.29H1429.09V1161.24H1434.77V1166.21H1471.7V1171.89H1497.99V1176.86H1518.59V1182.55H1534.21V1187.51H1539.89V1192.49H1544.87V1198.17H1550.55V1203.15H1555.52V1213.8H1561.21V1219.48H1566.18V1229.42H1571.15V1235.1H1576.83V1244.33H1571.15V1250.73H1576.83V1261.39H1581.8V1266.36H1587.48V1286.23H1581.8V1291.92H1561.24L1561.25 1292.36L1561.25 1292.36C1561.27 1292.96 1561.29 1293.57 1561.3 1294.15C1561.31 1295.44 1561.25 1296.8 1560.9 1298.03C1560.54 1299.31 1559.83 1300.52 1558.54 1301.37C1557.7 1301.92 1556.68 1302.27 1555.52 1302.44V1307.54H1550.55V1312.51H1544.87V1318.19H1535.65V1312.51H1534.21V1323.17H1520.03V1318.19H1514.34V1307.54H1509.37V1302.57H1503.69V1291.92H1498.71V1286.23H1493.74V1281.26H1488.06V1276.28H1477.41V1265.63H1467.46V1259.95H1461.78V1254.98H1456.81V1244.33H1451.12V1239.35H1435.5V1233.66H1430.53V1207.39H1424.85V1202.41H1419.87V1196.73H1414.19V1191.76H1409.22V1182.55H1414.19V1181.11H1409.22V1176.14H1397.84V1182.55H1402.81V1198.17H1408.49V1203.15H1413.46V1213.8H1418.43V1228.7H1413.46V1244.33H1402.81V1250.01H1377.96V1244.33H1351.68V1239.35H1350.24V1244.33H1341.03V1239.35H1328.94V1240.08H1334.62V1254.98H1328.94V1291.92H1323.97V1328.85H1318.99V1339.5H1308.33V1349.44H1302.65V1350.88H1308.33V1360.11H1297.68V1381.41H1287.03V1392.06H1262.18V1386.38H1245.12V1392.06H1239.44V1397.04H1230.22V1392.06H1203.94V1375.73H1198.96V1365.79H1188.31V1360.11H1182.63V1355.13H1177.66V1349.44H1172.69V1344.47H1146.41V1339.5H1140.72V1333.82H1135.75V1308.98H1140.72V1281.26H1135.75V1276.28H1134.31V1281.99H1140V1296.88H1134.31V1302.57H1129.34V1312.51H1123.66V1329.58H1129.34V1339.5H1123.66V1349.44H1108.03V1355.13H1097.38V1360.11H1083.18V1355.13H1081.75V1360.11H1076.78V1365.79H1066.12V1370.76H1051.23V1365.79H1014.29V1360.11H1009.32V1349.44H1003.64V1344.47H998.663V1339.5H993.69V1328.85H988.011V1323.17H972.377V1286.23H967.413L967.413 1251.63H988.423V1200.98H998.1V1208.81H1001.49V1203.43H1018.49V1208.86L1027.56 1209.1H1044.86V1213.99H1077.17V1209.1H1093.08V1204.03H1118.46V1209.1H1123.53V1213.99H1128.95V1219.76H1139.79V1224.48H1144.69V1229.73H1166.02V1235.32H1177.35V1229.73H1182.42V1224.48H1193.26V1219.76H1198.67V1207.56H1193.26V1192H1188.11V1156.41H1203.73V1145.72H1208.73V1139.88H1214.49V1135.03H1225.1V1129.95H1235.03V1124.35H1245.64V1119.42H1256.4V1113.66H1300.06V1108.81H1319.54V1103.2H1330.22V1098.12H1340.83V1093.04H1351.52V1087.59ZM1425.55 1159.94H1420.41V1143.64H1414.65V1128.03H1409.73V1112.27H1404.8V1106.58H1399.04V1101.65H1383.43V1096.58H1367.81V1091.12H1355.05V1096.58H1344.37V1101.66H1333.76V1106.73H1323.07V1112.34H1303.59V1117.19H1259.93V1122.95H1249.17V1127.88H1238.56V1133.49H1228.63V1138.57H1218.02V1143.42H1212.26V1149.25H1207.26V1159.94H1191.65V1188.47H1196.79V1204.03H1202.21V1223.29H1196.79V1228.01H1185.95V1233.26H1180.88V1238.85H1162.48V1233.26H1141.16V1228.01H1136.26V1223.29H1125.42V1217.52H1120V1212.63H1114.93V1207.56H1096.61V1212.63H1080.7V1217.52H1041.33V1212.63H1027.51L1014.96 1212.3V1206.96H1005.03V1212.35H994.567V1204.52H991.957V1255.16H970.946L970.946 1282.7H975.91V1319.63H991.544V1325.31H997.224V1335.97H1002.2V1340.94H1007.17V1345.91H1012.85V1356.57H1017.82V1362.25H1054.76V1367.23H1062.59V1362.25H1073.25V1356.57H1078.22V1351.6H1086.72V1356.57H1093.85V1351.6H1104.5V1345.91H1120.12V1335.97H1125.8V1333.11H1120.12V1308.98H1125.8V1299.04H1130.78V1293.35H1136.46V1285.52H1130.78V1272.75H1139.28V1277.72H1144.25V1312.51H1139.28V1330.29H1144.25V1335.97H1149.94V1340.94H1176.22V1345.91H1181.19V1351.6H1186.17V1356.57H1191.85V1362.25H1202.5V1372.2H1207.47V1388.53H1233.76V1393.5H1235.9V1388.53H1241.58V1382.85H1265.71V1388.53H1283.49V1377.88H1294.15V1356.57H1304.8V1354.42H1299.12V1345.91H1304.8V1335.97H1315.46V1325.31H1320.43V1288.38H1325.41V1251.44H1331.09V1243.61H1325.41V1235.82H1344.56V1240.79H1346.71V1235.82H1355.22V1240.79H1381.49V1246.47H1399.27V1240.79H1409.93V1225.17H1414.9V1217.33H1409.93V1206.68H1404.95V1201.71H1399.27V1186.08H1394.3V1172.6H1412.75V1177.58H1417.73V1186.08H1412.75V1188.23H1417.73V1193.2H1423.41V1198.88H1428.38V1203.85H1434.06V1230.13H1439.03V1235.82H1454.66V1240.79H1460.34V1251.44H1465.32V1256.42H1471V1262.1H1480.94V1272.75H1491.6V1277.72H1497.27V1282.7H1502.25V1288.38H1507.22V1299.04H1512.9V1304.01H1517.87V1314.66H1523.56V1319.63H1530.68V1308.98H1539.19V1314.66H1541.33V1308.98H1547.02V1304.01H1551.99V1299.06L1553.73 1299.04C1555.28 1299.02 1556.13 1298.72 1556.6 1298.41C1557.03 1298.13 1557.31 1297.73 1557.5 1297.06C1557.71 1296.34 1557.77 1295.41 1557.76 1294.18C1557.76 1293.64 1557.74 1293.07 1557.72 1292.46L1557.71 1292.27C1557.69 1291.6 1557.67 1290.88 1557.67 1290.15V1288.38H1578.27V1282.7H1583.95V1269.9H1578.27V1264.92H1573.3V1254.26H1567.62V1240.79H1573.3V1238.64H1567.62V1232.96H1562.65V1223.01H1557.67V1217.33H1551.99V1206.68H1547.02V1201.71H1541.33V1196.02H1536.36V1191.05H1530.68V1186.08H1515.06V1180.39H1494.46V1175.42H1468.17V1169.74H1431.24V1164.77H1425.55V1159.94Z" fill="#89E4FF"/>
<path fill-rule="evenodd" clip-rule="evenodd" d="M1338.99 1424.21H1334.33V1429.76H1328.22V1434.23H1324.5V1437.94H1320.77V1441.66H1316.3V1449.1H1312.58V1465.45H1316.3V1472.89H1320.77V1476.61H1324.5V1480.32H1328.22V1484.78H1331.95V1492.22H1335.67V1495.94H1340.14V1499.65H1347.6V1503.37H1359.52V1499.65H1366.97V1495.94H1370.69V1492.22H1378.89L1378.89 1488.5H1382.61V1484.78H1386.34V1480.32H1390.06V1472.89H1393.79V1460.99H1397.51V1457.27H1393.79V1449.1H1390.06V1445.38H1386.34V1441.66H1382.61V1426.05H1378.89V1422.33H1374.42V1418.61H1370.69V1414.89H1366.97V1411.18H1363.24V1403H1358.77V1406.72H1355.05V1411.18H1347.6V1414.89H1343.87V1418.61L1338.99 1418.52V1424.21ZM1342.52 1422.12V1427.74H1337.86V1433.3H1331.76V1437.76H1328.03V1441.48H1324.31V1445.19H1319.84V1452.63H1316.11V1461.92H1319.84V1469.36H1324.31V1473.07H1328.03V1476.79H1331.76V1481.25H1335.48V1488.69H1339.21V1492.4H1343.68V1496.12H1351.13V1499.84H1355.98V1496.12H1363.43V1492.4H1367.16V1488.69H1375.35V1484.97H1379.08V1481.25H1382.8V1476.79H1386.53V1469.36H1390.25V1452.63H1386.53V1448.91H1382.8V1445.19H1379.08V1429.58H1375.35V1425.86H1370.88V1422.14H1367.16V1418.43H1363.43V1414.71H1359.71V1410.25H1358.58V1414.71H1351.13V1418.43H1347.4V1422.21L1342.52 1422.12Z" fill="#89E4FF"/>
<path fill-rule="evenodd" clip-rule="evenodd" d="M1181.62 1432.54V1452.78H1191.3V1450.8H1196.14V1441.56H1191.3V1432.54H1181.62ZM1187.76 1447.27V1449.25H1185.15V1436.07H1187.76V1445.09H1192.6V1447.27H1187.76Z" fill="#89E4FF"/>
<path fill-rule="evenodd" clip-rule="evenodd" d="M1697.3 1272.45H1693.15V1275.03H1696.36V1286.01H1692.81V1293.43H1689.25V1300.56H1685.7V1311.25H1689.25V1318.37H1692.81V1322.23H1696.36V1325.79H1699.91V1329.36H1703.76V1332.92H1707.41V1335.27L1708.98 1335.28H1709.93V1336.48H1710.87V1351.33H1707.02V1348H1703.76V1354.89H1696.36V1356.17H1685.7V1362.02H1681.85V1365.58H1678.3V1369.44H1671.19V1373H1664.08V1376.56H1660.23V1380.13H1653.13V1387.55H1642.17V1383.69H1638.62V1387.55H1634.77V1383.69H1631.22V1380.13H1620.56V1376.56H1616.71V1373H1606.05V1369.44H1602.49V1365.58H1598.64V1362.02H1595.09V1358.45H1591.54V1354.89H1587.99V1351.33H1584.43V1347.47H1580.58V1339.6H1579.7V1322.82H1575.46V1305.95H1583.94V1310.1H1592.33V1318.49H1600.64V1301.79H1596.48V1289.15H1600.64V1280.76H1609.03V1268.21H1604.88V1259.82H1600.64V1255.67H1596.48V1238.79H1592.25V1234.55H1609.12V1238.71H1630.06V1234.55H1638.46V1230.31H1642.61V1226.15H1646.85V1221.91H1651V1217.76H1667.96V1234.55H1672.11V1255.58H1688.91V1259.73H1697.3V1272.45ZM1584.11 1336.07V1343.94H1587.96V1347.79H1591.52V1351.36H1595.07V1354.92H1598.62V1358.48H1602.18V1362.05H1606.03V1365.91H1609.58V1369.47H1620.24V1373.03H1624.09V1376.59H1634.75V1380.16H1645.7V1384.02H1649.6V1376.59H1656.7V1373.03H1660.55V1369.47H1667.66V1365.91H1674.76V1362.05H1678.32V1358.48H1682.17V1352.64H1692.83V1351.36H1700.23V1344.46H1707.34V1340.01H1706.4V1338.8L1703.88 1338.79V1336.45H1700.23V1332.89H1696.38V1329.33H1692.83V1325.76H1689.27V1321.9H1685.72V1314.78H1682.17V1297.03H1685.72V1289.9H1689.27V1282.48H1692.83V1278.56H1689.61V1268.92H1693.76V1263.26H1685.37V1259.11H1668.58V1238.09H1664.43V1221.29H1654.53V1225.45H1650.38V1229.69H1646.14V1233.85H1641.99V1238.09H1633.6V1242.24H1605.59V1238.09H1600.01V1252.14H1604.17V1256.29H1608.41V1264.68H1612.56V1284.3H1604.17V1292.69H1600.01V1298.25H1604.17V1322.02H1588.8V1313.63H1580.41V1309.48H1578.99V1319.29H1583.23V1336.07H1584.11Z" fill="#89E4FF"/>
<path fill-rule="evenodd" clip-rule="evenodd" d="M1493.27 1426.26V1434.33H1489.72V1438.66H1482.04C1482.03 1439.09 1482.02 1439.63 1482.02 1440.19C1482.02 1441.79 1482.04 1443.59 1482.04 1443.59H1478.34V1448.39C1478.34 1448.39 1476.95 1448.37 1474.94 1448.35C1471.97 1448.32 1467.63 1448.29 1464.4 1448.32C1462.99 1448.33 1461.79 1448.35 1461.01 1448.39V1444.45H1452.9V1440.12H1448.57L1448.57 1432.44H1444.04V1412.59H1430.81V1408.85H1414.86V1405.69H1405.8V1398.25H1401.66V1394.51H1396.86V1377.38L1400.8 1377.18V1366.35H1395.88V1357.68H1391.74V1353.94H1386.82V1350.24L1382.68 1350.24V1346.5H1378.55V1342.76L1374.14 1342.76L1374.14 1332.41H1377.84V1328.16H1372.42V1314.56H1376.9V1296.64H1381.28V1292.14H1390.24V1287.63H1399.19V1283.13H1403.58V1278.82H1394.71V1269.72H1399.19V1265.21H1403.58V1260.71H1417.01V1256.3H1425.96V1260.71H1430.36V1256.3H1439.4V1260.71H1452.74V1278.72H1461.7V1283.13H1466.18V1287.63H1479.52V1301.24H1475.04V1305.55H1483.99V1310.05H1488.48V1319.15H1483.99V1336.99H1488.48V1345.99H1497.34V1350.5H1506.3V1368.42H1515.26V1386.43H1510.77V1395.43H1506.3V1399.75H1510.77V1417.85H1506.3V1422.26H1501.82V1426.26H1493.27ZM1489.87 1430.94H1486.33V1435.27H1478.74L1478.65 1438.57C1478.64 1439.03 1478.63 1439.61 1478.63 1440.19H1474.94V1444.96C1473.81 1444.95 1472.49 1444.93 1471.11 1444.93C1468.88 1444.91 1466.45 1444.91 1464.4 1444.92V1441.06H1456.29V1436.72H1451.96V1429.04H1447.43V1409.19H1434.2V1405.45H1418.25L1418.25 1402.3H1409.19V1394.86H1405.06V1391.11H1400.25V1380.6L1404.19 1380.41V1362.95H1399.27V1354.29H1395.14V1350.55H1390.21V1346.85L1386.08 1346.85V1343.1H1381.94V1339.36L1377.53 1339.36L1377.53 1335.81H1381.24V1324.77H1375.81V1317.96H1380.29V1300.04H1384.68V1295.54H1393.63V1291.03H1402.59V1286.52H1406.97V1275.43H1398.11V1273.11H1402.59V1268.6H1406.97V1264.1H1420.4V1259.69H1422.57V1264.1H1433.75V1259.69H1436.01V1264.1H1449.35V1282.11H1458.3V1286.52H1462.79V1291.03H1476.13V1297.85H1471.64V1308.95H1480.6V1313.45H1485.08V1315.76H1480.6V1340.38H1485.08V1349.38H1493.95V1353.89H1502.9V1371.81H1511.86V1383.04H1507.38V1392.04H1502.9V1403.15H1507.38V1414.46H1502.9V1418.87H1498.42V1422.87H1489.87V1430.94Z" fill="#89E4FF"/>
<path fill-rule="evenodd" clip-rule="evenodd" d="M1351.52 1087.59H1371.35V1093.04H1386.96V1098.12H1402.57V1103.05H1408.33V1108.73H1413.26V1124.5H1418.19V1140.11H1423.95V1156.41H1427.41V1157.29H1429.09V1161.24H1434.77V1166.21H1471.7V1171.89H1497.99V1176.86H1518.59V1182.55H1534.21V1187.51H1539.89V1192.49H1544.87V1198.17H1550.55V1203.15H1555.52V1213.8H1561.21V1219.48H1566.18V1229.42H1571.15V1235.1H1576.83V1244.33H1571.15V1250.73H1576.83V1261.39H1581.8V1266.36H1587.48V1286.23H1581.8V1291.92H1561.24L1561.25 1292.36L1561.25 1292.36C1561.27 1292.96 1561.29 1293.57 1561.3 1294.15C1561.31 1295.44 1561.25 1296.8 1560.9 1298.03C1560.54 1299.31 1559.83 1300.52 1558.54 1301.37C1557.7 1301.92 1556.68 1302.27 1555.52 1302.44V1307.54H1550.55V1312.51H1544.87V1318.19H1535.65V1312.51H1534.21V1323.17H1520.03V1318.19H1514.34V1307.54H1509.37V1302.57H1503.69V1291.92H1498.71V1286.23H1493.74V1281.26H1488.06V1276.28H1477.41V1265.63H1467.46V1259.95H1461.78V1254.98H1456.81V1244.33H1451.12V1239.35H1435.5V1233.66H1430.53V1207.39H1424.85V1202.41H1419.87V1196.73H1414.19V1191.76H1409.22V1182.55H1414.19V1181.11H1409.22V1176.14H1397.84V1182.55H1402.81V1198.17H1408.49V1203.15H1413.46V1213.8H1418.43V1228.7H1413.46V1244.33H1402.81V1250.01H1377.96V1244.33H1351.68V1239.35H1350.24V1244.33H1341.03V1239.35H1328.94V1240.08H1334.62V1254.98H1328.94V1291.92H1323.97V1328.85H1318.99V1339.5H1308.33V1349.44H1302.65V1350.88H1308.33V1360.11H1297.68V1381.41H1287.03V1392.06H1262.18V1386.38H1245.12V1392.06H1239.44V1397.04H1230.22V1392.06H1203.94V1375.73H1198.96V1365.79H1188.31V1360.11H1182.63V1355.13H1177.66V1349.44H1172.69V1344.47H1146.41V1339.5H1140.72V1333.82H1135.75V1308.98H1140.72V1281.26H1135.75V1276.28H1134.31V1281.99H1140V1296.88H1134.31V1302.57H1129.34V1312.51H1123.66V1329.58H1129.34V1339.5H1123.66V1349.44H1108.03V1355.13H1097.38V1360.11H1083.18V1355.13H1081.75V1360.11H1076.78V1365.79H1066.12V1370.76H1051.23V1365.79H1014.29V1360.11H1009.32V1349.44H1003.64V1344.47H998.663V1339.5H993.69V1328.85H988.011V1323.17H972.377V1286.23H967.413L967.413 1251.63H988.423V1200.98H998.1V1208.81H1001.49V1203.43H1018.49V1208.86L1027.56 1209.1H1044.86V1213.99H1077.17V1209.1H1093.08V1204.03H1118.46V1209.1H1123.53V1213.99H1128.95V1219.76H1139.79V1224.48H1144.69V1229.73H1166.02V1235.32H1177.35V1229.73H1182.42V1224.48H1193.26V1219.76H1198.67V1207.56H1193.26V1192H1188.11V1156.41H1203.73V1145.72H1208.73V1139.88H1214.49V1135.03H1225.1V1129.95H1235.03V1124.35H1245.64V1119.42H1256.4V1113.66H1300.06V1108.81H1319.54V1103.2H1330.22V1098.12H1340.83V1093.04H1351.52V1087.59ZM1425.55 1159.94H1420.41V1143.64H1414.65V1128.03H1409.73V1112.27H1404.8V1106.58H1399.04V1101.65H1383.43V1096.58H1367.81V1091.12H1355.05V1096.58H1344.37V1101.66H1333.76V1106.73H1323.07V1112.34H1303.59V1117.19H1259.93V1122.95H1249.17V1127.88H1238.56V1133.49H1228.63V1138.57H1218.02V1143.42H1212.26V1149.25H1207.26V1159.94H1191.65V1188.47H1196.79V1204.03H1202.21V1223.29H1196.79V1228.01H1185.95V1233.26H1180.88V1238.85H1162.48V1233.26H1141.16V1228.01H1136.26V1223.29H1125.42V1217.52H1120V1212.63H1114.93V1207.56H1096.61V1212.63H1080.7V1217.52H1041.33V1212.63H1027.51L1014.96 1212.3V1206.96H1005.03V1212.35H994.567V1204.52H991.957V1255.16H970.946L970.946 1282.7H975.91V1319.63H991.544V1325.31H997.224V1335.97H1002.2V1340.94H1007.17V1345.91H1012.85V1356.57H1017.82V1362.25H1054.76V1367.23H1062.59V1362.25H1073.25V1356.57H1078.22V1351.6H1086.72V1356.57H1093.85V1351.6H1104.5V1345.91H1120.12V1335.97H1125.8V1333.11H1120.12V1308.98H1125.8V1299.04H1130.78V1293.35H1136.46V1285.52H1130.78V1272.75H1139.28V1277.72H1144.25V1312.51H1139.28V1330.29H1144.25V1335.97H1149.94V1340.94H1176.22V1345.91H1181.19V1351.6H1186.17V1356.57H1191.85V1362.25H1202.5V1372.2H1207.47V1388.53H1233.76V1393.5H1235.9V1388.53H1241.58V1382.85H1265.71V1388.53H1283.49V1377.88H1294.15V1356.57H1304.8V1354.42H1299.12V1345.91H1304.8V1335.97H1315.46V1325.31H1320.43V1288.38H1325.41V1251.44H1331.09V1243.61H1325.41V1235.82H1344.56V1240.79H1346.71V1235.82H1355.22V1240.79H1381.49V1246.47H1399.27V1240.79H1409.93V1225.17H1414.9V1217.33H1409.93V1206.68H1404.95V1201.71H1399.27V1186.08H1394.3V1172.6H1412.75V1177.58H1417.73V1186.08H1412.75V1188.23H1417.73V1193.2H1423.41V1198.88H1428.38V1203.85H1434.06V1230.13H1439.03V1235.82H1454.66V1240.79H1460.34V1251.44H1465.32V1256.42H1471V1262.1H1480.94V1272.75H1491.6V1277.72H1497.27V1282.7H1502.25V1288.38H1507.22V1299.04H1512.9V1304.01H1517.87V1314.66H1523.56V1319.63H1530.68V1308.98H1539.19V1314.66H1541.33V1308.98H1547.02V1304.01H1551.99V1299.06L1553.73 1299.04C1555.28 1299.02 1556.13 1298.72 1556.6 1298.41C1557.03 1298.13 1557.31 1297.73 1557.5 1297.06C1557.71 1296.34 1557.77 1295.41 1557.76 1294.18C1557.76 1293.64 1557.74 1293.07 1557.72 1292.46L1557.71 1292.27C1557.69 1291.6 1557.67 1290.88 1557.67 1290.15V1288.38H1578.27V1282.7H1583.95V1269.9H1578.27V1264.92H1573.3V1254.26H1567.62V1240.79H1573.3V1238.64H1567.62V1232.96H1562.65V1223.01H1557.67V1217.33H1551.99V1206.68H1547.02V1201.71H1541.33V1196.02H1536.36V1191.05H1530.68V1186.08H1515.06V1180.39H1494.46V1175.42H1468.17V1169.74H1431.24V1164.77H1425.55V1159.94Z" stroke="#89E4FF" stroke-width="2" mask="url(#path-1-outside-1_2058_57602)"/>
<path fill-rule="evenodd" clip-rule="evenodd" d="M1338.99 1424.21H1334.33V1429.76H1328.22V1434.23H1324.5V1437.94H1320.77V1441.66H1316.3V1449.1H1312.58V1465.45H1316.3V1472.89H1320.77V1476.61H1324.5V1480.32H1328.22V1484.78H1331.95V1492.22H1335.67V1495.94H1340.14V1499.65H1347.6V1503.37H1359.52V1499.65H1366.97V1495.94H1370.69V1492.22H1378.89L1378.89 1488.5H1382.61V1484.78H1386.34V1480.32H1390.06V1472.89H1393.79V1460.99H1397.51V1457.27H1393.79V1449.1H1390.06V1445.38H1386.34V1441.66H1382.61V1426.05H1378.89V1422.33H1374.42V1418.61H1370.69V1414.89H1366.97V1411.18H1363.24V1403H1358.77V1406.72H1355.05V1411.18H1347.6V1414.89H1343.87V1418.61L1338.99 1418.52V1424.21ZM1342.52 1422.12V1427.74H1337.86V1433.3H1331.76V1437.76H1328.03V1441.48H1324.31V1445.19H1319.84V1452.63H1316.11V1461.92H1319.84V1469.36H1324.31V1473.07H1328.03V1476.79H1331.76V1481.25H1335.48V1488.69H1339.21V1492.4H1343.68V1496.12H1351.13V1499.84H1355.98V1496.12H1363.43V1492.4H1367.16V1488.69H1375.35V1484.97H1379.08V1481.25H1382.8V1476.79H1386.53V1469.36H1390.25V1452.63H1386.53V1448.91H1382.8V1445.19H1379.08V1429.58H1375.35V1425.86H1370.88V1422.14H1367.16V1418.43H1363.43V1414.71H1359.71V1410.25H1358.58V1414.71H1351.13V1418.43H1347.4V1422.21L1342.52 1422.12Z" stroke="#89E4FF" stroke-width="2" mask="url(#path-1-outside-1_2058_57602)"/>
<path fill-rule="evenodd" clip-rule="evenodd" d="M1181.62 1432.54V1452.78H1191.3V1450.8H1196.14V1441.56H1191.3V1432.54H1181.62ZM1187.76 1447.27V1449.25H1185.15V1436.07H1187.76V1445.09H1192.6V1447.27H1187.76Z" stroke="#89E4FF" stroke-width="2" mask="url(#path-1-outside-1_2058_57602)"/>
<path fill-rule="evenodd" clip-rule="evenodd" d="M1697.3 1272.45H1693.15V1275.03H1696.36V1286.01H1692.81V1293.43H1689.25V1300.56H1685.7V1311.25H1689.25V1318.37H1692.81V1322.23H1696.36V1325.79H1699.91V1329.36H1703.76V1332.92H1707.41V1335.27L1708.98 1335.28H1709.93V1336.48H1710.87V1351.33H1707.02V1348H1703.76V1354.89H1696.36V1356.17H1685.7V1362.02H1681.85V1365.58H1678.3V1369.44H1671.19V1373H1664.08V1376.56H1660.23V1380.13H1653.13V1387.55H1642.17V1383.69H1638.62V1387.55H1634.77V1383.69H1631.22V1380.13H1620.56V1376.56H1616.71V1373H1606.05V1369.44H1602.49V1365.58H1598.64V1362.02H1595.09V1358.45H1591.54V1354.89H1587.99V1351.33H1584.43V1347.47H1580.58V1339.6H1579.7V1322.82H1575.46V1305.95H1583.94V1310.1H1592.33V1318.49H1600.64V1301.79H1596.48V1289.15H1600.64V1280.76H1609.03V1268.21H1604.88V1259.82H1600.64V1255.67H1596.48V1238.79H1592.25V1234.55H1609.12V1238.71H1630.06V1234.55H1638.46V1230.31H1642.61V1226.15H1646.85V1221.91H1651V1217.76H1667.96V1234.55H1672.11V1255.58H1688.91V1259.73H1697.3V1272.45ZM1584.11 1336.07V1343.94H1587.96V1347.79H1591.52V1351.36H1595.07V1354.92H1598.62V1358.48H1602.18V1362.05H1606.03V1365.91H1609.58V1369.47H1620.24V1373.03H1624.09V1376.59H1634.75V1380.16H1645.7V1384.02H1649.6V1376.59H1656.7V1373.03H1660.55V1369.47H1667.66V1365.91H1674.76V1362.05H1678.32V1358.48H1682.17V1352.64H1692.83V1351.36H1700.23V1344.46H1707.34V1340.01H1706.4V1338.8L1703.88 1338.79V1336.45H1700.23V1332.89H1696.38V1329.33H1692.83V1325.76H1689.27V1321.9H1685.72V1314.78H1682.17V1297.03H1685.72V1289.9H1689.27V1282.48H1692.83V1278.56H1689.61V1268.92H1693.76V1263.26H1685.37V1259.11H1668.58V1238.09H1664.43V1221.29H1654.53V1225.45H1650.38V1229.69H1646.14V1233.85H1641.99V1238.09H1633.6V1242.24H1605.59V1238.09H1600.01V1252.14H1604.17V1256.29H1608.41V1264.68H1612.56V1284.3H1604.17V1292.69H1600.01V1298.25H1604.17V1322.02H1588.8V1313.63H1580.41V1309.48H1578.99V1319.29H1583.23V1336.07H1584.11Z" stroke="#89E4FF" stroke-width="2" mask="url(#path-1-outside-1_2058_57602)"/>
<path fill-rule="evenodd" clip-rule="evenodd" d="M1493.27 1426.26V1434.33H1489.72V1438.66H1482.04C1482.03 1439.09 1482.02 1439.63 1482.02 1440.19C1482.02 1441.79 1482.04 1443.59 1482.04 1443.59H1478.34V1448.39C1478.34 1448.39 1476.95 1448.37 1474.94 1448.35C1471.97 1448.32 1467.63 1448.29 1464.4 1448.32C1462.99 1448.33 1461.79 1448.35 1461.01 1448.39V1444.45H1452.9V1440.12H1448.57L1448.57 1432.44H1444.04V1412.59H1430.81V1408.85H1414.86V1405.69H1405.8V1398.25H1401.66V1394.51H1396.86V1377.38L1400.8 1377.18V1366.35H1395.88V1357.68H1391.74V1353.94H1386.82V1350.24L1382.68 1350.24V1346.5H1378.55V1342.76L1374.14 1342.76L1374.14 1332.41H1377.84V1328.16H1372.42V1314.56H1376.9V1296.64H1381.28V1292.14H1390.24V1287.63H1399.19V1283.13H1403.58V1278.82H1394.71V1269.72H1399.19V1265.21H1403.58V1260.71H1417.01V1256.3H1425.96V1260.71H1430.36V1256.3H1439.4V1260.71H1452.74V1278.72H1461.7V1283.13H1466.18V1287.63H1479.52V1301.24H1475.04V1305.55H1483.99V1310.05H1488.48V1319.15H1483.99V1336.99H1488.48V1345.99H1497.34V1350.5H1506.3V1368.42H1515.26V1386.43H1510.77V1395.43H1506.3V1399.75H1510.77V1417.85H1506.3V1422.26H1501.82V1426.26H1493.27ZM1489.87 1430.94H1486.33V1435.27H1478.74L1478.65 1438.57C1478.64 1439.03 1478.63 1439.61 1478.63 1440.19H1474.94V1444.96C1473.81 1444.95 1472.49 1444.93 1471.11 1444.93C1468.88 1444.91 1466.45 1444.91 1464.4 1444.92V1441.06H1456.29V1436.72H1451.96V1429.04H1447.43V1409.19H1434.2V1405.45H1418.25L1418.25 1402.3H1409.19V1394.86H1405.06V1391.11H1400.25V1380.6L1404.19 1380.41V1362.95H1399.27V1354.29H1395.14V1350.55H1390.21V1346.85L1386.08 1346.85V1343.1H1381.94V1339.36L1377.53 1339.36L1377.53 1335.81H1381.24V1324.77H1375.81V1317.96H1380.29V1300.04H1384.68V1295.54H1393.63V1291.03H1402.59V1286.52H1406.97V1275.43H1398.11V1273.11H1402.59V1268.6H1406.97V1264.1H1420.4V1259.69H1422.57V1264.1H1433.75V1259.69H1436.01V1264.1H1449.35V1282.11H1458.3V1286.52H1462.79V1291.03H1476.13V1297.85H1471.64V1308.95H1480.6V1313.45H1485.08V1315.76H1480.6V1340.38H1485.08V1349.38H1493.95V1353.89H1502.9V1371.81H1511.86V1383.04H1507.38V1392.04H1502.9V1403.15H1507.38V1414.46H1502.9V1418.87H1498.42V1422.87H1489.87V1430.94Z" stroke="#89E4FF" stroke-width="2" mask="url(#path-1-outside-1_2058_57602)"/>
</svg>
