<svg width="375" height="1358" viewBox="0 0 375 1358" fill="none" xmlns="http://www.w3.org/2000/svg">
<rect y="64" width="375" height="1294" fill="url(#paint0_linear_1_646)"/>
<path d="M70.2187 518.584C57.9691 500.886 50.0761 514.605 47.6609 523.677C46.0659 524.366 43.4123 555.175 52.162 565.743C60.8649 576.254 171.424 575.097 197.584 574.824L197.998 574.819C206.019 572.856 163.431 541.756 157.306 526.86C149.65 508.239 145.412 511.422 141.857 525.746C138.303 540.069 134.064 543.252 129.416 531.157C124.768 519.061 116.975 518.584 115.198 526.86C113.42 535.136 107.542 533.385 100.706 523.677C93.8703 513.968 90.0423 518.584 87.5815 524.791C85.1206 530.998 85.5307 540.706 70.2187 518.584Z" fill="#9755C8" fill-opacity="0.57"/>
<g filter="url(#filter0_f_1_646)">
<path d="M315.781 518.584C328.031 500.886 335.924 514.605 338.339 523.677C339.934 524.366 342.588 555.175 333.838 565.743C325.135 576.254 214.576 575.097 188.416 574.824L188.002 574.819C179.981 572.856 222.569 541.756 228.694 526.86C236.35 508.239 240.588 511.422 244.143 525.746C247.697 540.069 251.936 543.252 256.584 531.157C261.232 519.061 269.025 518.584 270.802 526.86C272.58 535.136 278.458 533.385 285.294 523.677C292.13 513.968 295.958 518.584 298.419 524.791C300.879 530.998 300.469 540.706 315.781 518.584Z" fill="#9755C8" fill-opacity="0.57"/>
</g>
<path d="M341.795 538.892C358.59 514.907 369.411 533.499 372.723 545.794C374.91 546.728 378.548 588.482 366.552 602.804C354.555 617.126 191.925 608.4 157.123 608.04C146.127 605.38 219.184 545.794 231.635 525.746C246.062 502.518 247.943 504.824 252.816 524.237C257.69 543.649 254.259 572.324 260.632 555.931C267.005 539.539 277.689 538.892 280.126 550.108C282.563 561.324 290.623 558.951 299.995 545.794C309.367 532.637 314.615 538.892 317.989 547.304C321.363 555.716 320.801 568.873 341.795 538.892Z" fill="#9755C8"/>
<path d="M-30.5338 494.258C-38.7183 465.948 -53.4034 518.511 -56.7196 530.901C-58.9096 531.843 -62.553 573.923 -50.5395 588.356C-38.5901 602.713 113.209 601.133 149.128 600.759L149.696 600.753C160.709 598.072 98.5651 558.442 90.1556 538.096C79.6438 512.663 70.5775 538.239 65.697 557.802C60.8165 577.366 61.9141 557.638 55.5319 541.118C49.1497 524.598 38.4502 523.945 36.0099 535.249C33.5697 546.552 27.7691 539.29 18.3835 526.03C8.99793 512.77 1.47097 523.945 -1.90784 532.423C-5.28664 540.901 -19.7078 531.706 -30.5338 494.258Z" fill="#9755C8"/>
<line y1="93.5" x2="375" y2="93.5" stroke="#A8A8A8" stroke-opacity="0.1"/>
<line y1="121.5" x2="375" y2="121.5" stroke="#A8A8A8" stroke-opacity="0.1"/>
<line y1="149.5" x2="375" y2="149.5" stroke="#A8A8A8" stroke-opacity="0.1"/>
<line y1="177.5" x2="375" y2="177.5" stroke="#A8A8A8" stroke-opacity="0.1"/>
<line y1="205.5" x2="375" y2="205.5" stroke="#A8A8A8" stroke-opacity="0.1"/>
<line y1="233.5" x2="375" y2="233.5" stroke="#A8A8A8" stroke-opacity="0.1"/>
<line y1="261.5" x2="375" y2="261.5" stroke="#A8A8A8" stroke-opacity="0.1"/>
<line y1="289.5" x2="375" y2="289.5" stroke="#A8A8A8" stroke-opacity="0.1"/>
<line y1="317.5" x2="375" y2="317.5" stroke="#A8A8A8" stroke-opacity="0.1"/>
<line y1="345.5" x2="375" y2="345.5" stroke="#A8A8A8" stroke-opacity="0.1"/>
<line y1="373.5" x2="375" y2="373.5" stroke="#A8A8A8" stroke-opacity="0.1"/>
<line y1="401.5" x2="375" y2="401.5" stroke="#A8A8A8" stroke-opacity="0.1"/>
<line y1="429.5" x2="375" y2="429.5" stroke="#A8A8A8" stroke-opacity="0.1"/>
<line y1="457.5" x2="375" y2="457.5" stroke="#A8A8A8" stroke-opacity="0.1"/>
<line y1="485.5" x2="375" y2="485.5" stroke="#A8A8A8" stroke-opacity="0.1"/>
<line y1="513.5" x2="375" y2="513.5" stroke="#A8A8A8" stroke-opacity="0.1"/>
<line y1="541.5" x2="375" y2="541.5" stroke="#A8A8A8" stroke-opacity="0.1"/>
<line opacity="0.2" x1="28.5" y1="65" x2="28.5" y2="585" stroke="#A8A8A8" stroke-opacity="0.2"/>
<line opacity="0.2" x1="56.5" y1="65" x2="56.5" y2="585" stroke="#A8A8A8" stroke-opacity="0.2"/>
<line opacity="0.2" x1="84.5" y1="65" x2="84.5" y2="585" stroke="#A8A8A8" stroke-opacity="0.2"/>
<line opacity="0.2" x1="112.5" y1="65" x2="112.5" y2="585" stroke="#A8A8A8" stroke-opacity="0.2"/>
<line opacity="0.2" x1="140.5" y1="65" x2="140.5" y2="585" stroke="#A8A8A8" stroke-opacity="0.2"/>
<line opacity="0.2" x1="168.5" y1="64" x2="168.5" y2="584" stroke="#A8A8A8" stroke-opacity="0.2"/>
<line opacity="0.2" x1="196.5" y1="65" x2="196.5" y2="585" stroke="#A8A8A8" stroke-opacity="0.2"/>
<line opacity="0.2" x1="224.5" y1="65" x2="224.5" y2="585" stroke="#A8A8A8" stroke-opacity="0.2"/>
<line opacity="0.2" x1="252.5" y1="65" x2="252.5" y2="585" stroke="#A8A8A8" stroke-opacity="0.2"/>
<line opacity="0.2" x1="280.5" y1="65" x2="280.5" y2="585" stroke="#A8A8A8" stroke-opacity="0.2"/>
<line opacity="0.2" x1="308.5" y1="65" x2="308.5" y2="585" stroke="#A8A8A8" stroke-opacity="0.2"/>
<line opacity="0.2" x1="336.5" y1="65" x2="336.5" y2="585" stroke="#A8A8A8" stroke-opacity="0.2"/>
<line opacity="0.2" x1="364.5" y1="65" x2="364.5" y2="585" stroke="#A8A8A8" stroke-opacity="0.2"/>
<g filter="url(#filter1_f_1_646)">
<ellipse rx="1.39748" ry="1.50033" transform="matrix(-0.153539 -0.988143 0.999986 0.005219 232.921 112.018)" fill="#88C2F1"/>
</g>
<g filter="url(#filter2_f_1_646)">
<ellipse rx="1.39747" ry="1.50033" transform="matrix(-0.153539 -0.988143 0.999986 0.005219 185.468 136.611)" fill="#88C2F1"/>
</g>
<g filter="url(#filter3_f_1_646)">
<ellipse rx="1.39747" ry="1.50032" transform="matrix(-0.153539 -0.988143 0.999986 0.005219 217.911 99.7267)" fill="#88C2F1"/>
</g>
<g filter="url(#filter4_f_1_646)">
<ellipse rx="0.931834" ry="1.00043" transform="matrix(-0.15354 -0.988142 0.999986 0.00521895 249.53 125.273)" fill="#68A5D0"/>
</g>
<g filter="url(#filter5_f_1_646)">
<ellipse rx="0.465919" ry="0.500209" transform="matrix(-0.153539 -0.988143 0.999986 0.00521901 206.337 102.426)" fill="#88C2F1"/>
</g>
<g filter="url(#filter6_f_1_646)">
<ellipse rx="1.82988" ry="1.54062" transform="matrix(0.835229 0.549903 0.577106 -0.816669 150.465 78.6498)" fill="#68A5D0"/>
</g>
<g filter="url(#filter7_f_1_646)">
<ellipse rx="0.465915" ry="0.500209" transform="matrix(-0.15354 -0.988142 0.999986 0.00521897 194.617 84.8867)" fill="#68A5D0"/>
</g>
<ellipse rx="0.784395" ry="0.660404" transform="matrix(0.835227 0.549906 0.577103 -0.816672 159.35 88.7138)" fill="#71AAD3"/>
<g filter="url(#filter8_f_1_646)">
<ellipse rx="0.784391" ry="0.660397" transform="matrix(0.835231 0.5499 0.577109 -0.816667 151.213 93.891)" fill="#68A5D0"/>
</g>
<g filter="url(#filter9_f_1_646)">
<ellipse rx="0.645748" ry="0.937423" transform="matrix(0.1819 0.983317 -0.999554 -0.0298736 273.419 94.9401)" fill="#88C2F1"/>
</g>
<g filter="url(#filter10_f_1_646)">
<ellipse rx="0.967862" ry="1.16019" transform="matrix(0.181899 0.983317 -0.999554 -0.0298736 264.953 87.7172)" fill="#88C2F1"/>
</g>
<g filter="url(#filter11_f_1_646)">
<ellipse rx="0.967858" ry="1.16018" transform="matrix(0.1819 0.983317 -0.999554 -0.0298736 241.477 56.5624)" fill="#88C2F1"/>
</g>
<g filter="url(#filter12_f_1_646)">
<ellipse rx="0.567225" ry="0.61638" transform="matrix(0.181901 0.983317 -0.999554 -0.0298734 277.045 129.51)" fill="#68A5D0"/>
</g>
<g filter="url(#filter13_f_1_646)">
<ellipse rx="0.567229" ry="0.616374" transform="matrix(0.181898 0.983317 -0.999554 -0.0298739 302.281 106.971)" fill="#68A5D0"/>
</g>
<g filter="url(#filter14_f_1_646)">
<ellipse rx="2.61434" ry="1.32065" transform="matrix(-0.835229 -0.549903 -0.577105 0.81667 133.946 55.3947)" fill="#68A5D0"/>
</g>
<g filter="url(#filter15_f_1_646)">
<ellipse rx="1.54171" ry="1.21037" transform="matrix(-0.835228 -0.549903 -0.577105 0.81667 143.512 12.8362)" fill="#88C2F1"/>
</g>
<g filter="url(#filter16_f_1_646)">
<ellipse rx="1.24374" ry="1.00999" transform="matrix(-0.835228 -0.549904 -0.577105 0.81667 175.008 21.1718)" fill="#88C2F1"/>
</g>
<g filter="url(#filter17_f_1_646)">
<ellipse rx="1.30703" ry="1.10042" transform="matrix(-0.835228 -0.549904 -0.577105 0.81667 152.709 120.516)" fill="#88C2F1"/>
</g>
<g filter="url(#filter18_f_1_646)">
<ellipse rx="1.30704" ry="1.10043" transform="matrix(-0.83523 -0.549902 -0.577107 0.816669 219.948 133.351)" fill="#88C2F1"/>
</g>
<g filter="url(#filter19_f_1_646)">
<ellipse rx="0.646672" ry="0.936313" transform="matrix(-0.93132 0.364202 0.553604 0.83278 211.442 118.366)" fill="#88C2F1"/>
</g>
<g filter="url(#filter20_f_1_646)">
<ellipse rx="1.39748" ry="1.50033" transform="matrix(-0.153539 -0.988143 0.999986 0.005219 90.9213 112.018)" fill="#88C2F1"/>
</g>
<g filter="url(#filter21_f_1_646)">
<ellipse rx="1.39747" ry="1.50033" transform="matrix(-0.153539 -0.988143 0.999986 0.005219 43.4683 136.611)" fill="#88C2F1"/>
</g>
<g filter="url(#filter22_f_1_646)">
<ellipse rx="1.39747" ry="1.50032" transform="matrix(-0.153539 -0.988143 0.999986 0.005219 75.9108 99.7267)" fill="#88C2F1"/>
</g>
<g filter="url(#filter23_f_1_646)">
<ellipse rx="0.931834" ry="1.00043" transform="matrix(-0.15354 -0.988142 0.999986 0.00521895 107.53 125.273)" fill="#68A5D0"/>
</g>
<g filter="url(#filter24_f_1_646)">
<ellipse rx="0.465919" ry="0.500209" transform="matrix(-0.153539 -0.988143 0.999986 0.00521901 64.337 102.426)" fill="#88C2F1"/>
</g>
<g filter="url(#filter25_f_1_646)">
<ellipse rx="1.82988" ry="1.54062" transform="matrix(0.835229 0.549903 0.577106 -0.816669 8.46513 78.6498)" fill="#68A5D0"/>
</g>
<g filter="url(#filter26_f_1_646)">
<ellipse rx="0.465915" ry="0.500209" transform="matrix(-0.15354 -0.988142 0.999986 0.00521897 52.617 84.8867)" fill="#68A5D0"/>
</g>
<ellipse rx="0.784395" ry="0.660404" transform="matrix(0.835227 0.549906 0.577103 -0.816672 17.3501 88.7138)" fill="#71AAD3"/>
<g filter="url(#filter27_f_1_646)">
<ellipse rx="0.784391" ry="0.660397" transform="matrix(0.835231 0.5499 0.577109 -0.816667 9.21303 93.891)" fill="#68A5D0"/>
</g>
<g filter="url(#filter28_f_1_646)">
<ellipse rx="0.645748" ry="0.937423" transform="matrix(0.1819 0.983317 -0.999554 -0.0298736 131.419 94.9401)" fill="#88C2F1"/>
</g>
<g filter="url(#filter29_f_1_646)">
<ellipse rx="0.967862" ry="1.16019" transform="matrix(0.181899 0.983317 -0.999554 -0.0298736 122.953 87.7172)" fill="#88C2F1"/>
</g>
<g filter="url(#filter30_f_1_646)">
<ellipse rx="0.967858" ry="1.16018" transform="matrix(0.1819 0.983317 -0.999554 -0.0298736 99.4768 56.5624)" fill="#88C2F1"/>
</g>
<g filter="url(#filter31_f_1_646)">
<ellipse rx="0.567225" ry="0.61638" transform="matrix(0.181901 0.983317 -0.999554 -0.0298734 135.045 129.51)" fill="#68A5D0"/>
</g>
<g filter="url(#filter32_f_1_646)">
<ellipse rx="0.567229" ry="0.616374" transform="matrix(0.181898 0.983317 -0.999554 -0.0298739 160.281 106.971)" fill="#68A5D0"/>
</g>
<g filter="url(#filter33_f_1_646)">
<ellipse rx="1.54171" ry="1.21037" transform="matrix(-0.835228 -0.549903 -0.577105 0.81667 1.51151 12.8362)" fill="#88C2F1"/>
</g>
<g filter="url(#filter34_f_1_646)">
<ellipse rx="1.24374" ry="1.00999" transform="matrix(-0.835228 -0.549904 -0.577105 0.81667 33.0082 21.1718)" fill="#88C2F1"/>
</g>
<g filter="url(#filter35_f_1_646)">
<ellipse rx="1.30703" ry="1.10042" transform="matrix(-0.835228 -0.549904 -0.577105 0.81667 10.7085 120.516)" fill="#88C2F1"/>
</g>
<g filter="url(#filter36_f_1_646)">
<ellipse rx="1.30704" ry="1.10043" transform="matrix(-0.83523 -0.549902 -0.577107 0.816669 77.9482 133.351)" fill="#88C2F1"/>
</g>
<g filter="url(#filter37_f_1_646)">
<ellipse rx="0.646672" ry="0.936313" transform="matrix(-0.93132 0.364202 0.553604 0.83278 69.4418 118.366)" fill="#88C2F1"/>
</g>
<g filter="url(#filter38_f_1_646)">
<ellipse rx="2.41991" ry="2.59367" transform="matrix(0.614146 0.789193 -0.876532 0.481343 342.444 69.7393)" fill="#88C2F1"/>
</g>
<g filter="url(#filter39_f_1_646)">
<ellipse rx="2.41991" ry="2.59367" transform="matrix(0.614146 0.789193 -0.876532 0.481343 375.467 75.7333)" fill="#88C2F1"/>
</g>
<g filter="url(#filter40_f_1_646)">
<ellipse rx="1.6136" ry="1.72946" transform="matrix(0.614146 0.789193 -0.876532 0.481343 306.196 63.6298)" fill="#68A5D0"/>
</g>
<g filter="url(#filter41_f_1_646)">
<ellipse rx="1.11818" ry="1.62056" transform="matrix(-0.636557 -0.77123 0.888154 -0.459547 295.625 129.607)" fill="#88C2F1"/>
</g>
<g filter="url(#filter42_f_1_646)">
<ellipse rx="1.67594" ry="2.00566" transform="matrix(-0.636557 -0.77123 0.888154 -0.459547 314.494 133.427)" fill="#88C2F1"/>
</g>
<g filter="url(#filter43_f_1_646)">
<ellipse rx="1.67594" ry="2.00566" transform="matrix(-0.636557 -0.77123 0.888154 -0.459547 376.181 160.859)" fill="#88C2F1"/>
</g>
<g filter="url(#filter44_f_1_646)">
<ellipse rx="0.982219" ry="1.06557" transform="matrix(-0.636557 -0.77123 0.888154 -0.459547 261.058 80.3301)" fill="#68A5D0"/>
</g>
<g filter="url(#filter45_f_1_646)">
<ellipse rx="0.982219" ry="1.06557" transform="matrix(-0.636557 -0.77123 0.888154 -0.459547 241.894 135.641)" fill="#68A5D0"/>
</g>
<g filter="url(#filter46_f_1_646)">
<ellipse rx="2.26069" ry="1.90452" transform="matrix(0.997142 0.0755493 0.106755 -0.994285 344.093 26.5541)" fill="#88C2F1"/>
</g>
<g filter="url(#filter47_f_1_646)">
<ellipse rx="1.11818" ry="1.62056" transform="matrix(0.636557 -0.77123 -0.888154 -0.459547 369.556 42.0886)" fill="#88C2F1"/>
</g>
<defs>
<filter id="filter0_f_1_646" x="178" y="501" width="171" height="83" filterUnits="userSpaceOnUse" color-interpolation-filters="sRGB">
<feFlood flood-opacity="0" result="BackgroundImageFix"/>
<feBlend mode="normal" in="SourceGraphic" in2="BackgroundImageFix" result="shape"/>
<feGaussianBlur stdDeviation="4.5" result="effect1_foregroundBlur_1_646"/>
</filter>
<filter id="filter1_f_1_646" x="229.124" y="108.355" width="7.595" height="7.3253" filterUnits="userSpaceOnUse" color-interpolation-filters="sRGB">
<feFlood flood-opacity="0" result="BackgroundImageFix"/>
<feBlend mode="normal" in="SourceGraphic" in2="BackgroundImageFix" result="shape"/>
<feGaussianBlur stdDeviation="1.14086" result="effect1_foregroundBlur_1_646"/>
</filter>
<filter id="filter2_f_1_646" x="181.671" y="132.949" width="7.59499" height="7.3253" filterUnits="userSpaceOnUse" color-interpolation-filters="sRGB">
<feFlood flood-opacity="0" result="BackgroundImageFix"/>
<feBlend mode="normal" in="SourceGraphic" in2="BackgroundImageFix" result="shape"/>
<feGaussianBlur stdDeviation="1.14086" result="effect1_foregroundBlur_1_646"/>
</filter>
<filter id="filter3_f_1_646" x="214.113" y="96.064" width="7.59498" height="7.3253" filterUnits="userSpaceOnUse" color-interpolation-filters="sRGB">
<feFlood flood-opacity="0" result="BackgroundImageFix"/>
<feBlend mode="normal" in="SourceGraphic" in2="BackgroundImageFix" result="shape"/>
<feGaussianBlur stdDeviation="1.14086" result="effect1_foregroundBlur_1_646"/>
</filter>
<filter id="filter4_f_1_646" x="246.998" y="122.831" width="5.06375" height="4.88386" filterUnits="userSpaceOnUse" color-interpolation-filters="sRGB">
<feFlood flood-opacity="0" result="BackgroundImageFix"/>
<feBlend mode="normal" in="SourceGraphic" in2="BackgroundImageFix" result="shape"/>
<feGaussianBlur stdDeviation="0.760577" result="effect1_foregroundBlur_1_646"/>
</filter>
<filter id="filter5_f_1_646" x="203.55" y="99.6836" width="5.57417" height="5.48424" filterUnits="userSpaceOnUse" color-interpolation-filters="sRGB">
<feFlood flood-opacity="0" result="BackgroundImageFix"/>
<feBlend mode="normal" in="SourceGraphic" in2="BackgroundImageFix" result="shape"/>
<feGaussianBlur stdDeviation="1.14086" result="effect1_foregroundBlur_1_646"/>
</filter>
<filter id="filter6_f_1_646" x="147.176" y="75.5175" width="6.57923" height="6.2646" filterUnits="userSpaceOnUse" color-interpolation-filters="sRGB">
<feFlood flood-opacity="0" result="BackgroundImageFix"/>
<feBlend mode="normal" in="SourceGraphic" in2="BackgroundImageFix" result="shape"/>
<feGaussianBlur stdDeviation="0.760577" result="effect1_foregroundBlur_1_646"/>
</filter>
<filter id="filter7_f_1_646" x="192.591" y="82.9051" width="4.05302" height="3.96308" filterUnits="userSpaceOnUse" color-interpolation-filters="sRGB">
<feFlood flood-opacity="0" result="BackgroundImageFix"/>
<feBlend mode="normal" in="SourceGraphic" in2="BackgroundImageFix" result="shape"/>
<feGaussianBlur stdDeviation="0.760577" result="effect1_foregroundBlur_1_646"/>
</filter>
<filter id="filter8_f_1_646" x="148.934" y="91.6793" width="4.55843" height="4.42353" filterUnits="userSpaceOnUse" color-interpolation-filters="sRGB">
<feFlood flood-opacity="0" result="BackgroundImageFix"/>
<feBlend mode="normal" in="SourceGraphic" in2="BackgroundImageFix" result="shape"/>
<feGaussianBlur stdDeviation="0.760577" result="effect1_foregroundBlur_1_646"/>
</filter>
<filter id="filter9_f_1_646" x="270.193" y="92.0227" width="6.45234" height="5.8347" filterUnits="userSpaceOnUse" color-interpolation-filters="sRGB">
<feFlood flood-opacity="0" result="BackgroundImageFix"/>
<feBlend mode="normal" in="SourceGraphic" in2="BackgroundImageFix" result="shape"/>
<feGaussianBlur stdDeviation="1.14086" result="effect1_foregroundBlur_1_646"/>
</filter>
<filter id="filter10_f_1_646" x="261.498" y="84.4832" width="6.9097" height="6.46812" filterUnits="userSpaceOnUse" color-interpolation-filters="sRGB">
<feFlood flood-opacity="0" result="BackgroundImageFix"/>
<feBlend mode="normal" in="SourceGraphic" in2="BackgroundImageFix" result="shape"/>
<feGaussianBlur stdDeviation="1.14086" result="effect1_foregroundBlur_1_646"/>
</filter>
<filter id="filter11_f_1_646" x="238.022" y="53.3284" width="6.90969" height="6.46812" filterUnits="userSpaceOnUse" color-interpolation-filters="sRGB">
<feFlood flood-opacity="0" result="BackgroundImageFix"/>
<feBlend mode="normal" in="SourceGraphic" in2="BackgroundImageFix" result="shape"/>
<feGaussianBlur stdDeviation="1.14086" result="effect1_foregroundBlur_1_646"/>
</filter>
<filter id="filter12_f_1_646" x="274.899" y="127.431" width="4.29187" height="4.1584" filterUnits="userSpaceOnUse" color-interpolation-filters="sRGB">
<feFlood flood-opacity="0" result="BackgroundImageFix"/>
<feBlend mode="normal" in="SourceGraphic" in2="BackgroundImageFix" result="shape"/>
<feGaussianBlur stdDeviation="0.760577" result="effect1_foregroundBlur_1_646"/>
</filter>
<filter id="filter13_f_1_646" x="300.135" y="104.892" width="4.29186" height="4.1584" filterUnits="userSpaceOnUse" color-interpolation-filters="sRGB">
<feFlood flood-opacity="0" result="BackgroundImageFix"/>
<feBlend mode="normal" in="SourceGraphic" in2="BackgroundImageFix" result="shape"/>
<feGaussianBlur stdDeviation="0.760577" result="effect1_foregroundBlur_1_646"/>
</filter>
<filter id="filter14_f_1_646" x="130.111" y="52.0761" width="7.66909" height="6.63703" filterUnits="userSpaceOnUse" color-interpolation-filters="sRGB">
<feFlood flood-opacity="0" result="BackgroundImageFix"/>
<feBlend mode="normal" in="SourceGraphic" in2="BackgroundImageFix" result="shape"/>
<feGaussianBlur stdDeviation="0.760577" result="effect1_foregroundBlur_1_646"/>
</filter>
<filter id="filter15_f_1_646" x="139.765" y="9.25221" width="7.49389" height="7.16807" filterUnits="userSpaceOnUse" color-interpolation-filters="sRGB">
<feFlood flood-opacity="0" result="BackgroundImageFix"/>
<feBlend mode="normal" in="SourceGraphic" in2="BackgroundImageFix" result="shape"/>
<feGaussianBlur stdDeviation="1.14086" result="effect1_foregroundBlur_1_646"/>
</filter>
<filter id="filter16_f_1_646" x="171.535" y="17.8185" width="6.9462" height="6.70653" filterUnits="userSpaceOnUse" color-interpolation-filters="sRGB">
<feFlood flood-opacity="0" result="BackgroundImageFix"/>
<feBlend mode="normal" in="SourceGraphic" in2="BackgroundImageFix" result="shape"/>
<feGaussianBlur stdDeviation="1.14086" result="effect1_foregroundBlur_1_646"/>
</filter>
<filter id="filter17_f_1_646" x="146.882" y="114.802" width="11.6532" height="11.4284" filterUnits="userSpaceOnUse" color-interpolation-filters="sRGB">
<feFlood flood-opacity="0" result="BackgroundImageFix"/>
<feBlend mode="normal" in="SourceGraphic" in2="BackgroundImageFix" result="shape"/>
<feGaussianBlur stdDeviation="2.28173" result="effect1_foregroundBlur_1_646"/>
</filter>
<filter id="filter18_f_1_646" x="214.122" y="127.637" width="11.6532" height="11.4284" filterUnits="userSpaceOnUse" color-interpolation-filters="sRGB">
<feFlood flood-opacity="0" result="BackgroundImageFix"/>
<feBlend mode="normal" in="SourceGraphic" in2="BackgroundImageFix" result="shape"/>
<feGaussianBlur stdDeviation="2.28173" result="effect1_foregroundBlur_1_646"/>
</filter>
<filter id="filter19_f_1_646" x="208.365" y="115.27" width="6.1527" height="6.19285" filterUnits="userSpaceOnUse" color-interpolation-filters="sRGB">
<feFlood flood-opacity="0" result="BackgroundImageFix"/>
<feBlend mode="normal" in="SourceGraphic" in2="BackgroundImageFix" result="shape"/>
<feGaussianBlur stdDeviation="1.14086" result="effect1_foregroundBlur_1_646"/>
</filter>
<filter id="filter20_f_1_646" x="87.1238" y="108.355" width="7.595" height="7.3253" filterUnits="userSpaceOnUse" color-interpolation-filters="sRGB">
<feFlood flood-opacity="0" result="BackgroundImageFix"/>
<feBlend mode="normal" in="SourceGraphic" in2="BackgroundImageFix" result="shape"/>
<feGaussianBlur stdDeviation="1.14086" result="effect1_foregroundBlur_1_646"/>
</filter>
<filter id="filter21_f_1_646" x="39.6708" y="132.949" width="7.59498" height="7.3253" filterUnits="userSpaceOnUse" color-interpolation-filters="sRGB">
<feFlood flood-opacity="0" result="BackgroundImageFix"/>
<feBlend mode="normal" in="SourceGraphic" in2="BackgroundImageFix" result="shape"/>
<feGaussianBlur stdDeviation="1.14086" result="effect1_foregroundBlur_1_646"/>
</filter>
<filter id="filter22_f_1_646" x="72.1133" y="96.064" width="7.59498" height="7.3253" filterUnits="userSpaceOnUse" color-interpolation-filters="sRGB">
<feFlood flood-opacity="0" result="BackgroundImageFix"/>
<feBlend mode="normal" in="SourceGraphic" in2="BackgroundImageFix" result="shape"/>
<feGaussianBlur stdDeviation="1.14086" result="effect1_foregroundBlur_1_646"/>
</filter>
<filter id="filter23_f_1_646" x="104.998" y="122.831" width="5.06375" height="4.88386" filterUnits="userSpaceOnUse" color-interpolation-filters="sRGB">
<feFlood flood-opacity="0" result="BackgroundImageFix"/>
<feBlend mode="normal" in="SourceGraphic" in2="BackgroundImageFix" result="shape"/>
<feGaussianBlur stdDeviation="0.760577" result="effect1_foregroundBlur_1_646"/>
</filter>
<filter id="filter24_f_1_646" x="61.5499" y="99.6836" width="5.57417" height="5.48424" filterUnits="userSpaceOnUse" color-interpolation-filters="sRGB">
<feFlood flood-opacity="0" result="BackgroundImageFix"/>
<feBlend mode="normal" in="SourceGraphic" in2="BackgroundImageFix" result="shape"/>
<feGaussianBlur stdDeviation="1.14086" result="effect1_foregroundBlur_1_646"/>
</filter>
<filter id="filter25_f_1_646" x="5.17552" y="75.5175" width="6.57922" height="6.2646" filterUnits="userSpaceOnUse" color-interpolation-filters="sRGB">
<feFlood flood-opacity="0" result="BackgroundImageFix"/>
<feBlend mode="normal" in="SourceGraphic" in2="BackgroundImageFix" result="shape"/>
<feGaussianBlur stdDeviation="0.760577" result="effect1_foregroundBlur_1_646"/>
</filter>
<filter id="filter26_f_1_646" x="50.5905" y="82.9051" width="4.05302" height="3.96308" filterUnits="userSpaceOnUse" color-interpolation-filters="sRGB">
<feFlood flood-opacity="0" result="BackgroundImageFix"/>
<feBlend mode="normal" in="SourceGraphic" in2="BackgroundImageFix" result="shape"/>
<feGaussianBlur stdDeviation="0.760577" result="effect1_foregroundBlur_1_646"/>
</filter>
<filter id="filter27_f_1_646" x="6.9338" y="91.6793" width="4.55844" height="4.42353" filterUnits="userSpaceOnUse" color-interpolation-filters="sRGB">
<feFlood flood-opacity="0" result="BackgroundImageFix"/>
<feBlend mode="normal" in="SourceGraphic" in2="BackgroundImageFix" result="shape"/>
<feGaussianBlur stdDeviation="0.760577" result="effect1_foregroundBlur_1_646"/>
</filter>
<filter id="filter28_f_1_646" x="128.193" y="92.0227" width="6.45234" height="5.8347" filterUnits="userSpaceOnUse" color-interpolation-filters="sRGB">
<feFlood flood-opacity="0" result="BackgroundImageFix"/>
<feBlend mode="normal" in="SourceGraphic" in2="BackgroundImageFix" result="shape"/>
<feGaussianBlur stdDeviation="1.14086" result="effect1_foregroundBlur_1_646"/>
</filter>
<filter id="filter29_f_1_646" x="119.498" y="84.4832" width="6.9097" height="6.46812" filterUnits="userSpaceOnUse" color-interpolation-filters="sRGB">
<feFlood flood-opacity="0" result="BackgroundImageFix"/>
<feBlend mode="normal" in="SourceGraphic" in2="BackgroundImageFix" result="shape"/>
<feGaussianBlur stdDeviation="1.14086" result="effect1_foregroundBlur_1_646"/>
</filter>
<filter id="filter30_f_1_646" x="96.022" y="53.3284" width="6.90969" height="6.46812" filterUnits="userSpaceOnUse" color-interpolation-filters="sRGB">
<feFlood flood-opacity="0" result="BackgroundImageFix"/>
<feBlend mode="normal" in="SourceGraphic" in2="BackgroundImageFix" result="shape"/>
<feGaussianBlur stdDeviation="1.14086" result="effect1_foregroundBlur_1_646"/>
</filter>
<filter id="filter31_f_1_646" x="132.899" y="127.431" width="4.29188" height="4.1584" filterUnits="userSpaceOnUse" color-interpolation-filters="sRGB">
<feFlood flood-opacity="0" result="BackgroundImageFix"/>
<feBlend mode="normal" in="SourceGraphic" in2="BackgroundImageFix" result="shape"/>
<feGaussianBlur stdDeviation="0.760577" result="effect1_foregroundBlur_1_646"/>
</filter>
<filter id="filter32_f_1_646" x="158.135" y="104.892" width="4.29186" height="4.1584" filterUnits="userSpaceOnUse" color-interpolation-filters="sRGB">
<feFlood flood-opacity="0" result="BackgroundImageFix"/>
<feBlend mode="normal" in="SourceGraphic" in2="BackgroundImageFix" result="shape"/>
<feGaussianBlur stdDeviation="0.760577" result="effect1_foregroundBlur_1_646"/>
</filter>
<filter id="filter33_f_1_646" x="-2.23543" y="9.25221" width="7.49388" height="7.16807" filterUnits="userSpaceOnUse" color-interpolation-filters="sRGB">
<feFlood flood-opacity="0" result="BackgroundImageFix"/>
<feBlend mode="normal" in="SourceGraphic" in2="BackgroundImageFix" result="shape"/>
<feGaussianBlur stdDeviation="1.14086" result="effect1_foregroundBlur_1_646"/>
</filter>
<filter id="filter34_f_1_646" x="29.5351" y="17.8185" width="6.9462" height="6.70653" filterUnits="userSpaceOnUse" color-interpolation-filters="sRGB">
<feFlood flood-opacity="0" result="BackgroundImageFix"/>
<feBlend mode="normal" in="SourceGraphic" in2="BackgroundImageFix" result="shape"/>
<feGaussianBlur stdDeviation="1.14086" result="effect1_foregroundBlur_1_646"/>
</filter>
<filter id="filter35_f_1_646" x="4.8819" y="114.802" width="11.6532" height="11.4284" filterUnits="userSpaceOnUse" color-interpolation-filters="sRGB">
<feFlood flood-opacity="0" result="BackgroundImageFix"/>
<feBlend mode="normal" in="SourceGraphic" in2="BackgroundImageFix" result="shape"/>
<feGaussianBlur stdDeviation="2.28173" result="effect1_foregroundBlur_1_646"/>
</filter>
<filter id="filter36_f_1_646" x="72.1216" y="127.637" width="11.6532" height="11.4284" filterUnits="userSpaceOnUse" color-interpolation-filters="sRGB">
<feFlood flood-opacity="0" result="BackgroundImageFix"/>
<feBlend mode="normal" in="SourceGraphic" in2="BackgroundImageFix" result="shape"/>
<feGaussianBlur stdDeviation="2.28173" result="effect1_foregroundBlur_1_646"/>
</filter>
<filter id="filter37_f_1_646" x="66.3654" y="115.27" width="6.1527" height="6.19285" filterUnits="userSpaceOnUse" color-interpolation-filters="sRGB">
<feFlood flood-opacity="0" result="BackgroundImageFix"/>
<feBlend mode="normal" in="SourceGraphic" in2="BackgroundImageFix" result="shape"/>
<feGaussianBlur stdDeviation="1.14086" result="effect1_foregroundBlur_1_646"/>
</filter>
<filter id="filter38_f_1_646" x="337.446" y="65.1757" width="9.99629" height="9.12718" filterUnits="userSpaceOnUse" color-interpolation-filters="sRGB">
<feFlood flood-opacity="0" result="BackgroundImageFix"/>
<feBlend mode="normal" in="SourceGraphic" in2="BackgroundImageFix" result="shape"/>
<feGaussianBlur stdDeviation="1.14086" result="effect1_foregroundBlur_1_646"/>
</filter>
<filter id="filter39_f_1_646" x="370.469" y="71.1697" width="9.99629" height="9.12718" filterUnits="userSpaceOnUse" color-interpolation-filters="sRGB">
<feFlood flood-opacity="0" result="BackgroundImageFix"/>
<feBlend mode="normal" in="SourceGraphic" in2="BackgroundImageFix" result="shape"/>
<feGaussianBlur stdDeviation="1.14086" result="effect1_foregroundBlur_1_646"/>
</filter>
<filter id="filter40_f_1_646" x="302.863" y="60.5871" width="6.66493" height="6.0854" filterUnits="userSpaceOnUse" color-interpolation-filters="sRGB">
<feFlood flood-opacity="0" result="BackgroundImageFix"/>
<feBlend mode="normal" in="SourceGraphic" in2="BackgroundImageFix" result="shape"/>
<feGaussianBlur stdDeviation="0.760577" result="effect1_foregroundBlur_1_646"/>
</filter>
<filter id="filter41_f_1_646" x="291.737" y="126.185" width="7.77556" height="6.84239" filterUnits="userSpaceOnUse" color-interpolation-filters="sRGB">
<feFlood flood-opacity="0" result="BackgroundImageFix"/>
<feBlend mode="normal" in="SourceGraphic" in2="BackgroundImageFix" result="shape"/>
<feGaussianBlur stdDeviation="1.14086" result="effect1_foregroundBlur_1_646"/>
</filter>
<filter id="filter42_f_1_646" x="310.136" y="129.558" width="8.71681" height="7.73875" filterUnits="userSpaceOnUse" color-interpolation-filters="sRGB">
<feFlood flood-opacity="0" result="BackgroundImageFix"/>
<feBlend mode="normal" in="SourceGraphic" in2="BackgroundImageFix" result="shape"/>
<feGaussianBlur stdDeviation="1.14086" result="effect1_foregroundBlur_1_646"/>
</filter>
<filter id="filter43_f_1_646" x="371.823" y="156.99" width="8.71681" height="7.73875" filterUnits="userSpaceOnUse" color-interpolation-filters="sRGB">
<feFlood flood-opacity="0" result="BackgroundImageFix"/>
<feBlend mode="normal" in="SourceGraphic" in2="BackgroundImageFix" result="shape"/>
<feGaussianBlur stdDeviation="1.14086" result="effect1_foregroundBlur_1_646"/>
</filter>
<filter id="filter44_f_1_646" x="258.402" y="77.9068" width="5.3111" height="4.84651" filterUnits="userSpaceOnUse" color-interpolation-filters="sRGB">
<feFlood flood-opacity="0" result="BackgroundImageFix"/>
<feBlend mode="normal" in="SourceGraphic" in2="BackgroundImageFix" result="shape"/>
<feGaussianBlur stdDeviation="0.760577" result="effect1_foregroundBlur_1_646"/>
</filter>
<filter id="filter45_f_1_646" x="239.239" y="133.218" width="5.3111" height="4.84651" filterUnits="userSpaceOnUse" color-interpolation-filters="sRGB">
<feFlood flood-opacity="0" result="BackgroundImageFix"/>
<feBlend mode="normal" in="SourceGraphic" in2="BackgroundImageFix" result="shape"/>
<feGaussianBlur stdDeviation="0.760577" result="effect1_foregroundBlur_1_646"/>
</filter>
<filter id="filter46_f_1_646" x="337.266" y="20.0893" width="13.654" height="12.9298" filterUnits="userSpaceOnUse" color-interpolation-filters="sRGB">
<feFlood flood-opacity="0" result="BackgroundImageFix"/>
<feBlend mode="normal" in="SourceGraphic" in2="BackgroundImageFix" result="shape"/>
<feGaussianBlur stdDeviation="2.28173" result="effect1_foregroundBlur_1_646"/>
</filter>
<filter id="filter47_f_1_646" x="365.668" y="38.6674" width="7.77556" height="6.84239" filterUnits="userSpaceOnUse" color-interpolation-filters="sRGB">
<feFlood flood-opacity="0" result="BackgroundImageFix"/>
<feBlend mode="normal" in="SourceGraphic" in2="BackgroundImageFix" result="shape"/>
<feGaussianBlur stdDeviation="1.14086" result="effect1_foregroundBlur_1_646"/>
</filter>
<linearGradient id="paint0_linear_1_646" x1="187.5" y1="64" x2="187.5" y2="1358" gradientUnits="userSpaceOnUse">
<stop offset="0.0885417" stop-color="#301C58"/>
<stop offset="0.411458" stop-color="#925CCD"/>
<stop offset="1" stop-color="#B870DA"/>
</linearGradient>
</defs>
</svg>
