<svg width="16" height="16" viewBox="0 0 16 16" fill="none" xmlns="http://www.w3.org/2000/svg">
<g clip-path="url(#clip0_1_938)">
<path d="M13.4694 -0.000183105H1.22467C0.550902 -0.000183105 0 0.513454 0 1.14291V14.857C0 15.4855 0.550902 16.0001 1.22467 16.0001H13.4694C14.1432 16.0001 14.6941 15.4865 14.6941 14.857V1.14291C14.6941 0.514462 14.1432 -0.000183105 13.4694 -0.000183105Z" fill="#06C4FF"/>
<path fill-rule="evenodd" clip-rule="evenodd" d="M3.21805 3.46582H11.4761C11.8002 3.46582 12.0661 3.72264 12.0661 4.03686C12.0661 4.35109 11.8002 4.60791 11.4761 4.60791H3.21805C2.89297 4.60791 2.62805 4.35109 2.62805 4.03686C2.62805 3.72264 2.89297 3.46582 3.21805 3.46582Z" fill="white"/>
<path fill-rule="evenodd" clip-rule="evenodd" d="M3.21805 6.10791H11.4761C11.8002 6.10791 12.0661 6.36473 12.0661 6.67895C12.0661 6.99318 11.8002 7.25 11.4761 7.25H3.21805C2.89297 7.25 2.62805 6.99318 2.62805 6.67895C2.62805 6.36473 2.89297 6.10791 3.21805 6.10791Z" fill="white"/>
<path fill-rule="evenodd" clip-rule="evenodd" d="M3.21805 8.75H11.4761C11.8002 8.75 12.0661 9.00682 12.0661 9.32104C12.0661 9.63527 11.8002 9.89209 11.4761 9.89209H3.21805C2.89297 9.89209 2.62805 9.63527 2.62805 9.32104C2.62805 9.00682 2.89297 8.75 3.21805 8.75Z" fill="white"/>
<path fill-rule="evenodd" clip-rule="evenodd" d="M3.21805 11.3921H9.47607C9.80018 11.3921 10.0661 11.6489 10.0661 11.9631C10.0661 12.2774 9.80018 12.5342 9.47607 12.5342H3.21805C2.89297 12.5342 2.62805 12.2774 2.62805 11.9631C2.62805 11.6489 2.89297 11.3921 3.21805 11.3921Z" fill="white"/>
</g>
<defs>
<clipPath id="clip0_1_938">
<rect width="16" height="16" fill="white"/>
</clipPath>
</defs>
</svg>
