<svg width="248" height="43" viewBox="0 0 248 43" fill="none" xmlns="http://www.w3.org/2000/svg">
<g filter="url(#filter0_d_1_1577)">
<path fill-rule="evenodd" clip-rule="evenodd" d="M40.6008 2.90472L46.5378 0.0577393L52.4748 2.90472L46.5378 5.7484V11.4553L46.538 11.4552V5.75602L46.5379 5.75598L46.538 5.75594V5.75589L46.5381 5.75591L52.4749 2.909L58.4112 5.75566L58.4117 5.7554V5.75592L58.4118 5.75598L58.4117 5.75604V11.4553V11.4559L58.4118 11.4558V17.1554L52.4751 20.005V25.7055L46.5381 28.5553H46.538L40.601 25.7055V20.0074L40.6009 20.0073V14.3068V14.3063L40.6014 14.3066L46.5378 11.4599L52.4742 14.3066L52.4746 14.3064L46.538 11.4568V11.4554L46.5378 11.4554V11.4558L40.6008 8.6046V2.90503L40.8038 3.00214L40.6008 2.90472ZM52.4748 14.3065L52.4747 14.3065V14.3068L52.4748 14.3068V14.3065ZM52.4747 14.3069V20.0046L52.4748 20.0046V14.3069L52.4747 14.3069Z" fill="#06C4FF"/>
</g>
<path d="M40.6009 20.0577L46.6009 22.7162V28.0577L40.6009 25.3915V20.0577Z" fill="#FF5CD1"/>
<path d="M52.6009 20.0577L46.6009 22.7162V28.0577L52.6009 25.3915V20.0577Z" fill="#27FFF9"/>
<path d="M46.6009 17.0577L40.6009 20.0577L46.5939 23.0577L52.6009 20.0577L46.6009 17.0577Z" fill="#FCEE21"/>
<path d="M40.6009 14.0577L46.6009 17.0471V23.0577L40.6009 20.0582V14.0577Z" fill="#FF5CD1"/>
<path d="M52.6009 14.0577L46.6009 17.0471V23.0577L52.6009 20.0582V14.0577Z" fill="#27FFF9"/>
<path d="M46.6009 11.0577L40.6009 14.0577L46.5939 17.0577L52.6009 14.0577L46.6009 11.0577Z" fill="#5C10BF"/>
<path d="M58.6009 11.0577L52.6009 14.0476V20.0577L58.6009 17.0577V11.0577Z" fill="#27FFF9"/>
<path d="M52.6009 9.05774L46.6009 11.5583L52.5939 14.0577L58.6009 11.5583L52.6009 9.05774Z" fill="#27FFF9"/>
<path d="M46.6009 6.05774L52.6009 8.71621V14.0577L46.6009 11.3915V6.05774Z" fill="#932CFF"/>
<path d="M58.6009 6.05774L52.6009 8.71621V14.0577L58.6009 11.3915V6.05774Z" fill="#27FFF9"/>
<path d="M52.6009 3.05774L46.6009 6.05774L52.5939 9.05774L58.6009 6.05774L52.6009 3.05774Z" fill="#06C4FF"/>
<path d="M40.6009 3.05774L46.6009 5.71492V11.0577L40.6009 8.39021V3.05774Z" fill="#932CFF"/>
<path d="M46.6009 0.0577393L40.6009 3.05774L46.5939 6.05774L52.6009 3.05774L46.6009 0.0577393Z" fill="#06C4FF"/>
<g filter="url(#filter1_d_1_1577)">
<path fill-rule="evenodd" clip-rule="evenodd" d="M67.6008 8.05774H75.8178H80.6008V13.9802L78.4914 16.0937H72.3838V21.0577H67.6008V8.05774ZM75.0574 13.2184L75.8178 12.4566V11.3016H72.3838V13.2184H75.0574ZM88.4319 8.05774V17.8139H94.6008V21.0577H83.6008V17.8139V8.05774H88.4319ZM127.601 8.05774H135.818H140.601V13.9936L138.491 16.103H132.384V17.82H140.601V21.0577H127.601V8.05774ZM135.057 13.2087L135.818 12.4483V11.2955H132.384V13.2087H135.057ZM121.117 8.05774V13.2184H116.059V8.05774H111.601V13.2184V16.0937H116.059V21.0577H121.117V16.0937H125.392H125.601V8.05774H121.117ZM109.601 10.1712L107.546 8.05774H96.6008V21.0577H101.261V16.0937H104.941V21.0577H109.601V10.1712ZM101.261 13.2184V11.3016H104.2L104.941 12.0634V13.2184H101.261ZM155.408 8.13146L157.601 10.1712L157.574 11.3016V16.0937H155.303L157.574 21.0577H152.476L150.205 16.0937H148.752V21.0577H143.601V8.05774H155.329L155.408 8.13146ZM148.752 13.2184H152.503V12.0634L151.684 11.3016H148.752V13.2184Z" fill="white"/>
</g>
<g filter="url(#filter2_d_1_1577)">
<path d="M199.818 8.05774H191.601V21.0577H204.601V17.8139H196.384V16.0937H202.491L204.601 13.9802V8.05774H199.818ZM199.818 12.4566L199.057 13.2184H196.384V11.3016H199.818V12.4566Z" fill="white"/>
</g>
<g filter="url(#filter3_d_1_1577)">
<path d="M186.491 8.05774H183.818H180.384H175.601V11.32V21.0577H180.384V11.32H183.057L183.818 12.0804V21.0577H188.601V11.32V10.1672L186.491 8.05774Z" fill="white"/>
</g>
<g filter="url(#filter4_d_1_1577)">
<path d="M171.329 21.0577L173.601 18.9483V18.8992V8.05774H159.601V18.1634V21.0332H164.752L171.329 21.0577ZM168.556 18.1879H164.752V13.7238H163.669V12.3011L164.752 11.32H168.556V18.1879Z" fill="white"/>
</g>
<defs>
<filter id="filter0_d_1_1577" x="40.6008" y="0.0577393" width="19.9553" height="30.6418" filterUnits="userSpaceOnUse" color-interpolation-filters="sRGB">
<feFlood flood-opacity="0" result="BackgroundImageFix"/>
<feColorMatrix in="SourceAlpha" type="matrix" values="0 0 0 0 0 0 0 0 0 0 0 0 0 0 0 0 0 0 127 0" result="hardAlpha"/>
<feOffset dx="2.14424" dy="2.14424"/>
<feComposite in2="hardAlpha" operator="out"/>
<feColorMatrix type="matrix" values="0 0 0 0 0 0 0 0 0 0 0 0 0 0 0 0 0 0 1 0"/>
<feBlend mode="normal" in2="BackgroundImageFix" result="effect1_dropShadow_1_1577"/>
<feBlend mode="normal" in="SourceGraphic" in2="effect1_dropShadow_1_1577" result="shape"/>
</filter>
<filter id="filter1_d_1_1577" x="67.6008" y="8.05774" width="91.5254" height="14.5254" filterUnits="userSpaceOnUse" color-interpolation-filters="sRGB">
<feFlood flood-opacity="0" result="BackgroundImageFix"/>
<feColorMatrix in="SourceAlpha" type="matrix" values="0 0 0 0 0 0 0 0 0 0 0 0 0 0 0 0 0 0 127 0" result="hardAlpha"/>
<feOffset dx="1.52536" dy="1.52536"/>
<feComposite in2="hardAlpha" operator="out"/>
<feColorMatrix type="matrix" values="0 0 0 0 0 0 0 0 0 0 0 0 0 0 0 0 0 0 1 0"/>
<feBlend mode="normal" in2="BackgroundImageFix" result="effect1_dropShadow_1_1577"/>
<feBlend mode="normal" in="SourceGraphic" in2="effect1_dropShadow_1_1577" result="shape"/>
</filter>
<filter id="filter2_d_1_1577" x="191.601" y="8.05774" width="14.5254" height="14.5254" filterUnits="userSpaceOnUse" color-interpolation-filters="sRGB">
<feFlood flood-opacity="0" result="BackgroundImageFix"/>
<feColorMatrix in="SourceAlpha" type="matrix" values="0 0 0 0 0 0 0 0 0 0 0 0 0 0 0 0 0 0 127 0" result="hardAlpha"/>
<feOffset dx="1.52536" dy="1.52536"/>
<feComposite in2="hardAlpha" operator="out"/>
<feColorMatrix type="matrix" values="0 0 0 0 0 0 0 0 0 0 0 0 0 0 0 0 0 0 1 0"/>
<feBlend mode="normal" in2="BackgroundImageFix" result="effect1_dropShadow_1_1577"/>
<feBlend mode="normal" in="SourceGraphic" in2="effect1_dropShadow_1_1577" result="shape"/>
</filter>
<filter id="filter3_d_1_1577" x="175.601" y="8.05774" width="14.5254" height="14.5254" filterUnits="userSpaceOnUse" color-interpolation-filters="sRGB">
<feFlood flood-opacity="0" result="BackgroundImageFix"/>
<feColorMatrix in="SourceAlpha" type="matrix" values="0 0 0 0 0 0 0 0 0 0 0 0 0 0 0 0 0 0 127 0" result="hardAlpha"/>
<feOffset dx="1.52536" dy="1.52536"/>
<feComposite in2="hardAlpha" operator="out"/>
<feColorMatrix type="matrix" values="0 0 0 0 0 0 0 0 0 0 0 0 0 0 0 0 0 0 1 0"/>
<feBlend mode="normal" in2="BackgroundImageFix" result="effect1_dropShadow_1_1577"/>
<feBlend mode="normal" in="SourceGraphic" in2="effect1_dropShadow_1_1577" result="shape"/>
</filter>
<filter id="filter4_d_1_1577" x="159.601" y="8.05774" width="15.5254" height="14.5254" filterUnits="userSpaceOnUse" color-interpolation-filters="sRGB">
<feFlood flood-opacity="0" result="BackgroundImageFix"/>
<feColorMatrix in="SourceAlpha" type="matrix" values="0 0 0 0 0 0 0 0 0 0 0 0 0 0 0 0 0 0 127 0" result="hardAlpha"/>
<feOffset dx="1.52536" dy="1.52536"/>
<feComposite in2="hardAlpha" operator="out"/>
<feColorMatrix type="matrix" values="0 0 0 0 0 0 0 0 0 0 0 0 0 0 0 0 0 0 1 0"/>
<feBlend mode="normal" in2="BackgroundImageFix" result="effect1_dropShadow_1_1577"/>
<feBlend mode="normal" in="SourceGraphic" in2="effect1_dropShadow_1_1577" result="shape"/>
</filter>
</defs>
</svg>
