<svg width="32" height="32" viewBox="0 0 32 32" fill="none" xmlns="http://www.w3.org/2000/svg">
<path d="M14.5 16C13.67 16 13 15.2463 13 14.3125V8.6875C13 7.75375 13.67 7 14.5 7C15.33 7 16 7.75375 16 8.6875V14.3125C16 15.2463 15.33 16 14.5 16Z" fill="#06C4FF" stroke="#06C4FF" stroke-width="1.5" stroke-linecap="round" stroke-linejoin="round"/>
<path d="M21.5 16H20V14.5C20 13.67 20.67 13 21.5 13C22.33 13 23 13.67 23 14.5C23 15.33 22.33 16 21.5 16Z" stroke="#06C4FF" stroke-linecap="round" stroke-linejoin="round"/>
<path d="M9 20C10.1067 20 11 20.7538 11 21.6875V27.3125C11 28.2463 10.1067 29 9 29C7.89333 29 7 28.2463 7 27.3125V21.6875C7 20.7538 7.89333 20 9 20Z" fill="#06C4FF" stroke="#06C4FF" stroke-width="1.5" stroke-linecap="round" stroke-linejoin="round"/>
<path d="M2.5 20H4V22C4 23.1067 3.33 24 2.5 24C1.67 24 1 23.1067 1 22C1 20.8933 1.67 20 2.5 20Z" stroke="#06C4FF" stroke-linecap="round" stroke-linejoin="round"/>
<path d="M14 21C14 19.8933 14.7538 19 15.6875 19H21.3125C22.2463 19 23 19.8933 23 21C23 22.1067 22.2463 23 21.3125 23H15.6875C14.7538 23 14 22.1067 14 21Z" fill="#06C4FF" stroke="#06C4FF" stroke-width="2" stroke-linecap="round" stroke-linejoin="round"/>
<path d="M15.5 26H14V27.5C14 28.33 14.67 29 15.5 29C16.33 29 17 28.33 17 27.5C17 26.67 16.33 26 15.5 26Z" stroke="#06C4FF" stroke-linecap="round" stroke-linejoin="round"/>
<path d="M10 15.5C10 14.67 9.24625 14 8.3125 14H2.6875C1.75375 14 1 14.67 1 15.5C1 16.33 1.75375 17 2.6875 17H8.3125C9.24625 17 10 16.33 10 15.5Z" fill="#06C4FF" stroke="#06C4FF" stroke-width="2" stroke-linecap="round" stroke-linejoin="round"/>
<path d="M8 10H10V8.5C10 7.67 9.10667 7 8 7C6.89333 7 6 7.67 6 8.5C6 9.33 6.89333 10 8 10Z" stroke="#06C4FF" stroke-linecap="round" stroke-linejoin="round"/>
</svg>
