<svg width="331" height="4" viewBox="0 0 331 4" fill="none" xmlns="http://www.w3.org/2000/svg">
<path fill-rule="evenodd" clip-rule="evenodd" d="M7.25067 0H4.75258L5.3162 3.90731H7.81429L7.25067 0ZM2.49809 4.76837e-06H0L0.563623 3.90731H3.06171L2.49809 4.76837e-06ZM9.50516 0H12.0032L12.5669 3.90731H10.0688L9.50516 0ZM16.7558 0H14.2577L14.8214 3.90731H17.3194L16.7558 0ZM19.0103 0H21.5084L22.072 3.90731H19.5739L19.0103 0ZM26.2609 0H23.7628L24.3264 3.90731H26.8245L26.2609 0ZM28.5155 0H31.0136L31.5772 3.90731H29.0791L28.5155 0ZM35.7661 0H33.2681L33.8317 3.90731H36.3298L35.7661 0ZM38.0206 0H40.5186L41.0823 3.90731H38.5842L38.0206 0ZM45.2713 0H42.7732L43.3368 3.90731H45.8349L45.2713 0ZM47.5259 0H50.0239L50.5876 3.90731H48.0895L47.5259 0ZM54.7764 0H52.2783L52.8419 3.90731H55.34L54.7764 0ZM57.031 0H59.5291L60.0927 3.90731H57.5946L57.031 0ZM64.2816 0H61.7835L62.3471 3.90731H64.8452L64.2816 0ZM66.5361 0H69.0342L69.5978 3.90731H67.0997L66.5361 0ZM73.7867 0H71.2886L71.8522 3.90731H74.3503L73.7867 0ZM76.0413 0H78.5394L79.103 3.90731H76.605L76.0413 0ZM83.2918 0H80.7938L81.3574 3.90731H83.8555L83.2918 0ZM85.5464 0H88.0445L88.6081 3.90731H86.11L85.5464 0ZM92.797 0H90.2989L90.8625 3.90731H93.3606L92.797 0ZM95.0516 0H97.5497L98.1133 3.90731H95.6152L95.0516 0ZM102.302 0H99.8041L100.368 3.90731H102.866L102.302 0ZM104.557 0H107.055L107.618 3.90731H105.12L104.557 0ZM111.807 0H109.309L109.873 3.90731H112.371L111.807 0ZM114.062 0H116.56L117.124 3.90731H114.625L114.062 0ZM121.312 0H118.814L119.378 3.90731H121.876L121.312 0ZM123.567 0H126.065L126.629 3.90731H124.131L123.567 0ZM130.818 0H128.32L128.883 3.90731H131.381L130.818 0ZM133.072 0H135.57L136.134 3.90731H133.636L133.072 0ZM140.323 0H137.825L138.388 3.90731H140.886L140.323 0ZM142.577 0H145.075L145.639 3.90731H143.141L142.577 0ZM149.828 0H147.33L147.893 3.90731H150.392L149.828 0ZM152.082 0H154.581L155.144 3.90731H152.646L152.082 0ZM159.333 0H156.835L157.399 3.90731H159.897L159.333 0ZM161.588 0H164.086L164.649 3.90731H162.151L161.588 0ZM168.838 0H166.34L166.904 3.90731H169.402L168.838 0ZM171.093 0H173.591L174.154 3.90731H171.656L171.093 0ZM183.096 0H180.598L181.162 3.90731H183.66L183.096 0ZM178.343 4.76837e-06H175.845L176.409 3.90731H178.907L178.343 4.76837e-06ZM185.35 0H187.849L188.412 3.90731H185.914L185.35 0ZM192.601 0H190.103L190.667 3.90731H193.165L192.601 0ZM194.856 0H197.354L197.917 3.90731H195.419L194.856 0ZM202.106 0H199.608L200.172 3.90731H202.67L202.106 0ZM204.361 0H206.859L207.422 3.90731H204.924L204.361 0ZM211.612 0H209.113L209.677 3.90731H212.175L211.612 0ZM213.866 0H216.364L216.928 3.90731H214.43L213.866 0ZM221.117 0H218.619L219.182 3.90731H221.68L221.117 0ZM223.371 0H225.869L226.433 3.90731H223.935L223.371 0ZM230.622 0H228.124L228.687 3.90731H231.185L230.622 0ZM232.876 0H235.374L235.938 3.90731H233.44L232.876 0ZM240.127 0H237.629L238.193 3.90731H240.691L240.127 0ZM242.381 0H244.879L245.443 3.90731H242.945L242.381 0ZM249.632 0H247.134L247.698 3.90731H250.196L249.632 0ZM251.887 0H254.385L254.948 3.90731H252.45L251.887 0ZM259.137 0H256.639L257.203 3.90731H259.701L259.137 0ZM261.392 0H263.89L264.453 3.90731H261.955L261.392 0ZM268.642 0H266.144L266.708 3.90731H269.206L268.642 0ZM270.897 0H273.395L273.959 3.90731H271.461L270.897 0ZM278.148 0H275.65L276.213 3.90731H278.711L278.148 0ZM280.402 0H282.9L283.464 3.90731H280.966L280.402 0ZM287.653 0H285.154L285.718 3.90731H288.216L287.653 0ZM289.907 0H292.405L292.969 3.90731H290.471L289.907 0ZM297.158 0H294.66L295.223 3.90731H297.721L297.158 0ZM299.412 0H301.91L302.474 3.90731H299.976L299.412 0ZM306.663 0H304.165L304.729 3.90731H307.227L306.663 0ZM308.918 0H311.416L311.979 3.90731H309.481L308.918 0ZM316.168 0H313.67L314.234 3.90731H316.732L316.168 0ZM318.423 0H320.921L321.484 3.90731H318.986L318.423 0ZM325.673 0H323.175L323.739 3.90731H326.237L325.673 0ZM327.928 0H330.426L330.99 3.90731H328.492L327.928 0ZM335.178 0H332.68L333.244 3.90731H335.742L335.178 0ZM337.433 0H339.931L340.495 3.90731H337.997L337.433 0ZM344.684 0H342.186L342.749 3.90731H345.247L344.684 0ZM346.938 0H349.436L350 3.90731H347.502L346.938 0Z" fill="url(#paint0_linear_1_688)"/>
<defs>
<linearGradient id="paint0_linear_1_688" x1="0" y1="1.95352" x2="273.254" y2="1.95352" gradientUnits="userSpaceOnUse">
<stop stop-color="#FAED7D"/>
<stop offset="1" stop-color="#FAED7D" stop-opacity="0"/>
</linearGradient>
</defs>
</svg>
