<svg width="20" height="20" viewBox="0 0 20 20" fill="none" xmlns="http://www.w3.org/2000/svg">
<g opacity="0.35">
<path d="M3.70759 4.14513L3.88081 4.21702C7.07026 5.50829 10.4728 6.19268 13.9135 6.23498C14.0286 6.22983 14.1432 6.25307 14.2472 6.30266C14.3512 6.35225 14.4414 6.42666 14.5098 6.51933C14.5783 6.61201 14.6229 6.7201 14.6397 6.83408C14.6566 6.94807 14.6451 7.06444 14.6063 7.17294C14.5496 7.31012 14.4526 7.42686 14.3281 7.50773C14.2036 7.5886 14.0575 7.62981 13.9091 7.6259H13.9005C12.9478 7.61031 12.0124 7.54622 11.0779 7.44316C11.0645 7.44182 11.0509 7.44365 11.0382 7.44851C11.0256 7.45336 11.0143 7.46111 11.0052 7.47113C10.9961 7.48115 10.9895 7.49317 10.9859 7.50621C10.9823 7.51925 10.9817 7.53295 10.9844 7.54622C11.1715 8.05461 11.8072 8.39065 12.5208 8.74834C12.5338 8.75649 12.5488 8.76081 12.5641 8.76081C12.5794 8.76081 12.5944 8.75649 12.6074 8.74834L15.9254 6.97374C16.0937 6.87883 16.2913 6.84984 16.4799 6.89241C16.6684 6.93498 16.8344 7.04607 16.9456 7.20412C16.9955 7.28189 17.0288 7.36915 17.0434 7.4604C17.058 7.55166 17.0536 7.64495 17.0304 7.73442C17.0073 7.82388 16.9658 7.90759 16.9088 7.98028C16.8517 8.05297 16.7802 8.11307 16.6988 8.15681L12.0488 10.7949C11.8967 10.8775 11.7693 10.9991 11.6796 11.1472C11.59 11.2952 11.5413 11.4645 11.5387 11.6376V14.8083C11.5378 14.9066 11.5155 15.0036 11.4733 15.0925C11.4312 15.1813 11.3701 15.2599 11.2944 15.3227C11.2152 15.3878 11.124 15.4366 11.0259 15.4663C10.9278 15.496 10.8248 15.5061 10.7228 15.496C10.541 15.4805 10.3714 15.3978 10.2472 15.2641C10.1229 15.1304 10.0529 14.9553 10.0508 14.7728V12.6769C10.0508 12.6128 10.0594 12.5418 10.0594 12.4777C10.0598 12.464 10.0569 12.4505 10.0511 12.4381C10.0452 12.4258 10.0365 12.415 10.0256 12.4067C9.03917 11.7233 7.39016 9.20217 6.84626 6.71132C6.84711 6.69623 6.84237 6.68134 6.83295 6.66952C6.82352 6.6577 6.81007 6.64976 6.79516 6.64723C5.60396 6.33545 4.43383 5.9481 3.29187 5.48755L3.08835 5.40787C2.99538 5.37384 2.91108 5.31972 2.84143 5.24937C2.77179 5.17901 2.71853 5.09416 2.68544 5.00086C2.65236 4.90755 2.64026 4.8081 2.65002 4.70959C2.65978 4.61108 2.69116 4.51593 2.74191 4.43094C2.846 4.27675 3.00069 4.1638 3.17925 4.11161C3.3578 4.05942 3.54898 4.07128 3.71972 4.14513H3.70759ZM10.6943 9.74087C10.9795 9.73152 11.2567 9.83569 11.4652 10.0305C11.6737 10.2254 11.7964 10.495 11.8063 10.7802V16.7561C11.787 17.0379 11.6615 17.3019 11.4551 17.4947C11.2486 17.6875 10.9767 17.7947 10.6943 17.7947C10.4118 17.7947 10.1399 17.6875 9.93345 17.4947C9.72702 17.3019 9.60148 17.0379 9.5822 16.7561V10.7802C9.59214 10.495 9.71482 10.2254 9.9233 10.0305C10.1318 9.83569 10.409 9.73152 10.6943 9.74087ZM17.2063 7.3375C17.2786 7.45597 17.3256 7.58816 17.3442 7.72571C17.3628 7.86327 17.3527 8.00318 17.3144 8.13661C17.2761 8.27004 17.2106 8.39407 17.1219 8.50086C17.0332 8.60765 16.9234 8.69487 16.7992 8.757L11.2615 11.745C11.0068 11.8839 10.7092 11.9219 10.4277 11.8515C10.1463 11.7811 9.90165 11.6073 9.74243 11.3648C9.67009 11.2463 9.62313 11.1141 9.60453 10.9766C9.58592 10.839 9.59607 10.6991 9.63433 10.5656C9.67259 10.4322 9.73813 10.3082 9.82681 10.2014C9.91548 10.0946 10.0254 10.0074 10.1495 9.94526L15.6872 6.95729C15.9419 6.81835 16.2395 6.78032 16.521 6.85077C16.8024 6.92121 17.0471 7.09496 17.2063 7.3375ZM9.36135 2.20598C9.75997 2.20373 10.1446 2.35258 10.4379 2.62256C10.5781 2.74993 10.6902 2.90522 10.7669 3.07846C10.8436 3.2517 10.8832 3.43906 10.8832 3.62852C10.8832 3.81797 10.8436 4.00533 10.7669 4.17857C10.6902 4.35181 10.5781 4.5071 10.4379 4.63447C10.1433 4.90224 9.75947 5.05062 9.36135 5.05062C8.96324 5.05062 8.57942 4.90224 8.28482 4.63447C8.14533 4.5064 8.0338 4.35091 7.9572 4.17774C7.88059 4.00456 7.84058 3.81744 7.83965 3.62808C7.85433 3.23822 8.02252 2.86996 8.30757 2.60358C8.59261 2.33719 8.97139 2.19428 9.36135 2.20598Z" fill="white"/>
<path d="M14.6342 17.7734V17.2339C14.8398 17.043 15.0306 16.8632 15.2068 16.6944C15.3866 16.5256 15.5426 16.3677 15.6747 16.2209C15.8068 16.0705 15.9096 15.9292 15.983 15.7971C16.06 15.6613 16.0986 15.5347 16.0986 15.4172C16.0986 15.2594 16.0582 15.1438 15.9775 15.0704C15.9004 14.9933 15.7976 14.9548 15.6692 14.9548C15.5517 14.9548 15.4471 14.9897 15.3554 15.0594C15.2673 15.1254 15.1811 15.2007 15.0967 15.2851L14.5902 14.7786C14.6819 14.6832 14.7719 14.6006 14.8599 14.5309C14.948 14.4575 15.0398 14.3988 15.1352 14.3547C15.2343 14.307 15.337 14.2722 15.4435 14.2502C15.5536 14.2281 15.6728 14.2171 15.8013 14.2171C15.9775 14.2171 16.1389 14.2446 16.2857 14.2997C16.4325 14.3547 16.5591 14.4318 16.6656 14.5309C16.772 14.63 16.8546 14.7511 16.9133 14.8942C16.972 15.0337 17.0014 15.1897 17.0014 15.3622C17.0014 15.5016 16.9702 15.6448 16.9078 15.7916C16.8491 15.9347 16.772 16.0778 16.6766 16.2209C16.5812 16.3641 16.4729 16.5035 16.3518 16.6393C16.2344 16.7751 16.1169 16.9036 15.9995 17.0247C16.0876 17.0137 16.1866 17.0045 16.2967 16.9971C16.4105 16.9861 16.5059 16.9806 16.583 16.9806H17.1665V17.7734H14.6342Z" fill="white"/>
</g>
</svg>
