<svg width="20" height="20" viewBox="0 0 20 20" fill="none" xmlns="http://www.w3.org/2000/svg">
<path d="M7.57954 7.72186C7.57954 7.53202 7.48462 7.34218 7.19986 7.34218C6.9151 7.34218 6.82018 7.53202 6.82018 7.72186V11.7085C6.82018 12.0882 6.53542 12.278 6.15574 12.278H6.06082C5.68114 12.278 5.39638 11.9933 5.39638 11.6136V6.86758C5.39638 5.63362 6.4405 4.68442 7.57954 4.68442H12.3255C13.5595 4.68442 14.6036 5.72854 14.6036 6.9625V11.7085C14.6036 12.0882 14.3189 12.3729 13.9392 12.3729C13.5595 12.3729 13.2747 12.0882 13.2747 11.8034V7.72186C13.2747 7.53202 13.0849 7.34218 12.8951 7.34218C12.6103 7.34218 12.5154 7.53202 12.5154 7.72186V19.0173C12.5154 19.5868 12.0408 19.9665 11.5662 19.9665C11.0916 19.9665 10.617 19.4919 10.617 19.0173V12.0882C10.617 11.8983 10.4271 11.7085 10.2373 11.7085H9.7627C9.57286 11.7085 9.38302 11.8983 9.38302 12.0882V19.0173C9.38302 19.5868 8.90842 19.9665 8.43382 19.9665C7.8643 19.9665 7.48462 19.4919 7.48462 19.0173C7.57954 19.0173 7.57954 7.72186 7.57954 7.72186V7.72186ZM10.2373 0.0333443C11.3763 0.0333443 12.3255 0.982544 12.3255 2.12158C12.3255 3.26062 11.3763 4.30474 10.2373 4.30474C9.09826 4.30474 8.05414 3.35554 8.05414 2.2165C8.05414 1.07746 9.00334 0.0333443 10.2373 0.0333443Z" fill="white"/>
</svg>
