<svg width="32" height="32" viewBox="0 0 32 32" fill="none" xmlns="http://www.w3.org/2000/svg">
<path d="M30 2H2V30H30V2Z" fill="white" fill-opacity="0.01"/>
<path d="M24.4 19H7.6C5.61177 19 4 20.567 4 22.5C4 24.433 5.61177 26 7.6 26H24.4C26.3882 26 28 24.433 28 22.5C28 20.567 26.3882 19 24.4 19Z" fill="#06C4FF" stroke="#06C4FF" stroke-width="1.3125" stroke-linecap="round" stroke-linejoin="round"/>
<path d="M23 15C25.7614 15 28 12.7614 28 10C28 7.23858 25.7614 5 23 5C20.2386 5 18 7.23858 18 10C18 12.7614 20.2386 15 23 15Z" stroke="#06C4FF" stroke-width="1.3125" stroke-linecap="round" stroke-linejoin="round"/>
<path d="M4 10L9.5 5L15 10L9.5 15L4 10Z" fill="#06C4FF" stroke="#06C4FF" stroke-width="1.3125" stroke-linecap="round" stroke-linejoin="round"/>
</svg>
