<svg width="32" height="32" viewBox="0 0 32 32" fill="none" xmlns="http://www.w3.org/2000/svg">
<path d="M10.75 10.1667C12.0387 10.1667 13.0834 9.122 13.0834 7.83333C13.0834 6.54467 12.0387 5.5 10.75 5.5C9.46136 5.5 8.41669 6.54467 8.41669 7.83333C8.41669 9.122 9.46136 10.1667 10.75 10.1667Z" fill="#06C4FF" stroke="#06C4FF" stroke-width="1.3125" stroke-linecap="round" stroke-linejoin="round"/>
<path d="M21.25 10.1667C22.5387 10.1667 23.5834 9.122 23.5834 7.83333C23.5834 6.54467 22.5387 5.5 21.25 5.5C19.9614 5.5 18.9167 6.54467 18.9167 7.83333C18.9167 9.122 19.9614 10.1667 21.25 10.1667Z" fill="#06C4FF" stroke="#06C4FF" stroke-width="1.3125" stroke-linecap="round" stroke-linejoin="round"/>
<path d="M7.83331 13.6666H13.6666L12.5 26.5H8.99998L7.83331 13.6666Z" fill="#06C4FF" stroke="#06C4FF" stroke-width="1.3125" stroke-linecap="round" stroke-linejoin="round"/>
<path d="M18.3333 13.6666H24.1666L23 26.5H19.5L18.3333 13.6666Z" fill="#06C4FF" stroke="#06C4FF" stroke-width="1.3125" stroke-linecap="round" stroke-linejoin="round"/>
</svg>
