<svg width="32" height="32" viewBox="0 0 32 32" fill="none" xmlns="http://www.w3.org/2000/svg">
<path d="M7.33333 23.125L16 28L21.3333 25L24.6667 23.125" stroke="#06C4FF" stroke-width="1.3125" stroke-linecap="round" stroke-linejoin="round"/>
<path d="M26.6667 20V10L18.3333 5.3125" stroke="#06C4FF" stroke-width="1.3125" stroke-linecap="round" stroke-linejoin="round"/>
<path d="M13.6667 5.3125L5.33333 10V20" stroke="#06C4FF" stroke-width="1.3125" stroke-linecap="round" stroke-linejoin="round"/>
<path d="M14 12.5L12 13.6667V16V18.3333L14 19.5L16 20.6667L18 19.5L20 18.3333V16V13.6667L18 12.5L16 11.3333L14 12.5Z" fill="#06C4FF" stroke="#06C4FF" stroke-width="1.3125" stroke-linecap="round" stroke-linejoin="round"/>
<path d="M16 11.3333V6.66666" stroke="#06C4FF" stroke-width="1.3125" stroke-linecap="round" stroke-linejoin="round"/>
<path d="M20 18L24.6667 20.6667" stroke="#06C4FF" stroke-width="1.3125" stroke-linecap="round" stroke-linejoin="round"/>
<path d="M12 18L7.33333 20.6667" stroke="#06C4FF" stroke-width="1.3125" stroke-linecap="round" stroke-linejoin="round"/>
<path d="M16 6.66666C17.1046 6.66666 18 5.77123 18 4.66666C18 3.56209 17.1046 2.66666 16 2.66666C14.8954 2.66666 14 3.56209 14 4.66666C14 5.77123 14.8954 6.66666 16 6.66666Z" fill="#06C4FF" stroke="#06C4FF" stroke-width="1.3125" stroke-linecap="round" stroke-linejoin="round"/>
<path d="M5.33333 24C6.4379 24 7.33333 23.1046 7.33333 22C7.33333 20.8954 6.4379 20 5.33333 20C4.22876 20 3.33333 20.8954 3.33333 22C3.33333 23.1046 4.22876 24 5.33333 24Z" fill="#06C4FF" stroke="#06C4FF" stroke-width="1.3125" stroke-linecap="round" stroke-linejoin="round"/>
<path d="M26.6667 24C27.7712 24 28.6667 23.1046 28.6667 22C28.6667 20.8954 27.7712 20 26.6667 20C25.5621 20 24.6667 20.8954 24.6667 22C24.6667 23.1046 25.5621 24 26.6667 24Z" fill="#06C4FF" stroke="#06C4FF" stroke-width="1.3125" stroke-linecap="round" stroke-linejoin="round"/>
</svg>
