<svg width="22" height="35" viewBox="0 0 22 35" fill="none" xmlns="http://www.w3.org/2000/svg">
<g filter="url(#filter0_d_1_1719)">
<path fill-rule="evenodd" clip-rule="evenodd" d="M0.00028405 3.39674L7.00006 0L14 3.39684L6.99982 6.78987V6.79822L7.0003 6.79845L13.9999 3.40178L20.9991 6.79822L20.9995 6.79805V6.7984L20.9999 6.79862L20.9995 6.79883V13.5981L20.9996 13.5982L20.9995 13.5982V13.5998V20.3982L13.9997 23.7982L14 23.7984L13.9997 23.7985V23.8017L13.9995 23.8018V30.5999L6.99983 34H6.99972L7.36864e-06 30.5999V23.7982L6.69533e-05 23.7982V17L0.15074 17.0729L9.55872e-05 16.9997L7.00008 13.6029L12.8724 16.4525L6.99961 13.5999V13.5983L0 10.1967V3.3966L0.00028405 3.39674ZM13.9994 10.1918V10.2014L13.9996 10.2014L13.9997 10.2014V10.1917L13.9994 10.1918ZM13.9994 16.9895L13.9997 16.9894V16.9995L13.9994 16.9994V16.9895ZM13.9997 16.9999L13.8824 17.0568L13.9997 17V16.9999Z" fill="#06C4FF"/>
</g>
<path d="M9.91821e-05 23.7982L6.99992 27.1883V34L9.91821e-05 30.5999V23.7982Z" fill="#FF5CD1"/>
<path d="M13.9996 23.7982L6.99979 27.1883V34L13.9996 30.5999V23.7982Z" fill="#27FFF9"/>
<path d="M7.00012 20.4016L0.000144958 23.7984L6.99203 27.1952L14.0001 23.7984L7.00012 20.4016Z" fill="#FCEE21"/>
<path d="M0.000144958 17L6.99997 20.3885V27.2018L0.000144958 23.8018V17Z" fill="#FF5CD1"/>
<path d="M13.9998 17L6.99995 20.3885V27.2018L13.9998 23.8018V17Z" fill="#27FFF9"/>
<path d="M7.00015 13.6029L0.000175476 16.9997L6.99206 20.3965L14.0001 16.9997L7.00015 13.6029Z" fill="#5C10BF"/>
<path d="M20.9996 13.5981L13.9997 16.9866V23.7983L20.9996 20.3982V13.5981Z" fill="#27FFF9"/>
<path d="M13.9997 10.2014L6.99967 13.5982L13.9916 16.9934L20.9996 13.5982L13.9997 10.2014Z" fill="#27FFF9"/>
<path d="M6.99967 6.79813L13.9995 10.1883V17L6.99967 13.5999V6.79813Z" fill="#932CFF"/>
<path d="M20.9996 6.79803L13.9997 10.1882V16.9999L20.9996 13.5998V6.79803Z" fill="#27FFF9"/>
<path d="M14 3.4018L7.00005 6.79864L13.9919 10.1955L21 6.79864L14 3.4018Z" fill="#06C4FF"/>
<path d="M7.62939e-05 3.39658L6.9999 6.78509V13.5984L7.62939e-05 10.1967V3.39658Z" fill="#932CFF"/>
<path d="M6.99982 0L0.00012207 3.3967L13.9914 10.187L20.9992 6.79029L6.99982 0Z" fill="#06C4FF"/>
<defs>
<filter id="filter0_d_1_1719" x="0" y="0" width="21.9999" height="35" filterUnits="userSpaceOnUse" color-interpolation-filters="sRGB">
<feFlood flood-opacity="0" result="BackgroundImageFix"/>
<feColorMatrix in="SourceAlpha" type="matrix" values="0 0 0 0 0 0 0 0 0 0 0 0 0 0 0 0 0 0 127 0" result="hardAlpha"/>
<feOffset dx="1" dy="1"/>
<feComposite in2="hardAlpha" operator="out"/>
<feColorMatrix type="matrix" values="0 0 0 0 0 0 0 0 0 0 0 0 0 0 0 0 0 0 1 0"/>
<feBlend mode="normal" in2="BackgroundImageFix" result="effect1_dropShadow_1_1719"/>
<feBlend mode="normal" in="SourceGraphic" in2="effect1_dropShadow_1_1719" result="shape"/>
</filter>
</defs>
</svg>
