<svg width="140" height="40" viewBox="0 0 140 40" fill="none" xmlns="http://www.w3.org/2000/svg">
<mask id="path-1-inside-1_1_1714" fill="white">
<path fill-rule="evenodd" clip-rule="evenodd" d="M137.037 0H2.42203V2.99994H0V37.7826H2.42203V40H137.037V37.7826H140V2.99994H137.037V0Z"/>
</mask>
<path d="M2.42203 0V-1.12815H1.29388V0H2.42203ZM137.037 0H138.166V-1.12815H137.037V0ZM2.42203 2.99994V4.12809H3.55018V2.99994H2.42203ZM0 2.99994V1.8718H-1.12815V2.99994H0ZM0 37.7826H-1.12815V38.9107H0V37.7826ZM2.42203 37.7826H3.55018V36.6544H2.42203V37.7826ZM2.42203 40H1.29388V41.1281H2.42203V40ZM137.037 40V41.1281H138.166V40H137.037ZM137.037 37.7826V36.6544H135.909V37.7826H137.037ZM140 37.7826V38.9107H141.128V37.7826H140ZM140 2.99994H141.128V1.8718H140V2.99994ZM137.037 2.99994H135.909V4.12809H137.037V2.99994ZM2.42203 1.12815H137.037V-1.12815H2.42203V1.12815ZM3.55018 2.99994V0H1.29388V2.99994H3.55018ZM0 4.12809H2.42203V1.8718H0V4.12809ZM1.12815 37.7826V2.99994H-1.12815V37.7826H1.12815ZM2.42203 36.6544H0V38.9107H2.42203V36.6544ZM3.55018 40V37.7826H1.29388V40H3.55018ZM137.037 38.8719H2.42203V41.1281H137.037V38.8719ZM135.909 37.7826V40H138.166V37.7826H135.909ZM140 36.6544H137.037V38.9107H140V36.6544ZM138.872 2.99994V37.7826H141.128V2.99994H138.872ZM137.037 4.12809H140V1.8718H137.037V4.12809ZM135.909 0V2.99994H138.166V0H135.909Z" fill="#C0DAFE" mask="url(#path-1-inside-1_1_1714)"/>
</svg>
