<svg width="375" height="393" viewBox="0 0 375 393" fill="none" xmlns="http://www.w3.org/2000/svg">
<rect y="-99" width="375" height="492" fill="url(#paint0_linear_1_1509)"/>
<rect x="95" y="-99" width="280" height="492" fill="url(#paint1_linear_1_1509)"/>
<line y1="10.3809" x2="375" y2="10.3809" stroke="#A8A8A8" stroke-opacity="0.1"/>
<line y1="37.3692" x2="375" y2="37.3692" stroke="#A8A8A8" stroke-opacity="0.1"/>
<line y1="64.3577" x2="375" y2="64.3577" stroke="#A8A8A8" stroke-opacity="0.1"/>
<line y1="91.3458" x2="375" y2="91.3458" stroke="#A8A8A8" stroke-opacity="0.1"/>
<line y1="118.334" x2="375" y2="118.334" stroke="#A8A8A8" stroke-opacity="0.1"/>
<line y1="145.322" x2="375" y2="145.322" stroke="#A8A8A8" stroke-opacity="0.1"/>
<line y1="172.311" x2="375" y2="172.311" stroke="#A8A8A8" stroke-opacity="0.1"/>
<line y1="199.299" x2="375" y2="199.299" stroke="#A8A8A8" stroke-opacity="0.1"/>
<line y1="226.287" x2="375" y2="226.287" stroke="#A8A8A8" stroke-opacity="0.1"/>
<line y1="253.276" x2="375" y2="253.276" stroke="#A8A8A8" stroke-opacity="0.1"/>
<line y1="280.264" x2="375" y2="280.264" stroke="#A8A8A8" stroke-opacity="0.1"/>
<line y1="307.252" x2="375" y2="307.252" stroke="#A8A8A8" stroke-opacity="0.1"/>
<line y1="334.24" x2="375" y2="334.24" stroke="#A8A8A8" stroke-opacity="0.1"/>
<line y1="361.229" x2="375" y2="361.229" stroke="#A8A8A8" stroke-opacity="0.1"/>
<line opacity="0.2" x1="28.5" y1="-97.9576" x2="28.5" y2="393" stroke="#A8A8A8" stroke-opacity="0.2"/>
<line opacity="0.2" x1="56.5" y1="-97.9576" x2="56.5" y2="393" stroke="#A8A8A8" stroke-opacity="0.2"/>
<line opacity="0.2" x1="84.5" y1="-97.9576" x2="84.5" y2="393" stroke="#A8A8A8" stroke-opacity="0.2"/>
<line opacity="0.2" x1="112.5" y1="-97.9576" x2="112.5" y2="393" stroke="#A8A8A8" stroke-opacity="0.2"/>
<line opacity="0.2" x1="140.5" y1="-97.9576" x2="140.5" y2="393" stroke="#A8A8A8" stroke-opacity="0.2"/>
<line opacity="0.2" x1="168.5" y1="-99" x2="168.5" y2="391.958" stroke="#A8A8A8" stroke-opacity="0.2"/>
<line opacity="0.2" x1="196.5" y1="-97.9576" x2="196.5" y2="393" stroke="#A8A8A8" stroke-opacity="0.2"/>
<line opacity="0.2" x1="224.5" y1="-97.9576" x2="224.5" y2="393" stroke="#A8A8A8" stroke-opacity="0.2"/>
<line opacity="0.2" x1="252.5" y1="-97.9576" x2="252.5" y2="393" stroke="#A8A8A8" stroke-opacity="0.2"/>
<line opacity="0.2" x1="280.5" y1="-97.9576" x2="280.5" y2="393" stroke="#A8A8A8" stroke-opacity="0.2"/>
<line opacity="0.2" x1="308.5" y1="-97.9576" x2="308.5" y2="393" stroke="#A8A8A8" stroke-opacity="0.2"/>
<line opacity="0.2" x1="336.5" y1="-97.9576" x2="336.5" y2="393" stroke="#A8A8A8" stroke-opacity="0.2"/>
<line opacity="0.2" x1="364.5" y1="-97.9576" x2="364.5" y2="393" stroke="#A8A8A8" stroke-opacity="0.2"/>
<defs>
<linearGradient id="paint0_linear_1_1509" x1="0" y1="-99" x2="494.682" y2="111.557" gradientUnits="userSpaceOnUse">
<stop stop-color="#591EA6"/>
<stop offset="0.263251" stop-color="#400E82"/>
<stop offset="1" stop-color="#210743"/>
</linearGradient>
<linearGradient id="paint1_linear_1_1509" x1="475.649" y1="-235.748" x2="182.426" y2="431.424" gradientUnits="userSpaceOnUse">
<stop stop-color="#5500AD" stop-opacity="0.63"/>
<stop offset="1" stop-color="#5500AD" stop-opacity="0.4"/>
</linearGradient>
</defs>
</svg>
