<svg width="16" height="16" viewBox="0 0 16 16" fill="none" xmlns="http://www.w3.org/2000/svg">
<path d="M8 16C12.4183 16 16 12.4183 16 8C16 3.58172 12.4183 0 8 0C3.58172 0 0 3.58172 0 8C0 12.4183 3.58172 16 8 16Z" fill="#F0B90B"/>
<path fill-rule="evenodd" clip-rule="evenodd" d="M4.59528 5.96795L8.00331 2.55994L9.36217 3.9188L5.95416 7.32683L4.59528 5.96795ZM4.59777 10.0404L10.0441 4.59408L11.403 5.95296L5.95664 11.3993L4.59777 10.0404ZM12.081 6.63486L6.63469 12.0812L7.99355 13.44L13.4399 7.99373L12.081 6.63486ZM2.56 8.00282L3.91886 6.64394L5.27774 8.00282L3.91886 9.36168L2.56 8.00282Z" fill="white"/>
</svg>
